<svg xmlns="http://www.w3.org/2000/svg" xmlns:xlink="http://www.w3.org/1999/xlink" viewBox="0 0 1681.41 1001.41"><defs><linearGradient id="uuid-49726445-65fa-4b19-ad8e-6a81e8da83c9" x1="725.09" y1="563.75" x2="593.13" y2="438.68" gradientUnits="userSpaceOnUse"><stop offset="0" stop-color="#191818"/><stop offset=".27" stop-color="#5b5958"/><stop offset=".62" stop-color="#adaaa9"/><stop offset=".88" stop-color="#e1dedc"/><stop offset="1" stop-color="#f6f2f0"/></linearGradient><linearGradient id="uuid-6f23ea3b-ca45-475a-9858-bfacc6ff3595" x1="689.22" y1="576.56" x2="584.76" y2="477.55" gradientUnits="userSpaceOnUse"><stop offset="0" stop-color="#191818"/><stop offset=".27" stop-color="#5b5958"/><stop offset=".62" stop-color="#adaaa9"/><stop offset=".88" stop-color="#e1dedc"/><stop offset="1" stop-color="#f6f2f0"/></linearGradient><linearGradient id="uuid-a477e7a5-b752-4bcd-bda2-826c92af761f" x1="639.16" y1="554.5" x2="553.7" y2="473.5" xlink:href="#uuid-49726445-65fa-4b19-ad8e-6a81e8da83c9"/><linearGradient id="uuid-7143e756-169b-4f81-a29c-11e3f053acb4" x1="435.23" y1="288.78" x2="499.59" y2="356.51" xlink:href="#uuid-49726445-65fa-4b19-ad8e-6a81e8da83c9"/><linearGradient id="uuid-7af4b802-bb22-452b-8f60-5de0cf21aee0" x1="418.13" y1="316.7" x2="462.37" y2="363.26" xlink:href="#uuid-6f23ea3b-ca45-475a-9858-bfacc6ff3595"/><linearGradient id="uuid-dd107ab4-9fc1-4c94-b737-2323598f2508" x1="418.15" y1="347.01" x2="464.69" y2="395.99" xlink:href="#uuid-49726445-65fa-4b19-ad8e-6a81e8da83c9"/><radialGradient id="uuid-b4e3d805-a12e-4322-a54e-4b5dd47418ae" cx="961.06" cy="473.56" fx="961.06" fy="473.56" r="37.49" gradientTransform="rotate(-136.5 988.13 16.07)scale(1 -1)" gradientUnits="userSpaceOnUse"><stop offset="0" stop-color="#fdec51"/><stop offset=".17" stop-color="#f8e54d"/><stop offset=".39" stop-color="#ebd545"/><stop offset=".64" stop-color="#d6b937"/><stop offset=".91" stop-color="#b89224"/><stop offset=".99" stop-color="#af861e"/></radialGradient><radialGradient id="uuid-f3339869-6cf7-4174-8b58-62ac7cff44b9" cx="509.44" cy="485.38" fx="509.44" fy="485.38" r="37.49" gradientTransform="rotate(46.5 777.55 434.9)" xlink:href="#uuid-b4e3d805-a12e-4322-a54e-4b5dd47418ae"/><style>.uuid-5e1a8929-2cb3-40bf-8bce-ad51dfe7b5a4{fill:#333;stroke-width:0}.uuid-097e55e6-69e4-4fc8-8f32-048662f35999,.uuid-256e0d42-a584-40eb-9e7d-0bf68daf42ba,.uuid-8e48ede4-30b2-4b47-9360-e2ac8f33201e,.uuid-d65e5eda-d0d4-4d49-9aa5-f2862c48d258,.uuid-f06579f2-3525-46b2-b4da-1945c64253e2{stroke-width:0}.uuid-256e0d42-a584-40eb-9e7d-0bf68daf42ba{fill:#292425}.uuid-f06579f2-3525-46b2-b4da-1945c64253e2{fill:#191818}.uuid-0b134df0-ca0d-4354-9c16-770c7c5680ba{stroke:#191818;stroke-width:2.67px;fill:none;stroke-miterlimit:10}.uuid-5b1cd45f-c39b-40b4-be26-86aeb804d5b6{fill:none;stroke-miterlimit:10;stroke:#292425}.uuid-8e48ede4-30b2-4b47-9360-e2ac8f33201e{fill:#ccc}.uuid-097e55e6-69e4-4fc8-8f32-048662f35999{fill:#e6e6e6}.uuid-d65e5eda-d0d4-4d49-9aa5-f2862c48d258{fill:#f6f2f0}</style></defs><g id="uuid-e3dc9325-279e-4699-95be-612efcf96473"><path d="M1680.71.71v555.7h-345.9c2.86-56.22-5.17-124.8-30.43-209.84-30.1-101.36-115.86-150.63-115.86-150.63l-2.24-35.44c12.46 0 17.18-10.45 0-14.38s-204.04-16.72-237.15-17.7-244.88-7.22-266.52-7.22c-5.58 0-17.75.26-32.87.66-.25-4.97-.81-10.28-1.8-16.01-13.96-80.65-58.08-25.49-85.97 18.62-15.87.52-27.48.91-29.83 1-8.2.32-11.06 8.82-3.91 8.82l-.14 32.27c-92.77 46.1-189.79 217.13-168.97 389.72l-1.09.13H.71V.71z" stroke-width="0" fill="#ebebeb"/><path d="M1680.71 556.41v444.3H.71v-444.3h357.32l1.09-.13c9.64 79.91 44.54 160.16 116.83 228.5 228.42 215.93 665.39 106.35 724.98 34.35 43.19-52.19 126.33-114.64 133.88-262.72z" stroke-width="0" fill="#a67c52"/><path class="uuid-8e48ede4-30b2-4b47-9360-e2ac8f33201e" d="M492.14 210.09c-13.49 7.09-23.39 22.51-35.59 32.51-37.2 30.47-78.68 145.66-83.88 172.94 0 0-75.92 318.39 280.23 447.61 356.15 129.21 570.97-90.46 584.7-113.88 10.73-18.3 69.76-91.8 74.66-160.05l.04-.59c19.97-276.1-83.47-356.11-128.93-390.51q3.74-1.02 5.15-2.18s85.76 49.27 115.86 150.63c25.26 85.04 33.29 153.62 30.43 209.84-7.55 148.08-90.69 210.53-133.88 262.72-59.59 72-496.56 181.58-724.98-34.35-72.29-68.34-107.19-148.59-116.83-228.5-20.82-172.59 76.2-343.62 168.97-389.72.31 1.77 2 3.49 4.93 5.14-16.3 22.99-31.18 33.93-40.88 38.39"/><path class="uuid-097e55e6-69e4-4fc8-8f32-048662f35999" d="M561.97 124.47a631 631 0 0 0-7.5 12.2c-15.73-.98-25.1-1.8-26.24-2.38-7.15 0-4.29-8.5 3.91-8.82 2.35-.09 13.96-.48 29.83-1M1183.37 198.12c45.46 34.4 148.9 114.41 128.93 390.51 1.28-18.9-1.63-37.39-10.9-54.18-42.8-77.53-184.13-175-293.15-201.82-54.12-13.32-126.47-19.12-128.59-16.42-6.63-3.86-17.07-6.19-32.5-6.19-24.12-.01-42.55-.11-57.22-.86-51.16-2.63-56.72-13.19-99.14-55.56-27.19-27.15-38.58-45.86-42.72-61.87 176.01 16.15 488.42 19.3 535.29 6.39"/><path class="uuid-256e0d42-a584-40eb-9e7d-0bf68daf42ba" d="m803.58 416.08.44-.3a275 275 0 0 1 40.29-23.89c15.9-7.61 65.81-57.91 35.35-75.68 2.12-2.7 74.47 3.1 128.59 16.42 109.02 26.82 250.35 124.29 293.15 201.82 9.27 16.79 12.18 35.28 10.9 54.18l-.04.59c-4.9 68.25-63.93 141.75-74.66 160.05-13.73 23.42-228.55 243.09-584.7 113.88S372.67 415.54 372.67 415.54c5.2-27.28 46.68-142.47 83.88-172.94 12.2-10 22.1-25.42 35.59-32.51 9.7-4.46 24.58-15.4 40.88-38.39q.61.36 1.32.71c-.24 10.45 3.3 16.62 10.84 23.78 24.26-2.25 44.32.49 68.85 9.2a59 59 0 0 0 17.73-15.24q7.94.8 16.32 1.58c4.14 16.01 15.53 34.72 42.72 61.87 42.42 42.37 47.98 52.93 99.14 55.56 0 0-36.15 1.26-50.06 23.47 7.67 24.22 10.3 53.41 7.38 77.09 16.07 15.49 46.06 13.24 56.32 6.36"/><path class="uuid-8e48ede4-30b2-4b47-9360-e2ac8f33201e" d="m1186.28 160.5 2.24 35.44q-1.41 1.16-5.15 2.18c-46.87 12.91-359.28 9.76-535.29-6.39-3.25-12.54-2.05-23.43-.51-35.43.61-4.72 1.27-9.61 1.73-14.84 187.39 8.39 527.11 20.08 536.98 19.04"/><path class="uuid-097e55e6-69e4-4fc8-8f32-048662f35999" d="M1186.28 146.12c17.18 3.93 12.46 14.38 0 14.38-9.87 1.04-349.59-10.65-536.98-19.04.53-6 .81-12.45.44-19.6 15.12-.4 27.29-.66 32.87-.66 21.64 0 233.41 6.23 266.52 7.22s219.97 13.76 237.15 17.7"/><path class="uuid-f06579f2-3525-46b2-b4da-1945c64253e2" d="M879.66 316.21c30.46 17.77-19.45 68.07-35.35 75.68a275 275 0 0 0-40.73 24.19c-10.26 6.88-40.25 9.13-56.32-6.36 2.92-23.68.29-52.87-7.38-77.09 13.91-22.21 50.06-23.47 50.06-23.47 14.67.75 33.1.85 57.22.86 15.43 0 25.87 2.33 32.5 6.19"/><path class="uuid-5e1a8929-2cb3-40bf-8bce-ad51dfe7b5a4" d="M649.74 121.86c.37 7.15.09 13.6-.44 19.6-40.22-1.8-73.41-3.45-94.83-4.79 2.33-3.88 4.84-7.99 7.5-12.2 25.17-.81 61.08-1.92 87.77-2.61"/><path class="uuid-f06579f2-3525-46b2-b4da-1945c64253e2" d="M647.94 105.85c.99 5.73 1.55 11.04 1.8 16.01-26.69.69-62.6 1.8-87.77 2.61 27.89-44.11 72.01-99.27 85.97-18.62"/><path class="uuid-5e1a8929-2cb3-40bf-8bce-ad51dfe7b5a4" d="M649.3 141.46c-.46 5.23-1.12 10.12-1.73 14.84-3.98 15.01-9.54 25.88-15.81 33.85-47.95-4.87-83.59-10.81-97.42-17.74q.03-1.35.15-2.81 5.29-7.63 10.69-17.02c2.55-4.44 5.7-9.9 9.29-15.91 21.42 1.34 54.61 2.99 94.83 4.79"/><path d="M647.57 156.3c-1.54 12-2.74 22.89.51 35.43q-8.38-.78-16.32-1.58c6.27-7.97 11.83-18.84 15.81-33.85" stroke-width="0" fill="#4d4d4d"/><path class="uuid-f06579f2-3525-46b2-b4da-1945c64253e2" d="M631.76 190.15a59 59 0 0 1-17.73 15.24c-24.53-8.71-44.59-11.45-68.85-9.2-7.54-7.16-11.08-13.33-10.84-23.78 13.83 6.93 49.47 12.87 97.42 17.74"/><path class="uuid-8e48ede4-30b2-4b47-9360-e2ac8f33201e" d="M554.47 136.67c-3.59 6.01-6.74 11.47-9.29 15.91a240 240 0 0 1-10.69 17.01l-1.47 2.11c-2.93-1.65-4.62-3.37-4.93-5.14l.14-32.27c1.14.58 10.51 1.4 26.24 2.38"/><path fill="none" stroke-miterlimit="10" stroke="#292425" stroke-width="1.41" d="M1680.71 556.41v444.3H.71V.71h1680z"/></g><g id="uuid-62c093ee-fcc8-479c-b910-393a7dd7b34c"><path class="uuid-5b1cd45f-c39b-40b4-be26-86aeb804d5b6" d="m1186.28 160.49 2.23 35.45s85.76 49.27 115.86 150.62c91.78 309.03-43.86 400.56-103.45 472.56s-496.56 181.58-724.98-34.35S392.35 234 528.08 166.55l.13-32.28"/><path class="uuid-5b1cd45f-c39b-40b4-be26-86aeb804d5b6" d="M528.09 166.56c6.63 37.66 634.77 50.57 660.42 29.38M528.22 134.28c9.92 5.09 644.5 27.64 658.06 26.21"/><path class="uuid-5b1cd45f-c39b-40b4-be26-86aeb804d5b6" d="M1186.28 160.49c12.46 0 17.18-10.45 0-14.38s-204.04-16.72-237.15-17.7-244.88-7.21-266.52-7.21-142.28 3.93-150.47 4.26-11.06 8.82-3.91 8.82"/><path class="uuid-0b134df0-ca0d-4354-9c16-770c7c5680ba" d="M739.88 332.62c7.67 24.22 10.3 53.42 7.38 77.1M545.18 196.19c24.26-2.25 44.31.49 68.84 9.2"/><path class="uuid-0b134df0-ca0d-4354-9c16-770c7c5680ba" d="M493.86 209.23c-14.38 6.64-24.6 22.95-37.31 33.36-37.19 30.48-78.68 145.67-83.88 172.95 0 0-75.91 318.39 280.24 447.6s570.97-90.45 584.7-113.87 106.6-137.29 63.8-214.82-184.13-175.01-293.16-201.83c-54.12-13.31-126.46-19.11-128.59-16.42"/><path class="uuid-0b134df0-ca0d-4354-9c16-770c7c5680ba" d="M491.19 210.51c11.96-5.17 32.57-20.59 53.99-57.94s85.4-147 102.75-46.73c10.87 62.82-30.25 74.72 42.87 147.75 54.58 54.52 48.12 56.38 156.36 56.42 86.31.03 16.5 72.61-2.85 81.88-19.8 9.48-35.05 19.93-48.04 29.47"/><path class="uuid-0b134df0-ca0d-4354-9c16-770c7c5680ba" d="M789.94 309.15s-36.15 1.27-50.06 23.47M647.57 156.3c-7.52 28.34-20.69 41.94-33.55 49.09M534.49 169.59c-.98 12.2 2.49 18.82 10.69 26.6M804.02 415.78c-9.82 7.11-40.46 9.66-56.76-6.06"/><path class="uuid-5b1cd45f-c39b-40b4-be26-86aeb804d5b6" d="M.71 556.41h357.32M1333.99 556.41h346.72"/></g><g id="uuid-5669315c-55c3-4bae-acbe-69d869629414"><path d="M607.64 423.39a504 504 0 0 1 33.86 33.26 485 485 0 0 1 30.71 36.25c9.55 12.64 18.51 25.82 25.76 39.99 3.6 7.08 6.79 14.41 9.03 22.06a79 79 0 0 1 2.48 11.66c.52 3.94.63 7.94.17 11.87.3-7.92-1.37-15.72-3.93-23.13-2.52-7.44-5.92-14.55-9.65-21.46a254 254 0 0 0-12.29-20.13 370 370 0 0 0-13.76-19.19 502 502 0 0 0-14.72-18.51 751 751 0 0 0-15.39-17.97 909 909 0 0 0-15.92-17.54 756 756 0 0 0-16.36-17.16Z" stroke-width="0" fill="url(#uuid-49726445-65fa-4b19-ad8e-6a81e8da83c9)"/><path d="M610.39 451.15a533 533 0 0 1 18.91 35.77 588 588 0 0 1 8.49 18.38q4.06 9.28 7.8 18.69c4.92 12.58 9.43 25.34 12.91 38.42a181 181 0 0 1 4.22 19.85c.46 3.35.84 6.73.94 10.11a47 47 0 0 1-.55 10.11 55 55 0 0 0-.17-10.06 95 95 0 0 0-1.55-9.93 218 218 0 0 0-4.95-19.5 392 392 0 0 0-6.31-19.13 536 536 0 0 0-7.1-18.87 883 883 0 0 0-15.67-37.18q-4.11-9.22-8.37-18.38c-2.79-6.13-5.73-12.19-8.59-18.3Z" stroke-width="0" fill="url(#uuid-6f23ea3b-ca45-475a-9858-bfacc6ff3595)"/><path d="M586.45 439.61q2.43 4.21 4.66 8.53 2.26 4.31 4.39 8.68 4.22 8.77 7.82 17.84a226 226 0 0 1 11.4 37.3c2.56 12.77 4.02 25.89 2.91 38.95a90 90 0 0 1-3.63 19.23 71 71 0 0 1-8.25 17.63c6.22-11.42 9.07-24.23 9.74-37 .04-1.6.14-3.2.14-4.81l-.03-4.81-.24-4.81c-.08-1.6-.27-3.2-.4-4.8a176 176 0 0 0-2.93-19.04 220 220 0 0 0-4.69-18.72 308 308 0 0 0-6.02-18.38 446 446 0 0 0-14.88-35.81Z" stroke-width="0" fill="url(#uuid-a477e7a5-b752-4bcd-bda2-826c92af761f)"/><path d="M519.79 337.19a304 304 0 0 0-23.42-21.99c-4.11-3.4-8.29-6.73-12.66-9.76-4.34-3.07-8.85-5.9-13.54-8.32a63 63 0 0 0-14.67-5.63c-5.06-1.2-10.37-1.41-15.36-.09s-9.48 4.29-13.04 8.15c-3.63 3.84-6.34 8.52-8.71 13.33 1.81-5.05 4.22-9.98 7.69-14.22a32 32 0 0 1 6-5.65 26 26 0 0 1 7.47-3.68c5.36-1.69 11.13-1.51 16.51-.39a64 64 0 0 1 15.37 5.73c9.66 5.08 18.34 11.69 26.34 18.91a185 185 0 0 1 22.01 23.6Z" stroke-width="0" fill="url(#uuid-7143e756-169b-4f81-a29c-11e3f053acb4)"/><path d="M492.02 334.48c-4.59-2.01-9.12-4.1-13.77-5.9a174 174 0 0 0-14.03-5.03 118 118 0 0 0-14.38-3.6 74 74 0 0 0-14.63-1.3c-1.22-.02-2.43.12-3.65.17-1.21.09-2.41.29-3.61.43-2.37.45-4.74.99-6.99 1.85a31 31 0 0 0-6.45 3.17c-.96.72-2 1.34-2.87 2.17q-.7.57-1.37 1.18l-1.26 1.29q-.65.64-1.19 1.36-.58.7-1.14 1.41l-1.02 1.51-.51.75-.45.79-.91 1.59q-.4.82-.79 1.66c-.56 1.09-.96 2.26-1.4 3.41a62 62 0 0 0-3.24 14.51c-.03-5 .55-10.05 1.95-14.93 1.45-4.84 3.65-9.61 7.09-13.5 1.65-2 3.65-3.68 5.75-5.21a34 34 0 0 1 6.88-3.6c2.4-.98 4.93-1.55 7.46-2.06 1.27-.16 2.55-.38 3.82-.49 1.28-.06 2.56-.23 3.84-.21 10.26-.1 20.27 2.23 29.73 5.62 2.38.82 4.71 1.77 7.04 2.72 2.29 1.03 4.61 1.99 6.86 3.11 4.53 2.16 8.92 4.58 13.23 7.13Z" stroke-width="0" fill="url(#uuid-7af4b802-bb22-452b-8f60-5de0cf21aee0)"/><path d="M503.59 358.4c-5.31-2.28-10.88-3.74-16.48-4.99a155 155 0 0 0-34.09-3.55c-5.71.07-11.4.47-17.01 1.39a82 82 0 0 0-16.44 4.26 61 61 0 0 0-14.88 8.01 50 50 0 0 0-11.67 12.25 64 64 0 0 0-7.52 15.4 57 57 0 0 1 6.38-16.13c3-5.01 6.88-9.55 11.49-13.21a59 59 0 0 1 15.25-8.74 83 83 0 0 1 16.95-4.55 119 119 0 0 1 34.83.03 131 131 0 0 1 17.03 3.54c5.56 1.62 11.11 3.46 16.16 6.29" stroke-width="0" fill="url(#uuid-dd107ab4-9fc1-4c94-b737-2323598f2508)"/><path d="M642.74 363.19c-13.66 14.41-12.08 38.1 3.54 52.9 15.61 14.8 53.01.7 53.01.7s12.08-38.1-3.54-52.9-39.35-15.11-53.01-.7" stroke-width="0" fill="url(#uuid-b4e3d805-a12e-4322-a54e-4b5dd47418ae)"/><path class="uuid-f06579f2-3525-46b2-b4da-1945c64253e2" d="M642.74 363.19c-13.8 14.35-11.07 37.92 2.75 51.19 3.21 3.42 7.48 5.47 12 6.45 9.16 1.92 18.73.58 27.8-1.42a113 113 0 0 0 13.51-3.91l-.82.87c2.63-8.93 4.37-18.36 4.59-27.69.08-4.67-.24-9.37-1.48-13.84-1.22-4.47-3.49-8.62-7.08-11.64-13.99-13.09-37.68-14.56-51.26 0Zm0 0c15-16.4 44.3-13.26 57.04 4.45 8.48 14.24 4.98 34.36.82 49.56l-.19.65-.64.22c-14.96 4.97-34.86 9.53-49.53 1.83-18.36-11.77-23.08-40.85-7.5-56.71"/><path class="uuid-256e0d42-a584-40eb-9e7d-0bf68daf42ba" d="M662.4 381.7c-9.63 9.64-10.03 24.85-10.03 24.85s15.21-.42 24.84-10.06 10.03-24.85 10.03-24.85-15.21.42-24.84 10.06"/><ellipse class="uuid-d65e5eda-d0d4-4d49-9aa5-f2862c48d258" cx="671.3" cy="373.38" rx="3.5" ry="6.26" transform="rotate(-45 671.21 373.37)"/><path d="M583.04 303.56c-14.4 13.68-38.08 12.12-52.9-3.47s-.76-53.01-.76-53.01 38.08-12.12 52.9 3.47 15.16 39.33.76 53.01" stroke-width="0" fill="url(#uuid-f3339869-6cf7-4174-8b58-62ac7cff44b9)"/><path class="uuid-f06579f2-3525-46b2-b4da-1945c64253e2" d="M583.04 303.56c-15.84 15.59-44.92 10.91-56.72-7.43-7.72-14.66-3.18-34.57 1.77-49.53l.22-.64.65-.19c15.2-4.18 35.31-7.7 49.56.76 17.72 12.72 20.9 42.01 4.52 57.03m0 0c14.53-13.6 13.04-37.28-.07-51.26-3.02-3.58-7.18-5.85-11.65-7.06-4.47-1.24-9.17-1.56-13.84-1.47-9.33.23-18.76 1.98-27.69 4.62l.87-.83a112 112 0 0 0-3.9 13.52c-1.98 9.07-3.31 18.64-1.38 27.8.98 4.53 3.04 8.79 6.46 12 13.29 13.8 36.87 16.5 51.19 2.69Z"/><path class="uuid-256e0d42-a584-40eb-9e7d-0bf68daf42ba" d="M564.51 283.93c-9.63 9.64-24.84 10.06-24.84 10.06s.4-15.21 10.03-24.85 24.84-10.06 24.84-10.06-.4 15.21-10.03 24.85"/><circle class="uuid-d65e5eda-d0d4-4d49-9aa5-f2862c48d258" cx="570.86" cy="273.07" r="3.5"/><path d="M539.16 411.97c48.16 12.49 68.25-22.62 34.17-30.26a5 5 0 0 1-3.89-4.09c-5.97-34.5-43.29-17.54-33.32 31.15a4.3 4.3 0 0 0 3.04 3.2" stroke-width="0" fill="#4c4345"/><path class="uuid-0b134df0-ca0d-4354-9c16-770c7c5680ba" d="M797.03 420.52c-23.69 17.41-39.81 31.81-62.14 31.8M734.89 451.59a136 136 0 0 1-26.82 38.2c-18.89 18.92-43.23 31.4-68.5 37.19"/></g></svg>