<svg xmlns="http://www.w3.org/2000/svg" xmlns:xlink="http://www.w3.org/1999/xlink" viewBox="0 0 1684.41 1001"><defs><linearGradient id="uuid-13335094-66d9-4740-b712-8b1bba704176" x1="202.11" y1="641.45" x2="1608.06" y2="641.45" gradientUnits="userSpaceOnUse"><stop offset="0" stop-color="#fbb03b"/><stop offset=".09" stop-color="#ff922b"/><stop offset=".2" stop-color="#fbb03b"/><stop offset=".32" stop-color="#ff922b"/><stop offset=".44" stop-color="#fbb03b"/><stop offset=".54" stop-color="#ff922b"/><stop offset=".65" stop-color="#fbb03b"/><stop offset=".72" stop-color="#ff922b"/><stop offset=".81" stop-color="#fbb03b"/><stop offset=".89" stop-color="#ff922b"/><stop offset="1" stop-color="#fbb03b"/></linearGradient><linearGradient id="uuid-13d235d9-b4e2-4984-bfa7-54744c390080" x1="260.14" y1="615.62" x2="403.06" y2="619.36" gradientUnits="userSpaceOnUse"><stop offset="0" stop-color="#191818"/><stop offset=".27" stop-color="#5b5958"/><stop offset=".62" stop-color="#adaaa9"/><stop offset=".88" stop-color="#e1dedc"/><stop offset="1" stop-color="#f6f2f0"/></linearGradient><linearGradient id="uuid-0b77dae2-0115-45cd-8ce4-3a025fdbf4b5" x1="272.98" y1="642.68" x2="386.12" y2="645.65" gradientUnits="userSpaceOnUse"><stop offset="0" stop-color="#191818"/><stop offset=".27" stop-color="#5b5958"/><stop offset=".62" stop-color="#adaaa9"/><stop offset=".88" stop-color="#e1dedc"/><stop offset="1" stop-color="#f6f2f0"/></linearGradient><linearGradient id="uuid-728d69ac-1081-40a9-a465-78e05bd586b4" x1="313.1" y1="658.23" x2="405.65" y2="660.65" xlink:href="#uuid-13d235d9-b4e2-4984-bfa7-54744c390080"/><linearGradient id="uuid-70f90a59-0e73-43e9-b6e5-b5160f44fcc1" x1="643.61" y1="614.76" x2="500.69" y2="618.5" xlink:href="#uuid-13d235d9-b4e2-4984-bfa7-54744c390080"/><linearGradient id="uuid-7c43cdef-cf7b-4b77-bec5-f183199d99c2" x1="630.78" y1="641.82" x2="517.63" y2="644.78" xlink:href="#uuid-0b77dae2-0115-45cd-8ce4-3a025fdbf4b5"/><linearGradient id="uuid-69c4a2b9-8544-470a-ac07-fbc7cfed3b32" x1="590.66" y1="657.36" x2="498.11" y2="659.79" xlink:href="#uuid-13d235d9-b4e2-4984-bfa7-54744c390080"/><radialGradient id="uuid-9ecb4966-17a1-48b2-93e2-c48eb2b4ea62" cx="390.77" cy="559.87" fx="390.77" fy="559.87" r="29.48" gradientTransform="rotate(1.5 838.58 500.54)" gradientUnits="userSpaceOnUse"><stop offset="0" stop-color="#fdec51"/><stop offset=".17" stop-color="#f8e54d"/><stop offset=".39" stop-color="#ebd545"/><stop offset=".64" stop-color="#d6b937"/><stop offset=".91" stop-color="#b89224"/><stop offset=".99" stop-color="#af861e"/></radialGradient><radialGradient id="uuid-cac0c6bb-c514-4ef9-a78b-08ed13cc3b1e" cx="1117.71" cy="540.84" fx="1117.71" fy="540.84" r="29.48" gradientTransform="rotate(178.5 810.21 -.29)scale(1 -1)" xlink:href="#uuid-9ecb4966-17a1-48b2-93e2-c48eb2b4ea62"/><style>.uuid-7a711afa-d9d8-4601-866d-f8d7ae0a8a12{stroke-width:1.18px}.uuid-42cc0eca-e8d5-4f90-bdc8-54d25d1e5b02,.uuid-634b2290-0dbb-43d5-804c-61b08a0a048b,.uuid-7a711afa-d9d8-4601-866d-f8d7ae0a8a12,.uuid-bb30f194-73fe-4dfb-b2be-5735cd656723,.uuid-f02c7019-25c9-4849-96e7-2d1e8b758089{fill:none;stroke:#292425;stroke-miterlimit:10}.uuid-09590c15-be42-40e5-b14c-7c4bc1456129,.uuid-1d482c16-0a02-4ba2-abb7-5097c9280512,.uuid-38346ff2-5bcf-4f31-8e8a-a8a48d79e71a,.uuid-a410afce-b0fd-46aa-8918-fdea52b9867d,.uuid-e12b00ac-5996-4634-9aa5-3a0274f8ae81,.uuid-e495bcd0-986f-4908-aea5-8f19589de218,.uuid-e62c9474-6d87-44d0-bf7f-f67fb087cc1a{stroke-width:0}.uuid-bb30f194-73fe-4dfb-b2be-5735cd656723{stroke-width:1.16px}.uuid-09590c15-be42-40e5-b14c-7c4bc1456129{fill:#292425}.uuid-e62c9474-6d87-44d0-bf7f-f67fb087cc1a{fill:#ffc5de}.uuid-a410afce-b0fd-46aa-8918-fdea52b9867d{fill:#c69c6d}.uuid-1d482c16-0a02-4ba2-abb7-5097c9280512{fill:#a67c52}.uuid-42cc0eca-e8d5-4f90-bdc8-54d25d1e5b02{stroke-width:.76px}.uuid-e495bcd0-986f-4908-aea5-8f19589de218{fill:#191818}.uuid-e12b00ac-5996-4634-9aa5-3a0274f8ae81{fill:#ebebeb}.uuid-38346ff2-5bcf-4f31-8e8a-a8a48d79e71a{fill:#f6f2f0}.uuid-f02c7019-25c9-4849-96e7-2d1e8b758089{stroke-width:1.1px}</style></defs><g id="uuid-09ad9f59-069e-4e65-89f6-4cabaa51108f"><path d="M865.56 367.32c-184.01-1.62-411.4-3.92-419.49-3.22C432.81 365.25.5 353.27.5 353.27v-23.32s799.26 17.48 811.47 17.48c1.91 0 21.47.34 53.59.93 172.88 3.16 709.51 13.45 814.94 15.94v14.31c-33.2-.89-549.35-11.2-583.81-9.98-13.44.48-113.41-.28-231.13-1.31" fill="#fdec51" stroke-width="0"/><path class="uuid-e12b00ac-5996-4634-9aa5-3a0274f8ae81" d="M1680.5 378.61v58.79s-62.51 2.18-99.5 15c-16.09-10.52-35.7-18.21-48.02-18.21-29.83 0-115.43 34.37-150.45 19.45s-355.81-18.33-393.1-3.14c-22.71 9.26-80.44 16.46-123.87 19.93V367.32c117.72 1.03 217.69 1.79 231.13 1.31 34.46-1.22 550.61 9.09 583.81 9.98M202.52 735.93c15.21 5.28 25.71 16.48 25.71 29.45 0 11.45-8.18 21.53-20.56 27.36q-.76.28-1.27.58l-.02.01a59 59 0 0 1-23.54 4.73c-25.07 0-45.4-14.63-45.4-32.68s20.33-32.67 45.4-32.67c7.05 0 13.73 1.16 19.68 3.22M1680.5.5v363.8c-105.43-2.49-642.06-12.78-814.94-15.94l3.89-167.08L1058.96.5z"/><path class="uuid-e12b00ac-5996-4634-9aa5-3a0274f8ae81" d="M865.56 367.32v103.11c-27.87 2.23-49.86 2.91-52.92 1.62-7.83-3.31-39.14-16.02-56.17-17.86-17.04-1.85-104.97 24.4-120.16 2.3-15.2-22.1-48.81-39.14-68.09-30.28 3.3-17.31 4.03-30.38-6.21-30.38-13.55 0-30.87 7.09-45.52 16.86-3.6.8-20.56 4.22-51.14 5.31 0 0-63.22 12.75-115.29 12.75-14.65-6.81-30.92-10.58-41.86-12.76-21.94-4.38-36.02 15.83-29.14 21.72 6.87 5.9 14.08 19.98 28.16 33.08 6.48 6.02 9.41 14.26 10.82 22.87 1.64 10.1 1.16 20.7 1.77 28.8-2.69 9.96-2.98 15.75-2.98 26.44 0 41.59 15.95 74.4 49.84 98.77 18.01 18.31 18.61 46.53 14.28 60.55-5.08-2.3-182.01 5.56-198.11 3.95S49.78 724.65.5 770.61V353.27s432.31 11.98 445.57 10.83c8.09-.7 235.48 1.6 419.49 3.22M869.45 181.28l-3.89 167.08c-32.12-.59-51.68-.93-53.59-.93C799.76 347.43.5 329.95.5 329.95V227.96z"/><path stroke-width="0" fill="#ccc" d="M1058.96.5 869.45 181.28.5 227.96V.5z"/><path class="uuid-1d482c16-0a02-4ba2-abb7-5097c9280512" d="M1680.5 610.75v389.75h-77.47s68.29-360.73 68.29-381.11c0 0 .66-2.81 1.19-7.17 4.55-3.87 7.99-1.47 7.99-1.47"/><path class="uuid-a410afce-b0fd-46aa-8918-fdea52b9867d" d="M1680.5 437.4v173.35s-3.44-2.4-7.99 1.47c1.23-10.14 1.73-28.64-8.52-39.52-14.65-15.57-76.84-67.34-76.84-67.34q5.48-2.34 10.03-4.86c22.46-12.46 6.7-33.15-16.18-48.1 36.99-12.82 99.5-15 99.5-15"/><path class="uuid-1d482c16-0a02-4ba2-abb7-5097c9280512" d="M1663.99 572.7c10.25 10.88 9.75 29.38 8.52 39.52-.53 4.36-1.19 7.17-1.19 7.17s-114.46 18.32-161.04 35.68c-19.13-55.37-48.28-100.79-47.34-107.4 1.8-12.55 81.71-23.99 124.21-42.31 0 0 62.19 51.77 76.84 67.34"/><path class="uuid-1d482c16-0a02-4ba2-abb7-5097c9280512" d="M1671.32 619.39c0 20.38-68.29 381.11-68.29 381.11h-544.07V815.15c36.96 7.17 72.25 11.76 103.09 12.02 46.49.39 85.85 9.08 120.83 18.54 0 0-36.6 57.74-34.44 74.09a46 46 0 0 0-5.49 21.64c0 29.78 29.31 53.93 65.46 53.93s65.46-24.15 65.46-53.93c0-7.69-1.96-15.01-5.49-21.63 1.7-17.11 32.83-49.65 32.83-49.65 29.39-.84 57.8-11.26 88.32-39.75 50.06-46.72 41.04-116.62 20.75-175.34 46.58-17.36 161.04-35.68 161.04-35.68"/><path d="M1058.96 815.15v185.35h-42.19l-12.24-178.45c.07-9.06-.95-14.31-13.94-22.39a1216 1216 0 0 0 68.37 15.49" stroke-width="0" fill="#8c6239"/><path class="uuid-1d482c16-0a02-4ba2-abb7-5097c9280512" d="m1004.53 822.05 12.24 178.45H193.26c30.16-12.43 811.27-178.45 811.27-178.45"/><path class="uuid-a410afce-b0fd-46aa-8918-fdea52b9867d" d="m202.11 734.38.41 1.55a60 60 0 0 0-19.68-3.22c-25.07 0-45.4 14.63-45.4 32.67s20.33 32.68 45.4 32.68a59 59 0 0 0 23.54-4.73l.02-.01 1.27-.58c22.3-8.13 202.9-3.81 253.37-3.18 51.87.64 104.4-31.13 129.54-35.67s94.18-38.91 122.71-38.26c19.38.44 148.26 51.14 277.3 84.03 12.99 8.08 14.01 13.33 13.94 22.39 0 0-781.11 166.02-811.27 178.45H.5V770.61c49.28-45.96 166.23-58.05 182.34-56.44 16.1 1.61 193.03-6.25 198.11-3.95-1.51 4.91-3.63 8.08-5.82 8.49-8.45 1.58-125.83 23.09-135.48 20.94-9.59-2.12-17.9-10.6-37.54-5.27"/><path class="uuid-e12b00ac-5996-4634-9aa5-3a0274f8ae81" d="M1282.88 845.71c44.72 12.1 82.26 25.49 118.33 24.45 0 0-31.13 32.54-32.83 49.64-10.12-19.01-33.16-32.28-59.97-32.28s-49.85 13.27-59.97 32.28c-2.16-16.35 34.44-74.09 34.44-74.09"/><path class="uuid-e12b00ac-5996-4634-9aa5-3a0274f8ae81" d="M1368.38 919.81a46 46 0 0 1 5.49 21.63c0 29.78-29.31 53.93-65.46 53.93s-65.46-24.15-65.46-53.93c0-7.69 1.96-15.01 5.49-21.63 10.12-19.02 33.16-32.29 59.97-32.29s49.85 13.27 59.97 32.28Z"/><path class="uuid-e62c9474-6d87-44d0-bf7f-f67fb087cc1a" d="M516.49 412.69c14.65-9.77 31.97-16.86 45.52-16.86 10.24 0 9.51 13.07 6.21 30.38-1.15 6.05-2.62 12.62-4.04 19.33-1.8 8.49-3.53 17.2-4.46 25.38-34.49 7.09-73.38-21.38-73.38-21.38.53-11.45 13.65-25.84 30.15-36.85M382.31 461.98s-7.3 34.1-32.6 38.52-27.42-.17-31.67-4.84c-1.41-8.61-4.34-16.85-10.82-22.87-14.08-13.1-21.29-27.18-28.16-33.08s7.2-26.1 29.14-21.72c10.94 2.18 27.21 5.95 41.86 12.76 14.75 6.85 27.87 16.77 32.25 31.23"/><path d="M865.56 470.43c43.43-3.47 101.16-10.67 123.87-19.93 37.29-15.19 358.08-11.77 393.1 3.14s120.62-19.45 150.45-19.45c12.32 0 31.93 7.69 48.02 18.21 22.88 14.95 38.64 35.64 16.18 48.1-3.02 1.68-6.39 3.3-10.03 4.86-42.5 18.32-122.41 29.76-124.21 42.31-.94 6.61 28.21 52.03 47.34 107.4 20.29 58.72 29.31 128.62-20.75 175.34-30.52 28.49-58.93 38.91-88.32 39.75-36.07 1.04-73.61-12.35-118.33-24.45-34.98-9.46-74.34-18.15-120.83-18.54-30.84-.26-66.13-4.85-103.09-12.02a1216 1216 0 0 1-68.37-15.49c-129.04-32.89-257.92-83.59-277.3-84.03-28.53-.65-97.58 33.72-122.71 38.26-25.14 4.54-77.67 36.31-129.54 35.67-50.47-.63-231.07-4.95-253.37 3.18 12.38-5.83 20.56-15.91 20.56-27.36 0-12.97-10.5-24.17-25.71-29.45l-.41-1.55c19.64-5.33 27.95 3.15 37.54 5.27 9.65 2.15 127.03-19.36 135.48-20.94 2.19-.41 4.31-3.58 5.82-8.49 4.33-14.02 3.73-42.24-14.28-60.55-33.89-24.37-49.84-57.18-49.84-98.77 0-10.69.29-16.48 2.98-26.44-.61-8.1-.13-18.7-1.77-28.8 4.25 4.67 6.37 9.26 31.67 4.84s32.6-38.52 32.6-38.52c-4.38-14.46-17.5-24.38-32.25-31.23 52.07 0 115.29-12.75 115.29-12.75 30.58-1.09 47.54-4.51 51.14-5.31-16.5 11.01-29.62 25.4-30.15 36.85 0 0 38.89 28.47 73.38 21.38.93-8.18 2.66-16.89 4.46-25.38 1.42-6.71 2.89-13.28 4.04-19.33 19.28-8.86 52.89 8.18 68.09 30.28 15.19 22.1 103.12-4.15 120.16-2.3 17.03 1.84 48.34 14.55 56.17 17.86 3.06 1.29 25.05.61 52.92-1.62" stroke-width="0" fill="url(#uuid-13335094-66d9-4740-b712-8b1bba704176)"/></g><g id="uuid-316c8201-a3d3-46cc-b32f-81ca10601fd9"><path class="uuid-f02c7019-25c9-4849-96e7-2d1e8b758089" d="M366.67 649.67c-33.89-24.37-49.84-57.18-49.84-98.78 0-10.69.28-16.48 2.98-26.43M350.06 430.75c52.08 0 115.29-12.75 115.29-12.75M465.35 418c34.71-1.24 51.88-5.47 51.88-5.47"/><path class="uuid-f02c7019-25c9-4849-96e7-2d1e8b758089" d="M559.72 470.92c.93-8.18 2.66-16.89 4.46-25.37 5.49-25.92 11.65-49.71-2.16-49.71-28.82 0-74.67 32.09-75.67 53.71 0 0 38.9 28.47 73.38 21.38ZM318.04 495.66c4.25 4.67 6.37 9.26 31.67 4.84s32.6-38.52 32.6-38.52c-8.75-28.82-52.17-39.63-74.11-44s-36.02 15.83-29.15 21.73 14.08 19.98 28.16 33.08 11.46 36.68 12.59 51.67"/><path class="uuid-f02c7019-25c9-4849-96e7-2d1e8b758089" d="M568.22 426.21c19.29-8.86 52.89 8.18 68.09 30.28s103.13-4.14 120.16-2.3 48.34 14.55 56.17 17.87 139.5-6.36 176.79-21.55 358.08-11.78 393.1 3.14 120.62-19.45 150.45-19.45 102.46 45.08 64.2 66.31-132.29 33.55-134.24 47.17 123.86 191.95 26.59 282.74-173.14-1.95-327.48-3.24S741.83 716.29 713.3 715.64s-97.58 33.72-122.72 38.26-77.66 36.32-129.54 35.67-241.24-5.19-254.85 3.89"/><ellipse cx="182.84" cy="765.38" rx="45.39" ry="32.68" fill="none" stroke="#292425" stroke-miterlimit="10" stroke-width="1.12"/><path class="uuid-f02c7019-25c9-4849-96e7-2d1e8b758089" d="M201.67 734.5c19.95-5.58 28.32 3 37.97 5.15s127.03-19.36 135.48-20.94 15.84-44.33-8.46-69.03"/><ellipse class="uuid-7a711afa-d9d8-4601-866d-f8d7ae0a8a12" cx="1308.41" cy="941.44" rx="65.46" ry="53.92"/><path class="uuid-7a711afa-d9d8-4601-866d-f8d7ae0a8a12" d="M1248.44 919.81c-2.16-16.34 34.44-74.09 34.44-74.09M1368.38 919.81c1.69-17.1 32.83-49.65 32.83-49.65"/><path class="uuid-634b2290-0dbb-43d5-804c-61b08a0a048b" d="M.5 770.61c49.28-45.96 166.23-58.05 182.34-56.44s193.03-6.25 198.11-3.95l5.08 2.3M1581 452.4c37-12.82 99.5-14.99 99.5-14.99M193.26 1000.5c30.16-12.43 811.26-178.45 811.26-178.45l12.25 178.45M1058.96 1000.5V815.15M1004.53 822.05c.07-9.06-.94-14.31-13.93-22.39M1510.28 655.07c46.58-17.36 161.04-35.67 161.04-35.67s7.33-31.13-7.33-46.7-76.84-67.33-76.84-67.33"/><path class="uuid-634b2290-0dbb-43d5-804c-61b08a0a048b" d="M1671.32 619.39c0 20.37-68.29 381.11-68.29 381.11M1672.51 612.22c4.56-3.87 7.99-1.47 7.99-1.47"/><path class="uuid-634b2290-0dbb-43d5-804c-61b08a0a048b" d="M.5.5h1680v1000H.5z"/><path class="uuid-634b2290-0dbb-43d5-804c-61b08a0a048b" d="m.5 227.96 868.95-46.68L1058.96.5"/><path class="uuid-42cc0eca-e8d5-4f90-bdc8-54d25d1e5b02" d="m869.45 181.28-3.89 167.21"/><path class="uuid-bb30f194-73fe-4dfb-b2be-5735cd656723" d="M1680.5 364.3c-125.02-2.96-856.31-16.87-868.53-16.87S.5 329.95.5 329.95M.5 353.27s432.31 11.98 445.57 10.83 616.16 5.75 650.62 4.53 550.61 9.08 583.81 9.98"/><path class="uuid-42cc0eca-e8d5-4f90-bdc8-54d25d1e5b02" d="M865.56 364.37v107.68"/></g><g id="uuid-2fb6ceaa-e68b-4624-9a88-84e66a8cecb8"><path class="uuid-09590c15-be42-40e5-b14c-7c4bc1456129" d="M1462.36 547.76c-1.31-5.6-5.35-10.26-8.94-14.64-11.33-12.66-26.58-24.84-43.71-27.76 17.25 2.65 32.78 14.65 44.38 27.18 3.8 4.5 8 9.16 9.44 15.04zM590.58 631.53c7.37-6.99 13.22-15.45 18.25-24.23 12.55-21.88 18.32-48.36 11.74-73.07a101 101 0 0 0-4.99-14.37 94 94 0 0 1 5.52 14.23c7.24 24.78 1.46 51.77-11.53 73.63-5.22 8.71-11.27 17.13-18.99 23.8Z"/><path class="uuid-42cc0eca-e8d5-4f90-bdc8-54d25d1e5b02" d="M54.91 331.14v16.1M81.21 331.72v9.56M105.89 332.25v14.99M42.84 331.14v8.61M29.78 331.72v12.78M17.23 330.32v7.79M4.17 329.95v13.39M67.93 331.72v7.47M93.8 339.75v-7.76M118.51 331.99v9.95M131.31 347.24v-14.43M143.56 333.08l-.55 8.86M154.87 332.81v14.43M167.48 333.6v7.68M178.93 333.6v11.5M190.25 334.09v7.85M202.87 334.09v13.15M214.7 341.94v-7.85M226.67 347.24l-.52-12.36M238.51 335.14v7.61M250.48 335.41v11.12M260.24 335.62v7.13M272.2 335.62v11.62M284.42 336.14v6.61M295.36 347.24v-10.86M306.15 336.62v6.13M317.86 336.87v12.52M328.14 342.75v-5.66M339.97 337.35v10.61M350.24 337.35v5.78M360.91 337.81v11.58M372.88 338.07v8.2M382.63 337.81v11.58M393.43 345.75v-7.24M403.45 339.69v8.92M415.67 339.69v6.06M425.95 339.69v8.92M436.1 340.24v4.99M446.63 340.24v9.15M457.28 340.24v4.99M467.04 340.24v8.37M476.98 340.32v6.92M487.09 340.54v10.03M497.19 340.76v4.05M507.65 340.76v8.93M519.88 340.76v6.06M530.16 340.76v8.93M539.86 341.18v6.06M550.14 341.18v8.92M560.13 342.36v6.06M570.41 342.36v8.93M581.73 342.77v6.06M641.31 345.61v16.1M667.61 346.19v9.56M692.3 346.73v14.98M629.24 345.61v8.61M616.18 346.19v12.78M603.63 344.79v7.79M590.58 344.42v13.4M654.34 346.19v7.47M680.2 354.22v-7.76M704.91 346.46v9.95M717.72 361.71v-14.43M729.97 347.55l-.56 8.86M741.28 347.28v14.43M753.89 348.07v7.68M765.34 348.07v11.5M776.65 348.56v7.85M789.27 348.56v13.15M801.11 356.41v-7.85M813.08 361.71l-.53-12.36M824.92 349.62v7.61M836.89 349.88V361M846.64 350.09v7.14M858.6 350.09v11.62M870.83 350.62v6.61M881.77 361.71v-10.86M892.56 351.09v6.14M904.26 351.34v12.52M914.54 357.23v-5.66M926.37 351.82v10.61M936.65 351.82v5.78M947.31 352.28v11.58M959.28 352.54v8.2M969.04 352.28v11.58M979.84 360.22v-7.24M989.85 354.16v8.92M1002.08 354.16v6.06M1012.35 354.16v8.92M1022.5 354.71v4.99M1033.04 354.71v9.15M1043.69 354.71v4.99M1053.44 354.71v8.37M1063.38 354.8v6.91M1073.5 355.01v10.03M1083.6 355.23v4.06M1094.06 355.24v8.92M1106.29 355.24v6.06M1116.56 355.24v8.92M1126.27 355.65v6.06M1136.54 355.65v8.92M1146.54 356.83v6.07M1156.82 356.83v8.93M1168.14 357.25v6.06M1231.67 354.68v16.1M1257.97 355.25v9.56M1282.65 355.79v14.99M1219.6 354.68v8.61M1206.54 355.25v12.78M1193.99 353.86v7.78M1180.93 353.49v13.39M1244.69 355.25v7.48M1270.56 363.29v-7.76M1295.27 355.53v9.94M1308.07 370.78v-14.43M1320.32 356.61l-.55 8.86M1331.63 356.35v14.43M1344.24 357.14v7.67M1355.69 357.14v11.49M1367.01 357.63v7.84M1379.63 357.63v13.15M1391.46 365.47v-7.84M1403.43 370.78l-.52-12.37M1415.27 358.68v7.61M1427.24 358.94v11.12M1437 359.16v7.13M1448.96 359.16v11.62M1461.19 359.68v6.61M1472.12 370.78v-10.86M1482.91 360.15v6.14M1494.62 360.41v12.52M1504.9 366.29v-5.66M1516.73 360.89v10.61M1527.01 360.89v5.78M1537.67 361.35v11.58M1549.64 361.6v8.2M1559.39 361.35v11.58M1570.19 369.28v-7.23M1580.21 363.22v8.93M1592.43 363.22v6.06M1602.71 363.22v8.93M1612.86 363.78v4.98M1623.39 363.78v9.15M1634.04 363.78v4.98M1643.8 363.78v8.37M1653.74 363.86v6.92M1663.85 364.08v10.03M1673.95 364.3v4.05"/><path class="uuid-09590c15-be42-40e5-b14c-7c4bc1456129" d="M704.91 541.48c12.82 30.82 13.28 65.42 7.89 97.97-1.88 10.89-4.34 21.71-7.89 32.17a202 202 0 0 0 4.09-16.04c8.01-37.49 9.53-77.73-4.09-114.11ZM432.04 658.59c4.97 6.91 13.12 11.14 21.5 11.99 8.47.84 16.85-1.85 24.14-6.08 4.92-2.83 9.38-6.38 13.61-10.16a68 68 0 0 1-13.22 10.82 44 44 0 0 1-15.99 6.14c-11.29 1.85-23.93-2.8-30.04-12.7ZM1248.34 822.05c51.46-3.93 92.86-54.94 96.43-104.74.58-7.32.4-14.7-.53-22.01a108 108 0 0 1 1.02 22.04c-2.79 50.16-44.93 102.01-96.92 104.71M812.82 471.59c39.74 15.34 68.79 49.27 77.37 91.04a106 106 0 0 1 2.37 17.59 106 106 0 0 0-2.49-17.56c-6.25-28.9-22.72-55.63-46.63-73.18-9.53-6.98-20-12.64-30.98-16.96zM375.12 718.21c30.83-1.36 73.56-7.89 99.67-24.72a50 50 0 0 0 11.08-9.77 51 51 0 0 1-11.01 9.87c-20.89 13.51-45.93 18.71-70.15 22.69a268 268 0 0 1-29.57 2.94l-.02-1Z"/></g><g id="uuid-075238f5-ffc5-415c-8a78-f9e51abad129"><path d="M455.82 633.63c33.73-19.81 25.4-50.51 2.2-35.83a4 4 0 0 1-4.44-.11c-22.49-15.88-33.83 14.3-1.23 35.85 1.01.67 2.43.71 3.47.09" stroke-width="0" fill="#4c4345"/><path d="M419.99 548.93c-.41 15.61-14.45 27.91-31.36 27.47s-29.88-29.07-29.88-29.07 14.45-27.91 31.36-27.47 30.29 13.46 29.88 29.07" stroke-width="0" fill="url(#uuid-9ecb4966-17a1-48b2-93e2-c48eb2b4ea62)"/><path class="uuid-e495bcd0-986f-4908-aea5-8f19589de218" d="M419.99 548.93c-.15 17.48-18.93 31.04-35.69 27.38-12.53-3.95-20.91-17.39-26.54-28.54l-.23-.48.26-.47c6.2-10.85 15.27-23.83 28-27.12 16.93-2.77 34.98 11.76 34.21 29.22Zm0 0c.56-15.59-13.51-28.02-28.53-28.48-11.37-.67-19.78 9.66-25.92 17.98a87 87 0 0 0-5.84 9.39l.02-.94a87 87 0 0 0 5.34 9.69c5.68 8.64 13.56 19.39 24.94 19.32 15.02.33 29.72-11.35 29.98-26.96Z"/><path class="uuid-09590c15-be42-40e5-b14c-7c4bc1456129" d="M398.77 548.31c0 10.72-8.23 19.4-8.23 19.4s-8.23-8.69-8.23-19.4c0-10.72 8.23-19.4 8.23-19.4s8.23 8.69 8.23 19.4"/><circle class="uuid-38346ff2-5bcf-4f31-8e8a-a8a48d79e71a" cx="396.27" cy="538.73" r="2.75"/><path d="M486.35 548.93c.41 15.61 14.45 27.91 31.36 27.47s29.88-29.07 29.88-29.07-14.45-27.91-31.36-27.47-30.29 13.46-29.88 29.07" stroke-width="0" fill="url(#uuid-cac0c6bb-c514-4ef9-a78b-08ed13cc3b1e)"/><path class="uuid-e495bcd0-986f-4908-aea5-8f19589de218" d="M486.35 548.93c.26 15.6 14.96 27.28 29.98 26.95 11.39.07 19.26-10.68 24.94-19.32a87 87 0 0 0 5.34-9.69l.02.94a88 88 0 0 0-5.84-9.39c-6.13-8.32-14.55-18.65-25.92-17.98-15.01.46-29.09 12.89-28.53 28.48Zm0 0c-.77-17.46 17.28-31.99 34.21-29.22 12.73 3.28 21.79 16.27 28 27.12l.26.47-.23.48c-5.63 11.15-14.01 24.59-26.54 28.54-16.76 3.65-35.54-9.91-35.69-27.38Z"/><path class="uuid-09590c15-be42-40e5-b14c-7c4bc1456129" d="M507.57 548.31c0 10.72 8.23 19.4 8.23 19.4s8.23-8.69 8.23-19.4c0-10.72-8.23-19.4-8.23-19.4s-8.23 8.69-8.23 19.4"/><ellipse class="uuid-38346ff2-5bcf-4f31-8e8a-a8a48d79e71a" cx="507.9" cy="538.73" rx="4.92" ry="2.75"/><path d="M403.49 602.79c-6.22.08-12.43.19-18.64.46q-9.32.34-18.6.91a509 509 0 0 0-37.02 3.56q-9.22 1.22-18.32 3.03a201 201 0 0 0-18.02 4.37 111 111 0 0 0-17.29 6.58c-5.54 2.69-10.81 6.11-15.04 10.68a38 38 0 0 1 6.69-6.51 61 61 0 0 1 7.86-5.11 101 101 0 0 1 17.28-7.25c11.9-3.85 24.21-6.21 36.55-7.93a381 381 0 0 1 37.23-3.1c12.44-.46 24.9-.41 37.32.31" stroke-width="0" fill="url(#uuid-13d235d9-b4e2-4984-bfa7-54744c390080)"/><path d="M386.53 616.71q-15 5.31-29.82 10.98c-9.88 3.8-19.7 7.74-29.38 11.98a416 416 0 0 0-14.43 6.55 297 297 0 0 0-14.14 7.14 169 169 0 0 0-13.59 8.1c-4.39 2.91-8.62 6.14-12.07 10.17a36 36 0 0 1 5.31-5.93 75 75 0 0 1 6.15-5.1c4.28-3.17 8.78-6.04 13.38-8.7a286 286 0 0 1 28.53-14.2 437.74 437.74 0 0 1 29.67-11.58 420 420 0 0 1 30.4-9.4Z" stroke-width="0" fill="url(#uuid-0b77dae2-0115-45cd-8ce4-3a025fdbf4b5)"/><path d="M406.26 623.59a347 347 0 0 0-28.18 11.66 250 250 0 0 0-13.56 6.88c-4.44 2.43-8.81 5-13.01 7.81a137 137 0 0 0-12.21 8.97 99 99 0 0 0-10.97 10.4c-6.73 7.48-12.26 16.19-15.14 26 1.01-5 2.86-9.83 5.21-14.39a71 71 0 0 1 8.66-12.72c6.64-7.88 14.75-14.37 23.26-20.05a178 178 0 0 1 27.07-14.42 219 219 0 0 1 28.87-10.12Z" stroke-width="0" fill="url(#uuid-728d69ac-1081-40a9-a465-78e05bd586b4)"/><path d="M500.27 601.93c12.42-.72 24.88-.77 37.32-.31 12.44.45 24.88 1.44 37.23 3.1 12.34 1.73 24.65 4.08 36.55 7.93a102 102 0 0 1 17.28 7.25 62 62 0 0 1 7.86 5.11 38 38 0 0 1 6.69 6.51c-4.23-4.58-9.5-7.99-15.04-10.68a111 111 0 0 0-17.29-6.58 199 199 0 0 0-18.02-4.37 290 290 0 0 0-18.32-3.03 498 498 0 0 0-37.02-3.56q-9.29-.58-18.6-.91c-6.21-.27-12.42-.38-18.64-.46" stroke-width="0" fill="url(#uuid-70f90a59-0e73-43e9-b6e5-b5160f44fcc1)"/><path d="M517.22 615.85a415 415 0 0 1 30.4 9.4 478 478 0 0 1 14.94 5.51q7.41 2.9 14.73 6.07a285 285 0 0 1 28.53 14.2c4.6 2.67 9.1 5.53 13.38 8.7a79 79 0 0 1 6.15 5.1 37 37 0 0 1 5.31 5.93c-3.45-4.03-7.68-7.26-12.07-10.17a172 172 0 0 0-13.59-8.1 307 307 0 0 0-14.14-7.14 425 425 0 0 0-14.43-6.55 695 695 0 0 0-29.38-11.98c-9.88-3.79-19.83-7.42-29.82-10.98Z" stroke-width="0" fill="url(#uuid-7c43cdef-cf7b-4b77-bec5-f183199d99c2)"/><path d="M497.49 622.73c9.82 2.71 19.5 6.05 28.87 10.12s18.5 8.79 27.07 14.42c8.52 5.68 16.62 12.17 23.26 20.05a71 71 0 0 1 8.66 12.72 56 56 0 0 1 5.21 14.39c-2.89-9.81-8.42-18.52-15.14-26a100 100 0 0 0-10.97-10.4 140 140 0 0 0-12.21-8.97 171 171 0 0 0-13.01-7.81 243 243 0 0 0-13.56-6.88 354 354 0 0 0-28.18-11.66Z" stroke-width="0" fill="url(#uuid-69c4a2b9-8544-470a-ac07-fbc7cfed3b32)"/></g></svg>