<svg xmlns="http://www.w3.org/2000/svg" xmlns:xlink="http://www.w3.org/1999/xlink" viewBox="0 0 1680.5 1000.75"><defs><linearGradient id="uuid-225a12af-7c0a-43e3-ad6c-258632e1ac75" x1="1430.58" y1="213.93" x2="1831.56" y2="-480.59" gradientUnits="userSpaceOnUse"><stop offset="0" stop-color="#006837"/><stop offset=".03" stop-color="#006c38"/><stop offset=".24" stop-color="#00813f"/><stop offset=".43" stop-color="#008d43"/><stop offset=".62" stop-color="#009245"/></linearGradient><linearGradient id="uuid-7471d240-e58d-40b6-b4f7-2dc9b9d2dc95" x1="999.06" y1="803.18" x2="999.06" y2="2165.57" gradientUnits="userSpaceOnUse"><stop offset="0" stop-color="#006837"/><stop offset=".01" stop-color="#006c38"/><stop offset=".09" stop-color="#00813f"/><stop offset=".16" stop-color="#008d43"/><stop offset=".23" stop-color="#009245"/></linearGradient><linearGradient id="uuid-9f9bca9a-82b7-4204-b35e-69d4b886500d" x1="3.91" y1="719.77" x2="381.27" y2="719.77" gradientUnits="userSpaceOnUse"><stop offset="0" stop-color="#f0d5d1"/><stop offset="1" stop-color="#e6b7af"/></linearGradient><linearGradient id="uuid-42aa9eb0-a4b2-4d1d-9ac3-c7744522c1f2" x1="1256.71" y1="483.41" x2="1256.71" y2="1040.16" gradientUnits="userSpaceOnUse"><stop offset="0" stop-color="#f6f2f0"/><stop offset=".04" stop-color="#dbd7d5"/><stop offset=".11" stop-color="#b1adac"/><stop offset=".19" stop-color="#8c8887"/><stop offset=".28" stop-color="#6d6969"/><stop offset=".37" stop-color="#544f50"/><stop offset=".47" stop-color="#413c3c"/><stop offset=".59" stop-color="#332e2f"/><stop offset=".74" stop-color="#2b2627"/><stop offset="1" stop-color="#292425"/></linearGradient><radialGradient id="uuid-0ba83a5e-927d-47af-bc81-cfc6f0f560c0" cx="533.41" cy="633.96" fx="533.41" fy="633.96" r="6.18" gradientTransform="rotate(-47.7 528.23 575.9)" gradientUnits="userSpaceOnUse"><stop offset="0" stop-color="#fff"/><stop offset="1" stop-color="#29abe2"/></radialGradient><radialGradient id="uuid-0fbc71f8-adb4-4fd8-8957-58ceb286db9b" cx="538.61" cy="587.71" fx="538.61" fy="587.71" r="10.84" gradientTransform="rotate(-36.4 541.23 579.53)" xlink:href="#uuid-0ba83a5e-927d-47af-bc81-cfc6f0f560c0"/><style>.uuid-4bce7c4e-19cf-41ad-afa3-260de7848ac4,.uuid-5e4ee038-c76b-4897-a3c4-cd9a44b78d9a,.uuid-761421d7-4a5a-4985-83a6-335bcb6cb592,.uuid-8852d144-6d0d-4b9d-9faf-a44d1a34f74f,.uuid-94fbea7d-ce61-4706-881e-e4654c07807c,.uuid-c21739b7-0bf8-499e-890d-038789ddda58,.uuid-ebb85527-a867-4e06-a985-1f3d13ba506c,.uuid-ece1ccf0-3c87-4218-9362-bc45df7840c9,.uuid-f72e27a9-0f73-40ef-91db-5256b85de737{stroke-width:0}.uuid-8852d144-6d0d-4b9d-9faf-a44d1a34f74f{fill:#009245}.uuid-761421d7-4a5a-4985-83a6-335bcb6cb592{fill:#bdccd4}.uuid-94fbea7d-ce61-4706-881e-e4654c07807c{fill:#292425}.uuid-ebb85527-a867-4e06-a985-1f3d13ba506c{fill:#ffc5de}.uuid-1839b328-ceb4-4d5d-9dcf-7754e54c97c4,.uuid-7270a359-4986-4ed3-901e-c1fc290facf8{fill:none;stroke-miterlimit:10}.uuid-7270a359-4986-4ed3-901e-c1fc290facf8{stroke-width:1.59px;stroke:#292425}.uuid-1839b328-ceb4-4d5d-9dcf-7754e54c97c4{stroke:#292425}.uuid-4bce7c4e-19cf-41ad-afa3-260de7848ac4{fill:#024724}.uuid-f72e27a9-0f73-40ef-91db-5256b85de737{fill:#ff922b}.uuid-ece1ccf0-3c87-4218-9362-bc45df7840c9{fill:#ebebeb}.uuid-5e4ee038-c76b-4897-a3c4-cd9a44b78d9a{fill:#006837}.uuid-1839b328-ceb4-4d5d-9dcf-7754e54c97c4{stroke-width:1.41px}.uuid-c21739b7-0bf8-499e-890d-038789ddda58{fill:#f6f2f0}</style></defs><g id="uuid-13b88ffb-860b-42f3-99dc-3267e7a95c32"><path class="uuid-8852d144-6d0d-4b9d-9faf-a44d1a34f74f" d="M431.91.36h24.77S453.4 37.7 434.25 48.5c-15.97 9.02-66.59 5-96.13 1.83 10.2-14.07 26.33-9.37 38.94-13.48 12.61-4.1 50.75-25.35 54.85-36.49"/><path class="uuid-8852d144-6d0d-4b9d-9faf-a44d1a34f74f" d="M456.68.36h113.24s-62.22 32.29-75.89 53.5S445 87.8 434.63 89.69c-10.37 1.88-59.39 29.22-66.93 39.45s-39.6 19.47-47.75 18.06c-8.16-1.42-38.52 11.78-46.53 38.18-11.64-63.79 18.91-107.19 36.47-134.76 5.03-1.69 9.64-2.45 13.54-1.98 3.77.46 8.81 1.05 14.69 1.69 29.54 3.17 80.16 7.19 96.13-1.83C453.4 37.7 456.68.36 456.68.36"/><path class="uuid-8852d144-6d0d-4b9d-9faf-a44d1a34f74f" d="M.25.36h431.66c-4.1 11.14-42.24 32.39-54.85 36.49s-28.74-.59-38.94 13.47c-5.88-.63-10.92-1.22-14.69-1.68-3.9-.47-8.51.29-13.54 1.98-24.28 8.14-58.56 37.99-72.61 56.56-16.96 22.44-60.73 19.7-90.28 52.53-29.54 32.83-4.37 56.35-25.71 77.69s-41.58 58.54-57.45 89.18-22.43 76.06-24.08 76.06S3.11 449.69.25 467.8z"/><path class="uuid-8852d144-6d0d-4b9d-9faf-a44d1a34f74f" d="M569.92.36h417.13c-37.56 35.35-67.61 47.28-67.61 54.79s-12.02 42.82-18.78 50.23-11.26 24.13-22.38 36.7h-.01c-14.11 3.61-27.64 7.54-41.4 11.19-26.48 7.03-53.84 13.02-87.94 13.68-127.66 2.45-237.22 116.61-237.22 116.61s-89.61 13.5-145.86 52.58a137 137 0 0 0-5.28 3.47c-31.55 16.55-58.17 12.21-81.25 12.14-20.17-3.39-41.97-2.14-61.77 6.53-37.77 16.54-27.54 50.61-15.39 55.88 6.18 2.68 27.35 13 48.94 25.01 0 0-14.85 45.28-22.06 57.71s-15.35 67.62-24.29 77.39c-50.76 55.47-67.63 210.1-72.09 226.59-7.82 28.88-88.58 138.01-128.75 199.5H.25V467.8c2.86-18.11 37.87-65.16 39.51-65.16s8.21-45.42 24.08-76.06 36.11-67.84 57.45-89.18-3.83-44.86 25.71-77.69c29.55-32.83 73.32-30.09 90.28-52.53 14.05-18.57 48.33-48.42 72.61-56.56-17.56 27.57-48.11 70.97-36.47 134.76 8.01-26.4 38.37-39.6 46.53-38.18 8.15 1.41 40.21-7.82 47.75-18.06s56.56-37.57 66.93-39.45 45.73-14.62 59.4-35.83S569.92.36 569.92.36"/><path d="M1680.25.36v826.13c-8.94-27.03-41.55-32.72-87.78-63.8-19.64-21.83-27.73-36.48-61.16-52.83 22.76-32.72-8.53-100.28-37.71-103.86 20.73-17 34.25-43.57 39.29-86.38 12.99-110.34-35.87-174.33-37.22-176.07l-.03-.04c-17.9-28.48-45.29-53.31-76.97-74.74-95.97-64.94-231.42-98.68-262.51-107.96-146.37-43.67-217.5-34.16-277.88-18.73 11.12-12.57 15.62-29.29 22.38-36.7s18.78-42.72 18.78-50.23S949.49 35.71 987.05.36z" stroke-width="0" fill="url(#uuid-225a12af-7c0a-43e3-ad6c-258632e1ac75)"/><path class="uuid-8852d144-6d0d-4b9d-9faf-a44d1a34f74f" d="M1680.25 915.37v84.99h-235.71c14.16-42.21 25.02-88.03 235.71-84.99"/><path class="uuid-5e4ee038-c76b-4897-a3c4-cd9a44b78d9a" d="M896.14 520.54c2.38 9.62 9.72 61.17 68.48 34.41-25.52 18.32-31.01 16.82-29.51 24.3l-87.28-19.42a6985 6985 0 0 0 10.29-29.59c3.97-2.03 19.01-5.79 38.02-9.7"/><path class="uuid-5e4ee038-c76b-4897-a3c4-cd9a44b78d9a" d="m1092.6 612.14.12.07a20.3 20.3 0 0 0-2.49 14.98c1.5 6.79 5.8 11.72 11.77 15.26q-5.91-1.25-12.26-2.51h-.02c-81.23-16.12-213.16-32.03-289.55 54.61 12.64-36.09 30.66-86.19 47.65-134.72h.01l87.28 19.42c1.49 7.48 98.68 13.46 110.64 18.44s46.85 14.45 46.85 14.45"/><path class="uuid-5e4ee038-c76b-4897-a3c4-cd9a44b78d9a" d="M1089.72 639.94c-87.21-6.6-168.6 34.5-206.12 42.72-35.8 7.83-57.53 16.01-90.7 32.83a2859 2859 0 0 1 7.27-20.94c76.39-86.64 208.32-70.73 289.55-54.61M621.25 545.15c6.8 0 29.55-7.01 50.26-16.74 0 0-11.51 25.1-43.32 25.88-31.8.78-55.86 34.13-70.56 40.04a219 219 0 0 0 11.06-34.5v-.02c8.26-17.26 40.39-14.66 52.55-14.66ZM706.03 585.08a361 361 0 0 1-4.09 18.43s1.93 33.13-10.01 81.22c-33.73-25.25-96.92-19.63-127.9 7.65v.08c-16.37.73-36.88 6.99-57.91 28.26a234 234 0 0 1-18.86 2.97 199 199 0 0 0-4.17-1.8c38.8-24.06 41.13-35.69 55.09-46.56 13.97-10.86 8.98 13.19 36.69-6.2 26.95-18.87 107.31-50.22 131.16-84.05"/><path class="uuid-5e4ee038-c76b-4897-a3c4-cd9a44b78d9a" d="M691.93 684.73q-1.46 5.9-3.23 12.1a379 379 0 0 1-15 42.85c-13.23-19.55-66.64-39.94-77.47-42.51-5.03-1.19-16.78-5.4-32.2-4.71v-.08c30.98-27.28 94.17-32.9 127.9-7.65"/><path class="uuid-5e4ee038-c76b-4897-a3c4-cd9a44b78d9a" d="M673.7 739.68q-1.38 3.33-2.88 6.7c-5.48 8.08-46.59 5.01-66.06 3.14-19.48-1.87-55.5-25.35-67.59-30.42-8.87-3.72-16.52-1.23-31.05 1.62 21.03-21.27 41.54-27.53 57.91-28.26 15.42-.69 27.17 3.52 32.2 4.71 10.83 2.57 64.24 22.96 77.47 42.51"/><path class="uuid-5e4ee038-c76b-4897-a3c4-cd9a44b78d9a" d="M670.82 746.39a386 386 0 0 1-26.34 49.6s-47.5 5-53.23 32.51c-30.91-13.27-70.95-47.19-78.04-70.61-6.58-21.77-8.93-26.6-25.95-34.2 7.44-.85 13.6-1.94 18.86-2.97 14.53-2.85 22.18-5.34 31.05-1.62 12.09 5.07 48.11 28.55 67.59 30.42 19.47 1.87 60.58 4.94 66.06-3.13M1102.02 642.45c9.38 5.55 22.88 7.67 36.14 8.12-81.34 26.28-366.8 94.78-430.26 224.25a72 72 0 0 0 3.26-9.78c7.04-27.15 44.28-84.57 48.16-84.57s24.05-21.73 24.05-34.14c0-2.21 3.61-13.54 9.53-30.84 33.17-16.82 54.9-25 90.7-32.83 37.52-8.22 118.91-49.32 206.12-42.72h.02q6.35 1.26 12.26 2.51z"/><path d="M1680.25 826.49v88.88c-210.69-3.04-221.55 42.78-235.71 84.99H317.86c1.58-14.56 26.9-61.26 31.65-66.01 4.12-4.11 53.54-87.89 20.37-157.78 1.6-39.02 31.42-59.96 42.44-61.26q1.79.18 3.71.24c9.52.28 22.25-5.27 22.25-5.27l.73.15c-4.61 21.62 13.02 30.72 44.08 11.46q2.22.93 4.17 1.8c17.02 7.6 19.37 12.43 25.95 34.2 7.09 23.42 47.13 57.34 78.04 70.61-1 4.74-.75 10.14 1.2 16.3q-4.31 3.65-8.45 7.78c-33.12 33.13-43.35 76.6-22.85 97.1 20.5 20.51 63.98 10.28 97.1-22.85a129 129 0 0 0 21.92-28.9h.01c6.73.42 19.77-4.19 27.72-23.11 63.46-129.47 348.92-197.97 430.26-224.25 4.99.17 9.95.1 14.65-.1 9.8-.43 17.66-2.07 24.16-3.92 10.16-2.89 17.01-6.27 22.78-6.27 9.46 0 48.39 2.16 54.94 2.17 6.55.02 55.61 6.44 66.58 14.57 9.82 7.28 21.09-15.74 21.09-15.74 65.59-5.42 117.79-7.88 151.24-35.28 29.18 3.58 60.47 71.14 37.71 103.86 33.43 16.35 41.52 31 61.16 52.83 46.23 31.08 78.84 36.77 87.78 63.8" stroke-width="0" fill="url(#uuid-7471d240-e58d-40b6-b4f7-2dc9b9d2dc95)"/><path d="M423.7 693.41v.14c-.15 4.58-12.71 12.75-12.71 12.75s-2.02-12.79-5.79-15.29a114 114 0 0 0 18.5 2.4" stroke-width="0" fill="#ccc"/><path d="M412.32 715.31c-11.02 1.3-40.84 22.24-42.44 61.26a115 115 0 0 0-21.3-30.58c-7.09-48.57-27.84-96.49-28.43-115.73 10.92 15.88 23.89 29.35 38.37 39.73a131 131 0 0 0 26.44 14.74c-4 6.82.67 28 27.36 30.58" stroke-width="0" fill="#d2948b"/><path d="M412.32 715.31c-26.69-2.58-31.36-23.76-27.36-30.58q9.85 4.06 20.24 6.28c3.77 2.5 5.79 15.29 5.79 15.29s12.56-8.17 12.7-12.75v-.14q2.74.15 5.49.14 8.9 0 17.52-1.35c-4.03 6.69-6.55 12.85-7.69 18.23l-.73-.15s-12.73 5.55-22.25 5.27a54 54 0 0 1-3.71-.24" stroke-width="0" fill="#e6b7af"/><path d="M369.88 776.57c33.17 69.89-16.25 153.67-20.37 157.78-4.75 4.75-30.07 51.45-31.65 66.01H3.91c40.17-61.49 120.93-170.62 128.75-199.5 4.46-16.49 21.33-171.12 72.09-226.59 8.94-9.77 17.08-64.96 24.29-77.39s22.06-57.71 22.06-57.71c13.05 7.25 26.26 15.12 36.41 22.28a240 240 0 0 0-4.03 44.07c0 47.86 13.86 91.55 36.67 124.74.59 19.24 21.34 67.16 28.43 115.73a115 115 0 0 1 21.3 30.58" fill="url(#uuid-9f9bca9a-82b7-4204-b35e-69d4b886500d)" stroke-width="0"/><path class="uuid-c21739b7-0bf8-499e-890d-038789ddda58" d="M707.9 502.38c4.04 18.83 5.26 45.86-1.87 82.7-23.85 33.83-104.21 65.18-131.16 84.05-27.71 19.39-22.72-4.66-36.69 6.2s-16.29 22.5-55.09 46.56c-31.06 19.26-48.69 10.16-44.08-11.46 1.14-5.38 3.66-11.54 7.69-18.23h.01c48.08-7.44 88.97-45.11 110.91-97.86h.01c14.7-5.92 38.76-39.27 70.56-40.05s43.32-25.88 43.32-25.88c16.34-7.68 31.41-17.05 36.39-26.03"/><path d="M1495.67 343.55c1.35 1.74 50.21 65.73 37.22 176.07-5.04 42.81-18.56 69.38-39.29 86.38-33.45 27.4-85.65 29.86-151.24 35.28-90.97 7.52-148.48-22.95-178-37.93a185 185 0 0 0-12.52-5.97c-11.54-4.7-21.42-4.41-35.41-3.69-14.74.77-34.05 2.02-64.68-1.58-44.15-16.19-60.58-38.46-73.42-41.15 14.33-16.05 15.8-44.05 2.43-43.58 5.21-.4 9.74-.57 13.37-.47 30.42.87 344.19 14.78 359.83 13.91 3.73-.21 17.81-3.87 36.13-10.87 15.39-5.89 33.76-14.13 51.49-24.67 49.8-29.59 94.57-77.3 54.09-141.73" stroke-width="0" fill="url(#uuid-42aa9eb0-a4b2-4d1d-9ac3-c7744522c1f2)"/><path class="uuid-f72e27a9-0f73-40ef-91db-5256b85de737" d="M1495.67 343.55c40.48 64.43-4.29 112.14-54.09 141.73-4.53-25.94 14.43-21.45 14.43-34.89s-12.73-21.92-21.92-17.68-4.24 17.68-15.42 13.44-37.61-9.19-45.41 15.68c-5.66-6-11.29-9.29-14.37-7.85-8.44 3.94-28.68 33.74-51.73 31.49-23.06-2.24-104.59-48.35-124.28-57.91s-42.17-70.86-70.28-29.24c-28.12 41.61-95.46 7.08-102.89-4.75-8.56-13.64.1-46.11-14.64-46.99-11.32-.67-24.18 24.18-38.8 24.75-14.62.56-10.59-5.27-42.65-68.63-32.05-63.34-78.8-25.85-81.3 5.82-50.84-16.55-87.96-40.82-83.39-141.57 34.1-.66 61.46-6.65 87.94-13.68-.1 12.29-28.31 34.15-24.43 45.78s55.35 11.28 68.4 4.59c13.04-6.7 47.94 31.02 51.82 49.35s20.45 80.78 38.43 76.7 24.68-42.15 41.25-40.74 11.28 50.77 19.04 62.05c7.75 11.29-1.77 37.32 29.61 36.82s74.04-74.54 88.49-90.4c14.46-15.87 80.03-56.41 99.77-33.5 19.75 22.92-29.61 33.5-20.09 57.47s47.59 40.9 75.45 20.45 45.19-11.89 57.44-12.15 22.96-11.47 22.96-36.47 12.75-33.59 33.66-24.45c31.68 21.43 59.07 46.26 76.97 74.74z"/><path class="uuid-94fbea7d-ce61-4706-881e-e4654c07807c" d="M1456.01 450.39c0 13.44-18.96 8.95-14.43 34.89-17.73 10.54-36.1 18.78-51.49 24.67l-.27-2.58c3.21-16.44-6.72-35.1-16.56-45.54 7.8-24.87 34.24-19.92 45.41-15.68 11.18 4.24 6.22-9.19 15.42-13.44s21.92 4.25 21.92 17.68M1418.67 268.77c-20.91-9.14-33.66-.55-33.66 24.45s-10.71 36.22-22.96 36.47c-12.25.26-29.59-8.3-57.44 12.15-27.86 20.45-65.93 3.52-75.45-20.45s39.84-34.55 20.09-57.47c-19.74-22.91-85.31 17.63-99.77 33.5-14.45 15.86-57.11 89.9-88.49 90.4s-21.86-25.53-29.61-36.82-2.47-60.64-19.04-62.05-23.27 36.67-41.25 40.74-34.55-58.36-38.43-76.7c-3.88-18.33-38.78-56.05-51.82-49.35-13.05 6.69-64.52 7.05-68.4-4.59s24.33-33.49 24.43-45.77c13.76-3.66 27.29-7.59 41.4-11.19h.01c60.38-15.44 131.51-24.95 277.88 18.72 31.09 9.28 166.54 43.02 262.51 107.96"/><path class="uuid-ece1ccf0-3c87-4218-9362-bc45df7840c9" d="M896.14 520.54c-19.01 3.91-34.05 7.67-38.02 9.7 20.96-60.69 38.06-113.49 37.76-125.31-.78-30.26 6.98-75.27-50.43-92.34a570 570 0 0 1-13.13-4.06c2.5-31.68 49.25-69.17 81.3-5.83 32.06 63.36 28.03 69.19 42.65 68.63s27.48-25.42 38.8-24.75c14.74.88 6.08 33.35 14.64 46.99 7.43 11.83 74.77 46.36 102.89 4.75 28.11-41.62 50.6 19.68 70.28 29.24 19.69 9.56 101.22 55.67 124.28 57.91 23.05 2.25 43.29-27.55 51.73-31.49 3.08-1.44 8.71 1.85 14.37 7.85 9.84 10.44 19.77 29.1 16.56 45.54l.27 2.58c-18.32 7-32.4 10.66-36.13 10.87-15.64.87-329.41-13.04-359.83-13.91a136 136 0 0 0-13.37.46c-22.56 1.72-57.6 7.6-84.62 13.17"/><path class="uuid-c21739b7-0bf8-499e-890d-038789ddda58" d="M1342.36 641.28s-11.27 23.02-21.09 15.74c-10.97-8.13-60.03-14.55-66.58-14.57s-45.48-2.17-54.94-2.17c-5.77 0-12.62 3.38-22.78 6.27 15.41-4.1-2.27-37.2-12.61-43.2 29.52 14.98 87.03 45.45 178 37.93"/><path class="uuid-c21739b7-0bf8-499e-890d-038789ddda58" d="M1164.36 603.35c10.34 6 28.02 39.1 12.61 43.2a103 103 0 0 1-24.16 3.92c-4.7.2-9.66.27-14.65.1-13.26-.45-26.76-2.57-36.14-8.12h-.02c-5.97-3.54-10.27-8.47-11.77-15.26a20.3 20.3 0 0 1 2.49-14.98c6.96-12 23.71-18.51 23.71-18.51 13.99-.73 23.87-1.02 35.41 3.68 3.4 1.39 7.57 3.46 12.52 5.97"/><path class="uuid-c21739b7-0bf8-499e-890d-038789ddda58" d="M978.33 550.96c12.84 2.69 29.27 24.96 73.42 41.15 30.63 3.6 49.94 2.35 64.68 1.58s-16.75 6.52-23.71 18.52l-.12-.07s-34.89-9.47-46.85-14.45-109.15-10.96-110.64-18.44c-1.5-7.48 3.99-5.98 29.51-24.3q3.15-1.43 6.49-3.17a11 11 0 0 1 7.22-.82"/><path class="uuid-94fbea7d-ce61-4706-881e-e4654c07807c" d="M980.76 507.38c13.37-.47 11.9 27.53-2.43 43.58-2.49-.52-4.83-.3-7.22.82a132 132 0 0 1-6.49 3.17c-58.76 26.76-66.1-24.79-68.48-34.41 27.02-5.57 62.06-11.45 84.62-13.17Z"/><path class="uuid-c21739b7-0bf8-499e-890d-038789ddda58" d="M792.9 715.49c-5.92 17.3-9.53 28.63-9.53 30.84 0 12.41-20.17 34.14-24.05 34.14s-41.12 57.42-48.16 84.57a72 72 0 0 1-3.26 9.78c-7.95 18.92-20.99 23.53-27.72 23.11h-.01c14.5-26.34 15.81-53.32.93-68.2-18.8-18.8-56.91-11.76-88.65 15.07-1.95-6.16-2.2-11.56-1.2-16.3 5.73-27.51 53.23-32.51 53.23-32.51a386 386 0 0 0 26.34-49.6q1.5-3.38 2.88-6.71a379 379 0 0 0 15-42.85c.79 25.06 17.86 34.37 49.67-9.08s90.78-211.05 90.78-211.05 71.38-127.25 16.3-164.11c57.41 17.07 49.65 62.08 50.43 92.34.3 11.82-16.8 64.62-37.76 125.31a6985 6985 0 0 1-10.29 29.59h-.01c-16.99 48.53-35.01 98.63-47.65 134.72a2859 2859 0 0 0-7.27 20.94"/><path class="uuid-94fbea7d-ce61-4706-881e-e4654c07807c" d="M706.03 585.08c7.13-36.84 5.91-63.87 1.87-82.7-4.48-20.87-12.4-31.67-16.24-34.58-122.56.87-169.49-145.15-179.95-184.24 0 0 109.56-114.16 237.22-116.61-4.57 100.75 32.55 125.02 83.39 141.57a524 524 0 0 0 13.13 4.07c55.08 36.86-16.3 164.11-16.3 164.11s-58.97 167.6-90.78 211.05-48.88 34.14-49.67 9.08q1.76-6.2 3.23-12.1c11.94-48.09 10.01-81.22 10.01-81.22q2.38-9.6 4.09-18.43"/><path class="uuid-ece1ccf0-3c87-4218-9362-bc45df7840c9" d="M691.66 467.8c3.84 2.91 11.76 13.71 16.24 34.58-4.98 8.98-20.05 18.35-36.39 26.03-20.71 9.73-43.46 16.74-50.26 16.74-12.16 0-44.29-2.6-52.55 14.66a239 239 0 0 0 6.17-54.29c0-103.84-65.23-188.02-145.69-188.02-12.71 0-25.04 2.1-36.79 6.05a126 126 0 0 0-26.54 12.59c56.25-39.08 145.86-52.58 145.86-52.58 10.46 39.09 57.39 185.11 179.95 184.24"/><path class="uuid-c21739b7-0bf8-499e-890d-038789ddda58" d="M592.45 844.8c31.74-26.83 69.85-33.87 88.65-15.07 14.88 14.88 13.57 41.86-.93 68.2a129 129 0 0 1-21.92 28.9c-33.12 33.13-76.6 43.36-97.1 22.85s-10.27-63.97 22.85-97.1q4.14-4.13 8.45-7.78"/><path class="uuid-ece1ccf0-3c87-4218-9362-bc45df7840c9" d="M446.71 692.2za114 114 0 0 1-26.92.96c-2.81-13.95-14.78-29.24-28.9-41.57.96-4.27 2.4-10.83 3.41-12.23.76-1.07 10.28.83 13.29.94 2.91.11 4.28-4.09-.8-4.28s-13.08-1.27-14.35-.52c-1.05.62-4.15 8.34-5.75 12.55-13.66-11.07-28.6-19.12-38.91-20.55-22.3-3.09-21.06-19.2 5.58-39.64 13.16-10.1 30.99-19.74 47.55-28.49a46 46 0 0 0 7.04 8.9c3.66 3.58 15.81-.88 6.47-7.78-2.51-1.86-4.53-3.01-6.34-4.91 14.09-7.43 26.53-14.12 33.24-19.76 15.49-13 5.57-66.9 22.92-86.72 17.34-19.82 35.93-60.71-5.58-87.34-41.03-26.34-58.83-24.11-66.26-38.21a115 115 0 0 1 36.79-6.05c80.46 0 145.69 84.18 145.69 188.02 0 18.88-2.16 37.1-6.17 54.29v.02a219 219 0 0 1-11.06 34.5h-.01c-21.94 52.76-62.83 90.43-110.91 97.87Z"/><path class="uuid-f72e27a9-0f73-40ef-91db-5256b85de737" d="M320.15 630.26c-22.81-33.19-36.67-76.88-36.67-124.74 0-15.18 1.39-29.94 4.03-44.07 6.08 4.29 11.06 8.32 14.26 11.82 1.62-28.14 24.26-88.3 43.33-86.9-4.21-5.58-10.15-10.98-17.36-15.83-12.96-8.72-30.01-15.69-48.42-18.79 23.08.07 49.7 4.41 81.25-12.14q2.61-1.8 5.28-3.47c8.43-5.26 17.3-9.49 26.54-12.59 7.43 14.1 25.23 11.87 66.26 38.21 41.51 26.63 22.92 67.52 5.58 87.34s-7.43 73.72-22.92 86.72c-6.71 5.64-19.15 12.33-33.24 19.76-2.7-2.84-4.97-7.35-7.81-18.35-4.68-18.09-20.16-40.99-20.64-41.7.2.89 6.87 29.27 10.46 37.8 2.74 6.49 5.07 16.7 10.82 26.04-16.56 8.75-34.39 18.39-47.55 28.49-26.64 20.44-27.88 36.55-5.58 39.64 10.31 1.43 25.25 9.48 38.91 20.55l-.83 2.22c-1.17 3.22 4.08 5.42 4.58 3.29l.45-1.97c14.12 12.33 26.09 27.62 28.9 41.57q-7.4-.61-14.58-2.15a117 117 0 0 1-20.24-6.28 131.25 131.25 0 0 1-26.44-14.74c-14.48-10.38-27.45-23.85-38.37-39.73"/><path class="uuid-94fbea7d-ce61-4706-881e-e4654c07807c" d="M414.41 560.49c9.34 6.9-2.81 11.36-6.47 7.78a46 46 0 0 1-7.04-8.9c-5.75-9.34-8.08-19.55-10.82-26.04-3.59-8.53-10.26-36.91-10.46-37.8.48.71 15.96 23.61 20.64 41.7 2.84 11 5.11 15.51 7.81 18.35 1.81 1.9 3.83 3.05 6.34 4.91M406.78 636.02c5.08.19 3.71 4.39.8 4.28-3.01-.11-12.53-2.01-13.29-.94-1.01 1.4-2.45 7.96-3.41 12.23l-.45 1.97c-.5 2.13-5.75-.07-4.58-3.29l.83-2.22c1.6-4.21 4.7-11.93 5.75-12.55 1.27-.75 9.27.32 14.35.52"/><path class="uuid-ebb85527-a867-4e06-a985-1f3d13ba506c" d="M345.1 386.37c-19.07-1.4-41.71 58.76-43.33 86.9-3.2-3.5-8.18-7.53-14.26-11.82-10.15-7.16-23.36-15.03-36.41-22.28-21.59-12.01-42.76-22.33-48.94-25.01-12.15-5.27-22.38-39.34 15.39-55.88 19.8-8.67 41.6-9.92 61.77-6.53 18.41 3.1 35.46 10.07 48.42 18.79 7.21 4.85 13.15 10.25 17.36 15.83"/></g><g id="uuid-8c4f5877-6a77-4918-a98d-1c4b0704c417"><path class="uuid-94fbea7d-ce61-4706-881e-e4654c07807c" d="M1678.84 1.78v997.18H1.66V1.78zm1.41-1.42H.25v1000h1680z"/><path class="uuid-1839b328-ceb4-4d5d-9dcf-7754e54c97c4" d="m568.7 559.81-.01.02a219 219 0 0 1-11.06 34.5h-.01c-21.94 52.76-62.83 90.43-110.91 97.87h-.01a114 114 0 0 1-26.92.96c-2.81-13.95-14.78-29.24-28.9-41.57l-.45 1.97c-.5 2.13-5.75-.07-4.58-3.29l.83-2.22c-13.66-11.07-28.6-19.12-38.91-20.55-22.3-3.09-21.06-19.2 5.58-39.64 13.16-10.1 30.99-19.74 47.55-28.49-5.75-9.34-8.08-19.55-10.82-26.04-3.59-8.53-10.26-36.91-10.46-37.8.48.71 15.96 23.61 20.64 41.7 2.84 11 5.11 15.51 7.81 18.35 14.09-7.43 26.53-14.12 33.24-19.76 15.49-13 5.57-66.9 22.92-86.72 17.34-19.82 35.93-60.71-5.58-87.34-41.03-26.34-58.83-24.11-66.26-38.21"/><path class="uuid-1839b328-ceb4-4d5d-9dcf-7754e54c97c4" d="M365.85 336.14c56.25-39.07 145.86-52.58 145.86-52.58S621.27 169.4 748.93 166.95s160.82-79.66 407.22-6.14c41.36 12.34 267.34 67.97 339.48 182.7s-126.03 176.44-141.67 177.31-329.41-13.04-359.84-13.91-125.08 17.74-136.01 23.33M568.69 559.84c8.24-17.29 40.39-14.68 52.56-14.68s75.34-22.43 86.64-42.77"/><path class="uuid-1839b328-ceb4-4d5d-9dcf-7754e54c97c4" d="M511.71 283.56c10.46 39.09 57.39 185.11 179.94 184.24M691.66 467.8c7.86 5.96 32.86 44.99 10.29 135.71 0 0 5.39 92.39-57.46 192.48 0 0-65.27 6.87-52.03 48.83"/><ellipse class="uuid-7270a359-4986-4ed3-901e-c1fc290facf8" cx="621.13" cy="889.71" rx="84.82" ry="52.5" transform="rotate(-45 621.12 889.71)"/><path class="uuid-1839b328-ceb4-4d5d-9dcf-7754e54c97c4" d="M680.18 897.94c7.76.48 23.95-5.73 30.98-32.89s44.28-84.57 48.16-84.57 24.05-21.73 24.05-34.14 113.28-311.14 112.51-341.4 6.98-75.26-50.43-92.33c-57.42-17.07-101.47-36.41-96.51-145.65"/><path class="uuid-1839b328-ceb4-4d5d-9dcf-7754e54c97c4" d="M688.7 696.84c.79 25.05 17.86 34.37 49.67-9.09s90.78-211.05 90.78-211.05 71.38-127.25 16.29-164.11M446.71 692.19c-20.26 33.58-2.41 53.75 36.38 29.7s41.12-35.69 55.09-46.55 8.97 13.19 36.69-6.21 111.86-51.99 133.02-86.9M557.62 594.34c14.7-5.9 38.76-39.27 70.57-40.04s43.32-25.89 43.32-25.89M895.88 519.62c2.21 6.64 8.08 67.09 75.23 32.16 14.75-6.95 27.95 21.01 80.63 40.33 59.7 7.02 76.39-4.39 100.09 5.27s84.29 52.68 190.53 43.9 177.36-9.77 190.53-121.66-37.25-176.11-37.25-176.11"/><path class="uuid-1839b328-ceb4-4d5d-9dcf-7754e54c97c4" d="M964.62 554.95c-25.52 18.32-31 16.82-29.51 24.3s98.68 13.46 110.64 18.44 46.85 14.45 46.85 14.45"/><path class="uuid-1839b328-ceb4-4d5d-9dcf-7754e54c97c4" d="M1116.43 593.7s-30.93 12.02-26.2 33.49 37.48 24.38 62.58 23.29 37.48-10.19 46.93-10.19 48.39 2.15 54.94 2.17 55.61 6.44 66.58 14.57c9.82 7.28 21.09-15.74 21.09-15.74"/><path class="uuid-1839b328-ceb4-4d5d-9dcf-7754e54c97c4" d="M1164.36 603.36c10.34 5.99 28.01 39.1 12.6 43.2M980.76 507.38c13.37-.47 11.9 27.54-2.44 43.59M832.32 308.54c2.49-31.68 49.25-69.18 81.3-5.83s28.03 69.18 42.65 68.62 27.48-25.42 38.8-24.74c14.74.88 6.08 33.35 14.64 46.99 7.43 11.83 74.77 46.35 102.88 4.74s50.61 19.68 70.29 29.24 101.22 55.67 124.27 57.92 43.3-27.55 51.73-31.49 35.99 27.49 30.93 53.39"/><path class="uuid-1839b328-ceb4-4d5d-9dcf-7754e54c97c4" d="M836.87 153.28c-.11 12.28-28.31 34.14-24.43 45.78s55.35 11.28 68.4 4.58 47.95 31.02 51.83 49.36 20.45 80.77 38.43 76.7 24.68-42.15 41.25-40.74 11.28 50.77 19.04 62.05-1.76 37.31 29.61 36.81 74.04-74.54 88.49-90.4 80.03-56.41 99.77-33.49-29.61 33.49-20.1 57.47 47.59 40.9 75.45 20.45 45.2-11.89 57.44-12.14 22.96-11.48 22.96-36.48 12.75-33.59 33.66-24.45M1373.26 461.84c7.78-24.88 34.24-19.93 45.41-15.69s6.22-9.19 15.41-13.44 21.92 4.24 21.92 17.68-18.96 8.95-14.43 34.88M345.1 386.37c-19.07-1.4-41.71 58.76-43.33 86.9-3.2-3.5-8.18-7.53-14.26-11.82-10.15-7.16-23.36-15.03-36.41-22.28-21.59-12.01-42.76-22.33-48.94-25.01-12.15-5.27-22.38-39.34 15.39-55.88 19.8-8.67 41.6-9.92 61.77-6.53 18.41 3.1 35.46 10.07 48.42 18.79 7.21 4.85 13.15 10.25 17.36 15.83Z"/><path class="uuid-1839b328-ceb4-4d5d-9dcf-7754e54c97c4" d="M464.23 449.1c-17.35 19.82-7.43 73.72-22.92 86.72-6.71 5.64-19.15 12.33-33.24 19.76-2.7-2.84-4.97-7.35-7.81-18.35-4.68-18.09-20.16-40.99-20.64-41.7.2.89 6.87 29.27 10.46 37.8 2.74 6.49 5.07 16.7 10.82 26.04-16.56 8.75-34.39 18.39-47.55 28.49-26.64 20.44-27.88 36.55-5.58 39.64 10.31 1.43 25.25 9.48 38.91 20.55l-.83 2.22c-1.17 3.22 4.08 5.42 4.58 3.29l.45-1.97c14.12 12.33 26.09 27.62 28.9 41.57a116 116 0 0 1-34.82-8.43 131.25 131.25 0 0 1-26.44-14.74c-14.48-10.38-27.45-23.85-38.37-39.73-22.81-33.19-36.67-76.88-36.67-124.74 0-15.18 1.39-29.94 4.03-44.07 6.08 4.29 11.06 8.32 14.26 11.82 1.62-28.14 24.26-88.3 43.33-86.9-4.21-5.58-10.15-10.98-17.36-15.83-12.96-8.72-30.01-15.69-48.42-18.79 23.08.07 49.7 4.41 81.25-12.14q2.61-1.8 5.28-3.47c8.43-5.26 17.3-9.49 26.54-12.59 7.43 14.1 25.23 11.87 66.26 38.21 41.51 26.63 22.92 67.52 5.58 87.34ZM251.1 439.17s-14.85 45.29-22.06 57.71-15.35 67.62-24.29 77.39c-50.76 55.46-67.63 210.1-72.09 226.58-7.81 28.88-88.57 138.01-128.74 199.5"/><path class="uuid-94fbea7d-ce61-4706-881e-e4654c07807c" d="M316.86 1000.26c.93-5.88 3.14-11.25 5.35-16.68a355 355 0 0 1 15.25-31.11c3.6-6.31 6.88-12.81 11.45-18.53 2.64-3.33 4.63-7.13 6.69-10.84 18.47-35.35 29.85-76.33 23.48-116.3-3.63-22.78-14.52-44.18-30.5-60.79 16.12 16.52 27.19 37.9 30.99 60.71 5.87 34.35-1.86 69.68-15.31 101.39-3.94 8.93-8.09 17.84-13.55 25.96a41 41 0 0 0-3.2 4.29c-6.1 9.7-11.41 19.97-16.47 30.26-3.71 7.76-7.35 15.58-10.11 23.72a46 46 0 0 0-2.08 8.15l-1.99-.22Z"/><path class="uuid-94fbea7d-ce61-4706-881e-e4654c07807c" d="M321.15 630.21c.37 7.72 2.59 15.39 4.56 22.89 2.09 7.57 4.36 15.11 6.59 22.66 12.54 43.83 27.4 94.17 12.79 139.09 16.25-52.03-6.54-111.07-21.06-161.28-2.1-7.67-4.4-15.27-4.88-23.3zM369.87 776.85c-.15-20.27 9.26-40.45 25.19-53.07 5.29-3.98 11.25-8.08 18.04-8.52-3.34.4-6.39 1.92-9.25 3.57-20.1 12.14-32.34 34.85-33.98 58.02"/><path class="uuid-1839b328-ceb4-4d5d-9dcf-7754e54c97c4" d="M384.96 684.73c-4.18 7.12 1.11 29.92 31.06 30.82 9.52.28 22.25-5.27 22.25-5.27"/><path class="uuid-4bce7c4e-19cf-41ad-afa3-260de7848ac4" d="M.25 467.81c1.42-7.46 5.18-14.24 8.72-20.88a326 326 0 0 1 28.51-42.39c.6-.65 1.51-1.91 2.21-2.18-.04.03 0-.01.01-.03q.07-.11.14-.27c.27-.64.44-1.32.62-1.99 4.28-18.43 8.31-36.98 14.86-54.79 5.04-14.33 12.65-27.54 19.76-40.91 10.92-19.9 22.39-39.71 36.8-57.34 4.28-5.63 9.96-10.13 13.81-16.06 11.36-19.68-3.93-39.23 16.37-66.28 9.14-12.29 21.85-21.5 35.63-27.96 13.66-6.59 28.45-10.5 42.1-16.98 6.74-3.25 13.09-7.5 17.56-13.6a163 163 0 0 1 15.37-16.81c15.33-14.75 50.96-44.66 72.71-40.9 28.13 3.24 56.52 6.26 84.86 4.85 17.67-1.27 28.52-2.99 37.28-20.3 5.08-10.15 7.77-21.39 9.11-32.62-1.26 11.25-3.87 22.53-8.88 32.74-8.68 17.46-19.55 19.37-37.47 20.78-28.39 1.63-56.82-1.43-85-4.57-21.38-3.67-56.89 26.34-71.83 40.81a163 163 0 0 0-15.21 16.73c-4.53 6.23-11.09 10.68-17.95 13.99-13.7 6.55-28.43 10.48-42.06 17.1-13.55 6.42-26.09 15.48-35.13 27.55-20.09 26.6-4.75 45.94-16.45 66.08-3.9 6.01-9.61 10.49-13.94 16.16-14.4 17.54-25.89 37.25-36.83 57.08-7.13 13.32-14.75 26.46-19.82 40.75-6.59 17.74-10.61 36.29-15.05 54.67-.24.81-.43 1.67-.86 2.43-.06.07-.08.14-.23.22-.28.09-.14.06-.16.06-.64.47-1.33 1.34-1.89 1.97a326 326 0 0 0-28.79 42.11c-3.59 6.61-7.39 13.34-8.87 20.79H.25Z"/><path class="uuid-4bce7c4e-19cf-41ad-afa3-260de7848ac4" d="M338.12 50.32c5.35-8.21 14.63-10.83 23.87-11.66 6.83-.68 13.52-1.31 19.72-4.33 14.42-6.59 28.43-14.42 41.04-24.07 3.48-2.84 7.18-5.77 9.17-9.9-1.71 4.28-5.38 7.41-8.73 10.43-12.38 10.12-26.37 18.26-40.95 24.77-10.44 5.23-22.67 2.74-33.4 6.73a25 25 0 0 0-10.73 8.02ZM273.42 185.38c5.51-17.98 21.36-31.79 38.95-37.58 2.25-.65 4.64-1.24 7.03-1.09 1.35.21 2.76.23 4.12.13 7.37-.67 14.6-2.8 21.57-5.23 6.87-2.55 13.9-5.49 19.58-10.16 1.47-1.2 2.44-2.63 3.73-4.07a41 41 0 0 1 4.2-3.82c8.81-6.99 18.47-12.78 28.17-18.42a335 335 0 0 1 19.79-10.56c5.06-2.37 10.24-4.95 15.81-5.96 18.52-5.04 37.07-13.86 50.9-27.35a54 54 0 0 0 5.31-6.37c.71-.98 2.5-3.54 3.36-4.52 4.84-5.78 10.68-10.54 16.64-15.08 17.97-13.41 37.53-24.52 57.34-34.93-19.63 10.69-38.95 22.15-56.8 35.64-6.21 4.82-12.34 9.93-17.2 16.14-1.11 1.63-2.91 4.09-4.06 5.71a59 59 0 0 1-5.77 6.21c-13.84 12.63-31.45 20.95-49.41 25.89-5.46 1-10.5 3.54-15.5 5.89a332 332 0 0 0-19.74 10.46c-9.65 5.58-19.29 11.32-28.05 18.22-3.29 2.36-5.09 5.24-7.93 7.84-5.88 4.82-12.95 7.71-20.02 10.26-7.1 2.41-14.36 4.48-21.88 5.1-1.4.14-2.86.02-4.25-.16-2.27-.16-4.53.39-6.73 1-17.49 5.62-33.43 19.01-39.17 36.82Z"/><path class="uuid-4bce7c4e-19cf-41ad-afa3-260de7848ac4" d="M309.89 50.62c-27.78 43.3-44.88 82.12-36.46 134.76a161 161 0 0 1-2.57-17.79c-3.76-44.69 14.06-81.36 39.04-116.97Z"/><path class="uuid-7270a359-4986-4ed3-901e-c1fc290facf8" d="M407.94 568.27a46 46 0 0 1-7.04-8.9c-5.75-9.34-8.08-19.55-10.82-26.04-3.59-8.53-10.26-36.91-10.46-37.8.48.71 15.96 23.61 20.64 41.7 2.84 11 5.11 15.51 7.81 18.35 1.81 1.9 3.83 3.05 6.34 4.91 9.34 6.9-2.81 11.36-6.47 7.78ZM407.58 640.3c-3.01-.11-12.53-2.01-13.29-.94-1.01 1.4-2.45 7.96-3.41 12.23l-.45 1.97c-.5 2.13-5.75-.07-4.58-3.29l.83-2.22c1.6-4.21 4.7-11.93 5.75-12.55 1.27-.75 9.27.32 14.35.52 5.08.19 3.71 4.39.8 4.28Z"/><path stroke="#024724" fill="none" stroke-miterlimit="10" stroke-width="1.59" d="m847.82 559.84 87.29 19.41"/><path class="uuid-4bce7c4e-19cf-41ad-afa3-260de7848ac4" d="M1102.02 642.46c-100.75-20.29-225.93-31.28-301.85 52.1a182 182 0 0 1 29.53-27.19c78.7-56.01 183.1-44.32 272.32-24.91M1138.16 650.57c-78.75 24.53-158.83 47.04-234.7 79.67-56.6 24.41-113.17 52.71-158.24 95.5-14.82 14.32-28.02 30.58-37.32 49.08 9.06-18.62 22.09-35.09 36.77-49.64 44.82-43.33 101.48-71.85 158.17-96.41 76-32.54 156.18-54.82 235.33-78.2ZM483.09 721.89c15.04 5.9 22.27 9.9 27.55 25.91 2.28 6.1 3.55 12.56 6.92 18.21 12.92 21.58 35.43 39.69 56.48 53.12a156 156 0 0 0 17.22 9.38c-12.16-4.92-23.45-11.83-34.09-19.49-15.72-11.74-30.96-25.13-40.87-42.31-3.35-5.71-4.69-12.3-6.8-18.51-4.81-15.89-11.98-19.83-26.39-26.31Z"/><path class="uuid-4bce7c4e-19cf-41ad-afa3-260de7848ac4" d="M487.26 723.69q11.92-1.66 23.64-4.33c7.83-1.59 16-4.01 24-1.72 6.64 2.14 15.35 7.55 21.62 10.78 14.05 7.42 28.16 15.55 43.59 19.55 3.37.88 8.32 1.14 11.82 1.5 11.46.78 52.07 5.11 58.9-3.09-7.08 9.19-52.76 4.91-65.01 3.94-10.1-.96-19.54-5.25-28.65-9.45a455 455 0 0 1-21.34-11.19c-6.14-3.23-14.78-8.59-21.27-10.88-7.67-2.36-15.79-.08-23.49 1.31a242 242 0 0 1-23.8 3.57Z"/><path class="uuid-4bce7c4e-19cf-41ad-afa3-260de7848ac4" d="M506.12 720.73c23.09-24.55 52.95-35.17 85.85-25.51 15.24 3.91 29.8 10.16 43.9 17.05a193 193 0 0 1 20.48 11.66c6.44 4.41 12.92 9.23 17.35 15.76-4.7-6.31-11.21-10.92-17.77-15.11a196 196 0 0 0-20.59-11.21c-14.14-6.6-28.6-12.86-43.78-16.61-32.5-9.74-61.78.73-85.44 23.98Z"/><path class="uuid-4bce7c4e-19cf-41ad-afa3-260de7848ac4" d="M564.03 692.39c28.49-25.59 78.48-31.55 113.24-16.42a69 69 0 0 1 14.65 8.77 75 75 0 0 0-14.96-8.05c-34.81-13.82-83.57-8.02-112.93 15.7M1493.6 606c15.2 2.32 26.5 17.34 33.61 29.95 11.57 21.57 19.2 52.42 4.71 74.33l-.28-1.08c30.82 14.93 39.93 28.4 61.37 53.02 14.48 9.75 31.47 19.27 47.43 27.85 15.65 8.75 34.05 18.11 39.81 36.42-6.11-18.16-24.59-26.97-40.27-35.57-16.34-8.62-32.74-17.33-48.03-27.75-21.19-24.18-30.73-37.91-60.95-52.65l-.76-.38.48-.7c16.51-24.75 4.13-64.12-12.55-86.05-6.22-7.96-14.21-15.72-24.57-17.4ZM788.03 717.98c23.12-12.31 47.06-23.4 72.42-30.27 9.42-2.77 19.1-4.69 28.59-7.12 15.76-4.38 31.05-10.2 46.58-15.39 37.18-12.57 75.51-23.1 114.85-25.62 13.09-.78 26.23-.72 39.28.36-66.12-4.55-129.27 18.39-190.88 39.25-12.48 4.05-25.48 6.14-38.09 9.69-25.35 6.63-49.39 17.31-72.74 29.1ZM1444.41 4.66c-10.27 17.58-17.89 36.45-26.04 55.07-8.16 18.65-14.28 38.1-20.29 57.52l-1.61-.8c10.38-13.25 25.6-22.11 41.79-26.1l4.86-1.14 4.94-.73c1.42-.25 3.53-.47 4.95-.52l4.97-.3c1.48-.11 3.48.04 4.97.06l4.96.16v.2c-2.91.17-7.04.16-9.88.45-1.78.21-5.63.59-7.34.82l-7.24 1.38c-2.75.74-6.79 1.71-9.42 2.72-15.46 5.28-29.93 14.82-39.35 28.32l1.67-5.07c5.55-16.78 14.85-40.55 20.92-57.42 5.26-14.36 11.41-28.42 18.87-41.78 2.48-4.46 5.22-8.77 8.13-12.96l.17.11ZM1444.54 1000.36c6.35-23.04 15.12-42.71 36.11-56.03 19.13-12.55 41.86-18.28 64.08-22.5 39.17-6.72 78.94-7.75 118.56-6.99q8.48.22 16.96.52c-11.31.22-22.61.33-33.91.7a883 883 0 0 0-67.6 4.11c-25.09 2.68-50.44 6.53-74.21 15.18-18.26 6.6-35.93 17.27-46.35 34.14-6.14 9.47-9.78 20.3-13.64 30.85Z"/><path class="uuid-94fbea7d-ce61-4706-881e-e4654c07807c" d="M405.2 691.02c2.34 1.61 3.29 4.54 4.25 7.09q1.33 3.98 2.02 8.12l-.76-.34a92 92 0 0 0 7.33-5.42c2.19-1.96 4.92-3.92 5.63-6.92-.48 4.94-8.54 10.43-12.43 13.16l-.64.41a86 86 0 0 0-1.87-8.81c-.82-2.57-1.5-5.42-3.55-7.31Z"/><path d="M878.27 142.09c11.13-12.57 15.63-29.29 22.39-36.71s18.78-42.72 18.78-50.23S949.49 35.7 987.04.36" stroke="#024724" fill="none" stroke-miterlimit="10"/></g><g id="uuid-ecf11641-ed74-43f8-89df-2a4672f11025"><path d="M578.17 605.74c2.8 2.55 3.15 6.71.79 9.31s-6.54 2.63-9.34.08-3.96-12.37-3.96-12.37 9.71.44 12.51 2.98" stroke-width="0" fill="url(#uuid-0ba83a5e-927d-47af-bc81-cfc6f0f560c0)"/><path class="uuid-761421d7-4a5a-4985-83a6-335bcb6cb592" d="M578.17 605.74c3.37 2.78 3.17 8.89-1.04 10.79-4.46 2.03-8.83-.92-9.89-5.43a44 44 0 0 1-1.72-8.47c4.2.47 9.11.62 12.65 3.12Zm0 0c-3.59-2.48-8.31-2.51-12.52-2.86l.13-.14c.74 4.04 1.25 8.52 3.68 11.92 6.59 6.42 15.29-2.4 8.7-8.92Z"/><path d="M551.94 579.4c3.94 5.34 3.11 12.63-1.84 16.28s-12.16 2.27-16.09-3.07-2.57-22.64-2.57-22.64 16.56 4.08 20.5 9.43" stroke-width="0" fill="url(#uuid-0fbc71f8-adb4-4fd8-8957-58ceb286db9b)"/><path class="uuid-761421d7-4a5a-4985-83a6-335bcb6cb592" d="M551.94 579.4c4.81 6.13 2.49 16.25-5.49 18.2-4.95 1.32-10.53-1.12-13.15-5.49-1.29-2.26-1.69-4.79-2.01-7.25a78 78 0 0 1-.05-15.17 93 93 0 0 1 11.08 3.73c3.44 1.5 7.17 3 9.61 5.98Zm0 0c-2.47-2.94-6.21-4.41-9.66-5.86a93 93 0 0 0-10.89-3.36l.27-.2c-.25 5.52-.28 11.14.62 16.6.36 1.76.72 3.61 1.63 5.17a11.8 11.8 0 0 0 5.35 4.68c11.08 4.77 19.49-7.72 12.68-17.03"/><path class="uuid-ebb85527-a867-4e06-a985-1f3d13ba506c" d="M521.47 615.18c-44.21-11.43-99.24 12.64-66.88 19.87 1.92.43 2.22 1.65.77 3.13-24.44 24.99 34 14.79 66.71-20.55 1.01-1.1.77-2.09-.6-2.45"/><path class="uuid-94fbea7d-ce61-4706-881e-e4654c07807c" d="M132.66 800.86c9.44-10.65 32.73-19.01 46.84-19.4a10 10 0 0 1 3.4.48 11 11 0 0 0-3.4-.21c-13.84 1.37-36.73 9.53-46.85 19.13ZM500.99 515.2c23.47 15.68 35.48 46.19 30.13 73.77a92 92 0 0 1-9.57 26.24l-.18-.09c3.44-8.62 6.32-17.43 7.78-26.5 3.22-18.11.31-37.32-9.66-52.98-4.88-7.78-10.95-15.1-18.61-20.28z"/><path class="uuid-4bce7c4e-19cf-41ad-afa3-260de7848ac4" d="M525.29 253.47c17.87-22.27 37.13-48.84 54.24-71.79 16.88-28.61 41.51-57.85 72.72-71.7a89 89 0 0 1 14.05-4.6 97 97 0 0 0-13.88 4.98c-30.65 14.52-54.71 43.44-71.81 72.11-17.8 23.68-36.09 48.54-55.32 70.99ZM680.17 143.46c15.83-3.8 30.84-10.64 44.49-19.46 3.84-2.54 9.49-6.65 13.43-9.22 11.38-7.4 22.74-14.96 34.91-21.03 1.55-.7 3.18-1.22 4.49-2.27 2.83-2.42 4.88-5.59 6.85-8.72 7.06-11.62 12.5-24.09 19.56-35.75 2.84-4.67 5.84-9.28 9.73-13.18a20 20 0 0 1 5.03-3.68c12.69-6.56 25.92-12 39.05-17.56 10.01-4.08 20.25-8.58 30.24-12.18-21.82 9.56-48.74 20.34-69.69 31.14-6.01 3.76-9.83 10.08-13.57 15.94-7.08 11.56-12.82 23.95-19.96 35.51-2.22 3.39-4.48 7.01-7.88 9.35-13.68 6.04-25.92 14.82-38.31 23.11-3.9 2.56-9.51 6.75-13.41 9.27-13.69 8.69-29.14 15.79-44.97 18.73ZM1193.72 1000.36c33.95-14.16 67.53-29.52 100.75-45.34a89 89 0 0 0 10.62-5.98c36.09-23.31 71.45-48.06 110.03-67.21l5.59-2.57c11.13-5.32 23.1-8.68 35.03-11.55 23.89-5.76 48.11-10.25 72.58-12.67 8.16-.73 16.34-1.23 24.53-1.22-8.19.12-16.35.75-24.49 1.61a571 571 0 0 0-72.32 13.47c-7.89 2.04-15.83 4.1-23.48 6.9a240 240 0 0 0-16.82 7.32c-38.4 19.3-73.79 43.93-109.92 67.08-3.44 2.15-7.06 4.39-10.78 6.02-33.34 15.58-67.1 30.59-101.31 44.14ZM909.5 915.26c35.38-27.88 76.18-47.91 116.63-67.29q30.6-14.16 61.87-26.81c31.28-12.55 62.59-25.04 94.41-36.19 42.63-14.1 85.69-26.96 127.83-42.47 12.96-5.03 26.27-9.65 38.05-16.94 1.32-.94 2.56-1.83 3.36-3.05.09-.11.07-.18.12-.26l.06-.12.06-.22c3.74-16.95 4.01-34.65 5.01-51.97l2.55 1a234 234 0 0 1-49.27 39.46 203 203 0 0 1-42.88 19.86c-4.2 1.52-10.79 3.11-15.15 4.32l-.07-.29c30.27-8.32 58.26-24.04 82.46-43.88 9.03-7.46 17.72-15.53 25.39-24.36a559 559 0 0 1-2.14 37.7c-.64 6.3-1.29 12.73-2.87 18.98-1.29 4.38-8.58 7.64-12.33 9.71-10.15 5.04-20.72 8.95-31.31 12.86-42.26 15.36-85.6 27.42-128.5 40.75-63.71 21.85-125.23 49.7-185.87 78.83-20.07 10.01-40 20.36-59.18 31.99a333 333 0 0 0-28.03 18.6l-.18-.24ZM1297.52 907.6c6.98-11.59 16.77-21.19 26.87-30.06 25.7-21.94 55.76-38.56 87.55-49.89a266 266 0 0 1 39.1-10.65c19.94-3.53 39.98-6.07 60.07-8.58 13.39-1.55 26.83-2.95 40.35-3.08s26.94 1.94 40.1 4.88a281 281 0 0 0-19.96-3.08c-20.12-2.21-40.31.26-60.3 2.8a2466 2466 0 0 0-40 5.65c-53.25 6.91-104.7 28.59-146.27 62.68-10.28 8.62-20.18 17.99-27.5 29.32Z"/><path class="uuid-94fbea7d-ce61-4706-881e-e4654c07807c" d="M262.24 641.97c14.1-4.24 36.56-19.88 40.4-34.68.68-2.51.81-5.18.32-7.78.71 2.55.69 5.28.16 7.89-3.34 15.45-26.08 31.34-40.88 34.57M218.58 791.71c22.44 1.55 50.97 28.34 65.72 44.59a282 282 0 0 0-7.25-7.02c-14.67-13.53-38.4-34.98-58.47-37.57M302.65 855.08c17.2 12.11 42.13 62.43 43.7 83.67a74 74 0 0 0-2.75-11.62c-5.71-18.81-25.89-60.16-40.95-72.05M222.22 517.55c3.13-6.33 22.23-7.85 28.88-7.9-4.46.71-10.71 1.64-15.07 2.51a81 81 0 0 0-7.39 1.75c-2.32.78-5.01 1.49-6.42 3.65ZM332.12 682.73c5.5 14.45-19.97 44.85-33.2 49.7a34 34 0 0 0 6.54-4.27c9.91-7.83 30.57-32.24 26.66-45.43"/><path class="uuid-4bce7c4e-19cf-41ad-afa3-260de7848ac4" d="M920.62 53.05c-11.36 4.65-22.64 9.74-33.08 16.22a102 102 0 0 0-7.5 5.36c-8.03 6.03-16.76 7.38-26.29 4.32 2.97.78 6.01 1.45 9.08 1.48 6.19.18 12.11-2.43 16.98-6.1 2.15-1.68 5.17-4.04 7.45-5.48 10.41-6.66 21.62-11.9 32.98-16.73zM1320.14 216.23c7.77-7.75 14.04-16.83 20.03-25.99a444 444 0 0 0 16.71-28.3c9.12-16.85 17.89-33.99 24.68-51.93.89-2.58 1.83-5.18 2.16-7.91-.23 2.74-1.08 5.38-1.9 8-6.28 18.17-15 35.4-24.06 52.32a401 401 0 0 1-16.94 28.24c-6.14 9.07-12.59 18.11-20.67 25.57ZM1520.09 60.8c-18.1 23.87-37.57 46.74-54.69 71.33a226 226 0 0 0-15.48 25.56c-4.39 9.03-10.27 17.27-16.6 25a233 233 0 0 1-20.51 21.91c-10.96 10.19-22.6 19.96-35.93 26.92-4.45 2.22-9.16 4.25-14.18 4.59 5.01-.42 9.66-2.53 14.07-4.81 21.68-12.3 39.89-30.23 55.84-49.19 6.29-7.73 12.07-15.9 16.41-24.88a225 225 0 0 1 15.62-25.63c17.18-24.6 36.91-47.25 55.44-70.82ZM1488.73 333.37c5.92-8.82 34.37-19.56 45.14-23.46 5.76-1.88 11.48-4.16 17.56-4.77 5.23-.84 10.16-3.1 15.11-4.92 15.87-6.3 31.37-13.52 46.86-20.68l.21.86c-15.02.99-30.15 2.24-44.85 5.65a54 54 0 0 0-8.05 2.48c-8.08 4.02-17.14 1.83-24.72-2.21a56 56 0 0 1-9.42-6.33c5.92 4.19 12.8 8.34 20.22 9.62 3.67.65 7.52.54 10.99-.78a71 71 0 0 1 7.98-3.01c15.57-4.15 31.76-5.38 47.8-6.32l2.4-.12a1551 1551 0 0 1-49.3 21.16c-5.01 1.86-9.92 4.25-15.21 5.19-5.94.73-11.63 3.13-17.3 5-10.69 3.86-21.28 8.07-31.46 13.13-4.93 2.61-10.48 5.24-13.97 9.51ZM1025.39 109.06c.41-8.3 2.71-16.37 5.2-24.25 3.68-11.39 8.77-23.66 13.26-34.82 1.69-4.82 4.2-9.51 4.37-14.65l.03-3.1.07-6.21.24-12.41.25 12.41.07 6.21.03 3.1c0 5.24-2.54 10.12-4.22 14.99-4.37 11.2-9.52 23.42-13.38 34.73-2.65 7.81-5.11 15.77-5.93 24.01ZM1072.2 38.15c-.11 4.3-1.78 8.38-3.17 12.39-1.52 4-3.21 7.93-4.93 11.85-3.46 7.82-7.17 15.53-10.73 23.29a473 473 0 0 0-10.36 23.42 133 133 0 0 0-4.28 12.05c-1.18 4.07-2.26 8.3-1.76 12.57-.73-4.26.26-8.57 1.29-12.7 2.26-8.27 5.5-16.22 8.93-24.06 3.37-7.93 12.43-26.83 16.21-34.89 1.8-3.87 3.57-7.76 5.18-11.71 1.54-3.95 3.3-7.94 3.63-12.21ZM991.3 76.78c6.9-9.52 11.65-20.43 16.16-31.23 2.17-5.79 4.63-11.72 4.88-17.94 1.26-3.92 4.82 2.58 5.58 3.95 2.06 3.97 4.09 8.01 4.76 12.5.08 1.54-.57 3.03-1.01 4.47-.96 2.8-2.04 5.54-3.11 8.28-5.26 13.69-11.11 27.28-14.17 41.68a37 37 0 0 0-.81 8.75c-.42-5.9 1.03-11.75 2.48-17.42 3.12-11.36 7.41-22.36 11.65-33.33 1.05-2.74 2.12-5.49 3.05-8.26.4-1.34.99-2.67.94-4.08-.67-4.23-2.66-8.32-4.62-12.12-.88-1.56-1.75-3.16-3.03-4.38-.23-.22-.55-.36-.59-.33 0-.05-.18.19-.24.5-.3 6.35-2.77 12.21-5.06 18.03-4.68 10.76-9.61 21.66-16.87 30.94ZM1383.71 13.61c-33.28 27.81-37.26 57.1-41.37 97.62-2.86 20.15-8.56 39.89-16.34 58.68-3.24 7.43-6.69 14.94-11.81 21.28 4.99-6.43 8.27-13.99 11.35-21.47 7.49-18.83 13.03-38.54 15.84-58.62 3.96-40.44 8.5-70.55 42.32-97.5Z"/></g></svg>