<svg xmlns="http://www.w3.org/2000/svg" xmlns:xlink="http://www.w3.org/1999/xlink" viewBox="0 0 1686 1006.24"><defs><linearGradient id="Dégradé_sans_nom_25" x1="757.73" y1="360.05" x2="825.78" y2="361.84" gradientUnits="userSpaceOnUse"><stop offset="0" stop-color="#191818"/><stop offset=".27" stop-color="#5b5958"/><stop offset=".62" stop-color="#adaaa9"/><stop offset=".88" stop-color="#e1dedc"/><stop offset="1" stop-color="#f6f2f0"/></linearGradient><linearGradient id="Dégradé_sans_nom_23" x1="763.84" y1="372.94" x2="817.72" y2="374.35" gradientUnits="userSpaceOnUse"><stop offset="0" stop-color="#191818"/><stop offset=".27" stop-color="#5b5958"/><stop offset=".62" stop-color="#adaaa9"/><stop offset=".88" stop-color="#e1dedc"/><stop offset="1" stop-color="#f6f2f0"/></linearGradient><linearGradient id="Dégradé_sans_nom_25-2" x1="782.94" y1="380.34" x2="827.02" y2="381.5" xlink:href="#Dégradé_sans_nom_25"/><linearGradient id="Dégradé_sans_nom_25-3" x1="940.33" y1="359.64" x2="872.27" y2="361.43" xlink:href="#Dégradé_sans_nom_25"/><linearGradient id="Dégradé_sans_nom_23-2" x1="934.22" y1="372.53" x2="880.34" y2="373.94" xlink:href="#Dégradé_sans_nom_23"/><linearGradient id="Dégradé_sans_nom_25-4" x1="915.12" y1="379.93" x2="871.04" y2="381.09" xlink:href="#Dégradé_sans_nom_25"/><radialGradient id="Dégradé_sans_nom_13" cx="814.69" cy="328.55" fx="814.69" fy="328.55" r="14.04" gradientTransform="rotate(1.5 840.9 502.8)" gradientUnits="userSpaceOnUse"><stop offset="0" stop-color="#fdec51"/><stop offset=".17" stop-color="#f8e54d"/><stop offset=".39" stop-color="#ebd545"/><stop offset=".64" stop-color="#d6b937"/><stop offset=".91" stop-color="#b89224"/><stop offset=".99" stop-color="#af861e"/></radialGradient><radialGradient id="Dégradé_sans_nom_13-2" cx="753.95" cy="330.14" fx="753.95" fy="330.14" gradientTransform="rotate(178.5 812.68 -.28)scale(1 -1)" xlink:href="#Dégradé_sans_nom_13"/><style>.cls-10,.cls-11,.cls-2,.cls-9{stroke-width:0}.cls-15,.cls-2{fill:#292425}.cls-16{stroke-width:1.12px}.cls-16,.cls-17,.cls-18{fill:none;stroke:#191818}.cls-15,.cls-16,.cls-17,.cls-18,.cls-20{stroke-miterlimit:10}.cls-18{stroke-width:.93px}.cls-9{fill:#191818}.cls-10{fill:#ccc}.cls-11{fill:#f6f2f0}.cls-15{stroke:#292425;stroke-width:6px}.cls-20{fill:#ebebeb;stroke:#ccc;stroke-width:.8px}</style></defs><path fill="#ebebeb" stroke-width="0" d="M3 4.37h1680v995.86H3z" id="Calque_3"/><g id="Calque_4"><path class="cls-15" d="M1525.98 1003c-.55-.97-181.84-362.19-182.28-363.21-17.65-40.54-37.47-79.98-60.23-117.9-51-84.96-112.84-160.74-190.27-223.24-1.79-1.44-3.66-2.78-5.49-4.16.28 2.07 1.23 3.26 2.2 4.45a310 310 0 0 1 55.44 103.68c2.8 9.01 4.22 18.65 8.24 27.06 70.85 148.02 92.02 302.42 58.68 463.37-7.06 34.06-18.71 67.17-28.47 100.66-.68 2.34-3.14 5.72-5 5.87-7.97.65-16.03.28-24.87.28 76.98-183.78 76.07-366.99 3.13-552.2.65 19.76 2.79 37.84 1.5 55.67-2.34 32.27-6.7 64.39-10.28 96.57-1.2 10.74-2.27 21.52-3.96 32.19-10.69 67.33-33.42 130.74-62.86 191.96-28.9 60.1-64.1 116.4-103.39 170.21-1.61 2.2-3.95 5.02-6.26 5.34-5.63.78-11.44.25-17.39.25.33-1.3.33-1.78.56-2.09a780 780 0 0 1 6.6-8.57c39.37-50.35 75-103.16 105.04-159.62 35.13-66.02 62.31-134.89 74.81-209q1.23-7.34 2.14-14.71c.6-4.88 1.01-9.77 1.5-14.66-1.87 1.75-2.52 3.64-3.18 5.52-11.85 33.68-28.82 64.56-51.38 92.27-11.36 13.96-23.8 27.06-34.72 41.34-38.42 50.23-85.13 91.84-135.13 129.94-66.36 50.58-137.82 93.05-211.82 131.44-11.39 5.91-22.54 9.42-35.37 8.33-8.05-.69-16.21-.13-24.32-.13 13.06-7.27 26.2-13.12 39.24-19.17 85.28-39.58 167.4-84.61 243.2-140.56 36.91-27.25 71.74-56.83 103-90.48 2.61-2.8 5.08-5.73 7.59-8.63q3.45-4.02 6.88-8.07c-24.31 19.04-50.02 35.24-78.34 46.87-15.61 6.41-32.14 10.54-47.82 16.8-83.2 33.18-169.19 55.28-258.16 65.75-74.99 8.83-149.63 6.44-224.7-2.23C411.02 856.84 228.68 855.9 3 601.98v398.27h1342.32c97.26 2.77 119.5 0 180.66 2.77Z"/><path class="cls-15" d="M228.68 4.36h269.7c-5.06 19.71-10.4 38.77-14.83 58.05-25.16 109.52-25.84 219.3-2.64 329.21 14.31 67.81 36.83 132.68 69.15 194.16 6.67 12.68 10.3 26.91 16.23 40.02 13.57 30.01 32.21 56.74 53.81 82.01-1.81-1.25-3.66-2.44-5.41-3.76-50.39-38.06-93.41-83.43-132.14-133.02-50.26-64.34-100.93-133.46-138.03-206.09-1.11-2.17-2.55-4.16-3.84-6.24-54.44-121.97-94.98-236.81-112-354.34ZM1683 283.99c-227.42-148.21-507.36-180.59-593.69-175.11-110.87 7.04-216.58 34.23-317.04 81.89-16.43 7.79-34.2 12.72-50.93 19.95-31.33 13.53-59.32 32.36-84.39 55.5-1.25 1.15-2.55 2.25-4.96 2.35 10.47-13.1 20.68-26.43 31.46-39.27 51.65-61.52 109.97-115.61 178.47-158.17 52.42-32.57 108.47-56 169.66-66.22 3.09-.52 6.29-.53 9.43-.53 108.1-.03 553.88-.02 661.98-.02z"/><path class="cls-15" d="M1683 706.66c-131.49-219.69-470.41-444.51-545.07-471.19-66.43-23.74-134.69-38.57-205.31-42.4-14.09-.76-28.01-4.39-42.05-6.4-31.51-4.49-62.97-3.87-94.36 1.35-1.08.18-2.2.2-3.7-.82 2.53-1.04 5.04-2.12 7.59-3.11 112.05-43.46 228.26-61.63 348.14-56.23 65.33 2.94 197.08 28.77 307.4 69.22 67.11 24.6 225.82 130.29 227.36 130.46z"/><path class="cls-15" d="M1683 757.36v242.87h-113.68l-224-423.79c-6.96-11.28-13.89-22.56-20.88-33.82-55.27-88.98-122.23-167.72-205.02-232.49-10.65-8.32-21.96-15.79-32.72-23.96a2291 2291 0 0 1-43.11-33.54c-27.51-21.97-57.76-39.04-90.79-52.23 2.62.26 5.25.47 7.87.78q4.03.45 8.04 1.09c102.69 16.7 197.73 53.6 284.87 110.04 30.38 19.68 58.63 42.64 87.87 64.09 1.25.92 2.58 1.72 3.87 2.58 0 0 241.36 203.82 337.68 378.38ZM694.67 4.37c-16.38 26.64-33.01 52.11-48.06 78.48-47.15 82.65-81.54 170.11-96.76 264.43-2.97 18.42-4.47 37.1-6.22 55.7-2.09 22.16-3.62 44.38-5.56 66.56-2.77 31.67-.09 62.94 6.01 94.24-.71-1.3-1.46-2.58-2.12-3.91a83 83 0 0 1-1.92-4.32c-29.49-71.05-47.65-144.88-54.85-221.45-10.38-110.29 3.41-217.52 40.31-321.92 2.14-6.07 4.9-8.02 11.37-7.99 49.64.3 99.28.17 148.92.17h8.88Z"/><path class="cls-15" d="M546.79 408.75c3.63-20.81 6.51-41.78 11.03-62.39 20.2-92.21 58.64-176.78 110-255.56 18.31-28.09 38.88-54.72 58.67-81.82 1.67-2.28 5.34-4.4 8.09-4.41 62.05-.25 124.1-.19 186.16-.18 1 0 2 .15 4.1.32-14.29 7.13-27.7 13.39-40.71 20.38-62.82 33.76-117.06 78.52-165.83 130.14-37.88 40.08-71.78 83.26-101.09 130.03-4.99 7.96-11.89 14.7-17.58 22.25-22.19 29.43-52.16 101.32-52.83 101.24ZM755.85 792.15c-153.56-20.04-296.6-81.76-415.17-180.55 0 0-241.92-184.65-337.68-484.66V4.37S122.04 3 196.66 3c27.98 211.56 144.02 405.74 144.02 405.74 6.53 9.96 13.14 19.87 19.57 29.89 47.6 74.24 108.73 144.06 172.95 204.93 31.64 29.99 65.38 57.3 103.16 79.5 10.58 6.21 19.3 15.51 29.27 22.85A301 301 0 0 0 752 789.97q2.1.67 3.85 2.18Z"/><path class="cls-15" d="M887.23 803.84c-11.81 3.5-23.57 7.2-35.46 10.45-93.72 25.6-189.09 38.28-286.33 35.22-71.13-2.23-148.91-13.17-216.95-34.42-2.56-.8-5.2-1.33-7.81-1.98C176.91 752.59 3 553.14 3 553.14V215.18C62.01 376.8 235.67 568.39 340.68 635.94c32.8 21.46 72.6 44.69 106.6 64.05 96.07 54.72 199.45 87.99 309.81 97.53 35.64 3.08 71.12 9.94 107.18 7.21 7.57-.58 15.13-1.24 22.96-.89Z"/></g><g id="Calque_4_-_copie"><path class="cls-9" d="M811.97 272.21c5.51 9.49 5.62 16.58 4.1 21.88-8.8 4.18-14.84 8.76-20.67 15.78-9.21.55-14.44-7.26-17.41-10.75a358 358 0 0 1-3.74-12.57c-4.21-15.57-6.65-49.78 24.48-27.81 6.57 4.64 10.05 9.31 13.25 13.47ZM905.53 260.12c22.87-22.83 23.59 14.87 20.91 22.44a103 103 0 0 0-4.35 16.99l-.02.09c-.8 4.51-8.21 13.18-16.63 13.33a72 72 0 0 0-22.35-18.47c-2.1-9.19 6.33-18.68 7.01-19.42l.04-.05a464 464 0 0 0 15.39-14.91"/><path class="cls-2" d="M866.78 739.87c13.13 0 23.78 6.77 23.78 15.11s-10.65 15.11-23.78 15.11S843 763.33 843 754.98c0-3.48 1.86-6.69 4.98-9.25 4.35-3.56 11.15-5.86 18.8-5.86M764.51 714.82c9.12 1.14 15.68 8.71 14.65 16.9-.96 7.66-8.23 13.15-16.63 12.88a29 29 0 0 1-1.75-.13c-9.13-1.14-15.69-8.71-14.66-16.9.73-5.78 5.05-10.33 10.74-12.1 1.92-.17 4.34-.38 6.97-.71q.34.01.68.06"/><path class="cls-2" d="m764.51 714.82-.68-.06c7.84-1.01 17.46-3.1 20.65-8.1-45.74-31.39-35.45-84.38-32.39-99.44 3.12-15.32 15.91-35.8 16.2-45.18 11.36 19.18 7.38 42.2 7.67 59.24.28 17.05 7.67 36.66 14.49 73.59 3.16 17.12 5.16 30.39 5.22 41.46-10.4 8.74-27.64 8.57-33.14 8.27 8.4.27 15.67-5.22 16.63-12.88 1.03-8.19-5.53-15.76-14.65-16.9M870.32 692.23a16 16 0 0 0-.05 4c-1.33 10.56-12.02 17.92-23.88 16.42-11.87-1.49-20.41-11.26-19.08-21.82s12.02-17.91 23.88-16.42c10.35 1.3 18.17 8.89 19.13 17.82M830.12 775.6l.11 1.44c0 8.34-10.65 15.11-23.78 15.11s-23.78-6.77-23.78-15.11c0-3.21 1.57-6.18 4.25-8.62 4.3-3.93 11.44-6.49 19.53-6.49 12.31 0 22.44 5.94 23.66 13.56zM981.9 638.88c23.7 27.08 9.82 47.39 6.43 51.95-3.38 4.57-24.71 21.16-62.46 21.66 7.42-10.47 14.47-22.52 19.67-35.42 5.74-2.14 7.61-4.31 7.07-24.27 2.03-11.57 2.08-23.44-.74-35.2.23-.2 6.78-5.29 30.03 21.28"/><path class="cls-2" d="M870.32 692.23c-.96-8.93-8.78-16.52-19.13-17.82-11.86-1.49-22.55 5.86-23.88 16.42s7.21 20.33 19.08 21.82 22.55-5.86 23.88-16.42q.25-2.03.05-4m-74.65 44.1c-.06-11.07-2.06-24.34-5.22-41.46-6.82-36.93-14.21-56.54-14.49-73.59-.29-17.04 3.69-40.06-7.67-59.24.28-9.37 2.55-66.48 2.55-102s15.91-43.75 20.45-51.29c4.53-7.55.3-19.44 0-34.87h-.01a52 52 0 0 1-9.19-29.33 51 51 0 0 1 2.84-16.74c1.19-3.58-3-16.14-6.94-28.69 2.97 3.49 8.2 11.3 17.41 10.75 5.83-7.02 11.87-11.6 20.67-15.78 1.52-5.3 1.41-12.39-4.1-21.88 6.3 8.17 11.54 14.34 37.2 14.34 22.43 0 26.71 1.33 40.93-11.47-.68.74-9.11 10.23-7.01 19.42a72 72 0 0 1 22.35 18.47c8.42-.15 15.83-8.82 16.63-13.33-2.19 12.64-2.09 21.8-8.61 28.31a51 51 0 0 1 2.79 16.6c0 10.01-3.14 19.76-8.31 27.98-2.71 13.64-10.94 34.67-5.26 47.74s10.79 23.29 10.79 39.49c0 9.2 6.34 15.14 12.12 37.28 4.22 16.14 8.15 40.9 9.09 81.81a16 16 0 0 0 3.15 9.22 80 80 0 0 1 14.04 29.53c2.82 11.76 2.77 23.63.74 35.2a121 121 0 0 1-7.07 24.27c-5.2 12.9-12.25 24.95-19.67 35.42a205 205 0 0 1-19.21 23.3s-14.88 11.5-16.1 19.19c0-8.34-10.65-15.11-23.78-15.11-7.65 0-14.45 2.3-18.8 5.86-3.59-.28-8.49-1.93-20.06-5.66.83 16.33 1.86 30.79 2.19 35.42-1.22-7.62-11.35-13.56-23.66-13.56-8.09 0-15.23 2.56-19.53 6.49 6.32-9.43 8.83-19.28 8.75-32.09"/></g><g id="Calque_4_-_copie_2"><path class="cls-17" d="M913.25 327.34c1.95 5.44 3 11.22 3 17.22 0 10.01-3.14 19.76-8.31 27.98M883.09 294.5a72 72 0 0 1 22.36 18.47M795.4 309.87c5.83-7.01 11.87-11.6 20.67-15.78M791.28 373.88a52 52 0 0 1-9.19-29.32c0-6.15 1.11-12.08 3.16-17.65"/><path class="cls-17" d="M784.89 327.95c1.8-4.53-6.44-25.84-10.65-41.41s-6.66-49.78 24.48-27.8c19.5 13.77 11.76 27.8 50.46 27.8 28.89 0 27.67 2.2 56.36-26.43 22.87-22.83 23.59 14.87 20.91 22.45-7.73 21.89-3.82 36.24-12.98 45.39"/><path class="cls-17" d="M890.14 275.03s-9.24 9.9-7.05 19.47M811.97 272.21c5.51 9.5 5.62 16.59 4.1 21.88M777.98 299.11c2.97 3.49 8.19 11.31 17.42 10.76M922.09 299.55c-.72 4.48-8.16 13.27-16.64 13.42"/><ellipse class="cls-16" cx="806.45" cy="777.04" rx="23.78" ry="15.11"/><ellipse class="cls-16" cx="866.78" cy="754.98" rx="23.78" ry="15.11"/><ellipse cx="848.79" cy="693.53" rx="19.27" ry="21.65" transform="rotate(-82.8 848.82 693.53)" fill="none" stroke="#191818" stroke-miterlimit="10" stroke-width="1.21"/><ellipse class="cls-18" cx="762.64" cy="729.65" rx="14.95" ry="16.65" transform="rotate(-82.8 762.67 729.64)"/><path class="cls-18" d="M760.78 744.47s22.4 2.37 34.9-8.14"/><path class="cls-17" d="M756.86 715.47c7.64-.66 23.36-2.13 27.62-8.81-45.74-31.39-35.45-84.38-32.39-99.44s15.91-35.8 16.2-45.18 2.56-66.49 2.56-102 15.91-43.76 20.44-51.3.3-19.45 0-34.87"/><path class="cls-9" d="M768.33 562.02c12.06 20.22 6.8 42.67 8.24 64.67 1.42 13.13 5.17 25.86 8.08 38.72a560 560 0 0 1 9.98 51.91c1.58 13.03 2.7 26.75-1.67 39.38a51 51 0 0 1-6.01 11.76l-.08-.06c10.11-15.01 9.31-33.8 6.77-50.95a631 631 0 0 0-9.77-51.86c-2.84-12.89-6.54-25.67-7.88-38.85-1.34-22.84 4.17-43.33-7.67-64.72Z"/><path class="cls-17" d="M827.92 740.07c1.01 19.87 2.31 36.97 2.31 36.97"/><path class="cls-9" d="M925.91 494.57a370 370 0 0 0-1.85 26.62c-.33 8.92-.09 17.78 1.84 26.53.89 8.97-1.62 17.84-4.58 26.2-2.91 8.43-6.97 16.43-11.22 24.24a3463 3463 0 0 1-19.02 35.24c-1.85 3.36-4.58 8.3-5.93 11.89a302 302 0 0 0-12.87 37.83c-1.13 4.25-2.11 8.88-2.07 13.12-.44-4.46.71-8.89 1.62-13.23 1.03-4.34 2.25-8.62 3.55-12.88 3.41-10.59 6.73-21.3 11.63-31.34 7.23-13.39 15.17-27.67 22.37-41.01 4.28-7.78 8.37-15.7 11.31-24.09 2.98-8.26 5.52-17.07 4.7-25.92-1.86-8.71-2.04-17.71-1.64-26.59.43-8.83.91-18.05 2.15-26.61Z"/><path class="cls-17" d="M827.31 739.87c12.01 3.87 17.01 5.58 20.67 5.86M890.56 754.98c1.22-7.69 16.1-19.2 16.1-19.2 28.02-29.13 71.21-94.02 31.17-147.72a16 16 0 0 1-3.15-9.23c-2.25-97-21.2-103.18-21.2-119.09s-5.11-26.42-10.8-39.49 2.56-34.09 5.27-47.74"/><path class="cls-17" d="M945.53 677.07c5.75-2.13 7.62-4.3 7.07-24.27"/><path class="cls-17" d="M925.86 712.49c37.76-.5 59.09-17.09 62.47-21.66s17.26-24.87-6.43-51.95-30.04-21.26-30.04-21.26"/></g><g id="Calque_5"><path class="cls-9" d="M887.23 725.43c-12.91 2.23-25.48 7.5-35.34 16.24a36 36 0 0 0-3.91 4.06c8.57-12.11 24.72-19.22 39.25-20.3M827.31 690.83a260 260 0 0 1 26.62-69.39c9.68-16.54 20.77-51.87 19.77-70.91.35 3.09.28 6.21.03 9.31-.78 9.3-2.82 18.44-5.26 27.44-3.35 11.96-7.51 23.82-13.66 34.65-12.28 21.57-21.15 44.92-27.49 68.9Z"/><path class="cls-9" d="M804.94 535.89c15.57 12.48 19.82 79.04 21.49 100.36 1.01 17.31 1.83 34.65 1.43 52-.57 8.65-.97 17.29-.69 25.96.12 8.66.4 17.32.76 25.98-.52-8.65-.97-17.31-1.25-25.97-.38-8.67-.06-17.34.41-25.99a757 757 0 0 0-6.73-103.61c-2-12.42-5.79-41.05-15.41-48.73Z"/><path d="M850.9 368.63c16.06-9.44 12.1-24.05 1.05-17.06a1.9 1.9 0 0 1-2.11-.05c-10.71-7.56-16.11 6.81-.59 17.07.48.32 1.15.34 1.65.04" stroke-width="0" fill="#4c4345"/><path d="M833.84 328.3c-.19 7.43-6.88 13.29-14.93 13.08s-14.23-13.84-14.23-13.84 6.88-13.29 14.93-13.08 14.42 6.41 14.23 13.84" stroke-width="0" fill="url(#Dégradé_sans_nom_13)"/><path class="cls-9" d="M833.84 328.3c-.05 7.43-7.06 13.23-14.27 13.33-7.47.11-12.3-8.03-15.37-13.88l-.11-.23.12-.22c3.36-5.68 8.62-13.56 16.07-13.06 7.19.47 13.89 6.63 13.55 14.06Zm0 0c.27-7.37-6.48-13.39-13.58-13.56-6.94-.27-12.05 7.69-15.13 13.04l.01-.45c2.79 5.5 7.48 13.72 14.42 13.81 7.11.2 14.16-5.46 14.27-12.84Z"/><path class="cls-2" d="M823.74 328c0 5.1-3.92 9.24-3.92 9.24s-3.92-4.14-3.92-9.24 3.92-9.24 3.92-9.24 3.92 4.14 3.92 9.24"/><circle class="cls-11" cx="822.55" cy="323.44" r="1.31"/><path d="M865.44 328.3c.19 7.43 6.88 13.29 14.93 13.08s14.23-13.84 14.23-13.84-6.88-13.29-14.93-13.08-14.42 6.41-14.23 13.84" stroke-width="0" fill="url(#Dégradé_sans_nom_13-2)"/><path class="cls-9" d="M865.44 328.3c.12 7.37 7.17 13.03 14.27 12.84 6.95-.09 11.63-8.31 14.42-13.81l.01.45c-3.07-5.34-8.18-13.31-15.12-13.04-7.11.17-13.85 6.2-13.58 13.56m0 0c-.34-7.42 6.36-13.59 13.55-14.06 7.45-.5 12.71 7.37 16.07 13.06l.12.22-.11.23c-3.06 5.85-7.9 13.98-15.37 13.88-7.2-.09-14.22-5.89-14.27-13.33Z"/><path class="cls-2" d="M875.55 328c0 5.1 3.92 9.24 3.92 9.24s3.92-4.14 3.92-9.24-3.92-9.24-3.92-9.24-3.92 4.14-3.92 9.24"/><ellipse class="cls-11" cx="875.7" cy="323.44" rx="2.34" ry="1.31"/><path d="M825.99 353.95q-4.44.04-8.87.22-4.44.14-8.86.43c-5.9.38-11.79.86-17.63 1.71-5.85.77-11.66 1.86-17.31 3.53a49 49 0 0 0-8.24 3.13 24 24 0 0 0-7.17 5.08c1.85-2.33 4.34-4.08 6.93-5.53a49 49 0 0 1 8.23-3.44c5.66-1.85 11.53-2.93 17.4-3.79q8.83-1.15 17.73-1.47c5.92-.2 11.86-.21 17.77.14Z" stroke-width="0" fill="url(#Dégradé_sans_nom_25)"/><path d="M817.91 360.58c-2.37.87-4.76 1.68-7.12 2.58q-3.56 1.27-7.08 2.65c-4.7 1.81-9.39 3.66-13.99 5.71a168 168 0 0 0-13.6 6.52 75 75 0 0 0-6.47 3.85c-2.06 1.42-4.11 2.91-5.75 4.84 1.47-2.08 3.48-3.68 5.46-5.25a74 74 0 0 1 6.38-4.13c4.38-2.54 8.96-4.71 13.58-6.77a211 211 0 0 1 28.6-10Z" stroke-width="0" fill="url(#Dégradé_sans_nom_23)"/><path d="M827.31 363.85a167 167 0 0 0-13.42 5.54 97 97 0 0 0-12.65 7 56 56 0 0 0-11.04 9.22 32 32 0 0 0-7.21 12.38 26 26 0 0 1 2.48-6.85 35 35 0 0 1 4.13-6.05c3.16-3.75 7.04-6.82 11.07-9.55a89 89 0 0 1 12.89-6.86q3.36-1.44 6.79-2.66 3.44-1.2 6.96-2.16Z" stroke-width="0" fill="url(#Dégradé_sans_nom_25-2)"/><path d="M872.07 353.54c5.91-.35 11.85-.35 17.77-.14q8.89.32 17.73 1.47c5.87.86 11.74 1.94 17.4 3.79 2.82.93 5.61 2.01 8.23 3.44 2.59 1.45 5.08 3.2 6.93 5.53a24 24 0 0 0-7.17-5.08 49 49 0 0 0-8.24-3.13 114 114 0 0 0-17.31-3.53 231 231 0 0 0-17.63-1.71q-4.42-.29-8.86-.43-4.44-.18-8.87-.22Z" stroke-width="0" fill="url(#Dégradé_sans_nom_25-3)"/><path d="M880.15 360.17a212.83 212.83 0 0 1 28.6 10c4.62 2.06 9.2 4.23 13.58 6.77a74 74 0 0 1 6.38 4.13c1.98 1.57 3.99 3.17 5.46 5.25a29 29 0 0 0-5.75-4.84 72 72 0 0 0-6.47-3.85 171 171 0 0 0-13.6-6.52 279 279 0 0 0-13.99-5.71q-3.53-1.37-7.08-2.65c-2.36-.9-4.75-1.7-7.12-2.58Z" stroke-width="0" fill="url(#Dégradé_sans_nom_23-2)"/><path d="M870.75 363.44c2.34.63 4.66 1.38 6.96 2.16q3.43 1.23 6.79 2.66a88 88 0 0 1 12.89 6.86c4.04 2.73 7.91 5.8 11.07 9.55a36 36 0 0 1 4.13 6.05 26 26 0 0 1 2.48 6.85 32 32 0 0 0-7.21-12.38 56 56 0 0 0-11.04-9.22c-4-2.69-8.29-4.93-12.65-7a167 167 0 0 0-13.42-5.54Z" stroke-width="0" fill="url(#Dégradé_sans_nom_25-4)"/><ellipse class="cls-11" cx="838.25" cy="442.77" rx="23.38" ry="10.64" transform="rotate(-19.3 838.27 442.79)"/><path class="cls-20" d="M855.06 425.86c-6.9.34-18.4-.71-20.22-2.83-3.15-5.33-2.7-22.54.35-25.5 4.28-2.4 14.57-1.47 19.86 1.42-2.26 3.77-4.54 16.48 0 26.92Z"/><path class="cls-20" d="M887.81 445.02c-5.11 1.62-31.73-13.62-32.75-19.16-4.54-10.44-2.26-23.15 0-26.92 1.73-2.34 27.46-13.04 32.1-12.74 7.69.5 11.04 55.53.66 58.82ZM834.84 423.03c-7.14 2.82-26.61 22.11-33.03 13.93-8.79-11.19-5.21-52.53 2.63-52.42 3.74.06 22.98 12.51 30.75 12.99-3.06 2.97-3.5 20.18-.35 25.5Z"/><path class="cls-10" d="M805.6 398.23c3.3 2.08 7.06 3.18 10.73 4.39 3.22 1.02 7.89 2.38 11.18 3.35a70 70 0 0 1-11.42-2.59c-3.67-1.24-7.53-2.55-10.49-5.15M806.42 424.26c2.05-2.87 5.51-4.32 8.64-5.69a52 52 0 0 1 9.98-2.9l-4.87 1.79c-3.22 1.21-6.44 2.42-9.51 3.94a16 16 0 0 0-4.24 2.86M859.64 403.34c3.49-.47 8.27-2.31 11.66-3.37 3.4-1.13 8.18-2.78 11.58-3.81a103 103 0 0 1-11.32 4.57c-3.87 1.2-7.82 2.61-11.91 2.61ZM859.64 417.18c4.79.38 8.92 3.32 12.91 5.75a95 95 0 0 1 11.19 8.75c-3.44-2.4-8.18-5.82-11.64-8.08-3.93-2.49-7.85-5.41-12.46-6.42"/></g></svg>