<?xml version="1.0" encoding="UTF-8"?><svg id="uuid-4c7e4fc9-b9aa-49fb-8fea-4bbcde5b7437" xmlns="http://www.w3.org/2000/svg" viewBox="0 0 28.824 96.74"><defs><style>.uuid-30dcb852-ab30-4b5d-acb4-74803efe3d8a{fill:#292425;stroke-width:0px;}</style></defs><path class="uuid-30dcb852-ab30-4b5d-acb4-74803efe3d8a" d="M15.784,61.344c1.098.95,1.906,2.133,2.579,3.472,1.068-.777,1.872-1.741,2.527-2.85.652-1.104,1.129-2.278,1.512-3.514.116.011.218.022.321.03.219.018.438.055.656.047,1.13-.038,1.376-.364,1.452-1.451.076-1.084.108-2.171.147-3.258.047-1.313.603-2.421,1.367-3.446.357-.478.73-.945,1.098-1.414.255-.325.305-.614.138-.894-.192-.324-.498-.345-.826-.3-.448.061-.76.337-1.023.673-.643.822-1.003,1.782-1.312,2.762-.132.418-.237.844-.37,1.323-.29-.436-.485-.931-1.034-1.053-.523-.116-.978.101-1.473.338.605-.676,1.444-.783,2.289-.309.088-.368.141-.742.269-1.088.27-.734.536-1.474.883-2.172.361-.726.971-1.181,1.794-1.347.185-.037.332-.258.503-.399-.008.106-.018.232-.031.382.152.046.308.092.473.141.125-.146.245-.286.364-.425-.111.374-.167.716.278.933.134-.074.286-.157.444-.243.007.037.02.063.013.071-.266.286-.327.591-.238.99.097.434-.102.838-.373,1.193-.336.442-.649.901-.999,1.332-.968,1.191-1.267,2.577-1.3,4.074-.021.969-.106,1.945-.265,2.9-.165.987-.889,1.516-1.897,1.535-.269.005-.538,0-.81,0-1.334,2.964-2.254,4.11-4.459,5.562.216.694.473,1.369.636,2.067.369,1.579.355,3.184.161,4.781-.337,2.785-.738,5.562-1.072,8.347-.331,2.755-.699,5.519-.496,8.298.117,1.612.45,3.209.688,4.812.026.173.065.344.033.533-.243-.776-.491-1.55-.728-2.327-.805-2.645-.889-5.356-.742-8.089.159-2.962.53-5.901.967-8.833.212-1.418.42-2.838.579-4.262.363-3.261-.615-6.138-2.572-8.721-.05-.066-.1-.134-.15-.2Z"/><path class="uuid-30dcb852-ab30-4b5d-acb4-74803efe3d8a" d="M10.741,14.868c.003.07.017.141.008.209-.031.214.051.321.253.425.558.286.713.824.754,1.396.058.806-.06,1.586-.41,2.325-.051.107-.076.242-.063.359.258,2.268.523,4.535.787,6.803.004.037.013.073.023.125,1.332-1.379,3.861-1.139,4.8-.016.03-.119.072-.21.075-.303.073-1.926.151-3.851.199-5.778.007-.287-.111-.586-.211-.865-.127-.353-.318-.684-.44-1.038-.338-.981-.215-1.859.656-2.549-.098-.219-.194-.435-.29-.651.016-.015.032-.03.047-.045.183.167.365.333.552.504.156-.049.315-.1.5-.158-.038-.335-.077-.674-.116-1.013l.054-.024c.083.188.2.368.242.565.084.397.311.555.73.495.114-.235.239-.496.365-.756.022.004.045.008.067.011-.037.296-.075.592-.116.918.472.275.854.665.939,1.239.058.389.078.799.02,1.186-.399,2.662-.48,5.339-.42,8.025.003.156.033.312.046.468.012.141.017.283.021.368-.472-.906-.962-1.847-1.464-2.81-.511.942-1.01,1.86-1.509,2.779-.025-.012-.051-.024-.076-.036.028-.129.056-.257.094-.432-1.569-.401-3.118-.436-4.705.001.07.153.124.27.178.387-.023.02-.047.04-.07.06-.735-.77-1.47-1.54-2.202-2.308-.405.991-.813,1.99-1.221,2.989-.033-.007-.066-.014-.099-.021.009-.114.003-.231.031-.34.259-1.034.515-2.07.796-3.098.036-.132.201-.302.324-.319.142-.02.358.069.449.184.543.688,1.059,1.397,1.645,2.18-.093-.441-.172-.797-.242-1.154-.367-1.88-.736-3.759-1.091-5.641-.028-.149.012-.333.076-.475.342-.761.432-1.549.28-2.363-.076-.405-.302-.588-.718-.616-.474-.032-.886.151-1.255.416-.095.068-.153.258-.144.386.039.552.095,1.104.169,1.653.159,1.181.108,2.357,0,3.541-.159,1.741-.257,3.488-.381,5.232-.004.06-.011.12-.079.183-.033-.485-.094-.97-.094-1.455.001-1.549.003-3.1.047-4.648.036-1.255-.124-2.485-.336-3.716-.058-.336-.083-.7-.016-1.029.063-.309.267-.589.449-.963-.048-.134-.135-.376-.222-.619.017-.01.035-.02.052-.029.155.203.309.406.475.622.175-.066.348-.132.541-.205-.026-.276-.052-.551-.077-.826.018-.005.036-.01.055-.015.068.156.152.308.199.47.069.237.176.317.446.29.253-.026.413-.079.475-.335.014-.057.056-.106.085-.159.02.005.04.009.06.014ZM19.389,25.195c0-.086.003-.115,0-.144-.193-1.849-.219-3.701-.075-5.554.051-.657.167-1.312.174-1.969.008-.732-.527-1.23-1.203-1.221-.711.01-1.351.601-1.289,1.302.048.541.209,1.084.396,1.598.158.433.27.855.228,1.313-.116,1.251-.23,2.503-.353,3.753-.046.472-.113.942-.17,1.412.287-.603.53-1.212.768-1.822.084-.215.186-.407.451-.416.269-.009.378.187.471.393.194.434.386.869.601,1.355Z"/><path class="uuid-30dcb852-ab30-4b5d-acb4-74803efe3d8a" d="M18.586,94.273c.248.95-.289,2.016-1.193,2.358-.624.236-1.181.069-1.667-.339-.827-.697-1.322-1.613-1.633-2.632-.457-1.499-.684-3.043-.804-4.6-.114-1.482-.219-2.967-.235-4.452-.035-3.464.49-6.862,1.317-10.22.449-1.822.806-3.662.725-5.555-.046-1.075-.198-2.126-.801-3.057-.008-.012.006-.037.014-.08.57.623.856,1.367,1.036,2.153.379,1.657.349,3.33.093,4.996-.288,1.882-.653,3.752-.933,5.635-.442,2.971-.569,5.964-.394,8.961.1,1.712.293,3.42.491,5.124.117,1.005.433,1.961,1.012,2.809.094.138.197.272.309.395.706.777,1.607.727,2.238-.122.247-.333.331-.605.422-1.376Z"/><path class="uuid-30dcb852-ab30-4b5d-acb4-74803efe3d8a" d="M.057,47.509c.142.082.284.165.409.237.438-.223.401-.56.232-.95.248.262.447.595.874.262-.004-.091-.01-.222-.016-.355.02-.003.051-.013.053-.008.145.307.389.425.721.499.848.191,1.325.836,1.706,1.556.489.925.742,1.929.959,2.983.382-.279.803-.43,1.24-.297.394.119.759.333,1.117.546q-1.599-.498-2.564.715c-.193-.633-.343-1.275-.586-1.879-.272-.676-.601-1.333-.96-1.967-.239-.422-.597-.756-1.107-.866-.398-.086-.697.005-.867.272-.187.294-.134.574.12.923.62.854,1.249,1.703,1.83,2.583.597.904.623,1.959.679,2.996.049.909.03,1.824.131,2.726.116,1.033.412,1.252,1.455,1.264.311.004.622-.032.966-.051.358,1.32.934,2.581,1.673,3.765.746,1.196,1.658,2.235,2.981,2.941-.634-.132-1.525-.653-2.228-1.309-1.269-1.184-2.195-2.602-2.826-4.214-.09-.23-.201-.317-.46-.298-.603.043-1.205-.01-1.7-.399-.219-.173-.434-.408-.537-.661-.41-1.009-.38-2.091-.443-3.155-.026-.439-.053-.878-.072-1.317-.042-.988-.435-1.844-.995-2.635-.381-.538-.765-1.076-1.171-1.595-.383-.488-.519-1.012-.375-1.618.023-.095-.018-.219-.064-.313-.058-.118-.152-.217-.23-.325.019-.019.038-.037.057-.056Z"/><path class="uuid-30dcb852-ab30-4b5d-acb4-74803efe3d8a" d="M21.261,51.794c-.013-.224-.033-.447-.039-.671-.066-2.588-.536-5.115-1.12-7.627-.406-1.742-.836-3.48-1.175-5.235-.174-.898-.171-1.831-.247-2.748-.006-.069,0-.14,0-.251-1.55.871-3.174,1.008-4.863.687.248-.025.497-.045.745-.077.249-.032.504-.048.744-.116.762-.217,1.545-.391,2.27-.699,1.512-.642,2.228-1.893,2.434-3.475.18-1.373.047-2.735-.172-4.093.03-.009.06-.017.09-.026.181.602.398,1.195.536,1.806.3,1.327.348,2.655-.143,3.958-.249.66-.62,1.241-1.186,1.666-.259.195-.284.387-.204.667.496,1.729.965,3.465,1.477,5.189.537,1.809,1.004,3.63,1.201,5.511.185,1.759.185,3.512-.221,5.246-.023.098-.05.195-.076.292l-.052-.006Z"/><path class="uuid-30dcb852-ab30-4b5d-acb4-74803efe3d8a" d="M9.971,35.494c-1.185-.646-1.684-1.691-1.912-2.894-.287-1.518-.099-3.001.417-4.448.03-.083.068-.164.132-.317,0,.648-.017,1.21.004,1.771.036.941.045,1.887.159,2.819.152,1.244.599,2.372,1.705,3.214-.16-.02-.237-.03-.33-.041.052,2.732-.743,5.302-1.367,7.902-.656,2.733-1.143,5.49-1.192,8.31-.002.092,0,.184-.069.289-.093-.495-.208-.987-.276-1.486-.323-2.347-.099-4.668.47-6.946.501-2.007,1.132-3.982,1.694-5.974.204-.724.376-1.457.565-2.198Z"/><path class="uuid-30dcb852-ab30-4b5d-acb4-74803efe3d8a" d="M19.923.522c.1,4.634-.21,9.25-.681,13.857-.027-.001-.053-.002-.08-.004.228-4.618.456-9.236.683-13.854.026,0,.052,0,.078,0Z"/><path class="uuid-30dcb852-ab30-4b5d-acb4-74803efe3d8a" d="M7.218,0c.334,4.668.668,9.336,1.002,14.004-.031.002-.062.004-.093.006-.558-4.652-1.002-9.312-.91-14.01Z"/><path class="uuid-30dcb852-ab30-4b5d-acb4-74803efe3d8a" d="M9.254,13.857c-.174-3.737-.347-7.474-.521-11.211.042-.002.084-.004.125-.006.385,3.729.533,7.47.517,11.218-.04,0-.081,0-.121,0Z"/><path class="uuid-30dcb852-ab30-4b5d-acb4-74803efe3d8a" d="M18.006,14.25c-.076-3.913-.047-7.742.312-11.562.146.842-.115,10.578-.312,11.562Z"/><path class="uuid-30dcb852-ab30-4b5d-acb4-74803efe3d8a" d="M16.438,6.486c.093,2.676.186,5.352.279,8.028-.518-2.657-.551-5.333-.279-8.028Z"/><path class="uuid-30dcb852-ab30-4b5d-acb4-74803efe3d8a" d="M10.781,6.081c.329,2.712.35,5.417-.107,8.114.036-2.705.071-5.41.107-8.114Z"/></svg>