<svg xmlns="http://www.w3.org/2000/svg" viewBox="0 0 1681.92 1000.75"><defs><radialGradient id="uuid-54837d5d-815d-48ff-846c-28a5204f6fb5" cx="938.25" cy="410.42" fx="938.25" fy="410.42" r="22.52" gradientTransform="translate(49.02)" gradientUnits="userSpaceOnUse"><stop offset="0" stop-color="#ebebeb"/><stop offset=".41" stop-color="#e9e9e9"/><stop offset=".55" stop-color="#e2e2e2"/><stop offset=".66" stop-color="#d7d6d6"/><stop offset=".74" stop-color="#c7c5c6"/><stop offset=".81" stop-color="#b2afb0"/><stop offset=".88" stop-color="#999495"/><stop offset=".93" stop-color="#7a7475"/><stop offset=".98" stop-color="#584f51"/><stop offset="1" stop-color="#4c4345"/></radialGradient><style>.uuid-09ca320f-ab02-4727-a35a-8cacb0fc43ef,.uuid-0cf3413d-ea21-4a77-b4a5-f70ea1849899,.uuid-25744f58-0588-4488-b9a6-5eac70d9dcb6,.uuid-591c5831-13b7-4847-991b-0a3fe0911a2f,.uuid-ad56ae0d-1a1d-47bc-ac0d-80a133ea9bb8,.uuid-c806222a-a694-4aa6-b4b5-45940d6d264a{stroke-width:0}.uuid-0cf3413d-ea21-4a77-b4a5-f70ea1849899{fill:none}.uuid-25744f58-0588-4488-b9a6-5eac70d9dcb6{fill:#77a43c}.uuid-591c5831-13b7-4847-991b-0a3fe0911a2f{fill:#292425}.uuid-ad56ae0d-1a1d-47bc-ac0d-80a133ea9bb8{fill:#155b2c}.uuid-c806222a-a694-4aa6-b4b5-45940d6d264a{fill:#4c4345}.uuid-09ca320f-ab02-4727-a35a-8cacb0fc43ef{fill:#006837}</style></defs><g id="uuid-e003dc52-c3fc-4671-9c2a-cd16fce6123c"><path class="uuid-09ca320f-ab02-4727-a35a-8cacb0fc43ef" d="M454.83 900.98c.42.44 27.6 28.76 41.15 28.76 10.07 0 20.81-57.92 20.81-57.92s2.92 54.29 14.1 54.29c14.37 0 36.51-27.11 37.1-27.83-.27.98-12.76 45.3-2.47 43.96 10.41-1.35 43.58-46.1 46.6-70.08 0 0 4.01 35.52 31.66 35.52 17.58 0 45.36-57.81 46.08-59.32l.01-.03v.03c-.28 1.4-9.9 51.25 14.83 47.88 25.1-3.42 9.65-81.39 9.65-81.39s29.68 69.01 48.2 67.46c18.57-1.55 59.7-115.09 59.7-115.09s-1.25 12.65-1.99 29.21c1.26-15.78 32.57-40.92 55.1-44.78 11.4-1.96 15.44-10.05 19.04-17.83-26.14-1.24-35.86-27.67-74.17-27.67-24.17 0-14.34-29.98-50.83-29.15-23.54.53-10.53-45.2-25.4-45.2-21.69 0-15.5-37-44-37-44.63 0-10.77-36.12-41.27-36.12-25.04 0-20.45 21.39-45.03 17.32-30.97-5.13-14.4 56.22-48.48 51.32-43.18-6.2-38.12 26.45-55.74 22.96-17.97-3.57-22.27-24.97-37.56-27.13-13.15-1.86-14.69 55.02-29.2 54.12-13.13-.82-20.5 35.83-20.5 35.83-26.16-1.23-19.5 39.59-33.76 39.59-24.17 0-30.05 21.5-40.27 21.5-23.55 0-10.54-45.19-25.4-45.19-21.7 0-15.5-37-44-37-44.64 0-10.77-36.12-41.28-36.12-25.03 0-20.45 21.38-45.03 17.31-30.96-5.13-14.4 56.23-48.48 51.33-43.18-6.21-38.12 26.45-55.74 22.95C70.3 743.91 66 722.51 50.7 720.35c-13.15-1.86-14.68 55.01-29.2 54.11C8.36 773.65 1 811.75 1 811.75v2.4c30.02 86.11 4 130.36 49.96 127.39 31.54-2.04 16.1-58.56 15.75-59.84.74 1.28 48.27 83.74 66.85 83.42 29-.5-2.52-41.91-3.2-42.81.85.64 52.01 39.59 67.84 39.59s40.95-32.32 41.57-33.12c-.39.83-20.78 44.68 6.13 44.68 27.16 0 19.63-102.41 19.63-102.41s31.78 93.92 55.53 94.03c80.2.36 14.03-59.88 14.03-59.88l78.8 32.02a147.27 147.27 0 0 0 8.32-48.84s20.14 53.86 32.37 53.14c19.68-1.18.64-39.74.25-40.54Z"/><path class="uuid-25744f58-0588-4488-b9a6-5eac70d9dcb6" d="M1 595.81v215.94s7.37-38.1 20.5-37.29c14.52.9 16.05-55.97 29.2-54.11 15.3 2.16 19.6 23.56 37.56 27.12 17.62 3.5 12.56-29.16 55.74-22.95 34.08 4.9 17.52-56.46 48.48-51.33 24.58 4.07 20-17.31 45.03-17.31 30.51 0-3.36 36.12 41.27 36.12 28.51 0 22.31 37 44 37 14.87 0 1.86 45.19 25.41 45.19 10.22 0 16.1-21.5 40.27-21.5 14.26 0 7.6-40.82 33.75-39.59 0 0 7.38-36.65 20.5-35.83 14.52.9 16.06-55.98 29.21-54.12 15.3 2.16 19.6 23.56 37.56 27.13 17.62 3.49 12.56-29.16 55.74-22.96 34.08 4.9 17.51-56.45 48.48-51.32 24.58 4.07 20-17.32 45.03-17.32 30.5 0-3.36 36.12 41.27 36.12 28.5 0 22.31 37 44 37 14.87 0 1.86 45.73 25.4 45.2 36.5-.83 26.66 29.15 50.83 29.15 38.31 0 48.03 26.43 74.17 27.67h.01c3.33-7.23 6.3-14.2 14.4-15.78 21.44-4.19 29 19.36 45.23 19.36 13.02 0 8.58-34.57 27.15-35.44 26.15-1.23 23.67 39.78 37.92 39.78 24.18 0 30.05 21.49 40.28 21.49 23.55 0 10.53-45.19 25.41-45.19 21.7 0 15.5-37 44-37 44.62 0 10.76-36.12 41.26-36.12-.05-3.93-7.62-29.36-23.67-38.84-13.46-7.95-27.32 7.61-45.9-1.16-25.89-12.19-35.8 15.27-53.64 7.33-11.89-5.28-8.96-25.37-25.47-28.16-20.58-3.48-18.52-30.1-41.49-35.7-21.69-5.3-16.62-30.32-33.46-33.61-21.44-4.19-28.99 19.35-45.24 19.35-13 0-8.58-34.57-27.15-35.44-26.14-1.23-23.66 39.78-37.92 39.78-24.17 0-30.05 21.5-40.27 21.5-23.55 0-10.54-45.19-25.4-45.19-21.7 0-15.5-37-44-37-44.64 0-10.77-36.12-41.28-36.12-.58 0-1.14.01-1.68.03-23.15.94-19.34 21.26-43.35 17.28-30.96-5.13-2.15-38.37-36.23-43.27-43.18-6.21-19.92-31.63-37.55-35.13-17.96-3.56-15.6 24.63-30.89 22.47-13.15-1.86-9.79 25.44-24.3 24.54-14.54.9-11.18-28.13-24.33-26.27-15.29 2.17-12.92-26.03-30.89-22.47-17.62 3.5 5.63 28.92-37.55 35.13-34.08 4.9-5.26 38.14-36.23 43.27-24.58 4.08-19.99-17.31-45.03-17.31-30.5 0 3.36 36.12-41.27 36.12-28.5 0-22.3 37-43.99 37-14.88 0-1.86 45.19-25.4 45.19-10.24 0-16.12-21.5-40.29-21.5-14.25 0-11.77-41-37.92-39.77-18.57.87-14.13 35.44-27.15 35.44-16.24 0-23.79-23.55-45.23-19.36-16.85 3.29-11.46 29.83-33.47 33.61-22.9 3.93-41.2 33.44-41.43 49.15Z"/><path d="M1 .5v595.31c.22-15.71 18.52-45.22 41.42-49.15 22.01-3.78 16.62-30.32 33.47-33.61 21.44-4.19 29 19.36 45.23 19.36 13.02 0 8.58-34.57 27.15-35.44 26.15-1.23 23.67 39.77 37.92 39.77 24.17 0 30.05 21.5 40.28 21.5 23.55 0 10.53-45.19 25.41-45.19 21.68 0 15.5-37 44-37 44.62 0 10.76-36.12 41.26-36.12 25.04 0 20.45 21.39 45.03 17.31 30.97-5.13 2.15-38.37 36.23-43.27 43.18-6.21 19.93-31.63 37.55-35.13 17.97-3.56 15.6 24.64 30.9 22.47 13.14-1.86 9.78 27.17 24.31 26.27 14.52.9 11.16-26.4 24.31-24.54 15.3 2.16 12.93-26.03 30.9-22.47 17.62 3.5-5.64 28.92 37.54 35.13 34.08 4.9 5.27 38.14 36.23 43.27 24.01 3.98 20.2-16.34 43.35-17.28 0 0 7.54-38.53 20.66-37.71 14.52.9 16.06-55.98 29.21-54.12 15.3 2.17 19.6 23.56 37.56 27.13 17.62 3.5 12.56-29.16 55.73-22.95 34.1 4.9 17.52-56.46 48.5-51.33 24.57 4.07 19.98-17.32 45.02-17.32 30.5 0-3.36 36.13 41.27 36.13 28.5 0 22.31 37 44 37 14.87 0 1.85 45.19 25.4 45.19 10.23 0 16.1-21.5 40.28-21.5 14.25 0 7.6-40.82 33.74-39.59 0 0 12.47-34.16 43.68-32.35 14.53.84 17.3-18.36 35.58-15.91 25.78 3.45 23.38-16.5 41.34-12.94 17.63 3.5-8.56 22.47 34.62 28.68 34.08 4.9 8.76 25.84 39.73 30.97 24.58 4.08 20-17.31 45.03-17.31 30.5 0-3.36 36.12 41.27 36.12 28.5 0 22.31 37 44 37 14.87 0 1.85 45.19 25.4 45.19 10.23 0 16.11-21.5 40.28-21.5 14.25 0 11.77-41.01 37.92-39.78 18.57.88 14.13 35.45 27.15 35.45 16.24 0 23.8-23.55 45.23-19.36 16.85 3.29 11.46 29.83 33.47 33.61 22.9 3.93 41.2 33.44 41.43 49.15V.5H1Z" fill="#f1f9e4" stroke-width="0"/><path class="uuid-25744f58-0588-4488-b9a6-5eac70d9dcb6" d="M683.5 441.69c.53-.02 1.1-.03 1.67-.03 30.51 0-3.36 36.12 41.27 36.12 28.51 0 22.31 37 44 37 14.87 0 1.86 45.19 25.41 45.19 10.22 0 16.1-21.5 40.27-21.5 14.26 0 11.78-41.01 37.92-39.78 18.57.87 14.14 35.44 27.15 35.44 16.25 0 23.8-23.54 45.24-19.35 16.84 3.29 11.77 28.31 33.46 33.61 22.97 5.6 20.91 32.22 41.5 35.7 16.5 2.79 13.57 22.88 25.46 28.16 17.83 7.94 27.75-19.52 53.63-7.33 18.6 8.77 32.45-6.79 45.91 1.16 16.05 9.48 23.62 34.91 23.67 38.84 25.04 0 20.45 21.39 45.03 17.32 30.97-5.14 14.4 56.22 48.5 51.32 0 0 3.57-36.38 16.68-35.57 14.53.91 16.07-55.97 29.22-54.11 15.3 2.16 19.6 23.56 37.55 27.12 17.63 3.5 12.57-29.16 55.74-22.95 34.08 4.9 17.52-56.46 48.48-51.33 24.58 4.08 20-17.31 45.03-17.31 30.51 0-3.35 36.12 41.27 36.12 28.51 0 22.31 37 44 37 14.87 0 1.86 45.19 25.41 45.19 10.23 0 16.1-21.5 40.28-21.5 14.25 0 7.6-40.82 33.74-39.59V479.64c-.23-15.71-18.53-45.22-41.43-49.15-22-3.78-16.62-30.32-33.47-33.61-21.44-4.19-28.99 19.36-45.23 19.36-13.02 0-8.58-34.57-27.15-35.45-26.15-1.23-23.67 39.78-37.92 39.78-24.17 0-30.05 21.5-40.28 21.5-23.55 0-10.53-45.19-25.4-45.19-21.69 0-15.5-37-44-37-44.63 0-10.77-36.12-41.27-36.12-25.04 0-20.45 21.39-45.03 17.31-30.97-5.13-5.65-26.07-39.73-30.97-43.18-6.21-16.99-25.18-34.62-28.68-17.96-3.56-15.56 16.39-41.34 12.94-18.29-2.45-21.05 16.75-35.58 15.91-31.2-1.81-43.68 32.35-43.68 32.35-26.14-1.23-19.49 39.59-33.74 39.59-24.18 0-30.05 21.5-40.28 21.5-23.55 0-10.53-45.19-25.4-45.19-21.69 0-15.5-37-44-37-44.63 0-10.77-36.13-41.27-36.13-25.04 0-20.45 21.39-45.03 17.32-30.97-5.13-14.4 56.23-48.49 51.33-43.17-6.21-38.1 26.45-55.73 22.95-17.97-3.57-22.27-24.96-37.56-27.13-13.15-1.86-14.69 55.02-29.2 54.12-13.13-.82-20.67 37.71-20.67 37.71Z"/><path class="uuid-09ca320f-ab02-4727-a35a-8cacb0fc43ef" d="M1065.42 929.49c.58.91 21.44 33.11 34.5 33.11 13.11 0 55.44-38.81 56.3-39.59-.58.9-26.74 42.32-2.67 42.81 15.43.33 54.87-82.13 55.48-83.41-.29 1.28-13.1 57.79 13.08 59.83 38.15 2.97 16.55-41.27 41.47-127.39 0 18.17.84 41.97 3.05 66.5 19.71-11.08 56.65-114.13 56.65-114.13s-10 101.16 10.05 105.89c2.21.52 5.56-.92 9.68-3.78 16.15-11.24 44.27-44.51 63.58-68.53 0 0-7.39-38.11-20.5-37.29-14.53.9-16.07-55.98-29.22-54.12-15.29 2.16-19.59 23.56-37.56 27.12-17.62 3.5-12.56-29.15-55.73-22.95-34.09 4.9-17.52-56.46-48.49-51.32-24.58 4.07-19.99-17.32-45.03-17.32-30.5 0 3.36 36.12-41.27 36.12-28.5 0-22.3 37-43.99 37-14.88 0-1.86 45.19-25.4 45.19-10.24 0-16.1-21.49-40.29-21.49-14.25 0-11.77-41.01-37.92-39.78-18.57.87-14.13 35.44-27.15 35.44-16.24 0-23.79-23.55-45.23-19.36-8.1 1.58-11.07 8.55-14.4 15.78-3.6 7.78-7.65 15.87-19.06 17.83-22.52 3.86-53.83 29-55.09 44.78 0 .27-.02.53-.03.79-1.29 30.24-.79 72.86 12.06 75.89 2.22.52 5.56-.92 9.68-3.78 26.32-18.31 84.4-95.09 84.4-95.09S860.67 936.3 866.87 945.3c4.9 7.13 66.68-43.58 67.58-44.32-.26.59-8.95 19.52-22.37 41.26l74.22-36.34s-54.92 60.25 11.64 59.89c19.71-.11 46.08-94.04 46.08-94.04s-6.25 102.41 16.3 102.41c22.33 0 5.41-43.84 5.1-44.67Z"/><path class="uuid-09ca320f-ab02-4727-a35a-8cacb0fc43ef" d="M1435.5 900.98c-.27.59-8.96 19.52-22.37 41.26a666.4 666.4 0 0 1-14.03 22.01c31.07 1.37 62.35-92.5 62.35-92.5s-6.25 102.41 16.3 102.41c22.33 0 5.4-43.84 5.08-44.67.58.91 21.44 33.11 34.5 33.11s55.45-38.81 56.3-39.59c-.57.9-26.73 42.32-2.66 42.81 15.43.33 54.87-82.13 55.48-83.41-.29 1.28-13.1 57.79 13.07 59.83 38.15 2.97 16.55-41.27 41.47-127.39V616.63c-26.15-1.23-19.49 39.59-33.74 39.59-24.18 0-30.05 21.5-40.28 21.5-23.55 0-10.54-45.19-25.4-45.19-21.7 0-15.5-37-44-37-44.63 0-10.77-36.12-41.28-36.12-25.03 0-20.45 21.39-45.03 17.31-30.96-5.13-14.4 56.23-48.48 51.33-43.17-6.21-38.1 26.45-55.74 22.95-17.96-3.56-22.26-24.96-37.55-27.12-13.15-1.86-14.69 55.02-29.22 54.11-13.1-.81-16.69 35.57-16.69 35.57 43.17-6.2 38.11 26.45 55.73 22.95 17.97-3.56 22.27-24.96 37.56-27.12 13.15-1.86 14.7 55.02 29.21 54.12 13.12-.82 20.51 37.29 20.51 37.29 12.14-15.11 20.8-26.56 20.8-26.56s-65.68 162.06-59.47 171.06c4.9 7.13 66.67-43.58 67.57-44.32Z"/></g><g id="uuid-61b99628-ba14-4467-8ac9-e24250fc5a14"><path class="uuid-ad56ae0d-1a1d-47bc-ac0d-80a133ea9bb8" d="M1170.07 644.92c-2.37-13.04-11.55-30.52-23.06-37.65-8-5.5-17.22-1.25-25.85.5-6.68 1.5-13.95 1.48-20.32-1.35-24.28-11.27-31.6 10.27-49.49 8.97-18.58-2.13-13.64-25.7-29.65-28.96l-1.8-.35-.97-.2c-15.09-3.55-18.59-20.3-28.8-29.3-3.35-3.02-7.53-4.8-11.87-5.81-11.48-2.9-16.62-12.18-21.1-21.78-2.1-4.24-4.38-8.12-7.73-9.89-8-3.86-16.85-.76-23.55 4.8-7.68 6-17.2 16.47-28.46 12.98-12.6-5.21-9.1-33.72-23.72-34.45-3.46-.11-6.87.73-9.69 2.77-7.1 5.31-9.7 14.92-13.39 23.13-1.53 3.54-3.43 7.71-6.35 10.62a11.75 11.75 0 0 1-8.03 3.58c-.98.05-1.94.04-2.9.15-9.7.56-17.2 6.68-23.73 13.59-2.87 2.76-6.12 6.25-10.53 7.5-8.41 2.08-16.46-2.79-19.69-10.47-4.71-10.26-3.39-21.79-6.91-32a5.48 5.48 0 0 0-1.03-1.67c-.28-.26-.34-.3-.69-.35-1.2-.1-2.44-.06-3.65-.3-6.06-.72-11.47-5.36-14.49-10.24-6.05-9-8.87-22.08-19.9-25.44-2.78-.89-6.68-.86-9.69-.92-2.64-.08-5.28-.4-7.91-.84-7.75-1.4-14.87-5.45-17.61-13.12-1.93-5.11-1.78-10.44-2.49-15.27-.5-2.5-.82-3.86-2.2-4.95-2.54-1.75-5.72-1.72-9-1.68-6.48.1-11.8 2.61-16.34 7.25-3.7 3.63-8.18 7.9-13.65 9.44-5.7 1.72-11.34 1.29-16.95.07-5.79-1.2-12-4.6-14.94-10.16-3.96-7.12-2.94-15.17-4.71-22.46-2.07-9.14-11.24-9.5-19.03-10.93-8.07-1.67-16.4-4.33-22.17-10.78-3.96-4.26-5.64-10.66-6.26-15.97-.34-2.4-.7-4.52-1.26-5.56-.44-1-1.01-1.23-1.9-1.6l-.22-.1-.28-.06c-6.13-1.8-8.7 2.6-11.54 7.5-4.28 7.97-9.28 16.26-19.87 14.78-2.72-.48-4.18 4.09-5.37 6.58-.9 2.15-1.77 4.48-2.94 6.93-1.3 2.74-2.82 5.34-5.26 7.53-2.58 2.46-6.76 3.8-10.27 3.5h.6c-1.5.04-3-.01-4.47-.44-10.8-2.98-11.9-16.23-16.48-23.95-.8-1.14-1.38-2.1-2.77-1.97h-.15l-.11.01-.26.03c-7.05 1.03-12.64-3.36-15.97-8.95-2.72-4.15-5.36-10.59-8.8-12.84-2.09-1.44-5.1-1.13-7.31-.26-.63.37-1.16.7-1.46 1.4-.45.81-.82 2.34-1.09 4.17-.55 3.62-1.03 8.37-3.34 12.82-4.18 8.5-13.9 12.73-22.45 14.68-2.98.69-5.98 1.15-8.97 1.65-1.57.26-3.4.68-4.9 1.26-5.43 1.85-8.03 5.74-8.77 11.86-.85 5.6-.76 12.96-3.81 18.7-3.32 6.78-10.87 10.1-17.93 11.08-4.47.68-9.18.77-13.67-.61-4.45-1.27-8.41-4.36-11.53-7.42-2.93-2.84-5.37-5.24-8.21-6.77-2.8-1.57-6.02-2.34-9.5-2.6-3.49-.25-7.12.02-9.35 1.1a4.76 4.76 0 0 0-2.33 2.2c-2.1 4.95-1.19 10.3-2.8 16.39a19 19 0 0 1-9.39 12.3l-.8.38-1.62.74c-4.12 1.59-8.48 2.25-12.84 2.51-1.05.06-2.08.06-3.12.09l-1.53.03-1.28.05c-4.08.13-8.11 1.44-11.2 4.12-10.64 9.02-11.42 28.4-26.94 32.02l-1.8.3c-.6.09-1.2.09-1.8.13l-1.19.05c-.2.03-.38.05-.52.12-.29.1-.56.28-.9.67-.32.39-.67.96-.98 1.64a24.13 24.13 0 0 0-1.42 4.89c-1.97 9.74-1.65 20.69-6.97 29.73-3.01 5.38-9.84 8.6-15.93 7.63-5.81-1.1-9.53-5.93-13.4-9.64-6.76-7.16-15.03-12.12-25.03-12.06h-.17l-.25-.03-.53-.04-1.04-.11c-3.72-.67-6.85-4.05-8.47-6.96-3.11-5.25-4.9-11.12-7.36-16.47-3.4-7.63-8.35-15.86-17.38-16.53l-.65-.08h-.65c-1.83-.1-3.34.1-4.82.65-2.92 1.07-5.18 3.8-6.86 7.04-2.56 4.96-4.05 10.9-6.07 16.3-1.76 4.52-4.39 10.35-9.97 10.89-5.94.52-11.88-2.82-16.16-6.28-8.9-7.27-17.2-16.07-29.73-13.55-15.57 3.12-11.3 27.2-31.03 32.47-3.83.84-7.63 1.47-11.2 3.19-7.05 3.2-13.18 8.34-18.24 14.2-7.45 8.9-13.9 19.6-14.8 31.4.04-3.95 1.02-7.83 2.3-11.55a70.17 70.17 0 0 1 11.72-20.5c6.26-7.65 14.32-14.4 23.96-17.23 1.86-.59 3.88-.83 5.73-1.39 7.76-2.01 12.12-8.76 15.14-15.76 4.7-10.91 8.62-18.81 22.06-18.4 10.65.13 18.61 8.12 26.38 14.12 3.98 2.98 8.06 5.31 12.88 5.26l.51-.05c.36 0 .64-.17.97-.22 1.2-.49 2.28-1.6 3.16-3.1 1.75-3 2.83-6.79 4-10.52 2.39-7.66 5.12-17.44 13.43-20.91a17.82 17.82 0 0 1 8.4-1.03c3.91.29 7.73 1.7 10.85 4.06 10.1 7.58 12.38 20.76 18.35 30.98 1.48 2.31 2.96 4.21 5.57 4.22a36.57 36.57 0 0 1 19.84 5.56c5.35 3.3 9.46 7.77 13.84 11.9 1.87 1.69 3.57 3.2 5.76 3.62 2.1.19 4.43-.34 6.1-1.45 10-7.52 4.87-30.88 12.6-40.58 1.77-2.33 4.93-3.55 7.89-3.5.38-.03.78-.02 1.15-.08l1.1-.2c12.14-2.87 12.75-27.45 29.36-34.56a27.04 27.04 0 0 1 9.98-2.37c2.71-.12 5.92-.17 8.6-.48 6.56-.83 12.78-2.77 14.32-9.69 1.61-7.05-.05-18.03 7.58-23.12 3.6-2.46 8.06-3.14 12.3-3.2 7.7-.25 16.06 2.19 21.94 7.53 4.16 3.45 7.41 7.94 12.57 9.46 5.56 1.5 13.76.42 18.48-3.05 9.5-8.08-1.95-29.86 19.87-38.23 2.9-1.14 6.42-1.75 9.5-2.26 7.95-1.48 17.47-3.4 21.55-10.94 1.35-2.59 1.8-5.83 2.38-9.95.92-7.63 4.65-13.04 12.75-14.2 13.33-2.07 18.04 8.54 23.56 17.99 1.65 2.47 3.28 4.82 6.18 4.55l1.38-.1c12.62-1.06 14.7 14.85 19.05 22.74 1.45 2.26 2.27 3.56 4.83 3.5h.6c3.33.1 4.45-2.38 6.05-5.45 3.7-8.29 6.72-20.7 18.81-19.08 2.82.49 4.63-1.73 6.13-3.94 2.67-4.04 4.6-8.78 8.12-12.83 4.74-5.64 11.87-7.37 18.87-5.17 7.35 2.34 9.44 8.47 10.2 15.34.62 4.23 1.2 7.8 3.88 10.85 4.18 4.55 10.36 6.24 16.63 7.63 11.54 1.68 23.05 4.29 26.6 18.15 1.92 6.72.76 14.15 3.73 20.17 1.76 3.19 5 4.56 8.6 5.43 16.07 3.44 16.28-4.01 28.13-12.19 7.4-4.6 16.19-5.65 24.73-4.05 6.7 1.34 11.25 6.25 12.38 13.04 1.4 6.4-.18 13.93 4.82 18.45a13.54 13.54 0 0 0 4.78 2.49c4.14 1.32 8.7 1.51 13.03 1.6 16.51.19 23.69 11.45 29.95 24.73 3.32 6.26 6 12.04 12.93 12.42l.76.04c.5.03.99.04 1.52.13 16.33 2.97 7.78 34.5 18.2 43.5a8.32 8.32 0 0 0 6.44 1.62c2.57-.91 4.6-3.12 6.9-5.31 8.72-9.2 18.7-15.96 32.06-15.83 10.17-.35 10.03-38.57 36.16-39.47 18.4-.8 19.67 19.47 25.2 31.86 2.03 4.1 3.52 4.42 7.87 3.33 8.87-2.88 14.88-11.43 23.5-15.7 8.41-4.49 20.26-4.96 27.52 1.96 6.23 6.11 8.05 15.78 13.25 22.13a20.1 20.1 0 0 0 10.53 6.97c18.34 4.3 21.38 19.34 31.35 30.61 2.7 2.8 6 4.77 9.76 5.57l1.77.39c1.33.26 2.63.72 3.9 1.27 3.72 1.64 6.8 4.88 8.74 8.27 2.64 4.46 4.1 9.17 6.4 13.1 3.1 6.04 10.22 8.6 16.59 6.48 6.86-2.21 12.57-6.9 19.67-9.23 7.19-2.65 15.42-1.84 22.25 1.47a28.72 28.72 0 0 0 13.55 3.17c9.7.07 19.13-5.57 28.93-2.9 14.83 5.14 25.32 27.52 27.42 41.22Z"/><path class="uuid-ad56ae0d-1a1d-47bc-ac0d-80a133ea9bb8" d="M820.24 797.22c.49-15.4 22.13-32.62 34.66-39.85 5.98-3.43 12.4-6.4 19.24-7.9l1.61-.34c.5-.12.99-.25 1.47-.4 9.86-2.79 12.64-12.72 16.64-21.37 2.58-5.9 7.42-11.72 14.27-12.92 23.22-4.81 31.38 17.77 45.66 18.21 2.1.08 3.35-3.58 4.24-5.8 3.22-8.71 4.68-19.89 12.67-26.5 7.23-5.77 18.05-4.8 25.5.01 10.6 7 14.1 20.34 19.21 30.57 1.13 2.05 2.04 3.76 3.45 4.54.1.04.15.01.25.02 5.45-.05 11.1.89 16.28 3.14 4.97 2.11 9.31 5.3 12.94 8.58 3.58 3.02 6.85 7.39 10.68 9.32 4.94.56 6.82-3.83 8-8.1 1.56-5.75 1.95-12.9 2.97-19.25 1.14-8.48 4.87-18.31 15.33-18.08 3.7-.11 5.87-2.52 7.9-5.7 6.02-10.2 10.26-23.75 23.1-28.98 6.83-3.2 14.33-1.79 21.4-3.05 7.87-1.39 9.72-4.5 10.24-12.29.58-15.21 6.74-23.25 22.77-22.95 8.09-.08 16.9 2.98 22.83 8.56 4.5 3.76 7.32 8.43 13.22 9.32 4.02.76 8.51-.74 12.7-.51 23.89 1.43 21.46 31.75 30.64 47 3.03 5.08 7.7 6.34 13.36 5.46 11.66-1.45 24.53-.71 34.48 6.54 6.17 4.27 9.74 10.35 14.3 15.31 2.68 2.65 4.14 2.8 7.86 1.9 5.86-1.56 10.03-5.42 14.33-10.1 5.55-6.08 12.08-14.3 21.2-15.58a8.1 8.1 0 0 1 4.14.2c8.34 2.91 10.82 18.8 13.01 26.24 1.1 4.37 2.14 8.72 3.35 12.97 1.6 4.86 4.23 15.97 9.71 16.4 13.41-.22 18.91 28.74 20.74 38.96-1.1-4.36-2.4-8.67-3.87-12.9-2.73-7.21-6.47-17.76-13.17-21.98-1.32-.79-2.72-.85-4.16-.74-3.58-.1-6.2-2.88-8-5.58-7.11-11.85-9-25.67-14.1-38.21-1.12-2.79-2.37-5.6-4.28-7.69-.4-.37-.82-.78-1.27-.85a1.1 1.1 0 0 0-.37.01l-.16.03-.33.08c-7.49 1.72-11.3 8.27-16.38 14-2.97 3.5-6.34 7.17-10.75 9.99-7.62 4.85-17.11 6.72-24.1-.28-4.75-4.63-8.36-10.55-13.52-13.86-6.85-4.8-16.71-5.3-25.6-4.06-3.97.61-7.69 1.1-11.88.23-11.61-2.05-17.53-13.61-20.6-23.74-1.45-4.48-2.6-8.84-3.92-12.9-2.41-6.99-5.08-15.4-13.4-13.8-6.7 1.2-14.28 1.12-20.45-2.38-10.46-5.96-12.37-14.63-25.75-14.44-2.48 0-4.6.12-6.44 1.04-.75.46-.83.65-1.22 1.52-.84 2.45-.81 4.86-1.13 8.02-.41 5.48-1.58 11.8-5.64 16.49-7.35 8.67-19.44 9.05-29.78 9.36-7.52.82-11.13 5.7-14.74 12.38-5.76 11.32-11.35 24.44-26.75 24.42.05-.02.22-.03.35-.12.34-.13.44-.37.28-.14-1.06 1.76-1.5 4.15-1.95 6.7-2.18 12.07-1.6 27.8-13.48 35.65a19.72 19.72 0 0 1-10.25 2.81c-8.89.21-14.56-7.93-20.2-13.08-2.98-2.77-6-4.98-9.3-6.45a27.57 27.57 0 0 0-10.64-2.34l-.94-.03c-.52-.02-1.05-.06-1.58-.15-6.07-.75-10.48-6.72-12.6-11.37-4.99-9.57-7.87-25.64-18.87-28.6-2.74-.58-6-.83-8.31.94-2.16 1.57-4.07 5.02-5.54 8.88-2.59 6.34-3.85 13.86-8.53 19.96-4.45 5.75-11.8 5.27-17.92 2.54-6.63-2.93-11.84-8.65-17.05-12.7-4.88-3.88-9.85-6.43-15.88-6.13-3.57.08-7.02 1.1-9.43 4.02-4.17 4.99-5.95 11.26-9.77 17.06-3.25 5.27-8.56 9.62-14.7 11.02-16.46 2.46-31.42 11.09-43.88 21.98a66.03 66.03 0 0 0-9.1 9.73c-2.6 3.57-4.98 7.56-5.3 12.08Z"/><path class="uuid-ad56ae0d-1a1d-47bc-ac0d-80a133ea9bb8" d="M1681 616.63c-17.87-.2-19.26 19.49-23.82 32.51-1.44 4.16-4.4 9.03-9.51 9.28-23.98.51-27.1 22.43-41 22.84-20.04-.16-18.82-25.15-22.12-39.07-.5-1.83-1-3.46-2.03-4.64-.2-.2-.32-.25-.42-.28-.12-.02-.21-.05-.59-.04-24.37.01-20.5-33.2-40.42-35.94-1.3-.22-2.82-.22-4.15-.23-5.68-.04-10.89-.38-16.59-2.4-20.69-7.7-10.94-29.46-18.07-32.43-3.79-1.43-10.73-1.06-14.91.6-5.84 2.26-8.71 6.89-14.2 11.1-4.87 3.94-11.7 5.65-17.86 5.24-1.67-.15-3.8-.32-5.46-.62-8.36-1.7-11.4 6.6-13.69 13.47-3.96 11.64-5.62 25.72-16.33 33.83-5.22 3.87-12.08 4.66-18.29 3.6-11.69-1.78-23.9-1.04-32.1 8.07-3.4 3.4-6.42 8.2-10.75 11.42-8.84 6.76-21.21.72-28.03-6.03-5.21-5.03-8.92-10.64-13.2-14.7-2.4-2.29-4.85-3.87-7.77-4.54l-.47-.1-.24-.06c-.2-.01-.24-.06-.52.05-.5.19-1.4 1.05-2.13 2.18-3.15 5.01-5.04 11.64-6.9 17.48-1.98 6.27-3.82 12.67-6.34 18.98-2.36 5.31-5.53 13.7-12.7 13.6l-.55-.03a5 5 0 0 0-1.37.12c-9.13 2.81-13.33 25.14-14.9 33.67.19-3.3.54-6.6 1.02-9.88 1.37-8.29 3.9-23.8 12.94-27.09 1.5-.6 3.13-.1 4.55-.81 6.46-4 9.4-22.46 11.6-30.17 2.38-8 5.55-27.74 17.45-25.18 16.7 2.55 22.58 26.54 39.4 26.05 2.17-.5 3.54-2.17 5.15-4.02 1.9-2.29 3.91-5.14 6.37-7.84 10.29-11.98 26.38-14.22 41-12.1 9.16 1.51 13.19-3.26 16.3-11.47 5.58-14.3 6.47-37.7 25.67-40.42 3.1-.42 5.92.01 8.82.42 4.35.54 8.54.15 12.1-2.68 2.04-1.52 4.22-3.87 7-6.33 5.76-5.42 13.88-8.49 21.77-8.53 9.67-.56 19.26 2.85 21.5 13.4 2 7.54-.76 18.22 8.15 21.13 4.49 1.81 10.41 1.87 15.43 2.05 14.36.78 22.05 10.85 27.5 22.77 3.15 5.87 5.59 13.5 12.46 14.8 2.01.29 3.96.07 6.02 1.06 1.43.62 2.66 1.59 3.56 2.6 8.63 9.55 2.22 36.49 13.84 42.1 1.42.57 3.34.97 4.99.63 3.24-1.03 5.48-3.74 8.46-6.41a71.22 71.22 0 0 1 7.85-6.69 36.13 36.13 0 0 1 19.84-6.93c1.46-.14 2.95.17 4.38-.19 1.02-.28 2-1.07 2.86-2.19 5.26-8 6.34-18.57 12.07-26.73a17.96 17.96 0 0 1 17.37-8.28Z"/><path class="uuid-09ca320f-ab02-4727-a35a-8cacb0fc43ef" d="M867.08 1000.3c15.29-13.14 26.47-30.21 37.12-47.15 10.61-17.05 20.6-34.54 29-52.76l2.16 1.67a887.31 887.31 0 0 1-25.85 20.58c-11.05 8.24-22.03 16.89-34.42 23.25-10.64 5.1-11.74-.12-9.65-9.4 3-13.53 7.57-26.63 11.96-39.7 14.46-41.58 30.47-82.55 46.91-123.39l3.82 2.17a1171.46 1171.46 0 0 1-39 48.24c-13.66 15.63-27.1 31.45-43.33 44.6-3.81 2.71-7.92 6.22-12.94 6.23-6.84-1.03-9.12-8.88-10.73-14.53-2.48-10.2-3.02-20.6-3.33-31.01-.4-20.7.72-41.36 2.64-61.96l1.58.36c-9.48 25.42-19.6 50.61-31.24 75.12-6.04 12.16-11.96 24.63-20.82 35.08-3.28 3.72-7.47 7.08-12.67 4.85-17.25-7.17-37.19-49.73-45.24-67.14l2.7-.83c3.33 17.99 5.72 36.24 4.8 54.59-.68 11.73-3.83 30.3-19.3 29.15-15-1.38-15.72-20.59-15.49-32.03.22-6.19.87-12.26 1.98-18.4l4.11 1.38c-4.74 9.8-9.87 19.3-15.56 28.58-6.6 10.33-16.01 25.53-27.31 31-5.54 2.4-12.23.9-17.63-1.38-13.39-6.29-19.55-21.23-21.7-35.03l4.96.03c-.8 5.92-2.74 11.33-4.94 16.56-7.3 16.8-24.68 44.4-39.96 54.42-2.23 1.34-5.47 2.26-7.78.45-6.16-4.78-1.65-23.21-.47-30.03 1.15-5.5 2.47-10.9 3.97-16.34l4.65 2.42c-2.9 3.5-5.86 6.76-9 9.96-7.67 7.47-18.85 18.34-30.12 18.8-9.95-.06-12.58-22.81-13.97-30.29-1.3-8.8-2.15-17.58-2.68-26.46l4.94.32c-2.85 13.37-10.08 50.22-19.7 58.34-10.19 7.52-39.05-20.92-46.17-28.27l3.24-2.27c4.39 9.67 12.25 28 6.94 38.16-2.7 4.99-10.28 6.76-14.54 2.86-4.7-3.84-7.85-9.2-10.82-14.22-6.86-12.17-12.26-25.01-17.21-38.04l2.53-.46a148.15 148.15 0 0 1-3.58 31.48c-7.1 30.78-23.6 59.53-46.94 80.83l-.33-.38c7.7-7.08 14.34-15.29 20.32-23.85a154.56 154.56 0 0 0 27.88-95.11c3.53 9.2 23.98 62.3 35.28 58.17 12.42-3.04.49-30.19-3.12-37.66l-5.37-10.98 8.61 8.7c8.68 8.55 27.58 27 39.69 27.94 3.6-1.36 6.85-11.24 8.24-15.03 6.32-19.02 10.12-40.76 13.8-60.53 1.14 14.22 1.65 31.77 4.03 45.7.86 5.27 3.81 24.21 8.9 25.83 6.39-.41 11.82-4.68 16.86-8.6 9.58-7.75 18.37-18.43 26.15-28-3.89 14.2-8.54 29.48-9.7 44.13-.2 2.76-.31 6.44.82 8.58.67-.03 1.3-.4 2.01-.77 4.28-2.6 8.1-6.8 11.52-10.64 10.56-12.35 19.78-26.28 26.41-41.17 2.13-4.95 3.95-10.08 4.65-15.17l2.54-18.65 2.42 18.68c1.46 9.8 5.28 20.35 12.66 27.16a23.57 23.57 0 0 0 13.13 6.05c2.3.24 4.45.47 6.68-.57 6.8-3.34 11.73-9.83 16.4-15.84 12.53-16.92 22.29-36.74 31.52-55.65l-2.98 15.73c-2.12 11.59-7.03 48.2 12.49 45.55 20.31-3.59 11.18-63.98 8.46-79.18l-2.18-12.16c4.95 11.82 10.54 24.39 16.43 35.72a246.77 246.77 0 0 0 13.5 23.33c3.76 5.52 7.73 11 12.78 15.36 6.37 5.28 10.44 5.65 16.12-.89a78.58 78.58 0 0 0 7.86-10.82c9.4-15.36 16.84-31.9 24.06-48.39 7.96-18.45 15.2-37.26 22.08-56.15l-.55 6.17a603.77 603.77 0 0 0-1.93 30.85c-.43 10.78-2.62 75.86 13.39 73.42 3.43-.99 6.53-3.42 9.37-5.6 7.9-6.37 15.02-13.86 21.99-21.39 24.4-26.89 46.84-55.94 68.73-84.91-22.19 56.09-45.65 112.07-63.42 169.73-1.05 3.9-2.13 7.81-2.66 11.78-.08.63-.14 1.27-.15 1.85-.03.56.06 1.17.1 1.25a.6.6 0 0 0-.21-.22c-.06-.02.03.03.2.03.36.01.92-.08 1.48-.23a23 23 0 0 0 3.53-1.37 81.31 81.31 0 0 0 7.07-3.83c9.3-5.64 18.2-12.09 27-18.6A945.5 945.5 0 0 0 938.39 896l-2.63 5.54a461.64 461.64 0 0 1-47.4 77.34c-6.22 7.94-13.07 15.48-20.95 21.8l-.32-.39Z"/><path class="uuid-ad56ae0d-1a1d-47bc-ac0d-80a133ea9bb8" d="M1304.87 1000.5c-30.5-16.8-37.68-103.7-40.3-136.87a756.46 756.46 0 0 1-1.87-48.78l1.72.25c-7.35 25.5-11.42 51.78-13.6 78.2-.8 8.81-1.4 17.66-2.8 26.5-1.93 12.44-6.28 23.47-20.72 23.91-2.27.1-4.67.05-6.92-.28-19.23-3.56-16.91-33.51-15.26-48.17a154.7 154.7 0 0 1 2.2-13.27l3.32 1.15c-12.92 25.86-25.63 52.13-43.58 75-3.44 3.8-8 9.59-13.8 9.6-3.3-.1-6.65-.93-9.04-3.51-5.73-6.88-1.5-17.78 1.27-24.99a124.24 124.24 0 0 1 8.95-17.37l3.22 2.69a487.17 487.17 0 0 1-22.58 19.4c-7.85 6.23-15.7 12.34-24.53 17.25-4.71 2.62-10.62 5.14-15.96 2.45-9.41-4.5-16-12.85-22.43-20.69-3.1-3.94-6-7.97-8.77-12.2l4.26-2.17c4.03 11.35 9.74 29.37 4.65 40.93-3.71 8.08-15.43 9.83-20.66 2.34-9.6-13.23-10.22-43.62-10.78-60.01-.25-13.44 0-26.82.72-40.26l4.83.82c-7.03 23.76-14.76 47.32-25.46 69.73-3.82 7.58-7.67 15.04-13.73 21.27-2.3 2.27-5.66 4.72-9.28 4.7a76.64 76.64 0 0 1-16.18-1.52c-16.14-3.43-22.48-14.53-16.97-30.25 4.27-11.98 11.84-22.23 20.12-31.72l2.24 2.98a4852.38 4852.38 0 0 1-56.21 26.13c-4.58 2.13-14.2 6.45-18.84 8.5l9.11-4.87c20.28-10.84 52.28-27.02 72.9-37.58-7.26 8.3-15.11 17.34-20.37 27.08-3.63 6.67-7.18 14.4-6.4 22 1.63 12.51 16.84 14.18 27.2 14.55 1.72-.05 3.5.3 5.16-.35 5-2.36 8.17-7.69 11.2-12.39 14.1-24.75 22.56-52.43 30.77-79.6l5.97-20.7c-1.51 26.67-2.98 54.65-.86 81.24.81 9.8 1.87 19.65 4.8 29 1.62 4.43 3.97 11.35 9.37 11.05 3.05-.06 5.66-1.48 6.93-4.29 2.43-5.39 1.52-12.32.56-18.21-1.93-11.54-8.75-27.97-12.78-39.05l11.77 18.06c6.7 9.93 13.99 19.97 23.23 27.67 7.06 5.53 9.96 5.68 17.77 1.42 8.46-4.66 16.31-10.7 23.93-16.71 11.21-8.86 22.95-19.55 33.58-29.2-7.25 11.76-16.2 24.78-19.68 38.23-1.89 7.36-1.38 14.73 7.91 14.25 4-1.13 7.13-5 9.98-8.16 10.06-12.27 17.9-26.18 25.7-40.04 8.47-15.2 16.55-31.74 24.13-47.45-3.92 17.23-8.34 35.85-6.17 53.56.97 8.48 4.78 18.63 14.55 19.12 5.58.42 11.9.01 16.09-4.08 8.54-8.3 8.35-31.75 9.97-43.71 2.4-26.5 6.72-52.93 14.31-78.47l1.74-5.92-.01 6.16c-.02 40.03 4.05 165.22 40.4 185.65Z"/><path class="uuid-0cf3413d-ea21-4a77-b4a5-f70ea1849899" d="m1680.99 1000.5-1680-.71"/><path class="uuid-09ca320f-ab02-4727-a35a-8cacb0fc43ef" d="M1368.28 1000.5c13.8-14.79 24.44-31.48 35.88-48.03 2.76-4.19 5.92-8.16 8.6-12.4a397 397 0 0 0 7.62-12.98c4.92-8.74 9.61-17.65 13.86-26.7l2.15 1.66a886.86 886.86 0 0 1-26 20.37c-8.82 6.6-17.71 13.12-27.16 18.92-3.23 1.74-14.26 9.24-16.64 4.2-.6-1.77-.34-3.1-.2-4.75a94.7 94.7 0 0 1 2.74-12.24c2.97-10.65 6.53-21.07 10.14-31.46 14.65-41.5 30.82-82.4 47.28-123.2l1.58.9a1272.7 1272.7 0 0 1-38.86 48.27c-13.53 15.61-26.91 31.51-42.99 44.64-7.29 5.54-14.41 10.4-19.75-.39-9.87-21.67-5.72-75.19-3.62-100.13l.73.17a971.88 971.88 0 0 1-24.7 61.02c-6.85 14.93-13.77 30-23.17 43.54-1.6 2.22-3.3 4.4-5.23 6.34-1.94 1.86-4.16 3.88-6.96 4.06 7.97-.84 16.82-17.83 20.67-24.5 15.43-29.06 27.33-59.88 38.68-90.72l1-2.79-.26 2.96c-1.53 18.45-7.75 96.04 8.72 104.87 10.24 4.87 47.94-41.28 55.69-50.08a1320.7 1320.7 0 0 0 42.68-53.76l-2.51 6.29c-16.27 40.82-32.27 81.8-46.72 123.3-4.37 12.97-8.92 25.92-11.92 39.26-.4 2.37-1.15 5.09-.66 7.38.05.08.02.06.09.1.59.17 1.37.03 2.11-.18 3.78-1.16 7.29-3.3 10.72-5.34 9.28-5.72 18.13-12.24 26.9-18.83 10.34-7.82 20.56-16 30.57-24.24a432.27 432.27 0 0 1-24.1 45.55c-7.22 13.36-14.8 26.53-24.56 38.31-6.45 7.83-13.75 15.22-22.4 20.6Z"/><path class="uuid-ad56ae0d-1a1d-47bc-ac0d-80a133ea9bb8" d="M1 999.8c.37-3.26.2-8.26.3-11.6C1.34 931.36.28 870.88.04 814.15l-.03-5.7c7 19.03 12.34 38.7 15.64 58.7 3.33 17.97 3.85 36.48 7.65 54.29 2.93 12.74 9.34 18.67 22.58 18.71 6.47.22 13.17-.77 17.36-6.2 9.67-12.77 5.3-37.09 1.61-51.75l-3.65-13.77c15.98 27.35 32.48 55.18 52.91 79.42 4.31 4.88 8.97 9.97 14.44 13.4 1.65.95 3.18 1.7 4.89 1.75 2.45-.04 5.38-.44 7.37-1.76 9.38-6.78-7.19-30.66-12.29-37.53l-9.72-13c17.36 13.12 35.45 26.65 54.12 37.74 4.74 2.8 9.55 5.48 14.48 7.71 4.61 1.93 9.39 4.3 14.32 2.67 9.98-3.5 17.92-11.79 25.25-19.25 7.25-7.34 17.42-21.12 23.96-29.24l-8.75 19.55c-4.05 9.43-10.91 27.43-5.48 36.86 1.7 2.84 5.46 4.02 8.9 3.99 8.33.06 11.64-11.83 13.51-18.55 3.19-13.03 4.06-26.71 4.51-40.16.73-19.61-.75-41.2-2.05-60.84 7.53 22.48 15.97 46.08 26.07 67.47 5.58 11.7 11.5 23.34 19.42 33.54 3.77 4.46 7.91 9.56 13.68 10.3 1.86.04 4.41.02 6.34-.06 15.54-.54 38.1-4.06 29.4-25.08-6.36-15.3-19.34-27.5-31.26-38.65 18.11 7.78 51.34 21.81 69.25 29.84 4.74 2.08 14.7 6.5 19.43 8.67-11.02-3.92-28.76-10.65-39.9-14.79l-39.69-15.3 2.2-3.47c10.57 10.11 23.44 24.05 26.3 38.76 2.59 14.6-9.67 21.5-22.11 23.66a105.37 105.37 0 0 1-20.25 1.54c-5.3-.39-9.36-3.62-12.9-7.03-4.83-4.8-8.7-10.47-12.25-16.2-9.21-15.17-16.35-31.35-23.02-47.72a539.2 539.2 0 0 1-9.3-24.76l5.26-1.06c.9 13.8 1.19 27.53.84 41.34-.68 16.47-1.75 49.55-14.7 60.84-4.8 4.14-12.1 3.92-17.57 1.02-5.6-3-7.55-9.79-7.47-15.66.2-10.84 3.78-20.94 8.06-30.75l4.48 2.74a185.42 185.42 0 0 1-11.12 12.8c-3.9 4.07-7.99 8-12.44 11.6-4.62 3.65-9.38 7.07-15.2 8.84-5.98 2.02-12.4-.57-17.75-2.98-10.29-4.78-19.72-10.83-29.12-17.04a571.63 571.63 0 0 1-27.3-19.46l3.25-3.26c2.12 2.83 4.02 5.67 5.87 8.62 7.9 12.3 19.65 37.23-4.66 37.73-8.51-.47-17.07-10.77-22.44-16.67-17.65-21.07-32-44.34-45.94-67.92l3.54-1.48c4.9 19.8 10.88 61.4-19.23 61.98-24.62 1.26-28.59-13.84-31.1-34.73-1.6-13.64-2.75-27.33-4.97-40.87A313.8 313.8 0 0 0 .08 814.46l1.87-.32c-.12 30.94-.06 61.89-.08 92.83-.05 26.34 0 54.81-.42 81.23-.06 3.28-.14 8.34-.46 11.6ZM1681 1000.5c-1.4-52.59-.54-132.35-.89-185.65l1.73.25c-4.85 17-8.4 34.34-10.75 51.84-2.56 17.59-3.07 35.24-5.65 52.87-2.28 14.68-7.59 24.78-24.17 23.92-26.47-.24-20-44.6-16.53-61.74l3.31 1.15a745.86 745.86 0 0 1-17.59 34.26c-6.2 11.25-12.62 22.4-20.06 32.99-3.9 5.36-7.7 10.63-13.06 14.8-1.54 1.14-3.59 2.38-5.9 2.55-3.56.04-7.22-.73-9.8-3.51-3.83-4.29-3-10.7-1.88-15.6 2.47-9.6 7.01-18.33 12.1-26.76l3.21 2.7c-14.89 13.22-29.78 26.6-47.1 36.64-9.2 5.2-14.41 4.82-22.76-1.75-9.8-8.06-17.36-18.24-24.41-28.69l4.26-2.17c4.45 12.3 14.8 44.58-5.01 47.88-17.55 2.96-19.63-32.7-20.84-44.47-1.47-20.13-1.25-40.26-.22-60.4l4.8.92c-6.46 18.4-14.06 36.33-23.63 53.33-7.89 13.47-18.74 31.6-33.84 37.45a17.6 17.6 0 0 1-7.22.94c16.92-.5 30.71-26.68 37.87-40.1 11.25-22.21 20.16-46.5 27.9-70.18-1.48 25.6-2.69 52.1-.68 77.65.76 8.36 3.15 40.6 14.18 40.06 3.05-.07 5.66-1.5 6.93-4.3 5.98-15.04-7.16-42.43-12.23-57.26 8.73 13.12 18.61 29.85 29.74 40.93 3.93 3.75 9.53 9.5 15.22 9.24 2.72-.4 5.23-1.67 7.81-3.02 4.2-2.27 8.26-5 12.23-7.82 15.79-11.32 30.9-24.99 45.29-38.08-5.49 8.87-12.77 19.85-16.67 29.45-2.41 6.07-7.99 20 1 22.62 1.22.3 2.63.54 3.9.4a9.1 9.1 0 0 0 3.47-1.74c4.79-3.7 8.66-8.95 12.26-13.9 14.5-20.88 26.29-43.78 37.55-66.57l6.52-13.44c-3.9 17.23-8.34 35.85-6.17 53.56.98 8.48 4.79 18.64 14.56 19.12 16.06 1.47 20.71-6.96 23.11-21.49 2.61-17.4 3.34-35.27 6.02-52.74 2.5-17.58 6.23-35 11.24-52.03l1.77-6-.05 6.24c-.09 53.6-1.63 132.79-.88 185.65Z"/><path class="uuid-ad56ae0d-1a1d-47bc-ac0d-80a133ea9bb8" d="M894.4 733.82c-26.02-1-37.37-26.66-72.75-26.3l-1.3-.02a31.5 31.5 0 0 1-4.15-.25c-16.1-2.17-16.38-21.16-31.68-26.15-4.61-1.67-9.87-2.07-14.82-1.93-11.87.68-16.32-9.86-18.01-19.64-.67-3.56-1.1-7.09-1.58-10.54-.7-4.64-1.13-9.9-3.82-13.44-.9-.93-1.47-.9-2.77-.96-8.74.13-14.66-6.44-18.38-13.55-3.27-5.96-5.96-12.4-10.55-17.16-4.79-4.97-10.4-5.82-16.99-5.7-7.76-.24-16.48-1.39-22.04-7.49-5.46-5.63-4.91-15-6.1-21.68-.96-6.25-6.86-6.64-12.5-6.4-6.41.26-11.6 2.66-16.22 7.35-5.82 5.99-11.63 10.68-20.79 10.73-2.4.02-4.68-.18-6.97-.53l-.27-.03-1.06-.1c-1.89-.23-3.98.05-5.64.74-8.25 4.05-10.13 20.7-13.43 29.63a52.53 52.53 0 0 1-4.6 10.56c-3.45 5.79-8.87 10.06-15.66 10.91-5.55.81-10.95-.8-16.45-.7-12.4-.29-20.62 3.87-27.94 13.8-5.04 6.66-10.66 12-19.84 9.91-19.08-3.92-23.98-24.72-36.8-26.9.1.02.3-.08.17-.01-1.8 1.52-2.68 3.97-3.68 6.27a105.85 105.85 0 0 0-3.15 9.55c-1.93 6.64-3.6 13.5-5.95 20.46-2.53 7.06-6.32 17.93-15.88 17.97-1.12-.03-1.66.17-2.93 1.21-3.2 2.94-5.13 7.2-6.94 11.43-3.04 7.42-5.16 15.57-6.73 23.42-3.62-.23-8.25-.63-11.27 1.17-8.56 4.98-9.89 18.81-13.78 27.55-1.89 4.8-5.73 10.13-11.53 10.5-1.22.12-2.6.09-3.82.2-9.08.46-16.37 5.9-22.6 12.4-2.7 2.61-5.07 5.23-8.69 7.23-4.17 2.33-9.34 2.08-13.8.22-4.17-1.72-7.4-5.48-9.18-9.36-3.16-6.84-3.72-13.8-4.64-20.83-.65-4.4-.89-9.01-2.75-12.65-.36-.55-.5-.82-.93-.99a.97.97 0 0 0-.28-.05l-1.15-.06c-.52-.04-1.04-.06-1.57-.11l-1.6-.28c-19.94-3.84-16.77-34.4-36.99-36.63-2.32-.27-4.78-.2-7.2-.34-5.5-.43-11.31-1.26-16.32-4.32-15.15-9.11-5.18-28.39-14.72-31.2-4.78-1.39-11.86-.96-16.58 1.15-5.9 2.57-9.36 7.96-15.13 11.8-5.78 4-13.34 4.34-20.04 3.14-6.62-1.1-10.65 1.62-13.67 7.78-6.38 12.69-6.4 31.33-19.02 40.12a19.68 19.68 0 0 1-11.17 3.11c-.48.02-.95.02-1.4-.04l-2.76-.27-2.38-.31c-3.15-.4-6.32-.62-9.48-.51-9.41 0-18.21 3.78-24.24 11.14-4.44 5-9.3 12.97-17.26 12.25-3.68-.23-7.26-1.58-10.43-3.39a37.62 37.62 0 0 1-8.18-6.64c-6.92-6.89-11.32-16.13-21.16-17.96-2.82-.2-4.36 2.93-5.62 5.16a66.49 66.49 0 0 0-3.58 9.01c-3.15 9.48-5.3 19.18-9.2 28.48-1.4 3.14-2.93 6.3-5.57 8.67a7.08 7.08 0 0 1-5.16 1.86c-1.45-.1-2.92.4-4.21 1.24-5.27 3.85-7.94 10.35-10.4 16.22a135.03 135.03 0 0 0-5.74 19c2.2-10.7 6.38-29.48 15.32-36.43a8.38 8.38 0 0 1 5.11-1.67 5.3 5.3 0 0 0 3.9-1.56c2.2-2.1 3.6-5.15 4.82-8.13 3.54-9.19 5.41-19.09 8.26-28.58 1.84-5.49 4.66-17.04 12.14-16.81 3.82.4 7.18 1.97 10.06 4.1 9.72 7.43 15.72 20.8 28.81 22.57 6.01 1.1 9.4-5.3 14.13-10.8a39.99 39.99 0 0 1 7.76-7.24c9.6-6.8 21.93-7.13 33.16-5.68 9.3 1.2 14.35-3.17 17.75-11.53 5.7-12.76 6.04-36.06 22.33-40.23 3.76-.96 7.37-.34 11.07.08 4.17.39 8.36-.12 11.82-2.55 5.07-3.61 9.79-10.08 16.08-12.64 7.85-3.54 21.62-4.7 28.31 1.7 8.3 7.9 1.48 22.77 10.77 28.21 6.31 3.47 12.46 2.69 20.03 3.26 3.82.4 7.78 1.64 11.22 3.77 9.3 5.6 13.44 17.7 18.27 25.63 1.57 2.52 3.31 4.57 5.23 5.71 1.79 1.2 4.09 1.4 6.2 1.44 3.56.09 7.05 2.6 8.67 5.58 2.88 5.18 3.33 10.88 4.11 16.22.83 6.04 1.43 12.59 3.87 17.88 1.5 3.43 4.4 5.55 8.16 5.3 1.8-.27 2.98-1.44 4.6-2.82 9.48-9.5 17.72-17.52 32.06-18.57 1.27-.13 2.56-.1 3.82-.19.07-.06.16-.07.25-.08.08-.1.16-.08.26-.15.24-.17.52-.46.75-.71 3.45-5.12 4.37-11.57 6.65-17.51 2.4-7.01 6.43-14.96 13.5-18.61a23.55 23.55 0 0 1 12.2-2.57l-5.12 3.99c2.73-11.72 6.93-27.84 16.06-36.23 2.18-2.04 6.16-3.87 9.68-3.58.9-.29 1.6-1.28 2.5-2.64 7.51-11.89 9.8-43.37 20.92-50.09 4.57-2.86 10.76-.5 14.94 2.02 11.29 6.91 15.98 21.7 29.59 24.04 2.68.44 4.39-.86 6.32-2.9 2.05-2.17 4.2-5.17 6.77-7.97 9.61-11.11 23.44-14 37.53-12.48 8.07 1.1 13.77 1.96 18.72-5.97 7.68-12.4 6.8-34.2 20.65-42.54 3.44-2 7.56-2.59 11.39-2.17l1.56.17.7.09c4.44.75 9.37.76 13.19-1.58 2.42-1.39 4.69-3.7 7.37-6.2 7.18-7.25 16.94-10.23 27.25-9.04 7.2.63 13.08 4.86 14.29 12.44.76 4 .73 7.53 1.17 10.7.6 5.52 3.11 9.35 8.1 11.12 4.53 1.72 9.54 1.97 14.36 2.1 27.67.76 25.15 30.49 39.07 36.74 1.3.47 2.7.79 4.2.82.25.04 1.03.02 1.62.13a8.44 8.44 0 0 1 5.07 2.71c4 4.8 4.04 10.99 4.93 16.51.9 6.68 1.23 13.78 3.95 19.83 1.9 4.48 5.68 6.89 10.4 6.68l2.72.04c13.38.42 22.57 5.3 29.7 17.2 4.6 7.41 8.87 12.72 18.31 12.72a69.88 69.88 0 0 1 36.7 10.84c11.89 7.28 22.78 17.44 37.35 18.18ZM1681 479.64c-1.54-19.8-22.25-45.5-42.56-48.03-6.66-1.07-12.44-5.53-15.82-11.27-4.38-6.53-6.24-15.9-12.98-20-6.96-3.5-15.24-1.7-21.48 2.65-7.13 4.7-12.38 11.75-20.95 14.88-9.64 3.39-14.52-.92-17.77-9.47-2.99-7.3-4.25-15.85-9.59-21.57-2.37-2.48-5.7-3-8.94-2.6-5.48.49-9.53 3.76-12.61 8.48-2.09 3.16-3.73 6.8-5.3 10.6-3.3 7.26-6.08 19.5-15.74 21.13-.4.06-.81.08-1.22.1l-.8.03c-7.7.13-14.45 3.1-20.17 8.24-7.14 6.04-12.88 16.27-24.38 13.09-10.75-2.42-14.14-14.83-15.43-23.97-.67-4.28-1.1-8.47-1.79-12.34-.44-2.61-1-5.1-2.18-7.13-.3-.45-.54-.61-.63-.68-.12-.03-.18-.07-.56-.08-4.1.06-8.39-1.16-11.72-3.64-4.14-3.03-6.82-7.24-9.11-11.46-5.16-9.62-9.42-21.28-21.75-21.48-12.35.15-27.21-1.93-31.32-15.64-2.02-5.7-.95-12.39-3.1-17.5-1.71-3.23-8.15-2.8-11.52-2.54-11.54.74-14.89 10.59-24.51 15.33-9.1 4.34-20.4 2.58-29.37-1.31-3.62-1.63-7.47-4.94-9.39-8.73-3.27-5.58-2.2-12.97-8.42-15.9-4.91-2.57-11.16-2.86-16.62-3.97-13.35-2.61-26.34-7.98-26.34-23.8a10.9 10.9 0 0 0-.43-3.1 5.43 5.43 0 0 0-1.74-.65c-2.68-.57-5.38-.68-7.82.83-3.14 1.95-6.07 5.18-9.62 7.5a29.89 29.89 0 0 1-14.6 4.97 53 53 0 0 1-10.34-.42c-8.54-1.03-13.36 6.85-20.13 11.7-3.12 2.36-7.72 4.28-11.94 4.35-2.94 0-5.9-.24-8.8.24-16.2 2.2-27.56 17.5-32.74 32.19-6.84-.45-11.54-.67-15.64 5.92-3.1 5.04-4.68 11.24-6.64 17.2-1.67 4.82-3.38 10.05-7.74 13.58a12.27 12.27 0 0 1-6.47 2.57c-1.26.09-2.54.04-3.79.16-8.89.47-15.92 5.8-22.06 12.17-2.76 2.68-5.2 5.29-8.95 7.36-4.4 2.43-9.86 2.12-14.54.13-4.32-1.83-7.66-5.77-9.49-9.8-3.2-6.99-3.68-13.97-4.63-21.08-.4-3.25-.8-6.44-1.48-9.13-.46-1.62-.83-2.9-1.62-3.78l-.05-.04c0-.02-.03-.01-.05-.02-.03-.02-.13 0-.18-.02a22.65 22.65 0 0 1-4.47-.46c-20.3-4.12-17.07-34.6-36.89-36.67-7.22-.37-14.08-.23-21.05-3.37-5.95-2.41-10.6-8.4-11.63-14.71-1.11-4.5-.68-10.64-1.89-14.27-.76-2.17-1.6-2.91-3.76-3.68-4.6-1.3-11.67-.88-16.23 1.22-5.82 2.64-9.27 8-15.13 11.81-4.93 3.32-11.35 4.2-17.11 3.5-7.55-1.38-12.3-1.1-16.36 7.24-8.09 17.26-8.03 46.78-34.97 42.86-9.94-1.48-20.56-1.49-28.97 4.24a36.04 36.04 0 0 0-6.78 6.18c-3.34 3.66-6.49 8.77-11.55 11.06-3.73 1.74-7.96 1.06-11.64-.25-5.08-1.76-9.57-5.29-13.1-9.1-6.84-6.87-11.15-15.89-20.83-17.69l-.35-.03c-.87-.04-1.87.55-2.8 1.61a18.07 18.07 0 0 0-2.43 3.78c-2.81 5.79-4.6 12.27-6.46 18.5-2.64 7.65-7.22 30.45-17.39 29.18-11.09.53-18.1 28.4-20.16 36.85a138.5 138.5 0 0 1 5.05-19.28c2.54-6.84 7.21-19.83 16.28-19.33 7.61-1 11.38-21.45 13.4-28.2 2.16-7.3 4.66-21.56 11.15-26a6.56 6.56 0 0 1 4.93-.84 20.5 20.5 0 0 1 8.78 3.77c8.02 5.89 12.87 15.24 21.48 20.12 4.99 2.64 10.83 4.46 15.03-.43 4.4-4.73 8.17-11.04 13.92-14.89 8.8-6.4 20.55-7.36 30.82-6.25 2.92.31 6.06.84 8.92.24 9.15-1.82 11.78-12.1 14.2-20.02 2.44-8.26 4-17.16 9.13-24.52a18.33 18.33 0 0 1 16.42-7.8c3.09.2 6.32.96 9.38.64 2.75-.2 5.1-.97 7.29-2.43 2.21-1.45 4.33-3.67 6.86-6.1 5.18-5.33 12.81-9.06 20.38-9.42 12.38-1.1 21.64 2.96 22.81 16.27 1.04 12.62 1.63 17.48 15.5 18.95 3.21.38 6.7.12 9.96.45 18.12 1.86 22.86 16.96 30.13 29.66 2.7 4.48 5.78 7.11 10.73 6.89 6.65.12 10.53 6.3 11.8 11.83 1.71 6.92 2 13.42 3.25 20.04 1.13 5.88 3.05 13.7 10.15 12.97 2.68-.96 4.87-3.72 7.13-5.84a79.71 79.71 0 0 1 7.9-7.2 39.82 39.82 0 0 1 24.97-8.55c.42-.1.6-.39 1-.87 1.43-1.92 2.34-4.88 3.2-7.39 4.58-15.5 10.15-32.19 29.7-31.4l-5.8 3.85.38-.94a67.49 67.49 0 0 1 14.83-22.08c8.45-8.42 20.42-13.72 32.5-13.34l1.79.06c4.38.29 7.38-2.77 10.65-5.73 7.73-7.56 15.17-11.87 27.06-9.96 7.78.79 12.59-.85 18.55-6.32 3.52-3.22 8.88-6.83 14.2-7.1 4.42-.27 8.43.18 12.54 2.23 4.87 2.39 6.83 7.84 6.83 12.94.02 5.34 1.57 7.64 6.25 9.81 6.94 3.39 15.78 3.66 23.38 5.67 8.05 2.02 15.2 7.08 17.6 15.43.76 2.37 1.2 4.4 1.75 5.98 1.38 4.75 5.32 6.35 9.85 7.49 4.79 1.1 10.13 1.93 14.62-.18 2.62-1.17 5.11-3.73 8.42-6.82 5.14-5.13 12.6-8.81 19.94-9.29 7.97-.79 18.1.31 22.22 8.45 3.38 6.47 1.88 13.09 3.7 19.4 2.22 7.62 11.63 8 18.36 8.35 19.38-.32 25.99 11.96 33.3 27.23 1.83 3.5 3.81 6.6 6.1 8.28a9.71 9.71 0 0 0 5.95 1.9c3.39-.22 7.63 2.3 9.2 5.22 6.98 9.79 1.26 40.7 16.26 40.4.35 0 .65-.05 1.01-.16 1-.3 2.4-1.25 3.79-2.47 2.81-2.48 5.77-5.74 9.2-8.63 6.78-6.07 16.33-10 25.54-9.83h.76c.33 0 .65-.06.97-.16 1.9-.86 3.06-2.74 4.29-4.9 6.62-13.1 11.3-32.69 29.18-34.04 24.59-2.34 20.15 33.43 30.14 35.93 5.75.29 10.3-3.01 14.93-6.64 3.22-2.55 6.46-5.37 10.2-7.74 9.08-6.27 24.31-7.43 31.2 2.65 5.96 8.34 7.13 20.16 16.67 25.3 3.56 2.1 7.9 2.22 11.73 3.73 18.1 6.48 35.08 30.3 35.82 48.91Z"/><path stroke="#155b2c" stroke-miterlimit="10" fill="none" d="M1680.99 576.76V.5H.99v813.65"/></g><g id="uuid-a2a50a63-a1d0-4f8a-90db-dfc4acab7676"><path class="uuid-c806222a-a694-4aa6-b4b5-45940d6d264a" d="M1295 864.26c14.67 17.45 21.8 78.64-60.76 64.83-61.63-10.17-96.52-19.33-108.88-22.82a25.11 25.11 0 0 0-4.8-1.45c-.28-.15-.43-.15-.43-.15-29.07-5.38-103.78-13.52-143.75-34.6-34.74-18.3-89.69-23.1-153.35-19.47 45.93-6.83 80.96-35.47 107.41-72.97 21.95 4.65 138.24 29.8 171.23 55.24 19.92 15.26 71.23 9 103.2 9.74 32.13.72 78.79 8.28 90.12 21.65ZM1010.54 531.7a78.63 78.63 0 0 0-11.2 3.92c-21.8 9.88-47.1 15.55-73.84 15.55-38.37 0-73.26-11.34-100.15-30.38-4.5 13.81-6.1 46.8-18.75 33.58-23.4-24.42-31.54-92.74-34.15-128.2a88.26 88.26 0 0 1 2.76-30.38c.14-.15.14-.3.14-.3 14.68-54.07 78.5-94.33 150.15-94.33 47.24 0 89.54 17.59 117.6 45.2 15.11 14.83 36.34 21.52 57.56 21.8 19.47.3 37.06 3.35 51.45 8.88-2.9 18.16-15.55 47.38 37.36 35.46 10.9 39.83-41.14 88.52-116 108.73a241.87 241.87 0 0 1-48.84 8.28 76.9 76.9 0 0 0-14.1 2.18Z"/><path d="M1189.47 412.5c-52.91 11.92-40.27-17.3-37.36-35.46 19.48 7.55 33 19.62 37.36 35.46Z" fill="#191818" stroke-width="0"/><path class="uuid-c806222a-a694-4aa6-b4b5-45940d6d264a" d="M930.45 777.63c-26.46 37.5-61.49 66.14-107.42 72.97-7.56.3-15.41.87-23.26 1.6 8 .14 15.7-.44 23.26-1.6 63.66-3.63 118.6 1.16 153.35 19.48 39.97 21.07 114.68 29.21 143.75 34.6 0 0 .15 0 .44.14.73.14 2.33.72 4.8 1.45 33.86 12.8 116.28 90.12-1.17 81.84-124.13-8.87-191.14-35.33-250.15-28.5-41.14 4.8-155.53 11.78-222.83-20.34-34.45-8.43-58.72-21.66-73.55-31.98-4.5-6.1-10.75-10.9-18.17-14.97 0 0 5.82 6.54 18.17 14.97 5.09 6.54 8 14.39 8.29 23.84 1.45 57.41-106.11 24.56-154.95 14.68-47.68-9.6-187.94 7.12-177.77-62.07-18.32 27.47-50.3 47.39-104.51 48.4C-11.6 934.91 16.75 858.16 17.62 817.9c1.3-65.7 10.32-222.69 169.92-287.95 159.6-65.12 353.5-24.42 454.09-39.83C738.87 475 773.16 400.44 775.2 395.8a88.29 88.29 0 0 0-2.77 30.38c2.62 35.46 10.76 103.78 34.16 128.2 12.65 13.23 14.25-19.77 18.75-33.58 26.9 19.04 61.78 30.38 100.15 30.38 26.75 0 52.04-5.67 73.84-15.55 3.64-1.6 7.42-2.9 11.2-3.93-1.75 17.15-17.01 156.7-80.1 245.94ZM519.82 879.38c-23.98-60.61-67.16-41.13-110.47-38.08-22.97 1.6-20.79-9.74-40.12-22.53-7.12 21.8 16.43 51.3 58.72 53.05 25.44 1.02 61.05 1.6 91.87 7.56Z"/><path class="uuid-c806222a-a694-4aa6-b4b5-45940d6d264a" d="M577.67 907.29c-12.36-8.43-18.17-14.97-18.17-14.97 7.41 4.07 13.66 8.86 18.17 14.97ZM409.35 841.3c43.31-3.05 86.48-22.53 110.47 38.08-30.82-5.96-66.43-6.54-91.87-7.56-42.3-1.74-65.84-31.25-58.72-53.05 19.33 12.79 17.15 24.13 40.12 22.53Z"/><path class="uuid-591c5831-13b7-4847-991b-0a3fe0911a2f" d="M1073.42 521.27a247.1 247.1 0 0 1-47.6 8.26c-8.03.46-16.03 2-23.52 5-46.37 21.63-101.93 22.68-149.03 2.58a163.27 163.27 0 0 1-28.28-15.67l1.12-.36c-1.36 4.25-2.2 8.73-3.1 13.18-2.94 14.36-6.84 37.1-22.1 14.6-20.42-29.65-28.24-92.65-30.26-128.93-.56-48.89 38.74-88.19 81.6-105.74 50.63-21.17 111.25-19.55 159.42 7.37a154.82 154.82 0 0 1 32.88 24.67c12.96 12.58 30.81 19.1 48.63 20.7l3.37.25 3.38.13c11.4.22 22.82 1.27 33.98 3.7 31.5 6.35 65.05 27.45 55.62 64.22-12.85 44.9-73.97 75.07-116.11 86.04Zm0 0c34.8-9.7 69.02-25.67 94.62-51.69 9.36-9.76 17.48-21.27 20.98-34.47 8.99-36.35-24.22-56.75-55.39-62.76-11.09-2.31-22.41-3.26-33.73-3.37l-3.44-.1-3.43-.23c-18.25-1.47-36.6-8.03-50.01-20.82-1.7-1.57-5.8-5.41-7.55-6.82-11.12-9.48-23.84-17.22-37.16-23.22-45.44-20-99.12-19.9-144.76-.55-41.7 17.25-80.33 54.96-79.94 102.67.15 3.14.22 6.97.55 10.1 2.77 31.52 6.6 63.35 16.72 93.44 3.76 10.58 8.27 21.12 15.74 29.56 1.27 1.45 3 3.23 4.9 3.51 6.07.58 8.7-17.81 9.93-22.58.96-4.45 1.83-8.92 3.27-13.33l.3-.93a162.48 162.48 0 0 0 28.72 16.35c46.75 20.53 102.17 19.74 148.47-1.74a75.15 75.15 0 0 1 23.6-4.92 247.11 247.11 0 0 0 47.6-8.1Z"/><path class="uuid-591c5831-13b7-4847-991b-0a3fe0911a2f" d="M775.37 395.44c-20.71 43.33-61.47 75.62-107.2 89.25-18.34 5.5-37.54 7.94-56.6 9.06-47.76 2.47-95.57-.45-143.33-1-94.84-1.46-192.52 2.75-281.32 39.14C80.56 575.61 30.66 666.75 21.28 777.85c-1.32 14.19-1.75 28.6-2.16 42.86-.78 14.24-3.08 28.53-2.08 42.71 2.28 44.71 40.46 59.24 79.22 64.55 4.6.57 9.53 1.15 14.17 1.52 9.36.7 19.15 1.16 28.5 1.12 69.98 1.7 120.62-27.16 132.4-99.67 6.2-39.13 1.06-79.32-8.4-117.55-3.34-11.78-19.4-17.21-30.51-15.24-6.88 1.04-12.74 5.94-14.24 12.84-.83 3.4-.71 6.9-.49 10.43.16 3.6.15 7.2.06 10.8-1.59 36.88-8.22 78.47-27.1 110.64-7.42 12.16-18.35 23.55-32.82 26.41-14.18 1.97-28.88 1.88-42.87-1.43C103.5 865.08 91.67 858 89 845.7c-1.7-7.03-.46-14.4 1.78-21.17-2.57 7.87-3.64 16.66-.53 24.53 3.58 9.04 12.4 14.67 21.4 17.34 10.27 3.15 21.14 3.67 31.82 3.37 4.73-.25 9.56-.34 14.2-1.27a38.67 38.67 0 0 0 13.01-5.4c35.97-23.63 46.98-104.7 45.02-145.19-.89-18.43 15-25.35 31-20.82 8.17 2.35 16.63 7.83 18.5 16.68 5.01 19.72 8.65 39.83 10.3 60.14 1.92 23.84 1.32 48.25-4.5 71.6-14.36 59.01-59.2 86.07-117.68 87.93-11.98.4-24 .26-35.96-.42l-7.18-.48-1.8-.12-1.79-.2-3.58-.38c-42.12-4.35-86.57-18.86-89.19-68.19-1.03-14.5 1.26-28.75 2.02-43.08.4-14.27.81-28.78 2.12-43 9.35-112.14 60.53-204.57 167.82-248.43 89.19-36.53 187.34-40.37 282.5-38.5 47.73.76 95.49 3.78 143.2 1.67 18.99-1 38.1-3.3 56.4-8.64 45.64-13.3 86.45-45.24 107.49-88.22ZM1010.67 530c-9.63 106.88-52.8 285.44-170.78 317.73-2.41.75-7.24 1.65-9.68 2.22l-6.55 1.04a151.53 151.53 0 0 1-26.37 1.2c10.92 0 22.02-1.07 32.7-3.3 1.41-.32 6.73-1.68 7.97-1.99 2.44-.8 5.41-1.62 7.82-2.48C955.54 806.31 997.45 633.5 1010.68 530Z"/><path class="uuid-591c5831-13b7-4847-991b-0a3fe0911a2f" d="M794.12 852.7c50-4.47 101.3-6.94 150.52 4.76 8.4 2.06 16.77 4.9 24.74 8.25 1.7.76 8.92 4.26 10.7 5.08 42.98 19.51 91.1 24.1 137.22 31.96 9.59 1.23 18.27 6.48 26.2 11.63 5.29 3.53 10.34 7.4 15.15 11.54 11.92 10.41 33.22 31.52 26.84 48.57-10.22 23.65-69.63 14.11-91.1 12.62-50.2-4.54-99.8-14.34-149.46-22.39-16.97-2.5-34.28-4.69-51.44-4.6l-8.2.13c-.91.1-4.86.36-5.82.46-72.28 7.5-211.44 12.41-263.1-45.48a69 69 0 0 1-16.82-38.85c-.68-10.95-1.2-22-3.69-32.73-2.74-12.23-7.51-23.93-12.79-35.33-10.67-22.8-21.8-45.41-31.92-68.47 10.45 22.93 21.85 45.37 32.73 68.09 5.4 11.37 10.32 23.09 13.23 35.43 2.6 10.77 3.24 21.83 4.03 32.84a67.63 67.63 0 0 0 16.66 37.77c51.34 56.72 189.95 51.08 261.41 43.65 1.71-.1 5.49-.53 7.13-.5 3.69-.04 8.23-.24 11.9-.12 28.43.68 56.54 5.97 84.47 10.7 43.36 7.59 86.88 14.48 130.79 17.9 17.63 1.46 74.19 7.33 69.93-20.72-3.64-18.43-26.43-37.84-41.53-48.11-6.47-4.23-13.15-8.3-20.55-10.43-4.5-.98-9.24-1.67-13.82-2.46-46.3-7.78-94.5-13.71-136.77-35.5-49.59-22.65-122.79-19.88-176.63-15.7Z"/><path class="uuid-591c5831-13b7-4847-991b-0a3fe0911a2f" d="M930.02 778.24c38 7.28 75.8 15.95 112.77 27.47 19.2 6.21 38.65 12.67 55.96 23.35l4.02 2.84c8.38 6 18.9 7.64 29 8.83 19.2 1.9 38.47.75 57.78.35 25.92-.73 51.98 1.69 77.15 8.1 9.42 2.65 19.23 5.48 27.05 11.77 11.4 10.53 14.72 32.74 9.06 46.85-10.72 27.15-45.23 26.56-69.42 22.3a1222.53 1222.53 0 0 1-75.87-15.33c-12.54-2.99-25.05-6.18-37.34-10.11 12.38 3.6 24.96 6.47 37.54 9.24 25.2 5.44 50.58 9.96 76.02 14.09 23.07 3.67 56.12 4.49 66.35-21.24 4.4-11.68 2.7-25.25-2.9-36.25-2.78-5.8-7.57-9.42-13.33-12-17.5-7.74-36.88-10.52-55.82-12.68a288.36 288.36 0 0 0-38.42-1.52c-19.32.32-38.84 1.4-58.17-.6-11.29-1.27-23.2-3.58-32.34-10.9-6.47-4.6-13.64-8.17-20.9-11.48-47.45-20.08-98.07-31.67-148.19-43.08ZM429.51 584.25c18.07 51.53 9.67 148.43-18.99 195.35-5.75 9.21-13.25 17.93-23.34 22.54l-3.1 1.56-2.93 1.82c-7.16 4.88-11.87 12.66-11.74 21.4.39 15.97 13.08 28.73 26.72 35.55 8.37 4.2 17.56 6.53 26.87 7.48 4.64.37 9.43.5 14.19.67 23.73.8 47.97 1.66 71.48 5.1 24.88 3.98 55.43 10.32 71.23 31.78 9.62 13.57 11.56 36.47-2.15 48.02-26.19 21.76-95.3 2.87-126.75-3.96-8.27-1.83-19.62-4.75-27.89-5.85-28.34-3.58-57.05-3.63-85.5-6.8-18.94-2.16-38.1-4.92-55.93-11.99-19.38-7.7-33.25-21.42-28.16-43.71-4.62 22.1 9.12 35.46 28.49 42.88 17.8 6.79 36.9 9.27 55.78 11.17 28.46 2.91 57.18 2.75 85.65 6.1 8.29 1.17 19.87 3.81 28.14 5.67 29.32 5.75 119.44 31.27 131.4-6.95 2.5-8.68 1.47-18.56-2.29-26.79-15.29-31.52-69.44-36.57-100.82-39.41-13.67-1.08-29-1.65-42.8-2.16-4.76-.18-9.5-.32-14.37-.72-9.66-1-19.21-3.47-27.92-7.86-14.46-7.24-27.95-21.12-28.23-38.2-.13-9.68 5.18-18.34 13.1-23.63l3.15-1.92 3.3-1.64c9.64-4.31 16.83-12.62 22.43-21.4 28.61-46.13 37.97-142.73 20.98-194.1Z"/><path class="uuid-591c5831-13b7-4847-991b-0a3fe0911a2f" d="M368.95 819.88c3.2 1.8 6.53 3.83 9.41 6.12 2.99 2.28 5.74 4.9 8.43 7.46 2 1.9 3.96 3.73 6.42 4.87 4.04 1.95 8.62 1.97 13.15 1.8a230.8 230.8 0 0 0 22.06-2.65c18.39-2.66 37.96-7.06 56.12-.61 16.64 5.73 27.03 21.27 33.03 37.07l1.86 5.3c-4.47-10.2-9.78-20.15-17.65-28.05-25.56-26.18-63.66-8.62-95.34-8.44-4.25.04-8.76-.18-12.85-1.9-3.11-1.37-5.73-3.78-7.97-6.23a84.48 84.48 0 0 0-16.67-14.74ZM825.41 520.84c9.74-34.36 88.35-53.34 81.28-111.77-.78-6.85-2.72-13.54-5.1-20a77.26 77.26 0 0 1 6.74 19.75c7.15 38.84-26.59 63.12-54.37 82.96-10.42 7.98-23.71 16.39-28.55 29.06ZM1152.15 377.07c-1.5 19.85-8.82 37.19 19.23 36.82 5.95-.02 11.97-.73 18.03-1.34a74.54 74.54 0 0 1-20.23 4.15c-9.06.43-19.39-2.06-21.46-12.33-1.72-9.43 2-18.48 4.43-27.3Z"/><path d="M1010.67 410.42c0 11.93-10.47 21.6-23.4 21.6s-23.4-21.6-23.4-21.6 10.48-21.6 23.4-21.6 23.4 9.67 23.4 21.6Z" fill="url(#uuid-54837d5d-815d-48ff-846c-28a5204f6fb5)" stroke-width="0"/><path class="uuid-591c5831-13b7-4847-991b-0a3fe0911a2f" d="M1010.67 410.42c.24 13.37-13.82 24.15-26.73 21.74-9.83-2.82-16.37-12.75-21-21.29l-.23-.45.23-.45c4.63-8.54 11.16-18.47 21-21.3 12.91-2.4 26.97 8.39 26.73 21.75Zm0 0c.12-11.91-10.9-21.09-22.35-21.08-8.74-.18-14.71 7.76-19.27 14.27a67.4 67.4 0 0 0-4.25 7.26v-.9a66.72 66.72 0 0 0 4.25 7.27c4.55 6.51 10.53 14.45 19.27 14.27 11.45 0 22.47-9.17 22.35-21.09Z"/><ellipse class="uuid-591c5831-13b7-4847-991b-0a3fe0911a2f" cx="1000.52" cy="410.67" rx="9.51" ry="13.46"/><ellipse cx="991.96" cy="404.85" rx="2.1" ry="4" transform="rotate(-60 991.96 404.85)" fill="#f6f2f0" stroke-width="0"/></g><g id="uuid-0b5409a8-1939-4e73-9afb-ea3cb1ad353f"><path class="uuid-25744f58-0588-4488-b9a6-5eac70d9dcb6" d="m1 999.79 372.45.16c4.1-3.69 27.63-26.02 40.44-62.73l-78.8-32.02s66.17 60.24-14.03 59.88c-23.75-.11-55.53-94.03-55.53-94.03s7.53 102.41-19.63 102.41c-26.9 0-6.52-43.85-6.13-44.68-.62.8-25.8 33.12-41.57 33.12s-66.99-38.95-67.84-39.59c.68.9 32.2 42.31 3.2 42.81-18.58.32-66.1-82.14-66.85-83.42.35 1.28 15.8 57.8-15.75 59.84C5 944.51 31.02 900.26 1 814.15c0 56.77 1.13 179 0 185.64Z"/><path class="uuid-25744f58-0588-4488-b9a6-5eac70d9dcb6" d="m373.45 999.95 494.2.21c17.36-14.27 32.68-38.86 44.44-57.92a415.83 415.83 0 0 0 22.37-41.26c-.9.74-62.68 51.45-67.58 44.32-6.2-9 59.48-171.06 59.48-171.06s-58.07 76.78-84.39 95.09c-4.12 2.86-7.46 4.3-9.68 3.78-20.05-4.73-10.04-105.89-10.04-105.89s-41.13 113.54-59.7 115.09c-18.52 1.55-48.2-67.46-48.2-67.46s15.45 77.97-9.65 81.39c-24.74 3.37-15.1-46.48-14.84-47.88-.72 1.51-28.5 59.32-46.08 59.32-27.65 0-31.66-35.52-31.66-35.52-3.02 23.98-36.19 68.73-46.6 70.08-10.29 1.34 2.2-42.98 2.47-43.96-.59.72-22.73 27.83-37.1 27.83-11.18 0-14.1-54.29-14.1-54.29s-10.74 57.92-20.8 57.92c-13.56 0-40.74-28.32-41.16-28.76.4.8 19.43 39.36-.25 40.54-12.23.72-32.37-53.14-32.37-53.14 0 18.27-3.35 34.64-8.32 48.84-12.8 36.71-36.34 59.04-40.44 62.73Z"/><path class="uuid-25744f58-0588-4488-b9a6-5eac70d9dcb6" d="M1266.63 881.35a767.14 767.14 0 0 1-3.05-66.5c-24.92 86.12-3.32 130.36-41.47 127.39-26.18-2.04-13.37-58.55-13.08-59.83-.6 1.28-40.05 83.74-55.48 83.41-24.07-.49 2.1-41.91 2.66-42.81-.85.78-43.18 39.59-56.3 39.59-13.05 0-33.9-32.2-34.49-33.11.32.83 17.24 44.67-5.09 44.67-22.55 0-16.3-102.41-16.3-102.41s-26.37 93.93-46.08 94.04c-66.56.36-11.64-59.89-11.64-59.89l-74.22 36.34c-11.76 19.06-27.08 43.65-44.44 57.92l436.92.18c-22.32-11.87-33.23-67.06-37.94-118.99Z"/><path class="uuid-25744f58-0588-4488-b9a6-5eac70d9dcb6" d="M1266.63 881.35c4.71 51.93 15.62 107.12 37.94 118.99l63.86.03c11.2-9.14 21.56-22.59 30.67-36.12a666.4 666.4 0 0 0 14.03-22.01 416.91 416.91 0 0 0 22.36-41.26c-.9.74-62.68 51.45-67.57 44.32-6.2-9 59.47-171.06 59.47-171.06s-58.07 76.78-84.38 95.09c-4.12 2.86-7.47 4.3-9.68 3.78-20.06-4.73-10.05-105.89-10.05-105.89s-36.94 103.05-56.65 114.13Z"/><path class="uuid-25744f58-0588-4488-b9a6-5eac70d9dcb6" d="m1368.43 1000.37 312.56.13c-.94-6.65 0-128.88 0-185.65-24.92 86.12-3.32 130.36-41.47 127.39-26.18-2.04-13.36-58.55-13.07-59.83-.6 1.28-40.05 83.74-55.48 83.41-24.07-.49 2.1-41.91 2.66-42.81-.85.78-43.19 39.59-56.3 39.59s-33.92-32.2-34.5-33.11c.32.83 17.25 44.67-5.09 44.67-22.54 0-16.29-102.41-16.29-102.41s-31.28 93.87-62.35 92.5c-9.1 13.53-19.47 26.98-30.67 36.12Z"/></g><g id="uuid-4601ad5b-d696-46de-b63e-23311c061778"><path class="uuid-09ca320f-ab02-4727-a35a-8cacb0fc43ef" d="M867.08 1000.3c15.29-13.14 26.47-30.21 37.12-47.15 10.61-17.05 20.6-34.54 29-52.76l2.16 1.67a887.31 887.31 0 0 1-25.85 20.58c-11.05 8.24-22.03 16.89-34.42 23.25-10.64 5.1-11.74-.12-9.65-9.4 3-13.53 7.57-26.63 11.96-39.7 14.46-41.58 30.47-82.55 46.91-123.39l3.82 2.17a1171.46 1171.46 0 0 1-39 48.24c-13.66 15.63-27.1 31.45-43.33 44.6-3.81 2.71-7.92 6.22-12.94 6.23-6.84-1.03-9.12-8.88-10.73-14.53-2.48-10.2-3.02-20.6-3.33-31.01-.4-20.7.72-41.36 2.64-61.96l1.58.36c-9.48 25.42-19.6 50.61-31.24 75.12-6.04 12.16-11.96 24.63-20.82 35.08-3.28 3.72-7.47 7.08-12.67 4.85-17.25-7.17-37.19-49.73-45.24-67.14l2.7-.83c3.33 17.99 5.72 36.24 4.8 54.59-.68 11.73-3.83 30.3-19.3 29.15-15-1.38-15.72-20.59-15.49-32.03.22-6.19.87-12.26 1.98-18.4l4.11 1.38c-4.74 9.8-9.87 19.3-15.56 28.58-6.6 10.33-16.01 25.53-27.31 31-5.54 2.4-12.23.9-17.63-1.38-13.39-6.29-19.55-21.23-21.7-35.03l4.96.03c-.8 5.92-2.74 11.33-4.94 16.56-7.3 16.8-24.68 44.4-39.96 54.42-2.23 1.34-5.47 2.26-7.78.45-6.16-4.78-1.65-23.21-.47-30.03 1.15-5.5 2.47-10.9 3.97-16.34l4.65 2.42c-2.9 3.5-5.86 6.76-9 9.96-7.67 7.47-18.85 18.34-30.12 18.8-9.95-.06-12.58-22.81-13.97-30.29-1.3-8.8-2.15-17.58-2.68-26.46l4.94.32c-2.85 13.37-10.08 50.22-19.7 58.34-10.19 7.52-39.05-20.92-46.17-28.27l3.24-2.27c4.39 9.67 12.25 28 6.94 38.16-2.7 4.99-10.28 6.76-14.54 2.86-4.7-3.84-7.85-9.2-10.82-14.22-6.86-12.17-12.26-25.01-17.21-38.04l2.53-.46a148.15 148.15 0 0 1-3.58 31.48c-7.1 30.78-23.6 59.53-46.94 80.83l-.33-.38c7.7-7.08 14.34-15.29 20.32-23.85a154.56 154.56 0 0 0 27.88-95.11c3.53 9.2 23.98 62.3 35.28 58.17 12.42-3.04.49-30.19-3.12-37.66l-5.37-10.98 8.61 8.7c8.68 8.55 27.58 27 39.69 27.94 3.6-1.36 6.85-11.24 8.24-15.03 6.32-19.02 10.12-40.76 13.8-60.53 1.14 14.22 1.65 31.77 4.03 45.7.86 5.27 3.81 24.21 8.9 25.83 6.39-.41 11.82-4.68 16.86-8.6 9.58-7.75 18.37-18.43 26.15-28-3.89 14.2-8.54 29.48-9.7 44.13-.2 2.76-.31 6.44.82 8.58.67-.03 1.3-.4 2.01-.77 4.28-2.6 8.1-6.8 11.52-10.64 10.56-12.35 19.78-26.28 26.41-41.17 2.13-4.95 3.95-10.08 4.65-15.17l2.54-18.65 2.42 18.68c1.46 9.8 5.28 20.35 12.66 27.16a23.57 23.57 0 0 0 13.13 6.05c2.3.24 4.45.47 6.68-.57 6.8-3.34 11.73-9.83 16.4-15.84 12.53-16.92 22.29-36.74 31.52-55.65l-2.98 15.73c-2.12 11.59-7.03 48.2 12.49 45.55 20.31-3.59 11.18-63.98 8.46-79.18l-2.18-12.16c4.95 11.82 10.54 24.39 16.43 35.72a246.77 246.77 0 0 0 13.5 23.33c3.76 5.52 7.73 11 12.78 15.36 6.37 5.28 10.44 5.65 16.12-.89a78.58 78.58 0 0 0 7.86-10.82c9.4-15.36 16.84-31.9 24.06-48.39 7.96-18.45 15.2-37.26 22.08-56.15l-.55 6.17a603.77 603.77 0 0 0-1.93 30.85c-.43 10.78-2.62 75.86 13.39 73.42 3.43-.99 6.53-3.42 9.37-5.6 7.9-6.37 15.02-13.86 21.99-21.39 24.4-26.89 46.84-55.94 68.73-84.91-22.19 56.09-45.65 112.07-63.42 169.73-1.05 3.9-2.13 7.81-2.66 11.78-.08.63-.14 1.27-.15 1.85-.03.56.06 1.17.1 1.25a.6.6 0 0 0-.21-.22c-.06-.02.03.03.2.03.36.01.92-.08 1.48-.23a23 23 0 0 0 3.53-1.37 81.31 81.31 0 0 0 7.07-3.83c9.3-5.64 18.2-12.09 27-18.6A945.5 945.5 0 0 0 938.39 896l-2.63 5.54a461.64 461.64 0 0 1-47.4 77.34c-6.22 7.94-13.07 15.48-20.95 21.8l-.32-.39Z"/><path class="uuid-ad56ae0d-1a1d-47bc-ac0d-80a133ea9bb8" d="M1304.87 1000.5c-30.5-16.8-37.68-103.7-40.3-136.87a756.46 756.46 0 0 1-1.87-48.78l1.72.25c-7.35 25.5-11.42 51.78-13.6 78.2-.8 8.81-1.4 17.66-2.8 26.5-1.93 12.44-6.28 23.47-20.72 23.91-2.27.1-4.67.05-6.92-.28-19.23-3.56-16.91-33.51-15.26-48.17a154.7 154.7 0 0 1 2.2-13.27l3.32 1.15c-12.92 25.86-25.63 52.13-43.58 75-3.44 3.8-8 9.59-13.8 9.6-3.3-.1-6.65-.93-9.04-3.51-5.73-6.88-1.5-17.78 1.27-24.99a124.24 124.24 0 0 1 8.95-17.37l3.22 2.69a487.17 487.17 0 0 1-22.58 19.4c-7.85 6.23-15.7 12.34-24.53 17.25-4.71 2.62-10.62 5.14-15.96 2.45-9.41-4.5-16-12.85-22.43-20.69-3.1-3.94-6-7.97-8.77-12.2l4.26-2.17c4.03 11.35 9.74 29.37 4.65 40.93-3.71 8.08-15.43 9.83-20.66 2.34-9.6-13.23-10.22-43.62-10.78-60.01-.25-13.44 0-26.82.72-40.26l4.83.82c-7.03 23.76-14.76 47.32-25.46 69.73-3.82 7.58-7.67 15.04-13.73 21.27-2.3 2.27-5.66 4.72-9.28 4.7a76.64 76.64 0 0 1-16.18-1.52c-16.14-3.43-22.48-14.53-16.97-30.25 4.27-11.98 11.84-22.23 20.12-31.72l2.24 2.98a4852.38 4852.38 0 0 1-56.21 26.13c-4.58 2.13-14.2 6.45-18.84 8.5l9.11-4.87c20.28-10.84 52.28-27.02 72.9-37.58-7.26 8.3-15.11 17.34-20.37 27.08-3.63 6.67-7.18 14.4-6.4 22 1.63 12.51 16.84 14.18 27.2 14.55 1.72-.05 3.5.3 5.16-.35 5-2.36 8.17-7.69 11.2-12.39 14.1-24.75 22.56-52.43 30.77-79.6l5.97-20.7c-1.51 26.67-2.98 54.65-.86 81.24.81 9.8 1.87 19.65 4.8 29 1.62 4.43 3.97 11.35 9.37 11.05 3.05-.06 5.66-1.48 6.93-4.29 2.43-5.39 1.52-12.32.56-18.21-1.93-11.54-8.75-27.97-12.78-39.05l11.77 18.06c6.7 9.93 13.99 19.97 23.23 27.67 7.06 5.53 9.96 5.68 17.77 1.42 8.46-4.66 16.31-10.7 23.93-16.71 11.21-8.86 22.95-19.55 33.58-29.2-7.25 11.76-16.2 24.78-19.68 38.23-1.89 7.36-1.38 14.73 7.91 14.25 4-1.13 7.13-5 9.98-8.16 10.06-12.27 17.9-26.18 25.7-40.04 8.47-15.2 16.55-31.74 24.13-47.45-3.92 17.23-8.34 35.85-6.17 53.56.97 8.48 4.78 18.63 14.55 19.12 5.58.42 11.9.01 16.09-4.08 8.54-8.3 8.35-31.75 9.97-43.71 2.4-26.5 6.72-52.93 14.31-78.47l1.74-5.92-.01 6.16c-.02 40.03 4.05 165.22 40.4 185.65Z"/><path class="uuid-0cf3413d-ea21-4a77-b4a5-f70ea1849899" d="m1680.99 1000.5-1680-.71"/><path class="uuid-09ca320f-ab02-4727-a35a-8cacb0fc43ef" d="M1368.28 1000.5c13.8-14.79 24.44-31.48 35.88-48.03 2.76-4.19 5.92-8.16 8.6-12.4a397 397 0 0 0 7.62-12.98c4.92-8.74 9.61-17.65 13.86-26.7l2.15 1.66a886.86 886.86 0 0 1-26 20.37c-8.82 6.6-17.71 13.12-27.16 18.92-3.23 1.74-14.26 9.24-16.64 4.2-.6-1.77-.34-3.1-.2-4.75a94.7 94.7 0 0 1 2.74-12.24c2.97-10.65 6.53-21.07 10.14-31.46 14.65-41.5 30.82-82.4 47.28-123.2l1.58.9a1272.7 1272.7 0 0 1-38.86 48.27c-13.53 15.61-26.91 31.51-42.99 44.64-7.29 5.54-14.41 10.4-19.75-.39-9.87-21.67-5.72-75.19-3.62-100.13l.73.17a971.88 971.88 0 0 1-24.7 61.02c-6.85 14.93-13.77 30-23.17 43.54-1.6 2.22-3.3 4.4-5.23 6.34-1.94 1.86-4.16 3.88-6.96 4.06 7.97-.84 16.82-17.83 20.67-24.5 15.43-29.06 27.33-59.88 38.68-90.72l1-2.79-.26 2.96c-1.53 18.45-7.75 96.04 8.72 104.87 10.24 4.87 47.94-41.28 55.69-50.08a1320.7 1320.7 0 0 0 42.68-53.76l-2.51 6.29c-16.27 40.82-32.27 81.8-46.72 123.3-4.37 12.97-8.92 25.92-11.92 39.26-.4 2.37-1.15 5.09-.66 7.38.05.08.02.06.09.1.59.17 1.37.03 2.11-.18 3.78-1.16 7.29-3.3 10.72-5.34 9.28-5.72 18.13-12.24 26.9-18.83 10.34-7.82 20.56-16 30.57-24.24a432.27 432.27 0 0 1-24.1 45.55c-7.22 13.36-14.8 26.53-24.56 38.31-6.45 7.83-13.75 15.22-22.4 20.6Z"/><path class="uuid-ad56ae0d-1a1d-47bc-ac0d-80a133ea9bb8" d="M1 999.8c.37-3.26.2-8.26.3-11.6C1.34 931.36.28 870.88.04 814.15l-.03-5.7c7 19.03 12.34 38.7 15.64 58.7 3.33 17.97 3.85 36.48 7.65 54.29 2.93 12.74 9.34 18.67 22.58 18.71 6.47.22 13.17-.77 17.36-6.2 9.67-12.77 5.3-37.09 1.61-51.75l-3.65-13.77c15.98 27.35 32.48 55.18 52.91 79.42 4.31 4.88 8.97 9.97 14.44 13.4 1.65.95 3.18 1.7 4.89 1.75 2.45-.04 5.38-.44 7.37-1.76 9.38-6.78-7.19-30.66-12.29-37.53l-9.72-13c17.36 13.12 35.45 26.65 54.12 37.74 4.74 2.8 9.55 5.48 14.48 7.71 4.61 1.93 9.39 4.3 14.32 2.67 9.98-3.5 17.92-11.79 25.25-19.25 7.25-7.34 17.42-21.12 23.96-29.24l-8.75 19.55c-4.05 9.43-10.91 27.43-5.48 36.86 1.7 2.84 5.46 4.02 8.9 3.99 8.33.06 11.64-11.83 13.51-18.55 3.19-13.03 4.06-26.71 4.51-40.16.73-19.61-.75-41.2-2.05-60.84 7.53 22.48 15.97 46.08 26.07 67.47 5.58 11.7 11.5 23.34 19.42 33.54 3.77 4.46 7.91 9.56 13.68 10.3 1.86.04 4.41.02 6.34-.06 15.54-.54 38.1-4.06 29.4-25.08-6.36-15.3-19.34-27.5-31.26-38.65 18.11 7.78 51.34 21.81 69.25 29.84 4.74 2.08 14.7 6.5 19.43 8.67-11.02-3.92-28.76-10.65-39.9-14.79l-39.69-15.3 2.2-3.47c10.57 10.11 23.44 24.05 26.3 38.76 2.59 14.6-9.67 21.5-22.11 23.66a105.37 105.37 0 0 1-20.25 1.54c-5.3-.39-9.36-3.62-12.9-7.03-4.83-4.8-8.7-10.47-12.25-16.2-9.21-15.17-16.35-31.35-23.02-47.72a539.2 539.2 0 0 1-9.3-24.76l5.26-1.06c.9 13.8 1.19 27.53.84 41.34-.68 16.47-1.75 49.55-14.7 60.84-4.8 4.14-12.1 3.92-17.57 1.02-5.6-3-7.55-9.79-7.47-15.66.2-10.84 3.78-20.94 8.06-30.75l4.48 2.74a185.42 185.42 0 0 1-11.12 12.8c-3.9 4.07-7.99 8-12.44 11.6-4.62 3.65-9.38 7.07-15.2 8.84-5.98 2.02-12.4-.57-17.75-2.98-10.29-4.78-19.72-10.83-29.12-17.04a571.63 571.63 0 0 1-27.3-19.46l3.25-3.26c2.12 2.83 4.02 5.67 5.87 8.62 7.9 12.3 19.65 37.23-4.66 37.73-8.51-.47-17.07-10.77-22.44-16.67-17.65-21.07-32-44.34-45.94-67.92l3.54-1.48c4.9 19.8 10.88 61.4-19.23 61.98-24.62 1.26-28.59-13.84-31.1-34.73-1.6-13.64-2.75-27.33-4.97-40.87A313.8 313.8 0 0 0 .08 814.46l1.87-.32c-.12 30.94-.06 61.89-.08 92.83-.05 26.34 0 54.81-.42 81.23-.06 3.28-.14 8.34-.46 11.6ZM1681 1000.5c-1.4-52.59-.54-132.35-.89-185.65l1.73.25c-4.85 17-8.4 34.34-10.75 51.84-2.56 17.59-3.07 35.24-5.65 52.87-2.28 14.68-7.59 24.78-24.17 23.92-26.47-.24-20-44.6-16.53-61.74l3.31 1.15a745.86 745.86 0 0 1-17.59 34.26c-6.2 11.25-12.62 22.4-20.06 32.99-3.9 5.36-7.7 10.63-13.06 14.8-1.54 1.14-3.59 2.38-5.9 2.55-3.56.04-7.22-.73-9.8-3.51-3.83-4.29-3-10.7-1.88-15.6 2.47-9.6 7.01-18.33 12.1-26.76l3.21 2.7c-14.89 13.22-29.78 26.6-47.1 36.64-9.2 5.2-14.41 4.82-22.76-1.75-9.8-8.06-17.36-18.24-24.41-28.69l4.26-2.17c4.45 12.3 14.8 44.58-5.01 47.88-17.55 2.96-19.63-32.7-20.84-44.47-1.47-20.13-1.25-40.26-.22-60.4l4.8.92c-6.46 18.4-14.06 36.33-23.63 53.33-7.89 13.47-18.74 31.6-33.84 37.45a17.6 17.6 0 0 1-7.22.94c16.92-.5 30.71-26.68 37.87-40.1 11.25-22.21 20.16-46.5 27.9-70.18-1.48 25.6-2.69 52.1-.68 77.65.76 8.36 3.15 40.6 14.18 40.06 3.05-.07 5.66-1.5 6.93-4.3 5.98-15.04-7.16-42.43-12.23-57.26 8.73 13.12 18.61 29.85 29.74 40.93 3.93 3.75 9.53 9.5 15.22 9.24 2.72-.4 5.23-1.67 7.81-3.02 4.2-2.27 8.26-5 12.23-7.82 15.79-11.32 30.9-24.99 45.29-38.08-5.49 8.87-12.77 19.85-16.67 29.45-2.41 6.07-7.99 20 1 22.62 1.22.3 2.63.54 3.9.4a9.1 9.1 0 0 0 3.47-1.74c4.79-3.7 8.66-8.95 12.26-13.9 14.5-20.88 26.29-43.78 37.55-66.57l6.52-13.44c-3.9 17.23-8.34 35.85-6.17 53.56.98 8.48 4.79 18.64 14.56 19.12 16.06 1.47 20.71-6.96 23.11-21.49 2.61-17.4 3.34-35.27 6.02-52.74 2.5-17.58 6.23-35 11.24-52.03l1.77-6-.05 6.24c-.09 53.6-1.63 132.79-.88 185.65Z"/></g><path class="uuid-09ca320f-ab02-4727-a35a-8cacb0fc43ef" d="M1642.35 543.5c-9.73.71-12.31-16.7-15.8-23.37-1.88-3.91-4.04-7.57-8.26-7.1-2.41.46-2.99 2.57-3.91 4.87-2.61 8.43-5.04 15.62-15.56 15.37-4.17.21-8.68 1.02-12.09 3.19-2.86 1.73-4.7 4-8.01 5.9a16.12 16.12 0 0 1-6.55 2.04c-7.01.87-13.02-3.8-16.33-9.47-2.56-3.82-3.98-8.16-6.71-10.7-.18-.09-.13-.06-.13-.05l-.09-.01a21.89 21.89 0 0 1-13.8-5.1c-2.47-1.93-4.69-4.63-6.92-6.1-.82-.48-1.25-.62-1.94-.6-1.73.07-3.05.36-4.03 2.07-1.37 2.41-2.03 5.64-3.36 8.6-2.69 6.87-9.56 10.57-16.87 9.8-9.41-.81-13.22-10.52-15.57-17.83-.87-2.32-1.8-5.43-3.26-6.97-.31-.31-.37-.33-.63-.42l-.94-.12c-5.68-.6-11.56-4.04-15.39-7.62-2.6-2.28-4.77-4.4-6.93-5.6-2.26-1.37-4.78-1.53-7.35-1.43-4.24.2-7.6.82-9.38 4.44-1.87 4.29-1.53 8.95-2.8 13.86-1.76 8.39-9.02 10.65-16.69 9.45 14.4-1.81 12.83-7.91 12.85-19.91.14-12.28 10.34-16.37 21.18-15.66 5.69.4 11.17 4.92 14.85 7.96 3.71 2.96 6.88 4.75 11.3 5.07.35.04.7.07 1.02.13 6.7 1.16 9.44 8.26 11.3 13.6 1.57 4.12 2.5 8 5.37 10.5 1.42 1.1 3.38.92 5.14.47 2.1-.66 2.74-1.6 3.73-3.71 1.32-3.05 1.92-6.39 3.88-9.7 2.9-5.46 10.38-8.26 16.35-6.44 4.85 1.38 7.96 5.6 11.36 8.4a12.02 12.02 0 0 0 8.22 2.95c4.22.02 8.08 3.98 9.7 6.86 3.96 5.86 6.35 16.93 14.97 13.16 1.86-.93 4.58-3.6 8.05-5.47 5.15-2.86 10.75-3.64 16.36-3.59l2.25.05c1.5-.06 2.34-.42 3.46-1.76 2.9-3.94 3.56-9.21 7.2-13.11 4.9-5.32 13.61-2.6 16.51 3.38 2.53 4.57 3.5 9.72 4.64 14.6 1.52 5.64 2.56 14.3 9.62 15.11Z" id="uuid-ebedde1c-a510-4213-8657-88cc1203fbca"/></svg>