<svg xmlns="http://www.w3.org/2000/svg" xmlns:xlink="http://www.w3.org/1999/xlink" viewBox="0 0 1686.61 1000.5"><defs><linearGradient id="uuid-1d328ffa-ec36-446a-a362-042683e2d7da" x1="1284.84" y1="422.51" x2="1680.25" y2="422.51" gradientUnits="userSpaceOnUse"><stop offset="0" stop-color="#2e2b2f"/><stop offset="0" stop-color="#2f2c30"/><stop offset=".05" stop-color="#434246"/><stop offset=".11" stop-color="#535456"/><stop offset=".18" stop-color="#5e6062"/><stop offset=".28" stop-color="#656769"/><stop offset=".52" stop-color="#67696b"/><stop offset=".72" stop-color="#646668"/><stop offset=".85" stop-color="#5c5e5f"/><stop offset=".96" stop-color="#4d5050"/><stop offset="1" stop-color="#474a49"/></linearGradient><linearGradient id="uuid-06f46fe1-16ae-41c9-a337-cc4464a84593" x1="1287.22" y1="249.97" x2="1680.25" y2="249.97" gradientUnits="userSpaceOnUse"><stop offset="0" stop-color="#271f26"/><stop offset=".01" stop-color="#2e2129"/><stop offset=".06" stop-color="#442931"/><stop offset=".12" stop-color="#562f38"/><stop offset=".19" stop-color="#62333d"/><stop offset=".28" stop-color="#693640"/><stop offset=".52" stop-color="#6b3741"/><stop offset=".73" stop-color="#68353e"/><stop offset=".86" stop-color="#5f2e38"/><stop offset=".97" stop-color="#50242d"/><stop offset="1" stop-color="#4c212a"/></linearGradient><linearGradient id="uuid-4075d362-b2d0-4856-86e0-efd6cb49042f" x1="1319.93" y1="166.62" x2="1673.92" y2="-37.76" gradientUnits="userSpaceOnUse"><stop offset="0" stop-color="#847b81"/><stop offset=".01" stop-color="#81787e"/><stop offset=".05" stop-color="#716268"/><stop offset=".11" stop-color="#645156"/><stop offset=".18" stop-color="#5b454a"/><stop offset=".28" stop-color="#563e43"/><stop offset=".52" stop-color="#553d42"/><stop offset=".71" stop-color="#523a40"/><stop offset=".84" stop-color="#49333b"/><stop offset=".9" stop-color="#422e38"/></linearGradient><linearGradient id="uuid-62f81491-ddfa-4584-be91-4b1996a82689" x1="501.66" y1="502.48" x2="1187.03" y2="106.78" gradientUnits="userSpaceOnUse"><stop offset="0" stop-color="#959188"/><stop offset=".24" stop-color="#a09d94"/><stop offset=".68" stop-color="#bfbdb5"/><stop offset="1" stop-color="#d9d8d2"/></linearGradient><linearGradient id="uuid-b47dc2cc-5e6a-40bf-95a5-556bc6cdf2ac" x1="862.99" y1="741.14" x2="1035.4" y2="741.14" gradientUnits="userSpaceOnUse"><stop offset="0" stop-color="#7a7b7d"/><stop offset=".07" stop-color="#838587"/><stop offset=".26" stop-color="#989a9d"/><stop offset=".46" stop-color="#a6aaad"/><stop offset=".69" stop-color="#afb3b7"/><stop offset="1" stop-color="#b2b6ba"/></linearGradient><linearGradient id="uuid-7b67295c-19ae-40e4-acef-396c297708e7" x1="360.69" y1="155.4" x2="463.19" y2="52.9" xlink:href="#uuid-62f81491-ddfa-4584-be91-4b1996a82689"/><linearGradient id="uuid-17b1333e-9eca-4edb-ab18-c5b4bb804d27" x1="264.23" y1="156.73" x2="301.69" y2="91.86" gradientUnits="userSpaceOnUse"><stop offset="0" stop-color="#959188"/><stop offset=".27" stop-color="#98948b"/><stop offset=".51" stop-color="#a19e96"/><stop offset=".73" stop-color="#b1afa7"/><stop offset=".94" stop-color="#c8c7c0"/><stop offset="1" stop-color="#d0cfc9"/></linearGradient><linearGradient id="uuid-685ece6b-43b3-4d2c-ab12-1db523bea2d0" x1="144.97" y1="396.45" x2="144.97" y2="107.02" gradientUnits="userSpaceOnUse"><stop offset="0" stop-color="#bcbeb9"/><stop offset=".34" stop-color="#aaa9a5"/><stop offset=".68" stop-color="#9f9d99"/><stop offset="1" stop-color="#9c9996"/></linearGradient><style>.uuid-6108759d-cf55-4c05-a8e6-a0c88f5d4871,.uuid-d83af748-e252-4255-8ae8-64fd0ef12a70,.uuid-e9068892-8e67-4e93-8c2d-2718a120447f{stroke-width:0}.uuid-e9068892-8e67-4e93-8c2d-2718a120447f{fill:#292425}.uuid-cee1dfba-e7f0-4ea8-8654-5857a65df2a6{stroke:#292425;fill:none;stroke-miterlimit:10;stroke-width:.5px}.uuid-d83af748-e252-4255-8ae8-64fd0ef12a70{fill:#6b6a6f}.uuid-6108759d-cf55-4c05-a8e6-a0c88f5d4871{fill:#1e242a}</style></defs><g id="uuid-59e02898-36f1-462b-9f6c-5bdb67032226"><path d="m868.26 713.97 44.61.08c-7.36.96-13.55 1.92-18.87 2.92h-.02c-2.48-.11-25.72-3-25.72-3" stroke-width="0" fill="#5c514f"/><path d="M1680.25 873.4v126.85H795.68V919.3c17.64-.57 32.89-.7 41.98-.01 14.66 1.11 128.65 9.61 157.17 13.08l.66.08 2.38.32c28.27 4.06 85.18 20.27 148.06 16.39a426 426 0 0 0 31.91-3.12c54.79-7.55 103.79-27.3 70.76-72.57l-.05-.07a97 97 0 0 0-4.42-6.45c-31.37-42.24-66.97-91.74-83.75-112.37l352.82.28 165.99 118.54z" stroke-width="0" fill="#979391"/><path stroke-width="0" fill="#6c6867" d="M1680.25 754.99V873.4h-1.06L1513.2 754.86l165.99.13z"/><path stroke-width="0" fill="#584e4d" d="M1680.25 577.87v177.12h-1.06l-165.99-.13-250.48-178.88z"/><path stroke-width="0" fill="#513d3e" d="M1680.25 489.49v88.38l-417.53-1.89-106.05-75.73.98-10.76h522.6"/><path stroke-width="0" fill="url(#uuid-1d328ffa-ec36-446a-a362-042683e2d7da)" d="M1680.25 447.35v42.14h-1.06l-207.12-58.44-187.23-52.83 1.89-22.69.49.11v.01z"/><path stroke-width="0" fill="url(#uuid-06f46fe1-16ae-41c9-a337-cc4464a84593)" d="M1680.25 52.6v394.75l-393.03-91.7v-.01l6.69-87.15.01-.11 19.06-160.36 63.43 4.04 302.78-59.46z"/><path stroke-width="0" fill="#918180" d="M1680.25.25V52.6h-1.06l-175.7-8.76 5.94-43.59z"/><path stroke-width="0" fill="url(#uuid-4075d362-b2d0-4856-86e0-efd6cb49042f)" d="m1679.19 52.6-302.78 59.46-63.43-4.04-48.03-3.06 95.63-24.5 142.91-36.62z"/><path stroke-width="0" fill="#4b4041" d="M1679.19 489.49h-521.54l5.03-55.64 309.39-2.8z"/><path d="m1513.2 754.86-352.82-.28a142 142 0 0 0-6.04-7.04c-11.97-12.71-66.67-30.34-99.89-34.26v-.02l85.14.88 1.21-22.67-1.21-2.46 10.28-113.54 112.85.51z" stroke-width="0" fill="#706868"/><path stroke-width="0" fill="#c6c4c1" d="m1509.43.25-5.94 43.59-142.91 36.62 9.07-80.21z"/><path stroke-width="0" fill="#524c51" d="m1472.07 431.05-309.39 2.8 5.04-55.63h117.12z"/><path stroke-width="0" fill="#c2bfbc" d="m1369.65.25-9.07 80.21-95.63 24.5L1275.14.25z"/><path stroke-width="0" fill="#908b91" d="m1312.98 108.02-19.06 160.36-.01.11-8.25 69.42-113.98-3.49L1201.92.25h73.22l-10.19 104.71z"/><path stroke-width="0" fill="#2d222a" d="m1293.91 268.49-6.69 87.15-.49-.11h-116.96l1.91-21.11 113.98 3.49z"/><path stroke-width="0" fill="#313034" d="m1286.73 355.53-1.89 22.69h-117.12l2.05-22.69z"/><path stroke-width="0" fill="#6f6669" d="m1262.72 575.98-112.85-.51 6.8-75.22z"/><path class="uuid-6108759d-cf55-4c05-a8e6-a0c88f5d4871" d="M1248.6 873.47c33.03 45.27-15.97 65.02-70.76 72.57l-.41-2.97q4.7-.63 8.68-1.52c44.8-10.04 89.59-24.8 62.49-68.08"/><path d="M506.72 713.97c27.27-3.27 53.4-3.7 64.1-4.18 9.38-.43 37.43 1.62 67.22 4.19 36.92 3.18 76.51 7.16 86.55 8.22 18.15 1.91 105.54 2.87 126.04 1.05-3.23 12.39-9.65 36.01-10.38 39.54-1.15 5.53.05 8.68 3.48 11.02a241 241 0 0 0-3.48 34.41c-.47 21.65 54.2 38.9 77.87 41.65s91.14 8.9 123.3-22.93c7.74-7.66 3.59-55.33-1.02-74.32q-.25-3.26-2.21-6.63l-.02-.05c-2.32-3.98-6.45-8.04-12.48-12.08l-.85-.56c.28-2.99 1.33-17.06-4.17-16.96-3.25.05-25.04 1.32-38.33 1.89h-.01a239 239 0 0 0-21.22-3.5c4.42-.88 56.94-4.79 89.63-1.84q1.8.16 3.71.39c33.22 3.92 87.92 21.55 99.89 34.26 1.57 1.67 3.6 4.05 6.04 7.04 16.78 20.63 52.38 70.13 83.75 112.37a97 97 0 0 1 4.42 6.45l.05.07c27.1 43.28-17.69 58.04-62.49 68.08q-3.98.89-8.68 1.52c-40.66 5.54-119.62-2.51-179.56-10.3l-2.38-.32-.66-.08c-36.66-4.82-65.66-9.44-73.48-10.62-29.17-4.4-78.04-5.6-125.67-5.08-54.88.6-108.11 3.5-127.58 6.46-36.38 5.52-141.82 22.1-194.31 26.7-45.86 4.03-94.18-3.55-122.54-17.19-7.92-4.97-14.08-9.77-19.17-13.33l-.02-.02c-15.27-16.81-8.09-38.8 10.5-64.31 2.37-3.25 30.79-38.7 43.92-55.41 9.69-12.34 15.61-30.01 30.82-47.44a113 113 0 0 1 20.28-18.23c15.58-11.01 42.89-16.79 69.14-19.93" stroke-width="0" fill="#494c50"/><path stroke-width="0" fill="url(#uuid-62f81491-ddfa-4584-be91-4b1996a82689)" d="m410.83 4.58-.3-4.33h791.39l-30.24 334.17-1.91 21.11-2.05 22.69-5.04 55.63-5.03 55.64-.98 10.76-6.8 75.22-10.28 113.54-681.22-2.69-8.24-118.21-5.93-85.02-1.33-19.11-2.47-35.36-2.9-41.55-5.22-74.93z"/><path class="uuid-6108759d-cf55-4c05-a8e6-a0c88f5d4871" d="m1177.43 943.07.41 2.97a426 426 0 0 1-31.91 3.12c-62.88 3.88-119.79-12.33-148.06-16.39 59.94 7.79 138.9 15.84 179.56 10.3"/><path stroke-width="0" fill="#a7a390" d="m1139.59 689.01 1.21 2.46-684 .23v-4.31l1.57-1.07z"/><path d="m1140.8 691.47-1.21 22.67-85.14-.88v.02q-1.9-.22-3.71-.39c-32.69-2.95-85.21.96-89.63 1.84-3.44-.39-6.49-.65-8.99-.76 0 0-28.66-1.28-39.25.08l-44.61-.08c-1.94-.3-10.3-2.36-14.16.17l-216.06-.16c-29.79-2.57-57.84-4.62-67.22-4.19-10.7.48-36.83.91-64.1 4.18h-51.35l-.63-21.65 2.06-.62z" stroke-width="0" fill="#3a3736"/><path d="M1040.4 752.62c4.61 18.99 8.76 66.66 1.02 74.32-32.16 31.83-99.63 25.68-123.3 22.93s-78.34-20-77.87-41.65a241 241 0 0 1 3.48-34.41c2.24-12.97 5.54-25.76 9.81-35.75l.15.07c-4.02 8.84-2.77 21.33 24.59 31.85 34.08 13.12 73.62 16.62 98.63 13.82 41.82-4.69 64.61-16.94 63.49-31.18" stroke-width="0" fill="#a8afb5"/><path d="m1024.84 733.3.85.56c6.03 4.04 10.16 8.1 12.48 12.08l.02.05c.72 1.29 1.47 3.59 2.21 6.63 1.12 14.24-21.67 26.49-63.49 31.18-25.01 2.8-64.55-.7-98.63-13.82-27.36-10.52-28.61-23.01-24.59-31.85 3.07-6.73 9.21-11.34 9.21-11.34a100.2 100.2 0 0 1 20.06-7.4 168 168 0 0 1 11.02-2.42h.02c5.32-1 11.51-1.96 18.87-2.92 10.59-1.36 39.25-.08 39.25-.08 2.5.11 5.55.37 8.99.76a239 239 0 0 1 21.22 3.5h.01c3.78.8 7.63 1.7 11.45 2.72a155 155 0 0 1 18.79 6.17q3.53 1.44 6.7 3.04 2.99 1.5 5.56 3.14m-130.83 35.96c27.67 10.13 65.42 10.65 86.73 6.99 5.81-1 12.18-2.35 18.46-4.02a136 136 0 0 0 19.8-6.72c14.57-6.46 22.72-15.03 10.32-24.9-21.85-17.4-52.37-21.04-70.07-22.92-19.7-2.09-41.86 0-41.86 0-33.61 7-70.74 15.07-46.76 37.98a45 45 0 0 0 3.67 3.15c5.48 4.26 12.23 7.7 19.71 10.44" stroke-width="0" fill="#a8a9ad"/><path d="M1029.32 740.61c12.4 9.87 4.25 18.44-10.32 24.9v-.01c-48.7-43.42-132.87-25.13-144.7-6.68q-1.95-1.5-3.67-3.15c-23.98-22.91 13.15-30.98 46.76-37.98 0 0 22.16-2.09 41.86 0 17.7 1.88 48.22 5.52 70.07 22.92" stroke-width="0" fill="url(#uuid-b47dc2cc-5e6a-40bf-95a5-556bc6cdf2ac)"/><path d="M1020.67 716.34c5.5-.1 4.45 13.97 4.17 16.96a63 63 0 0 0-5.56-3.14c3.5-6.85 2.56-13.59 1.39-13.82" stroke-width="0" fill="#858589"/><path d="M1020.67 716.34c1.17.23 2.11 6.97-1.39 13.82a91 91 0 0 0-6.7-3.04l2.52-7.03-21.31.86a226 226 0 0 0-11.45-2.72c13.29-.57 35.08-1.84 38.33-1.89" stroke-width="0" fill="#afb0b3"/><path d="M1019 765.5za136 136 0 0 1-19.8 6.72c-48.08-24.6-92.33-6.88-105.19-2.97-7.48-2.74-14.23-6.18-19.71-10.44 11.83-18.45 96-36.74 144.7 6.68" stroke-width="0" fill="#808283"/><path class="uuid-d83af748-e252-4255-8ae8-64fd0ef12a70" d="m1015.1 720.09-2.52 7.03a155 155 0 0 0-18.79-6.17z"/><path d="M999.2 772.23a215 215 0 0 1-18.46 4.02c-21.31 3.66-59.06 3.14-86.73-6.99 12.86-3.91 57.11-21.63 105.19 2.97" stroke-width="0" fill="#969899"/><path class="uuid-6108759d-cf55-4c05-a8e6-a0c88f5d4871" d="M921.35 921.75c7.82 1.18 36.82 5.8 73.48 10.62-28.52-3.47-142.51-11.97-157.17-13.08-9.09-.69-24.34-.56-41.98.01v-2.63c47.63-.52 96.5.68 125.67 5.08"/><path d="M893.98 716.97a168 168 0 0 0-11.02 2.42l-20.61-2.21 5.91 6.45.25.6c-1.92.81-3.76 1.66-5.61 2.56 0 0-7.56-5.65-9.56-11.98l-.02-.02q.35-.37.78-.65c3.86-2.53 12.22-.47 14.16-.17 0 0 23.24 2.89 25.72 3" stroke-width="0" fill="#a7a7a7"/><path class="uuid-d83af748-e252-4255-8ae8-64fd0ef12a70" d="m862.35 717.18 20.61 2.21a100 100 0 0 0-14.45 4.84l-.25-.6z"/><path d="M853.54 738.06c-4.27 9.99-7.57 22.78-9.81 35.75-3.43-2.34-4.63-5.49-3.48-11.02.73-3.53 7.15-27.15 10.38-39.54.76-2.93 1.34-5.23 1.63-6.49a4 4 0 0 1 1.06-1.97l.02.02c2 6.33 9.56 11.98 9.56 11.98s-6.14 4.61-9.21 11.34z" stroke-width="0" fill="#99999d"/><path d="m638.04 713.98 216.06.16q-.43.28-.78.65a4 4 0 0 0-1.06 1.97c-.29 1.26-.87 3.56-1.63 6.49-20.5 1.82-107.89.86-126.04-1.05a5530 5530 0 0 0-86.55-8.22" stroke-width="0" fill="#69625f"/><path d="m332.06 919.29.02.02a47 47 0 0 0 8.18 7.04 82 82 0 0 0 10.99 6.29c21.59 13.55 56.23 28.35 117.85 22.51 84.25-7.99 193.27-27.55 206.44-28.75 9.58-.87 73.28-5.57 120.14-7.1v80.95H.25V772.23l28.86-20.1H417.3c-15.21 17.43-21.13 35.1-30.82 47.44-13.13 16.71-41.55 52.16-43.92 55.41-18.59 25.51-25.77 47.5-10.5 64.31" stroke-width="0" fill="#6d6964"/><path class="uuid-6108759d-cf55-4c05-a8e6-a0c88f5d4871" d="M795.68 916.67v2.63c-46.86 1.53-110.56 6.23-120.14 7.1-13.17 1.2-122.19 20.76-206.44 28.75-61.62 5.84-96.26-8.96-117.85-22.51 28.36 13.64 76.68 21.22 122.54 17.19 52.49-4.6 157.93-21.18 194.31-26.7 19.47-2.96 72.7-5.86 127.58-6.46"/><path d="M455.37 713.97h51.35c-26.25 3.14-53.56 8.92-69.14 19.93a113 113 0 0 0-20.28 18.23H29.11l266.34-185.48 154.68 1.46 8.24 118.21-1.57 1.07v4.31l-2.06.62z" stroke-width="0" fill="#736f6a"/><path stroke-width="0" fill="#7b7771" d="m444.2 483.09 5.93 85.02-154.68-1.46 120.69-84.05 26.73.58z"/><path fill="#76716d" stroke-width="0" d="m442.87 463.98 1.33 19.11-1.33.09-26.73-.58z"/><path stroke-width="0" fill="#74736e" d="m440.4 428.62 2.47 35.36-26.73 18.62-364.35-7.96 153.9-52.51z"/><path stroke-width="0" fill="#64635f" d="m437.5 387.07 2.9 41.55-234.71-6.49 110.77-37.79z"/><path stroke-width="0" fill="#adaba7" d="m316.46 384.34-26.78-.61-4.75-71.58 17.87-2.79 11.53.25 117.95 2.53 5.22 74.93z"/><path stroke-width="0" fill="url(#uuid-7b67295c-19ae-40e4-acef-396c297708e7)" d="m410.83 4.58 21.45 307.56-117.95-2.53.01-.25L287.32.45z"/><path stroke-width="0" fill="#7b7873" d="m416.14 482.6-120.69 84.05-295.2-2.8v-71.62l51.54-17.59z"/><path class="uuid-6108759d-cf55-4c05-a8e6-a0c88f5d4871" d="m410.53.25.3 4.33L287.32.45l-.02-.2z"/><path stroke-width="0" fill="#6e6b67" d="m289.68 383.73 26.78.61-110.77 37.79-36.54-1.01z"/><path stroke-width="0" fill="#97958d" d="m287.32.45 27.02 308.91-.01.25-11.53-.25L275.3.25h6.13z"/><path stroke-width="0" fill="url(#uuid-17b1333e-9eca-4edb-ab18-c5b4bb804d27)" d="M245.77 185.18 232.42 47.09 227.89.25h47.41l27.5 309.11-17.87 2.79-26.48 4.12z"/><path stroke-width="0" fill="#76756f" d="M295.45 566.65 29.11 752.13H.25V563.85z"/><path stroke-width="0" fill="url(#uuid-685ece6b-43b3-4d2c-ab12-1db523bea2d0)" d="m138.32 334.99 120.13-18.72 26.48-4.12 4.75 71.58-120.53 37.39-168.9 52.4V356.51z"/><path d="m245.77 185.18 12.68 131.09-120.13 18.72-20.74-162.22zm-22.84 29.47c1.74-.92 5.68-5.58.71-7.63-7.49-3.1-17.18-3.88-17.18-3.88v2.16l-18.5-1.86c-8.62-1.75-15.97-2.76-15.97-2.76l1.69 14.58s5.07 0 10.14-.61l30.86.61s6.5.31 8.25-.61" stroke-width="0" fill="#9a9991"/><path d="m232.42 47.09 13.35 138.09-128.19-12.41L95.53.25h2.55v.34zm-25.32 19.3c4.7-2.77 5.26-6.46 1.21-8-7.52-2.85-32.61-10.32-34.56-10.89l-.08-.03-.04-.01a8 8 0 0 0-1.32-.37l-16.79-3.43 2.09 16.66s6.49-1.5 10.64-2.6q1.37-.36 2.53-.87s11.28 3.65 21.55 6.44l.39 6.53c6.47-.18 11.31-1.6 14.38-3.43" stroke-width="0" fill="#a19e96"/><path stroke-width="0" fill="#b2afa7" d="m227.89.25 4.53 46.84L98.08.59V.25z"/><path d="m206.46 205.3 17.18 1.72c4.97 2.05 1.03 6.71-.71 7.63-1.75.92-8.25.61-8.25.61l-30.86-.61c7.05-.86 13.2-9.37 4.14-11.21z" stroke-width="0" fill="#434343"/><path d="m223.64 207.02-17.18-1.72v-2.16s9.69.78 17.18 3.88" stroke-width="0" fill="#696969"/><path d="M192.33 63.29a551 551 0 0 1-21.55-6.44c5.98-2.56 7.66-7.52 2.97-9.35 1.95.57 27.04 8.04 34.56 10.89 4.05 1.54 3.49 5.23-1.21 8-2.78-.08-8.59-1.43-14.77-3.1" stroke-width="0" fill="#4e4e4e"/><path stroke-width="0" fill="#7b7e77" d="m205.69 422.13-153.9 52.51-51.54-1.12 168.9-52.4z"/><path d="M207.1 66.39c-3.07 1.83-7.91 3.25-14.38 3.43l-.39-6.53c6.18 1.67 11.99 3.02 14.77 3.1" stroke-width="0" fill="#474244"/><path d="M187.96 203.44c9.06 1.84 2.91 10.35-4.14 11.21-5.07.61-10.14.61-10.14.61l-1.69-14.58s7.35 1.01 15.97 2.76" stroke-width="0" fill="#5d5d5b"/><path d="M173.75 47.5c4.69 1.83 3.01 6.79-2.97 9.35q-1.16.51-2.53.87c-4.15 1.1-10.64 2.6-10.64 2.6l-2.09-16.66 16.79 3.43a8 8 0 0 1 1.36.38z" stroke-width="0" fill="#666763"/><path stroke-width="0" fill="#a5a49c" d="m117.58 172.77 20.74 162.22L.25 356.51V.25h95.28z"/><path stroke-width="0" fill="#7c7f78" d="M51.79 474.64.25 492.23v-18.71z"/><path stroke-width="0" fill="#69625c" d="M29.11 752.13.25 772.23v-20.1z"/></g><g id="uuid-894c0af1-ba55-4613-82e1-535311fd25ab"><path class="uuid-e9068892-8e67-4e93-8c2d-2718a120447f" d="M1679.75.75v999H.75V.75zm.5-.5H.25v1000h1680z"/><path class="uuid-cee1dfba-e7f0-4ea8-8654-5857a65df2a6" d="m410.53.25 47.84 686.07 681.22 2.69L1201.92.25M458.37 686.32l-1.57 1.07v4.31l-2.06.62.63 21.65h59.04"/><path class="uuid-cee1dfba-e7f0-4ea8-8654-5857a65df2a6" d="m1139.59 689.01 1.21 2.46-1.21 22.67-85.14-.88M456.8 691.7l684-.23M630.16 713.97l223.94.17M868.26 713.97l44.61.08M.25 356.52l302.55-47.16 129.48 2.78M289.68 383.73l-4.75-71.58M.25 473.52l289.43-89.79 147.82 3.34M287.3.25l27.04 309.11M275.3.25l27.5 309.11M281.43.25l129.41 4.33M95.53.25 138.32 335M227.89.25l30.56 316.02M117.58 172.77l128.2 12.41"/><path d="M874.3 758.83c11.8-18.45 95.99-36.76 144.7 6.67" fill="none" stroke-miterlimit="10" stroke-width=".5" stroke="#808283"/><path class="uuid-cee1dfba-e7f0-4ea8-8654-5857a65df2a6" d="M232.42 47.09 98.08.59M1275.14.25l-10.19 104.71 238.54-61.12 5.94-43.59M1679.19 52.6l-175.7-8.76M1264.95 104.96l111.46 7.1 302.78-59.46M1369.65.25l-9.07 80.21M1171.68 334.42l113.98 3.49 27.32-229.89M1169.77 355.53h116.96l393.52 91.83M1167.72 378.22h117.12l394.35 111.27M1286.73 355.53l-1.89 22.69M1287.22 355.65l6.7-87.27M952.12 713.97c16.12.71 54.83 7.35 73.57 19.9 31.74 21.24 10.77 43.25-48.78 49.93-25 2.8-64.55-.7-98.63-13.82-48.2-18.54-15.38-43.2-15.38-43.2 11.18-5.42 22.22-9.14 49.97-12.73 10.59-1.36 39.25-.08 39.25-.08Z"/><path class="uuid-cee1dfba-e7f0-4ea8-8654-5857a65df2a6" d="M917.39 717.7c-33.6 7-70.74 15.05-46.76 37.97s81.68 25.46 110.1 20.58 70.45-18.25 48.6-35.64-52.38-21.04-70.08-22.92c-19.7-2.1-41.86 0-41.86 0Z"/><path class="uuid-cee1dfba-e7f0-4ea8-8654-5857a65df2a6" d="M853.88 737.26c-8.44 19.2-13.16 49.31-13.63 70.96s54.2 38.9 77.87 41.65 91.14 8.9 123.3-22.93c9-8.9 1.93-71.8-3.25-81"/><path class="uuid-cee1dfba-e7f0-4ea8-8654-5857a65df2a6" d="M843.73 773.81c-3.43-2.34-4.63-5.49-3.48-11.02.9-4.36 10.5-39.43 12.01-46.03 1.43-6.21 13.61-3.16 16-2.8 0 0 23.35 2.91 25.74 3"/><path class="uuid-cee1dfba-e7f0-4ea8-8654-5857a65df2a6" d="M862.9 726.79s-7.56-5.65-9.56-11.98M868.26 723.63l-5.91-6.45 20.61 2.21M894 769.26c12.85-3.9 57.1-21.64 105.2 2.97M982.33 718.23c13.29-.57 35.09-1.83 38.34-1.89 6.16-.1 4.1 17.52 4.1 17.52"/><path class="uuid-cee1dfba-e7f0-4ea8-8654-5857a65df2a6" d="m993.79 720.95 21.31-.86-2.52 7.03M1020.67 716.34c1.17.24 2.1 6.97-1.4 13.82"/><path class="uuid-cee1dfba-e7f0-4ea8-8654-5857a65df2a6" d="M850.63 723.25c-20.5 1.82-107.89.86-126.04-1.05s-132.76-13.37-153.77-12.42-101.48 1.68-133.24 24.12-37.97 48.95-51.1 65.67-41.56 52.16-43.92 55.4c-21.32 29.26-27.63 53.88-2.3 71.38s81.03 28.09 133.53 23.48 157.93-21.18 194.31-26.7 190.47-10.84 253.25-1.38c21.64 3.25 205.81 33 264.76 19.8 46.98-10.53 93.94-26.25 58.02-74.6s-77.36-106.2-89.79-119.4-70.9-31.7-103.6-34.66-85.21.95-89.63 1.84"/><path class="uuid-cee1dfba-e7f0-4ea8-8654-5857a65df2a6" d="M332.05 919.29c18.98 13.24 52.8 43.85 137.05 35.86s193.27-27.55 206.44-28.75 128.9-9.64 162.12-7.11c14.78 1.12 130.45 9.74 157.83 13.16s85.75 20.7 150.44 16.71 142.16-21.67 102.62-75.76"/><path class="uuid-e9068892-8e67-4e93-8c2d-2718a120447f" d="M795.68 916.67q.24 41.79 0 83.58-.22-41.79 0-83.58M.25 772.23a410025 410025 0 0 1 442.62-308.25A408607 408607 0 0 1 .25 772.23"/><path class="uuid-e9068892-8e67-4e93-8c2d-2718a120447f" d="M417.3 752.13c-103.95.12-313.13.12-417.05 0 103.95-.12 313.13-.12 417.05 0M450.13 568.1c-112.14-.94-337.78-3.07-449.88-4.25 112.13.94 337.78 3.08 449.88 4.25M442.87 483.18c-110.33-2.29-332.33-7.13-442.62-9.66 110.32 2.3 332.33 7.14 442.62 9.66"/><path class="uuid-e9068892-8e67-4e93-8c2d-2718a120447f" d="M.25 492.23c78.78-27 237.39-81.12 316.23-107.9-78.78 27-237.4 81.13-316.23 107.9M1679.19 873.4l-522.52-373.15zM1160.38 754.58c129.3-.02 389.53.19 518.8.4-129.3.02-389.52-.18-518.8-.4M1149.87 575.47c132.2.48 398.22 1.68 530.38 2.4-132.2-.48-398.22-1.69-530.38-2.4M1156.67 489.5c132.02-.13 397.7-.13 529.69 0-132.02.11-397.7.11-529.69 0"/><path class="uuid-e9068892-8e67-4e93-8c2d-2718a120447f" d="M440.4 428.62c-67.61-1.75-203.67-5.5-271.27-7.5 67.62 1.76 203.68 5.52 271.27 7.5M1162.68 433.86c77.11-.82 232.3-2.23 309.4-2.81-77.12.82-232.3 2.22-309.4 2.8"/><path class="uuid-cee1dfba-e7f0-4ea8-8654-5857a65df2a6" d="m172 200.68 1.68 14.58s5.07 0 10.14-.61c7.05-.86 13.2-9.37 4.14-11.2-8.62-1.76-15.97-2.77-15.97-2.77ZM223.64 207.01l-35.68-3.57"/><path class="uuid-cee1dfba-e7f0-4ea8-8654-5857a65df2a6" d="m183.82 214.65 30.86.61s6.5.3 8.25-.61 5.68-5.58.7-7.64c-7.48-3.1-17.17-3.87-17.17-3.87v2.19M155.52 43.66l2.09 16.66s6.49-1.5 10.64-2.6c8.61-2.27 11.22-9.16 4.06-10.64s-16.79-3.42-16.79-3.42Z"/><path class="uuid-cee1dfba-e7f0-4ea8-8654-5857a65df2a6" d="M173.63 47.46s26.85 7.96 34.68 10.93c6.7 2.54.8 10.97-15.59 11.43l-.4-6.54"/><path class="uuid-cee1dfba-e7f0-4ea8-8654-5857a65df2a6" d="M170.78 56.85s28.89 9.35 36.32 9.54"/></g></svg>