<?xml version="1.0" encoding="UTF-8"?><svg id="Chat__dodo" xmlns="http://www.w3.org/2000/svg" viewBox="0 0 1681 1001"><defs><style>.cls-1,.cls-2{fill:none;stroke:#191818;stroke-width:2px;}.cls-3{fill:#191818;stroke-width:0px;}.cls-2{stroke-miterlimit:10;}</style></defs> <path class="cls-3 area" d="M768.93,131.01c.22,4.7.49,10.03.78,15.99,1.13,22.37,2.51,49.91,1.56,58.46-1.35.24-2.7.5-4.03.76-.13-12.61.07-34.96.73-54.57.28-8.36.61-15.14.95-20.63M770.55,106.27c-4.72,4.07-5.62,79.94-5.27,102.38,2.55-.52,5.14-1.01,7.76-1.47,2.46-12.3-4.18-94.97-2.49-100.91h0Z"/> <path class="cls-3 area" d="M1162.83,703.62c13.49,0,49.44.89,91.93,9.11,53.3,10.31,97.38,28.15,131.04,53.01,21.72,16.05,51.68,27.85,89.05,35.09,29.41,5.7,63.38,8.59,100.96,8.59,49.55,0,90.14-4.98,102.19-6.63v115.87c-44.84.53-79.12,3.24-106.73,5.42-21.53,1.7-40.12,3.17-57.69,3.17-14.69,0-27.61-1.01-40.66-3.19-18.51-3.08-47.91-6.7-81.96-10.9-9.72-1.2-19.74-2.43-29.84-3.69-1.53-5.08-7.71-24.46-18.56-44.36-7.41-13.6-15.53-24.8-24.13-33.3-10.88-10.75-22.57-17.18-34.75-19.13-135.17-21.62-129.01-73.25-125.32-104.1.2-1.71.4-3.36.57-4.93.95-.01,2.26-.03,3.91-.03h0M1162.83,701.62c-3.71,0-5.73.07-5.73.07-2.65,29.44-21.2,89.38,126.26,112.97,51.56,8.25,76.21,96.64,76.21,96.64,45.27,5.67,88.95,10.73,113.02,14.74,13.99,2.33,27.25,3.21,40.99,3.21,40.8,0,85.81-7.79,166.42-8.61v-120.15c-7.31,1.05-50.79,6.92-104.19,6.92-63.71,0-141.55-8.37-188.82-43.28-79.81-58.96-197.08-62.51-224.16-62.51h0Z"/> <path class="cls-3 area" d="M459.34,903.76c-10.74,10.27-20.8,24.53-22.09,42.55-.52,7.3.53,13.39,1.69,17.63-5.61-3.74-13.16-7.73-22.54-11.91,1.18-8.81,8.86-25.37,42.94-48.27M469.38,895.16c-.2,0-.41.05-.61.18-20.33,12.47-53.03,35.84-54.5,57.93,13,5.72,22.91,11.22,28.82,16.25,0,0-19.27-37.41,27.08-72.31.95-.72.19-2.05-.79-2.05h0Z"/> <path class="cls-3 area" d="M1119.68,877.11c40.19,0,71.61,3.91,93.41,11.63,28.89,10.15,111.31,20.28,177.54,28.43,34.07,4.19,63.49,7.81,81.64,10.85,13.27,2.21,26.4,3.24,41.32,3.24,17.73,0,36.39-1.48,58-3.18,27.55-2.18,61.73-4.88,106.42-5.41v76.34H2v-111.19c14.87-3.65,33.97-5.5,56.79-5.5,90.94,0,229.94,29.7,314.54,57.63,24.25,8.38,51.74,17.88,68.52,31.15l.51.4.64.03,229.78,10.59c3.14.28,6.32.42,9.45.42,44.12,0,84.76-28.07,108.99-75.19,2.6.62,6.21.92,10.95.92,18.88,0,53.29-4.69,96.85-10.62,67.15-9.15,150.73-20.53,220.65-20.53h.01M1119.65,875.11c-115.18,0-269.66,31.15-317.49,31.15-5.45,0-9.52-.4-11.98-1.31-22.84,45.44-62.48,75.58-107.96,75.58-3.08,0-6.18-.14-9.31-.42l-229.82-10.59c-16.88-13.33-44.45-22.94-69.11-31.47-79.01-26.09-220.16-57.74-315.19-57.74-22.73,0-42.82,1.81-58.79,5.94v114.75h1680v-80.36c-80.62.82-125.62,8.61-166.42,8.61-13.74,0-27-.88-40.99-3.21-54.61-9.16-215.84-24.08-258.84-39.19-24.07-8.52-57.04-11.75-94.1-11.74h0Z"/> <path class="cls-3 area" d="M535.48,380.22c11.84,0,22.53,4.02,31.81,11.94-10.25,12.64-15.09,19.17-15.09,23.27,0,27.99,8.42,55.08,25.03,80.5l.6.91h0c13.92,21.03,32.95,40.14,56.63,56.88-17-.95-53.11-2.64-94.64-2.64-71.67,0-124.85,4.89-158.06,14.53-9.26,2.68-20.05,5.06-32.14,7.08,35.42-35.67,94.31-118.37,113.99-148.54,5.44-8.35,13.55-16.96,22.84-24.25,16.16-12.69,33.58-19.69,49.03-19.69M535.48,378.22c-17.83,0-35.82,8.77-50.27,20.11-9.86,7.74-18.02,16.66-23.28,24.73-18.21,27.92-82.55,118.97-118.21,152.6,14.02-2.13,27.11-4.8,38.6-8.13,39.63-11.51,103.03-14.45,157.5-14.45,49.2,0,91.12,2.4,101.69,3.06-26.11-17.46-47.52-38.21-62.6-61.3h0c-15.84-24.25-24.7-51.14-24.7-79.41,0-3.87,7.04-12.67,15.85-23.5-10.71-9.77-22.6-13.71-34.57-13.71h0Z"/> <path class="cls-3 area" d="M101.21,582.05c21.85,0,38.28,1.42,38.44,1.43h.03s.03,0,.03,0c.02,0,.54.03,1.51.08-20.86,4.8-49.41,16.78-82.5,44.98-25.52,21.74-47.01,48.02-56.72,68.73v-97.91c13.33-8.04,41.27-17.32,99.21-17.32h0M101.21,580.05c-32.44,0-77.23,3.07-101.21,18.2v109.71c11.94-40.59,92.93-125.35,165.57-125.34.25,0,.51,0,.77,0-16.41-.53-26.51-1.13-26.51-1.13,0,0-16.42-1.44-38.62-1.44h0Z"/> <path class="cls-3 area" d="M539.84,555.08c48.03,0,88.81,2.27,101.01,3.02,31.23,20.8,69.36,36.91,110.3,46.63.04.01.08.02.13.03,20.56,6.71,49.92,20.3,73.37,47.02,26.35,30.02,39.92,70.14,40.34,119.23.1,11.56-2.15,19.74-6.68,24.31-2.95,2.97-6.99,4.48-12.01,4.48-13.34,0-30.17-10.5-36.06-14.47-5.49-37.39-21.09-71.53-43.97-96.23-23.36-25.21-53.08-39.13-83.72-39.23-11.95-3.95-30.33-5.96-54.65-5.96-79.72,0-203.28,21.5-230.01,26.32,6.41-8.68,19.24-28.84,12.48-43.5-4.83-10.47-18.53-15.79-40.74-15.79-5.18,0-10.91.29-17.05.86-19.72,1.84-45.68,20.17-73.1,51.61-26.2,30.05-50.35,68.45-66.26,105.35-23.42,54.34-26.67,98.49-9.4,125.19-57.4-10.3-108.29-15.73-147.44-15.73-22.44,0-40.72,1.81-54.41,5.39v-175.37c6.3-21,30.1-51.76,59.32-76.66,16.25-13.84,33.63-25.35,50.28-33.29,19.04-9.08,37.2-13.68,53.98-13.68.25,0,.5,0,.71,0,12.02.34,30.4.79,51.22.79,72.25,0,127.89-5.37,165.37-15.96,32.38-9.4,86.65-14.37,156.95-14.37h0M539.82,553.08c-54.47,0-117.87,2.94-157.5,14.45-46.42,13.11-112.92,15.88-164.82,15.88-19.83,0-37.53-.4-51.16-.79-.26,0-.51,0-.77,0C92.93,582.62,11.94,667.37,0,707.96v178.29c14.35-4.17,33.73-6.02,56.41-6.01,42.75,0,97.24,6.57,151.91,16.57-55.99-71.56,77.58-276.75,144.46-283,6.24-.58,11.84-.86,16.88-.85,74.82,0,23.41,60.2,23.41,60.2,0,0,144.65-27.24,234.84-27.24,22.54,0,41.7,1.7,54.32,5.96,62.91,0,115.25,58.04,126.16,134.62,6.17,4.25,23.64,15.31,37.91,15.31,11.48,0,20.89-7.17,20.69-30.81-.97-112.05-69.53-153.31-115.23-168.18-.02,0-.04,0-.05,0-41.56-9.85-79.2-25.94-110.2-46.67-10.57-.66-52.49-3.06-101.69-3.06h0Z"/> <path class="cls-3 area" d="M429.71,3c10.54,18.86,28.27,88.63,50.05,197.02,16.78,83.49,30.96,165.8,32.29,180.66-8.41,3.11-17.01,7.84-25.11,13.81-1.43-20.23-5.24-72.78-7.26-85.86l-.56-3.56c-9.52-60.92-38.2-244.37-56.91-302.07h7.49M430.86,1h-11.42c19,55.41,49.14,249.57,58.27,307.94,2.36,15.32,7.21,85.27,7.5,89.39,8.61-6.77,18.53-12.64,28.94-16.27-.65-20.19-58.06-339.27-83.29-381.06h0Z"/> <path class="cls-3 area" d="M418.02,3c16.51,47.92,44.99,224.69,54.88,287.97-9.25-7.81-24.76-11.75-46.24-11.75-29.1,0-60.75,7.24-77.02,11.56-23.68,6.28-44.43,14.09-52.85,19.89-13.07,9.02-54,10.91-86.04,10.91-14.42,0-27.11-.36-35.5-.59-3.94-.11-6.79-.19-8.33-.19-.24,0-.45,0-.63,0-.08,0-.18,0-.29,0-5.77,0-40.69-2.36-77.65-4.86-34.08-2.3-69.28-4.68-86.35-5.54V3h416.02M419.44,1H0v311.31c33.4,1.57,154.66,10.49,166.01,10.49.12,0,.24,0,.33,0,.16,0,.36,0,.58,0,4.73,0,22.58.78,43.84.78,32.71,0,73.53-1.85,87.17-11.27,15.7-10.81,80.65-31.1,128.73-31.1,22.12,0,40.67,4.29,49.21,15.78-8.09-52.04-39.06-247.49-56.43-295.99h0Z"/> <path class="cls-3 area" d="M326.04,32.98c11.07.1,23.75.55,34.04,4.53,4.4,1.7,7.93,4.24,10.53,7.57,4.62,5.7,5.08,17.26.99,24.74v.02s-.02.02-.02.02c-6.3,12.27-19.17,20.97-30.94,27.86l-6.09,3.57,7.06.16c4.34.1,8.64.34,12.78.73,13.52,1.23,19.98,6,19.72,14.59v.04s0,.04,0,.04c.14,12.01-13.15,14.48-27.48,15.36-5.32.2-9.65.29-13.65.29-5.33,0-10.34-.17-15.33-.52-17.16-1.18-25.71-7.91-25.4-20.03.13-12.53,20.16-26.7,32.12-35.16,1.62-1.15,3.16-2.23,4.49-3.2l5.87-4.29-7.24.68c-2.73.26-5.51.39-8.26.39-11.18,0-29.94-2.2-29.96-16.97-.03-13.29,12.34-20.16,36.77-20.43M326.04,30.98c-15.69.17-38.82,3.24-38.77,22.43.01,15.58,17.91,18.96,31.96,18.96,3.08,0,5.97-.16,8.44-.39-11.44,8.35-37.27,24.65-37.43,39.96-.42,16.22,13.45,21.1,27.26,22.05,5.34.37,10.37.52,15.47.52,4.45,0,8.94-.11,13.72-.29,11.68-.71,29.58-2.53,29.41-17.38.36-12.2-11.18-15.7-21.54-16.64-4.16-.39-8.47-.64-12.92-.74,12.07-7.06,25.2-15.99,31.71-28.67,4.33-7.91,4.15-20.37-1.19-26.96-2.82-3.62-6.61-6.34-11.36-8.18-10.42-4.04-23.07-4.56-34.76-4.67h0Z"/> <path class="cls-3 area" d="M426.67,283.21c23.91,0,39.83,4.92,47.33,14.62,3.38,17.52,7.04,69.7,8.61,92.09.23,3.27.41,5.8.53,7.51-9.27,7.41-17.37,16.1-22.88,24.55-20.38,31.24-82.9,118.97-117.45,151.8-35.9,5.11-77.96,7.71-125.03,7.71-31.43,0-59.46-1.13-77.82-1.98-.96-.08-17.27-1.44-38.75-1.44-31.92,0-74.39,2.95-99.21,16.7v-280.34c17.11.86,52.15,3.23,86.08,5.53,37.04,2.5,72.02,4.87,77.92,4.87.14,0,.27,0,.38,0,.15,0,.33,0,.54,0,1.49,0,4.31.08,8.22.19,8.42.24,21.14.59,35.62.59,47.42,0,77.13-3.91,88.31-11.62,15.28-10.52,79.67-30.75,127.6-30.75h0M426.66,281.21c-48.08,0-113.04,20.29-128.73,31.1-13.65,9.41-54.46,11.27-87.17,11.27-21.26,0-39.1-.78-43.84-.78-.22,0-.42,0-.58,0-.1,0-.21,0-.33,0C154.66,322.8,33.4,313.88,0,312.31v285.94c23.98-15.13,68.77-18.2,101.21-18.2,22.2,0,38.62,1.44,38.62,1.44,22.03,1.02,48.87,1.99,77.95,1.99,39.97,0,84.18-1.82,125.94-7.82,35.66-33.63,100-124.68,118.21-152.6,5.26-8.07,13.42-16.99,23.28-24.73-.83-10.63-5.3-81.09-9.34-101.34-8.54-11.49-27.08-15.78-49.21-15.78h0Z"/> <path class="cls-2 area" d="M1359.57,911.3c-59.51-7.45-121.77-15.94-145.82-24.45-107.39-38.03-392.54,29.46-423.57,18.1,17.11-33.03,24.26-78.78,18.21-118.45,11.14,7.66,59.06,37.54,58.6-15.5-.97-112.05-69.53-153.31-115.23-168.18-.02,0-.04,0-.05-.01-69.97-17.04-134.53-50.97-172.8-107.97,1.68.99,4.65.95,5.19-.74,20.21-63.03-1.95-113.73-15.43-67.2-.78,2.71-2.28,2.93-3.84.59-5.23-7.89-8.73-10.35-10.59-8.93-.03-1.04-.04-2.09-.04-3.13,0-3.87,7.04-12.67,15.85-23.5,12.81-15.77,29.37-35.81,33.4-51.08,11.9-45.16,48.47-97.09,127.31-123.11-37.21,34.01-41.97,77.07-23.2,105.06,7.9,11.79,9.11,25.7,9.27,39.1-8.69,4.48-15.34,8.74-15.72,8.98.45-.09,7.08-1.55,15.75-3.77-.01,16.46-.49,31.59,9.47,40.32,19,16.65,171.03,60.08,199.99,93.57s96.83,31.67,132.12,0c35.29-31.67,27.15-70.58,38.01-63.34,11.46,7.5,53.15,28.94,60.65,44.48,7.11,56.86,0,219.55,0,219.55-2.65,29.44-21.2,89.38,126.26,112.97,51.56,8.25,76.21,96.64,76.21,96.64Z"/> <path class="cls-2 area" d="M1680,398.78v401.71c-16.02,2.3-206.12,27.82-293.01-36.36-90.74-67.03-229.89-62.44-229.89-62.44,0,0,7.11-162.69,0-219.55-.19-1.33-.41-2.67-.65-4.03-.37-2.03-.79-4.09-1.27-6.17-.16-.7-.32-1.39-.5-2.09-.17-.7-.34-1.4-.53-2.1-.18-.7-.37-1.41-.57-2.11-.19-.71-.39-1.42-.6-2.13-.61-2.13-1.28-4.28-1.99-6.45-.35-1.08-.72-2.17-1.1-3.26-.37-1.09-.76-2.18-1.15-3.28-.4-1.1-.8-2.2-1.22-3.3-.41-1.1-.84-2.2-1.27-3.31-1.16-2.96-2.37-5.92-3.63-8.9-.71-1.67-1.44-3.35-2.18-5.03-.41-.93-.83-1.86-1.25-2.8-.42-.93-.84-1.86-1.27-2.79-.43-.93-.86-1.87-1.29-2.8-1.74-3.73-3.53-7.46-5.35-11.17-.56-1.15-1.13-2.29-1.7-3.43-.61-1.23-1.23-2.46-1.84-3.69-.66-1.31-1.32-2.62-1.99-3.92-2.98-5.85-5.98-11.61-8.91-17.23-.73-1.4-1.46-2.8-2.19-4.18-1.31-2.51-2.6-4.99-3.87-7.43-.48-.92-.96-1.84-1.43-2.75-3.78-7.32-7.3-14.26-10.31-20.67,53.86-43.72,172.26-24.68,197.01-23.94.2.01.4.02.6.04.73.04,1.46.12,2.21.16,4.67.37,9.37.76,14.08,1.18,3.4.3,6.92.63,10.57.97,1.43.13,2.82.28,4.29.41,6.65.66,13.28,1.32,19.96,2.04.03,0,.06.01.09.01,8.17.87,16.39,1.78,24.57,2.75.17.01.35.03.53.06.76.09,1.52.18,2.28.27,10.17,1.22,20.34,2.49,30.52,3.83,2.16.28,4.33.57,6.5.87,2,.27,4,.55,5.99.83,8.54,1.17,17.09,2.42,25.61,3.76,2.84.44,5.68.89,8.52,1.35,1.91.31,3.81.62,5.72.94,1.91.32,3.82.64,5.72.96,2.46.43,4.92.86,7.38,1.3,10.85,1.95,21.67,4.05,32.44,6.36.02.01.05.01.07.02,5.91,1.28,11.76,2.64,17.56,4.11.55.13,1.1.27,1.65.42,2.95.76,5.92,1.54,8.84,2.38,3.18.89,6.33,1.83,9.41,2.82.86.28,1.75.55,2.59.84.13.04.27.09.4.13.53.18,1.05.35,1.57.54,5.15,1.77,9.86,3.57,14.67,5.88,47.86,31.38,115.4,30.91,119.61,30.37Z"/> <path class="cls-2 area" d="M430.86,1c25.23,41.79,82.64,360.87,83.29,381.06.61-.21,1.22-.42,1.83-.61.26-.09.51-.17.76-.24.25-.08.5-.15.76-.23.02-.01.04-.01.06-.02.42-.13.85-.25,1.27-.36.55-.16,1.1-.3,1.65-.44.53-.14,1.06-.26,1.59-.38.95-.22,1.89-.41,2.84-.58.02,0,.04-.01.06-.01.32-.06.63-.12.95-.16.01-.01.03-.01.04-.01.39-.07.77-.13,1.16-.18.54-.08,1.09-.15,1.64-.22h.03c.55-.07,1.09-.12,1.64-.17.4-.04.79-.07,1.18-.09h.02c.33-.03.68-.05,1.02-.06.41-.02.82-.04,1.22-.05.49-.02.98-.03,1.47-.03h.14c.43,0,.87.01,1.31.02.28,0,.56.01.85.03.07,0,.14,0,.21.01.33.01.66.03.99.05.14.01.27.01.41.03.39.02.77.05,1.16.09.05,0,.1,0,.15.02.54.05,1.09.11,1.63.18.37.04.75.09,1.12.16.74.11,1.48.24,2.22.39.59.11,1.18.24,1.77.38.3.08.59.15.89.22.59.15,1.18.32,1.76.5.37.11.74.22,1.1.34.26.08.51.17.76.26.17.06.34.12.51.18.24.08.48.17.72.26.15.05.29.11.44.17.49.18.97.38,1.45.59.49.2.97.42,1.45.64.82.38,1.63.78,2.44,1.21.2.11.41.21.61.33.2.11.4.22.6.33.37.21.73.42,1.1.64.23.14.45.27.68.42.34.2.67.42,1.01.64.27.18.54.36.8.54.18.11.34.23.51.35.17.12.34.24.51.36.01,0,.03.01.04.02,0,0,.01,0,.01.01.12.08.24.17.36.25.31.23.62.46.93.7.69.52,1.37,1.06,2.05,1.63.68.56,1.35,1.15,2.02,1.76,12.81-15.77,29.37-35.81,33.4-51.08,4-16.91,11.78-33.69,22.92-49.38.02-.02.04-.04.05-.06,16.74-23.57,41.07-44.72,71.59-60.28.01-.01.02-.02.03-.02.64-.32,1.28-.65,1.92-.95,19.43-9.69,41.32-17.12,65.32-21.51-.35-22.44.55-98.31,5.27-102.38,1.75-5.88,8.2,5.21,14.2,15.5.56.97,1.41,2.34,2.49,4.06.36.57.74,1.18,1.15,1.82.31.48.62.98.95,1.5.33.52.68,1.06,1.03,1.62,2.59,4.07,5.8,9.05,9.26,14.49.62.97,1.25,1.95,1.88,2.94.98,1.54,1.98,3.12,2.98,4.71.65,1.01,1.29,2.04,1.94,3.07.35.56.7,1.12,1.05,1.68.34.53.67,1.07,1,1.6,3.34,5.33,6.66,10.72,9.71,15.81.61,1.02,1.21,2.03,1.79,3.02,3.51,5.95,6.56,11.38,8.69,15.68.36.72.69,1.4.99,2.05.3.66.57,1.27.82,1.85.12.29.24.58.34.85.12.3.23.59.33.86.08.23.16.44.22.65.07.2.13.4.18.58.03.11.06.21.09.32.03.1.05.2.07.29,0,.03.02.05.02.07,6.63-.22,13.35-.29,20.09-.21.17,0,.34,0,.51.01,16.29.22,32.68,1.34,48.18,3.39.04.01.08.01.12.02h.01c.06-.07.13-.14.18-.21.03-.02.04-.03.04-.05,11.58-13.31,24.78-33.39,40.65-62.08.01-.01.02-.02.02-.03,9.17-16.57,19.23-36.02,30.38-58.7,45.57-92.66,111.65-66.08,120.77-12.91.82,4.77,1.78,9.69,2.83,14.77.42,2.04.85,4.1,1.29,6.18.31,1.47.62,2.95.94,4.44.36,1.69.73,3.4,1.09,5.13.41,1.95.83,3.92,1.24,5.91.15.74.31,1.48.46,2.22.31,1.48.61,2.97.91,4.47.15.75.3,1.51.45,2.27.23,1.14.45,2.29.67,3.44.23,1.15.44,2.31.66,3.48.29,1.56.58,3.13.85,4.71.11.59.21,1.18.31,1.77.05.25.09.5.13.75.26,1.56.52,3.13.78,4.72.15.92.29,1.84.43,2.76.24,1.55.48,3.1.69,4.67.12.84.24,1.68.35,2.52.12.84.23,1.69.34,2.55.17,1.29.33,2.6.48,3.91.16,1.31.31,2.63.44,3.96.13,1.21.25,2.43.37,3.65.04.4.07.8.11,1.21.01.1.02.2.03.31.09.97.18,1.94.25,2.92.07.72.12,1.45.17,2.18.04.4.06.79.09,1.19.02.37.05.75.08,1.13.1,1.5.2,3.02.28,4.54.06,1.07.11,2.15.16,3.24.01.25.02.51.03.77.05,1.27.1,2.54.13,3.83.05,1.44.08,2.9.1,4.36v.03c.07,2.02.1,4.08.1,6.19,0,5.03-.17,10.31-.51,15.8-.04.66-.08,1.33-.13,2-.08,1.13-.16,2.28-.26,3.43-.09,1.15-.19,2.31-.3,3.47-.03.37-.06.73-.1,1.1-.04.36-.08.73-.11,1.1-.08.81-.16,1.62-.25,2.43-.08.74-.16,1.49-.25,2.24-.08.77-.17,1.54-.27,2.32-.14,1.19-.29,2.4-.46,3.61-.15,1.21-.32,2.43-.5,3.65-.01.06-.01.11-.02.16-.17,1.17-.34,2.34-.53,3.52-.57,3.75-1.22,7.55-1.93,11.37-.46,2.46-.95,4.92-1.46,7.39-.3,1.4-.6,2.81-.91,4.22-.25,1.13-.5,2.27-.77,3.4-.36,1.57-.73,3.14-1.12,4.71-.21.88-.42,1.75-.65,2.63-.02.1-.05.21-.08.31-.31,1.28-.65,2.55-.99,3.83-.32,1.23-.65,2.46-1,3.69-.05.21-.11.43-.18.64-.3,1.11-.61,2.22-.94,3.33-.21.72-.42,1.44-.64,2.17-.42,1.43-.85,2.86-1.3,4.29-.21.69-.43,1.38-.65,2.07,0,.03-.01.06-.03.1-.28.93-.59,1.87-.9,2.8-1.65,5.05-3.42,10.07-5.32,15.02-2.54,6.87,2.88,21.3,11.68,39.62,53.86-43.72,172.26-24.68,197.01-23.94.2.01.4.02.6.04.73.04,1.46.12,2.21.16,4.67.37,9.37.76,14.08,1.18,3.4.3,6.92.63,10.57.97,1.43.13,2.82.28,4.29.41,6.65.66,13.28,1.32,19.96,2.04.03,0,.06.01.09.01,8.17.87,16.39,1.78,24.57,2.75-.53-7.33-2.86-40.59-3.89-73.17v-.04c-2.49-25.15-10.44-90.16-39.1-106.47-27.27,2.77-65.55,44.85-106.46,83.9,51.56-80.84,84.88-96.19,106.46-83.9,19.61-2,33.53,16.33,38.65,70.76.68-9.17.86-18.1.54-26.7,0-.06,0-.12-.01-.18-.05-1.41-.11-2.81-.2-4.21-.07-1.39-.17-2.78-.28-4.16-.09-1.12-.18-2.23-.28-3.34-.13-1.46-.28-2.9-.45-4.33-.08-.75-.17-1.5-.27-2.24-.14-1.08-.29-2.15-.44-3.22-.17-1.16-.34-2.31-.53-3.45-.14-.89-.29-1.77-.45-2.65-.16-.9-.32-1.79-.5-2.67-.09-.47-.18-.95-.28-1.42-.22-1.11-.46-2.21-.7-3.3-.13-.6-.27-1.2-.41-1.8-.42-1.8-.87-3.57-1.35-5.31-.32-1.16-.65-2.31-.99-3.45-.27-.89-.54-1.77-.82-2.64-.23-.72-.46-1.43-.7-2.14-.65-1.96-1.35-3.88-2.08-5.75-.24-.63-.49-1.26-.75-1.88-.25-.62-.51-1.24-.77-1.85-.28-.66-.56-1.31-.85-1.95-.29-.65-.59-1.29-.88-1.92-.26-.56-.52-1.11-.79-1.65-.25-.51-.5-1.02-.76-1.52-.51-1.01-1.04-2-1.57-2.98-.44-.8-.88-1.59-1.34-2.36-.34-.58-.68-1.16-1.03-1.72-.26-.43-.52-.85-.79-1.27-1.61-2.5-3.29-4.88-5.04-7.13-.29-.38-.59-.75-.89-1.11-.39-.49-.8-.97-1.21-1.45-.54-.64-1.09-1.26-1.65-1.87-.33-.37-.66-.73-1.01-1.08-.15-.16-.3-.32-.46-.48-1.47-1.54-3-2.99-4.58-4.36-.81-.7-1.63-1.38-2.46-2.03-.36-.16-.72-.31-1.08-.45,0-.01-.01-.01-.01-.01-131.78-49.18-157.67,154.41-158.88,174.34-19.6-160.08,97.38-225.93,159.97-173.88,52.72,22,60.93,87.07,57.25,126.56,12.46-72.36,47.46-150.46,120.1-127.02,0,0,.02,0,.03.01-31.16-1.55-62.8,19.07-77.35,69.02-6.38,21.9-12.68,72.36-16.97,112.36,6.33-42.52,19.71-56.8,37.73-54.54,21.6-12.13,54.84,3.32,106.15,83.77-40.55-38.7-78.73-80.35-106.15-83.77-29.69,16.67-37.34,85.49-39.59,109.13,2,.27,4,.55,5.99.83,8.54,1.2,17.08,2.44,25.61,3.76,2.84.44,5.68.89,8.52,1.35,1.91.31,3.81.62,5.72.94,1.91.32,3.82.64,5.72.96,2.46.42,4.92.85,7.38,1.3,10.85,1.93,21.68,4.03,32.44,6.36.02.01.05.01.07.02,5.91,1.28,11.76,2.64,17.56,4.11.55.13,1.1.27,1.65.42,2.95.76,5.92,1.54,8.84,2.38,3.18.89,6.33,1.83,9.41,2.82.86.28,1.75.55,2.59.84.13.04.27.09.4.13.53.18,1.05.35,1.57.54,5.15,1.77,9.86,3.57,14.67,5.88,47.86,31.38,115.4,30.91,119.61,30.37V1H430.86ZM1569.57,281.38s14.19-154.42-61.13-181.58c56.07,2.76,110.57,77.26,61.13,181.58Z"/> <path class="cls-2 area" d="M607.19,201.15c10.75,1.24,21.27,3.18,27.97,11.1,2.81,3.41,4.21,7.99,4.21,13.76.33,22.12-26.54,24.95-43.94,25.97-15.33.57-28.67.71-43.61-.34-20.69-1.47-41.29-8.66-40.72-32.95.12-22.68,38.94-47.35,55.93-59.7-20.49,2.01-60.47.52-60.37-27.74-.06-28.67,34.49-33.26,57.92-33.51,17.47.17,36.35.94,51.94,6.99,7.1,2.74,12.76,6.8,16.97,12.2,7.96,9.85,8.24,28.46,1.78,40.28-9.73,18.94-29.34,32.3-47.38,42.83,6.65.15,13.09.52,19.3,1.11Z"/> <path class="cls-2 area" d="M584.1,494.1c-.54,1.69-3.51,1.73-5.19.74h0c-15.25-23.36-24.04-49.12-24.66-76.28,1.86-1.42,5.36,1.04,10.59,8.93,1.56,2.34,3.06,2.12,3.84-.59,13.48-46.53,35.64,4.17,15.43,67.2Z"/> <path class="cls-2 area" d="M1109.82,184.48v.03c-1.97,17.97-31.69,70.33-50.14,80.92-19.33,11.09-32.32,57.26-28.52,80.05-26.86-50.54-136-121.53-154.95-121.53,33.3-15.66,62.1-74.5,95.7-140.52,45.57-92.66,111.65-66.08,120.77-12.91,5.23,30.54,16.44,67.08,17.14,113.96Z"/> <path class="cls-2 area" d="M773.04,207.18c2.46-12.3-4.18-94.97-2.49-100.91,1.75-5.88,8.2,5.21,14.2,15.5,6.02,10.3,44.28,67.43,46.98,79.52-21.31.66-40.83,2.7-58.69,5.89Z"/> <path class="cls-2 area" d="M798.3,322.82c-1.05.91-30.59,26.25-47.02,33.44-11.1,5.13-39.85,12.45-50.17,14.62.38-.24,7.03-4.5,15.72-8.98,7.72-3.98,17.05-8.14,25.04-9.83,16.98-3.6,55.24-28.48,56.43-29.25Z"/> <path class="cls-2 area" d="M393.07,673.16s-119.32,35.6-134.6,84.2c-13.48,42.84-25.86,87.33,3.14,150.25-17.52-3.9-35.41-7.53-53.29-10.8-55.99-71.56,77.58-276.75,144.46-283,98.88-9.23,40.29,59.35,40.29,59.35Z"/> <path class="cls-2 area" d="M682.23,651.88c-30.38,0-58.3,13.54-80.28,36.17-9.96,9.78-101.61,98.69-155.18,95.33-56.3-3.67-94.23,59.88-72.79,154.67-31.79-10.63-71.02-21.26-112.37-30.44-29-62.92-16.62-107.41-3.14-150.25,15.28-48.6,134.6-84.2,134.6-84.2,0,0,226.01-42.56,289.16-21.28Z"/> <path class="cls-2 area" d="M810.48,816.21c1.93,76.77-49.9,164.57-128.25,164.33l-9.21-.42h-.11s-229.82-10.6-229.82-10.6c0,0-19.27-37.41,27.08-72.31,1.14-.86-.18-2.61-1.4-1.87-20.33,12.47-53.03,35.84-54.5,57.93-11.3-4.96-24.93-10.09-40.29-15.22-21.44-94.79,16.49-158.34,72.79-154.67,53.31,3.47,145.24-85.54,154.96-95.11,22-22.73,50.02-36.4,80.5-36.39,73.04-1.45,130.17,81.93,128.25,164.33Z"/> <path class="cls-2 area" d="M1157.1,482.14c-7.49-15.54-49.19-36.99-60.65-44.48-10.86-7.24-2.72,31.67-38.01,63.34-35.29,31.67-103.16,33.49-132.12,0s-180.99-76.92-199.99-93.57c-9.96-8.73-9.48-23.86-9.47-40.32,10.97-2.81,25.22-6.83,34.42-10.85,16.43-7.19,45.97-32.53,47.02-33.44-1.19.77-39.45,25.65-56.43,29.25-7.99,1.69-17.32,5.85-25.04,9.83-.16-13.4-1.37-27.31-9.27-39.1-18.77-27.99-14.01-71.05,23.2-105.06,52.67-17.15,113.99-20.21,169.88-13.24-8.96,10.26-16.94,16.46-24.43,19.45,18.95,0,128.09,70.99,154.95,121.53-3.8-22.79,9.19-68.96,28.52-80.05,18.45-10.59,48.17-62.95,50.14-80.92,1.03,33.61-6.29,80.8-22.46,122.99-2.54,6.87,2.88,21.3,11.68,39.62,17.53,37.32,52,92.43,58.06,135.02Z"/> <path class="cls-2 area" d="M1508.4,99.79c-115.23-24.18-117.29,211.21-117.23,233.22-5.41-.68-10.65-1.32-15.94-1.94-.76-.09-1.52-.18-2.28-.27,1.18-4.29,2.22-10.72,3.28-18.72.1-.74.2-1.48.3-2.25.02-.12.03-.23.05-.35.06-.51.13-1.02.2-1.54.06-.48.12-.97.19-1.47,1.43-10.79,2.83-23.14,4.27-34.69.02-.13.03-.26.05-.4.99-7.51,2.09-15.38,3.35-23.46,0-.01.01-.04.01-.05,1.56-5.42,2.87-12.66,3.65-21.04v-.02c12.46-72.36,47.46-150.46,120.1-127.02Z"/> <path class="cls-2 area" d="M1508.43,99.8c-31.16-1.55-62.8,19.07-77.35,69.02-6.38,21.9-12.68,72.36-16.97,112.36,0,.03-.01.07-.01.1-2.8,26.09-4.74,47.71-5.3,54.02-1.02-.14-2.04-.27-3.05-.4-4.92-.66-9.78-1.29-14.58-1.89-.06-22.01,2-257.4,117.23-233.22,0,0,.02,0,.03.01Z"/> <path class="cls-2 area" d="M1569.57,281.38c5.15-23.42,34.21-159.81-61.13-181.58,56.07,2.76,110.57,77.26,61.13,181.58Z"/><line class="cls-2" x1="1508.44" y1="99.8" x2="1508.43" y2="99.8"/> <path class="cls-2 area" d="M1331.05,100.25c-.36-.16-.72-.31-1.08-.45,0-.01-.01-.01-.01-.01-103.98-60.18-164.73,90.8-158.88,174.34-19.6-160.08,97.38-225.93,159.97-173.88Z"/> <path class="cls-2 area" d="M1380.02,281.38c-1.07,8.63-2,16.62-2.87,23.69-.06.47-.12.94-.18,1.4-.07.5-.13.99-.19,1.47-.07.52-.14,1.03-.2,1.54-.02.12-.03.23-.05.35-.1.77-.2,1.51-.3,2.25-1.08,7.71-2.16,14.29-3.28,18.72-.18-.03-.36-.05-.53-.06-.53-7.33-2.86-40.59-3.89-73.17v-.04c-.4-12.51-.61-24.91-.45-35.71.69-9.17.86-18.1.54-26.7,0-.06,0-.12-.01-.18-.05-1.41-.11-2.81-.2-4.21-.07-1.39-.17-2.78-.28-4.16-.08-1.12-.17-2.23-.28-3.34-.13-1.46-.28-2.9-.45-4.33-.08-.75-.17-1.5-.27-2.24-.14-1.08-.28-2.15-.44-3.22-.16-1.16-.34-2.31-.53-3.45-.14-.89-.29-1.77-.45-2.65-.16-.9-.32-1.79-.5-2.67-.09-.47-.18-.95-.28-1.42-.22-1.11-.46-2.21-.7-3.3-.13-.6-.27-1.2-.41-1.8-.42-1.8-.87-3.57-1.35-5.31-.32-1.16-.65-2.31-.99-3.45-.26-.89-.54-1.77-.82-2.64-.22-.72-.46-1.43-.7-2.14-.65-1.96-1.35-3.88-2.08-5.75-.24-.63-.49-1.26-.75-1.88-.25-.62-.5-1.24-.77-1.85-.27-.66-.56-1.31-.85-1.95-.28-.65-.58-1.29-.88-1.92-.26-.56-.52-1.11-.79-1.65-.24-.51-.5-1.02-.76-1.52-.51-1.01-1.03-2-1.57-2.98-.44-.8-.88-1.59-1.34-2.36-.34-.58-.68-1.16-1.03-1.72-.26-.43-.52-.85-.79-1.27-1.59-2.51-3.27-4.89-5.04-7.13-.29-.38-.59-.75-.89-1.11-.39-.49-.8-.97-1.21-1.45-.54-.64-1.09-1.26-1.65-1.87-.33-.37-.66-.73-1.01-1.08-.15-.16-.3-.32-.46-.48-1.47-1.54-3-2.99-4.58-4.36,57.25,41.38,47.11,107.98,46.51,179.1Z"/> <path class="cls-2 area" d="M1388.3,226.81v.02c-1.36,7.09-2.57,14.14-3.65,21.04,0,.01-.01.04-.01.05-1.16,6.71-2.27,14.86-3.35,23.46-.02.14-.03.27-.05.4-.43,3.28-.84,6.48-1.22,9.6.6-71.12,10.74-137.72-46.51-179.1-.81-.7-1.63-1.38-2.46-2.03,52.72,22,60.93,87.07,57.25,126.56Z"/> <path class="cls-2 area" d="M1329.96,99.79c-131.78-49.18-157.67,154.41-158.88,174.34-5.85-83.54,54.9-234.52,158.88-174.34Z"/> <path class="cls-2 area" d="M1329.43,151.06c-27.27,2.77-65.55,44.85-106.46,83.9,51.56-80.84,84.88-96.19,106.46-83.9Z"/> <path class="cls-2 area" d="M1368.53,257.53c-2.49-25.15-10.44-90.16-39.1-106.47,19.61-2,33.53,16.33,38.65,70.76-.16,10.8.05,23.2.45,35.71Z"/> <path class="cls-2 area" d="M1451.84,226.64c-29.69,16.67-37.34,85.49-39.59,109.13-1.15-.16-2.3-.31-3.45-.47.56-6.31,2.5-27.93,5.3-54.02,0-.03.01-.07.01-.1,6.33-42.52,19.71-56.8,37.73-54.54Z"/> <path class="cls-2 area" d="M1557.99,310.41c-40.55-38.7-78.73-80.35-106.15-83.77,21.6-12.13,54.84,3.32,106.15,83.77Z"/> <path class="cls-2 area" d="M1569.57,281.38s14.19-154.42-61.13-181.58c95.34,21.77,66.28,158.16,61.13,181.58Z"/><line class="cls-2" x1="1508.44" y1="99.8" x2="1508.43" y2="99.8"/> <path class="cls-1 area" d="M635.16,212.25c2.81,3.41,4.21,7.99,4.21,13.76.42,28.76-45.34,25.84-65.24,26.41-18.75-.5-44.84.74-57.48-14.87-3.7-4.58-5.55-10.87-5.55-18.86,0-5.18,1.85-10.47,5.55-15.87,11.92-17.52,33.38-31.7,50.38-43.83-20.49,2.01-60.47.52-60.37-27.74-.06-28.67,34.49-33.26,57.92-33.51,17.47.17,36.35.94,51.94,6.99,7.1,2.74,12.76,6.8,16.97,12.2,7.96,9.85,8.24,28.46,1.78,40.28-9.73,18.94-29.34,32.3-47.38,42.83,15.05.73,37.38.28,47.27,12.21Z"/> <path class="cls-1 area" d="M373.28,107.63c4.11,4.73,3.81,15.6-1.41,19.53-9.76,8.15-27.26,7.02-39.44,7.35-12.71-.37-29.82.58-38.48-9.95-2.48-3.07-3.71-7.28-3.71-12.62,0-3.47,1.23-7.01,3.71-10.63,7.99-11.72,22.35-21.22,33.72-29.33-13.79,1.29-40.38.42-40.4-18.57-.05-19.19,23.08-22.26,38.77-22.43,11.69.11,24.34.63,34.76,4.67,4.75,1.84,8.54,4.56,11.36,8.18,5.34,6.59,5.52,19.05,1.19,26.96-6.51,12.68-19.64,21.61-31.71,28.67,10.29.56,24.73.05,31.64,8.17Z"/></svg>