<?xml version="1.0" encoding="UTF-8"?><svg id="uuid-aa003e2a-69b4-4595-a2ae-8c662e3792c6" xmlns="http://www.w3.org/2000/svg" xmlns:xlink="http://www.w3.org/1999/xlink" viewBox="0 0 99.77 52.476"><defs><style>.uuid-234e03bc-fbff-4d60-91be-02f18851036e{fill:url(#uuid-5b858623-bb9f-4e88-bced-1771eff22284);}.uuid-234e03bc-fbff-4d60-91be-02f18851036e,.uuid-d850a8bb-7a28-4f8c-93f9-3249cbdde104{stroke-width:0px;}.uuid-d850a8bb-7a28-4f8c-93f9-3249cbdde104{fill:#292425;}</style><linearGradient id="uuid-5b858623-bb9f-4e88-bced-1771eff22284" x1="26.903" y1="51.241" x2="73.899" y2="-.953" gradientUnits="userSpaceOnUse"><stop offset="0" stop-color="#ffc5de"/><stop offset=".5" stop-color="#ebebeb"/><stop offset="1" stop-color="#ff922b"/></linearGradient></defs><path class="uuid-d850a8bb-7a28-4f8c-93f9-3249cbdde104" d="M99.77,27.236c0,1.96-.87,3.79-2.38,5.03l-23.52,19.3c-.75.61-1.65.91-2.54.91-1.16,0-2.3-.5-3.09-1.47-1.4-1.7-1.16-4.22.55-5.63l17.24-14.14H4c-2.21,0-4-1.79-4-4s1.79-4,4-4h82.03l-17.24-14.14c-1.71-1.4-1.95-3.92-.55-5.63,1.4-1.71,3.92-1.96,5.63-.56l23.52,19.3c1.51,1.25,2.38,3.08,2.38,5.03Z"/><path class="uuid-234e03bc-fbff-4d60-91be-02f18851036e" d="M99.77,25.236c0,1.96-.87,3.79-2.38,5.03l-23.52,19.3c-.75.61-1.65.91-2.54.91-1.16,0-2.3-.5-3.09-1.47-1.4-1.7-1.16-4.22.55-5.63l17.24-14.14H4c-2.21,0-4-1.79-4-4s1.79-4,4-4h82.03l-17.24-14.14c-1.71-1.4-1.95-3.92-.55-5.63,1.4-1.71,3.92-1.96,5.63-.56l23.52,19.3c1.51,1.25,2.38,3.08,2.38,5.03Z"/></svg>