<svg id="uuid-9384b29b-f736-4400-b33d-9ee405603e14" xmlns="http://www.w3.org/2000/svg" xmlns:xlink="http://www.w3.org/1999/xlink" viewBox="0 0 1676.03 990.24"><defs><linearGradient id="uuid-f0032efd-2a08-45a5-8b37-55c558deadf2" x1="301.18" y1="456.27" x2="366.01" y2="435.5" gradientUnits="userSpaceOnUse"><stop offset="0" stop-color="#191818"/><stop offset=".27" stop-color="#5b5958"/><stop offset=".62" stop-color="#adaaa9"/><stop offset=".88" stop-color="#e1dedc"/><stop offset="1" stop-color="#f6f2f0"/></linearGradient><linearGradient id="uuid-38b40f6e-e9cd-4ed6-aa6f-5c77707578f6" x1="311.2" y1="466.42" x2="362.52" y2="449.98" gradientUnits="userSpaceOnUse"><stop offset="0" stop-color="#191818"/><stop offset=".27" stop-color="#5b5958"/><stop offset=".62" stop-color="#adaaa9"/><stop offset=".88" stop-color="#e1dedc"/><stop offset="1" stop-color="#f6f2f0"/></linearGradient><linearGradient id="uuid-0836b257-5bda-4edc-a769-29ec36b3134c" x1="331.67" y1="467.1" x2="373.66" y2="453.66" xlink:href="#uuid-f0032efd-2a08-45a5-8b37-55c558deadf2"/><linearGradient id="uuid-9ddd6681-c8be-4e7e-a01d-1a7d2746b77d" x1="473.42" y1="395.64" x2="409.76" y2="419.78" xlink:href="#uuid-f0032efd-2a08-45a5-8b37-55c558deadf2"/><linearGradient id="uuid-ea2ab55a-1f0a-4816-8191-07a51bbf0f59" x1="471.91" y1="409.83" x2="421.51" y2="428.93" xlink:href="#uuid-38b40f6e-e9cd-4ed6-aa6f-5c77707578f6"/><linearGradient id="uuid-2104b3ff-4ff7-4965-850c-b4dea66d3523" x1="456.31" y1="423.12" x2="415.09" y2="438.74" xlink:href="#uuid-f0032efd-2a08-45a5-8b37-55c558deadf2"/><radialGradient id="uuid-926e4f39-f1e1-495b-8190-8cf4bf6aa8d1" cx="315.79" cy="406.99" fx="315.79" fy="406.99" r="14.04" gradientTransform="rotate(-17.8 327.86 301.13)" gradientUnits="userSpaceOnUse"><stop offset="0" stop-color="#fdec51"/><stop offset=".17" stop-color="#f8e54d"/><stop offset=".39" stop-color="#ebd545"/><stop offset=".64" stop-color="#d6b937"/><stop offset=".91" stop-color="#b89224"/><stop offset=".99" stop-color="#af861e"/></radialGradient><radialGradient id="uuid-48fef272-5ee6-437e-b445-99468a8f0a32" cx="1248.47" cy="382.57" fx="1248.47" fy="382.57" r="14.04" gradientTransform="rotate(159.2 756.89 -75.65)scale(1 -1)" xlink:href="#uuid-926e4f39-f1e1-495b-8190-8cf4bf6aa8d1"/><style>.uuid-3a1e6bb6-8ab8-4cf2-ad5e-675d8ffb24f6,.uuid-5e781314-34b0-410c-956d-eab4f60d5cdd,.uuid-be836aa3-3e32-489d-a940-dc8ac3b9cc5c,.uuid-cf80a288-ddf9-44b2-af07-14a5835fff03,.uuid-f75c3e35-b379-4407-870e-f15b649216ec{stroke-width:0}.uuid-f75c3e35-b379-4407-870e-f15b649216ec{fill:#ebebeb}.uuid-cf80a288-ddf9-44b2-af07-14a5835fff03{fill:#292425}.uuid-ba994c72-e9bf-4c29-932b-6110d7de1e74{stroke-width:1.12px;fill:none;stroke:#191818}.uuid-3441069b-e742-460d-a18e-a4e2b071a504,.uuid-5c1d4477-2e54-4db8-a011-d3b9038e52ac{fill:none;stroke:#191818}.uuid-3441069b-e742-460d-a18e-a4e2b071a504,.uuid-5c1d4477-2e54-4db8-a011-d3b9038e52ac,.uuid-b14965b0-3779-4504-bf6d-aeca9b990d5c,.uuid-ba994c72-e9bf-4c29-932b-6110d7de1e74{stroke-miterlimit:10}.uuid-3441069b-e742-460d-a18e-a4e2b071a504{stroke-width:.93px}.uuid-be836aa3-3e32-489d-a940-dc8ac3b9cc5c{fill:#191818}.uuid-5e781314-34b0-410c-956d-eab4f60d5cdd{fill:#ccc}.uuid-3a1e6bb6-8ab8-4cf2-ad5e-675d8ffb24f6{fill:#f6f2f0}.uuid-b14965b0-3779-4504-bf6d-aeca9b990d5c{fill:#ebebeb;stroke:#ccc;stroke-width:.8px}</style></defs><path class="uuid-f75c3e35-b379-4407-870e-f15b649216ec" d="M487.44 309.91h560v497.88h-560z"/><path class="uuid-cf80a288-ddf9-44b2-af07-14a5835fff03" d="M490.44 448.25a319 319 0 0 0 13.95-30.26q-.68 4.94-1.48 9.66a571 571 0 0 1-12.47 56.18z"/><path class="uuid-cf80a288-ddf9-44b2-af07-14a5835fff03" d="M497.39 441.17a573 573 0 0 1-3.95 18.53v-10.72a300 300 0 0 0 3.95-7.81m12.11-42.4c-1.87 1.75-2.52 3.64-3.18 5.52a317 317 0 0 1-18.88 43.21v57.25a584 584 0 0 0 18.43-76.6q1.23-7.34 2.14-14.71c.6-4.88 1.01-9.77 1.5-14.66ZM885.43 807.34c-27.86-1.16-47.41-1.16-71.8-1.16-25.87 0-55.2 0-103.78-1.38h-159.9c.55-.98.95-1.93 1.17-2.68 2.83-9.7 5.87-19.55 8.81-29.07 7.22-23.36 14.68-47.51 19.71-71.82 13.87-66.93 18.45-134.08 13.62-199.59-4.67-63.3-18.25-126.77-40.39-188.73h81.34a952 952 0 0 1 11.13 18.1c21.73 36.2 41.38 74.65 60.05 117.55.67 1.53 158.69 316.42 180.05 358.79Zm-394.99-2.54V528.95a609 609 0 0 0 21.27-88.8 554 554 0 0 0 3.38-26.88l.6-5.45c.99-8.92 2.07-18 3.1-26.77 2.63-22.3 5.35-45.33 7.06-68.13h12.88c25.91 82.38 37.27 165.14 33.78 245.99-3.54 81.99-22.49 164.72-56.3 245.9z"/><path class="uuid-cf80a288-ddf9-44b2-af07-14a5835fff03" d="M632.54 315.91a1081 1081 0 0 1 10.22 16.64c21.66 36.09 41.25 74.42 59.87 117.2.64 1.48 149.23 297.57 177.83 354.39-25.27-.96-43.92-.96-66.84-.96-25.85 0-55.15 0-103.7-1.38h-155.6c2.73-9.31 5.64-18.74 8.46-27.87 7.24-23.42 14.72-47.64 19.78-72.09 13.92-67.2 18.52-134.64 13.67-200.42-4.59-62.2-17.75-124.57-39.14-185.51h75.43m-95.99 0a753 753 0 0 1 27.01 119.56 683 683 0 0 1 5.97 123.29 684 684 0 0 1-16.76 123.12c-9.15 39.85-22.11 80.18-38.55 119.91h-20.77V529.4a612 612 0 0 0 21.24-88.8c1.43-9.01 2.43-18.16 3.4-27.02l.6-5.45c.99-8.91 2.06-17.98 3.1-26.74 2.53-21.43 5.14-43.54 6.86-65.49h7.9m99.33-5.99H548.6c45.71 125.71 56.04 255.91 28.11 390.71-7.06 34.06-18.71 67.17-28.47 100.66-.68 2.34-3.14 5.72-5 5.87-3.71.3-7.44.39-11.26.39-4.38 0-8.88-.11-13.61-.11 69.4-165.68 75.48-330.89 22.57-497.52h-17.88l-.06.99c-2.34 32.27-6.7 64.39-10.28 96.57-1.2 10.74-2.27 21.52-3.96 32.19a603 603 0 0 1-21.31 88.81v279.32h222.32c97.26 2.77 119.5 0 180.66 2.77-.55-.97-181.84-362.19-182.28-363.21-17.65-40.54-37.47-79.98-60.23-117.9q-5.93-9.86-12.05-19.55ZM1044.44 503.57c-37.26-59.74-91.81-123.8-162.35-190.65h162.35z"/><path class="uuid-cf80a288-ddf9-44b2-af07-14a5835fff03" d="M1041.44 315.91v177.34c-36.17-55.89-87.13-115.42-151.85-177.34zm6-6h-172.9c68.48 64.28 131.15 134.56 172.9 204.31zM935.56 804.79l-223.2-422.28-6.16-9.99q-7.37-11.97-14.78-23.92a1040 1040 0 0 0-23.19-35.69h172.63c65.77 66.18 154.06 163.38 203.57 252.79v239.1z"/><path class="uuid-cf80a288-ddf9-44b2-af07-14a5835fff03" d="M839.62 315.91c41.25 41.55 78.13 81.87 109.62 119.86 39.4 47.53 70.41 91.49 92.2 130.7v235.32H937.38L715.07 381.2l-.09-.18-.1-.17-6.12-9.93c-4.83-7.84-9.83-15.94-14.77-23.91a1053 1053 0 0 0-20.09-31.11h165.73m2.49-5.99H662.56q13.59 19.76 26.32 40.27c6.99 11.26 13.92 22.54 20.88 33.82l224 423.79h113.68V564.92c-48.24-87.43-132.86-182.19-205.32-255.01"/><path class="uuid-f75c3e35-b379-4407-870e-f15b649216ec" d="m.02 184.72 164.25 470.06.02.05 528.65-184.72L528.68 0z"/><path class="uuid-cf80a288-ddf9-44b2-af07-14a5835fff03" d="M635.68 315.33a318 318 0 0 0-26.05-20.06 781 781 0 0 1 22.11 8.78z"/><path class="uuid-cf80a288-ddf9-44b2-af07-14a5835fff03" d="M591.06 285.53c.94 1.86 2.24 2.67 3.54 3.48a314 314 0 0 1 47.73 36.25l-8.2-23.47a745 745 0 0 0-36.51-14.15c-2.16-.77-4.37-1.42-6.55-2.12ZM163.08 389.43a937 937 0 0 1 8.78-24.45c30.67-80.92 68.55-148.75 115.83-207.36 41.23-51.12 86.19-89.63 137.43-117.73a55 55 0 0 1 8.28-3.41l93.44-32.66 32.35 92.57a369 369 0 0 0-29 10.61C427.7 150.28 335.77 211.69 256.97 289.51c-7.1 7.01-15.05 13.48-22.75 19.73-6.22 5.06-12.65 10.28-18.67 15.82-20.03 18.43-37.62 40.01-52.46 64.35Z"/><path class="uuid-cf80a288-ddf9-44b2-af07-14a5835fff03" d="m524.99 7.65 30.35 86.86a356 356 0 0 0-26.33 9.75 879 879 0 0 0-145.85 78.39 872 872 0 0 0-128.31 104.76c-6.99 6.91-14.89 13.33-22.54 19.54a400 400 0 0 0-18.81 15.94 295 295 0 0 0-39.3 44.39l.46-1.21c30.55-80.62 68.29-148.18 115.36-206.54C331 108.72 375.67 70.45 426.56 42.55c2.37-1.3 5.27-2.31 7.83-3.21l90.6-31.67M528.68 0l-96.27 33.65a59 59 0 0 0-8.73 3.61c-54.39 29.82-99.58 70.44-138.32 118.47-50.63 62.77-87.84 133.07-116.3 208.18-5.94 15.68-11.18 31.63-16.74 47.45 2.24-.9 3.11-2.36 3.91-3.86 16.04-30.11 36.24-57.12 61.36-80.23 13.41-12.34 28.56-22.85 41.5-35.63 79.11-78.13 169.94-138.67 272.28-181.88a378 378 0 0 1 31.68-11.46z"/><path class="uuid-cf80a288-ddf9-44b2-af07-14a5835fff03" d="M293.95 271c80.54-66.8 172.44-117.7 273.35-151.37l31.7 90.72c-65.71 1.15-129.15 10.47-188.64 27.71-8.45 2.45-17.46 3.84-26.17 5.18-5.05.78-10.27 1.58-15.38 2.59A309 309 0 0 0 293.94 271Z"/><path class="uuid-cf80a288-ddf9-44b2-af07-14a5835fff03" d="m565.45 123.42 29.36 84.02c-64.5 1.47-126.79 10.79-185.28 27.74-8.26 2.39-16.78 3.71-25.79 5.1-5.08.78-10.33 1.59-15.5 2.61a308 308 0 0 0-54.8 16.24 835 835 0 0 1 107.99-72.02 857 857 0 0 1 144.02-63.69m3.71-7.57c-105.4 34.78-201.02 87.83-286.03 160.33-2.08 1.77-4.09 3.62-6.14 5.44q.83.22 1.48.21c.94 0 1.63-.29 2.29-.65 27.91-15.28 57.41-26.24 88.63-32.4 13.92-2.74 28.25-3.91 41.81-7.83 62.85-18.21 126.9-26.85 192.01-27.65z"/><path class="uuid-cf80a288-ddf9-44b2-af07-14a5835fff03" d="M625.6 286.48a558 558 0 0 0-19.83-6.05c-5.76-1.68-11.71-3.41-17.48-5.28a2331 2331 0 0 1-51.69-17.42 348 348 0 0 0-82.26-18.01 740 740 0 0 1 123.14-10.42c9.4 0 18.92.19 28.34.55z"/><path class="uuid-cf80a288-ddf9-44b2-af07-14a5835fff03" d="M577.47 232.3c8.68 0 17.47.16 26.18.47l17.12 49a737 737 0 0 0-14.17-4.22 596 596 0 0 1-17.4-5.26 2258 2258 0 0 1-51.62-17.4 346 346 0 0 0-61.69-15.47 735 735 0 0 1 101.57-7.12m.01-6q-64.41-.01-129.17 11.42-4 .72-7.95 1.62c-2.58.57-5.13 1.24-7.69 1.86 35.53 1.56 69.72 7.69 102.94 19.36A2295 2295 0 0 0 587.36 278c12.85 4.16 25.99 7.48 38.79 11.83l4.31 1.49-22.5-64.38a739 739 0 0 0-30.5-.64ZM3.82 186.52c27.43-9.49 55.22-19.21 82.12-28.63l30.99-10.84 3.31-1.15c-1.75 7.89-3.54 15.77-5.28 23.42-4.78 21.02-9.29 40.88-13.07 61.37-12.74 69.13-17.34 133.66-13.98 196.48z"/><path class="uuid-cf80a288-ddf9-44b2-af07-14a5835fff03" d="M116.14 150.51q-2.06 9.2-4.1 18.14c-4.58 20.13-9.31 40.95-13.09 61.49-11.43 62.01-16.33 120.33-14.83 177.05L7.65 188.37c26.52-9.18 53.33-18.56 79.32-27.66zm8.18-9.22-8.38 2.93C77.3 157.72 38.69 171.29 0 184.67l92.44 264.55c-6.13-72.8-.96-145.49 12.4-217.98 5.5-29.86 12.81-59.39 19.48-89.94ZM108.57 486.28c-7.18-82.04-.04-165.08 21.82-253.82 5.99-24.3 13.57-48.69 20.91-72.28 2.46-7.91 5-16.1 7.45-24.16.58-1.9 2.71-4.31 4.31-4.88 51-18.05 102.93-36.18 153.15-53.71l14.85-5.19-2.04 2.07a800 800 0 0 0-21.24 22.02c-45.15 49.29-82.48 107.63-114.15 178.36-23.06 51.51-40.8 104.22-52.73 156.66-1.22 5.36-3.21 10.5-5.31 15.93a183 183 0 0 0-3.87 10.63c-4.24 13.24-8.06 34.07-11.39 62.04l-11.76-33.66Z"/><path class="uuid-cf80a288-ddf9-44b2-af07-14a5835fff03" d="M319.85 79.33a588 588 0 0 0-14.27 14.97c-45.37 49.53-82.88 108.13-114.67 179.16-23.14 51.69-40.94 104.59-52.92 157.22-1.17 5.15-3.12 10.18-5.19 15.51-1.35 3.49-2.75 7.1-3.93 10.79-3.62 11.32-6.94 28.06-9.91 49.94l-7.44-21.28a720 720 0 0 1 .39-126.54c3.68-40.87 10.87-83.24 21.39-125.93 5.97-24.22 13.54-48.57 20.86-72.11 2.46-7.92 5.01-16.1 7.46-24.18a6.3 6.3 0 0 1 2.44-2.92 38713 38713 0 0 1 153.02-53.67zm21.87-13.65c-2.03.53-3.03.72-3.97 1.05-58.58 20.46-117.18 40.87-175.68 61.58-2.59.92-5.36 4.13-6.18 6.84-9.75 32.12-20.38 64.04-28.4 96.59-20.71 84.04-29.45 169.1-21.87 255.18l16.23 46.45c2.62-24.78 6.73-55.77 12.74-74.55 2.88-9 7.17-17.65 9.25-26.81 12.24-53.82 30.01-105.77 52.54-156.1 29.02-64.82 65.45-124.96 113.62-177.56 9.98-10.89 20.57-21.22 31.71-32.67Z"/><path class="uuid-be836aa3-3e32-489d-a940-dc8ac3b9cc5c" d="M407.74 313.16c14.06-29.1 27.17 6.26 27.15 14.3-.02 6.64.65 12.38 1.5 17.47l.01.09c.73 4.52-3.4 15.15-11.3 18.07a72 72 0 0 0-27.19-10.07c-5.08-8.07-.06-20.01.22-20.67v-.03a436 436 0 0 0 9.62-19.16Z"/><path class="uuid-cf80a288-ddf9-44b2-af07-14a5835fff03" d="M437.61 374.58a51 51 0 0 1 8.1 14.76c3.3 9.45 3.55 19.69 1.38 29.16 1.95 13.77 1.11 36.33 10.78 46.79s17.87 18.44 23.22 33.73c3.25 9.29 12.14 12.67 26.52 35.47l-147.84 51.66a1775 1775 0 0 0-13.23-39.81c-11.71-33.52.6-46.55 2.38-55.17 1.79-8.61-6.13-18.45-11.5-32.92a52 52 0 0 1-18.35-24.64 51 51 0 0 1-2.84-16.82c-.16-3.83-8.22-14.26-16.04-24.73 3.96 2.32 11.48 7.98 20 4.42 3.19-8.55 7.38-14.87 14.31-21.72-.31-5.5-2.76-12.16-11.09-19.3 8.63 5.63 15.61 9.72 39.84 1.26 21.18-7.4 25.65-7.56 34.87-24.35-.29.66-5.3 12.6-.22 20.67a72 72 0 0 1 27.19 10.07c7.9-2.92 12.03-13.55 11.3-18.07 2.1 12.65 5.21 21.26 1.22 29.55Z"/><path class="uuid-be836aa3-3e32-489d-a940-dc8ac3b9cc5c" d="M323.41 355.45c8.33 7.14 10.77 13.8 11.09 19.3-6.93 6.85-11.12 13.16-14.31 21.72-8.52 3.56-16.04-2.1-20-4.42-2.7-3.62-5.36-7.26-7.67-10.62-9.11-13.3-22.7-44.79 13.94-34.32 7.73 2.21 12.56 5.47 16.96 8.33Z"/><path class="uuid-5c1d4477-2e54-4db8-a011-d3b9038e52ac" d="M437.2 374.08a51 51 0 0 1 8.52 15.26c3.3 9.45 3.55 19.69 1.39 29.15M397.89 353.03c9.42 1.36 19.69 5.22 27.2 10.07M320.19 396.46c3.19-8.55 7.38-14.86 14.31-21.72M337.41 458.25a52 52 0 0 1-18.35-24.65 51 51 0 0 1-2.84-17.7"/><path class="uuid-5c1d4477-2e54-4db8-a011-d3b9038e52ac" d="M316.23 417c.2-4.87-14.6-22.27-23.71-35.58s-22.7-44.8 13.93-34.32c22.95 6.56 20.27 22.37 56.8 9.6 27.27-9.53 26.85-7.05 44.48-43.54 14.06-29.1 27.17 6.26 27.14 14.29-.08 23.21 8.35 35.47 2.72 47.13"/><path class="uuid-5c1d4477-2e54-4db8-a011-d3b9038e52ac" d="M398.13 332.32s-5.46 12.4-.24 20.7M323.41 355.44c8.33 7.15 10.77 13.81 11.09 19.3M300.19 392.05c3.95 2.32 11.47 7.97 19.99 4.41M436.38 344.94c.8 4.47-3.33 15.22-11.29 18.16"/><path d="M391.97 433.63c12.05-14.21 3.49-26.7-4.64-16.45a1.9 1.9 0 0 1-2.01.65c-12.61-3.61-12.96 11.74 5.08 16.31a1.6 1.6 0 0 0 1.57-.5Z" stroke-width="0" fill="#4c4345"/><path d="M362.56 401.18c2.27 7.08-2.11 14.82-9.78 17.27s-18-8.37-18-8.37 2.11-14.82 9.78-17.27c7.67-2.46 15.73 1.29 18 8.37" stroke-width="0" fill="url(#uuid-926e4f39-f1e1-495b-8190-8cf4bf6aa8d1)"/><path class="uuid-be836aa3-3e32-489d-a940-dc8ac3b9cc5c" d="M362.56 401.18c2.41 7.03-2.3 14.82-9.07 17.29-7.01 2.57-14.26-3.52-19.08-8.03l-.18-.18.04-.25c1.3-6.47 3.67-15.64 10.87-17.63 6.94-1.93 15.3 1.68 17.43 8.8Zm0 0c-2.18-7.04-10.53-10.5-17.3-8.32-3.48.91-5.6 4.11-7.03 7.21a39 39 0 0 0-2.95 10.09l-.14-.43c4.44 4.27 11.58 10.49 18.17 8.28 6.77-2.16 11.56-9.83 9.24-16.83Z"/><path class="uuid-cf80a288-ddf9-44b2-af07-14a5835fff03" d="M352.92 404.23c1.68 4.82-.65 10.01-.65 10.01s-5.06-2.61-6.75-7.43.65-10.01.65-10.01 5.06 2.61 6.75 7.43"/><circle class="uuid-3a1e6bb6-8ab8-4cf2-ad5e-675d8ffb24f6" cx="350.29" cy="400.32" r="1.31"/><path d="M392.39 390.76c2.64 6.95 10.88 10.28 18.41 7.42s8.87-17.76 8.87-17.76-10.88-10.28-18.41-7.42-11.5 10.81-8.87 17.76" stroke-width="0" fill="url(#uuid-48fef272-5ee6-437e-b445-99468a8f0a32)"/><path class="uuid-be836aa3-3e32-489d-a940-dc8ac3b9cc5c" d="M392.39 390.76c2.54 6.92 11.06 9.94 17.71 7.41 3.42-1.09 5.38-4.4 6.64-7.57a39 39 0 0 0 2.42-10.23l.16.42c-4.66-4.03-12.12-9.86-18.58-7.32-6.65 2.51-11.03 10.42-8.35 17.28Zm0 0c-2.77-6.9 1.52-14.92 8.15-17.74 6.87-2.93 14.43 2.77 19.48 7.02l.19.17-.03.25c-.96 6.53-2.85 15.81-9.93 18.17-6.83 2.29-15.37-.87-17.86-7.87"/><path class="uuid-cf80a288-ddf9-44b2-af07-14a5835fff03" d="M401.83 387.14c1.68 4.82 6.75 7.43 6.75 7.43s2.33-5.2.65-10.01c-1.68-4.82-6.75-7.43-6.75-7.43s-2.33 5.2-.65 10.01"/><ellipse class="uuid-3a1e6bb6-8ab8-4cf2-ad5e-675d8ffb24f6" cx="400.47" cy="382.79" rx="2.34" ry="1.31" transform="rotate(-19.3 400.5 382.79)"/><path d="M363.6 427.98a308 308 0 0 0-8.31 3.13q-4.14 1.6-8.22 3.33a229 229 0 0 0-16.08 7.42c-5.26 2.66-10.4 5.6-15.17 9.04a49 49 0 0 0-6.74 5.67 24 24 0 0 0-5.09 7.16c.98-2.81 2.75-5.28 4.72-7.51 2-2.21 4.28-4.15 6.64-5.96 4.74-3.61 9.92-6.57 15.18-9.32a195 195 0 0 1 33.07-12.97Z" fill="url(#uuid-f0032efd-2a08-45a5-8b37-55c558deadf2)" stroke-width="0"/><path d="M358.16 436.91c-1.95 1.61-3.94 3.16-5.87 4.78q-2.94 2.38-5.81 4.84a283 283 0 0 0-11.32 10.01q-5.6 5.1-10.69 10.64a74 74 0 0 0-4.84 5.77c-1.48 2.02-2.92 4.1-3.83 6.47.7-2.45 2.07-4.62 3.42-6.76q2.17-3.13 4.66-6c3.3-3.85 6.91-7.4 10.59-10.87a220 220 0 0 1 11.52-9.86c3.96-3.14 8-6.17 12.18-9.01Z" stroke-width="0" fill="url(#uuid-38b40f6e-e9cd-4ed6-aa6f-5c77707578f6)"/><path d="M368.11 436.9c-3.74 3.09-7.4 6.27-10.84 9.66a96 96 0 0 0-9.63 10.78 56 56 0 0 0-7.38 12.34 32.4 32.4 0 0 0-2.72 14.07c-.33-2.41-.26-4.87.08-7.29a35 35 0 0 1 1.9-7.08c1.75-4.59 4.39-8.76 7.3-12.67a87 87 0 0 1 9.91-10.73q2.7-2.47 5.53-4.75 2.86-2.27 5.85-4.34Z" stroke-width="0" fill="url(#uuid-0836b257-5bda-4edc-a769-29ec36b3134c)"/><path d="M406.97 412.4a195.06 195.06 0 0 1 33.95-10.45c5.82-1.13 11.72-2.04 17.68-2.16 2.97-.05 5.96.05 8.91.53 2.92.52 5.85 1.34 8.37 2.93a24 24 0 0 0-8.44-2.43 49 49 0 0 0-8.81-.24c-5.88.29-11.73 1.18-17.5 2.38a222 222 0 0 0-17.2 4.21q-4.27 1.2-8.5 2.52-4.24 1.3-8.45 2.72Z" stroke-width="0" fill="url(#uuid-9ddd6681-c8be-4e7e-a01d-1a7d2746b77d)"/><path d="M416.78 415.99c5.04-.38 10.09-.53 15.14-.54s10.11.2 15.15.54c5.04.42 10.08.96 15.05 1.91q3.74.7 7.38 1.8c2.39.83 4.82 1.68 6.89 3.16a29 29 0 0 0-7.03-2.67 71 71 0 0 0-7.38-1.5q-7.45-1.17-14.99-1.67a292 292 0 0 0-15.09-.78q-3.78-.13-7.56-.16c-2.52-.07-5.04-.04-7.57-.09Z" stroke-width="0" fill="url(#uuid-ea2ab55a-1f0a-4816-8191-07a51bbf0f59)"/><path d="M408.99 422.18c2.42-.18 4.85-.23 7.28-.25q3.64.03 7.29.27 7.3.51 14.44 2.22c4.71 1.25 9.38 2.86 13.6 5.37 2.1 1.25 4.1 2.69 5.9 4.35a27 27 0 0 1 4.6 5.65 32.4 32.4 0 0 0-10.89-9.31 56 56 0 0 0-13.46-5.06 98 98 0 0 0-14.25-2.44c-4.81-.51-9.65-.72-14.5-.81Z" stroke-width="0" fill="url(#uuid-2104b3ff-4ff7-4965-850c-b4dea66d3523)"/><ellipse class="uuid-3a1e6bb6-8ab8-4cf2-ad5e-675d8ffb24f6" cx="404.48" cy="507.79" rx="23.38" ry="10.64" transform="rotate(-38.5 404.5 507.8)"/><path class="uuid-b14965b0-3779-4504-bf6d-aeca9b990d5c" d="M414.77 486.28c-6.4 2.59-17.6 5.4-20.02 4-4.73-3.99-9.99-20.38-8.08-24.19 3.25-3.68 13.27-6.2 19.22-5.22-.89 4.3 1.15 17.05 8.88 25.41Z"/><path class="uuid-b14965b0-3779-4504-bf6d-aeca9b990d5c" d="M452.01 493.57c-4.29 3.22-34.45-2.4-37.24-7.28-7.73-8.36-9.77-21.11-8.88-25.41.86-2.78 21.63-21.37 26.1-22.62 7.42-2.07 28.74 48.78 20.02 55.32ZM394.75 490.28c-5.81 5.01-17.82 29.65-26.59 24.04-11.99-7.67-22.24-47.87-14.81-50.36 3.55-1.18 25.82 4.23 33.32 2.12-1.91 3.81 3.35 20.2 8.08 24.19Z"/><path class="uuid-5e781314-34b0-410c-956d-eab4f60d5cdd" d="M358.96 476.51c3.8.87 7.71.67 11.58.6 3.38-.1 8.24-.36 11.66-.52a70 70 0 0 1-11.64 1.32c-3.88.04-7.95.08-11.6-1.4M368.33 500.82c.99-3.38 3.77-5.89 6.28-8.22a52 52 0 0 1 8.46-6.03l-4 3.29c-2.64 2.2-5.28 4.4-7.68 6.86a17 17 0 0 0-3.06 4.1M411.66 463.51c3.14-1.59 7.04-4.91 9.89-7.03 2.84-2.19 6.81-5.33 9.67-7.41a102 102 0 0 1-9.18 8.04c-3.25 2.41-6.52 5.04-10.38 6.4M416.23 476.57c4.65-1.22 9.52.2 14.08 1.17a96 96 0 0 1 13.45 4.56c-4.04-1.13-9.64-2.8-13.65-3.79-4.53-1.05-9.2-2.51-13.88-1.95Z"/><path class="uuid-f75c3e35-b379-4407-870e-f15b649216ec" d="M526.05 442.03h560v497.98h-560z"/><path class="uuid-cf80a288-ddf9-44b2-af07-14a5835fff03" d="M589.31 937a817 817 0 0 0-29.96-70.95c-2.51-5.24-3.95-10.96-5.47-17.02-.8-3.17-1.62-6.44-2.61-9.63a314 314 0 0 0-22.21-53.57v-17.34c52.26 47.78 98.13 103.01 139.96 168.52z"/><path class="uuid-cf80a288-ddf9-44b2-af07-14a5835fff03" d="M532.05 775.34a787 787 0 0 1 69.72 74.13A901 901 0 0 1 663.51 934h-72.12a816 816 0 0 0-29.35-69.25c-2.38-4.97-3.78-10.55-5.27-16.46-.81-3.21-1.64-6.52-2.65-9.79a317 317 0 0 0-22.08-53.42zm-5.99-13.61v24.86a311 311 0 0 1 22.35 53.72c2.8 9.01 4.22 18.65 8.24 27.06a808 808 0 0 1 30.57 72.66h87.26c-41.68-66.04-90.37-126.15-148.42-178.29ZM564.83 937c.48-10.78-.13-21.58-.79-32.93A863 863 0 0 1 575.43 937z"/><path class="uuid-cf80a288-ddf9-44b2-af07-14a5835fff03" d="M567.95 924.02q1.71 5 3.35 9.98h-3.36q.13-4.98.01-9.98m-7.84-38.7c.64 19.39 2.7 37.17 1.56 54.68h17.88a860 860 0 0 0-19.44-54.68M1083.05 716.13c-200.36-128.79-440.56-169.19-554-172.87v-98.23h554z"/><path class="uuid-cf80a288-ddf9-44b2-af07-14a5835fff03" d="M1080.05 448.02v262.63c-198.27-125.75-433.98-166.04-548-170.3v-92.33h548m6-6h-560v104.14c111.4 3.06 356.69 42.97 560 175.48z"/><path class="uuid-cf80a288-ddf9-44b2-af07-14a5835fff03" d="M914.34 937c-64.79-60.73-143.46-123.87-221.65-177.89-63.67-43.99-122.82-78.85-150.7-88.81a881 881 0 0 0-12.94-4.5v-98c7.58.16 15 .4 22.1.72 66.24 2.98 199 29.62 306.51 69.04 55.1 20.2 173.91 96.4 212.95 121.45 7 4.49 10.53 6.76 12.44 7.92v170.08z"/><path class="uuid-cf80a288-ddf9-44b2-af07-14a5835fff03" d="M532.05 570.87c6.49.15 12.84.37 18.97.65 33.31 1.5 82.82 8.94 135.83 20.42 41.92 9.07 105.41 24.84 169.78 48.44 54.79 20.09 173.39 96.15 212.36 121.15 5.39 3.46 8.81 5.65 11.06 7.05v165.43H915.52c-64.73-60.58-143.17-123.49-221.13-177.36-63.87-44.12-123.29-79.12-151.39-89.17a743 743 0 0 0-10.94-3.82zm-6.01-6.12v103.22q7.48 2.5 14.93 5.17c50.96 18.21 224.99 128.71 372.17 266.87h172.9V765.2c-1.54-.16-160.25-105.85-227.36-130.46-110.32-40.45-242.07-66.27-307.4-69.22q-12.64-.56-25.24-.78Z"/><path class="uuid-cf80a288-ddf9-44b2-af07-14a5835fff03" d="M702.75 937c-50.5-73.18-108.93-136.37-173.7-187.84v-62.32A748 748 0 0 1 655 752.47c20.69 13.4 40.76 28.62 60.17 43.33 9 6.82 18.3 13.87 27.56 20.66q1.37.99 2.73 1.84l1.11.72c3.11 2.63 59.48 50.61 126.93 117.97z"/><path class="uuid-cf80a288-ddf9-44b2-af07-14a5835fff03" d="M532.05 691.31A745 745 0 0 1 653.37 755c20.6 13.34 40.62 28.52 59.99 43.2 9 6.83 18.32 13.88 27.58 20.68.98.72 1.95 1.34 2.88 1.94l.94.61c4.19 3.56 57.21 48.78 121.47 112.56H704.32a925 925 0 0 0-79-99.17 829 829 0 0 0-93.27-87.11zm-6-8.88v68.2c68.49 54.22 126.07 118.06 175.12 189.39h179.56c-72.22-72.58-132.36-123.37-132.36-123.37-1.29-.86-2.62-1.66-3.87-2.58-29.24-21.45-57.49-44.41-87.87-64.09a747 747 0 0 0-130.58-67.55"/><path class="uuid-f75c3e35-b379-4407-870e-f15b649216ec" d="M7.47 645.54 313.72 253l441.53 344.47L449 990z"/><path class="uuid-cf80a288-ddf9-44b2-af07-14a5835fff03" d="M337.78 899.41q.69-.17 1.44-.38c69.43-19.79 130.51-42.95 186.72-70.8 29.62-14.68 56.33-29.73 81.15-45.75l-158.6 203.3zM120.72 730.08q3.07.76 6.43 1.39c92.03 17.12 173.27 25.86 248.37 26.71 4.49.05 8.98.08 13.32.08 67.69 0 122.96-6.2 173.94-19.51 10.04-2.62 20.45-4.66 30.53-6.63 7.28-1.42 14.81-2.9 22.19-4.59 15.5-3.55 30.8-8.35 45.63-14.32l-27.8 35.64c-36.67 25.39-77.58 48.03-125.03 69.17-54.93 24.48-113.98 44.46-180.51 61.08a720 720 0 0 0-10.52 2.7 4 4 0 0 0-1.28.61zm301 13.31c-8.15 0-16.59-.12-25.1-.34-84.28-2.25-175.09-14.9-277.61-38.69l-6.12-1.43c-11.82-2.77-24.04-5.63-36.72-7.62l-64.48-50.3 77.68-99.57A844 844 0 0 0 170.93 602c75.82 46 158.15 82.09 244.7 107.27a378 378 0 0 1 22.96 7.78c8.15 2.96 16.58 6.02 25.1 8.4 19.81 5.55 40.86 9.03 63.78 10.51-33.01 5-67.66 7.43-105.74 7.43Z"/><path class="uuid-cf80a288-ddf9-44b2-af07-14a5835fff03" d="M89.88 549.66a846 846 0 0 0 79.48 54.91c76.05 46.14 158.62 82.33 245.42 107.58a370 370 0 0 1 22.78 7.72c8.2 2.98 16.68 6.05 25.31 8.47a295 295 0 0 0 38.48 7.99 735 735 0 0 1-79.63 4.07c-8.12 0-16.54-.11-25.02-.34-84.08-2.24-174.69-14.87-277.02-38.61l-6.12-1.43c-11.63-2.73-23.65-5.54-36.17-7.54l-61.5-47.98zm562.26 170.2-20.9 26.78c-36.42 25.18-77.05 47.64-124.16 68.64-54.77 24.41-113.65 44.33-180.01 60.9-3.85.96-7.31 1.85-10.57 2.72l-.1.03-183.83-143.41c89.75 16.43 169.27 24.83 242.92 25.66 4.5.05 9 .08 13.35.08 67.95 0 123.46-6.23 174.7-19.6 9.95-2.6 20.32-4.63 30.35-6.59a713 713 0 0 0 22.28-4.61 307 307 0 0 0 35.97-10.6m-57.95 74.27L447.96 981.57l-103.67-80.88c67.85-19.57 127.75-42.41 182.98-69.78a854 854 0 0 0 66.92-36.78M88.84 541.23 7.47 645.54 449 990l171.81-220.23c-30.53 20.87-62.77 39.21-96.2 55.78-59.76 29.61-122.14 52.35-186.21 70.6-1.65.47-3.69.96-5.47.96-1.04 0-2-.17-2.74-.6-4.92-2.85-9.17-6.84-13.87-10.5 1.06-.82 1.35-1.2 1.72-1.3q5.23-1.39 10.48-2.69c62.01-15.48 122.59-35.21 181-61.25 44.2-19.7 86.51-42.4 125.89-69.71l35.21-45.14a301 301 0 0 1-55.79 18.69c-17.54 4.02-35.41 6.7-52.81 11.24-56.88 14.85-114.82 19.41-173.18 19.41q-6.64 0-13.29-.08c-83.43-.94-165.89-11.41-247.86-26.66-12.61-2.35-23.56-6.43-33.01-15.19-5.93-5.49-12.7-10.07-19.1-15.06 14.76 2.3 28.72 5.77 42.73 9.02 91.58 21.25 184.03 36.25 278.21 38.76q12.6.34 25.18.34c37.4 0 74.65-2.36 111.69-8.32 3.78-.61 7.53-1.4 11.29-2.14 3.47-.68 6.93-1.42 10.39-2.13h-.9c-30.56 0-60.5-3.06-89.7-11.24-16.24-4.55-31.83-11.45-48.03-16.17-86.01-25.02-167.4-60.48-243.99-106.95a838 838 0 0 1-83.63-58.21ZM228.91 425.47a633 633 0 0 1-9.14-47.19l16.39-21.01c-4.62 20.99-7.02 43.51-7.25 68.2"/><path class="uuid-cf80a288-ddf9-44b2-af07-14a5835fff03" d="M230.79 369.03a321 321 0 0 0-3.93 32.46 637 637 0 0 1-3.92-22.39zm11.86-24.95-26.04 33.38a621 621 0 0 0 13.8 66.35c.57 2.12 1.3 4.2 1.95 6.3-1.49-33.21.26-65.75 8.01-97.76q1.02-4.15 2.27-8.27ZM271.76 579.28A819 819 0 0 1 169.4 442.85l39.38-50.48c6.39 29.37 14.34 55.88 24.23 80.86 2.65 6.68 4.09 13.75 5.61 21.23.97 4.77 1.97 9.71 3.32 14.5a303 303 0 0 0 29.83 70.33Z"/><path class="uuid-cf80a288-ddf9-44b2-af07-14a5835fff03" d="M207.24 399.23c6.18 27.07 13.74 51.75 22.99 75.11 2.55 6.43 3.96 13.37 5.45 20.72.98 4.83 2 9.82 3.37 14.71a304 304 0 0 0 18.68 49.43 814 814 0 0 1-84.69-116.12l34.21-43.85m3.13-13.79-44.61 57.18a823 823 0 0 0 121.75 157.47 11 11 0 0 0-1.69-4.09 301 301 0 0 1-41-87.87c-3.35-11.92-4.5-24.62-9.02-36.02-11.18-28.23-19.31-57.21-25.42-86.68Z"/><path class="uuid-cf80a288-ddf9-44b2-af07-14a5835fff03" d="M362.88 678.72a660 660 0 0 1-12.19-4.93c-91.73-38.33-174.59-87.99-246.3-147.59l54.23-69.51A747 747 0 0 0 283.16 607.3c7.37 6.84 14.67 14.05 21.74 21.02 17.92 17.67 36.45 35.95 57.99 50.4Z"/><path class="uuid-cf80a288-ddf9-44b2-af07-14a5835fff03" d="M158.35 461.89a750 750 0 0 0 122.76 147.59c7.33 6.81 14.62 14.01 21.68 20.96 12.5 12.33 25.3 24.95 39.24 36.41a1013 1013 0 0 1-118.7-60.35 924 924 0 0 1-114.78-80.77l49.81-63.85m.53-10.43-58.65 75.18 1.87 1.57c74.79 62.22 157.78 110.89 247.42 148.35 11.37 4.75 22.92 9.07 34.39 13.57-5.96-5.09-12.32-9.22-18.65-13.42-30.11-20.03-53.87-47.26-80.07-71.61a741 741 0 0 1-126.31-153.64M560.02 618.29c2.04 35.92-21.4 43.4-26.88 44.92s-32.49 1.49-62.57-21.34c12.29-3.69 25.26-8.86 37.3-15.83 5.84 1.84 8.65 1.28 20.5-14.79 8.72-7.87 16.06-17.21 21.07-28.21.3-.02 8.6 0 10.59 35.25Z"/><path class="uuid-cf80a288-ddf9-44b2-af07-14a5835fff03" d="M376.37 603.36c-9.39 13.39-17.47 25.42-20.06 29.27 3.73-6.76-.6-17.68-10.31-25.25-6.37-4.97-13.57-7.34-19.37-6.89 10.77-3.56 18.8-9.77 26.61-19.92 6.76-8.77 13.35-20.46 21.39-35.9 17.34-33.32 23.57-53.32 33.84-66.93 10.25-13.61 27.55-29.32 30.39-51.43 3.91-4.71 20.98-24.91 38.44-46.17l122.15 95.3 1.32 1.03c-6.99 15.03-19.03 35.79-41.07 65.43a16 16 0 0 0-3.19 9.21 80.5 80.5 0 0 1-7.09 31.92c-5 11-12.35 20.33-21.07 28.21a122 122 0 0 1-20.5 14.79c-12.03 6.97-25.01 12.14-37.3 15.83a205 205 0 0 1-29.46 6.55s-18.81-.08-24.5 5.24c5.14-6.58.9-18.46-9.46-26.54-6.03-4.71-12.8-7.08-18.43-6.94-2.66-2.43-5.51-6.74-12.33-16.8Zm62.86-11.64c4.74-7.63 3.24-18.43-4.11-25.81-8.44-8.48-21.39-9.26-28.94-1.75s-6.82 20.46 1.62 28.94c8.43 8.47 21.38 9.25 28.93 1.74q1.44-1.45 2.5-3.12"/><path class="uuid-cf80a288-ddf9-44b2-af07-14a5835fff03" d="M407.14 627.11c10.35 8.08 14.59 19.96 9.46 26.54s-17.69 5.36-28.04-2.71-14.59-19.96-9.46-26.54c2.15-2.75 5.59-4.14 9.62-4.23 5.63-.14 12.4 2.24 18.43 6.94ZM439.23 591.72q-1.73 1.77-2.5 3.12c-7.54 7.51-20.49 6.73-28.93-1.74s-9.17-21.43-1.62-28.94 20.49-6.73 28.94 1.75c7.35 7.39 8.85 18.18 4.11 25.81M326.64 600.49c5.8-.45 13 1.92 19.37 6.89 9.71 7.57 14.03 18.49 10.31 25.25l-.06.09-.8 1.2c-5.13 6.58-17.69 5.36-28.04-2.71s-14.59-19.96-9.46-26.54c1.98-2.54 5.06-3.92 8.68-4.19ZM341.92 544.44c6.48 6.52 7 16.52 1.15 22.34-5.47 5.45-14.58 5.31-21.03-.07a24 24 0 0 1-1.3-1.18c-6.5-6.51-7.01-16.52-1.16-22.34 4.14-4.12 10.34-5.04 15.91-2.93 1.63 1.06 3.7 2.4 5.99 3.76z"/><path class="uuid-cf80a288-ddf9-44b2-af07-14a5835fff03" d="M341.47 544.02c6.79 4.01 15.63 8.26 21.2 6.28-16.76-52.88 23.95-88.33 35.63-98.33 11.88-10.16 34.56-18.44 40.56-25.66-2.84 22.11-20.14 37.81-30.39 51.43-10.27 13.62-16.5 33.61-33.84 66.93-8.04 15.44-14.62 27.13-21.39 35.9-13.58.49-27.06-10.24-31.22-13.86 6.46 5.38 15.57 5.52 21.03.07 5.85-5.82 5.33-15.83-1.15-22.34l-.44-.42Z"/><ellipse class="uuid-ba994c72-e9bf-4c29-932b-6110d7de1e74" cx="336.71" cy="619.3" rx="15.11" ry="23.78" transform="rotate(-52 336.72 619.31)"/><ellipse class="uuid-ba994c72-e9bf-4c29-932b-6110d7de1e74" cx="397.84" cy="639.02" rx="15.11" ry="23.78" transform="rotate(-52 397.85 639.03)"/><ellipse cx="421.46" cy="579.51" rx="19.27" ry="21.65" transform="rotate(-44.9 421.5 579.53)" fill="none" stroke="#191818" stroke-miterlimit="10" stroke-width="1.21"/><ellipse class="uuid-3441069b-e742-460d-a18e-a4e2b071a504" cx="331.32" cy="554.99" rx="14.95" ry="16.65" transform="rotate(-44.9 331.35 555.01)"/><path class="uuid-3441069b-e742-460d-a18e-a4e2b071a504" d="M320.73 565.54s16.2 15.65 32.53 15.05"/><path class="uuid-5c1d4477-2e54-4db8-a011-d3b9038e52ac" d="M335.48 540.26c6.43 4.18 19.73 12.69 27.2 10.04-16.76-52.89 23.95-88.34 35.63-98.33 11.88-10.16 34.57-18.44 40.56-25.66 3.96-4.77 20.77-24.64 38.45-46.18"/><path class="uuid-be836aa3-3e32-489d-a940-dc8ac3b9cc5c" d="M438.91 426.32c-2.95 23.41-20.87 37.79-33.28 56.05-6.96 11.23-11.83 23.57-17.44 35.5a563 563 0 0 1-24.06 47.07c-6.76 11.25-14.32 22.75-25.54 30.02a51 51 0 0 1-11.97 5.57l-.03-.09c17.2-5.61 28.13-20.92 36.68-36.01a633 633 0 0 0 24.2-46.9c5.69-11.91 10.64-24.26 17.68-35.47 13.01-18.87 29.91-31.54 33.76-55.75Z"/><path class="uuid-5c1d4477-2e54-4db8-a011-d3b9038e52ac" d="M376.38 603.36c-11.43 16.29-20.92 30.57-20.92 30.57"/><path class="uuid-be836aa3-3e32-489d-a940-dc8ac3b9cc5c" d="M599.5 475.47c-8.64 9.5-17.38 19.1-24.18 30.03-2.06 3.74-3.76 7.8-6.73 10.98-5.72 6.48-12.99 11.36-20.38 15.73-7.35 4.51-15.33 7.77-23.17 11.31l-23.58 10.38c-6.84 3.07-16.96 6.93-23.28 10.85-11.1 6.47-21.98 13.42-32.17 21.27-3.38 2.57-6.85 5.54-9.34 8.78 2.3-3.66 5.79-6.37 9.05-9.14 3.34-2.71 6.82-5.25 10.32-7.73a335 335 0 0 1 21.63-14.05c6.33-3.93 16.51-7.81 23.39-10.9l23.65-10.2c7.83-3.49 15.82-6.69 23.16-11.14 7.37-4.29 14.62-9.1 20.33-15.5 2.98-3.16 4.65-7.11 6.76-10.86 6.92-10.8 15.75-20.77 24.52-29.83Z"/><path class="uuid-5c1d4477-2e54-4db8-a011-d3b9038e52ac" d="M376.02 602.83c7.08 10.44 9.98 14.87 12.69 17.33M416.59 653.65c5.69-5.31 24.5-5.23 24.5-5.23 40.01-5.73 113.98-30.33 115.44-97.29a16 16 0 0 1 3.19-9.21c21.94-29.5 33.96-50.2 40.97-65.21"/><path class="uuid-5c1d4477-2e54-4db8-a011-d3b9038e52ac" d="M507.86 626.03c5.84 1.85 8.65 1.3 20.5-14.78"/><path class="uuid-5c1d4477-2e54-4db8-a011-d3b9038e52ac" d="M470.56 641.86c30.08 22.83 57.1 22.87 62.58 21.35s28.91-8.99 26.89-44.92c-2.03-35.92-10.61-35.24-10.61-35.24"/><path class="uuid-be836aa3-3e32-489d-a940-dc8ac3b9cc5c" d="M432.14 628.3c-11.55-6.19-24.71-9.76-37.85-8.93-1.88.1-3.73.4-5.58.79 14.24-4.27 31.28.04 43.43 8.14M406.18 564.17a260 260 0 0 1 63.67-38.33c17.8-7.09 48.29-28.12 59.2-43.75a48 48 0 0 1-5.7 7.35c-6.33 6.85-13.57 12.81-21.02 18.4-10 7.37-20.57 14.16-32.09 18.92-22.95 9.46-44.3 22.41-64.05 37.41Z"/><path class="uuid-be836aa3-3e32-489d-a940-dc8ac3b9cc5c" d="M483.85 428.24c4.6 19.42-32.99 74.51-44.79 92.35-9.85 14.27-19.87 28.44-30.86 41.88a268 268 0 0 0-16.52 20.04 923 923 0 0 0-15.38 20.95 923 923 0 0 1 14.99-21.24 264 264 0 0 1 16.31-20.24c10.83-13.51 20.86-27.66 30.63-41.95 11.54-17.35 49.94-73.2 45.62-91.78Z"/><path class="uuid-f75c3e35-b379-4407-870e-f15b649216ec" d="m867.49 139.84 122.09 482.08 542.86-137.49L1410.19 1.74z"/><path class="uuid-cf80a288-ddf9-44b2-af07-14a5835fff03" d="M896.64 242.71c101.24 67.73 251.69 146.17 405.48 146.17 34.07 0 57.9-3.93 70.7-6.05 2.69-.44 4.81-.79 6.45-1.01 42.76-5.73 81.58-12.93 118.53-22l31.01 122.44-537.04 136.02z"/><path class="uuid-cf80a288-ddf9-44b2-af07-14a5835fff03" d="M901.46 249.52c79.56 52.55 157.97 91.12 233.27 114.74 58.44 18.33 114.75 27.62 167.38 27.62 34.31 0 58.3-3.96 71.19-6.09q3.98-.67 6.35-1c41.76-5.59 79.76-12.59 115.96-21.36l29.54 116.65-531.23 134.54-63.31-249.97-29.16-115.14m-9.65-13.68 97.78 386.08 542.86-137.49-32.48-128.24c-39.73 9.88-80.13 17.17-121.11 22.66-9.65 1.29-35.79 7.03-76.74 7.03-81.85 0-222.95-22.91-410.31-150.05ZM1444.34 148.77c-30.93-17.65-61.56-38.32-93.42-63.03a2371 2371 0 0 1-62.48-49.93l71.87-18.29a721 721 0 0 0 55.62 70.31c5.33 5.94 9.99 12.79 14.5 19.42 1.75 2.57 3.55 5.22 5.38 7.81z"/><path class="uuid-cf80a288-ddf9-44b2-af07-14a5835fff03" d="M1359.03 20.95a725 725 0 0 0 54.66 68.9c5.2 5.78 9.59 12.25 14.24 19.09 1.65 2.43 3.36 4.94 5.1 7.41l6.65 26.28c-28.73-16.79-57.29-36.26-86.93-59.25-22.1-17.14-40.76-32-57.86-46.1zm2.56-6.85L1282 34.36a2355 2355 0 0 0 67.08 53.75c31.82 24.68 64.93 47.23 99.89 66.71l-10.39-41.04c-6.71-9.42-12.74-19.41-20.42-27.95a716 716 0 0 1-56.57-71.73ZM1394.5 45a760 760 0 0 1-20.96-30.83l9.46-2.41c3.18 10.99 6.99 22 11.51 33.24Z"/><path class="uuid-cf80a288-ddf9-44b2-af07-14a5835fff03" d="M1380.93 15.38q1.3 4.36 2.74 8.73a703 703 0 0 1-5.34-8.07zm4.15-7.25-16.31 4.15A763 763 0 0 0 1401.02 59q1.4 1.9 2.92 3.72c.96 1.13 2 2.18 3.01 3.27-8.89-18.85-16.34-38.05-21.87-57.85ZM1465.27 231.42a800 800 0 0 1-242.46-71.85l-.12-.05c-.57-.24-56.25-24.26-131.49-73.51l165.37-42.08c47.2 37.2 100.33 72.41 157.95 104.68a743 743 0 0 0 34.37 18.12z"/><path class="uuid-cf80a288-ddf9-44b2-af07-14a5835fff03" d="M1255.88 47.2c47.03 36.96 99.9 71.95 157.18 104.03a745 745 0 0 0 33.26 17.58l14.96 59.05a796 796 0 0 1-237.17-71l-.12-.06-.12-.05c-18.81-8.05-67.85-32.43-125.29-69.54l157.3-40.03m1.39-6.53-173.39 44.12c79.27 52.56 137.63 77.5 137.63 77.5a803 803 0 0 0 247.75 72.68l-17.81-70.3a731 731 0 0 1-35.47-18.66c-54.64-30.6-108.86-65.93-158.72-105.34Z"/><path class="uuid-cf80a288-ddf9-44b2-af07-14a5835fff03" d="M1314.37 355.56c-11.97 0-23.8-.31-35.16-.94q-1.32-.07-2.97-.07-1.42 0-2.84.03-1.12.02-2.26.03c-89.17-9.52-190.3-54.81-259.45-91.13-69.73-36.63-121.77-71.71-129.24-76.81L871.14 142l178.18-45.34c64.47 42.35 129 75.88 177.23 92.05 30.48 10.49 68.37 21.92 119.22 35.96a789 789 0 0 0 123.86 23.88l22.13 87.4c-60.01 12.83-121.27 19.6-177.38 19.6Z"/><path class="uuid-cf80a288-ddf9-44b2-af07-14a5835fff03" d="M1048.77 99.9c64.31 42.15 128.63 75.5 176.77 91.65 30.56 10.51 68.51 21.96 119.42 36.03a792 792 0 0 0 122.26 23.74l20.86 82.36c-58.83 12.37-118.75 18.89-173.7 18.89-11.92 0-23.69-.31-35-.93a59 59 0 0 0-3.13-.08l-2.89.03-2.06.03c-39-4.18-83.57-15.55-132.49-33.8-39.39-14.69-81.64-33.84-125.58-56.91-67.22-35.3-118.02-69.2-128.15-76.07l-10.3-40.66zm1.08-6.48-182.36 46.4 12.33 48.68s217.55 150.65 391.17 169.11c1.75 0 3.5-.07 5.25-.07q1.4 0 2.81.07c11.61.64 23.41.94 35.32.94 60.27 0 123.52-7.82 181.05-20.32l-23.41-92.43a782 782 0 0 1-125.46-24.02c-37.71-10.42-82-23.17-119.06-35.92-48.04-16.11-112.05-49.25-177.64-92.44"/><path class="uuid-f75c3e35-b379-4407-870e-f15b649216ec" d="m1571.99 990.23 104.04-550.25-489.87-92.63-103.43 550.36z"/><path class="uuid-cf80a288-ddf9-44b2-af07-14a5835fff03" d="M1581.77 922.37q-7-3.3-13.89-6.6c-12.63-6.02-24.56-11.71-36.95-17.14-97.27-42.59-200.61-64.19-307.16-64.19-5.66 0-11.41.06-17.1.18-37.79.8-75.09 4.2-110.93 10.12l14.09-74.97c55.59-26.09 104.44-45.17 149.32-58.33a48 48 0 0 0 4.98-1.85q.95-.4 1.91-.78c129.25-30.66 233.6-44.93 328.4-44.93 12.09 0 24.21.24 36.08.7z"/><path class="uuid-cf80a288-ddf9-44b2-af07-14a5835fff03" d="M1594.43 666.88c10.87 0 21.77.19 32.49.57l-28.72 151.86-18.66 98.68-10.36-4.93a1284 1284 0 0 0-37.06-17.19 768 768 0 0 0-150.98-48.39 772 772 0 0 0-157.38-16.05 790 790 0 0 0-124.29 9.66l13.02-69.26c54.87-25.69 103.14-44.51 147.49-57.52 1.9-.56 3.62-1.27 5.28-1.95l1.67-.68c61.85-14.66 116.58-25.33 167.32-32.61 57.2-8.21 109.6-12.19 160.19-12.19m-.01-6c-105.87 0-213.8 17.66-329.3 45.06-2.28.88-4.51 1.93-6.84 2.61-51.13 15-101.87 35.97-151.13 59.15l-15.17 80.71a777 777 0 0 1 114.74-10.79 807 807 0 0 1 17.03-.18c106.19 0 208.23 21.14 305.96 63.94 18.11 7.93 35.85 16.72 54.28 25.35l50.11-265a919 919 0 0 0-39.67-.85Z"/><path class="uuid-cf80a288-ddf9-44b2-af07-14a5835fff03" d="M1297.63 935.29a704 704 0 0 0-59.11-24.52c-15.05-5.44-30.69-9.92-45.8-14.24l-7.96-2.28c-12.33-3.56-24.92-6.99-37.09-10.31-8.96-2.44-18.22-4.97-27.3-7.52a296 296 0 0 0-29.33-6.62l2.14-11.4a756 756 0 0 1 97.04-6.26c23.77 0 47.98 1.13 71.95 3.37 108.52 10.13 212.01 43.45 307.6 99.02 4.49 2.61 5.29 4.38 4.3 9.48q-2.21 11.36-4.4 22.72z"/><path class="uuid-cf80a288-ddf9-44b2-af07-14a5835fff03" d="M1190.21 855.13c23.68 0 47.79 1.13 71.68 3.36a741 741 0 0 1 158.59 32.43c50.61 16.34 100.33 38.61 147.78 66.2 3.33 1.94 3.6 2.53 2.86 6.31q-1.93 9.9-3.83 19.8l-268.73-50.81a702 702 0 0 0-59.02-24.46c-15.16-5.48-30.85-9.97-46.03-14.31l-7.92-2.27c-12.36-3.56-24.95-7-37.13-10.32a3599 3599 0 0 1-27.28-7.52 296 296 0 0 0-26.64-6.15l1.18-6.28a753 753 0 0 1 94.5-5.96m-.01-6.02a756 756 0 0 0-99.59 6.57l-3.11 16.54a294 294 0 0 1 32.04 7.06c21.43 6.03 42.98 11.66 64.37 17.83 17.95 5.18 36.02 10.12 53.57 16.46a695 695 0 0 1 59.2 24.57l275.35 52.07q2.46-12.82 4.96-25.65c1.24-6.35-.17-9.42-5.73-12.65-95.73-55.66-198.53-89.12-308.83-99.42a778 778 0 0 0-72.23-3.39ZM1210.33 918.79a1496 1496 0 0 0-12.71-9.11 832 832 0 0 1 34.85 13.29l-22.13-4.19Z"/><path class="uuid-cf80a288-ddf9-44b2-af07-14a5835fff03" d="M1177.66 899.16c-.09.3 13.93 9.72 31.45 22.45l48.34 9.14a715 715 0 0 0-20.53-9.16c-19.42-8.27-39.49-14.99-59.26-22.43M1147.62 568.66c91.91-56.25 236.9-127.34 407.88-148.42l117.06 22.14c-3.26 18.35-21.15 118.89-33.62 185.01a821 821 0 0 0-42.49-1.08c-102.05 0-200.33 18.36-264.81 33.75-69.86 16.68-116.25 33.61-116.71 33.77l-.12.05-10.24 4.27c-7.44 3.11-15.14 6.33-22.74 9.4a935 935 0 0 0-65.9 29.7z"/><path class="uuid-cf80a288-ddf9-44b2-af07-14a5835fff03" d="m1555.4 423.27 113.69 21.5c-4.26 23.96-20.73 116.35-32.61 179.49a833 833 0 0 0-40.03-.96c-45.21 0-93.45 3.56-143.39 10.58-39.92 5.61-81 13.44-122.12 23.26-70.03 16.72-116.59 33.7-117.05 33.87l-.12.04-.12.05q-5.11 2.12-10.21 4.26c-7.45 3.11-15.15 6.33-22.74 9.4a928 928 0 0 0-60.72 27.14l30.33-161.37c56.53-34.52 115.27-63.89 174.62-87.32 76.86-30.35 154.39-50.51 230.46-59.93m.21-6.08c-169.84 20.84-314.23 90.4-410.68 149.59l-33.04 175.83a931 931 0 0 1 71.09-32.31c11.04-4.46 22.01-9.11 33.01-13.68 0 0 183.5-67.34 380.48-67.35q22.42-.01 44.95 1.22c13.86-73.32 34.64-190.54 34.64-190.54zM1188.55 350.85l263.92 49.91c-86.86 17.36-193.69 62.42-296.87 125.43z"/><path class="uuid-cf80a288-ddf9-44b2-af07-14a5835fff03" d="m1190.94 354.36 122.29 23.12 124.08 23.46c-82.76 18.95-181.54 61.28-277.52 119.19zm-4.78-7.01-34.76 184.94c97.82-60.45 216.62-114.87 317.49-131.48z"/></svg>