<?xml version="1.0" encoding="UTF-8"?><svg xmlns="http://www.w3.org/2000/svg" xmlns:xlink="http://www.w3.org/1999/xlink" viewBox="0 0 1680 1000"><defs><style>.uuid-b9f05142-cf1a-40be-b7fe-8745fd0aeadf{fill:none;}.uuid-b9f05142-cf1a-40be-b7fe-8745fd0aeadf,.uuid-85cc833c-2ad4-4d87-b39b-67a7d9f08447,.uuid-4c6ab663-7cd9-4d0f-9c3a-d16f18a4ea99,.uuid-e4e928e3-9f7e-43a9-b2c4-6caaf8f57ff0,.uuid-fd7c9580-8f56-4d28-bb66-1108e0e6e501,.uuid-33c1eb94-6fe3-4478-8afc-badcb5a94dc8,.uuid-fdc517b0-fb21-4e25-9f9c-6bfb30d83d86,.uuid-b45ce7d9-7c4a-4551-b390-cc63a2f4e634,.uuid-b245fbb1-2cc5-4bf9-933a-cbb40e1763a7,.uuid-acb3c1f4-7800-4c8e-b04f-64b180f8c2f8,.uuid-efe04e35-1494-4d45-8ec2-ad13bad0631c,.uuid-b254f08d-6d93-4cdb-ad7f-fe340b3d37b3,.uuid-58b21322-fbfc-4bda-9389-3961c251fa18,.uuid-529194e6-dece-4ad8-87bd-9056e6fd4d6d,.uuid-23e9a655-98da-407e-9f35-4d7e22821b3e,.uuid-1897fe2d-9d5f-4eab-9948-3d1308d41779,.uuid-a37738dc-053a-4226-885d-fc431e39921f{stroke-width:0px;}.uuid-85cc833c-2ad4-4d87-b39b-67a7d9f08447{fill:url(#uuid-a7caa94e-208d-4a68-948f-0e6c88cd5767);}.uuid-4c6ab663-7cd9-4d0f-9c3a-d16f18a4ea99{fill:#292425;}.uuid-e4e928e3-9f7e-43a9-b2c4-6caaf8f57ff0{fill:#ffc5de;}.uuid-fd7c9580-8f56-4d28-bb66-1108e0e6e501{fill:url(#uuid-f5b0169c-7e5b-4ef5-b867-c96d61b7a85f);}.uuid-33c1eb94-6fe3-4478-8afc-badcb5a94dc8{fill:url(#uuid-bfa5e314-de07-4e94-bd57-fe6b40fd2698);}.uuid-fdc517b0-fb21-4e25-9f9c-6bfb30d83d86{fill:url(#uuid-2a15868e-4276-496d-9254-b8bea88c0cdc);}.uuid-b45ce7d9-7c4a-4551-b390-cc63a2f4e634{fill:#4c4345;}.uuid-b245fbb1-2cc5-4bf9-933a-cbb40e1763a7{fill:url(#uuid-c4679ebd-6a2d-4144-8d8b-d87166123f1f);}.uuid-acb3c1f4-7800-4c8e-b04f-64b180f8c2f8{fill:#000;}.uuid-efe04e35-1494-4d45-8ec2-ad13bad0631c{fill:url(#uuid-8c00b9e1-889c-48fd-b29e-a0c7c1b7d7a0);}.uuid-b254f08d-6d93-4cdb-ad7f-fe340b3d37b3{fill:url(#uuid-ab26ccc3-0043-49af-8a52-a20058c9368a);}.uuid-58b21322-fbfc-4bda-9389-3961c251fa18{fill:#ff922b;}.uuid-529194e6-dece-4ad8-87bd-9056e6fd4d6d{fill:url(#uuid-f66b204b-d603-4c3e-af46-d0cd1e6b6bd7);}.uuid-23e9a655-98da-407e-9f35-4d7e22821b3e{fill:#ebebeb;}.uuid-1897fe2d-9d5f-4eab-9948-3d1308d41779{fill:url(#uuid-c7ae54e2-54ff-46ee-88d6-24f4ef99fd00);}.uuid-a37738dc-053a-4226-885d-fc431e39921f{fill:#f6f2f0;}</style><radialGradient id="uuid-f66b204b-d603-4c3e-af46-d0cd1e6b6bd7" cx="1004.331" cy="274.91" fx="1004.331" fy="274.91" r="1.84" gradientTransform="translate(8.468 -491.282) rotate(32.606)" gradientUnits="userSpaceOnUse"><stop offset="0" stop-color="#fdec51"/><stop offset=".165" stop-color="#f8e54d"/><stop offset=".386" stop-color="#ebd545"/><stop offset=".639" stop-color="#d6b937"/><stop offset=".914" stop-color="#b89224"/><stop offset=".992" stop-color="#af861e"/></radialGradient><radialGradient id="uuid-f5b0169c-7e5b-4ef5-b867-c96d61b7a85f" cx="665.581" cy="275.179" fx="665.581" fy="275.179" r="1.472" gradientTransform="translate(1420.246 411.809) rotate(-147.394) scale(1 -1)" xlink:href="#uuid-f66b204b-d603-4c3e-af46-d0cd1e6b6bd7"/><linearGradient id="uuid-bfa5e314-de07-4e94-bd57-fe6b40fd2698" x1="700.217" y1="295.096" x2="697.417" y2="295.114" gradientUnits="userSpaceOnUse"><stop offset="0" stop-color="#ffc5de"/><stop offset="1" stop-color="#f6f2f0"/></linearGradient><linearGradient id="uuid-8c00b9e1-889c-48fd-b29e-a0c7c1b7d7a0" x1="699.667" y1="291.761" x2="697.441" y2="291.775" xlink:href="#uuid-bfa5e314-de07-4e94-bd57-fe6b40fd2698"/><linearGradient id="uuid-ab26ccc3-0043-49af-8a52-a20058c9368a" x1="700.717" y1="290.69" x2="698.862" y2="290.701" xlink:href="#uuid-bfa5e314-de07-4e94-bd57-fe6b40fd2698"/><linearGradient id="uuid-c7ae54e2-54ff-46ee-88d6-24f4ef99fd00" x1="707.393" y1="288.86" x2="712.539" y2="292.152" gradientUnits="userSpaceOnUse"><stop offset="0" stop-color="#4c4345"/><stop offset=".108" stop-color="#706869"/><stop offset=".25" stop-color="#989192"/><stop offset=".395" stop-color="#bab4b4"/><stop offset=".541" stop-color="#d4cfce"/><stop offset=".689" stop-color="#e7e2e1"/><stop offset=".84" stop-color="#f2eeec"/><stop offset="1" stop-color="#f6f2f0"/></linearGradient><linearGradient id="uuid-a7caa94e-208d-4a68-948f-0e6c88cd5767" x1="708.28" y1="288.725" x2="712.724" y2="291.568" xlink:href="#uuid-c7ae54e2-54ff-46ee-88d6-24f4ef99fd00"/><linearGradient id="uuid-2a15868e-4276-496d-9254-b8bea88c0cdc" x1="707.053" y1="290.118" x2="710.19" y2="292.124" xlink:href="#uuid-c7ae54e2-54ff-46ee-88d6-24f4ef99fd00"/><linearGradient id="uuid-c4679ebd-6a2d-4144-8d8b-d87166123f1f" x1="681.567" y1="315.548" x2="734.4" y2="256.871" gradientUnits="userSpaceOnUse"><stop offset="0" stop-color="#ffc5de"/><stop offset=".5" stop-color="#f6f2f0"/><stop offset="1" stop-color="#ff922b"/></linearGradient></defs><g id="uuid-bcae8de4-56f1-4b50-bcb7-4493c3158354"><path class="uuid-23e9a655-98da-407e-9f35-4d7e22821b3e" d="M704.027,292.622c-.119-.866-.575-1.633-1.26-2.094-.246-.167-.521-.293-.821-.371-1.546-.402-3.155.643-3.594,2.334-.402,1.542.309,3.09,1.61,3.654.005.003.012.005.017.007l.06.024s.005.004.007.003c.099.041.202.074.308.102,1.546.402,3.155-.643,3.595-2.334.069-.266.105-.532.11-.793.004-.18-.006-.358-.031-.532Z"/><path class="uuid-23e9a655-98da-407e-9f35-4d7e22821b3e" d="M700.038,296.176l-.06-.024c.02.009.04.018.06.024Z"/><path class="uuid-23e9a655-98da-407e-9f35-4d7e22821b3e" d="M700.352,296.28c-.105-.027-.208-.061-.308-.102,3.213,1.377,3.122,8.319,3.224,11.092,2.764-3.536,3.844-6.169,4.016-8.163.295-3.429-2.095-4.968-3.227-5.954-.006.261-.042.527-.11.793-.44,1.691-2.049,2.736-3.595,2.334Z"/><path class="uuid-23e9a655-98da-407e-9f35-4d7e22821b3e" d="M702.788,286.862l-.021,3.666c.685.461,1.141,1.228,1.26,2.094,1.405-2.778,5.685-1.67,5.685-1.67.402-.743.805-1.29,1.179-1.623-1.932.817-4.26.173-6.493-1.255-.035-.023-.07-.045-.106-.069-.543-.354-1.045-.732-1.493-1.134-.004-.003-.006-.006-.01-.009Z"/><path class="uuid-23e9a655-98da-407e-9f35-4d7e22821b3e" d="M710.89,289.329c.698-.294,1.344-.781,1.916-1.489-.402-.121-.527-.34-.895-.842-.228-.13-.472-.362-.716-.711-1.211-1.729-.801-1.831-1.023-3.161s-1.303-1.492-2.071-1.054c-.769.438-4.334.114-5.173-.732h-.043s-.096,5.521-.096,5.521h0s.006.007.01.01c.393.332,1.01.814,1.493,1.134.035.023.07.045.106.069,2.234,1.429,4.562,2.072,6.493,1.255Z"/><path class="uuid-58b21322-fbfc-4bda-9389-3961c251fa18" d="M708.629,276.414c-.257-.042-.515-.069-.773-.082-.032,0-.064-.002-.095-.003-.931-.027-1.86.139-2.735.485-.746.294-1.453.72-2.086,1.268l-.056,3.258h.043c.84.846,4.405,1.17,5.173.732.769-.439,1.849-.276,2.071,1.054s-.188,1.432,1.023,3.161c.244.349.489.581.716.711.449.255.837.11,1.045-.349.204-.452.354-.68.536-1.31.662-2.287-.264-3.885-.277-5.936.01-.002.02-.003.03-.005-.513-.778-1.192-1.461-2.024-1.993-.072-.046-.145-.091-.218-.134l-.111-.064c-.718-.406-1.485-.667-2.263-.793Z"/><path class="uuid-23e9a655-98da-407e-9f35-4d7e22821b3e" d="M705.147,275.38c-.695,1.33-1.13,1.787-1.511,2.104.44-.286.908-.521,1.392-.703.016-.43.053-.91.121-1.401h0Z"/><path class="uuid-4c6ab663-7cd9-4d0f-9c3a-d16f18a4ea99" d="M704.027,292.622c.025.174.036.352.031.532,1.132.987,3.522,2.525,3.227,5.954.561-3.645,1.492-6.431,2.427-8.156,0,0-4.279-1.108-5.685,1.67Z"/><path class="uuid-e4e928e3-9f7e-43a9-b2c4-6caaf8f57ff0" d="M705.148,275.38c-.068.491-.105.971-.121,1.401.875-.329,1.805-.484,2.734-.452.032,0,.064.002.095.003.257.011.516.037.773.079.041-.391.103-1.134.101-1.93-.015-.111-.017-.218-.003-.319-.033-1.458-.307-2.963-1.312-2.753-1.401.292-2.027,2.205-2.267,3.972Z"/><path class="uuid-4c6ab663-7cd9-4d0f-9c3a-d16f18a4ea99" d="M708.73,274.481c.001.797-.061,1.539-.101,1.93.775.124,1.54.386,2.263.796l.111.064c.073.043.145.087.218.134l.025-.038c-1.397-.909-2.394-2.01-2.516-2.886Z"/><path class="uuid-4c6ab663-7cd9-4d0f-9c3a-d16f18a4ea99" d="M711.246,277.367l-.025.038c.832.532,1.511,1.215,2.024,1.993.593-.096,1.219-.265,1.833-.436-1.372-.275-2.727-.875-3.832-1.595Z"/><path class="uuid-4c6ab663-7cd9-4d0f-9c3a-d16f18a4ea99" d="M713.789,286.213c.997-2.273.753-4.847-.544-6.814-.01.002-.02.003-.03.005.013,2.051.939,3.649.277,5.936-.182.63-.332.858-.536,1.31-.208.459-.596.604-1.045.349.368.502.492.721.895.842.152-.188.298-.392.439-.611.21-.33.392-.669.544-1.016Z"/><path class="uuid-e4e928e3-9f7e-43a9-b2c4-6caaf8f57ff0" d="M715.079,278.962c-.615.171-1.24.341-1.833.436,1.298,1.967,1.541,4.542.544,6.814,1.796-2.342,6.142-5.68,5.113-7.227-.627-.942-2.184-.48-3.823-.024Z"/><path class="uuid-e4e928e3-9f7e-43a9-b2c4-6caaf8f57ff0" d="M706.549,287.161c1.544.018,1.888-1.189.805-1.166-.064.001-.122-.036-.148-.094-.436-.995-1.435-.207-.772,1.186.021.043.068.073.115.074Z"/><path class="uuid-b9f05142-cf1a-40be-b7fe-8745fd0aeadf" d="M702.94,278.082l-.151,8.78c.422.358,1.11.892,1.609,1.211,3.256,2.082,6.71,2.497,8.848-.845,2.138-3.343,1.232-7.741-2.024-9.824-2.657-1.699-5.959-1.329-8.282.677Z"/><path class="uuid-b45ce7d9-7c4a-4551-b390-cc63a2f4e634" d="M705.021,276.958c.023-1.537.2-3.154.981-4.513.377-.62,1.181-1.384,1.968-1.019.677.477.692,1.424.776,2.167.064,1.036-.002,2.073-.151,3.095.094-1.028.129-2.063.06-3.089-.078-.82-.25-2.504-1.442-2.064-1.907.918-2,3.556-2.192,5.423h0Z"/><path class="uuid-b45ce7d9-7c4a-4551-b390-cc63a2f4e634" d="M702.94,278.082c.876-.797,1.632-1.653,2.207-2.702-.421,1.127-1.228,2.044-2.207,2.702h0Z"/><path class="uuid-b45ce7d9-7c4a-4551-b390-cc63a2f4e634" d="M708.727,274.158c-.02.722.455,1.318.913,1.824,1.483,1.498,3.434,2.473,5.47,2.986-2.239-.394-6.25-2.224-6.383-4.81h0Z"/><path class="uuid-b45ce7d9-7c4a-4551-b390-cc63a2f4e634" d="M713.04,279.428c1.791-.162,3.88-1.6,5.621-.782,1.551,1.347-1.383,3.733-2.246,4.773-.885.922-1.819,1.797-2.624,2.79,1.517-2.041,3.679-3.601,4.95-5.812.288-.529.406-1.261-.153-1.649-1.692-.793-3.763.614-5.547.68h0Z"/><path class="uuid-529194e6-dece-4ad8-87bd-9056e6fd4d6d" d="M707.98,282.529c-.525.821-1.672,1.025-2.562.456s-.66-2.517-.66-2.517c0,0,1.672-1.025,2.562-.456s1.185,1.696.66,2.517Z"/><path class="uuid-4c6ab663-7cd9-4d0f-9c3a-d16f18a4ea99" d="M707.98,282.529c-.504.835-1.691,1.017-2.503.528-.863-.539-.824-1.731-.783-2.63.798-.415,1.865-.949,2.716-.392.783.532,1.117,1.686.57,2.494h0ZM707.98,282.529c.521-.81.173-1.936-.607-2.44-.765-.571-2.015.179-2.547.387-.058.847-.115,2.003.685,2.524.785.497,1.953.341,2.47-.472h0Z"/><path class="uuid-4c6ab663-7cd9-4d0f-9c3a-d16f18a4ea99" d="M707.153,282c-.36.563-1.085.743-1.085.743,0,0-.14-.733.22-1.297s1.085-.743,1.085-.743c0,0,.14.733-.22,1.297Z"/><circle class="uuid-a37738dc-053a-4226-885d-fc431e39921f" cx="707.336" cy="281.396" r=".172"/><path class="uuid-fd7c9580-8f56-4d28-bb66-1108e0e6e501" d="M709.993,284.136c-.42.657-.184,1.558.528,2.014s2.049-.365,2.049-.365c0,0,.184-1.558-.528-2.014s-1.629-.292-2.049.365Z"/><path class="uuid-4c6ab663-7cd9-4d0f-9c3a-d16f18a4ea99" d="M709.993,284.136c-.421.649-.138,1.559.483,1.955.606.477,1.651-.175,2.027-.315.06-.679.116-1.612-.538-2.025-.621-.394-1.56-.268-1.972.384h0ZM709.993,284.136c.398-.661,1.348-.814,1.994-.422.688.429.672,1.393.645,2.114-.647.317-1.5.739-2.181.3-.63-.421-.893-1.351-.458-1.991h0Z"/><path class="uuid-4c6ab663-7cd9-4d0f-9c3a-d16f18a4ea99" d="M711.146,284.874c-.288.451-.176,1.037-.176,1.037,0,0,.58-.144.868-.595s.176-1.037.176-1.037c0,0-.58.144-.868.595Z"/><ellipse class="uuid-a37738dc-053a-4226-885d-fc431e39921f" cx="711.978" cy="284.973" rx=".137" ry=".262" transform="translate(394.923 983.255) rotate(-87.394)"/><path class="uuid-b45ce7d9-7c4a-4551-b390-cc63a2f4e634" d="M710.743,289.38c-2.023,2.834-2.73,6.377-3.458,9.728.496-3.377,1.251-7.028,3.458-9.728h0Z"/><path class="uuid-b45ce7d9-7c4a-4551-b390-cc63a2f4e634" d="M704.058,293.153c5.928,3.882,2.719,9.794-.789,14.117,3.279-4.468,6.498-10.058.789-14.117h0Z"/><path class="uuid-b45ce7d9-7c4a-4551-b390-cc63a2f4e634" d="M699.961,296.145c3.59,1.771,3.194,7.692,3.309,11.126-.369-3.479.141-9.128-3.309-11.126h0Z"/><path class="uuid-b45ce7d9-7c4a-4551-b390-cc63a2f4e634" d="M700.468,296.308c3.685.685,4.99-5.199,1.342-6.091-3.686-.721-4.973,5.163-1.342,6.091h0ZM700.468,296.308c-3.764-.92-2.42-6.976,1.381-6.266,3.747.955,2.42,7.013-1.381,6.266h0Z"/><path class="uuid-33c1eb94-6fe3-4478-8afc-badcb5a94dc8" d="M699.993,295.226c-.22-.076-.414-.098-.611-.102-.195,0-.391-.004-.583.04-.197.008-.387.06-.579.106-.193.05-.378.11-.576.233.046-.237.237-.422.434-.548.202-.13.433-.189.664-.237.235-.012.476-.015.705.067.225.078.448.22.546.44Z"/><path class="uuid-efe04e35-1494-4d45-8ec2-ad13bad0631c" d="M699.488,292.013c-.338-.112-.612-.156-.918-.137-.305-.011-.594.05-.949.097.207-.311.585-.431.943-.457.354.007.774.143.923.496Z"/><path class="uuid-b254f08d-6d93-4cdb-ad7f-fe340b3d37b3" d="M700.584,290.956c-.282-.11-.508-.224-.767-.249-.252-.059-.519-.021-.821-.07.249-.169.552-.233.864-.196.151.036.303.083.428.175.127.088.225.208.296.34Z"/><path class="uuid-b45ce7d9-7c4a-4551-b390-cc63a2f4e634" d="M702.767,290.536c-.005-4.152.053-8.303.173-12.454.005,4.152-.053,8.303-.173,12.454,0,0,.12-4.15,0,0Z"/><path class="uuid-b45ce7d9-7c4a-4551-b390-cc63a2f4e634" d="M712.806,287.84c-.566.759-1.358,1.404-2.294,1.634.894-.339,1.637-.949,2.294-1.634,0,0-.656.685,0,0Z"/><polygon class="uuid-b45ce7d9-7c4a-4551-b390-cc63a2f4e634" points="702.878 283.339 705.003 284.659 702.815 283.458 702.878 283.339 702.878 283.339"/><polygon class="uuid-b45ce7d9-7c4a-4551-b390-cc63a2f4e634" points="702.854 284.606 703.648 284.856 702.824 284.738 702.854 284.606 702.854 284.606"/><polygon class="uuid-b45ce7d9-7c4a-4551-b390-cc63a2f4e634" points="702.845 285.491 704.481 285.86 702.827 285.624 702.845 285.491 702.845 285.491"/><path class="uuid-1897fe2d-9d5f-4eab-9948-3d1308d41779" d="M708.136,287.727c.817.768,1.536,1.631,2.223,2.517.328.456.631.93.897,1.425.266.49.493,1.029.505,1.594-.065-.558-.316-1.067-.584-1.552-.277-.482-.591-.944-.927-1.388-.645-.911-1.383-1.751-2.115-2.597Z"/><path class="uuid-85cc833c-2ad4-4d87-b39b-67a7d9f08447" d="M708.908,287.744c.823.53,1.494,1.272,2.056,2.073.531.822.931,1.742,1.091,2.706-.273-.934-.639-1.842-1.203-2.631-.517-.819-1.194-1.528-1.943-2.147Z"/><path class="uuid-fdc517b0-fb21-4e25-9f9c-6bfb30d83d86" d="M708.067,288.589c.49.737.828,1.567,1.081,2.417.201.857.303,1.786,0,2.629.188-.865.112-1.754-.13-2.595-.204-.853-.562-1.66-.95-2.451Z"/></g><g id="uuid-a2296c41-7e87-4459-9894-feaba37695a2"><path class="uuid-b245fbb1-2cc5-4bf9-933a-cbb40e1763a7" d="M707.984,251.731c19.012,0,34.479,15.467,34.479,34.479s-15.467,34.479-34.479,34.479-34.479-15.467-34.479-34.479,15.467-34.479,34.479-34.479M707.984,246.731c-21.804,0-39.479,17.675-39.479,39.479s17.675,39.479,39.479,39.479,39.479-17.675,39.479-39.479-17.675-39.479-39.479-39.479h0Z"/><path class="uuid-acb3c1f4-7800-4c8e-b04f-64b180f8c2f8" d="M1679.5.5v999H.5V.5h1679M1680,0H0v1000h1680V0h0Z"/></g></svg>