<?xml version="1.0" encoding="UTF-8"?><svg xmlns="http://www.w3.org/2000/svg" xmlns:xlink="http://www.w3.org/1999/xlink" viewBox="0 0 91.27 99.737"><defs><style>.uuid-1359fe0f-218b-4ba9-89e8-91c3e7d10d23{fill:url(#uuid-e40bf21a-2a93-4844-88af-9df0bc5eecbc);}.uuid-1359fe0f-218b-4ba9-89e8-91c3e7d10d23,.uuid-faa4a14c-a22b-4b48-a981-fcbfc9f65f3f,.uuid-1f389778-fa5d-456c-a0a5-63573c0675f0,.uuid-ade49eff-bfad-4634-947e-1679807317c7,.uuid-2b26f778-fd59-4b19-8950-8facfbea6904,.uuid-904f6b94-b9dc-4a29-9bc8-8e30ddac24f4,.uuid-7948782b-a48c-42fa-b83d-36c7f6ca1da0,.uuid-88ccc3bf-a7f7-4423-9e40-0e19ea0f4ea4,.uuid-94d8c76e-f047-443f-90f0-34d68b4eff07,.uuid-a7e1418e-2cf4-4285-acf9-4bd8545a9311,.uuid-d10dda85-3a42-4f5c-b004-8b06a1053eef,.uuid-0edc307f-70ae-4853-a0fb-2f0318872635,.uuid-7898b009-d3c0-4a60-9b3a-80cdcde5ea01,.uuid-b829e4ea-4e10-4b0f-85ba-d3e02697b0c0{stroke-width:0px;}.uuid-faa4a14c-a22b-4b48-a981-fcbfc9f65f3f{fill:#292425;}.uuid-1f389778-fa5d-456c-a0a5-63573c0675f0{fill:#ffc5de;}.uuid-ade49eff-bfad-4634-947e-1679807317c7{fill:url(#uuid-a026c822-ec8e-4c56-a488-8d4414f55bb0);}.uuid-2b26f778-fd59-4b19-8950-8facfbea6904{fill:url(#uuid-ea101144-d8e4-4d43-a8ac-00efa7107c12);}.uuid-904f6b94-b9dc-4a29-9bc8-8e30ddac24f4{fill:url(#uuid-13b6d999-dfa0-46d7-8560-86ff22a28bea);}.uuid-7948782b-a48c-42fa-b83d-36c7f6ca1da0{fill:#191818;}.uuid-88ccc3bf-a7f7-4423-9e40-0e19ea0f4ea4{fill:url(#uuid-c034a8c3-4cda-4a35-8042-efccf5549841);}.uuid-94d8c76e-f047-443f-90f0-34d68b4eff07{fill:#ff922b;}.uuid-a7e1418e-2cf4-4285-acf9-4bd8545a9311{fill:url(#uuid-6536eedc-2e61-446b-a589-8f06ab6b3d31);}.uuid-d10dda85-3a42-4f5c-b004-8b06a1053eef{fill:#ebebeb;}.uuid-0edc307f-70ae-4853-a0fb-2f0318872635{fill:url(#uuid-bfefda11-3f2e-48fb-95e9-2f0bf061c03f);}.uuid-7898b009-d3c0-4a60-9b3a-80cdcde5ea01{fill:#f6f2f0;}.uuid-b829e4ea-4e10-4b0f-85ba-d3e02697b0c0{fill:url(#uuid-42fc4a14-2a6f-4a7c-a8a2-9b8dd60a5a88);}</style><linearGradient id="uuid-6536eedc-2e61-446b-a589-8f06ab6b3d31" x1="40.391" y1="52.298" x2="60.202" y2="38.193" gradientUnits="userSpaceOnUse"><stop offset="0" stop-color="#191818"/><stop offset=".268" stop-color="#5b5958"/><stop offset=".624" stop-color="#adaaa9"/><stop offset=".877" stop-color="#e1dedc"/><stop offset="1" stop-color="#f6f2f0"/></linearGradient><linearGradient id="uuid-42fc4a14-2a6f-4a7c-a8a2-9b8dd60a5a88" x1="39.308" y1="50.083" x2="57.216" y2="37.332" gradientUnits="userSpaceOnUse"><stop offset="0" stop-color="#191818"/><stop offset=".268" stop-color="#5b5958"/><stop offset=".624" stop-color="#adaaa9"/><stop offset=".877" stop-color="#e1dedc"/><stop offset="1" stop-color="#f6f2f0"/></linearGradient><linearGradient id="uuid-a026c822-ec8e-4c56-a488-8d4414f55bb0" x1="43.868" y1="56.471" x2="59.866" y2="45.081" gradientUnits="userSpaceOnUse"><stop offset="0" stop-color="#191818"/><stop offset=".268" stop-color="#5b5958"/><stop offset=".624" stop-color="#adaaa9"/><stop offset=".877" stop-color="#e1dedc"/><stop offset="1" stop-color="#f6f2f0"/></linearGradient><linearGradient id="uuid-bfefda11-3f2e-48fb-95e9-2f0bf061c03f" x1="22.655" y1="56.033" x2="4.202" y2="56.516" gradientUnits="userSpaceOnUse"><stop offset="0" stop-color="#191818"/><stop offset=".268" stop-color="#5b5958"/><stop offset=".624" stop-color="#adaaa9"/><stop offset=".877" stop-color="#e1dedc"/><stop offset="1" stop-color="#f6f2f0"/></linearGradient><linearGradient id="uuid-ea101144-d8e4-4d43-a8ac-00efa7107c12" x1="22.213" y1="53.81" x2="4.943" y2="54.262" gradientUnits="userSpaceOnUse"><stop offset="0" stop-color="#191818"/><stop offset=".268" stop-color="#5b5958"/><stop offset=".624" stop-color="#adaaa9"/><stop offset=".877" stop-color="#e1dedc"/><stop offset="1" stop-color="#f6f2f0"/></linearGradient><linearGradient id="uuid-13b6d999-dfa0-46d7-8560-86ff22a28bea" x1="24.395" y1="59.674" x2="8.55" y2="60.089" gradientUnits="userSpaceOnUse"><stop offset="0" stop-color="#191818"/><stop offset=".189" stop-color="#535151"/><stop offset=".398" stop-color="#8c8a89"/><stop offset=".591" stop-color="#bab7b5"/><stop offset=".761" stop-color="#dad7d5"/><stop offset=".904" stop-color="#eeeae8"/><stop offset="1" stop-color="#f6f2f0"/></linearGradient><radialGradient id="uuid-c034a8c3-4cda-4a35-8042-efccf5549841" cx="17.493" cy="41.501" fx="17.493" fy="41.501" r="5.053" gradientTransform="translate(-8.121 7.491) rotate(-14.093)" gradientUnits="userSpaceOnUse"><stop offset="0" stop-color="#fdec51"/><stop offset=".165" stop-color="#f8e54d"/><stop offset=".386" stop-color="#ebd545"/><stop offset=".639" stop-color="#d6b937"/><stop offset=".914" stop-color="#b89224"/><stop offset=".992" stop-color="#af861e"/></radialGradient><radialGradient id="uuid-e40bf21a-2a93-4844-88af-9df0bc5eecbc" cx="46.302" cy="41.034" fx="46.302" fy="41.034" r="5.053" gradientTransform="translate(72.709 -12.802) rotate(165.907) scale(1 -1)" xlink:href="#uuid-c034a8c3-4cda-4a35-8042-efccf5549841"/></defs><g id="uuid-a370dcfd-9a64-4e1e-bd5c-219dda96475a"><path class="uuid-d10dda85-3a42-4f5c-b004-8b06a1053eef" d="M62.592,92.293c-3.24-.01-5.83-.02-7.22-.02h-.01c-.01-.34-.08-.67-.19-.99h.01c-.22-4.02,1.22-8.92,1.66-10.17.43-.3.73-.56.86-.75.37-.53,1.81-2.67,3.54-5.27,2.01,4.5,1.35,17.14,1.35,17.14v.06Z"/><path class="uuid-faa4a14c-a22b-4b48-a981-fcbfc9f65f3f" d="M62.592,92.293v-.06s.66-12.64-1.35-17.14v-.01c2.49-3.74,5.56-8.45,6.88-10.72h.01c11.76-8.93,2.87-21.36-.15-25.15.64.46,1.25.97,1.83,1.56,14.21,14.4,21.27,18.85,21.21,51.48-7.09.08-19.96.06-28.43.04Z"/><path class="uuid-94d8c76e-f047-443f-90f0-34d68b4eff07" d="M52.852,32.563c3.5,3.07,10.03,2.97,15.13,6.65,3.02,3.79,11.91,16.22.15,25.15h-.01c.41-.71.65-1.18.65-1.31,1.88-8.74-.03-5.05.72-11.99s-4.92-12.85-8.61-13.4c-3.7-.56-7.05-3.14-8.03-5.1Z"/><path class="uuid-d10dda85-3a42-4f5c-b004-8b06a1053eef" d="M55.382,92.573c0,2.78-2.68,5.03-5.99,5.03s-5.98-2.25-5.98-5.03c0-1.02.36-1.96.97-2.75,1.08-1.37,2.92-2.27,5.01-2.27,2.78,0,5.11,1.59,5.78,3.73.11.32.18.65.19.99.02.1.02.2.02.3Z"/><path class="uuid-faa4a14c-a22b-4b48-a981-fcbfc9f65f3f" d="M52.852,32.563c.98,1.96,4.33,4.54,8.03,5.1,3.69.55,9.36,6.46,8.61,13.4s1.16,3.25-.72,11.99c0,.13-.24.6-.65,1.31-1.32,2.27-4.39,6.98-6.88,10.72v.01c-1.73,2.6-3.17,4.74-3.54,5.27-.13.19-.43.45-.86.75-2.86,2.03-11.31,5.98-11.31,4.32.01-.09.02-.14.02-.14.54-2.31,4.05-16.88,4.05-19.07s-4.9-1.53-6.39-1.97-3.09-5.48,1.38-8.11,8.63-11.17,6.82-18.48c.3-2.29.28-4.66-.1-7.04.4.77.93,1.41,1.54,1.94Z"/><path class="uuid-d10dda85-3a42-4f5c-b004-8b06a1053eef" d="M55.172,91.283c-.67-2.14-3-3.73-5.78-3.73-2.09,0-3.93.9-5.01,2.27.28-.45.5-1.12.68-1.81.27-1.07.42-2.19.47-2.58,0,1.66,8.45-2.29,11.31-4.32-.44,1.25-1.88,6.15-1.66,10.17h-.01Z"/><path class="uuid-d10dda85-3a42-4f5c-b004-8b06a1053eef" d="M45.552,85.293s-.01.05-.02.14c-.05.39-.2,1.51-.47,2.58-.35-5.73-2.77-10.13-6.05-13.84-3.88-4.38-8.96-7.81-13.29-11.38-3.64-3-6.75-6.09-8.15-9.93,5.5,4.07,12.61,5.49,19.35,3.18,2.94-1.01,5.52-2.62,7.67-4.68,3.72-3.55,6.13-8.42,6.82-13.7,1.81,7.31-2.35,15.85-6.82,18.48s-2.87,7.67-1.38,8.11,6.39-.22,6.39,1.97-3.51,16.76-4.05,19.07Z"/><path class="uuid-1f389778-fa5d-456c-a0a5-63573c0675f0" d="M45.462,18.173c-2.36-1.14-12,.08-13.31,1.02.09-4.55,2.03-9.96,3.38-13.43.57-1.47,1.04-2.58,1.21-3.14.59-1.89,3.93-4.79,5.04,1.28,1.12,6.06,1.73,11.77,3.68,14.27Z"/><path class="uuid-94d8c76e-f047-443f-90f0-34d68b4eff07" d="M45.462,18.173c2.15,2.42,3.87,5.35,4.95,8.69.4,1.25.7,2.51.9,3.76.38,2.38.4,4.75.1,7.04-.69,5.28-3.1,10.15-6.82,13.7.03-5.46-4.2-8.41-6.89-9.14-2.71-.74-3.42.36-6.98-4.91-3.57-5.28-8.27-3.52-7.8.35.19,1.6,1.88,4.92-.89,7.49-1.27,1.17-4.35,4.61-4.46,7.71-1.29-.95-2.49-2.05-3.58-3.28,0,0,0-.01-.01-.01-1.7-3.19-5.8-19.74,2.43-25.19-.02-1.16,1.93-8.89,3.61-10.78.41-.14.83-.29,1.26-.45.6-.22,1.99-.69,3.68-1.34-2.02,3.84-3.1,10.21-1.86,12.08,1.25,1.88,9.05-4.7,9.05-4.7,1.31-.94,10.95-2.16,13.31-1.02Z"/><path class="uuid-d10dda85-3a42-4f5c-b004-8b06a1053eef" d="M37.702,42.223c2.69.73,6.92,3.68,6.89,9.14-2.15,2.06-4.73,3.67-7.67,4.68-6.74,2.31-13.85.89-19.35-3.18.11-3.1,3.19-6.54,4.46-7.71,2.77-2.57,1.08-5.89.89-7.49-.47-3.87,4.23-5.63,7.8-.35,3.56,5.27,4.27,4.17,6.98,4.91Z"/><path class="uuid-faa4a14c-a22b-4b48-a981-fcbfc9f65f3f" d="M39.012,74.173c-1.42.46-4.64,6.35-5.21,6.94-.59.61-9.62.68-9.62-.87s2.92-14.22,1.54-17.44v-.01c4.33,3.57,9.41,7,13.29,11.38Z"/><path class="uuid-faa4a14c-a22b-4b48-a981-fcbfc9f65f3f" d="M35.532,5.763c-1.35,3.47-3.29,8.88-3.38,13.43-4-3.07-4.3-6.16-4.28-8.57,3.1-1.35,6.37-3.08,7.66-4.86Z"/><path class="uuid-faa4a14c-a22b-4b48-a981-fcbfc9f65f3f" d="M32.152,19.193s-7.8,6.58-9.05,4.7c-1.24-1.87-.16-8.24,1.86-12.08.91-.35,1.9-.75,2.91-1.19-.02,2.41.28,5.5,4.28,8.57Z"/><path class="uuid-d10dda85-3a42-4f5c-b004-8b06a1053eef" d="M28.672,91.543c-.25,2.06-1.67,3.05-3.45,5.37.25-.47.39-.99.39-1.53,0-2.26-2.46-4.1-5.5-4.1-.68,0-1.33.09-1.92.26,2.99-1.17,4.46-4.39,4.79-4.97.33-.59,1.34-5.21,1.2-6.33,0,1.55,9.03,1.48,9.62.87-1.63,2.49-4.68,6.79-5.13,10.43Z"/><path class="uuid-d10dda85-3a42-4f5c-b004-8b06a1053eef" d="M18.192,91.543c.59-.17,1.24-.26,1.92-.26,3.04,0,5.5,1.84,5.5,4.1,0,.54-.14,1.06-.39,1.53-.82,1.51-2.79,2.57-5.11,2.57-3.04,0-5.51-1.83-5.51-4.1,0-1.76,1.49-3.26,3.59-3.84Z"/><path class="uuid-faa4a14c-a22b-4b48-a981-fcbfc9f65f3f" d="M20.022,13.603c-1.68,1.89-3.63,9.62-3.61,10.78-2.76-3.55-7.1-6.61-10.59-8.22,2.41.38,7.64-.3,14.2-2.56Z"/><path class="uuid-faa4a14c-a22b-4b48-a981-fcbfc9f65f3f" d="M16.412,24.383c-8.23,5.45-4.13,22-2.43,25.19-2.11-2.4-3.8-5.29-4.86-8.58-1.2-3.74-1.48-7.55-.95-11.15.26-1.89,5.03-5.25,8.24-5.46Z"/><path class="uuid-1f389778-fa5d-456c-a0a5-63573c0675f0" d="M16.412,24.383c-3.21.21-7.98,3.57-8.24,5.46-.67-2.59-7.6-11.11-7.91-13.59-.22-1.84,2.3-1.6,5.56-.09,3.49,1.61,7.83,4.67,10.59,8.22Z"/></g><g id="uuid-8aab3125-281c-4a99-a91d-de0a4fd49eff"><path class="uuid-faa4a14c-a22b-4b48-a981-fcbfc9f65f3f" d="M8.17,29.839c-.946-2.41-3.339-5.383-4.739-7.591-.804-1.506-5.727-7.256-1.841-7.467,3.079.213,5.726,1.922,8.248,3.522,2.487,1.674,4.769,3.689,6.571,6.083-2.877-3.419-6.565-6.16-10.597-8.064-1.511-.588-3.636-1.716-5.147-.911-.678.857.231,2.035.61,2.899.717,1.302,1.533,2.556,2.351,3.807,1.396,2.226,3.699,5.244,4.543,7.721h0Z"/><path class="uuid-faa4a14c-a22b-4b48-a981-fcbfc9f65f3f" d="M5.824,16.163c5.339.274,10.575-1.511,15.565-3.233,3.774-1.332,7.552-2.708,11.028-4.703,1.14-.678,2.273-1.424,3.118-2.469-.799,1.081-1.91,1.885-3.027,2.617-3.428,2.111-7.229,3.532-10.998,4.888-5.012,1.704-10.33,3.441-15.686,2.9h0Z"/><path class="uuid-d10dda85-3a42-4f5c-b004-8b06a1053eef" d="M8.17,29.839c.765-2.928,5.354-5.393,8.24-5.453-2.51.47-4.788,1.834-6.725,3.455-.623.562-1.253,1.174-1.516,1.998h0Z"/><path class="uuid-faa4a14c-a22b-4b48-a981-fcbfc9f65f3f" d="M32.156,19.192c.078-5.106,1.911-9.981,3.715-14.693,0,0,.902-2.382.902-2.382.56-1.119,1.795-2.401,3.18-1.923,1.244.596,1.622,2.1,1.894,3.315.329,1.668.574,3.336.857,5.004.65,3.266.897,6.809,2.754,9.663-2.794-4.29-2.726-9.754-3.9-14.604-.27-1.137-.623-2.518-1.728-3.06-1.193-.363-2.247.765-2.765,1.747,0,0-.92,2.348-.92,2.348-1.858,4.683-3.695,9.508-3.99,14.585h0Z"/><path class="uuid-d10dda85-3a42-4f5c-b004-8b06a1053eef" d="M32.156,19.192c2.004-1.064,4.362-1.209,6.582-1.497,2.223-.12,4.611-.386,6.72.481-2.171-.581-4.471-.281-6.688-.127-2.21.255-4.524.346-6.614,1.144h0Z"/><path class="uuid-faa4a14c-a22b-4b48-a981-fcbfc9f65f3f" d="M17.566,52.862c-7.236-4.99-10.954-14.415-9.396-23.023-1.039,8.636,2.503,17.64,9.396,23.023h0Z"/><path class="uuid-faa4a14c-a22b-4b48-a981-fcbfc9f65f3f" d="M45.459,18.175c4.876,5.075,7.135,12.554,5.957,19.486.674-6.958-1.479-14.108-5.957-19.486h0Z"/><path class="uuid-faa4a14c-a22b-4b48-a981-fcbfc9f65f3f" d="M27.874,10.622c.021,3.399,1.715,6.413,4.282,8.57-2.908-1.773-4.771-5.142-4.282-8.57h0Z"/><path class="uuid-faa4a14c-a22b-4b48-a981-fcbfc9f65f3f" d="M51.416,37.66c1.336,5.595-.431,11.741-4.045,16.145-1.138,1.577-3.029,2.351-4.32,3.721-1.268,1.4-1.628,3.521-.939,5.266.333.955,1.004,1.529,2.05,1.501,1.966.231,6.273-.311,5.463,2.88-.995,6.118-2.594,12.162-3.967,18.189.459,1.719,10.231-3.507,11.313-4.451.819-.503,1.966-2.632,2.557-3.392,0,0,3.181-4.765,3.181-4.765,1.744-2.78,4.678-6.774,6.068-9.706-.592,1.529-2.032,3.515-2.865,4.953-1.534,2.412-4.665,7.229-6.259,9.6,0,0-1.598,2.379-1.598,2.379-.485.846-1.378,1.353-2.181,1.861-1.639.992-3.349,1.857-5.098,2.634-.857.326-5.335,2.477-5.33.86.855-3.747,1.736-7.446,2.551-11.182.505-2.33,1.045-4.657,1.401-7.012.062-.465.153-.957-.002-1.352-1.001-1.509-3.639-1.05-5.249-1.295-.464-.053-.999-.054-1.404-.41-.377-.334-.637-.767-.807-1.223-.71-1.818-.325-4.009.989-5.45,1.326-1.401,3.176-2.119,4.335-3.706,3.595-4.377,5.43-10.446,4.159-16.048h0Z"/><path class="uuid-faa4a14c-a22b-4b48-a981-fcbfc9f65f3f" d="M44.386,89.824c.588-1.46.769-3.016,1.17-4.535-.047,1.557-.271,3.227-1.17,4.535h0Z"/><path class="uuid-faa4a14c-a22b-4b48-a981-fcbfc9f65f3f" d="M56.84,81.112c-.887,3.326-1.606,6.723-1.658,10.176-.3-3.449.441-6.958,1.658-10.176h0Z"/><path class="uuid-faa4a14c-a22b-4b48-a981-fcbfc9f65f3f" d="M55.394,92.576c-.085,4.853-6.7,6.589-10.072,3.74-2.568-1.857-2.637-5.655-.045-7.539,3.395-2.837,10.032-1.044,10.118,3.799h0ZM55.368,92.576c-.282-6.459-11.589-6.446-11.886,0,.147,6.552,11.627,6.451,11.886,0h0Z"/><path class="uuid-faa4a14c-a22b-4b48-a981-fcbfc9f65f3f" d="M45.063,88.051c-.642-12.31-12.076-19.03-20.557-26.164-2.874-2.493-5.628-5.382-6.939-9.025.69,1.791,1.748,3.413,2.981,4.868,8.719,9.766,23.869,15.243,24.515,30.321h0Z"/><path class="uuid-faa4a14c-a22b-4b48-a981-fcbfc9f65f3f" d="M51.313,30.62c1.623,3.071,5.236,3.99,8.313,4.93,3.169.917,6.417,1.971,9.035,4.087,2.166,1.884,5.005,4.966,7.105,6.988,7.605,7.302,12.552,15.178,14.072,25.756,1.07,6.601,1.273,13.296,1.27,19.963-.055.067-35.669-.116-35.738-.067,0,0,35.648-.11,35.648-.11-.271-6.068-.245-13.357-1.418-19.745-1.588-10.609-6.35-18.301-13.963-25.669-2.088-2.014-4.92-5.113-7.07-6.999-2.584-2.103-5.809-3.159-8.969-4.114-3.069-.969-6.695-1.932-8.286-5.019h0Z"/><path class="uuid-faa4a14c-a22b-4b48-a981-fcbfc9f65f3f" d="M25.722,62.8c1.115,4.376-.279,9.189-.836,13.591,0,0-.376,2.252-.376,2.252-.076.533-.202,1.129-.198,1.654.024.128.159.246.307.334,2.752,1.029,6.053.927,8.927.514.322-.077.5-.567.695-.8.4-.607,1.438-2.257,1.855-2.882.906-1.148,1.64-2.747,3.05-3.316-1.388.606-2.076,2.217-2.945,3.386-.583.885-1.56,2.515-2.141,3.379-.104.169-.267.36-.461.396-1.52.349-3.05.312-4.578.296-1.536-.094-3.105-.075-4.535-.753-.168-.107-.364-.248-.421-.504.254-2.805,1.003-5.703,1.362-8.495.328-2.974,1.086-6.108.294-9.052h0Z"/><path class="uuid-faa4a14c-a22b-4b48-a981-fcbfc9f65f3f" d="M25.624,95.388c-.39,5.623-10.601,5.533-11.087,0,.342-5.624,10.744-5.615,11.087,0h0ZM25.599,95.388c-.498-5.317-10.423-5.306-10.924,0,.308,5.39,10.519,5.291,10.924,0h0Z"/><path class="uuid-faa4a14c-a22b-4b48-a981-fcbfc9f65f3f" d="M25.218,96.91c.863-1.237,1.979-2.312,2.759-3.598.777-1.313.609-2.956,1.237-4.342,1.11-2.846,2.842-5.377,4.589-7.858-1.571,2.587-3.324,5.1-4.353,7.945-.656,1.392-.507,3.018-1.328,4.339-.816,1.311-1.958,2.327-2.902,3.514h0Z"/><path class="uuid-faa4a14c-a22b-4b48-a981-fcbfc9f65f3f" d="M18.138,91.561c3.134-1.436,4.983-4.683,5.524-7.975.218-1.104.513-2.211.519-3.341.045,4.395-1.523,9.666-6.043,11.316h0Z"/><path class="uuid-faa4a14c-a22b-4b48-a981-fcbfc9f65f3f" d="M61.242,75.086c2.012,5.416,1.59,11.461,1.35,17.143-.082-5.638.358-11.716-1.35-17.143h0Z"/></g><g id="uuid-c209dca9-5368-4257-899a-831a2c4aa664"><path class="uuid-a7e1418e-2cf4-4285-acf9-4bd8545a9311" d="M38.487,49.546c1.886-.913,3.801-1.766,5.737-2.569,1.933-.81,3.893-1.552,5.854-2.291,1.973-.707,3.952-1.398,5.952-2.024,1.996-.638,4.02-1.189,6.052-1.7-1.985.672-3.969,1.335-5.943,2.03-1.974.692-3.95,1.378-5.907,2.117-1.97.702-3.924,1.449-5.881,2.189l-5.864,2.248Z"/><path class="uuid-b829e4ea-4e10-4b0f-85ba-d3e02697b0c0" d="M37.839,48.019c1.521-1.115,3.153-2.07,4.816-2.961,1.666-.886,3.38-1.681,5.123-2.406,1.755-.693,3.525-1.356,5.338-1.881,1.805-.551,3.646-.976,5.497-1.321-1.809.528-3.618,1.034-5.392,1.652-1.782.59-3.541,1.246-5.272,1.967-1.747.686-3.447,1.482-5.137,2.297-1.687.822-3.352,1.695-4.973,2.653Z"/><path class="uuid-ade49eff-bfad-4634-947e-1679807317c7" d="M40.134,51.071c3.821-.921,7.75-1.34,11.678-1.5,1.966-.058,3.936-.025,5.898.117,1.963.134,3.913.429,5.833.835-1.951-.221-3.896-.427-5.853-.488-1.954-.069-3.909-.105-5.863-.013-1.955.046-3.907.185-5.856.358-1.949.178-3.895.407-5.836.692Z"/><path class="uuid-0edc307f-70ae-4853-a0fb-2f0318872635" d="M22.549,53.628l-18.22,5.292c1.472-.583,2.956-1.139,4.458-1.638,1.499-.51,3.016-.964,4.532-1.421,1.525-.425,3.05-.852,4.588-1.226,1.537-.38,3.084-.719,4.642-1.007Z"/><path class="uuid-2b26f778-fd59-4b19-8950-8facfbea6904" d="M22.169,52.096c-1.459.167-2.903.411-4.343.667-1.438.267-2.875.538-4.295.888-1.427.319-2.844.682-4.251,1.081-1.412.386-2.811.818-4.216,1.247,1.349-.578,2.719-1.12,4.121-1.563,1.395-.466,2.823-.829,4.25-1.182,1.437-.317,2.882-.596,4.34-.795,1.457-.201,2.925-.332,4.395-.342Z"/><path class="uuid-904f6b94-b9dc-4a29-9bc8-8e30ddac24f4" d="M24.18,54.749c-1.356.743-2.683,1.529-4.003,2.325-1.317.8-2.626,1.612-3.9,2.479-1.295.834-2.549,1.728-3.791,2.639-1.25.902-2.456,1.861-3.668,2.823,1.105-1.08,2.246-2.132,3.467-3.085,1.208-.97,2.471-1.868,3.755-2.734,2.594-1.688,5.284-3.248,8.139-4.446Z"/><path class="uuid-1f389778-fa5d-456c-a0a5-63573c0675f0" d="M33.18,55.987c4.325-3.354,2.192-5.684-.752-3.284-.174.142-.429.22-.65.2-3.754-.346-4.504,2.869.893,3.24.167.012.375-.052.509-.156Z"/><path class="uuid-88ccc3bf-a7f7-4423-9e40-0e19ea0f4ea4" d="M24.044,42.204c.652,2.597-1.1,5.274-3.913,5.98s-6.274-3.423-6.274-3.423c0,0,1.1-5.274,3.913-5.98s5.622.826,6.274,3.423Z"/><path class="uuid-7948782b-a48c-42fa-b83d-36c7f6ca1da0" d="M24.044,42.204c.701,2.581-1.169,5.275-3.66,5.996-2.669.74-4.978-1.559-6.668-3.32-.053-.067-.075-.041-.039-.157.656-2.35,1.608-5.469,4.309-6.077,2.536-.54,5.458.951,6.058,3.557h0ZM24.044,42.204c-.968-3.971-7.067-4.974-8.713-.961-.601,1.108-1.013,2.331-1.292,3.556l-.039-.156c.824.949,1.766,1.831,2.818,2.524,3.346,2.761,8.25-1.006,7.226-4.963h0Z"/><path class="uuid-faa4a14c-a22b-4b48-a981-fcbfc9f65f3f" d="M21.429,42.861c.447,1.782-.558,3.569-.558,3.569,0,0-1.731-1.101-2.178-2.882s.558-3.569.558-3.569c0,0,1.731,1.101,2.178,2.882Z"/><circle class="uuid-7898b009-d3c0-4a60-9b3a-80cdcde5ea01" cx="20.566" cy="41.359" r=".472"/><path class="uuid-1359fe0f-218b-4ba9-89e8-91c3e7d10d23" d="M32.698,39.551c.652,2.597,3.461,4.129,6.274,3.423s3.913-5.98,3.913-5.98c0,0-3.461-4.129-6.274-3.423s-4.565,3.384-3.913,5.98Z"/><path class="uuid-7948782b-a48c-42fa-b83d-36c7f6ca1da0" d="M32.698,39.551c.624,2.576,3.545,4.01,6.018,3.362,2.504-.675,3.34-3.735,3.942-5.966,0,0,.049.196.049.196-1.585-1.682-3.768-3.983-6.293-3.396-2.485.597-4.384,3.24-3.717,5.805h0ZM32.698,39.551c-.705-2.583,1.162-5.283,3.654-6.018,2.66-.765,5.019,1.545,6.71,3.312.075.089.09.058.049.196-.656,2.355-1.646,5.506-4.35,6.088-2.543.529-5.465-.968-6.063-3.578h0Z"/><path class="uuid-faa4a14c-a22b-4b48-a981-fcbfc9f65f3f" d="M37.259,38.406c.447,1.782,2.178,2.882,2.178,2.882,0,0,1.006-1.788.558-3.569s-2.178-2.882-2.178-2.882c0,0-1.006,1.788-.558,3.569Z"/><ellipse class="uuid-7898b009-d3c0-4a60-9b3a-80cdcde5ea01" cx="39.464" cy="36.562" rx=".898" ry=".472" transform="translate(-14.32 37.763) rotate(-44.093)"/></g></svg>