<svg xmlns="http://www.w3.org/2000/svg" xmlns:xlink="http://www.w3.org/1999/xlink" viewBox="0 0 1681.92 1003.34"><defs><linearGradient id="uuid-caca5f67-d432-404c-b611-16ec08773bb8" x1="594.64" y1="295.63" x2="741.61" y2="299.48" gradientUnits="userSpaceOnUse"><stop offset="0" stop-color="#f6f2f0"/><stop offset=".12" stop-color="#e1dedc"/><stop offset=".38" stop-color="#adaaa9"/><stop offset=".73" stop-color="#5b5958"/><stop offset="1" stop-color="#191818"/></linearGradient><linearGradient id="uuid-c446db9d-0347-4e10-b42c-8d15c000a9ab" x1="597.46" y1="280.99" x2="730.31" y2="284.47" gradientUnits="userSpaceOnUse"><stop offset="0" stop-color="#f6f2f0"/><stop offset=".12" stop-color="#e1dedc"/><stop offset=".38" stop-color="#adaaa9"/><stop offset=".73" stop-color="#5b5958"/><stop offset="1" stop-color="#191818"/></linearGradient><linearGradient id="uuid-86644b78-7f40-499b-a83c-27a9b11ce40e" x1="596.28" y1="328.42" x2="714.95" y2="331.53" gradientUnits="userSpaceOnUse"><stop offset="0" stop-color="#f6f2f0"/><stop offset=".12" stop-color="#e1dedc"/><stop offset=".38" stop-color="#adaaa9"/><stop offset=".73" stop-color="#5b5958"/><stop offset="1" stop-color="#191818"/></linearGradient><linearGradient id="uuid-119e655d-2250-40c9-9532-d5f1a56bee66" x1="534.75" y1="302.58" x2="417.53" y2="305.65" xlink:href="#uuid-caca5f67-d432-404c-b611-16ec08773bb8"/><linearGradient id="uuid-89bf4746-3815-40cb-a741-dedab003703d" x1="531.95" y1="288.45" x2="422.24" y2="291.32" xlink:href="#uuid-c446db9d-0347-4e10-b42c-8d15c000a9ab"/><linearGradient id="uuid-57980026-d455-4252-9b03-e2fcb1c4aec6" x1="545.8" y1="325.71" x2="445.15" y2="328.35" xlink:href="#uuid-86644b78-7f40-499b-a83c-27a9b11ce40e"/><radialGradient id="uuid-40f0d7d6-7fa6-4c92-a5f7-1f4ee464f883" cx="-288.96" cy="203.83" fx="-288.96" fy="203.83" r="30.2" gradientTransform="matrix(.248 -.026 .006 1 595.88 22.13)" gradientUnits="userSpaceOnUse"><stop offset="0" stop-color="#fdec51"/><stop offset=".17" stop-color="#f8e54d"/><stop offset=".39" stop-color="#ebd545"/><stop offset=".64" stop-color="#d6b937"/><stop offset=".91" stop-color="#b89224"/><stop offset=".99" stop-color="#af861e"/></radialGradient><radialGradient id="uuid-1df9adc7-7ee5-424d-a2fb-42cc7c663021" cx="1160.3" cy="207.78" fx="1160.3" fy="207.78" r="37.75" gradientTransform="matrix(-.729 .017 .03 1 1443.33 -13.81)" xlink:href="#uuid-40f0d7d6-7fa6-4c92-a5f7-1f4ee464f883"/><style>.uuid-1cd767a3-87a5-4715-a81d-4d26324bb754,.uuid-33e7480a-3d19-4f99-b9e9-ff30ce10c525,.uuid-43638cbf-70a8-4d64-9431-1f68caafed5a,.uuid-54fcbfd6-0bab-4c34-8fdf-605322977407,.uuid-552612a3-f70b-4a08-889d-1dffd3908f10,.uuid-57c43eb6-56af-4ca0-a3d0-7fc8e5a5c950,.uuid-6ccbf50f-8224-4e0d-82a0-3a9b921f3956,.uuid-71dfdac6-4431-4f71-948b-6b6cdda1a9e1,.uuid-7fc7d02f-f7c5-434b-b59e-71febbff47f9,.uuid-842cf44f-9da3-4a13-86ff-73b7d80d5b52,.uuid-fe2494e9-bf6e-415d-aea7-155789873c8c{stroke-width:0}.uuid-fe2494e9-bf6e-415d-aea7-155789873c8c{fill:#77a43c}.uuid-552612a3-f70b-4a08-889d-1dffd3908f10{fill:#292425}.uuid-57c43eb6-56af-4ca0-a3d0-7fc8e5a5c950{fill:#155b2c}.uuid-33e7480a-3d19-4f99-b9e9-ff30ce10c525{fill:#ffc5de}.uuid-7fc7d02f-f7c5-434b-b59e-71febbff47f9{fill:#4c4345}.uuid-43638cbf-70a8-4d64-9431-1f68caafed5a{fill:#191818}.uuid-842cf44f-9da3-4a13-86ff-73b7d80d5b52{fill:#ff922b}.uuid-71dfdac6-4431-4f71-948b-6b6cdda1a9e1{fill:#ebebeb}.uuid-6ccbf50f-8224-4e0d-82a0-3a9b921f3956{fill:#006837}.uuid-1cd767a3-87a5-4715-a81d-4d26324bb754{fill:#f6f2f0}.uuid-54fcbfd6-0bab-4c34-8fdf-605322977407{fill:#f1ffdc}</style></defs><g id="uuid-2dad7b92-d555-4e24-b434-075b181ded1d"><path class="uuid-54fcbfd6-0bab-4c34-8fdf-605322977407" d="M685.64 17.03c-11.5-9.3-21.06-13.34-29-13.34V1.62L1680.96 3.7v591.9c-.23-15.72-18.53-45.2-41.43-49.14-22.1-3.82-16.68-30.4-33.48-33.61-21.52-4.25-29 19.34-45.22 19.34-13 0-8.63-34.55-27.16-35.48-26.12-1.24-23.7 39.82-37.97 39.82-24.16 0-30.03 21.52-40.27 21.52-23.48 0-10.47-45.2-25.43-45.2-21.63 0-15.42-37.04-43.96-37.04-44.64 0-10.81-36.1-41.3-36.1-24.98 0-20.37 21.42-45 17.28-30.95-5.07-2.18-38.38-36.24-43.24-43.15-6.2-19.91-31.65-37.51-35.17-17.95-3.52-15.65 24.62-30.96 22.45-13.11-1.87-9.78 27.2-24.28 26.27-14.5-20.8-31.06-42-50.28-63.93-26.47-30.3-57.65-61.96-94.35-95.17-45.23-40.86-47.3-15.51-136.24-80.68-10.36-7.55-23.7-18.41-38.43-30.31-26.01-21.1-56.73-45.93-84.92-64.03-13-8.38-25.43-15.41-36.6-19.96-11.5-23.18-30.03-44.8-44.3-56.17ZM499.46 250.92c-14.5.93-.23 22.65-13.34 24.51-15.3 2.18-12.32-16.55-30.27-13.03-17.6 3.52 5.64 28.96-37.5 35.17-34.07 4.86-5.3 38.17-36.25 43.24-24.63 4.14-20.03-17.28-45-17.28-30.49 0 3.34 36.1-41.3 36.1-28.54 0-22.33 37.04-43.96 37.04-14.96 0-1.84 45.2-25.43 45.2-10.24 0-16.1-21.51-40.27-21.51-14.27 0-11.74-41.07-37.97-39.83-18.53.93-14.16 35.48-27.16 35.48-16.22 0-23.7-23.58-45.22-19.34-16.8 3.2-11.39 29.79-33.48 33.62-22.9 3.93-41.2 33.4-41.43 49.13V.28l655.76 1.34V3.7c-5.52 0-10.35 1.97-14.73 5.48a43.87 43.87 0 0 0-7.25 7.86c-9.66 13.56-8.51 54.42-5.98 86.17-13 2.59-25.31 6.83-36.7 12.31-52.7 4.35-85.15-18.2-95.05-19.96l-.23.41c-9.78-4.65-17.72-4.34-5.18 7.76 14.85 14.38 36.6 44.38 38.78 69a113.56 113.56 0 0 0-13.46 41.06c-.12.42-.12.73-.12 1.14-.92 6-5.52 35.28-17.26 36Z"/><path class="uuid-fe2494e9-bf6e-415d-aea7-155789873c8c" d="M1680.96 595.59v215.88s-7.37-38.06-20.49-37.23c-14.6.93-16.1-55.97-29.22-54.1-15.3 2.17-19.68 23.48-37.63 27.1-17.6 3.51-12.54-29.17-55.7-22.97-34.05 4.86-17.48-56.48-48.43-51.3-24.63 4.03-20.03-17.38-45.11-17.38-30.5 0 3.34 36.2-41.2 36.2-28.53 0-22.32 36.93-44.06 36.93-14.85 0-1.84 45.2-25.43 45.2-10.24 0-16.11-21.51-40.28-21.51-14.26 0-7.59-40.76-33.7-39.52.1-47.27-4.61-92.78-17.61-138.5v-.21c-13.47-47.8-35.9-96-71.34-146.9 14.5.94 11.16-28.13 24.27-26.27 15.3 2.18 13-25.96 30.96-22.44 17.6 3.51-5.64 28.96 37.5 35.17 34.07 4.86 5.3 38.17 36.25 43.24 24.63 4.13 20.03-17.28 45-17.28 30.49 0-3.34 36.1 41.3 36.1 28.54 0 22.33 37.03 43.96 37.03 14.96 0 1.96 45.2 25.43 45.2 10.24 0 16.1-21.5 40.27-21.5 14.27 0 11.85-41.08 37.97-39.83 18.53.93 14.16 35.48 27.16 35.48 16.22 0 23.7-23.59 45.22-19.35 16.8 3.21 11.39 29.8 33.48 33.62 22.9 3.93 41.2 33.41 41.43 49.14ZM1435.98 973.26c26.12 0 7.6-41.38 6.21-44.48 2.42 3 26.35 32.9 41.54 32.9 15.42 0 63.86-36.63 67.66-39.42-2.41 3.31-31.07 42.1-2.99 42.62 18.07.3 63.86-78.3 66.74-83.27-.8 3.41-15.07 57.72 15.76 59.68 46.03 3 20.02-41.27 50.06-127.44 0 56.8-1.15 179.06 0 185.68l-421.26.21v-59.38l87.1-35.37s-66.16 60.2 14.04 59.89c23.7-.2 55.58-94.13 55.58-94.13s-7.6 102.5 19.56 102.5Z"/><path class="uuid-6ccbf50f-8224-4e0d-82a0-3a9b921f3956" d="M1615.14 881.6c-2.88 4.97-48.68 83.59-66.74 83.28-28.08-.52.57-39.31 3-42.62-3.8 2.8-52.25 39.41-67.67 39.41-15.19 0-39.12-29.9-41.54-32.9 1.38 3.11 19.91 44.49-6.21 44.49-27.16 0-19.56-102.52-19.56-102.52s-31.87 93.93-55.58 94.14c-80.2.3-14.04-59.9-14.04-59.9l-87.1 35.38v-52.24s-7.71 20.59-16.46 36.1l-.92-.41c8.52-77.38 17.38-145.85 17.38-210.92 26.12-1.24 19.44 39.51 33.71 39.51 24.17 0 30.03 21.52 40.28 21.52 23.58 0 10.58-45.2 25.42-45.2 21.75 0 15.54-36.93 44.07-36.93 44.53 0 10.7-36.2 41.2-36.2 25.08 0 20.48 21.4 45.1 17.37 30.96-5.17 14.39 56.17 48.45 51.3 43.15-6.2 38.08 26.49 55.69 22.97 17.95-3.62 22.32-24.93 37.62-27.1 13.12-1.86 14.62 55.03 29.23 54.1 13.12-.83 20.48 37.24 20.48 37.24v2.38c-30.03 86.17-4.02 130.44-50.05 127.44-30.84-1.96-16.57-56.27-15.76-59.69Z"/><path class="uuid-552612a3-f70b-4a08-889d-1dffd3908f10" d="m1242.33 923.81.92.42c-5.41 9.62-11.28 17.37-15.88 17.06-8.86-.51-9.9-8.68-8.17-17.48h23.13Z"/><path class="uuid-fe2494e9-bf6e-415d-aea7-155789873c8c" d="M1227.02 900.95c-.8 1.55-5.98 12.72-7.82 22.86h-19.1c12.2-7.86 25.31-21.3 26.92-22.86Z"/><path class="uuid-552612a3-f70b-4a08-889d-1dffd3908f10" d="M1180.2 923.81h19.9c-5.18 3.42-10.24 5.7-14.16 5.7-1.95 0-3.9-2.18-5.75-5.7Z"/><path class="uuid-fe2494e9-bf6e-415d-aea7-155789873c8c" d="M1180.2 923.81h-25.55c8.28-9.93 10.47-52.24 10.47-52.24s7.02 37.76 15.07 52.24Z"/><path class="uuid-552612a3-f70b-4a08-889d-1dffd3908f10" d="M1143.37 923.81h11.28c-1.04 1.35-2.19 2.07-3.57 2.07-2.42 0-4.95-.72-7.71-2.07Z"/><path class="uuid-842cf44f-9da3-4a13-86ff-73b7d80d5b52" d="M1170.76 427.29c35.44 50.9 57.87 99.1 71.34 146.89v.2c8.28 66.31-84 127.65-94.47 137.06-10.36 9.31-40.97 64.76-45.68 91.76 4.14-35.38 9.66-68.27 13.11-89.69 13.93-85.65 47.52-271.33 5.41-350.15a733.72 733.72 0 0 1 50.28 63.93Z"/><path class="uuid-552612a3-f70b-4a08-889d-1dffd3908f10" d="M1119.55 923.81c1.5 9.93 1.61 18.83-3.1 18.2s-8.87-8.06-12.2-18.2h15.3Z"/><path class="uuid-fe2494e9-bf6e-415d-aea7-155789873c8c" d="M1113.91 898.05s15.77 19.45 29.46 25.76h-23.82c-1.72-12.1-5.64-25.76-5.64-25.76Z"/><path class="uuid-552612a3-f70b-4a08-889d-1dffd3908f10" d="M1113.91 898.05s3.91 13.66 5.64 25.76h-15.3c-3.46-10.65-6.22-24.41-7.94-36.41-.12-13.34.46-27.3 1.5-41.48a1007.1 1007.1 0 0 1 4.02-42.1c0-.2.12-.42.12-.62 4.71-27 35.32-82.45 45.68-91.76 10.47-9.4 102.75-70.75 94.46-137.06 13 45.72 17.73 91.24 17.61 138.51 0 65.07-8.86 133.55-17.38 210.92h-23.12c1.84-10.13 7.02-21.3 7.82-22.86-1.61 1.55-14.73 15-26.92 22.86h-19.91c-8.05-14.48-15.07-52.24-15.07-52.24s-2.19 42.31-10.47 52.24h-11.28c-13.7-6.3-29.46-25.75-29.46-25.75Z"/><path class="uuid-71dfdac6-4431-4f71-948b-6b6cdda1a9e1" d="M1104.7 954.22c0 22.76-29.8 41.17-66.61 41.17-25.55 0-47.87-8.9-59.03-22.03-4.95-5.69-7.71-12.2-7.71-19.14 0-12.1 8.28-22.86 21.63-30.4.57-.32 1.15-.73 1.84-1.04 11.62-6.2 26.81-9.83 43.27-9.83 17.37 0 33.13 4.03 44.99 10.86 8.63 4.86 15.19 11.07 18.64 18.2 1.95 3.83 2.99 7.97 2.99 12.21Z"/><path class="uuid-fe2494e9-bf6e-415d-aea7-155789873c8c" d="M1096.3 887.4c1.73 12 4.5 25.76 7.95 36.41h-5.87c-1.5-11.17-2.07-23.48-2.07-36.41Z"/><path class="uuid-71dfdac6-4431-4f71-948b-6b6cdda1a9e1" d="M1101.72 942.02c-3.46-7.14-10.02-13.35-18.65-18.2h15.3c.81 6.5 1.97 12.61 3.35 18.2Z"/><path class="uuid-fe2494e9-bf6e-415d-aea7-155789873c8c" d="M1038.09 995.4c36.82 0 66.62-18.42 66.62-41.18 0-4.24-1.04-8.37-3-12.2a155.67 155.67 0 0 1-3.33-18.2h5.87c3.33 10.13 7.48 17.58 12.2 18.2s4.6-8.28 3.1-18.2h23.82c2.76 1.34 5.3 2.06 7.7 2.06 1.39 0 2.54-.72 3.58-2.07h25.54c1.84 3.52 3.8 5.7 5.75 5.7 3.92 0 8.98-2.29 14.16-5.7h19.1c-1.73 8.8-.7 16.97 8.17 17.48 4.6.31 10.47-7.44 15.88-17.06 8.74-15.52 16.45-36.1 16.45-36.1v111.61l-221.62.1v-4.45Z"/><path class="uuid-71dfdac6-4431-4f71-948b-6b6cdda1a9e1" d="M995.05 912.85c37.74-30.31 96.42-19.45 102.75-66.93a512.64 512.64 0 0 0-1.5 41.48c0 12.93.58 25.24 2.08 36.41h-15.3c-11.86-6.82-27.62-10.86-45-10.86-16.45 0-31.64 3.62-43.26 9.83.11-3.31.23-6.62.23-9.93Z"/><path class="uuid-552612a3-f70b-4a08-889d-1dffd3908f10" d="M995.05 912.85c.8-52.55-6.33-103.65-14.27-142.96-8.86-44.48-18.52-73.96-18.52-73.96 43.6 8.48-36.14-226.02-64.67-256.64-28.42-30.73 76.75-109.55 73.76-121.86-.7-3-4.38-11.07-9.79-21.93-16.8-33-50.5-91.44-71.68-108 88.95 65.18 91.02 39.83 136.24 80.7 36.7 33.2 67.89 64.85 94.35 95.16 42.11 78.82 8.52 264.5-5.4 350.15-3.46 21.42-8.98 54.31-13.12 89.69 0 .2-.12.41-.12.62-1.61 13.86-3 28.03-4.03 42.1-6.32 47.48-65 36.62-102.75 66.93Z"/><path class="uuid-71dfdac6-4431-4f71-948b-6b6cdda1a9e1" d="M980.78 769.89c7.94 39.3 15.08 90.4 14.27 142.96 0 3.3-.11 6.62-.23 9.93-11.16-13.14-33.48-22.04-59.03-22.04-9.43 0-18.3 1.24-26.46 3.42 6.1-4.14 9.2-11.8 10.12-22.14 1.27-15.93-2.88-38.27-10.24-63.4 21.63 3 74.45-27.84 68.7-48.21l2.87-.52Z"/><path class="uuid-71dfdac6-4431-4f71-948b-6b6cdda1a9e1" d="M935.8 900.74c25.54 0 47.86 8.9 59.02 22.04-.69.3-1.27.72-1.84 1.03-13.35 7.55-21.63 18.31-21.63 30.41 0 6.93 2.76 13.45 7.7 19.14-11.61 6.2-26.8 9.93-43.26 9.93-36.82 0-66.62-18.52-66.62-41.27 0-6.52 2.42-12.73 6.9-18.21 6.9-8.8 18.76-15.72 33.26-19.65a102.84 102.84 0 0 1 26.46-3.42Z"/><path class="uuid-552612a3-f70b-4a08-889d-1dffd3908f10" d="m980.78 769.89-2.87.52c5.75 20.37-47.07 51.2-68.7 48.2-22.67-76.86-75.48-180.3-94.12-211.13-18.99-46.96-39.7-70.85-50.17-89.27-2.42-4.13-4.6-19.24-9.32-38.79 77.32 26.17 169.14 144.51 206.66 216.5 0 0 9.66 29.49 18.52 73.97Z"/><path class="uuid-fe2494e9-bf6e-415d-aea7-155789873c8c" d="M1259.7 1000.26s-392.72 1.34-445.07 0c-.12-.1-.35-.21-.46-.31l223.92-.1 221.61-.11v.52Z"/><path class="uuid-842cf44f-9da3-4a13-86ff-73b7d80d5b52" d="M889.88 187.5c21.17 16.56 54.89 75 71.69 108l-.35.1s-42.8 15-60.18 0c-6.9-6-14.84-23.48-22.44-44.68-11.73-32.48-22.55-73.45-27.15-93.72 14.73 11.9 28.08 22.75 38.43 30.3Z"/><path class="uuid-552612a3-f70b-4a08-889d-1dffd3908f10" d="m804.16 167.75-1.38.2c-8.4-32.47-24.86-62.99-36.25-74.78 28.2 18.1 58.91 42.93 84.92 64.03 4.6 20.27 15.42 61.24 27.15 93.72-30.37-20.59-73.4-73.14-74.44-83.17Z"/><path class="uuid-fe2494e9-bf6e-415d-aea7-155789873c8c" d="M909.33 904.16c-14.5 3.93-26.35 10.86-33.26 19.65H827.4s6.9-21.1 12.77-54.62c4.03 2.8 7.25 4.14 9.44 3.62 20.02-4.65 10-105.82 10-105.82s41.08 114.51 59.73 115.03h.11c-.92 10.34-4.03 18-10.13 22.14Z"/><path class="uuid-842cf44f-9da3-4a13-86ff-73b7d80d5b52" d="M849.6 872.82c-2.18.51-5.4-.83-9.43-3.62a545 545 0 0 0 7.6-71.59v-.2c1.15-29.48-.23-61.97-6.33-95.27-7.14-39.52-16.57-70.14-26.35-94.65 18.64 30.82 71.45 134.26 94.12 211.12 7.37 25.14 11.5 47.48 10.24 63.41h-.11C900.7 881.5 859.62 767 859.62 767s10 101.17-10.01 105.83Z"/><path class="uuid-fe2494e9-bf6e-415d-aea7-155789873c8c" d="M814.63 1000.26h-437.6c.12 0 .12-.1.23-.21l436.9-.1c.12.1.35.2.47.3Z"/><path class="uuid-71dfdac6-4431-4f71-948b-6b6cdda1a9e1" d="M807.95 210.37c.58-13.55-1.5-28.14-5.17-42.41l1.38-.21c1.03 10.03 44.07 62.58 74.44 83.17 7.6 21.2 15.54 38.69 22.44 44.69 17.38 15 60.18 0 60.18 0l.35-.1c5.4 10.85 9.09 18.92 9.78 21.92 2.99 12.31-102.18 91.14-73.76 121.86 28.54 30.62 108.28 265.12 64.67 256.64-37.51-72-129.34-190.34-206.66-216.5-10.24-42.21-32.22-105-92.86-123 81.12-.1 146.6-57.51 146.6-128.37 0-6-.47-11.9-1.5-17.7h.11Z"/><path class="uuid-71dfdac6-4431-4f71-948b-6b6cdda1a9e1" d="M567.81 185.85c1.38 18.52 48.79-2.07 55.23 50.17 2.53 20.28 59.6 8.38 68.47 2.48s30.95 22.76 40.27 28.66c9.44 5.9 86.53-12 70.08-79.76 2.76 7.35 4.83 15 5.98 22.97 1.03 5.8 1.5 11.69 1.5 17.69 0 70.86-65.48 128.27-146.6 128.37h-.11c-59.95 0-111.39-31.45-134.17-76.44.12-9.93 5.3-25.24 8.05-31.14 2.65-5.8 1.16-27.93-4.02-37.55-3.57-6.41.23-20.69 1.6-31.45 6.1-17.17 32.34-12.51 33.72 6Z"/><path class="uuid-fe2494e9-bf6e-415d-aea7-155789873c8c" d="m1038.09 999.84-223.92.1c-17.95-14.9-34.06-38.37-46.03-58.75-11.96-20.69-19.79-38.17-20.6-40.24 3.46 2.8 62.72 51.1 67.55 44.07 6.1-9-59.5-171-59.5-171s58.46 77.28 84.58 95.17c-5.87 33.52-12.77 54.62-12.77 54.62h48.67c-4.49 5.48-6.9 11.7-6.9 18.2 0 22.77 29.8 41.28 66.62 41.28 16.46 0 31.65-3.72 43.27-9.93 11.16 13.14 33.48 22.04 59.03 22.04v4.44Z"/><path class="uuid-552612a3-f70b-4a08-889d-1dffd3908f10" d="M802.78 167.96c3.68 14.27 5.75 28.86 5.17 42.4h-.11a109.8 109.8 0 0 0-5.98-22.96c0-.1-.12-.3-.12-.41-11.05-28.45-32.9-52.34-61.56-67.86 1.96-14.27-2.65-30.41-10.24-45.93 11.16 4.55 23.59 11.59 36.6 19.97 11.38 11.79 27.84 42.3 36.24 74.79Z"/><path class="uuid-33e7480a-3d19-4f99-b9e9-ff30ce10c525" d="M729.94 73.2c7.6 15.52 12.2 31.66 10.24 45.93-19.33-10.65-41.88-17.38-65.93-19.03-31.42-27.41-45.45-64.13-32.34-90.93 4.38-3.51 9.2-5.48 14.73-5.48 7.94 0 17.5 4.04 29 13.35 14.27 11.37 32.8 33 44.3 56.16Z"/><path class="uuid-552612a3-f70b-4a08-889d-1dffd3908f10" d="M641.91 9.17c-13.11 26.8.93 63.52 32.34 90.93a166.66 166.66 0 0 0-45.57 3.1c-2.53-31.76-3.68-72.62 5.98-86.17a43.9 43.9 0 0 1 7.25-7.86Z"/><path class="uuid-fe2494e9-bf6e-415d-aea7-155789873c8c" d="m814.17 999.95-436.9.1c23.7-14.48 34.17-68.07 38.43-118.86a805.66 805.66 0 0 0 2.64-66.61c24.97 86.16 3.34 130.33 41.43 127.44 26.46-2.07 13.11-59.9 13.11-59.9s39.93 83.8 55.47 83.48c23.35-.52-.46-39.3-2.54-42.62 2.54 2.28 43.38 39.42 56.16 39.42 12.54 0 32.44-30 34.4-33-1.15 3.1-16.57 44.48 5.18 44.48 22.55 0 16.34-102.41 16.34-102.41s26.35 93.93 46.02 94.03c66.63.41 11.74-59.9 11.74-59.9l72.5 35.59c11.96 20.38 28.07 43.86 46.02 58.75Z"/><path class="uuid-842cf44f-9da3-4a13-86ff-73b7d80d5b52" d="M628.68 103.2a166.67 166.67 0 0 1 45.57-3.1c24.05 1.65 46.6 8.38 65.93 19.03 28.65 15.52 50.51 39.41 61.56 67.86 0 .1.12.31.12.41 16.45 67.76-60.64 85.65-70.08 79.76-9.32-5.9-31.41-34.55-40.27-28.66s-65.94 17.8-68.47-2.48c-6.44-52.24-53.85-31.65-55.23-50.17-1.38-18.51-27.61-23.17-33.71-6 .69-5.48.8-9.93-.92-12.2a131.04 131.04 0 0 1 20.94-26.07 149.95 149.95 0 0 1 37.86-26.07c11.39-5.48 23.7-9.73 36.7-12.31Z"/><path class="uuid-842cf44f-9da3-4a13-86ff-73b7d80d5b52" d="M516.84 213.78a113.57 113.57 0 0 1 13.46-41.06c.8-1.76 1.84-3.42 2.88-5.07 1.72 2.27 1.6 6.72.92 12.2-1.38 10.76-5.18 25.04-1.61 31.45 5.18 9.62 6.67 31.76 4.02 37.55-2.76 5.9-7.94 21.2-8.05 31.13l-.12-.1a115.29 115.29 0 0 1-12.42-51.82c0-4.45.23-8.8.8-13.14 0-.41 0-.72.12-1.14Z"/><path class="uuid-fe2494e9-bf6e-415d-aea7-155789873c8c" d="M515.92 228.06c0 18.41 4.49 36 12.42 51.82l.12.1c22.78 45 74.22 76.45 134.17 76.45h.11c60.64 18 82.62 80.79 92.86 123 4.72 19.54 6.9 34.65 9.32 38.78 10.47 18.42 31.18 42.31 50.17 89.27 9.78 24.52 19.21 55.14 26.35 94.65 6.1 33.31 7.48 65.8 6.33 95.27-2.3-16.13-19.68-42.3-41.2-46.03-21.98-3.72-16.57-30.3-33.48-33.62-21.4-4.13-29 19.35-45.22 19.35-13 0-8.63-34.55-27.16-35.38-26.12-1.24-23.7 39.72-37.85 39.72-24.28 0-30.15 21.52-40.4 21.52-23.47 0-10.46-45.2-25.3-45.2-21.75 0-15.54-36.93-44.08-36.93-44.64 0-10.7-36.2-41.19-36.2-25.08 0-20.48 21.4-45.1 17.37-29.8-4.97-15.54 51.82-45 51.62 0 0-7.02-36.73-20.13-35.9-14.5.93-16.11-55.96-29.23-54.1-15.3 2.17-19.56 23.59-37.51 27.1-17.72 3.52-12.66-29.17-55.8-22.96-34.07 4.96-17.5-56.38-48.45-51.3-24.62 4.13-20.02-17.28-45.1-17.28-30.5 0 3.45 36.1-41.2 36.1-28.54 0-22.32 37.03-44.07 37.03-14.84 0-1.84 45.2-25.31 45.2-10.24 0-16.11-21.51-40.28-21.51-14.26 0-7.59-40.86-33.83-39.62V479.42c.23-15.72 18.53-45.2 41.43-49.13 22.1-3.83 16.68-30.42 33.48-33.62 21.52-4.24 29 19.34 45.22 19.34 13 0 8.63-34.55 27.16-35.48 26.23-1.24 23.7 39.83 37.97 39.83 24.17 0 30.03 21.51 40.27 21.51 23.6 0 10.47-45.2 25.43-45.2 21.63 0 15.42-37.03 43.96-37.03 44.64 0 10.81-36.1 41.3-36.1 24.98 0 20.37 21.4 45 17.27 30.95-5.07 2.18-38.38 36.24-43.24 43.15-6.2 19.91-31.65 37.51-35.17 17.95-3.52 14.96 15.2 30.27 13.03 13.11-1.86-1.15-23.58 13.34-24.51 11.74-.73 16.34-30 17.26-36-.57 4.35-.8 8.69-.8 13.14Z"/><path class="uuid-552612a3-f70b-4a08-889d-1dffd3908f10" d="M554.12 141.58c-7.13-12.93-37.51-33.1-50.86-41.9a52.65 52.65 0 0 0-6.56-3.72l.23-.41c9.9 1.76 42.35 24.3 95.05 19.96a149.94 149.94 0 0 0-37.86 26.07Z"/><path class="uuid-33e7480a-3d19-4f99-b9e9-ff30ce10c525" d="M503.26 99.69c13.35 8.79 43.73 28.96 50.86 41.89a131.02 131.02 0 0 0-20.94 26.07 45.1 45.1 0 0 0-2.88 5.07c-2.19-24.62-23.93-54.62-38.78-69-12.54-12.1-4.6-12.41 5.18-7.76a52.79 52.79 0 0 1 6.56 3.73Z"/><path class="uuid-6ccbf50f-8224-4e0d-82a0-3a9b921f3956" d="M362.65 736.27c17.6 3.52 12.54-29.17 55.7-22.96 1.14.2 2.4.3 3.44.3 29.46.21 15.2-56.58 45-51.61 24.62 4.03 20.02-17.38 45.1-17.38 30.5 0-3.45 36.2 41.2 36.2 28.53 0 22.32 36.93 44.06 36.93 14.85 0 1.85 45.2 25.32 45.2 10.24 0 16.1-21.5 40.39-21.5 14.15 0 11.73-40.97 37.85-39.73 18.53.83 14.16 35.38 27.16 35.38 16.22 0 23.82-23.48 45.22-19.35 16.91 3.31 11.5 29.9 33.48 33.62 21.52 3.73 38.9 29.9 41.2 46.03v.21a545.17 545.17 0 0 1-7.6 71.58c-26.12-17.9-84.57-95.16-84.57-95.16s65.59 161.99 59.49 170.99c-4.84 7.03-64.1-41.28-67.55-44.07.81 2.07 8.63 19.55 20.6 40.24l-72.49-35.58s54.89 60.3-11.74 59.89c-19.67-.1-46.02-94.03-46.02-94.03s6.21 102.4-16.34 102.4c-21.75 0-6.33-41.37-5.18-44.47-1.96 3-21.86 33-34.4 33-12.78 0-53.63-37.14-56.16-39.42 2.08 3.31 25.9 42.1 2.54 42.62-15.54.31-55.47-83.48-55.47-83.48s13.35 57.83-13.11 59.9c-38.1 2.9-16.46-41.28-41.43-127.44 0 18.4-.57 42.2-2.65 66.61-19.56-9.62-57.07-114.2-57.07-114.2l4.03-30.72Z"/><path class="uuid-6ccbf50f-8224-4e0d-82a0-3a9b921f3956" d="M362.65 736.27 358.62 767s10.01 101.17-10 105.82c-2.2.52-5.65-.82-9.67-3.72-16.23-11.27-44.42-44.58-63.64-68.58 0 0 7.37-38.07 20.49-37.24 14.61.93 16.1-55.96 29.22-54.1 15.3 2.17 19.56 23.48 37.63 27.1Z"/><path class="uuid-fe2494e9-bf6e-415d-aea7-155789873c8c" d="M268.76 942.02c-12.77-20.8-21.17-38.9-22.21-41.07 3.45 2.8 62.6 51.1 67.43 44.07 6.1-8.8-56.62-163.96-59.38-170.79 1.27 1.66 9.44 12.42 20.71 26.28 19.22 24 47.41 57.3 63.64 68.58 4.02 2.9 7.48 4.24 9.66 3.72C368.63 868.16 358.62 767 358.62 767s37.51 104.58 57.08 114.2c-4.26 50.8-14.73 104.38-38.44 118.86l-63.74.1c-11.16-9.1-21.52-22.55-30.61-36.1-5.18-7.55-9.9-15.2-14.15-22.03Z"/><path class="uuid-fe2494e9-bf6e-415d-aea7-155789873c8c" d="M199.03 929.4c-1.15 3.1-16.57 44.48 5.17 44.48 22.56 0 16.23-102.41 16.23-102.41s31.3 93.93 62.36 92.58h.12c9.09 13.55 19.45 27 30.6 36.1l-312.63.1c.92-6.62 0-128.88 0-185.68 24.97 86.17 3.34 130.34 41.54 127.45 26.47-2.07 13-59.9 13-59.9s39.93 83.8 55.58 83.48c23.24-.52-.57-39.2-2.65-42.62 2.54 2.28 43.5 39.41 56.27 39.41 12.54 0 32.45-30 34.4-33Z"/><path class="uuid-6ccbf50f-8224-4e0d-82a0-3a9b921f3956" d="M204.2 973.88c-21.74 0-6.32-41.38-5.17-44.48-1.96 3-21.86 33-34.4 33-12.78 0-53.74-37.14-56.27-39.42 2.07 3.42 25.89 42.1 2.64 42.62-15.65.31-55.57-83.48-55.57-83.48s13.46 57.83-13 59.9c-38.2 2.9-16.58-41.28-41.55-127.44v-198.2C27.12 615.14 20.45 656 34.71 656c24.17 0 30.04 21.52 40.28 21.52 23.47 0 10.47-45.2 25.31-45.2 21.75 0 15.53-37.04 44.07-37.04 44.65 0 10.7-36.1 41.2-36.1 25.08 0 20.47 21.41 45.1 17.27 30.95-5.07 14.38 56.28 48.44 51.31 43.15-6.2 38.09 26.48 55.8 22.97 17.96-3.52 22.22-24.93 37.52-27.1 13.12-1.87 14.73 55.02 29.23 54.1 13.11-.83 20.13 35.89 20.13 35.89-1.03 0-2.3-.1-3.45-.31-43.15-6.2-38.09 26.48-55.7 22.96-18.06-3.62-22.31-24.93-37.62-27.1-13.11-1.86-14.61 55.03-29.22 54.1-13.12-.83-20.49 37.24-20.49 37.24-11.27-13.86-19.44-24.62-20.7-26.27 2.75 6.82 65.46 161.99 59.37 170.78-4.84 7.03-63.98-41.27-67.43-44.07 1.03 2.17 9.43 20.28 22.2 41.07 4.26 6.83 8.98 14.48 14.16 22.03h-.12c-31.06 1.35-62.36-92.58-62.36-92.58s6.33 102.4-16.23 102.4Z"/></g><g id="uuid-ad8dd4ea-7ea4-49dd-b6a6-24e965fe3e3b"><path class="uuid-57c43eb6-56af-4ca0-a3d0-7fc8e5a5c950" d="M.92 479.39c.57-15.57 11.62-32.4 23.55-42.06 4.9-3.91 10.66-7.05 16.87-8.35 1.39-.3 2.93-.65 4.26-1.11 8.31-2.8 11.82-10.95 15.1-18.56 3.18-7.49 7.6-14.21 16.43-15.16 10.34-1.8 19.31 3.77 26.74 10.08 5.36 4.23 10.56 9.1 17.5 8.87.42-.03.83-.13 1.2-.34 2.67-1.4 3.82-5.44 4.95-8.4 3.3-9.8 5.87-24.17 18-26.77 10.15-1.85 18.86 3 24.25 11.4 3.5 5.3 5.89 11.48 8.3 17.1 1.6 3.48 3.17 7.67 6.09 9.91.75.56 1.33.61 2.26.66a37.22 37.22 0 0 1 19.45 5.3 55.7 55.7 0 0 1 10.22 8.2c3.1 2.8 6 6.86 9.93 7.77 6.2.45 9.24-4.45 10.68-9.91 1-3.57 1.54-7.48 2.05-11.49 1.17-7.03 1.05-18.7 8.57-22.82 1.45-.77 3.1-1.04 4.7-1.07a10.7 10.7 0 0 0 8.06-3.6c2.27-2.38 4.1-5.81 5.93-9.36 3.87-7.66 8.06-16.36 16.35-20.79 4.28-2.36 9.24-3.2 13.7-3.18 6.63-.15 15.23-.55 19.26-5.93 4.52-6.91 1.22-15.99 5.9-23.27 2.14-3.56 6.22-5.56 10.15-6.26 10.4-1.63 21.09 1.03 28.54 8.65 3.13 2.97 5.69 5.7 8.64 7.23 5.22 2.72 12.48 1.95 18.1 0a11.85 11.85 0 0 0 7.9-8.6c2.53-10.48.33-22.8 11.9-29.26 4.86-2.78 10.27-3.3 15.64-4.2 10.2-1.85 20.96-5.75 22.62-17.28 1.04-4.98.97-11.39 5.98-14.65a13.52 13.52 0 0 1 4.27-1.69c4.44-.97 9.5-.82 13.39 1.87 6.3 4.25 8.38 12.95 17.35 11.55 2.04-.18 3.91-1.18 4.56-3.28.57-1.62.67-3.6.69-5.6.04-3.06-.2-6.39.69-9.48a7.45 7.45 0 0 1 6.35-5.45l1.6-.16c8.65-1.08 12.77-16.99 14.77-24.1 1-3.95 1.83-7.96 2.45-12-.42 4.07-1.06 8.12-1.86 12.14-1.78 7.97-3.7 16.54-9.32 22.81a9.92 9.92 0 0 1-5.86 3.1l-1.44.2c-10.6 2.07 1.37 21-10.5 24.56-4.44 1.29-9.57.5-13.07-2.65-3.1-2.68-5.25-6.27-8.54-8.34-3.6-2.43-11.37-2.1-14.28 1.27a10.81 10.81 0 0 0-1.67 4.7c-1.1 9.6-2.65 17.1-11.9 22.54-4.77 2.87-9.96 4.34-15.21 5.44-5.97 1.08-13.8 1.94-17.48 7.06-2 2.56-2.8 6.12-3.22 10-.9 10.73-1.39 21.2-13.38 25.81-7.52 2.68-16.32 3.6-23.72-.07-4.04-2.04-7.2-5.34-10.3-8.22-5.73-5.77-13.3-7.64-21.05-6.73-8.2.7-7.68 6.64-8.34 13.33-.56 10.93-5.38 18.65-16.47 21.3a55.49 55.49 0 0 1-13.12 1.48c-1.83.07-3.54.12-5.27.54-14.54 3.26-15.74 20.88-24.94 30.46a18.94 18.94 0 0 1-13.72 6.06c-.9 0-1.46.1-2.07.98-2.57 4.43-2.68 10.51-3.54 15.96-1.26 8.63-2.3 19.1-9.95 25.02a16.85 16.85 0 0 1-11.44 3.06c-6.3-.87-10.31-6.07-14.43-9.97-5.4-5.44-11.33-9.82-18.86-11.13-3.92-.8-8.48.13-11.86-2.52-4.47-3.3-6.43-8.43-8.5-13.12-3.1-7.22-5.45-14.65-10.87-20.3a15.61 15.61 0 0 0-10.1-4.68c-2.8-.2-5.57.14-7.75 2.02-8.95 7.18-7.73 30.08-19.87 32.75-8.7 1.24-16.45-5.24-22.37-10.42-6.17-5.37-12.99-10.48-21.41-9.76-3.06.15-6.28.9-8.6 3.04-2.68 2.3-4.52 5.83-6.3 9.44-3.66 8.06-8.36 17.03-17.66 19.78l-1.57.44c-.53.15-1.06.22-1.59.33l-1.51.3c-5.86 1.03-11.27 3.76-16.09 7.27-11.98 8.93-23.61 25.2-24.89 40.3ZM1680.92 595.56c-1.26-14.48-12.43-30.15-23.64-38.97-5.24-4.06-11.24-7.2-17.78-8.28-1.07-.21-2.07-.34-3.07-.63-8.7-1.94-14.23-9.44-17.7-16.98-1.78-3.56-3.33-7.12-5.42-9.94-3.88-5.95-12-6.48-18.13-4.5-9.16 3.03-15.11 11.69-23.6 16.45-4.7 2.6-11.39 4.65-16.33 1.47-5.35-3.64-6.95-10.48-8.97-16.1-2.58-7.1-5-17.82-14.19-17.12h-.6l-.58.07-1.16.14c-13.66 2.8-15.8 21.58-22.29 32.05-2.35 4.1-6.44 8.01-11.9 7.95-21.95.24-25.53 20.35-39.42 21.65-9.79.58-16.5-6.12-19.1-14.97-3.14-9.4-2.36-19.46-5.5-28.38-.33-.72-.67-1.39-1.12-1.61-1.01-.18-2.14-.07-3.17-.25-22.78-3-17.64-37.1-41.07-36.95-9.56-.16-20.8-1.3-26.78-9.81a20.98 20.98 0 0 1-3.06-6.95c-1.6-6.18-.52-11.41-2.57-16.36a4.45 4.45 0 0 0-2.14-2.12c-2.12-1.07-5.74-1.4-9.22-1.18-7.59.3-12.35 3.65-17.79 9.14-4.81 4.9-11.38 8.4-18.48 8.24-9.09-.12-19.58-2.74-23.95-11.54-2.96-5.74-2.67-12.85-3.46-18.53-.8-7.74-4.56-11.9-11.76-13.79-.43-.11-.85-.25-1.29-.35l-1.34-.26-1.34-.27c-6.68-1.17-13.19-2.63-19.23-6.11-8.67-4.86-11.37-12.47-12.13-21.7-.5-3.43-.94-6.45-4.29-7.79-2.94-1.17-6.69-1.37-9.47.43-6.17 4.14-8.2 13.36-14.15 18.23a10.58 10.58 0 0 1-7.78 2.4l-1.49-.17c-4.94-.6-7.34 4.77-9.04 8.6-1.58 3.57-2.89 7.34-4.96 10.77-1.95 3.44-5.57 6.35-9.7 5.8a8.7 8.7 0 0 0 5.48-1.67c4.61-3.85 5.66-10.06 7.78-15.46 1.58-4.71 4.73-10.88 10.63-10.33l1.45.08c.44.05.87-.03 1.3-.05 5.82-.7 8.08-6.96 10.69-11.5 2.78-5.58 7.2-11.93 14.18-12.16 4.6-.27 10.05 1.28 12.28 5.7 2.04 3.98 2 8.05 2.98 12.02a16.78 16.78 0 0 0 9.05 11.8c5.17 2.78 11.45 3.97 17.34 4.78 1.5.24 3.24.48 4.7.87 6.93 1.5 13.16 5.78 15.61 12.65 4.74 12.73-1.4 26.82 16.57 28.99 15.1 2.52 16.85-7.79 27.92-14.04 8.02-4.58 23.5-5.98 30.56.72 2.88 2.66 4.4 7.26 4.78 10.66.83 5.16.29 10.7 3.17 14.96 4.07 5.35 12.51 5.4 19 5.6 12.16-.1 20.85 6.5 26.47 16.87 3.87 6.36 5.8 13.5 11.37 18.12 2.12 1.7 4.74 1.84 7.33 1.93 2.62.23 5.5 1.9 7 3.84 8.65 9.22 2 41.64 17.06 41.4.6 0 .96-.15 1.66-.48 2.62-1.5 5.35-4.48 7.77-6.83 8.24-8.5 18.36-14.16 30.62-13.97 1.94-.02 2.8-1.5 4.13-3.41 6.84-12.14 10.06-29.85 25.2-34.8a23.12 23.12 0 0 1 7.05-1.15c5.06-.3 10.48 1.9 13.7 5.73 6.96 7.95 7.31 18.88 11.9 27.7 1 1.6 1.71 2.36 2.94 2.55 4.58.27 8.27-1.94 12.26-4.85 6.33-4.78 12.54-10.87 20.7-13.2 6.44-1.78 13.9-1.5 19.55 2.34 5.33 3.8 7.79 10.47 10.2 15.88 3.02 7.3 7.57 14.05 15.65 15.7 11.61 2.09 21.4 9.76 28.54 18.82 7.2 9.3 13.23 20.46 13.6 32.4ZM848 800.55c-.8-8.88-5.15-17-10.12-24.2-8.1-11.47-19.66-21.33-33.85-23-9.01-1.9-14.66-8.77-18.43-16.64-3.32-6.24-5.5-13.4-12.5-15.16a19.88 19.88 0 0 0-13.63 1.79c-9.9 5.12-17.02 16.91-29.4 18.4-15.67 2.02-16.36-18.91-21.81-28.45-2.62-4.95-5.32-6.78-10.75-5.91-9.55 1.55-12.91 12.05-16.47 20.34-3.18 7.96-7.33 19.47-17.65 19.97-1.58.1-3.28.1-4.84.39-7.87 1.11-13.45 5.48-19.1 11.28-4.36 4.4-9.56 10.12-16.59 10.25-13.5.4-19.95-10.5-22.02-22.19-.95-4.8-1.42-9.37-2.03-13.61-.53-3.28-.85-6.76-2.4-9.41-.12-.12.09.12.41.24.15.06.27.08.29.08-10.68.02-17.55-6.77-22.17-15.55-5.43-9.96-9.07-21.73-21.82-21.4-15.03.1-30.12-4.17-32.46-21.51-.77-4.28-.44-8.87-1.69-12.33a2.42 2.42 0 0 0-1.02-1.3c-.6-.37-1.8-.85-3.48-.98-17.76-1.82-18.2 10.2-31.87 15.67-5.9 2.3-11.97 1.85-17.86.96-2.24-.31-4.58-.04-6.32 1.42-3.95 3.43-5.6 9.33-7.24 14.32-3.65 11.4-6.18 25.77-17.68 32.43a23.4 23.4 0 0 1-12.78 2.7l-2.01-.2-1-.1-.82-.1c-9.53-1.56-20.75-1.23-28.11 4.55-5.06 3.57-8.55 9.8-13.79 14.22a15.3 15.3 0 0 1-13.24 3.18l-1.93-.48-1.88-.62c-7.05-2.45-12.88-8.36-17.23-13.71-4.24-4.93-7.54-9.89-13.18-12.4-.41-.15-.82-.34-1.24-.45l-.64-.19-.65-.13c-.56-.12-.56-.12-.67-.13-.1.01-.2-.01-.39.08-2.8 1.83-4.24 5.97-5.58 9.14-1.55 4-2.86 8.23-4.17 12.48-2.9 8.33-6.93 27.55-15.96 30.39-1.12.36-2.47.19-3.58.25-5.05.96-7.92 6.43-10.31 10.64-4.07 7.84-6.79 16.42-9.02 24.98 1.79-10.19 7.39-39.23 20.79-38.96 5.38-.51 8.02-11.33 9.52-15.9 2.5-8.59 4.15-17.32 6.94-25.96 2.12-6.48 5.96-16.12 14.65-13.78 15.29 3.2 20.35 22 34.93 25.61l1.34.28 1.11.11c3.73.13 5.71-3.1 8.16-6.01 2.66-3.43 5.76-7.44 9.84-10.64 9.98-8.11 23.61-9.13 35.78-7.58.83.1 2 .15 2.83.22 6.35.31 9.99-3.53 12.42-9.15 5.75-12.54 5.56-29.24 16.74-39 3.69-3.16 8.72-4.63 13.47-4.54 3.1.06 6.61.9 9.58.69 5.68-.12 8.82-3.66 12.84-7.57a34.32 34.32 0 0 1 25.65-10.5c4.66.08 9.16.6 13.28 3.13 8.47 5.04 8.16 15.02 9.16 23.1.54 3.08 1.12 5 3.45 6.7 4.33 2.7 9.77 2.88 15.33 3.01 5.62 0 11.6 1.33 16.5 4.48 4.75 3.03 8.4 7.51 11.13 12.12 3.65 6.02 5.56 11.69 9.33 16.71 1.92 2.35 3.41 3.46 6.32 3.7l1.73.1c17.37 1.94 12.75 27.58 17.42 39.35 1.23 3.66 3.33 6.33 7.17 6.06 2.1-.69 5.4-4.18 7.54-6.25 3.26-3.2 7.05-6.65 11.6-9.32a39.56 39.56 0 0 1 20.94-5.52l.06-.02c.03 0 .08.05.08 0h.07c.02.02.05-.04.1-.04.06.03.19-.14.33-.2.07-.02.16-.15.25-.22 2.86-3 4.4-7.63 6.24-11.65 5.05-12.54 12.66-26.43 28.23-26.9 15.94-.8 20.66 13.33 24.18 25.7.64 2.09 1.27 4.1 2 5.89.95 2.17 1.63 3.8 3.07 4.5 6.44.56 11.3-4.21 16.63-8.25 5.29-4.3 12-9.14 19.34-10.2 7.84-1.25 16.88.8 21.43 7.68 6.72 9.55 7.55 23.7 20.39 27.1 15.01 2.65 26.83 14.11 34.42 26.58 4.5 7.7 8.35 16.3 8.37 25.34ZM1259.7 712.85c16.25-1.61 21 14.71 25.2 26.9 1.63 3.96 3.07 9.27 7.18 10.67l.42.12.46.02c.25.03.83.04 1.1.04a35.9 35.9 0 0 1 22.19 7.2c5.17 3.56 9.71 9.54 14.8 12.5 2.15 1.21 4.97.64 7.05-.23 13.97-7.13 2.27-44.03 20.81-45.22 5.25 0 8.54-3.03 11.24-7.67 3.1-5.16 5.47-11.61 9.68-17.7 4.24-6.42 11.63-11.34 19.45-12.04 7.46-.69 13.71.04 19.83-3.5 5.6-3.32 4.92-10.46 5.66-16.31.65-8.64 5.02-15.03 14.1-16.45 8.56-1.28 17.88.05 25.08 5.31 3.93 2.71 7.74 7.34 11.17 9.57 4.29 3.03 9.65 2.6 14.63 1.87 3.1-.37 6.44-.29 9.54.81 2.1.69 4.21 1.88 5.89 3.33.76.54 1.66 1.61 2.32 2.28 8.08 9.94 8.72 23.54 13.57 34.8 3.26 7.78 7.6 11.7 16.17 10.59l2.6-.3c15.16-1.79 29.8 1.24 39.73 13.7 3.2 3.63 5.25 7.55 8.94 9.77 1.7.95 3.87.69 5.74.22 7.94-1.99 13.16-8.53 18.52-14.52 4.47-5.1 10.4-10.6 17.62-11.5 11.2-1.84 14.48 19.67 16.82 27.37 1.94 6.5 5.63 28.2 13.25 28.2 8.99.2 13.2 12.43 15.77 19.43a130.65 130.65 0 0 1 4.7 19.4c-2.73-10.09-7.85-28.53-16.52-34.7a6.16 6.16 0 0 0-3.81-1.06c-.42.01-1.04.05-1.55-.03-3.5-.46-5.97-3.52-7.64-6.23-5.84-10.38-8.05-22.1-11.88-33.12-1.5-4.28-3.02-8.93-5.9-12.23-.62-.66-1.23-1.12-2-1a15.8 15.8 0 0 0-7.2 3.4c-4.55 3.67-8.26 9.22-13.1 14.3-3.96 4.25-9.25 8.13-15.08 9.72-21.27 5.83-18.21-22.43-46.15-22.55-3.07-.1-6.17.1-9.23.5-2.57.33-5.65.76-8.24.58-10.03-.34-16.84-7.53-20.38-16.15-2.75-6.4-4.26-13-6.25-19.44-2.36-7.12-5.1-16.78-14.08-15.85-.48.03-1.23.15-1.69.18-6.9 1.22-14.69.7-20.63-3.43-5.88-3.96-9.02-9.23-14.88-11.89-4.6-2.13-14.32-3.22-18.28 0-1.41 1.52-1.78 3.82-2.06 6.2-.38 3.37-.5 6.86-1.3 10.4-2.36 11.54-12.2 16.04-22.88 16.92-5.81.57-12.31-.45-17.38 2.85-13.29 8.66-12.95 33-32.72 33.74l-1.16.05c-.18 0-.32.01-.44.05-.65.17-1.04.6-1.48 1.3a14.3 14.3 0 0 0-1.44 3.62c-3.6 13.6-1.51 38.29-20.98 39.23-14.04.27-16.7-22.12-42-22.67-4.65-.48-7.3-4.92-8.71-8.76-4.72-13.07-6.2-32.88-24.18-32.59Z"/><path class="uuid-57c43eb6-56af-4ca0-a3d0-7fc8e5a5c950" d="M.92 616.38c16.24-1.75 21.16 14.58 25.44 26.73 1.72 4.14 3.65 11.02 8.78 10.64 24.51-.49 31.66 20.37 40.21 20.16 18.78-1.23 4.4-43.5 23.64-46.23 1.53-.18 2.2-.07 3.44-.35 3.7-.66 6.1-3.59 8.04-6.76 7.77-14.1 11.8-28.63 30.82-30.67 2.74-.18 5.9-.17 8.62-.47 5-.64 10.04-1.36 12.79-5.65 1.82-3.25 1.85-8.32 2.22-12.09.87-13.93 9.82-19.19 23.1-18.41a32.87 32.87 0 0 1 21.59 9.07c2.7 2.47 4.82 4.72 6.85 6.12 3.29 2.43 7.24 2.81 11.26 2.38 2.23-.28 4.7-.71 6.96-.6 4.08.05 8.28 1.36 11.51 3.87 14.69 10.25 11.57 43.83 25.96 47.98.56.09 1.11.19 1.67.31l1.83.09c1.39-.03 2.92-.2 4.32-.35 10.5-1.33 22.86-.57 32.28 5.65 6.05 3.73 10.52 10.18 14.64 15.17 1.65 1.78 2.89 3.11 5.1 3.35 5.24 0 10.28-3.08 14.17-6.8 4.79-4.52 8.67-10.06 14.11-14.4a23.34 23.34 0 0 1 11.33-5.08c9.2-1.08 12.2 10.4 14.36 16.93 2.86 9.46 4.56 19.45 7.75 28.64 1.07 2.98 2.32 5.97 4.1 8.17a5.64 5.64 0 0 0 2.92 2.07c1.78.14 3.67.24 5.27 1.15 9.97 5.72 14 26.01 15.83 36.58-1.69-6.4-3.71-12.72-6.35-18.73-2.45-5.26-6.45-14.36-12.78-15.32-7.25.98-11-6.92-13.32-12.23-3.9-9.38-6.22-18.94-9.5-28.36-1.04-2.81-4-11.33-6.88-11.69-2.85.5-5.35 1.85-7.73 3.95-4.35 3.83-8.03 9.42-13.06 14.51-6.6 6.83-18.24 13.43-27.65 7.86-4.8-2.93-8-8.01-11.38-11.55-9.16-10.46-21.4-10.48-34.4-8.64-34.71 3.62-26.78-45.86-42.13-50.95-.48-.03-.99-.2-1.45-.25-.54.04-1.12-.05-1.64-.03-1 .14-2.13.2-3.14.38-7.06 1.15-15.01.1-20.9-4.27-5.74-4.11-8.65-9.02-14.46-11.48-4.03-1.8-11.18-2.26-15.06-.92-3.07.98-3 4.04-3.47 7-.7 8.73-1.51 16.93-9.26 22.57-6.81 4.74-15.22 5.32-23.01 5.39-10.97-.18-15.62 7-20.26 16.03-4.7 9.5-10.8 20.22-23.1 20.1l-.8.03c-.3.04-.33 0-.62.24-1.03 1.07-1.54 2.63-2.03 4.42-1.53 6.07-1.98 12.9-3.33 19.3-1.11 5.27-2.91 11.25-7.02 15.4a16.09 16.09 0 0 1-15 4.24c-4.74-1.45-7.93-5.25-11.15-8.52-6.34-6.96-13.89-12.85-23.54-13.66-1.81-.25-3.6-.06-5.4-.7a9.75 9.75 0 0 1-4.8-3.86c-2.14-3.18-3.03-6.5-4-9.7-3.37-12.34-6.58-27.94-22.3-27.76Z"/><path class="uuid-43638cbf-70a8-4d64-9431-1f68caafed5a" d="M628.68 103.11c-2.74-22.16-5.22-44.52-2.24-66.85.98-6.24 2.57-12.68 5.87-18.31 4.26-6.71 10.3-12.88 18.2-15.03 18.88-4.8 38.87 14.4 51.04 26.77 18.49 19.91 36.37 45.04 39.62 72.66.57 5.56.3 11.23-1 16.66.98-5.49.94-11.1.17-16.57-4.6-27.47-22.27-50.84-40.97-70.65-11.2-10.94-24.42-23.97-40.33-26.32-10.92-1.5-20.13 6.8-25.12 15.78-10.15 20.7-6.35 58.58-5.24 81.86ZM528.32 280c1.62 2.63 3.63 6.14 5.25 8.68l5.1 7.25.8.98 3.16 3.93c22.5 27.32 55.33 45.08 89.8 52.08 2.8.46 7.13 1.42 9.96 1.7 1.34.16 6.16.8 7.54.96 4.2.48 8.42.54 12.64.92-5.04 0-10.2.16-15.24-.3-3.1-.2-7.15-.45-10.14-.98-45.44-5.79-89.14-33.09-108.87-75.21ZM530.47 173.86c-2.88-21.77-16.6-42.19-30.28-58.84a144 144 0 0 0-7.48-8.24c-2.71-2.77-5.55-5.2-7.72-8.51-3.07-4.67-.18-7.4 4.89-6.18 4.75 1.07 9.14 3.33 13.2 5.9a539.1 539.1 0 0 1 18.5 12.86c9.06 6.67 18.04 13.61 25.78 21.82 2.56 2.74 5 5.67 6.71 9.02-1.94-3.2-4.55-5.92-7.22-8.52-8.15-7.68-17.33-14.18-26.5-20.6a806.82 806.82 0 0 0-18.66-12.41c-4.45-2.59-9.5-5.57-14.7-5.63-.32.04-.56.15-.56.17.02.01 0-.08 0 .16.9 3.08 3.94 5.7 6.18 8.04 3.38 3.31 6.57 6.82 9.56 10.47 13.58 16.98 27.01 38.28 28.3 60.49Z"/><path class="uuid-43638cbf-70a8-4d64-9431-1f68caafed5a" d="M496.9 95.54c8.02 1.69 15.43 5.59 23.18 8.14a206.12 206.12 0 0 0 23.37 6.97c12.77 3.09 26.2 4.44 39.32 4.81 2.95-.02 6.26-.02 9.22.03-4 .47-8.24 1.07-12.28 1.18-17.48.9-35.23-1.92-51.74-7.67-2.59-.95-6.14-2.23-8.66-3.34a206.9 206.9 0 0 1-11.23-5.1c-3.18-1.51-7.82-3.99-11.19-5.01ZM662.69 356.4c66.25 17.66 89.6 88.46 101.3 148.79.94 3.94 1.62 8 3.27 11.69l1.38 2.32c2.8 4.83 8.74 13.63 11.86 18.39 23.8 34.88 40.9 74.14 51 115.1l1.54 6.11.77 3.06c1.74 8.35 4.25 19.42 5.52 27.82l2.06 12.43c-1.8-7.44-3.87-17.26-5.8-24.5l-3.97-15.19c-3.2-11-6.62-22.1-10.38-32.9-1.63-4.26-4.97-13.56-6.7-17.56-1.48-3.5-3.34-8.14-4.86-11.52l-5.26-11.35a360.22 360.22 0 0 0-18.17-32.77c-6.25-10.23-14.16-21.48-20.63-31.6l-2.9-4.81c-1.3-2.25-1.92-4.9-2.58-7.36-3.19-13.97-5.99-29.11-9.75-42.9-12.45-48.08-37.54-96.8-87.7-113.25Z"/><path class="uuid-552612a3-f70b-4a08-889d-1dffd3908f10" d="M674.3 100.07c-20.3-15.78-37.04-39.34-38.22-65.74-.33-8.75 1.59-17.65 5.88-25.16-3.25 8-4.45 16.61-3.76 25.05 2.31 25.83 18.2 48 36.1 65.85Z"/><path class="uuid-43638cbf-70a8-4d64-9431-1f68caafed5a" d="M755.55 479.39c1.85 6.95 4.24 17.66 5.85 24.84 1.14 4.56 1.9 9.38 3.9 13.63 6.3 10.47 13.54 20.32 20.16 30.61 27.09 41.02 43.84 88.12 53.77 136.04 13.31 60.42 12.55 123.5 1.03 184.11a597.22 597.22 0 0 0 4.68-37.97c.31-3.19.77-9.52.97-12.7 2.91-42.32.82-85.13-8-126.65-5.05-24.8-11.5-49.8-20.3-73.53a364.32 364.32 0 0 0-33.6-68.37c-6.16-9.92-13-19.48-18.84-29.63-1.77-2.72-2.42-6.05-3.15-9.13-2.26-10.4-4.1-20.88-6.47-31.25ZM729.89 73.18c20.78 8.72 40.1 21.52 58.44 34.51 59.8 41.87 112.55 96.9 180.54 125.83 12.58 5.08 27.48 10.42 38.49 18.28 11.1 7.27 22.73 18.5 32.53 27.54a1144.84 1144.84 0 0 1 48.67 47.55 909.39 909.39 0 0 1 63 72.04c3.57 4.74 11.67 15.69 15.26 20.49 2.4 3.45 6.07 8.85 8.43 12.28 60.54 86.99 88.04 183.24 85.2 288.97-.94 68.07-10.58 135.6-18.18 203.12 9.05-89.9 22.42-180.48 13.53-270.91-7.2-69.54-28.51-131.32-64.35-191.2-3.38-5.39-10.28-16.43-13.6-21.5-3.5-5.1-8.54-12.39-12.02-17.45-1.29-2.02-10.97-14.76-12.62-17.04-.92-1.27-2.93-3.9-3.8-5.1l-1.32-1.66-5.3-6.62a863.93 863.93 0 0 0-56.06-63.66 1140.74 1140.74 0 0 0-48.48-47.54c-9.7-8.95-21.2-20.14-32.2-27.37-10.8-7.81-25.74-13.1-38.02-18.2-68.06-29.4-120.64-84.66-180.09-127.31-18.2-13.15-37.36-26.13-58.05-35.05Z"/><path class="uuid-552612a3-f70b-4a08-889d-1dffd3908f10" d="M815.03 607.54c35.1 57.56 114.1 215.44 104.05 279.52-1.24 6.52-3.98 13.35-9.77 17.05 5.57-3.93 8-10.7 9.06-17.17 8.6-58.9-72-222.77-103.34-279.4Z"/><path class="uuid-43638cbf-70a8-4d64-9431-1f68caafed5a" d="M994.92 922.79c-6.57 4.02-12.95 8.82-17.3 15.25-7.71 11-6.58 24.55 2.39 34.43l1.1 1.25c-16.18 9.07-35.15 11.6-53.36 9.93-14.64-1.41-29.3-5.36-41.72-13.44-16.47-10.53-24.65-29.47-11.79-46.43 24.33-30.99 85.3-31.71 114.45-7.43a53.43 53.43 0 0 1 4.03 3.79c.55.6 1.67 2.02 2.2 2.65Zm-.3-.07c-16.35-16.57-41.82-21.54-64.33-20.33-19.39 1.25-41.24 7.44-53.82 23.1-14.66 18.99-.97 39.04 17.73 48.18 15.64 7.95 33.78 10 51.07 8.13 11.52-1.34 22.88-4.33 33.1-9.63l-.37 2.04c-11.98-13.58-9.72-31.35 3.6-43 3.81-3.38 8.13-6.09 12.65-8.4l.23-.1.1-.04s0 .03.04.05Z"/><path class="uuid-43638cbf-70a8-4d64-9431-1f68caafed5a" d="M1104.8 954.2c-.64 22.76-25.45 36.13-45.24 40.32-21.2 4.47-44.06 1.8-63.46-7.78-12.56-6.33-25.44-17.5-25.63-32.65-.24-15.38 12.53-27.05 25.3-33.45 19.66-9.72 42.64-11.46 63.9-7 19.78 4.45 44.57 17.71 45.14 40.56Zm-.3 0c-.97-29.27-42.44-40.16-66.46-39.66-14.05.1-28.32 2.48-41.02 8.66-12.18 5.97-24.5 16.36-24.9 30.9-.34 14.61 12.13 25.82 24.42 31.76 19.32 9.12 41.74 10 62.48 6.06 19.4-3.93 44.68-14.88 45.49-37.72Z"/><path class="uuid-552612a3-f70b-4a08-889d-1dffd3908f10" d="M962.26 695.95c15.38 45.41 24.9 92.89 30.2 140.52a696.14 696.14 0 0 1 2.96 43.11c.05 4.56.18 17.14.17 21.6-.25 6.91-.5 14.7-.82 21.57-.12-6.88-.16-14.63-.2-21.56-.23-4.42-.74-16.92-.93-21.53a887.8 887.8 0 0 0-5.96-60.71c-5.85-41.28-14.17-82.85-25.42-123ZM1101.7 942c-3.03-11.82-4.56-23.98-5.3-36.15-2.17-36.55 1.1-73.2 5.26-109.5 13.55-108.6 39.3-216.24 38.3-326.2-.34-24.3-2.1-48.7-7.43-72.46-2.02-8.4-4.92-18.06-8.25-26.06-1.22-2.8-2.57-5.52-3.86-8.29 5.84 10.72 9.84 22.36 12.81 34.19 8.6 35.66 9.3 72.69 8.2 109.2-1.22 36.56-5.14 73-9.93 109.26-12.25 96.46-37.04 192.07-34.38 289.82.55 12.16 1.83 24.31 4.58 36.18Z"/><path class="uuid-552612a3-f70b-4a08-889d-1dffd3908f10" d="M909.18 818.62c19.52.64 59.82-21.88 67.7-40.06a15.21 15.21 0 0 0 1.23-5.38c.13-.95-.1-1.87-.17-2.82a13.9 13.9 0 0 1-.07 8.56c-6.62 20.55-47.68 43.4-68.69 39.7ZM766.53 93.15c7.59 7.44 13.3 16.57 18.45 25.8 10.05 18.6 17.56 38.93 21.28 59.77 1.83 10.45 2.7 21.14 1.74 31.7-.85-31.54-11.2-62.34-24.9-90.49-4.76-9.34-9.88-18.66-16.57-26.78Z"/><path class="uuid-552612a3-f70b-4a08-889d-1dffd3908f10" d="M804.12 167.66c1.27 4.5 4.4 8.24 7.02 12.05 8.35 11.28 17.55 21.92 27 32.3 12.65 13.82 25.73 27.27 40.48 38.9-16.09-9.87-29.73-23.28-42.5-37.06a295.9 295.9 0 0 1-18.04-21.76 178.48 178.48 0 0 1-8.05-11.64c-2.34-4.02-5.18-8.1-5.9-12.79Z"/><path class="uuid-6ccbf50f-8224-4e0d-82a0-3a9b921f3956" d="M814.68 1000.25c-8.66-5.4-15.96-12.78-22.41-20.6-9.75-11.79-17.34-24.95-24.55-38.32a431.9 431.9 0 0 1-24.11-45.55 953.36 953.36 0 0 0 30.58 24.24c8.76 6.59 17.61 13.1 26.9 18.84 3.42 2.04 6.93 4.17 10.71 5.33.74.2 1.52.37 2.12.18.06-.04.04-.01.08-.1.5-2.3-.26-5.01-.66-7.37-3-13.35-7.54-26.3-11.92-39.28-14.45-41.49-30.45-82.47-46.71-123.29l-2.52-6.28a1319.34 1319.34 0 0 0 42.68 53.75c7.61 8.64 45.45 54.97 55.7 50.08 16.44-8.83 10.26-86.14 8.72-104.87l-.27-2.95 1 2.78c11.36 30.84 23.25 61.66 38.68 90.73 3.85 6.65 12.7 23.67 20.67 24.5-5.22-.62-9.18-6.52-12.19-10.41-9.4-13.54-16.32-28.6-23.17-43.54a972.73 972.73 0 0 1-24.7-61.02l.73-.17c2.1 24.83 6.25 78.46-3.62 100.13-5.36 10.82-12.46 5.92-19.75.4-16.08-13.14-29.46-29.04-43-44.65a1275.29 1275.29 0 0 1-38.85-48.27l1.58-.9c16.46 40.8 32.63 81.7 47.28 123.2 3.61 10.4 7.17 20.82 10.14 31.46a94.7 94.7 0 0 1 2.73 12.24c.15 1.65.41 2.97-.2 4.75-2.4 5.07-13.42-2.5-16.63-4.2-9.45-5.8-18.34-12.32-27.16-18.92a886.86 886.86 0 0 1-26-20.37l2.15-1.66a410.09 410.09 0 0 0 13.85 26.7c2.47 4.37 5 8.7 7.63 12.98 2.68 4.24 5.84 8.21 8.6 12.4 11.44 16.55 22.09 33.25 35.88 48.03ZM1095.83 881.8c2.24 13.33 8.46 50.54 19.15 58.03 9.56 5.82-1.83-37.66-3.06-41.25l-2.57-9.1 6.18 7.23c8.35 9.52 17.47 19.46 28.87 25.15 2.2 1 4.33 1.72 6.59 1.76 1.05-.07 1.66-.9 2.41-1.9 4.25-7.19 5.43-16.06 6.95-24.24 2.1-12.58 3.18-26.8 4.09-39.59l2.37 13.37c1.65 9.3 3.58 18.6 5.87 27.76 2.43 9 4.61 18.4 9.46 26.42 1.2 1.72 2.55 3.6 4.86 3.13 12.78-2.03 30.27-19.2 39.55-28.37l3.2-3.26-1.98 4.12a115.26 115.26 0 0 0-5.21 12.7c-2.05 6.4-4.13 13.24-3 19.94.42 2.07 1.37 4.1 3.13 5.3 1.67 1.07 3.93 1.74 5.91 1.27 1.91-.58 3.6-2.2 5.03-3.85 5.76-6.97 9.46-15.58 13.28-23.75 5.58-12.18 10.69-26.13 15.17-38.8l.23 14.26c.28 37.09-.45 75.08-2.35 112.12h-.5a1906.2 1906.2 0 0 1-2.37-84.09c-.1-9.34-.08-18.68.02-28.03l5.03.91c-1.73 4.36-3.55 8.61-5.45 12.86-4.61 10.17-16.97 36.6-27.65 40.02-20.95 1.19-7.53-31.56-2.62-41.53l1.22.85c-10.13 10.06-20.6 20.2-33.44 26.8-2.76 1.24-5.9 2.59-9.08 2.21-2.03-.5-3.39-2.25-4.49-3.79a40.45 40.45 0 0 1-3.44-6.43c-6.49-15.44-10.2-31.82-13.75-48.14l3.4-.22a292.87 292.87 0 0 1-2.37 26.43c-1.37 8-3.3 24.39-10.4 29.13-3.45 2-8.3.12-11.55-1.3-4.26-2-7.95-4.69-11.45-7.52a139.71 139.71 0 0 1-18.76-19.1l3.6-1.86c2.42 9.19 4.53 18.34 5.72 27.79.42 3.58.74 7.22.44 10.87-.19 1.97-.5 4.16-1.85 5.89-4.18 4.58-9.95-1.38-11.95-5.25-4.67-8.46-6.79-17.73-8.8-27.02a265.42 265.42 0 0 1-4.14-27.86l.5-.06Z"/><path class="uuid-57c43eb6-56af-4ca0-a3d0-7fc8e5a5c950" d="M377.05 1000.25c36.3-20.38 40.44-145.32 40.41-185.65l-.02-6.15 1.74 5.9c7.6 25.55 11.92 51.97 14.32 78.48 1.6 11.94 1.44 35.41 9.97 43.71 4.2 4.1 10.5 4.5 16.09 4.08 9.79-.5 13.56-10.64 14.55-19.12 2.17-17.7-2.28-36.36-6.17-53.56 7.6 15.74 15.65 32.24 24.13 47.45 7.8 13.86 15.64 27.78 25.7 40.04 2.83 3.17 5.97 7.03 9.97 8.16 9.3.49 9.8-6.92 7.91-14.25-3.45-13.43-12.45-26.5-19.67-38.22 10.66 9.67 22.34 20.32 33.58 29.19 7.61 6 15.47 12.05 23.93 16.7 7.78 4.27 10.72 4.12 17.77-1.4 9.24-7.7 16.53-17.75 23.22-27.68l11.78-18.06c-4.1 11.16-10.84 27.45-12.78 39.05-.96 5.89-1.87 12.83.56 18.22 1.26 2.8 3.89 4.23 6.93 4.29 5.39.32 7.76-6.65 9.36-11.06 2.94-9.35 4-19.2 4.8-29 2.13-26.56.67-54.6-.85-81.23l5.97 20.7c6.89 23.42 14.55 46.88 25.04 68.95 3.52 7.02 7.31 14.44 12.72 20.03 1.95 1.83 3.82 3.43 6.37 3.38 8.51-.08 18.16-.56 25.15-5.64 6.34-4.69 5.97-13.18 3.54-20.1-4.94-14.38-15.32-26.65-25.27-37.92l8.64 4.41c16.72 8.5 47.91 24.47 64.27 33.17l9.11 4.88c-4.75-2.11-14.14-6.33-18.84-8.5-11.7-5.2-44.14-20.47-56.21-26.14l2.24-2.98c9.79 11.26 23.3 29.15 21.91 44.75-1.58 15.03-19.05 18.41-31.4 18.68-1.68 0-3.42.19-5.09-.08-7.3-1.7-11.77-9.13-15.5-14.81-14.43-25.19-23.02-53.12-31.42-80.75l4.83-.82c.73 13.44.97 26.82.72 40.26-.56 16.38-1.19 46.78-10.78 60.01-5.24 7.49-16.93 5.76-20.66-2.34-5.1-11.56.61-29.55 4.65-40.93l4.26 2.18a179.29 179.29 0 0 1-8.77 12.2c-6.28 7.67-16.33 20.37-26.66 21.83-4.17.37-8.28-1.8-11.74-3.6-8.83-4.91-16.68-11.02-24.52-17.25a487.87 487.87 0 0 1-22.58-19.4l3.21-2.7c3.44 5.6 6.44 11.32 8.96 17.38 2.75 7.22 7 18.1 1.26 25-2.58 2.77-6.24 3.54-9.8 3.5-2.3-.17-4.36-1.41-5.9-2.55a45.1 45.1 0 0 1-7.13-7.05c-17.95-22.87-30.66-49.13-43.58-75l3.3-1.15c.96 4.43 1.66 8.82 2.22 13.27 1.63 14.62 4 44.6-15.26 48.17a37.6 37.6 0 0 1-6.92.29c-14.42-.46-18.8-11.42-20.73-23.9-1.4-8.86-2-17.7-2.8-26.52-2.17-26.42-6.24-52.7-13.6-78.2l1.73-.24c-.25 32.54-2.36 65.08-7 97.3-3.89 24.44-12.16 75.8-35.17 88.34Z"/><path fill="none" stroke-width="0" d="m.92 1000.25 1680-.71"/><path class="uuid-6ccbf50f-8224-4e0d-82a0-3a9b921f3956" d="M313.64 1000.25c-8.66-5.4-15.95-12.78-22.4-20.6-9.76-11.79-17.35-24.95-24.56-38.32a431.71 431.71 0 0 1-24.1-45.55 953.36 953.36 0 0 0 30.57 24.24c8.77 6.59 17.62 13.1 26.9 18.84 3.43 2.04 6.94 4.17 10.72 5.33.73.2 1.52.37 2.11.18.07-.04.04-.01.08-.1.5-2.3-.25-5.01-.65-7.37-3-13.35-7.55-26.3-11.93-39.28-14.45-41.49-30.44-82.47-46.71-123.29l-2.52-6.28a1319.34 1319.34 0 0 0 42.69 53.75c7.6 8.64 45.44 54.97 55.69 50.08 16.45-8.83 10.26-86.14 8.72-104.87l-.27-2.95 1 2.78c11.36 30.84 23.25 61.66 38.68 90.73 3.86 6.65 12.7 23.67 20.68 24.5-5.23-.62-9.19-6.52-12.2-10.41-9.4-13.54-16.32-28.6-23.17-43.54a972.73 972.73 0 0 1-24.7-61.02l.74-.17c2.1 24.83 6.25 78.46-3.62 100.13-5.37 10.82-12.46 5.92-19.76.4-16.07-13.14-29.46-29.04-42.99-44.65a1275.29 1275.29 0 0 1-38.85-48.27l1.57-.9c16.47 40.8 32.64 81.7 47.29 123.2 3.6 10.4 7.16 20.82 10.14 31.46a94.7 94.7 0 0 1 2.73 12.24c.15 1.65.4 2.97-.2 4.75-2.4 5.07-13.43-2.5-16.63-4.2-9.46-5.8-18.34-12.32-27.17-18.92a886.86 886.86 0 0 1-26-20.37l2.15-1.66a410.09 410.09 0 0 0 13.86 26.7c2.46 4.37 5 8.7 7.63 12.98 2.68 4.24 5.84 8.21 8.6 12.4 11.43 16.55 22.08 33.25 35.88 48.03Z"/><path class="uuid-57c43eb6-56af-4ca0-a3d0-7fc8e5a5c950" d="M1680.92 999.54c-.41-3.25-.3-8.25-.45-11.59-.45-26.44-.38-54.86-.43-81.23-.01-30.94.04-61.88-.08-92.82l1.87.31a313.88 313.88 0 0 0-13.18 53.09c-2.22 13.54-3.36 27.22-4.97 40.86-2.53 20.84-6.4 35.98-31.1 34.73-30.09-.58-24.14-42.14-19.23-61.98l3.54 1.48c-13.93 23.58-28.29 46.85-45.94 67.92-5.47 6-14.91 17.44-23.84 16.63-22.71-1.49-10.63-26.22-3.26-37.7 1.85-2.94 3.75-5.78 5.88-8.6l3.24 3.25c-8.93 6.76-18 13.24-27.3 19.46-9.4 6.21-18.83 12.26-29.12 17.04-5.35 2.4-11.77 5-17.75 2.98-5.81-1.77-10.58-5.19-15.2-8.84-4.45-3.6-8.53-7.53-12.43-11.61-3.9-4.1-7.58-8.31-11.12-12.79l4.47-2.74c4.28 9.81 7.86 19.91 8.07 30.75.08 5.87-1.89 12.67-7.48 15.66-5.46 2.9-12.77 3.12-17.57-1.02-12.94-11.26-14.01-44.39-14.7-60.84-.35-13.8-.05-27.54.85-41.34l5.25 1.06a540.36 540.36 0 0 1-9.3 24.76c-6.67 16.37-13.8 32.55-23.02 47.73-3.54 5.71-7.41 11.38-12.24 16.2-3.54 3.4-7.6 6.63-12.9 7.02-6.84.06-13.48-.3-20.25-1.55-12.33-2.13-24.74-9.01-22.12-23.65 2.85-14.7 15.77-28.68 26.31-38.76l2.2 3.47-45.01 17.46c-12.44 4.7-32.76 12.4-45.21 16.95 5.53-2.51 16.53-7.34 22.08-9.75 19.59-8.72 57.3-24.54 77.18-33.03-11.89 11.14-24.86 23.32-31.22 38.6-8.63 21 13.72 24.52 29.41 25.08 1.95.08 4.4.1 6.33.06 5.77-.74 9.93-5.85 13.68-10.3 7.94-10.2 13.85-21.85 19.43-33.54 10.1-21.36 18.52-45.02 26.07-67.47-1.28 19.7-2.78 41.2-2.05 60.84.45 13.44 1.32 27.13 4.5 40.16 1.88 6.74 5.18 18.58 13.52 18.55 3.45.03 7.19-1.15 8.9-4 5.42-9.39-1.42-27.4-5.48-36.85l-8.75-19.56c6.64 8.2 16.68 21.85 23.96 29.25 7.34 7.47 15.25 15.73 25.25 19.25 4.93 1.63 9.7-.75 14.32-2.67 4.92-2.23 9.74-4.9 14.48-7.7 18.65-11.09 36.78-24.64 54.11-37.74l-9.71 13c-5.04 6.78-21.7 30.72-12.3 37.52 2 1.32 4.93 1.72 7.38 1.75 1.71-.04 3.24-.8 4.89-1.75 5.47-3.42 10.12-8.52 14.43-13.4 20.43-24.23 36.94-52.07 52.91-79.42l-3.65 13.78c-4.27 16.6-11.22 55.84 13.96 57.82 7.83.51 17.23-.02 22.38-6.67 2.65-3.32 4.15-7.58 5.22-11.92 2.08-8.8 2.84-17.98 3.93-26.99 2.88-27.38 8.13-54.65 17.45-80.61l1.9-5.38-.02 5.7c-.23 56.7-1.3 117.24-1.28 174.05.01 3.28.03 8.33.31 11.6ZM.92 1000.25C1.67 947.65.13 867.9.05 814.6L0 808.35l1.77 6c7.6 25.55 11.91 51.97 14.31 78.48.89 8.81 1.53 17.66 2.94 26.3 1.86 11.14 5.3 21.34 18.32 21.59 1.48.08 3.3.01 4.8-.1 9.79-.49 13.57-10.64 14.55-19.12 2.18-17.7-2.28-36.36-6.17-53.56 13.23 27.27 26.8 55.1 44.07 80 3.58 4.76 10.3 14.59 16.1 15.7 3.77.09 7.66-1.52 8.21-5.64 1.37-10.42-7.1-25.21-12.4-34.11l-7.94-12.78 11.15 10.09c10.92 9.82 22.21 19.4 34.14 28 3.97 2.82 8.03 5.55 12.22 7.82 2.59 1.34 5.1 2.62 7.81 3.02 1.48.18 2.8-.21 4.24-.81 4.1-1.86 7.75-5.2 11-8.43 11.09-11.04 21.08-27.86 29.73-40.93-5.06 14.79-18.22 42.24-12.23 57.27 1.27 2.8 3.89 4.22 6.93 4.28 11.03.57 13.42-31.73 14.17-40.05.52-6.6.8-13.23.95-19.87.53-18.73-.57-39.01-1.61-57.78 7.71 23.7 16.63 47.95 27.89 70.17 7 13.16 17.12 32 30.9 38.52 2.17.98 4.54 1.58 6.96 1.59a17.6 17.6 0 0 1-7.21-.94c-18.07-6.89-32.12-33.75-40.68-50.36-6.4-13.15-12-26.57-16.8-40.42l4.8-.93c1.03 20.15 1.26 40.28-.21 60.4a184.78 184.78 0 0 1-2.57 20.15c-1.46 6.91-2.92 13.74-7.28 19.72-1.74 2.35-4.78 4.6-8 4.74-3.1.12-6.09-.46-8.74-2.31-7.75-6.01-6.17-17.64-4.84-26a117.85 117.85 0 0 1 5.57-19.7l4.26 2.17c-7.05 10.45-14.6 20.63-24.4 28.69-8.36 6.56-13.54 6.96-22.76 1.75-17.33-10.05-32.22-23.42-47.1-36.65l3.2-2.7c5.09 8.44 9.63 17.18 12.1 26.78 1.13 4.89 1.95 11.3-1.87 15.59-2.59 2.78-6.24 3.55-9.81 3.51-2.3-.17-4.36-1.41-5.9-2.55-5.35-4.17-9.16-9.45-13.06-14.8-7.44-10.6-13.86-21.74-20.06-32.99a745.86 745.86 0 0 1-17.59-34.26l3.31-1.15c3.45 17.05 9.98 61.5-16.53 61.74-16.53.87-21.9-9.22-24.16-23.92-2.58-17.63-3.1-35.29-5.65-52.87A366.9 366.9 0 0 0 .08 814.85l1.72-.25c-.35 53.6.52 132.8-.88 185.65Z"/></g><g id="uuid-382dbe31-7043-4f87-9263-99698d5ba790"><path class="uuid-6ccbf50f-8224-4e0d-82a0-3a9b921f3956" d="M39.56 543.24c7.04-.8 8.12-9.49 9.62-15.1 1.14-4.88 2.11-10.04 4.64-14.6 2.94-6 11.55-8.71 16.52-3.39 3.62 3.9 4.28 9.18 7.18 13.11 1.5 2.07 3.56 1.78 5.72 1.71 1.77 0 3.57.05 5.4.25 3.63.4 7.5 1.4 10.95 3.34 3.48 1.88 6.2 4.55 8.06 5.47 8.61 3.78 11.01-7.3 14.97-13.15 1.62-2.89 5.47-6.85 9.7-6.87 3.1 0 5.65-.8 8.21-2.94 3.4-2.8 6.52-7.03 11.37-8.4 5.96-1.82 13.46.97 16.35 6.44 1.95 3.3 2.57 6.65 3.88 9.7 1 2.1 1.62 3.04 3.72 3.7 1.77.45 3.73.63 5.15-.46 2.87-2.52 3.8-6.39 5.37-10.52 1.76-4.75 3.67-10.56 9.1-12.93 2.36-1.04 5.05-.7 7.43-1.64 5.96-2.04 9.6-7.3 15.9-10.42 6.56-3.3 17.34-2.15 22.86 2.85 8.89 8.13-.07 22.36 8.15 28.15 2.49 1.68 5.8 2.4 9.06 2.82-3.38.42-6.85.5-10.1-.88-3.52-1.31-5.84-5.07-6.6-8.58-2.24-8.95.24-18.35-12.17-18.3-6.22-.6-9.58 2.75-14.28 7.03-3.83 3.58-9.71 7.02-15.4 7.62-.65.13-1.07-.02-1.57.54-1.47 1.55-2.38 4.64-3.26 6.97-2.36 7.32-6.13 17.01-15.56 17.84-7.34.75-14.17-2.93-16.87-9.8-1.33-2.96-1.99-6.2-3.36-8.61-.98-1.7-2.3-2-4.04-2.07-.69-.01-1.12.12-1.94.6-2.23 1.48-4.44 4.17-6.9 6.1a21.9 21.9 0 0 1-13.82 5.1h-.08l-.13.07c-2.73 2.53-4.15 6.86-6.71 10.7-3.32 5.68-9.31 10.33-16.33 9.46a16.1 16.1 0 0 1-6.55-2.03c-3.31-1.9-5.16-4.18-8.02-5.91-3.4-2.16-7.91-2.98-12.09-3.19-2.09-.06-4.15-.1-6.16-.96-4.12-1.53-6.64-6.01-7.86-9.76-1.05-2.75-1.64-6-3.22-8.14-1.2-1.76-3.72-1.74-5.45-.82-8.86 5.1-8.29 30.45-20.84 29.9ZM705.28 446.41c-5.08 5.76-21.08-5.08-26.43-8-4.13-2.46-8.18-4.98-12.23-7.44-3.82-2.22-18.09-11.13-21.58-8.34.54 2.69 2.54 5.23 4.36 7.77 4.33 5.87 9.8 11.42 12.87 18.71 1.64 3.69 1.7 9.25-1.32 12.57a19.86 19.86 0 0 0-3.22 4.52c-1.6 3.3-1.55 6.3-.75 10 .69 3.33 2.2 7.26 2.47 11.23.79 6.87-3.93 13.86-11 14.77-6.33.91-12.13-1.58-17.53-3.93-6.95-3.07-14.67-7.94-20.75-9.65a3.92 3.92 0 0 0 2.1-1.09l-.14.13c-4.84 5.15-13.1 5.74-19.18 4.4-4.68-.82-8.73-2.45-13.1-2.95-.63-.06-.9.08-.44-.08a2.58 2.58 0 0 0 .98-.75c-.04.03-.02.05-.04.06-.03.26.02.69.27 1.4 1.22 3.31 4.17 7.05 6.52 10.22 4 5.46 8.57 10.93 10.21 17.98 2.26 9.15-4.25 18.96-14.1 18.16-9.75-.9-17.9-7.2-25.65-11.93-4-2.57-7.94-5.17-11.64-7.08-1.31-.62-3.16-1.57-4.27-1.67a3.11 3.11 0 0 0 1.47-.61c-6.55 4.95-15.51 4.32-22.73 2.67-4.12-.84-10.9-3.03-14.9-2.4-1.37.23-1.81 1.11-2.63 2-4.45 5.25.26 11.85 3.8 16.52 7.62 10.8 32.25 29.79 16.66 42.98 1.41-1.94 2.53-4.08 2.84-6.3 1.98-14.82-30.57-27.64-34.67-45.05-2.37-8.08 2.63-18.53 10.83-21.07 6.74-2.05 13.9.07 20.39 1.02 3.58.55 7.75 1.13 10.78-.05 1.17-.45 1.99-1.33 3.07-1.85 1.8-1 4.48-1.33 6.24-1.13 3.73.42 6.19 1.58 9.16 3.02 4.8 2.45 8.82 5.13 12.86 7.68 5.67 3.53 11.16 7.34 17.13 9.3.79.23 1.49.35 1.93.37.44.01.5-.07.25.03-.23.06-.53.46-.31.16 1.37-3.27-5.52-11.35-7.71-14.45-4.2-5.79-9.33-11.67-9.65-19.67-.12-5.01 2.81-10.45 7.58-12.35 7.7-2.82 14.33 1.02 21.42 2.2 2.8.42 4.92.92 6.81-.47 6.11-6.3 15.61-1.52 21.76 1.6 4.4 2.27 8.5 4.58 12.51 6.48 2.87 1.34 7.3 3.28 9.85 3.1.28-.03.11 0 0 .12-.02.04-.04.04-.04.07a.4.4 0 0 1 .06-.05c.03-.03.04-.02.06-.05.3-.83.04-2.34-.2-3.62-2.79-11.3-3.71-21.6 6.27-31.09 0 .07.01.26.08-.07-.1-2.32-1.48-4.75-2.87-7.18-2.26-3.82-5.05-7.68-7.68-11.91-2.49-4.26-6.08-9.57-4.3-15.08 6.37-13.17 24.19 1.45 31.56 6.55 3.89 2.84 7.65 5.78 11.44 8.66 4.86 3.33 19.17 15.68 24.47 10.91ZM1401.35 656.4c-7.36-4.46 6.33-26.62 3.37-33.88-1.25-2.72-4.66 1.58-6 2.9-1.79 1.94-3.56 4.05-6.12 6.01-2.5 2.05-6.53 3-9.45 1.06-.39-.2-.78-.43-1.16-.6-3.23-1.55-5.96-1.7-9.16-.56-1.9.62-4.3 1.75-6.68 1.9-6.08.48-10.12-4.68-9.97-10.24-.25-5.65 2.21-11.38 2.06-16.58 0 .1.37.57.57.66a12.1 12.1 0 0 1-4.4-4.9c-1.52-3.1-1.66-6.35-1.85-9.43-.1-1.5-.16-2.75-.55-3.58l.1.09c-.45-.2-.65-.28-1.17-.1-2.9 1.38-5.19 4.76-7.76 7.03-3.18 3.27-8.57 5.84-13.29 3.59-11.4-5.53-2.03-20.07-.79-28.54.07-.5.1-.96.08-1.25-.01-.3-.09-.37.02-.18.05.1.15.2.23.26-3.65-2.9-5.27-8-5.63-12.43-.53-3.71-.1-6.82-2.14-9.2-5.34-4.3-9.24-.62-12.83 4.13-4 4.88-8.82 13.68-16.46 11.35a11.9 11.9 0 0 1-3.6-2.03c2.3 1.06 5.1 1.7 7.41.56 2.25-1.1 3.74-3.22 5.1-5.3 3.04-4.8 4.86-9.98 9.54-13.97 5.55-4.87 15.74-1.9 18.24 4.83 1.1 2.68 1.41 5.94 1.86 8.67.6 3.56 1.21 5.85 3.68 7.73 4.48 4.6 1.29 11.3-.1 16.35-1.08 3.53-2.41 6.97-2.33 10.35.04.53.1.9.34 1.18.95.59 1.65.61 2.84-.02 4.7-2.98 7.19-8.45 12.88-10.61 3.37-1.3 7.79-.34 10.05 2.56 1.9 2.36 2.11 5.63 2.26 8.04.28 2.92-.04 6.16 2.33 7.96 6.36 4.17 1.9 13.59 1.3 19.24-.23 1.96-.72 4.56.33 5.98.68.57 1.5.5 2.47.25 6.96-2.4 12.57-3.3 19.52 1.44.87.63 1.44.21 2.76-.51 2.97-1.94 5.94-5.45 9.21-7.7 1.52-1.01 3.19-1.9 5.26-1.75 16 3.48-10.14 33.63-2.37 39.24ZM1569.94 692.39c1.85-2.2-4.29-9.56-5.67-11.73-2.68-3.68-5.42-7.31-7.92-11.25-1.4-2.48-4.94-7.41-1.4-9.85 4.42-2.3 12.37 8.3 16.73 9.63.3.1.36-.02.01.07-.09.05-.2.08-.24.13l.1-.09c3.99-3.88 9.4-2.1 13.26-.28.66.3 1.65.67 2.17.68.07 0-.26-.03-.48.22-.15.14-.25.33-.28.4-.03.09-.02.08-.02 0-.2-1.7-1.13-3.43-1.91-5.07-1.5-3-3.38-5.99-4.85-9.15-1.07-2.16-2.04-5.54.06-7.33.28-1.7-.74-4.02-1.3-5.9-.63-2.23-1.66-4.06-.89-6.93.41-1.44 2.03-2.73 3.58-2.96 5.96-.94 11.5 7.44 15.93 10.22.76.54 1.56.93 1.89.97.17.03.1 0 .03.04.02-.01-.15.06-.32.25-.17.18-.27.4-.3.5-.04.23.02 0-.06-.3-1.83-5.63-5.88-10.28-8.7-15.57-1.23-2.37-3.33-5.74-1.35-8.6.74-1.22.12-3.54-.22-5.14-.66-2.98-1.93-6.17-1.45-9.39.27-2.73 3.45-4.87 6.2-4.72 3.13.14 5.29 1.9 7.3 3.79 3.45 3.44 6.02 7.2 8.84 10.71 2.58 2.89 6.15 8.3 10.5 5.52-7.5 7.86-21.52-18.89-27.73-15.02-.06.07-.21.17-.26.23.08-.02.06-.05.04.22-.02.24.01.63.08 1.05.78 4.92 4.74 11.15 1.36 16.24.2-.25.3-.56.34-.84-.01-.27.01.13.16.48 2.17 4.97 5.81 9.4 8.43 14.31 1.33 2.72 2.97 5.22 2.26 8.6-.55 2.63-3.84 4.08-6.16 3.53-4.32-.99-6.9-4.09-9.82-6.59-2-1.77-3.68-3.56-5.75-4.49-.23-.08-.3-.04-.09-.06.1-.03.2-.06.3-.13.35-.2.64-.65.7-.87.1-.43 0-.13.09.2.98 4.6 4.79 10.89.44 15.08.34-.25.67-.95.68-1.25.02-.24 0-.19.02-.1.01.11.06.29.13.47 1.63 5.53 12.97 19.1 4.31 22.74-3.97 1.35-8.16-2.96-11.47-2.97-1.04-.07-2 .37-2.8 1.05-5.68 3.93-13.14-8.17-17.73-10.46a2.8 2.8 0 0 0-.36-.15c-.07-.02.02-.01.14-.1.23-.16.1-.27.1.04 0 6 16.9 26.12 13.35 29.92Z"/></g><g id="uuid-7d607ea3-c74a-4a61-a547-dcf6c1ca5a88"><path d="M533.48 232.63c.1 16-3.29 29.33-7.58 29.79-4.28.45-7.95-28.14-7.95-28.14s3.3-29.33 7.58-29.79c4.29-.45 7.85 12.15 7.95 28.14Z" fill="url(#uuid-40f0d7d6-7fa6-4c92-a5f7-1f4ee464f883)" stroke-width="0"/><path class="uuid-43638cbf-70a8-4d64-9431-1f68caafed5a" d="M533.48 232.63c0 7.72-.47 15.54-2.58 23.01-.92 2.58-1.88 6.34-4.92 7.11-3.3.15-5.27-10.43-6.02-13.1-1.14-5.09-2-10.2-2.7-15.37.62-5.18 1.38-10.32 2.4-15.44.79-3.81 1.63-7.65 3.07-11.29.6-1.24 1.02-2.6 2.4-3.3 7.34-1.08 8.4 23.22 8.35 28.38Zm0 0c-.14-7.7-.76-15.58-3.49-22.83-.83-1.84-2.19-5.31-4.61-4.9-1.84 1.37-2.31 4.48-2.99 6.61-1.79 7.23-2.88 15.93-3.76 22.68 1.08 7.6 2.16 15.28 4.25 22.68.55 1.47 1.68 6.3 3.8 4.95 2.08-1.32 3-4.05 3.83-6.3.8-2.44 1.39-4.95 1.81-7.5a91.38 91.38 0 0 0 1.16-15.39Z"/><path class="uuid-552612a3-f70b-4a08-889d-1dffd3908f10" d="M526.53 233.37c.07 10.97-1.96 20.1-1.96 20.1s-2.14-8.68-2.21-19.66c-.07-10.97 1.95-20.1 1.95-20.1s2.15 8.68 2.22 19.66Z"/><path class="uuid-1cd767a3-87a5-4715-a81d-4d26324bb754" d="M523.82 228.86c-.18 1.37-.85 1.33-1.5-.09a10.89 10.89 0 0 1-.83-5.03c.18-1.37.85-1.33 1.5.08.64 1.42 1.01 3.67.83 5.04Z"/><path class="uuid-33e7480a-3d19-4f99-b9e9-ff30ce10c525" d="M556.12 300.64c4.17-18.74-6.74-41.51-9.31-27.82-.15.82-.66.96-1.3.37-10.86-9.9-5.73 14.5 9.59 27.74.47.4.9.3 1.02-.29Z"/><path d="M575.4 214.47c.58 20 13.85 35.9 29.64 35.53 15.79-.37 27.53-36.88 27.53-36.88s-13.85-35.9-29.64-35.52c-15.79.37-28.11 16.88-27.53 36.87Z" fill="url(#uuid-1df9adc7-7ee5-424d-a2fb-42cc7c663021)" stroke-width="0"/><path class="uuid-43638cbf-70a8-4d64-9431-1f68caafed5a" d="M575.4 214.47c.17 16.36 11.6 35.49 29.66 34.94 10.68-.92 17.9-16.51 21.94-25.2 1.65-3.74 3.17-7.6 4.44-11.45l.03.79c-1.5-3.78-3.23-7.54-5.1-11.18-4.63-8.66-13.35-25.11-24.71-24.13-17.38 1.3-26.98 20.35-26.26 36.23Zm0 0c-.95-16.96 10.24-38.3 29.4-37.38 7.53 1.23 12.8 7.74 17.08 13.51 4.9 7 8.74 14.59 11.95 22.49a111.73 111.73 0 0 1-10.68 23.1c-4.2 6.33-9.75 13.98-18.06 14.4-18.35-.04-29.52-19.53-29.7-36.12Z"/><path class="uuid-552612a3-f70b-4a08-889d-1dffd3908f10" d="M590.08 214.13c.4 13.71 8.4 24.66 8.4 24.66s7.35-11.3 6.95-25.02c-.4-13.72-8.4-24.66-8.4-24.66s-7.35 11.3-6.95 25.02Z"/><ellipse class="uuid-1cd767a3-87a5-4715-a81d-4d26324bb754" cx="592.28" cy="201.62" rx="2.57" ry="3.52" transform="rotate(-2 592.19 201.6)"/><path d="M595.45 275.42a636 636 0 0 1 37.05 8.42 885.94 885.94 0 0 1 54.73 15.91l9 3.03c3.01 1 6 2.03 8.98 3.12a581.86 581.86 0 0 1 35.41 13.79c-6.05-1.9-11.98-4.07-18.04-5.93l-9.01-2.96-9.04-2.89a2958.4 2958.4 0 0 0-72.6-22.03l-18.23-5.25c-6.07-1.79-12.17-3.46-18.26-5.21Z" fill="url(#uuid-caca5f67-d432-404c-b611-16ec08773bb8)" stroke-width="0"/><path d="M597.86 265.68c11.4.14 22.76 1.43 34.03 3.18a337.3 337.3 0 0 1 33.49 7.01c2.77.68 5.5 1.5 8.25 2.3l4.1 1.18c1.38.38 2.75.79 4.1 1.25l8.13 2.67c2.72.86 5.37 1.93 8.05 2.9l4 1.49 2.01.74 1.98.82 7.88 3.3c2.64 1.09 5.2 2.33 7.78 3.55a626 626 0 0 1 7.7 3.7c-2.68-.98-5.34-1.99-8-3-2.65-1.02-5.27-2.1-7.97-3-5.35-1.9-10.68-3.88-16.09-5.6a503.46 503.46 0 0 0-32.6-9.66l-8.24-2.12-8.29-1.93a534.67 534.67 0 0 0-16.65-3.5c-11.14-2.15-22.34-4.01-33.66-5.28Z" fill="url(#uuid-c446db9d-0347-4e10-b42c-8d15c000a9ab)" stroke-width="0"/><path d="M597.86 288.77a311.3 311.3 0 0 1 31.79 16.06 395.6 395.6 0 0 1 30.08 19.12c2.41 1.74 4.85 3.44 7.24 5.21l7.1 5.4 1.76 1.36 1.73 1.42 3.45 2.83c2.29 1.89 4.61 3.74 6.8 5.77l6.63 5.95c2.17 2.04 4.26 4.16 6.38 6.23l3.16 3.15c1.03 1.07 2.02 2.18 3.02 3.28 2 2.2 3.97 4.4 5.94 6.62a696.67 696.67 0 0 1-6.48-6.09c-1.08-1-2.13-2.06-3.22-3.05l-3.34-2.93c-2.22-1.95-4.4-3.96-6.65-5.87l-6.82-5.67a469.27 469.27 0 0 0-28.27-21.37 610.95 610.95 0 0 0-29.6-19.54 668.07 668.07 0 0 0-30.7-17.88Z" stroke-width="0" fill="url(#uuid-86644b78-7f40-499b-a83c-27a9b11ce40e)"/><path d="M534.08 287.31c-9.65 2.87-19.3 5.65-28.95 8.43l-28.92 8.37-28.92 8.43c-9.64 2.8-19.25 5.7-28.95 8.39a490.59 490.59 0 0 1 28.32-10.42c4.75-1.65 9.56-3.12 14.34-4.67 4.8-1.47 9.62-2.94 14.45-4.35 4.83-1.38 9.67-2.73 14.53-4.05 4.86-1.27 9.72-2.58 14.6-3.75 9.78-2.4 19.6-4.61 29.5-6.38Z" fill="url(#uuid-119e655d-2250-40c9-9532-d5f1a56bee66)" stroke-width="0"/><path d="M531.66 277.58a487 487 0 0 0-27.59 4.25c-4.57.83-9.13 1.7-13.68 2.65l-6.81 1.43-6.8 1.55c-2.27.47-4.51 1.07-6.77 1.6-2.26.54-4.52 1.08-6.76 1.68l-6.75 1.74-6.72 1.85c-4.49 1.2-8.93 2.57-13.4 3.86-2.25.61-4.45 1.36-6.68 2.04-2.23.69-4.46 1.36-6.7 2.01 2.14-.92 4.28-1.83 6.44-2.72 2.16-.9 4.31-1.8 6.5-2.6 4.4-1.6 8.77-3.25 13.23-4.62a317.3 317.3 0 0 1 54.57-12.57c9.26-1.25 18.58-2.16 27.92-2.15Z" fill="url(#uuid-89bf4746-3815-40cb-a741-dedab003703d)" stroke-width="0"/><path d="M544.44 294.43a806.6 806.6 0 0 0-25.42 14.78 675.2 675.2 0 0 0-24.78 15.73 562.95 562.95 0 0 0-24.07 16.77l-5.91 4.36-5.82 4.48-2.93 2.22-2.86 2.3a473.36 473.36 0 0 1-5.79 4.56c1.75-1.72 3.51-3.43 5.3-5.13l2.67-2.54 2.75-2.45 5.56-4.84c1.9-1.57 3.82-3.1 5.73-4.65l2.87-2.32 2.95-2.22 5.9-4.42c4.03-2.83 8.03-5.7 12.15-8.4 4.09-2.72 8.27-5.32 12.45-7.9l6.34-3.77c2.13-1.23 4.28-2.42 6.43-3.62a266.8 266.8 0 0 1 26.48-12.95Z" fill="url(#uuid-57980026-d455-4252-9b03-e2fcb1c4aec6)" stroke-width="0"/></g><g id="uuid-0510d1e3-efcc-4a2e-95f6-3684aba70ddc"><path class="uuid-7fc7d02f-f7c5-434b-b59e-71febbff47f9" d="M542.36 399.95c-22.25 0-40.35-21.33-40.35-47.54s18.1-47.55 40.35-47.55c17.84 0 60.48 30.27 77.99 43.28 1.1.82 1.78 2.46 1.78 4.27s-.68 3.44-1.78 4.26c-17.5 13.01-60.15 43.28-77.99 43.28Z"/><path class="uuid-552612a3-f70b-4a08-889d-1dffd3908f10" d="M542.36 305.79c7.42 0 20.88 5.81 38.9 16.81 15.44 9.42 30.77 20.51 38.54 26.28.87.65 1.41 2 1.41 3.53s-.54 2.87-1.41 3.52c-7.77 5.77-23.1 16.86-38.53 26.28-18.04 11-31.49 16.82-38.91 16.82-21.74 0-39.43-20.92-39.43-46.62s17.69-46.63 39.43-46.63m0-1.84c-22.8 0-41.27 21.7-41.27 48.47s18.48 48.46 41.27 48.46c18.25 0 61.88-31.08 78.54-43.46 2.88-2.14 2.88-7.87 0-10-16.66-12.4-60.29-43.47-78.54-43.47Z"/><path class="uuid-7fc7d02f-f7c5-434b-b59e-71febbff47f9" d="M602.04 340.82c5.94-7.06 6.63-19.48 1.55-27.74-5.07-8.26-14-9.23-19.95-2.16-5.94 7.06-6.63 19.48-1.55 27.74"/><path class="uuid-552612a3-f70b-4a08-889d-1dffd3908f10" d="M602.04 340.82c5.86-8.22 5.83-20.4-.07-28.58-2.81-3.89-7.9-6.37-12.57-4.48-10.93 4.86-12.48 21.29-7.31 30.9-6.65-9.77-5.19-27.35 6.67-32.58 5.37-2.27 11.46.57 14.6 5.12 6.05 8.65 5.72 21.66-1.32 29.62Z"/><path class="uuid-7fc7d02f-f7c5-434b-b59e-71febbff47f9" d="M602.04 362c5.94 7.06 6.63 19.48 1.55 27.74-5.07 8.26-14 9.23-19.95 2.17-5.94-7.07-6.63-19.49-1.55-27.75"/><path class="uuid-552612a3-f70b-4a08-889d-1dffd3908f10" d="M602.04 362c7.04 7.96 7.37 20.97 1.33 29.62-3.15 4.55-9.24 7.4-14.6 5.13-11.87-5.24-13.33-22.82-6.68-32.59-5.17 9.61-3.62 26.05 7.32 30.9 4.67 1.9 9.75-.59 12.56-4.48 5.9-8.18 5.93-20.35.07-28.58ZM502.61 354.95c-6.41-.38-11.38-5.1-17.17-6.94-.98-.25-1.8-.49-2.38-.15-.62.62-.56 1.6-.64 2.69 0 .68.12 2.04.22 2.72 8.23 45.66 32.3 18.45 31.41 51.61-.72-31.33-21.42-6.2-33.28-45.1a48.6 48.6 0 0 1-1.85-7.5c-.16-1.78-.39-3.35.25-5.27 2.12-5.85 9.5-2.49 13.27-.74 3.26 1.34 6.57 3.43 10 3.6l.17 5.08Z"/><ellipse cx="618.93" cy="352.31" rx="3.5" ry="5.16" fill="#ffc5de" stroke="#292425" stroke-miterlimit="10" stroke-width=".88"/></g><g id="uuid-fa879b9c-9ccd-4a25-b9f3-76c40868059f"><path class="uuid-71dfdac6-4431-4f71-948b-6b6cdda1a9e1" d="M564.98 311.42c-.9.6-2.1 1-3.4 1-4.6 0-5.5-4-5.5-4s-.7 4-6.5 3.7c-2.5-.1-5.9-4.5-2.8-9.2l16.6-1.7 1.5 1.5c.1.1.2.2.2.3 2.9 3.7 2.2 6.8-.1 8.4Z"/><path class="uuid-71dfdac6-4431-4f71-948b-6b6cdda1a9e1" d="M546.8 302.92c-3.1 4.7.28 9.1 2.75 9.21 5.8.26 6.57-3.7 6.57-3.7s.82 3.96 5.42 3.96c4.87 0 8.48-5.1 1.84-11.22"/><path class="uuid-552612a3-f70b-4a08-889d-1dffd3908f10" d="M546.8 302.92c-1.82 2.9-1.02 7.64 2.5 8.61a8.52 8.52 0 0 0 3.29-.42c1.29-.44 2.51-1.53 2.83-2.82l.7-2.8c.41 1.45.67 3.83 1.9 4.9 1.8 1.83 5.13 1.86 7.1.28 3.23-2.7.67-7.11-1.75-9.5 2.17 1.79 4.43 4.47 3.91 7.54-.59 3.3-4.4 4.78-7.4 4.13a5.78 5.78 0 0 1-4.46-4.28h1.4c-.96 3.43-4.63 4.56-7.75 4.08-4.08-1.2-4.85-6.82-2.27-9.72Z"/><path class="uuid-33e7480a-3d19-4f99-b9e9-ff30ce10c525" d="M564.98 311.42c2.3-1.6 3-4.7.1-8.4 2.4 2.5 4.7 5.9 4.7 10.8l-4.8-2.4Z"/><path class="uuid-552612a3-f70b-4a08-889d-1dffd3908f10" d="M564.9 311.32c1.68.7 3.33 1.48 4.95 2.3l-.34.21c.01-4.16-1.87-8-4.61-11.07 3.2 2.86 5.28 7.1 5.07 11.45a74.98 74.98 0 0 1-5.07-2.9Z"/></g></svg>