<?xml version="1.0" encoding="UTF-8"?><svg id="uuid-cd8457b3-41e8-4f61-858f-5b9da2101d60" xmlns="http://www.w3.org/2000/svg" xmlns:xlink="http://www.w3.org/1999/xlink" viewBox="0 0 100 100"><defs><style>.uuid-0dd6e83b-374d-482b-b87a-4373d2165e4d{fill:url(#uuid-9e9dac40-d1ac-4b01-8c83-9e3161ce5876);}.uuid-0dd6e83b-374d-482b-b87a-4373d2165e4d,.uuid-df55917d-9490-4a9c-a729-81131d1cca63,.uuid-e0ef2050-b06e-4786-bf6f-811ccd74f873,.uuid-d48456e7-ddca-48af-a56d-218f80a6da8a,.uuid-9b8c73cc-7ed6-4ba3-88b0-69f59010095d{stroke-width:0px;}.uuid-df55917d-9490-4a9c-a729-81131d1cca63{fill:url(#uuid-ed934871-77d1-47d2-ad55-c1a2c26ee22c);}.uuid-e0ef2050-b06e-4786-bf6f-811ccd74f873{fill:url(#uuid-c06401a6-9795-44da-84a0-6678a3a5b029);}.uuid-d48456e7-ddca-48af-a56d-218f80a6da8a{fill:url(#uuid-23107052-ff37-40e8-8e52-b96c0fde58b0);}.uuid-9b8c73cc-7ed6-4ba3-88b0-69f59010095d{fill:#f6f2f0;}</style><linearGradient id="uuid-c06401a6-9795-44da-84a0-6678a3a5b029" x1="-6.784" y1="62.302" x2="103.17" y2="26.575" gradientUnits="userSpaceOnUse"><stop offset="0" stop-color="#ffc5de"/><stop offset=".5" stop-color="#f6f2f0"/><stop offset="1" stop-color="#ff922b"/></linearGradient><linearGradient id="uuid-ed934871-77d1-47d2-ad55-c1a2c26ee22c" x1="31.915" y1="59.534" x2="37.633" y2="57.676" xlink:href="#uuid-c06401a6-9795-44da-84a0-6678a3a5b029"/><linearGradient id="uuid-23107052-ff37-40e8-8e52-b96c0fde58b0" x1="44.412" y1="80.838" x2="73.518" y2="71.382" xlink:href="#uuid-c06401a6-9795-44da-84a0-6678a3a5b029"/><linearGradient id="uuid-9e9dac40-d1ac-4b01-8c83-9e3161ce5876" x1="50.731" y1="67.869" x2="67.589" y2="62.391" xlink:href="#uuid-c06401a6-9795-44da-84a0-6678a3a5b029"/></defs><g id="uuid-860016c8-f45f-4e90-b215-c6389bd22e01"><path class="uuid-e0ef2050-b06e-4786-bf6f-811ccd74f873" d="M80,0H20C8.96,0,0,8.96,0,20v60c0,11.04,8.96,20,20,20h23.54c-.02-.03-.03-.06-.03-.09-.06-.19-.12-.38-.17-.57v-.01c-.91-3.29-.97-6.75-.8-10.13.08-3.61,1.66-8.15-1.76-10.76-.57-.42-1.44-.75-2.13-.42-1.93.51-4.21.86-6.07-.06-2.83-1.63-5.41-3.89-7.91-6.05.01-.59.07-1.16.49-1.52.15-.16.8-.76.93-.92.07-.08.17-.24.11-.45-.18-.36-.41-.35-.59-.42-.74-.17-1.42-.15-2.13-.06-.43.13-.63.29-.97.27-.21,0-.41-.07-.6-.17v-.01c-.32-1.48.41-3.09,1.39-4.7.99-1.58,1.92-3.39,2.01-5.32.17-1.88-.28-3.79-.07-5.63.41-2.11,1.36-4.03,2.63-5.75-1.56,2.95-1.55,7.47,1.91,8.77-3.26-1.99-2.71-6.47-1.33-9.53,1.98-2.44,4.59-4.48,7.15-6.13,2.54-1.59,5.07-3.23,7.77-4.53-.77.35-1.55.72-2.35,1.12.05-.06.1-.11.15-.17,1.56-1.78,2.24-4.2,2.54-6.52.39-2.36-.36-4.92.8-7.11.68-1.38,2-2.57,3.56-2.76.16-.02.18-.01.32.03,1.62.72,3.13,1.86,4.56,2.93.85.67,1.77,1.31,2.45,2.17-.12.25-.23.49-.33.73-1.06,2.44-1.41,5.15-2.19,7.63-.66,1.82-1.68,3.55-2.91,5.05-2.22,2.3-5.01,4.68-5.63,7.99.82-3.28,3.65-5.44,5.95-7.72,1.31-1.52,2.39-3.24,3.13-5.12,1.06-2.88,2.66-13.98,7.51-10.66,2.14,2.2,3.65,5.25,4.68,8.67v.02c-.22,4.87-1.76,9.51-4.39,13.64,3.27-3.37,5-8.1,4.65-12.76,1.83,6.73,1.89,14.68,1.3,20.36,1.06-6.46,1.11-15.64-1.38-22.9,5.71,2.82,10.63,7.46,14.13,12.74,1.96,3.47,2.69,7.49,4.23,11.18,3.91,9.97,9.53,19.15,15.68,27.87.01.02.02.04.04.06.09-.75.13-1.51.13-2.28V20c0-11.04-8.96-20-20-20ZM22.48,69.05c.36.1.81-.1,1.04-.13.7.03,1.63-.01,2.22.25-.14.15-.63.7-.85.99-.41.46-.43,1.09-.31,1.66-.29-.25-.58-.5-.87-.75-1-.69-1.55-1.46-1.77-2.28.16.12.34.21.54.26Z"/><path class="uuid-df55917d-9490-4a9c-a729-81131d1cca63" d="M37.08,55.99c-.34-.83-.99-.77-1.64-.82-1.54.03-2.97.6-4.35,1.23.67-.13,1.34-.27,2.01-.37-.94,1.15-.54,2.91.46,3.93.28.33.62.61.96.87-.46.71-.99,1.37-1.56,1.92,2.31-1.41,3.89-3.96,4.13-6.67,0-.02.01-.08-.01-.09ZM34.54,60.79c-.29-.31-.59-.61-.83-.95-.9-1.07-1.28-2.6-.53-3.82.27-.05.55-.09.82-.12.77-.09,1.82-.18,2.36.2-.16,1.42-.84,3.17-1.82,4.69Z"/><path class="uuid-9b8c73cc-7ed6-4ba3-88b0-69f59010095d" d="M36.36,56.1c-.16,1.42-.84,3.17-1.82,4.69-.29-.31-.59-.61-.83-.95-.9-1.07-1.28-2.6-.53-3.82.27-.05.55-.09.82-.12.77-.09,1.82-.18,2.36.2Z"/><path class="uuid-d48456e7-ddca-48af-a56d-218f80a6da8a" d="M68.77,56.77c-.05.93-.11,1.86-.18,2.79-1.03,13.9-8.1,27.61-19.43,35.89,11.14-9.87,17.81-24.01,19.61-38.68Z"/><path class="uuid-0dd6e83b-374d-482b-b87a-4373d2165e4d" d="M65.99,57.47c-.83,1.52-1.13,3.33-1.98,4.88-1.94,4.03-5.32,7.3-9.26,9.36-.79.39-1.6.75-2.42,1.08,5.12-3.29,9.61-7.54,12.25-13.09.4-.65.81-1.75,1.41-2.23Z"/></g></svg>