<svg xmlns="http://www.w3.org/2000/svg" xmlns:xlink="http://www.w3.org/1999/xlink" viewBox="0 0 1680 1258.41"><defs><linearGradient id="uuid-bed48332-da5e-48bc-ac0c-62705974ad65" x1="239.24" y1="173" x2="365.96" y2="197.1" gradientUnits="userSpaceOnUse"><stop offset="0" stop-color="#191818"/><stop offset=".27" stop-color="#5b5958"/><stop offset=".62" stop-color="#adaaa9"/><stop offset=".88" stop-color="#e1dedc"/><stop offset="1" stop-color="#f6f2f0"/></linearGradient><linearGradient id="uuid-40e1bab7-3269-45e0-85f3-79f94c3253db" x1="249.44" y1="193.1" x2="349.76" y2="212.18" gradientUnits="userSpaceOnUse"><stop offset="0" stop-color="#191818"/><stop offset=".27" stop-color="#5b5958"/><stop offset=".62" stop-color="#adaaa9"/><stop offset=".88" stop-color="#e1dedc"/><stop offset="1" stop-color="#f6f2f0"/></linearGradient><linearGradient id="uuid-48f20f7d-345e-4008-9bcf-7716fadcc27c" x1="270.33" y1="213.22" x2="352.39" y2="228.83" xlink:href="#uuid-bed48332-da5e-48bc-ac0c-62705974ad65"/><linearGradient id="uuid-d9219baa-ecd5-4fae-8065-c7f71f1a3dfa" x1="407.8" y1="188.12" x2="494.39" y2="170.8" gradientUnits="userSpaceOnUse"><stop offset="0" stop-color="#f6f2f0"/><stop offset=".12" stop-color="#e1dedc"/><stop offset=".38" stop-color="#adaaa9"/><stop offset=".73" stop-color="#5b5958"/><stop offset="1" stop-color="#191818"/></linearGradient><linearGradient id="uuid-c8629d79-ebc5-48f1-9595-584f366a97b4" x1="415.43" y1="179.7" x2="482.15" y2="142.77" gradientUnits="userSpaceOnUse"><stop offset="0" stop-color="#f6f2f0"/><stop offset=".12" stop-color="#e1dedc"/><stop offset=".38" stop-color="#adaaa9"/><stop offset=".73" stop-color="#5b5958"/><stop offset="1" stop-color="#191818"/></linearGradient><linearGradient id="uuid-eb6cfffd-c20c-497c-82f9-6a6bd8c14f1b" x1="413.31" y1="201.44" x2="466.09" y2="190.88" gradientUnits="userSpaceOnUse"><stop offset="0" stop-color="#f6f2f0"/><stop offset=".12" stop-color="#e1dedc"/><stop offset=".38" stop-color="#adaaa9"/><stop offset=".73" stop-color="#5b5958"/><stop offset="1" stop-color="#191818"/></linearGradient><radialGradient id="uuid-f581f84e-218b-4a3e-a44f-be012e14d27d" cx="280.42" cy="103.44" fx="280.42" fy="103.44" r="22.05" gradientTransform="matrix(-.997 -.083 -.098 .845 1691.09 137.42)" gradientUnits="userSpaceOnUse"><stop offset="0" stop-color="#fdec51"/><stop offset=".17" stop-color="#f8e54d"/><stop offset=".39" stop-color="#ebd545"/><stop offset=".64" stop-color="#d6b937"/><stop offset=".91" stop-color="#b89224"/><stop offset=".99" stop-color="#af861e"/></radialGradient><radialGradient id="uuid-f516a50e-0b03-4af3-8a26-6dd7465ce903" cx="1392.52" cy="212.96" fx="1392.52" fy="212.96" r="22.05" gradientTransform="matrix(.997 -.083 .098 .845 -84.22 137.42)" xlink:href="#uuid-f581f84e-218b-4a3e-a44f-be012e14d27d"/><radialGradient id="uuid-6cde7f4a-93e9-4f0b-bd28-6cdffba48629" cx="470.86" cy="4.26" fx="470.86" fy="4.26" r="15.96" gradientTransform="rotate(-19.4 854.23 490.54)" xlink:href="#uuid-f581f84e-218b-4a3e-a44f-be012e14d27d"/><radialGradient id="uuid-e80980d5-e79c-445e-a3cd-855a96d14771" cx="1052.51" cy="-46.43" fx="1052.51" fy="-46.43" r="12.77" gradientTransform="rotate(150.3 710.7 3.76)scale(1 -1)" xlink:href="#uuid-f581f84e-218b-4a3e-a44f-be012e14d27d"/><style>.uuid-c8b56749-fb1e-4e89-8ec1-3ddac7919578{stroke-width:1.01px;stroke-miterlimit:10}.uuid-379e49f0-ad73-492a-858a-b986b3dd289c,.uuid-3ab4b3aa-f9e2-4e9b-ae81-1cd87d0ffe26,.uuid-5a4d0f21-1ac1-48fa-ac73-88de00517cd0,.uuid-7bab4f4b-7a45-43c6-85cb-4784853e0979,.uuid-fc40ed59-a12c-48da-9d8b-55083002808f{stroke-miterlimit:10}.uuid-379e49f0-ad73-492a-858a-b986b3dd289c,.uuid-3ab4b3aa-f9e2-4e9b-ae81-1cd87d0ffe26,.uuid-7bab4f4b-7a45-43c6-85cb-4784853e0979,.uuid-c8b56749-fb1e-4e89-8ec1-3ddac7919578{stroke:#292425}.uuid-379e49f0-ad73-492a-858a-b986b3dd289c,.uuid-5a4d0f21-1ac1-48fa-ac73-88de00517cd0,.uuid-7bab4f4b-7a45-43c6-85cb-4784853e0979,.uuid-c8b56749-fb1e-4e89-8ec1-3ddac7919578,.uuid-fc40ed59-a12c-48da-9d8b-55083002808f{fill:none}.uuid-7bab4f4b-7a45-43c6-85cb-4784853e0979{stroke-width:21.8px}.uuid-47712697-7eca-4b21-a6af-d72db275f2ab{fill:#292425;stroke-width:0}.uuid-025dd18d-bea7-4cdf-8275-099d05e95b79,.uuid-0ba817ec-f5da-4b66-892f-4121c2ecd68a,.uuid-190d8858-d0b9-43af-b38e-6abd03cd1417,.uuid-33ee5cdb-decd-4aac-baf1-87d29b836214,.uuid-36e18139-2235-4954-8e5e-fc8719af4166,.uuid-46c53e86-3891-4e8e-8fb1-af1474603c85,.uuid-556144b6-df9b-4195-a189-5a0bf8352ed3,.uuid-a0b720a0-d7e3-4940-b700-f01c7732b020,.uuid-d7d9736f-591c-49a6-b022-a7f46e30e5b5{stroke-width:0}.uuid-d7d9736f-591c-49a6-b022-a7f46e30e5b5{fill:#ffc5de}.uuid-3ab4b3aa-f9e2-4e9b-ae81-1cd87d0ffe26{fill:#000;stroke-linecap:round;stroke-width:17px}.uuid-556144b6-df9b-4195-a189-5a0bf8352ed3{fill:#fbb03b}.uuid-46c53e86-3891-4e8e-8fb1-af1474603c85{fill:#4c4345}.uuid-5a4d0f21-1ac1-48fa-ac73-88de00517cd0,.uuid-fc40ed59-a12c-48da-9d8b-55083002808f{stroke:#191818}.uuid-fc40ed59-a12c-48da-9d8b-55083002808f{stroke-width:2.94px}.uuid-33ee5cdb-decd-4aac-baf1-87d29b836214{fill:#191818}.uuid-025dd18d-bea7-4cdf-8275-099d05e95b79{fill:#ff922b}.uuid-190d8858-d0b9-43af-b38e-6abd03cd1417{fill:#9b808f}.uuid-379e49f0-ad73-492a-858a-b986b3dd289c{stroke-width:3.1px}.uuid-5a4d0f21-1ac1-48fa-ac73-88de00517cd0{stroke-width:2.44px}.uuid-0ba817ec-f5da-4b66-892f-4121c2ecd68a{fill:#ebebeb}.uuid-a0b720a0-d7e3-4940-b700-f01c7732b020{fill:#4f4444}.uuid-36e18139-2235-4954-8e5e-fc8719af4166{fill:#f6f2f0}</style></defs><path class="uuid-0ba817ec-f5da-4b66-892f-4121c2ecd68a" d="M0 0h1680v1000H0z" id="uuid-aee849db-b760-4c6d-9021-54f4eaec7205"/><g id="uuid-b771b801-b2cf-4c13-96b7-e56baef48d62"><path class="uuid-0ba817ec-f5da-4b66-892f-4121c2ecd68a" d="M1480.79 972.28c-8.74-4.88-14.39-12.69-14.39-21.47 0-13.84 14.04-25.23 32.11-26.62h.12q1.78-.01 3.56-.12c19.75 0 35.79 11.98 35.79 26.75s-16.04 26.78-35.79 26.78a44 44 0 0 1-21.41-5.31Z"/><path class="uuid-47712697-7eca-4b21-a6af-d72db275f2ab" d="M1489.97 485.18c11.89 8.18 13.54 21.74 12.73 44.69l-.5-.03c-19.25-16.49-57.05 16.46-57.02 39.23h-.28c-.41-4.26-1-7.88-1.9-10.38l-.06-.25a9 9 0 0 0-.97-1.95c-33.74-50.07-19.29-100.5-18.57-136.49.31-16.25-26.06-23.97-26.06-37.16 0-40.46 62.16-36.82 62.16-48.31 11.92 26.13 36.08 79.28 30.46 150.63Z"/><path class="uuid-0ba817ec-f5da-4b66-892f-4121c2ecd68a" d="m1502.2 529.84.5.03c-.69 19.77-3.21 46.55-2.62 82.87-.72-21.71-12.51-38.92-26.93-38.92s-26.96 18.35-26.96 41.02c-.91-8.99.06-31.1-1.28-45.77h.28c-.03-22.76 37.76-55.72 57.02-39.23Z"/><path class="uuid-0ba817ec-f5da-4b66-892f-4121c2ecd68a" d="M1500.08 612.74q.02 1.05.03 2.1c0 22.67-12.08 41.05-26.96 41.05s-26.96-18.38-26.96-41.05 12.08-41.02 26.96-41.02 26.21 17.2 26.93 38.92"/><path class="uuid-0ba817ec-f5da-4b66-892f-4121c2ecd68a" d="M1464.47 922.52c13.39 1.05 23.9 1.91 34.05 1.67-18.07 1.39-32.11 12.79-32.11 26.62 0 8.77 5.65 16.59 14.39 21.47-36.92 1.27-62.01-6.61-73.71-13.25-15.42 2.01-106.67 1.24-123.89-4.63 0-16.74-16.04-30.33-35.79-30.33s-35.79 13.59-35.79 30.33a299 299 0 0 1-7.68-49.36 280 280 0 0 1 2.65-61.99 337 337 0 0 1 7.49-35.64c49.34 67.24 15.51-23.69 56.17-37.96 29.4-10.32 33.08-38.82 32.71-54.82 3.21 17.17 13.61 29.74 25.9 29.74 14.89 0 26.96-18.38 26.96-41.05 0 0 4.59-30.67-8.52-59.73-5.06-11.18-10.7-26.13-15.76-43.36-8.08-27.49-14.7-60.88-15.17-94.23-.75-54.27 20.44-93.09 9.61-122.31-5.31-14.33-41.54-27.7-50.21-27.37 3.37-5.47 6.3-10.41 8.27-15.29 9.74-23.97 1.47-40.58 0-67.98 1.72-13.28 25.34-41.88 38.95-42.99 13.61-1.08 13.98-13.16 17.32-32.18 3.31-19.03 40.63-21.22 48.4 0s28.21 27.09 38.14 32.18c9.86 5.1 20.69 25.45 31.11 27.15-.62 29.47-11.2 46.92-2.81 67.42 1.09 2.66 2.59 5.96 4.37 9.88v.03c0 11.49-62.16 7.85-62.16 48.31 0 13.19 26.37 20.91 26.06 37.16-.72 35.98-15.17 86.42 18.57 136.49q.53.79.97 1.95l.06.25c.91 2.5 1.5 6.12 1.9 10.38 1.34 14.67.37 36.79 1.28 45.77 0 22.67 12.08 41.05 26.96 41.05.28 34.22-3.62 64.09 0 78.7 3.65 14.61 50.03 77.09-8.68 187.94Z"/><path class="uuid-d7d9736f-591c-49a6-b022-a7f46e30e5b5" d="M1467.28 112.88c1.97 25.11-.06 42.81-2.18 62.67q0 .06-.03.12c-.37 1.39-3.62 12.45-12.23 17.54h-.03a91.6 91.6 0 0 0-35.42-38.02h-.03a94 94 0 0 0-10.92-5.59c-3.93-5.53-3.53-15.13 0-17.94 12.61-11.03 18.85-27.4 21.35-33.63 4.84-12.17 36.17-27.8 39.51 14.86Z"/><path class="uuid-47712697-7eca-4b21-a6af-d72db275f2ab" d="M1452.83 193.21c8.61-5.1 11.86-16.15 12.23-17.54-1.65 15.69-3.4 32.77-3.25 55.97a86 86 0 0 0-9.02-38.42h.03Z"/><path class="uuid-025dd18d-bea7-4cdf-8275-099d05e95b79" d="M1457.95 257.21c-10.42-1.7-21.25-22.05-31.11-27.15-9.92-5.1-30.36-10.96-38.14-32.18-7.77-21.22-45.09-19.03-48.4 0-3.34 19.03-3.71 31.1-17.32 32.18-13.61 1.11-37.23 29.71-38.95 42.99a86.6 86.6 0 0 1-10.42-36.72c21.66-11.3 19.16-41.2 21.22-47.78q.3-.93 1.72-2.22c8.99-8.46 49-28.04 53.4-43.09q2.72-.51 5.49-.83a93 93 0 0 1 18.85-.52c.06 7.01 27.09 22.55 43.07 13.31h.03a91.6 91.6 0 0 1 35.42 38.02 86 86 0 0 1 9.02 38.42c0 9.14-1.22 17.57-3.71 25.6q-.07-.02-.16-.03Z"/><path class="uuid-47712697-7eca-4b21-a6af-d72db275f2ab" d="M1406.43 149.6a93 93 0 0 1 10.92 5.59c-15.98 9.23-43-6.3-43.07-13.31q2.75.15 5.46.53a95 95 0 0 1 26.68 7.2Z"/><path class="uuid-47712697-7eca-4b21-a6af-d72db275f2ab" d="M1406.43 131.66c-3.53 2.81-3.93 12.42 0 17.94a95 95 0 0 0-26.68-7.2v-.03c11.05-.31 19.82-4.73 26.68-10.72Z"/><path class="uuid-0ba817ec-f5da-4b66-892f-4121c2ecd68a" d="M1347.29 643.59c13.11 29.06 8.52 59.73 8.52 59.73 0-22.64-12.08-41.02-26.96-41.02s-26.96 18.38-26.96 41.02c-.31-14.39-7.68-41.45-18.91-60.85 8.77 9.67 31.24 0 31.24-12.08s17.32-30.18 17.32-30.18c5.06 17.23 10.7 32.18 15.76 43.36Z"/><path class="uuid-47712697-7eca-4b21-a6af-d72db275f2ab" d="M1349.94 143.24a94 94 0 0 0-18.94 5.47c7.02-10.35.59-26.01.03-27.27 6.18 12.35 12.05 21.19 24.4 20.97q-2.77.32-5.49.83"/><path class="uuid-0ba817ec-f5da-4b66-892f-4121c2ecd68a" d="M1328.84 662.31c14.89 0 26.96 18.38 26.96 41.02s-12.08 41.05-26.96 41.05c-12.3 0-22.69-12.57-25.9-29.74-.16-6.76-1.06-11.3-1.06-11.3 0-22.64 12.08-41.02 26.96-41.02Z"/><path class="uuid-47712697-7eca-4b21-a6af-d72db275f2ab" d="M1331 148.7a95 95 0 0 1 18.94-5.47c-4.4 15.04-44.41 34.62-53.4 43.09l-6.96-5a93.4 93.4 0 0 1 41.41-32.62Z"/><path class="uuid-d7d9736f-591c-49a6-b022-a7f46e30e5b5" d="M1331.03 121.43c.56 1.27 6.99 16.93-.03 27.27a93.3 93.3 0 0 0-41.41 32.62 61 61 0 0 0-3.37 5.16l-.03-.03s-11.61-23.47-12.76-34.04c.31-15.91 1.97-31.72 4.84-43.46 6.24-25.85 19.88-41.57 36.92-16.86 7.02 10.19 11.48 20.57 15.82 29.25q.04.05.03.09Z"/><path class="uuid-47712697-7eca-4b21-a6af-d72db275f2ab" d="M1316.36 505.99c.47 33.36 7.08 66.74 15.17 94.23 0 0-17.32 18.1-17.32 30.18s-22.47 21.74-31.24 12.08c-6.12-10.56-13.39-18.87-21.25-21.65h-.03q-.14-7.65-.56-15.38v-.09c-2.4-44.14-10.61-89.51-13.82-132.9-4.84-65.05 15.2-94.63 28.46-116.13 8.68-.34 44.91 13.03 50.21 27.37 10.83 29.22-10.36 68.04-9.61 122.31Z"/><path class="uuid-025dd18d-bea7-4cdf-8275-099d05e95b79" d="M1302.94 714.63c.37 16-3.31 44.51-32.71 54.82-40.66 14.27-6.83 105.2-56.17 37.96 8.18-30.7 20.04-60.23 32.52-90.59 6.37-15.54 10.36-31.66 12.67-48.24v-.03c2.15-15.57 2.78-31.53 2.43-47.72h.03c7.86 2.78 15.14 11.09 21.25 21.65 11.23 19.4 18.6 46.45 18.91 60.85 0 3.92.37 7.72 1.06 11.3Z"/><path class="uuid-47712697-7eca-4b21-a6af-d72db275f2ab" d="m1289.59 181.32 6.96 5a6 6 0 0 0-1.72 2.22c-2.06 6.58.44 36.48-21.22 47.78a86.32 86.32 0 0 1 12.61-49.84 61 61 0 0 1 3.37-5.16"/><path class="uuid-47712697-7eca-4b21-a6af-d72db275f2ab" d="m1286.18 186.45.03.03a85 85 0 0 0-7.96 16.83c-3.71-12.54-5.24-31.81-4.84-50.9 1.15 10.56 12.76 34.04 12.76 34.04Z"/><path class="uuid-0ba817ec-f5da-4b66-892f-4121c2ecd68a" d="M1247.39 924.07c19.75 0 35.79 13.59 35.79 30.33s-16.04 30.33-35.79 30.33-35.79-13.59-35.79-30.33 16.01-30.33 35.79-30.33"/><path class="uuid-47712697-7eca-4b21-a6af-d72db275f2ab" d="M1261.69 620.83c.34 16.18-.28 32.15-2.43 47.72v.03c-21.53 31.35-81.54 96.43-52.68 174.48a279 279 0 0 0-2.65 61.99l-.66.03c-21.1-14.18-47.75-83.79-27.37-156.78 17.54-62.76 78.83-88.89 85.23-142.85q.42 7.74.56 15.38M1465.09 175.53c-.97 7.25-5.33 14.73-12.26 17.68 5.63-4.78 9.14-11.03 12.26-17.68M1406.41 131.65c-3.3 4.93-2.17 12.71 0 17.94-4.25-4.09-5.29-14.33 0-17.94M1330.99 121.33c4.43 8.14 6.29 19.71 0 27.37 4.21-8.66 2.3-18.44 0-27.37"/><path class="uuid-47712697-7eca-4b21-a6af-d72db275f2ab" d="M1457.96 257.18c9.81-37.33-4.78-75.55-35.94-97.97-50.59-36.85-127.09-10.26-144.02 49.93-6.15 21.43-3.66 44.89 6.68 64.77l-.27.15a84.5 84.5 0 0 1-12.13-43.13c-.63-47.79 39.37-86.71 86.15-89.73 45.57-3.68 93.15 24.84 102.48 71.33 3.02 14.79 2.32 30.49-2.66 44.74z"/><path class="uuid-c8b56749-fb1e-4e89-8ec1-3ddac7919578" d="M1278.25 203.32c-6.79-23.03-6.26-68.53 0-94.37s19.89-41.57 36.91-16.85c17.03 24.72 19.18 50.68 40.27 50.31M1379.76 142.37c31.31-.86 44.16-34.71 48.01-44.35 4.85-12.16 36.17-27.78 39.52 14.86 3.53 45.03-5.82 66.14-5.47 118.74"/><path class="uuid-47712697-7eca-4b21-a6af-d72db275f2ab" d="M1284.04 273.05c.79 14.62 4.65 28.83 5.06 43.49.1 7.33-.92 14.73-3.4 21.67-2.36 7-6.2 13.35-9.96 19.58-7.66 12.36-14.88 25.04-19.41 38.89-9.48 27.62-9.63 57.27-6.81 86.09 4.02 43.61 11.78 86.76 13.54 130.65 1.09 30.18-.9 60.81-10.04 89.77-2.91 9.17-7.25 19.22-10.89 28.16a1170 1170 0 0 0-15.73 40.77c-13.23 36.74-22.32 75.36-22.47 114.55-.13 22.8 2.84 45.46 7.69 67.73l-2.37-10.68c-.32-1.38-1.21-5.49-1.48-6.68l-.66-4.05-1.74-10.81c-.33-1.8-.47-3.62-.67-5.43l-.56-5.45c-.97-7.71-1.05-15.49-1.45-23.24l.02-1.37c-.78-54.29 16.61-106.65 36.9-156.34 3.94-9.83 8.6-20.47 11.49-30.59 8.35-27.85 9.95-57.27 8.87-86.2-1.6-43.67-9.24-86.98-13.11-130.53-2.8-29.03-2.18-59.18 7.63-86.97 4.7-13.9 12.13-26.73 19.97-39.04 3.86-6.18 7.72-12.35 10.15-19.18a61 61 0 0 0 3.68-21.28c-.2-14.56-3.79-28.92-4.24-43.5Z"/><path class="uuid-47712697-7eca-4b21-a6af-d72db275f2ab" d="M1283.35 954.4c.07 18.6-18.03 32.49-35.96 31.69a41.4 41.4 0 0 1-21.9-7.04c-17.68-11.63-20.37-34.57-3.28-48.15 21.86-17.74 60.17-6.83 61.14 23.5m-.33 0c-.09-8.81-4.94-16.52-12.07-21.42-16.88-11.87-44.18-9.02-54.99 9.58-4.26 7.21-4.66 16.56-.67 24.05 10.41 19.58 38.83 21.09 55.7 9.26 7.13-4.95 11.97-12.61 12.04-21.46ZM1538.14 950.83c-.02 8.47-5.17 16.2-11.97 21-13.91 9.93-33.75 8.9-47.69-.39-16.72-10.92-17.43-30.83-.52-42.01 14.23-9.3 34.28-9.5 48.24.37 6.79 4.83 11.97 12.55 11.95 21.04Zm-.31 0c-.1-8.44-5.66-15.31-12.75-19.33-10.42-5.86-23.14-7.21-34.66-4.24-11.17 2.74-22.57 11.27-23.17 23.57-.37 12.65 11.45 21.94 22.97 24.29 17.3 4.24 46.83-2.87 47.61-24.29"/><path class="uuid-025dd18d-bea7-4cdf-8275-099d05e95b79" d="M1284.04 273.05c1.84-14.21 23.68-41.69 38.31-44.04.75-.12 2.16-.32 2.86-.44 2.66-.65 5.12-1.98 6.73-4.18 4.41-6.37 4.7-14.63 6.13-22.19l.64-3.94c2.87-16.68 24.94-20.22 38.24-14.33 5.84 2.48 10.88 7.21 13.04 13.27.36.9 1.12 2.68 1.48 3.58a41 41 0 0 0 2.8 5.04c3.49 5.43 8.32 9.88 13.74 13.45 5.41 3.58 11.61 6.32 17.53 9.14 8.64 4.15 13.68 12.86 20 19.6 3.56 3.76 7.29 8.06 12.57 9.22-9.08-1.46-17.48-14.13-24.07-20.27-2.76-2.79-5.69-5.38-9.3-6.88-11-4.77-22.64-9.74-30.34-19.44l-1.29-1.6-1.15-1.71a43 43 0 0 1-3.07-5.35c-.51-1.21-1.83-4.22-2.36-5.46-4.53-9.24-15.84-12.97-25.64-12.06-8.44.64-17.97 5.21-19.24 14.3-1.21 6.56-2.03 13.15-3.95 19.69-.83 2.61-1.89 5.26-3.72 7.54a14 14 0 0 1-9.33 5.02c-4.58.24-8.58 2.26-12.32 4.9-10.69 7.68-25.43 24.16-28.28 37.13Z"/><path class="uuid-47712697-7eca-4b21-a6af-d72db275f2ab" d="M1457.95 257.18c.33 14.7-3.12 29.17-4.62 43.69-.4 4.81-.43 9.63.42 14.31.8 4.7 2.58 9.08 4.62 13.52 5.14 10.99 10.3 22.33 14.65 33.69a284 284 0 0 1 16.59 65.93c.35 3.52.88 9.31 1.22 12.83q.87 14.7.28 29.4-.53 7.34-1.15 14.63c.9-19.54-.04-39.1-3-58.34-4.96-33.84-16.74-66.09-31.06-97.02-1.43-3.36-3-6.9-3.8-10.54-2.76-10.97-.43-22.32 1.7-33.13 2-9.55 3.6-19.22 4.15-28.96ZM1261.71 620.82c22.71 7.11 36.83 48.92 39.6 70.57.48 3.96.8 7.97.58 11.94-1.49-11.8-4.87-23.16-8.77-34.32-5.73-15.61-15.83-40.66-31.41-48.19"/><path class="uuid-47712697-7eca-4b21-a6af-d72db275f2ab" d="M1355.7 703.34a51.7 51.7 0 0 0-6.64-25.67c-6.74-12-19.9-19.54-32.21-10.25-17.28 13.71-17.7 43.19-7.88 61.41 4.88 9.35 15.23 17.37 26.05 13.18 14.39-6.13 20.57-23.91 20.68-38.68Zm.23 0c.15 16.92-6.87 41.28-27.08 42.28-9.76.06-17.62-7.58-21.81-15.74-9.89-18.88-7.34-48.91 9-63.47 12.86-10.72 27.86-3.09 34.31 10.57 4.05 8.18 5.53 17.33 5.59 26.36Z"/><path class="uuid-47712697-7eca-4b21-a6af-d72db275f2ab" d="M1275.75 356.33c4.03-.03 7.97 1.12 11.83 2.2a116 116 0 0 1 22.27 9.33c6.13 3.52 12.53 7.53 16.14 13.83 8.38 19.25 1.97 43.09-1.45 62.92-3.62 18.65-6.57 37.48-6.67 56.49.04 37.03 6.99 73.8 17.98 109.1 4.05 13.47 9.5 26.41 14.75 39.43 3.39 9.51 5.22 19.58 5.94 29.61.54 8.04.41 16.13-.73 24.09 1.77-19.95-.92-40.36-9.04-58.65-11.66-25.69-20-52.83-25.47-80.49-4.21-21.75-6.9-43.95-6.38-66.16.47-26.23 6.98-51.97 11.43-77.57 1.81-11.73 2.92-23.92-.8-35.33-3.46-13.42-36.9-27.98-49.8-28.82Z"/><path class="uuid-47712697-7eca-4b21-a6af-d72db275f2ab" d="M1282.97 642.48c8.53 7.76 27.9-.23 29.64-11.09.03-.67.24-2.89.31-3.59l.57-2.47c3.33-9.94 10.44-18.18 18.04-25.1-5.93 8.13-12.17 16.28-15.16 25.91l-.46 2.14-.16 2.11c-.13 13.7-24.12 23.11-32.78 12.09M1500.04 614.84c-.08-13.2-4.45-27.36-14.9-35.89a18.9 18.9 0 0 0-24.13-.2c-17.13 13.92-17.9 43.38-8.06 61.75 3.14 5.75 7.75 10.94 13.9 13.36 11.03 4.41 21.6-3.82 26.7-13.26 4.43-7.79 6.41-16.84 6.48-25.77Zm.15 0c.2 16.64-7.25 40.97-27.04 41.83-9.61.06-17.33-7.44-21.49-15.47-9.87-18.79-7.7-48.69 8.81-63.13 12.75-10.47 27.47-2.86 33.96 10.52 4.12 8.1 5.71 17.23 5.76 26.25"/><path class="uuid-47712697-7eca-4b21-a6af-d72db275f2ab" d="M1489.96 485.17c10.3 5.94 13.39 18.3 13.99 29.4.92 16.25-.74 33.98-1.54 50.22a2253 2253 0 0 0-2.29 50.05c-2.21-27.82-.49-55.76 1.07-83.56.41-15.73 2.77-35.35-11.23-46.11M1458.97 332.6c3.62 6.43-11.1 9.33-15.17 10.89-15.76 4.99-34.76 10.04-42.54 26.05-2.04 4.51-3 9.64-2.57 14.58.93 4.91 4.96 8.31 8.62 11.63 5.29 4.66 11.19 8.82 14.98 15.05a18 18 0 0 1 2.55 10.78c-.09 3.51-.31 7.01-.56 10.49-1.61 20.71-4.29 41.53-2.42 62.24 1.65 21.49 8.46 42.57 20.24 60.66 3.47 5.24 3.34 12.08 3.85 18.1.31 6.98.24 13.95.17 20.91-.02 5.73-.32 15.11.08 20.86-.74-6.93-.71-13.91-.89-20.86-.15-6.95-.32-13.91-.85-20.82-.28-3.45-.59-6.9-1.25-10.25-.48-2.5-1.16-4.89-2.67-6.9-12.41-18.15-19.75-39.56-21.59-61.44-2.01-20.99.58-41.89 2.32-62.73.82-13.04 2.58-17.45-7.93-27.19-5.87-5.87-15.53-11.34-17.08-20.17a31.4 31.4 0 0 1 9.36-24.56c10.34-9.99 24.58-13.56 37.97-17.22 4.08-1.42 18.75-3.78 15.4-10.1Z"/><path class="uuid-a0b720a0-d7e3-4940-b700-f01c7732b020" d="M1464.31 495.33c-15.24 3.61-18.56 23.2-19.69 36.51-.76 8.95-.93 17.87-1.5 26.85h-.23a115 115 0 0 1-1.19-18.02c.48-13.32 3.29-33.19 14.31-41.94a18 18 0 0 1 8.26-3.61l.04.23Z"/><path class="uuid-a0b720a0-d7e3-4940-b700-f01c7732b020" d="M1455.82 480.35c-22.58 6.84-18.79 38.53-16.27 56.87.96 7.15 2.21 14.28 3.56 21.43l-.22.07a118 118 0 0 1-5.63-21.14c-2.43-15.7-3.79-40.77 8.84-52.45a22 22 0 0 1 9.67-5l.06.23ZM1489.96 485.17c-2.67-1.78-3.84-5.08-5.13-7.88a93 93 0 0 1-3.1-8.93c-5.06-18.11-8.15-36.83-8.57-55.64 3.03 14.23 6.18 31.6 9.02 45.9a261 261 0 0 0 4.08 18.17c.91 2.89 1.53 6.14 3.7 8.37Z"/><path class="uuid-379e49f0-ad73-492a-858a-b986b3dd289c" d="M1473.15 655.88c.28 34.23-3.64 64.1 0 78.7s50 77.09-8.68 187.95"/><path class="uuid-47712697-7eca-4b21-a6af-d72db275f2ab" d="M1283.18 954.4c5.04 1.2 10.22 1.5 15.36 1.89 10.31.7 20.64 1.05 30.97 1.37 22.48.65 47.3 1.27 69.81 1.5 2.59 0 5.18.02 7.76-.12-2.55.47-5.14.75-7.73.98-18.09 1.55-36.28 1.55-54.42 1.17-15.55-.47-31.13-1.25-46.56-3.4-5.12-.81-10.34-1.55-15.2-3.4ZM1407.09 959.03c23.37 9.72 48.76 11.59 73.75 13.25-23.44 2.9-53.7.04-73.75-13.25"/><path class="uuid-379e49f0-ad73-492a-858a-b986b3dd289c" d="M1502.19 924.08c-11.33.59-22.71-.38-37.71-1.55"/><path class="uuid-47712697-7eca-4b21-a6af-d72db275f2ab" d="M1407.09 959.03c-11.29-6.55-15.16-20.52-8.35-31.76-1.93 13.59.17 20.82 8.35 31.76M1464.47 924.08c-3.96-.27-7.86-.61-11.78-.77-3.89-.09-7.88-.36-11.66.76 3.62-1.62 7.71-1.89 11.62-2.31 3.95-.36 7.91-.54 11.81-.79v3.1ZM1211.59 803.98c5.41 6.45 19.13 25.81 26.9 26.84 4.95.16 5.58-13.41 6.42-17.3 1.17-8.05 2.37-16.18 5.17-23.91 3.05-8.85 9.02-17.38 18.03-20.95 2.59-.99 5.78-2.2 8.25-3.47 22.53-11.06 28.42-38.8 25.52-61.86 4.89 23.79-.83 52.53-24.17 64.47-2.54 1.36-5.77 2.6-8.45 3.64-12.18 5.03-17.04 18.61-19.53 30.65-2.15 8.88-2.26 18.25-5.77 26.85-4.63 9.7-13.92-.63-18.02-5.4a211 211 0 0 1-14.36-19.56ZM1445.18 569.06c-1.43-21 26.89-48.42 48.09-44.14 3.41.75 6.59 2.45 8.92 4.9-5.51-3.93-12.46-4.28-18.74-2.4-16.53 4.97-36.07 24.06-38.27 41.63Z"/><path class="uuid-379e49f0-ad73-492a-858a-b986b3dd289c" d="M1349.93 143.21c-4.8 16.62-53.07 38.75-55.11 45.33-2.05 6.58.43 36.47-21.22 47.78M1374.29 141.86c0 7.01 27.06 22.6 43.1 13.34"/><path class="uuid-47712697-7eca-4b21-a6af-d72db275f2ab" d="M1203.26 905.06c-5.85-3.88-10.16-9.68-13.86-15.55a120 120 0 0 1-9.38-18.78c-15.26-39.27-16.72-83.58-5.24-124.05 7.71-27.33 25.74-50.08 44.34-70.81 9.22-10.45 18.58-20.8 26.33-32.31 7.86-11.44 13.76-24.36 15.68-38.2l-.68 5.19a80 80 0 0 1-4.17 15.15c-13.09 32.8-42.27 55.35-60.92 84.59-7.59 11.54-13.85 23.99-17.6 37.26-11.32 39.84-10.44 83.57 3.67 122.64 2.4 6.5 5.17 12.9 8.67 18.9 3.51 5.95 7.53 11.84 13.16 15.98Z"/><path class="uuid-47712697-7eca-4b21-a6af-d72db275f2ab" d="M1206.57 843.04c-19.76-47.33-3.88-95.91 23.9-136.23 8.9-13.29 19.09-25.57 28.76-38.27-4.25 6.75-8.97 13.2-13.45 19.78-32.95 46.09-58.28 97.4-39.22 154.71ZM1273.35 149.96c.61 6.45 3.46 12.4 5.67 18.42 2.38 6.01 4.89 11.98 7.18 18.08-5.25-8.87-13.81-26.27-12.85-36.5"/><path class="uuid-d7d9736f-591c-49a6-b022-a7f46e30e5b5" d="M1363.63 235.91c18.55-7.05 13.54-17.18.79-11.98-.75.31-1.72.32-2.47.02-12.72-5.01-18.68 5.21-.26 11.98.57.21 1.36.2 1.93-.01Z"/><path d="M1379.08 199.45c-1.15 9.85 8.13 18.69 20.73 19.74s24.87-15.93 24.87-15.93-8.13-18.69-20.73-19.74-23.73 6.08-24.87 15.93" stroke-width="0" fill="url(#uuid-f581f84e-218b-4a3e-a44f-be012e14d27d)"/><path class="uuid-33ee5cdb-decd-4aac-baf1-87d29b836214" d="M1379.08 199.45c-1.21 11.09 10.2 18.69 20.17 19.23 7.84.63 14.45-4.94 19.68-10.15a57 57 0 0 0 5-5.81l-.1.92a53 53 0 0 0-3.67-6.69c-3.41-5.2-7.71-10.51-13.83-12.45-10.78-2.7-25.58 2.81-27.25 14.97Zm0 0c1.7-12.27 16.41-18.22 27.53-15.98 9.15 2.63 14.93 11.29 18.93 19.42l.23.49-.33.43c-6.19 7.8-15.52 16.96-26.28 15.77-10.09-1.05-21.31-8.98-20.08-20.12Z"/><path class="uuid-47712697-7eca-4b21-a6af-d72db275f2ab" d="M1392.56 198.53c-.05 5.01 6.07 9.09 6.07 9.09s6.19-4.04 6.24-9.04c.05-5.01-6.07-9.09-6.07-9.09s-6.19 4.04-6.24 9.04"/><ellipse class="uuid-36e18139-2235-4954-8e5e-fc8719af4166" cx="1403.88" cy="195.16" rx="2.52" ry="1.57"/><path d="M1345.27 199.4c1.15 9.85-8.13 18.69-20.73 19.74s-24.87-15.93-24.87-15.93 8.13-18.69 20.73-19.74 23.73 6.08 24.87 15.93" stroke-width="0" fill="url(#uuid-f516a50e-0b03-4af3-8a26-6dd7465ce903)"/><path class="uuid-33ee5cdb-decd-4aac-baf1-87d29b836214" d="M1345.27 199.4c1.22 11.15-9.99 19.07-20.08 20.12-10.76 1.19-20.09-7.97-26.28-15.77l-.33-.43.23-.49c4-8.13 9.78-16.79 18.93-19.42 11.12-2.24 25.83 3.71 27.53 15.98Zm0 0c-1.67-12.16-16.47-17.66-27.25-14.97-6.12 1.94-10.41 7.26-13.83 12.45a52 52 0 0 0-3.67 6.69l-.1-.92a56 56 0 0 0 5 5.81c5.23 5.22 11.84 10.78 19.68 10.15 9.97-.53 21.39-8.14 20.17-19.23Z"/><path class="uuid-47712697-7eca-4b21-a6af-d72db275f2ab" d="M1330.01 198.31c.03 5.14-6.1 9.31-6.1 9.31s-6.18-4.15-6.21-9.28c-.03-5.14 6.1-9.31 6.1-9.31s6.18 4.15 6.21 9.28"/><path class="uuid-36e18139-2235-4954-8e5e-fc8719af4166" d="M1322.1 196.08c-.56.63-2.54.59-4.42-.1s-2.94-1.76-2.38-2.39 2.54-.59 4.42.1 2.94 1.76 2.38 2.39"/><path class="uuid-556144b6-df9b-4195-a189-5a0bf8352ed3" d="M60.28 617.02c-9.57 9.28-9.47 23.49.47 38.08 26.91 3.69 33.82-13.07 28.23-29.75l10.8-2.75c-14.31-18.47-31.07-13.74-39.51-5.59Z"/><path class="uuid-556144b6-df9b-4195-a189-5a0bf8352ed3" d="M88.99 625.36c5.59 16.67-1.33 33.44-28.23 29.75a68 68 0 0 0 8.43 10.14c17.91 17.91 1.89 39.88 28.8 63 26.81 23.21 36.09 55.61 83.65 60.82 1.14-3.32 1.89-5.21 1.89-5.21a133 133 0 0 1-.85-49.17c-22.36-7.39-52.96-22.45-67.74-78.06-4.26-15.73-9.47-26.72-15.16-34.01l-10.8 2.75ZM153.5 939.51c-10.14 3.03-17.05 9.38-17.05 16.77 0 10.42 13.93 18.76 31.17 18.76s31.07-8.34 31.07-18.76-13.93-18.85-31.07-18.85c-5.12 0-9.85.76-14.12 2.08"/><path class="uuid-556144b6-df9b-4195-a189-5a0bf8352ed3" d="M153.5 939.51c4.26-1.33 9-2.08 14.12-2.08 17.15 0 31.07 8.43 31.07 18.85 2.37-5.87 8.43-17.05 15.25-32.21l-4.55-2.27c-2.75-5.97-21.69-17.34-31.74-14.49l-4.83-1.52c-4.45 15.63-13.83 29.18-19.33 33.73Z"/><path class="uuid-556144b6-df9b-4195-a189-5a0bf8352ed3" d="M407.78 681.82c27.47-40.17 9.66-70.58 24.73-110.37 8.05-21.13 9.38-40.93 33.54-64.71 15.82-15.44 12.6-31.93 25.39-49.07-8.53 5.4-27.66 4.55-23.12-19.23l-9.47-3.51a30 30 0 0 1-3.69 6.44c-10.52 14.4-31.64 16.77-46.99 5.49-22.36-6.06-30.03-27.28-66.79 31.64-30.41 48.98-93.22 7.39-93.22 7.39l-20.08-6.06c-5.97 27.85-11.46 72.85-16.29 158.02-1.8 31.07-22.64 58.74-29.08 96.82a133 133 0 0 0 .85 49.17s-.76 1.89-1.89 5.21c-4.83 14.4-16.67 56.27-6.73 93.98 1.04 7.48 0 15.35-2.08 22.74l4.83 1.52c10.04-2.84 28.99 8.53 31.74 14.49l4.55 2.27a355 355 0 0 0 9.47-23.12c25.11-68.12 141.92-39.41 145.61-31.26 3.69 8.05-5.21 27.66-2.94 34.96 2.18 7.39 14.68 22.55 24.35 26.91 8.53 3.98 61.58 21.79 72.95 25.58-8.05-3.41-13.26-9.09-13.26-15.63 0-10.52 13.45-18.95 30.03-18.95-12.41-2.75-33.35-19.14-51.73-23.78 2.27-12.79 32.87-59.78 28.42-98.62-4.36-39.03 9.38-75.98-49.07-118.33Z"/><path class="uuid-0ba817ec-f5da-4b66-892f-4121c2ecd68a" d="M235.36 104.88c-12.6.47-19.23 6.54-14.59 23.31 6.25 22.64 28.61 41.02 38.75 66.03 16.67.47 31.55-54.28 19.8-68.78-14.31-6.73-33.92-21.03-43.96-20.56"/><path class="uuid-556144b6-df9b-4195-a189-5a0bf8352ed3" d="M422.46 387.86a35.6 35.6 0 0 1 23.97 7.01 36 36 0 0 1 8.81 9.28l20.37-11.08c-.38-15.73 5.21-20.08 11.37-23.87l-10.52-65.08c-8.34-50.97-33.82-38.65-37.33-43.77-3.41-5.21-6.73-30.88-8.62-70.96v-.19c.85-7.2.47-14.49-1.04-21.88-2.94-13.55-8.62-26.05-18.19-35.43.38-5.12-4.74-15.16-5.49-15.73-5.4 7.96-37.99-3.79-37.04-20.65-4.26 5.4-8.91 9.66-13.93 11.27-18.66 5.87-18.85 6.92-31.93 10.8-9.19 2.75-27.19 12.22-34.29 11.08-2.65-.38-5.78-1.61-9.28-3.22 11.75 14.49-3.13 69.25-19.8 68.78a69 69 0 0 1 2.94 8.91c.09.28.09.47.19.76a68.6 68.6 0 0 0 17.53 32.4c8.43 34.86-9.85 134.05-35.05 193.45-6.06 14.12-11.75 25.48-17.05 50.12l20.08 6.06s62.81 41.59 93.22-7.39c36.76-58.93 44.43-37.71 66.79-31.64-15.44-11.37-19.33-32.21-8.72-46.61a31.3 31.3 0 0 1 23.02-12.41Zm-39.6-186.35c-2.46 1.33-5.12 2.65-8.15 4.17-3.41 1.71-9.47-.76-9.47-.76 7.58-2.18 11.46-10.71 11.46-10.71.47-1.52.76-2.84.95-3.98 1.71-9-2.94-7.86-2.94-13.83 0-1.52.09-2.94.28-4.17-8.24-5.59-5.4-13.83 5.87-12.03q.43.14.85 0c.42-.14.57-.19.76-.19.28-.19.57-.38.85-.66 7.39-8.53 15.35-4.26 12.88 5.02 6.06 5.49 7.77 8.72 7.11 15.25 7.29 6.63 4.83 18 4.83 18a14.7 14.7 0 0 0-10.8-1.99c-4.17.76-8.72 2.94-14.49 5.87Z"/><path class="uuid-0ba817ec-f5da-4b66-892f-4121c2ecd68a" d="M368.75 95.5c-.95 16.86 31.64 28.61 37.04 20.65-.66-.57-1.23-47.27-1.04-55.8s-5.12-12.98-11.46-6.73c-4.74 4.45-13.07 27.47-24.54 41.87Z"/><path class="uuid-190d8858-d0b9-43af-b38e-6abd03cd1417" d="M365.24 204.92s6.06 2.46 9.47.76c3.03-1.52 5.68-2.84 8.15-4.17.28-4.07-2.56-8.81-5.21-11.27a29 29 0 0 1-.95 3.98s-3.88 8.53-11.46 10.71Z"/><path class="uuid-46c53e86-3891-4e8e-8fb1-af1474603c85" d="M380.87 160.2c-11.27-1.8-14.12 6.44-5.87 12.03.76-6.44 3.41-10.33 6.73-12.03q-.42.14-.85 0Z"/><path class="uuid-d7d9736f-591c-49a6-b022-a7f46e30e5b5" d="M375 172.23a28 28 0 0 0-.28 4.17c0 5.97 4.64 4.83 2.94 13.83 2.65 2.46 5.49 7.2 5.21 11.27 5.78-2.94 10.33-5.12 14.49-5.87 2.65-11.65 5.97-16.01 5.97-16.01.66-6.54-1.04-9.76-7.11-15.25-.85 3.32-3.03 7.2-6.82 11.37-.47.57-1.23.85-1.89.76-5.59-.76-9.66-2.37-12.51-4.26Z"/><path class="uuid-d7d9736f-591c-49a6-b022-a7f46e30e5b5" d="M381.72 160.2c-3.32 1.71-5.97 5.59-6.73 12.03 2.84 1.89 6.92 3.51 12.51 4.26.66.09 1.42-.19 1.89-.76 3.79-4.17 5.97-8.05 6.82-11.37-.66-.57-1.33-1.23-1.99-1.8-3.51-3.03-7.96-4.17-11.75-2.56-.19 0-.47.09-.76.19Z"/><path class="uuid-46c53e86-3891-4e8e-8fb1-af1474603c85" d="M383.33 159.35c-.28.28-.57.47-.85.66 3.79-1.61 8.24-.47 11.75 2.56.66.57 1.33 1.23 1.99 1.8 2.46-9.28-5.49-13.55-12.88-5.02Z"/><path class="uuid-190d8858-d0b9-43af-b38e-6abd03cd1417" d="M397.36 195.63c3.79-.66 7.2-.19 10.8 1.99 0 0 2.46-11.37-4.83-18 0 0-3.32 4.36-5.97 16.01"/><path class="uuid-556144b6-df9b-4195-a189-5a0bf8352ed3" d="M399.44 400.27c-10.61 14.4-6.73 35.24 8.72 46.61 15.35 11.27 36.47 8.91 46.99-5.49a29 29 0 0 0 3.69-6.44c4.07-9.95 2.65-21.51-3.6-30.79a35 35 0 0 0-8.81-9.28 35.6 35.6 0 0 0-23.97-7.01c-9 .66-17.43 4.93-23.02 12.41Z"/><path class="uuid-556144b6-df9b-4195-a189-5a0bf8352ed3" d="m475.61 393.07-20.37 11.08c6.25 9.28 7.67 20.84 3.6 30.79l9.47 3.51c-4.55 23.78 14.59 24.63 23.12 19.23a61 61 0 0 1 10.99-11.27c16.86-13.83 23.12-41.68 41.31-47.18-14.87.85-28.42-6.16-33.25-18.66-4.74-12.03-.19-25.67 10.33-35.15-8.24-10.23-18.57 21.32-33.82 23.78-6.16 3.79-11.75 8.15-11.37 23.87ZM463.96 957.32c4.64 1.99 10.23 3.03 16.2 3.03 16.58 0 30.03-8.43 30.03-18.85s-13.45-18.95-30.03-18.95-30.03 8.43-30.03 18.95c0 6.54 5.21 12.22 13.26 15.63.19.09.38.19.57.19"/><path class="uuid-556144b6-df9b-4195-a189-5a0bf8352ed3" d="M520.8 345.41c-10.52 9.47-15.06 23.12-10.33 35.15 4.83 12.51 18.38 19.52 33.25 18.66a21 21 0 0 1 7.01-1.04 44 44 0 0 0 6.63-1.99c19.52-7.67 30.22-27.09 23.87-43.39-6.44-16.29-27.47-23.31-46.99-15.63a46 46 0 0 0-13.45 8.24Z"/><path class="uuid-5a4d0f21-1ac1-48fa-ac73-88de00517cd0" d="M430.09 192.62a68 68 0 0 0-.61-25.32c-2.91-13.56-8.65-26.07-18.16-35.46M262.47 203.11a69 69 0 0 0 17.65 33.16"/><path class="uuid-5a4d0f21-1ac1-48fa-ac73-88de00517cd0" d="M411.32 131.83c.36-5.11-4.76-15.14-5.49-15.68s-1.28-47.23-1.09-55.8-5.11-12.95-11.49-6.75-19.84 47.17-38.46 53.13-18.86 6.96-31.93 10.88c-9.12 2.74-27.18 12.17-34.24 11.06-13.37-2.09-40.71-24.37-53.3-23.83s-19.2 6.58-14.59 23.34c7 25.47 34.44 45.59 41.94 75.73"/><path class="uuid-5a4d0f21-1ac1-48fa-ac73-88de00517cd0" d="M405.83 116.15c-5.47 7.95-38.01-3.78-37.06-20.63M279.33 125.41c11.77 14.49-3.11 69.31-19.85 68.76"/><path class="uuid-33ee5cdb-decd-4aac-baf1-87d29b836214" d="M136.57 956.26c1.04 16.29 28.22 19.22 40.76 17.12 8.97-1.33 20.54-6.77 20.68-17.12-.96-10.02-12.07-14.78-20.8-16.49-12.43-2.72-39.59.21-40.63 16.49Zm-.27 0c.09-7 5.76-12.4 11.57-15.53 12.1-6.34 27.29-6.17 39.58-.34 16.16 7.95 15.81 23.28-.35 31-12.03 5.86-27.16 6.79-39.21.36-5.82-3.11-11.47-8.5-11.59-15.49M450.25 941.45c.94 17.23 31.28 20.04 44.05 16.02 7.23-2.15 15.25-7.76 15.08-16.02-.89-9.7-11.35-14.67-19.9-16.37-12.31-2.78-38.28.3-39.23 16.37m-.29 0c.06-6.82 5.29-12.32 10.92-15.57 11.71-6.58 26.79-6.39 38.72-.37 15.42 8.08 14.98 23.25-.41 31.06-11.63 6.04-26.64 7.07-38.29.4-5.64-3.22-10.85-8.72-10.94-15.53Z"/><path class="uuid-fc40ed59-a12c-48da-9d8b-55083002808f" d="M465.53 957.92s-65.55-21.91-75.14-26.33c-9.58-4.42-22.12-19.54-24.33-26.91s6.63-26.91 2.95-35.02c-3.69-8.11-120.53-36.86-145.59 31.33-9.93 27.02-21.34 46.79-24.7 55.26M480.15 922.57c-12.42-2.8-33.33-19.14-51.7-23.76"/><path class="uuid-5a4d0f21-1ac1-48fa-ac73-88de00517cd0" d="M280.12 236.27c8.5 34.87-9.83 134.01-35.05 193.41-12.77 30.07-24.22 47.77-33.34 208.19-2.44 42.94-41.46 79.32-28.24 146.02 0 0-20.78 52.62-8.62 99.16 3.3 23.25-13.3 49.82-21.41 56.44"/><path class="uuid-fc40ed59-a12c-48da-9d8b-55083002808f" d="M428.45 898.83c2.19-12.65 32.87-59.71 28.45-98.72s9.36-75.93-49.15-118.32M430.56 189.21c1.88 40.11 5.18 65.93 8.62 71.08 3.44 5.16 28.94-7.16 37.25 43.84l10.6 65.04"/><path class="uuid-33ee5cdb-decd-4aac-baf1-87d29b836214" d="M428.03 899.96c-2.93-.86-6.34-.66-9.4-.41-9.58.86-20.27 5.35-23.36 15.25 2.56-10.31 13.37-15.6 23.13-17.07 3.5-.47 6.95-.93 10.48-.06l-.84 2.29ZM209.38 921.83c-3.86-4.59-9.47-7.3-14.69-10.02-5.36-2.48-10.97-4.94-17.04-4.49 1.4-.66 2.99-.92 4.55-1 8.87-.38 23.8 7.05 27.18 15.51M408.86 682.19c-11.46 30.14-39.62 48.38-57.13 74.41-5.77 8.6-11.27 17.81-13.16 28.13 1.69-10.37 7.05-19.73 12.66-28.46 11.22-17.72 27.49-31.45 40.05-48.1 6.27-8.25 11.9-17.1 15.34-26.79l2.23.8ZM202.23 714.72c10.41-2.28 21.3-.1 31.41 2.69 25.17 7.65 49.59 22.34 63.95 44.87a63 63 0 0 1 6.6 14.41c-8.12-19.59-24.64-34.09-42.56-44.62-15.91-9.27-40.83-19.59-59.4-17.35M487.64 370.18c-6.69 3.35-10.39 8.48-11.44 15.91-.41 2.3-.51 4.65-.6 6.99-.11-2.34-.21-4.7 0-7.06.34-4.77 1.79-9.67 5.16-13.26a32 32 0 0 1 5.63-4.6zM493.05 458.04c-9.44 6.33-24.2 3.5-25.43-9.22-.45-3.5-.03-7.01.69-10.39-.52 3.42-.73 6.93-.1 10.3 1.1 7.28 7.21 11.52 14.36 10.76a17.4 17.4 0 0 0 9.06-3.34z"/><path class="uuid-fc40ed59-a12c-48da-9d8b-55083002808f" d="M551.11 398.14c-24.15-.63-29.61 32.64-48.73 48.23-25.96 21.18-17.05 41.49-36.33 60.42-24.17 23.73-25.47 43.53-33.5 64.65-15.14 39.82 2.71 70.24-24.79 110.35"/><path class="uuid-33ee5cdb-decd-4aac-baf1-87d29b836214" d="M534.2 337.02c8.61-3.29 18.14-4.57 27.22-2.4 14.66 3.24 24.92 16.67 22.24 31.79-4.98 28.23-43.38 44.9-66.32 26.38-11.99-9.56-13.42-26.79-4.8-39.06 5.23-7.75 13.08-13.3 21.65-16.7Zm.11.3c-20.96 7.81-33.89 36.39-14.82 52.91 13.79 11.48 35.58 9.45 49.34-1.33 10.64-7.94 16.63-23.22 11.13-35.59-7.23-16.96-29.37-22.63-45.65-15.99"/><path d="M520.81 345.41c-8.29-10.25-18.56 21.27-33.79 23.76" stroke-miterlimit="10" fill="none" stroke-width="2.88" stroke="#191818"/><path class="uuid-33ee5cdb-decd-4aac-baf1-87d29b836214" d="M446.34 395.02c-17.87-13.38-45.75-4.56-51.23 17.41-5.52 22.58 15.6 42.21 37.59 39.68 29.02-3.41 36.07-40.28 13.64-57.09m.22-.3c10.8 7.85 18.13 21.54 15.61 35.11a31.1 31.1 0 0 1-15.91 21.79c-26.8 14-57.48-10.72-53.11-39.61 2.06-14.03 14.31-24.82 28.46-25.25 9-.42 17.75 2.75 24.95 7.96"/><path class="uuid-33ee5cdb-decd-4aac-baf1-87d29b836214" d="M421.3 388.67c-3.29-5.03-7.61-7.74-13.75-7.32-5.82.24-11.77 1.26-17.65 1.48-5.96.32-11.94.11-17.85-.46-17.71-1.71-35.3 3.87-50.36 13.06a184 184 0 0 0-14.68 9.94c-4.83 3.33-9.27 7.58-14.8 9.7 5.5-2.21 9.86-6.51 14.64-9.92 14.02-10.84 29.7-20.36 47.48-23.31 11.71-2.32 23.67.31 35.46-.89 7.47-.35 14.8-2.59 22.35-1.81 4.85.57 8.8 4.05 11.52 7.88l-2.35 1.67ZM407.77 448.23c-7.76-1.97-14.59-6.94-22.26-8.55-14.6-2.87-27.62 16.62-35.29 26.95-4.75 6.45-8.45 13.66-13.72 19.74-22.81 26.92-62.52 16-88.35-.45 25.64 15.83 65.23 26.4 87.33-.44 5.13-6.1 8.71-13.34 13.33-19.83 7.36-10.3 17.56-25.78 30.75-28.44 6.25-1.19 12.55 1.66 17.96 4.1a70 70 0 0 0 11 4.13zM182.6 734.82c-32.05-9-53.01-32.08-63.93-62.95-4.61-12.34-6.69-25.75-12.55-37.62-5.32-11.42-14.72-23.84-28.45-24.01a24.5 24.5 0 0 0-21.25 12.79c-7.4 14.39 2.54 30.34 12.68 40.58.88.94 2.69 2.75 3.43 3.74 3.32 3.95 5.4 8.83 6.61 13.76 1.07 4.39 1.58 8.83 2.24 13.17 1.7 13.68 7.21 24.53 17.86 33.39 16.78 14.52 27.56 34.78 45.76 47.66 10.74 7.73 23.61 11.93 36.66 13.67l-.03.24c-17.76-1.3-35.12-8.47-48-20.93-12.92-12.11-22.71-27.16-36.1-38.67-11.18-9.29-16.9-20.65-18.55-35-1.49-11.6-2.54-21.06-11.36-29.59-4.6-4.82-8.77-10.34-11.6-16.41-6.29-13.17-4.33-27.7 8.83-35.62 18.73-10.63 34.52 4.23 42.49 20.64a119 119 0 0 1 7.35 18.6c1.78 5.86 3.83 13.19 6.03 18.87 7.46 21.08 20.49 40.76 39.65 52.86 3.2 1.92 6.72 3.98 10.1 5.56 3.98 1.9 8.08 3.52 12.22 5.05zM409.79 210.59c.57 10.87-4.81 18.61-14.72 22.8-1.57.51-3.25 1.25-4.85 1.58l-3.3.76c-1.61.25-3.38.46-5 .66-1.1.08-3.89.16-5.02.21q-3.35-.06-6.66-.33c3.78-.51 7.67-.95 11.46-1.57 14.75-2.77 25.73-7.9 28.1-24.11Z"/><path class="uuid-46c53e86-3891-4e8e-8fb1-af1474603c85" d="M403.28 179.61c.72-6.6-2.66-10.84-7.46-14.88-2.08-1.88-4.41-3.88-7.2-4.5-10.07-2.47-13.91 8.97-13.59 17.04.09 3.06 2.94 5.1 3.15 8.16.3 3.04-.46 5.99-1.22 8.85a23 23 0 0 1-7.78 9.38 16 16 0 0 1-3.77 1.77l.06-1.1c2.88.97 6.32 1.98 9.19.58 7.33-3.57 14.24-8.12 22.34-9.93 3.89-.82 8.07.03 11.42 2.14l-.84.36c.3-1.51.45-3.12.47-4.7.03-3.18-.53-6.38-1.94-9.24a16 16 0 0 0-2.8-3.88l.1-.1c5.09 4.42 6.31 11.76 5.28 18.17l-.13.75a18 18 0 0 0-5.84-2.29c-5.63-.81-10.91 1.81-15.93 4.2-2.02.9-11.01 5.76-12.99 6.3-3.56.76-7.07-.57-10.31-1.88l1.6-.49c3.79-1.07 6.92-3.76 9.23-6.89.75-1 1.58-2.35 2.08-3.32.87-2.8 1.59-5.72 1.35-8.61-.21-3.03-3.18-5.07-3.27-8.16-.28-6.51.88-14.82 7.55-17.85 5.24-2.41 10.88.67 14.52 4.47 3.16 3.01 6.67 6.59 7.04 11.22.15 1.5.05 3-.16 4.46h-.14Z"/><path d="M386.03 164.26a18.5 18.5 0 0 1 6.68 9.44 21.7 21.7 0 0 1-.78 18.94l-.09-.03c1.54-6.12 2.9-12.72.59-18.79-1.56-3.51-4.34-6.49-6.39-9.55Z" stroke-width="0" fill="#e5b3cb"/><path d="M346.58 153.99c2.81 7.97-1.91 16.91-10.55 19.95-8.64 3.05-20.73-8.92-20.73-8.92s1.91-16.91 10.55-19.95c8.64-3.05 17.92.95 20.73 8.92" stroke-width="0" fill="url(#uuid-6cde7f4a-93e9-4f0b-bd28-6cdffba48629)"/><path class="uuid-33ee5cdb-decd-4aac-baf1-87d29b836214" d="M346.58 153.99c2.97 7.91-2.13 16.92-9.74 19.94-7.83 3.16-16.36-3.54-21.95-8.49l-.21-.2.04-.29c1.22-7.32 3.71-17.97 11.76-20.39 7.82-2.42 17.44 1.4 20.1 9.42Zm0 0c-2.71-7.93-12.31-11.59-19.93-8.89-3.92 1.15-6.23 4.86-7.75 8.42a45 45 0 0 0-3.02 11.56l-.17-.48c5.12 4.68 13.61 11.56 20.92 8.81 7.63-2.68 12.81-11.55 9.94-19.43Z"/><path class="uuid-47712697-7eca-4b21-a6af-d72db275f2ab" d="M335.55 156.82c1.93 5.47-.71 11.39-.71 11.39s-5.76-2.95-7.69-8.42.71-11.39.71-11.39 5.76 2.95 7.69 8.42"/><circle class="uuid-36e18139-2235-4954-8e5e-fc8719af4166" cx="332.39" cy="152.35" r="1.49"/><path d="M381.08 142.5c3.35 5.88 11.22 7.7 17.59 4.07s5.46-17.21 5.46-17.21-11.22-7.7-17.59-4.07-8.81 11.33-5.46 17.21" stroke-width="0" fill="url(#uuid-e80980d5-e79c-445e-a3cd-855a96d14771)"/><path class="uuid-33ee5cdb-decd-4aac-baf1-87d29b836214" d="M381.08 142.5c3.23 5.88 11.35 7.33 16.93 4.11 4.35-2.37 5.07-7.95 5.48-12.44.11-1.59.14-3.21.05-4.77l.25.44c-4.83-2.93-12.1-7.16-17.63-4-5.62 3.16-8.51 10.88-5.09 16.66Zm0 0c-3.43-5.82-.77-13.64 4.8-17.14 5.81-3.64 13.41.35 18.59 3.51l.24.16v.29c.1 6.06-.36 14.64-6.44 17.78-5.84 3.01-13.93 1.31-17.19-4.6"/><path class="uuid-47712697-7eca-4b21-a6af-d72db275f2ab" d="M387.39 139.2c2.3 4.03 7.26 5.54 7.26 5.54s1.23-5.03-1.06-9.06-7.26-5.54-7.26-5.54-1.23 5.03 1.06 9.06"/><ellipse class="uuid-36e18139-2235-4954-8e5e-fc8719af4166" cx="391.5" cy="133.21" rx="2.27" ry="1.19" transform="rotate(-59.7 391.5 133.2)"/><path d="M368.75 182.41a671 671 0 0 0-33.36-4.19 458 458 0 0 0-33.49-2.2c-5.59-.18-11.18-.14-16.76.04-5.58.14-11.15.61-16.68 1.28a98 98 0 0 0-16.36 3.34c-5.32 1.6-10.5 3.87-14.95 7.32 4.17-3.79 9.37-6.3 14.65-8.23a90 90 0 0 1 16.44-3.94c11.16-1.72 22.46-2.01 33.7-1.76 11.25.31 22.46 1.24 33.61 2.64a358 358 0 0 1 33.19 5.7Z" stroke-width="0" fill="url(#uuid-bed48332-da5e-48bc-ac0c-62705974ad65)"/><path d="M354.33 186.47q-14.12 2.55-28.15 5.44a630 630 0 0 0-27.9 6.4 342 342 0 0 0-27.43 8.04c-4.5 1.57-8.95 3.26-13.28 5.24-4.33 1.96-8.56 4.21-12.22 7.3a32 32 0 0 1 5.59-4.51 68 68 0 0 1 6.21-3.65c4.27-2.2 8.69-4.1 13.18-5.81a256 256 0 0 1 27.47-8.5 391 391 0 0 1 28.1-6 373 373 0 0 1 28.44-3.95Z" stroke-width="0" fill="url(#uuid-40e1bab7-3269-45e0-85f3-79f94c3253db)"/><path d="M358.32 195.92a320 320 0 0 0-26.79 6.28c-4.4 1.27-8.77 2.62-13.08 4.16a155 155 0 0 0-12.72 5.06 124 124 0 0 0-12.17 6.21 89 89 0 0 0-11.28 7.66c-7.08 5.68-13.27 12.63-17.26 20.95a50 50 0 0 1 6.73-12.06 64 64 0 0 1 9.56-10.07c7.06-6.06 15.22-10.66 23.63-14.48a160 160 0 0 1 26.2-8.91 198 198 0 0 1 27.18-4.82Z" stroke-width="0" fill="url(#uuid-48f20f7d-345e-4008-9bcf-7716fadcc27c)"/><path d="M404.18 168.87c8.1-.08 16.2.26 24.27.92q12.13.96 24.13 2.99c7.99 1.4 15.95 3.14 23.67 5.72a79 79 0 0 1 11.3 4.63c3.59 1.9 7.11 4.09 9.9 7.04a41 41 0 0 0-10.32-6.18 93 93 0 0 0-11.34-4.04A161 161 0 0 0 464.1 177q-5.9-1.3-11.86-2.3a448 448 0 0 0-23.95-3.4 841 841 0 0 0-24.12-2.43Z" stroke-width="0" fill="url(#uuid-d9219baa-ecd5-4fae-8065-c7f71f1a3dfa)"/><path d="M407.27 164.97c6.17-3.43 12.81-6 19.62-7.95q2.56-.71 5.14-1.36l5.2-1.11c3.5-.58 7-1.17 10.54-1.45l2.65-.24c.88-.08 1.77-.07 2.66-.11 1.77-.05 3.55-.14 5.32-.15 3.54.18 7.1.14 10.62.67 7.07.62 13.97 2.45 20.67 4.58-6.91-1.4-13.81-2.71-20.81-3.07-3.48-.35-6.98-.26-10.47-.34l-5.23.2c-.87.05-1.75.05-2.61.13l-2.61.26c-6.96.6-13.87 1.78-20.67 3.44-1.7.4-3.38.9-5.08 1.33q-2.52.72-5.03 1.52a111 111 0 0 0-9.89 3.64Z" stroke-width="0" fill="url(#uuid-c8629d79-ebc5-48f1-9595-584f366a97b4)"/><path d="M408.53 175.36a113 113 0 0 1 18.29 5.74c5.94 2.4 11.71 5.25 17.21 8.58a98 98 0 0 1 7.97 5.43 77 77 0 0 1 7.3 6.32 61 61 0 0 1 6.3 7.31 50 50 0 0 1 4.78 8.33 62 62 0 0 0-5.53-7.74 76 76 0 0 0-6.59-6.79 103 103 0 0 0-15.24-11.19 134 134 0 0 0-8.26-4.67 182 182 0 0 0-17.28-7.95 166 166 0 0 0-8.94-3.37Z" stroke-width="0" fill="url(#uuid-eb6cfffd-c20c-497c-82f9-6a6bd8c14f1b)"/><circle class="uuid-7bab4f4b-7a45-43c6-85cb-4784853e0979" cx="1135.37" cy="162.23" r="113.84"/><path class="uuid-3ab4b3aa-f9e2-4e9b-ae81-1cd87d0ffe26" d="M1135.37 273.05v212.12M1057.04 415.05h156.66"/><circle class="uuid-7bab4f4b-7a45-43c6-85cb-4784853e0979" cx="563.48" cy="634" r="113.84"/><path class="uuid-3ab4b3aa-f9e2-4e9b-ae81-1cd87d0ffe26" d="m617.2 537.07 102.82-185.53"/><path d="m625.74 368.4 78.18-27.16a27.9 27.9 0 0 1 35.52 17.2l27.7 79.73" stroke-miterlimit="10" stroke="#292425" fill="none" stroke-linecap="round" stroke-width="17"/></g></svg>