<svg xmlns="http://www.w3.org/2000/svg" viewBox="0 0 71.42 50.73"><defs><radialGradient id="uuid-d260b494-b14e-4a56-93cc-6635e6a790f1" cx="9.02" cy="33.44" fx="9.02" fy="33.44" r="1.18" gradientTransform="rotate(3.7 2.88 33.38)" gradientUnits="userSpaceOnUse"><stop offset="0" stop-color="#4c4345"/><stop offset=".43" stop-color="#494042"/><stop offset=".69" stop-color="#41393b"/><stop offset=".9" stop-color="#332c2e"/><stop offset="1" stop-color="#292425"/></radialGradient><linearGradient id="uuid-b12e4bc4-2ddb-4324-bfb6-8ffc51fc9a92" x1="13.18" y1="40.91" x2="66.16" y2="40.91" gradientUnits="userSpaceOnUse"><stop offset="0" stop-color="#b6a487"/><stop offset="1" stop-color="#51311b"/></linearGradient><style>.uuid-46eb2de2-7200-4ecb-9933-6552c81da781,.uuid-688a90c7-d002-48a7-be4e-f6fbad93cd73,.uuid-dda0d38b-1d0c-4cb7-9af7-bcd03fe01a80{stroke-width:0}.uuid-46eb2de2-7200-4ecb-9933-6552c81da781{fill:#5b392b}.uuid-dda0d38b-1d0c-4cb7-9af7-bcd03fe01a80{fill:#000}.uuid-688a90c7-d002-48a7-be4e-f6fbad93cd73{fill:#191818}</style></defs><g id="uuid-49a23a11-f3ca-4aec-a187-3331d18bd632"><path class="uuid-46eb2de2-7200-4ecb-9933-6552c81da781" d="M70.84 48.95c.62.57.06 1.74-1.25 1.4-1.1-.6-2.24-1.12-3.38-1.57l-.05-.02c-4.97-2.16-24.83-12.98-27-13.73l.62.17c4-.37 11.97 5.59 13.99 6.3 2.03.72 14.86 5.44 17.07 7.45Z"/><path d="M28.89 34.26c1.12-.22 2.83-.34 5.06-.14 1.48.13 3.2.41 5.1.89l.1.02c2.18.75 22.04 11.57 27 13.73-7.63-3-15.96-2.87-20.3-1.96-5 1.04-5.68 1.45-14.9 1.66-6.34.16-10.82-1.04-14.3-2.67v-.01a33.78 33.78 0 0 1-3.47-2.62l.16-.2c.2-2.65 3.7-5.2 5.03-5.94 1.76-1.07 7.52-6.27 10.52-2.76Z" fill="url(#uuid-b12e4bc4-2ddb-4324-bfb6-8ffc51fc9a92)" stroke-width="0"/><path d="M43.49 24.88c1.45 1.86.85 3.83-.4 4.4-1.85-.1-6.16 0-12.12 0l-.07.05c-.5-.6-1-1.17-1.53-1.71 14.35-.62 13.9-3.02 14.12-2.74Z" fill="#4d4240" stroke-width="0"/><path d="M40.98 32.54c1.9.1 2.74.02 2.74.21 0 1.84-2.17 2.6-4.67 2.26a33.19 33.19 0 0 0-5.1-.9 24.05 24.05 0 0 0-3.05-4.78l.07-.05c5.97 0 10.27-.1 12.11 0 .65.04 1 .09 1 .2 0 1.84-.6 2.77-3.1 3.06Z" fill="#675a50" stroke-width="0"/><path d="M43.12 21.13c.73-.03.37 3.75.37 3.75-.22-.28.23 2.12-14.12 2.74-.31-.33-.63-.65-.94-.95 6.4-1.67 11.95-4.46 13.96-5.3.37-.15.62-.24.73-.24Z" fill="#514947" stroke-width="0"/><path d="M42 11.86c.46-.13.84-.16 1.06.05.84.76-.94 3.71-1.9 4.24-.31-.13-.65-.2-1.03-.15.67-.58.98-1.01.78-1.28-.66-.92-1.47-.5-2.02-.14.19-.36.22-.67.03-.96 0 0 1.81-1.36 3.08-1.76Z" fill="#745642" stroke-width="0"/><path d="M42.4 18.16c.53-.23 1.2 1.45 0 3.22-2.02.83-7.57 3.62-13.97 5.3-.36-.34-.72-.66-1.08-.96 6.43-3.16 14.53-7.32 15.05-7.56Z" fill="#4e4642" stroke-width="0"/><path d="M40.22 9.78c2.12-1.23 2.2.89 1.78 2.08-1.27.4-3.08 1.76-3.08 1.76-.62-.94-1.76-.4-2.73.69a6.72 6.72 0 0 0 1.38-2.23l.01-.02a13.24 13.24 0 0 1 2.64-2.28Z" fill="#80644f" stroke-width="0"/><path d="M41.16 16.15c.74.32 1.22 1.1 1.24 2.01-.53.24-8.62 4.4-15.05 7.56a6.93 6.93 0 0 0-.49-.41l.06-.08c4.36-3.69 10.87-7.25 13.2-9.23h.01c.38-.04.72.02 1.03.15Z" fill="#5a564d" stroke-width="0"/><path d="M38.88 14.58c.56-.35 1.37-.78 2.03.14.2.27-.11.7-.78 1.28h-.01c-2.33 1.98-8.84 5.54-13.2 9.23l-.06.08c-.53-.44-1.07-.84-1.59-1.2 3.37-3.52 8.41-6.86 10.92-9.8.97-1.09 2.11-1.63 2.73-.69.19.29.16.6-.04.96Z" fill="#514846" stroke-width="0"/><path d="M38.92 7.24c2-1.4 1.94.95 1.3 2.54-.66.39-1.52 1.1-2.64 2.28.2-.62.21-1.22-.02-1.8a.23.23 0 0 0-.08-.16c-.3-.3-.69-.36-1.1-.3a13.66 13.66 0 0 1 2.54-2.55v-.01Z" fill="#593c2f" stroke-width="0"/><path d="M36.38 4.1c2.09-2.15 2.9.96 2.54 3.14v.01c-.62.43-1.47 1.24-2.54 2.55-.68.1-1.45.58-2.08 1.02 1.17-1.45 1.8-2.51 1.4-2.91-.42-.41-1.01-.38-1.63-.16a14.36 14.36 0 0 1 2.3-3.63V4.1Z" fill="#715650" stroke-width="0"/><path d="M37.56 10.27c.23.57.22 1.17.02 1.8-.23.71-.72 1.46-1.39 2.24-2.5 2.94-7.55 6.28-10.92 9.8l-.88-.58c4.88-5.19 13.46-11.77 13.17-13.26Z" fill="#5e5653" stroke-width="0"/><path d="M34.3 10.82c.63-.44 1.4-.91 2.08-1.02.41-.06.8 0 1.1.3l.08.17c.28 1.5-8.3 8.07-13.17 13.26-.31-.2-.64-.4-.95-.57 1.94-4.2 6.72-10.4 8.8-14.12.5-.38 1.18-.84 1.83-1.09.62-.21 1.21-.25 1.63.16.4.4-.23 1.46-1.4 2.91Z" fill="#716967" stroke-width="0"/><path d="M32.81 3.37c1.15-2.09 4.87-3.32 3.57.73v.02a14.4 14.4 0 0 0-2.3 3.63c-.66.25-1.33.71-1.84 1.09.86-1.55 1.26-2.66.8-3.02a1.08 1.08 0 0 0-.67-.26 6.7 6.7 0 0 0 .44-2.18v-.01Z" fill="#694d3c" stroke-width="0"/><path d="M23.4 8.27c1.2-2.3.86-6.7 2.36-6.73.71-.03 1.06.7 1.15 1.93.07 1.19-.1 2.84-.45 4.7 1.2-2.31 1.58-4.92 2.97-4.4.4.15.59.58.6 1.2 0 .82-.3 2.01-.78 3.4 1.4-1.47 2.23-2.8 3.12-2.8.21 0 .43.07.67.25.46.36.06 1.47-.8 3.02-2.08 3.71-6.86 9.92-8.8 14.12-2.52-1.42-4.61-1.88-5.24-1.17.27-5.03.14-9.3 0-11.57-.04-.56-.08-1-.12-1.3-.2-1.75-.79-3.15-1.2-4.43-.42-1.29.76-1.32 1.82-.27 1.23 1.24 1.74 2.85 1.87 6.02h.01c.4-3.76-.57-9.38 1.01-9.38 1.3 0 1.85 3.3 1.81 7.4Z" fill="#6e6e6a" stroke-width="0"/><path d="M30.4 1.09c1.45-1.04 2.5.25 2.41 2.28v.01a6.7 6.7 0 0 1-.44 2.18c-.9 0-1.71 1.34-3.12 2.81.48-1.39.78-2.58.78-3.4.55-1.76.68-3.1.37-3.88Z" fill="#816857" stroke-width="0"/><path d="M28.43 26.68a32.08 32.08 0 0 1 2.47 2.65 24.05 24.05 0 0 1 3.04 4.79c-2.22-.2-3.93-.08-5.05.14-3-3.5-8.76 1.69-10.52 2.76 0-.56-.03-1.75-.08-3.33l-.06-2.17-.24-6.73c.08-1.02.16-2.02.21-3 .63-.71 2.72-.25 5.24 1.17a27.05 27.05 0 0 1 3.42 2.35l.5.41 1.07.96Z" fill="#928a80" stroke-width="0"/><path d="M30.4 1.09c.3.77.18 2.12-.37 3.88-.01-.62-.2-1.05-.6-1.2-1.39-.52-1.78 2.09-2.97 4.4.35-1.86.52-3.51.45-4.7h.01c.5-.49 1.4-3.15 2.34-3.15.56 0 .94.28 1.12.77h.02Z" stroke-width="0" fill="#493929"/><path d="M18.3 33.7c.04 1.57.07 2.76.07 3.32-1.34.73-4.82 3.29-5.03 5.95l-.16.19c-3.43-2.81-7.84-7.02-5.8-7.96.49-.23 1.77.74 3.94-.63 0 0 2.02-.36 4.55 2.39a18.69 18.69 0 0 1 2.42-3.27Zm-3.6 3.95c0-.36-1-2.01-1.58-2s-3.4 1.2-3.32 1.58c.19.85 1.76 1.9 2.36 1.9s2.53-1.12 2.53-1.48Z" fill="#e0d2b5" stroke-width="0"/><path class="uuid-46eb2de2-7200-4ecb-9933-6552c81da781" d="m18.23 31.52.06 2.17c-.23.23-1.06 1.11-2.41 3.27-2.54-2.75-4.55-2.4-4.55-2.4-2.18 1.38-3.46.4-3.96.64-2.02.94 2.38 5.15 5.81 7.96a33.62 33.62 0 0 0 3.48 2.62v.01a30.45 30.45 0 0 1-4.22-2.44c-2.67-1.82-4.62-4.49-7.25-6.3.61-1.36.38-3.46-.47-3.48s-.71-.95-.27-1.81c.47-.35.84-.64 1.14-.83.93-.6 3.49-1.57 7.71-.54 2.87.7 4.3 1.02 4.93 1.13Z"/><path d="M18.2 10.22c.15 2.27.28 6.54 0 11.57-.05.98-.13 1.98-.2 3l-.36-8.21c-.17-3-4.13-10.13-4.66-10.86-.52-.74 2.88-1.44 5.2 4.5h.02Z" fill="#97958f" stroke-width="0"/><path d="M13.12 35.65c.58-.01 1.57 1.64 1.57 2s-1.93 1.5-2.53 1.49-2.17-1.06-2.36-1.91c-.07-.38 2.73-1.56 3.32-1.58Z" fill="#241916" stroke-width="0"/><path d="M4.72 33.58c.85 0 1.08 2.11.47 3.47a10.54 10.54 0 0 0-4.6-1.85c-.13-.02-.37-.3-.21-.48 1.77-1.22 3.1-2.24 4.07-2.96-.44.86-.57 1.8.27 1.82Z" fill="#30353d" stroke-width="0"/></g><g id="uuid-79b6711b-f736-4678-963f-4443f6b7b041"><path class="uuid-688a90c7-d002-48a7-be4e-f6fbad93cd73" d="M18.62 31.6c-4-.52-8.1-2.42-12.1-.97C4.36 31.7 2.5 33.5.39 34.73c2.06-1.4 3.8-3.26 6.04-4.37 4.05-1.55 8.22.4 12.2 1.24ZM.58 35.2c4.82.55 7.7 4.82 11.25 7.6 6.2 4.74 14.14 5.98 21.76 5.43 4.64.04 9.12-.9 13.64-1.8 7.6-.94 15.6.27 22.36 3.91-6.81-3.5-14.76-4.64-22.32-3.66-4.5.92-9.05 1.88-13.67 1.87-7.65.52-15.69-.8-21.88-5.6C8.16 40.16 5.39 35.84.58 35.2ZM39.78 35.2c5.06.11 9.18 3.79 13.55 5.95 5.88 2.4 12.21 4.22 17.51 7.8-5.44-3.39-11.75-5.1-17.64-7.54-4.35-2.22-8.39-5.87-13.42-6.21Z"/><path class="uuid-688a90c7-d002-48a7-be4e-f6fbad93cd73" d="M69.6 50.34c.84.05 1.73-.48 1.24-1.4.48.23.48.96.1 1.3-.39.35-.97.34-1.35.1ZM16.65 45.78C14.95 44.74 4.38 37 7.23 35.1c.63-.25 1.22.16 1.85.08.78-.01 1.54-.3 2.2-.72 1.88-.1 3.45 1.17 4.66 2.45h-.13a18.7 18.7 0 0 1 2.56-3.28c-1 1.03-1.72 2.27-2.48 3.47-1.17-1.23-2.75-2.5-4.54-2.4-.45.35-1.5.76-2.27.77-.81.1-1.75-.5-2.02.26-.12 1.5 1.44 2.76 2.33 3.84a57.85 57.85 0 0 0 7.26 6.22Z"/><path class="uuid-688a90c7-d002-48a7-be4e-f6fbad93cd73" d="M18.37 37.02c-2.06 1.57-4.4 3.31-5.03 5.95.17-2.75 2.74-4.79 5.03-5.95ZM9.82 37.22c.34.92 1.47 1.5 2.33 1.8.7-.03 1.49-.48 2.06-.93.17-.15.45-.39.36-.51a3.9 3.9 0 0 0-1.34-1.73c-.63-.05-1.46.42-2.11.6-.46.2-1.05.36-1.3.77Zm-.03 0c.2-.47.84-.66 1.25-.94.72-.33 1.5-.9 2.32-.74.75.44 1.14 1.19 1.43 1.98.02.06.03.2-.03.27a6.19 6.19 0 0 1-2.63 1.47 3.15 3.15 0 0 1-2.34-2.04Z"/><path class="uuid-dda0d38b-1d0c-4cb7-9af7-bcd03fe01a80" d="M18.37 37.02c-.2-5.04-.64-15.15-.88-20.19-.35-3.3-2.12-6.37-3.58-9.31l-.62-1.1c-.14-.33-.4-.52-.45-.89.01-.16.14-.25.25-.3 2.65-.43 4.29 2.95 5.1 4.99-.84-1.95-2.54-5.17-5.02-4.82-.39.15.22.65.3.91 1.77 3.33 3.87 6.69 4.34 10.5.19 5.94.58 14.36.56 20.22ZM23.4 37.69c1.65-1.44 3.4-2.9 5.52-3.58 3.63-.63 7.4.01 10.86 1.09a45.86 45.86 0 0 0-4.3-.78 22.75 22.75 0 0 0-6.5-.02c-2.04.65-3.86 2.02-5.59 3.29Z"/><path class="uuid-dda0d38b-1d0c-4cb7-9af7-bcd03fe01a80" d="M18.37 37.02c2.71-2.03 7.44-6.25 10.52-2.76-3.33-3.02-7.5 1.13-10.52 2.76ZM17.98 24.89c.3-5.15.42-10.33.01-15.48-.1-1.72-.75-3.3-1.29-4.96a1.2 1.2 0 0 1-.01-.73c.08-.29.43-.42.67-.4 3.22.96 3.14 5.24 3.29 7.97.06 3.45-.15 6.9-.33 10.34.07-3.45.2-6.9.12-10.33-.14-2.47-.12-5.36-2.04-7.16-.37-.28-1.1-.8-1.42-.31.12 1.57 1.28 3.56 1.29 5.56.35 5.16.23 10.35-.29 15.5Z"/><path class="uuid-dda0d38b-1d0c-4cb7-9af7-bcd03fe01a80" d="M20.58 10.25c.2-2.63-.18-5.24.04-7.89.07-.5.12-1.06.5-1.44.53-.47 1.17.07 1.34.56 1.3 4.1.6 8.56.34 12.78a55.03 55.03 0 0 1-1.26 7.77A78 78 0 0 0 22.87 6.4c-.09-1.62-.06-3.29-.65-4.8-.67-1.36-1.34-.13-1.38.8-.25 2.6.09 5.26-.26 7.86ZM23.4 8.26c.74-1.62.75-3.42 1.15-5.14.16-.55.25-1.2.83-1.6.66-.37 1.34.25 1.48.87.43 1.75.11 3.57-.16 5.3a58.71 58.71 0 0 1-4.23 13.44A67.94 67.94 0 0 0 26.4 7.65c.24-1.7.62-3.5.22-5.18-.12-.5-.58-1-1.11-.74-.44.26-.6.9-.75 1.44-.4 1.7-.52 3.52-1.34 5.1Z"/><path class="uuid-dda0d38b-1d0c-4cb7-9af7-bcd03fe01a80" d="M26.45 8.17c.73-1.4.93-3.03 1.94-4.28.39-.46 1.24-.42 1.56.13.3.53.23 1.1.18 1.62-1.2 5.62-4.34 10.6-6.74 15.76 2.13-5.27 5.2-10.23 6.44-15.8.07-.5.1-1.03-.12-1.43-.23-.37-.83-.45-1.15-.1-.98 1.16-1.3 2.8-2.1 4.1Z"/><path class="uuid-dda0d38b-1d0c-4cb7-9af7-bcd03fe01a80" d="M29.25 8.37c.9-.93 1.53-2.2 2.72-2.84.26-.11.6-.1.85.02.27.1.54.37.54.67-.33 2.37-2.04 4.3-3.24 6.28-2.03 3.06-5.1 7.3-6.72 10.56 1.42-3.34 4.5-7.64 6.48-10.72.94-1.55 2.5-3.69 3.1-5.38.15-.47.27-1.03-.26-1.2-.43-.24-.92.05-1.3.37-.74.7-1.42 1.52-2.17 2.24Z"/><path class="uuid-dda0d38b-1d0c-4cb7-9af7-bcd03fe01a80" d="M32.24 8.84c.93-.69 2.33-1.95 3.52-1.06.23.18.23.52.17.73-.72 1.82-2.2 3.19-3.42 4.65-2.25 2.55-4.56 5.02-6.65 7.7 1.92-2.8 4.2-5.35 6.42-7.9 1.1-1.3 2.28-2.54 3.13-3.97.19-.34.4-.8.16-1-1.04-.78-2.37.31-3.33.85Z"/><path class="uuid-dda0d38b-1d0c-4cb7-9af7-bcd03fe01a80" d="M34.03 11.03c.88-.65 2.08-1.76 3.3-1.21.26.11.48.44.36.72-1.1 2.17-3.2 3.62-4.9 5.29-2.82 2.56-5.74 5.03-8.44 7.73 3.8-4.29 8.43-7.77 12.32-11.95.58-.7 1.38-1.63-.1-1.7-.9.06-1.75.63-2.54 1.12Z"/><path class="uuid-dda0d38b-1d0c-4cb7-9af7-bcd03fe01a80" d="M37.48 10.1c1.84 3.62-6.38 8.76-8.7 10.94a56.5 56.5 0 0 0-3.66 3.24c2.16-2.47 4.77-4.48 7.25-6.59 1.9-1.78 6.22-4.61 5.12-7.59Z"/><path class="uuid-dda0d38b-1d0c-4cb7-9af7-bcd03fe01a80" d="M36.2 14.3c.43-.53.94-1.08 1.68-1.25.8-.22 1.64.73 1.19 1.48-.75 1.26-2 1.99-3.11 2.85-2.27 1.63-4.56 3.2-6.75 4.93a74.16 74.16 0 0 1 6.56-5.18c1.05-.83 2.35-1.58 3.04-2.72.34-.55-.26-1.26-.9-1.15-.64.11-1.22.57-1.7 1.05Z"/><path class="uuid-dda0d38b-1d0c-4cb7-9af7-bcd03fe01a80" d="M38.88 14.58c.57-.5 1.51-.76 2.07-.05 1.1 1.16-4.85 4.3-5.77 5.04-2.8 1.82-5.64 3.59-8.26 5.66 4.04-3.65 8.95-6.15 13.24-9.46.28-.26.64-.58.68-.88-.33-.8-1.28-.72-1.96-.31ZM39.05 35c1.68.18 4.44-.08 4.52-2.23 0-.06.01.04.02.03-.1-.02-.33-.05-.5-.06-3.62-.09-7.3-.57-10.79-1.5a80.9 80.9 0 0 0 10.8 1.21c.22.03.48 0 .7.16.09.1.04.2.04.3-.23 2.23-3.06 2.42-4.8 2.1Z"/><path class="uuid-dda0d38b-1d0c-4cb7-9af7-bcd03fe01a80" d="M40.98 32.54c1.5-.18 3.03-.91 2.95-2.63l.01-.42c-.01-.06.02.07.03.05-1-.23-2.88-.1-3.93-.15-3.02 0-6.05 0-9.08-.11 4.17-.12 8.33-.32 12.5-.12.22.04.75.01.77.33.1 2.11-1.31 2.98-3.25 3.05Z"/><path class="uuid-dda0d38b-1d0c-4cb7-9af7-bcd03fe01a80" d="M43.09 29.28c1.63-.87 1.3-3.14.31-4.3.06.04.1.02.12 0l-.01.01-.05.06c-1.15 1.1-2.84 1.38-4.34 1.73-3.25.62-6.56.8-9.86.84 3.28-.26 6.58-.51 9.8-1.15 1.48-.37 3.18-.6 4.3-1.72.13-.1.27.07.32.15 1.04 1.28 1.1 3.65-.6 4.38Z"/><path class="uuid-dda0d38b-1d0c-4cb7-9af7-bcd03fe01a80" d="M28.32 26.71c5.07-1.44 9.81-3.73 14.69-5.67 1.06-.11.51 3.15.48 3.84 0-1.15.2-2.53-.27-3.58-.06-.11-.26-.02-.45.05-4.67 2.14-9.4 4.27-14.45 5.36Z"/><path class="uuid-dda0d38b-1d0c-4cb7-9af7-bcd03fe01a80" d="M27.35 25.71c2.26-1.2 6.83-3.57 9.11-4.73.86-.43 4.99-2.5 5.76-2.85.21-.15.53-.08.66.17.55 1 .1 2.24-.5 3.08.54-.87 1.02-2.38.16-3.13-.13-.06-1.23.61-1.37.66-4.42 2.3-9.3 4.8-13.82 6.8Z"/><path class="uuid-dda0d38b-1d0c-4cb7-9af7-bcd03fe01a80" d="M40.12 16c1.24-.44 2.59.92 2.27 2.16-.23-1.19-1.03-2.05-2.27-2.16Z"/><path class="uuid-688a90c7-d002-48a7-be4e-f6fbad93cd73" d="M4.45 31.76c-.18.59-.59 1.66.33 1.67.35.04.56.33.67.57.38 1 .25 2.14-.26 3.05.25-.94.34-2.02-.03-2.91-.1-.22-.24-.4-.41-.41-1.14-.01-.74-1.42-.3-1.97ZM41.1 16.2c1.43-1.15 3.77-5.84-.1-3.76-.73.35-1.43.77-2.13 1.19.62-.54 1.3-1 2-1.42 4.26-2.37 2.31 2.85.24 4Z"/><path class="uuid-688a90c7-d002-48a7-be4e-f6fbad93cd73" d="M42 11.87c.59-3.16-1.21-2.56-2.97-1.03-.5.4-.96.83-1.45 1.24.8-1 1.68-1.95 2.85-2.58 1.85-.93 2.22 1.05 1.58 2.37Z"/><path class="uuid-688a90c7-d002-48a7-be4e-f6fbad93cd73" d="M40.23 9.78c.25-.83.75-3.51-.87-2.62-1.15.65-2.03 1.74-2.99 2.65a15 15 0 0 1 1.26-1.6c2.27-2.64 4.03-1.64 2.6 1.57Z"/><path class="uuid-688a90c7-d002-48a7-be4e-f6fbad93cd73" d="M38.92 7.25c.1-1.08-.08-4.5-1.83-3.52-1.36.96-2.13 2.63-3.01 4.03.69-1.58 1.4-3.24 2.84-4.3 2.16-1.1 2.37 2.46 2 3.79ZM26.92 3.48c.64-1 .88-2.26 1.8-3.1.35-.3.9-.25 1.3-.02.73.54.71 1.52.63 2.32-.1.8-.33 1.56-.62 2.3.2-1.33.91-3.34-.19-4.34-.28-.15-.65-.25-.93-.02-.87.77-1.2 2-1.99 2.86Z"/><path class="uuid-688a90c7-d002-48a7-be4e-f6fbad93cd73" d="M30.39 1.08c1.1-1.04 2.3-.13 2.51 1.18.2 1.14-.02 2.3-.53 3.3.12-.55.24-1.08.29-1.63.2-1.42-.34-3.97-2.27-2.85Z"/><path class="uuid-688a90c7-d002-48a7-be4e-f6fbad93cd73" d="M32.8 3.38c.45-1.43 3.6-3.4 3.96-.96.04.61-.18 1.17-.39 1.7.09-.57.23-1.14.14-1.68-.4-2-3.07-.05-3.7.94ZM.38 34.72c-.1.17.05.4.2.48-.2-.03-.38-.32-.2-.48ZM39.05 35c8.98 3.94 18.35 9.5 27.17 13.78-9-3.92-18.36-9.49-27.17-13.77Z"/><path class="uuid-dda0d38b-1d0c-4cb7-9af7-bcd03fe01a80" d="M18.2 21.8c.3-.36.8-.43 1.24-.41 1.36.06 2.63.61 3.83 1.2a23.21 23.21 0 0 1 10.68 11.53 30.46 30.46 0 0 0-3-4.33c-2.81-3.29-6.22-6.27-10.27-7.9-.78-.25-1.75-.64-2.48-.1Z"/><ellipse cx="9.02" cy="33.57" rx="1.26" ry="1.08" transform="rotate(-3.7 9.02 33.57)" fill="url(#uuid-d260b494-b14e-4a56-93cc-6635e6a790f1)" stroke-width="0"/><path class="uuid-688a90c7-d002-48a7-be4e-f6fbad93cd73" d="M10.29 33.49c.07 1.55-2.34 1.65-2.57.17-.1-1.57 2.46-1.72 2.56-.17Zm-.02 0c-.2-1.3-2.43-1.12-2.45.16.07 1.37 2.47 1.13 2.45-.16Z"/><circle class="uuid-688a90c7-d002-48a7-be4e-f6fbad93cd73" cx="9.02" cy="33.67" r=".69"/><ellipse cx="8.51" cy="33.25" rx=".15" ry=".19" transform="rotate(-60.8 8.51 33.25)" fill="#ebebeb" stroke-width="0"/></g></svg>