<svg id="Calque_7" xmlns="http://www.w3.org/2000/svg" viewBox="0 0 560 500.65"><defs><style>.cls-2{stroke-width:0;fill:#292425}</style></defs><path fill="#ebebeb" stroke-width="0" d="M0 1.34h560v497.98H0z"/><path class="cls-2" d="M63.26 496.32a817 817 0 0 0-29.96-70.95c-2.51-5.24-3.95-10.96-5.47-17.02-.8-3.17-1.62-6.44-2.61-9.63a315 315 0 0 0-22.21-53.57v-17.34c52.26 47.78 98.13 103.01 139.96 168.52H63.26Z"/><path class="cls-2" d="M6 334.65a787 787 0 0 1 69.72 74.13 901 901 0 0 1 61.74 84.53H65.34a816 816 0 0 0-29.35-69.25c-2.38-4.97-3.78-10.55-5.27-16.46-.81-3.21-1.64-6.52-2.65-9.79a317 317 0 0 0-22.08-53.42v-9.75M0 321.03v24.86a311 311 0 0 1 22.35 53.72c2.8 9.01 4.22 18.65 8.24 27.06a808 808 0 0 1 30.57 72.66h87.26C106.74 433.27 58.05 373.17 0 321.03M38.78 496.32c.48-10.78-.13-21.58-.79-32.93a863 863 0 0 1 11.39 32.93z"/><path class="cls-2" d="M41.9 483.34q1.71 5 3.35 9.98h-3.36q.13-4.97.01-9.98m-7.84-38.7c.64 19.39 2.7 37.17 1.56 54.68H53.5a860 860 0 0 0-19.44-54.68M557 275.44C356.64 146.65 116.44 106.26 3 102.57V4.34h554v271.11Z"/><path class="cls-2" d="M454.34 7.34H554v262.63C355.73 144.22 120.02 103.93 6 99.67V7.34zm105.66-6H0v104.14c111.4 3.06 356.69 42.97 560 175.48z"/><path class="cls-2" d="M388.29 496.32c-64.79-60.73-143.46-123.87-221.65-177.89-63.67-43.99-122.82-78.85-150.7-88.81A781 781 0 0 0 3 225.12v-98c7.58.16 15 .4 22.1.72 66.24 2.98 199 29.62 306.51 69.04 55.09 20.2 173.9 96.4 212.94 121.44 7 4.49 10.54 6.76 12.45 7.92v170.08z"/><path class="cls-2" d="M6 130.19q9.75.23 18.97.65c33.31 1.5 82.82 8.94 135.83 20.42 41.92 9.07 105.41 24.84 169.78 48.44 54.79 20.09 173.39 96.15 212.36 121.15 5.39 3.46 8.81 5.65 11.06 7.05v165.43H389.47c-64.73-60.58-143.17-123.49-221.13-177.36-63.87-44.12-123.29-79.12-151.39-89.17a786 786 0 0 0-10.94-3.82v-92.79M0 124.06v103.22q7.48 2.5 14.93 5.17c50.96 18.21 224.99 128.71 372.17 266.87H560V324.51c-1.54-.16-160.25-105.85-227.36-130.46-110.32-40.44-242.07-66.27-307.4-69.21q-12.64-.56-25.24-.78"/><path class="cls-2" d="M176.7 496.32C126.2 423.13 67.77 359.95 3 308.48v-62.32a748 748 0 0 1 125.95 65.63c20.69 13.4 40.76 28.62 60.18 43.33 8.99 6.82 18.29 13.87 27.55 20.66q1.36.98 2.72 1.83l1.12.73c3.1 2.63 59.48 50.6 126.93 117.97z"/><path class="cls-2" d="M6 250.63a745 745 0 0 1 121.32 63.69c20.6 13.34 40.62 28.52 59.99 43.2 9 6.83 18.32 13.88 27.58 20.68.98.72 1.95 1.34 2.88 1.94l.94.61c4.19 3.56 57.19 48.76 121.47 112.56H178.27a925 925 0 0 0-79-99.17A829 829 0 0 0 6 307.03v-56.41m-6-8.89v68.2c68.49 54.22 126.07 118.06 175.12 189.39h179.56c-72.22-72.58-132.36-123.37-132.36-123.37-1.29-.86-2.62-1.66-3.87-2.58-29.24-21.45-57.49-44.41-87.87-64.09A747 747 0 0 0 0 241.73"/></svg>