<svg id="Calque_5" xmlns="http://www.w3.org/2000/svg" xmlns:xlink="http://www.w3.org/1999/xlink" viewBox="0 0 560 500.65"><defs><linearGradient id="Dégradé_sans_nom_25" x1="194.73" y1="357" x2="262.78" y2="358.78" gradientUnits="userSpaceOnUse"><stop offset="0" stop-color="#191818"/><stop offset=".27" stop-color="#5b5958"/><stop offset=".62" stop-color="#adaaa9"/><stop offset=".88" stop-color="#e1dedc"/><stop offset="1" stop-color="#f6f2f0"/></linearGradient><linearGradient id="Dégradé_sans_nom_23" x1="200.84" y1="369.89" x2="254.72" y2="371.3" gradientUnits="userSpaceOnUse"><stop offset="0" stop-color="#191818"/><stop offset=".27" stop-color="#5b5958"/><stop offset=".62" stop-color="#adaaa9"/><stop offset=".88" stop-color="#e1dedc"/><stop offset="1" stop-color="#f6f2f0"/></linearGradient><linearGradient id="Dégradé_sans_nom_25-2" x1="219.94" y1="377.29" x2="264.02" y2="378.45" xlink:href="#Dégradé_sans_nom_25"/><linearGradient id="Dégradé_sans_nom_25-3" x1="377.33" y1="356.59" x2="309.27" y2="358.37" xlink:href="#Dégradé_sans_nom_25"/><linearGradient id="Dégradé_sans_nom_23-2" x1="371.22" y1="369.48" x2="317.34" y2="370.89" xlink:href="#Dégradé_sans_nom_23"/><linearGradient id="Dégradé_sans_nom_25-4" x1="352.12" y1="376.88" x2="308.04" y2="378.04" xlink:href="#Dégradé_sans_nom_25"/><radialGradient id="Dégradé_sans_nom_13" cx="258.16" cy="325.37" fx="258.16" fy="325.37" r="14.04" gradientTransform="rotate(1.5 276.44 252.33)" gradientUnits="userSpaceOnUse"><stop offset="0" stop-color="#fdec51"/><stop offset=".17" stop-color="#f8e54d"/><stop offset=".39" stop-color="#ebd545"/><stop offset=".64" stop-color="#d6b937"/><stop offset=".91" stop-color="#b89224"/><stop offset=".99" stop-color="#af861e"/></radialGradient><radialGradient id="Dégradé_sans_nom_13-2" cx="194.31" cy="327.04" fx="194.31" fy="327.04" r="14.04" gradientTransform="rotate(178.5 251.4 -.28)scale(1 -1)" xlink:href="#Dégradé_sans_nom_13"/><style>.cls-10,.cls-11,.cls-2,.cls-9{stroke-width:0}.cls-2{fill:#292425}.cls-15{fill:none;stroke:#191818}.cls-15,.cls-16{stroke-miterlimit:10}.cls-9{fill:#191818}.cls-10{fill:#ccc}.cls-11{fill:#f6f2f0}.cls-16{fill:#ebebeb;stroke:#ccc;stroke-width:.8px}</style></defs><path fill="#ebebeb" stroke-width="0" d="M0 1.32V499.3h560V1.32z"/><path class="cls-2" d="M557 334.3a319 319 0 0 0-17.98-27.54A739 739 0 0 1 557 322.35z"/><path class="cls-2" d="M524.71 291.44c.28 2.07 1.23 3.26 2.2 4.45a314 314 0 0 1 33.1 49.97V321a745 745 0 0 0-29.8-25.4c-1.79-1.44-3.66-2.78-5.49-4.16ZM86.4 248.36a900 900 0 0 1 16.35-20.18c55.64-66.27 113.78-117.81 177.75-157.55 55.79-34.66 110.93-56.18 168.57-65.8 2.92-.49 6.12-.49 8.94-.49l98.98-.01v98.06a487 487 0 0 0-10.61-.12c-7.46 0-14.28.19-20.27.57-111.03 7.05-218.07 34.7-318.13 82.17-9.01 4.27-18.66 7.76-27.99 11.12a400 400 0 0 0-22.84 8.78c-24.98 10.79-48.71 25.36-70.75 43.44Z"/><path class="cls-2" d="M554 7.32v92.01q-3.92-.06-7.61-.06c-7.52 0-14.41.19-20.46.58a879 879 0 0 0-163.54 25.89 873 873 0 0 0-155.69 56.57c-8.88 4.21-18.46 7.67-27.72 11.01-7.58 2.74-15.42 5.57-23.01 8.85a294 294 0 0 0-51.74 28.94l.83-.99C160.49 164.09 218.4 112.76 282.1 73.19 337.55 38.74 392.34 17.35 449.58 7.8c2.67-.45 5.74-.45 8.45-.45l95.98-.01M560 1.32l-101.98.01a57 57 0 0 0-9.43.53C387.4 12.07 331.35 35.51 278.93 68.08c-68.5 42.55-126.81 96.64-178.47 158.17-10.78 12.84-20.99 26.17-31.46 39.27 2.41-.11 3.71-1.2 4.96-2.35 25.07-23.14 53.06-41.97 84.39-55.5 16.73-7.22 34.5-12.15 50.93-19.95 100.46-47.66 206.17-74.85 317.04-81.89q8.76-.56 20.08-.57 6.42 0 13.61.19z"/><path class="cls-2" d="M557 223.1c-62.41-20.59-125.37-32.72-187.22-36.07-8.79-.48-17.75-2.14-26.42-3.74a384 384 0 0 0-15.37-2.63 304 304 0 0 0-42.89-3.04c-11.9 0-23.98.7-36.09 2.1 94.2-35.05 193.49-52.82 295.32-52.82 4.19 0 8.44.03 12.66.09v96.1Z"/><path class="cls-2" d="M544.34 129.9q4.8 0 9.66.05v89c-61.37-19.89-123.25-31.63-184.06-34.93-8.59-.47-17.06-2.03-26.03-3.7-5.05-.94-10.28-1.9-15.49-2.65a309 309 0 0 0-57.04-2.76 835 835 0 0 1 118.11-30.99 854 854 0 0 1 154.86-14.03m-.01-5.99c-105.46 0-207.98 18.64-307.24 57.14-2.55.99-5.06 2.07-7.59 3.11a4.7 4.7 0 0 0 3.71.83 316 316 0 0 1 51.89-4.35q21.21-.01 42.47 3.01c14.04 2 27.96 5.63 42.05 6.4 65.34 3.54 128.66 16.51 190.38 37.23V124.05a909 909 0 0 0-15.66-.14Z"/><path class="cls-2" d="M557 303.73c-5.5-4.24-11.19-8.3-16.72-12.25-4.88-3.48-9.93-7.08-14.77-10.76a2298 2298 0 0 1-43.05-33.5 348 348 0 0 0-71.71-44.13A738 738 0 0 1 557 243.74z"/><path class="cls-2" d="M431.2 209.93A733 733 0 0 1 554 245.79v51.91c-3.99-2.97-8.03-5.84-11.98-8.66-4.86-3.47-9.89-7.06-14.69-10.7a2282 2282 0 0 1-42.99-33.45 347 347 0 0 0-53.13-34.96m-41.41-12.58c33.03 13.19 63.28 30.26 90.79 52.23a2291 2291 0 0 0 43.11 33.54c10.76 8.17 22.07 15.64 32.72 23.96l3.58 2.83v-68.2a738 738 0 0 0-154.29-42.49 169 169 0 0 0-8.04-1.09c-2.62-.31-5.25-.52-7.87-.78M3 4.27c16.04.05 33.22.07 55.16.07h31.73l31.74-.01h4.66a3955 3955 0 0 1-12.71 20.37C102.13 42.97 91.32 60.23 81 78.32 46.18 139.38 20.55 198.77 3 259.19z"/><path class="cls-2" d="M6 7.27c15.2.04 31.6.06 52.19.06L90 7.32l30.91-.01q-4.98 8-9.86 15.77C100.09 40.57 88.76 58.66 78.4 76.81 47.16 131.6 23.29 185.04 6 239.08zM0 1.26v280.23C18.23 210.74 47.09 143.83 83.61 79.8c15.04-26.37 31.68-51.84 48.06-78.48h-9.87l-63.6.02q-29.1 0-58.19-.08ZM3 321.8c20.28-79.82 54.41-155.85 104.33-232.42C121 68.41 136.2 47.89 150.91 28.04c4.93-6.66 10.04-13.55 15.01-20.35 1.17-1.6 3.98-3.18 5.68-3.18 42.82-.17 85.45-.2 121.49-.2l56.54.01-2.6 1.27a781 781 0 0 0-27.32 13.79c-58.88 31.64-113.37 74.4-166.59 130.72-38.76 41.02-72.9 84.93-101.46 130.5-2.92 4.66-6.49 8.85-10.27 13.29-2.4 2.82-4.88 5.73-7.16 8.75-8.37 11.1-18.85 29.5-31.22 54.81z"/><path class="cls-2" d="M293.23 7.31h43.46a599 599 0 0 0-18.41 9.42c-59.17 31.79-113.91 74.74-167.35 131.3C112.03 189.2 77.78 233.26 49.11 279c-2.8 4.47-6.31 8.58-10.01 12.93-2.43 2.85-4.94 5.8-7.27 8.89-7.15 9.49-15.81 24.2-25.83 43.88v-22.54a720 720 0 0 1 42.11-119.33c16.95-37.37 37.72-75 61.73-111.82 13.62-20.89 28.8-41.38 43.48-61.19 4.94-6.66 10.04-13.55 15.02-20.36a6.3 6.3 0 0 1 3.27-1.95c42.85-.17 85.53-.19 121.62-.19m0-6.01c-40.55 0-81.1.03-121.65.2-2.75.01-6.42 2.13-8.09 4.41-19.8 27.1-40.36 53.73-58.67 81.82C57.55 160.25 21.24 237.67 0 321.42v49.2c10.65-22.53 24.75-50.43 36.62-66.17 5.69-7.55 12.59-14.29 17.58-22.25 29.31-46.77 63.22-89.95 101.09-130.03 48.77-51.62 103.01-96.38 165.83-130.14 13.01-6.99 26.42-13.25 40.71-20.38-2.09-.17-3.09-.32-4.1-.32l-64.51-.01ZM350.46 324.9a51 51 0 0 1 2.79 16.6c0 10.01-3.14 19.76-8.31 27.98-2.71 13.64-10.94 34.67-5.26 47.74s10.79 23.29 10.79 39.49c0 9.85 7.28 15.97 13.34 42.23H207.2c.37-14.65.64-29.6.64-41.95 0-35.51 15.91-43.75 20.45-51.29 4.53-7.55.3-19.44 0-34.87h-.01a52 52 0 0 1-9.19-29.33 51 51 0 0 1 2.84-16.74c1.19-3.58-3-16.14-6.94-28.69 2.97 3.49 8.2 11.3 17.41 10.75 5.83-7.02 11.87-11.6 20.67-15.78 1.52-5.3 1.41-12.39-4.1-21.88 6.3 8.17 11.54 14.34 37.2 14.34 22.43 0 26.71 1.33 40.93-11.47-.68.74-9.11 10.23-7.01 19.42a72 72 0 0 1 22.35 18.47c8.42-.15 15.83-8.82 16.63-13.33-2.19 12.64-2.09 21.8-8.61 28.31"/><path class="cls-9" d="M248.97 269.16c5.51 9.49 5.62 16.58 4.1 21.88-8.8 4.18-14.84 8.76-20.67 15.78-9.21.55-14.44-7.26-17.41-10.75a358 358 0 0 1-3.74-12.57c-4.21-15.57-6.65-49.78 24.48-27.81 6.57 4.64 10.05 9.31 13.25 13.47ZM342.53 257.07c22.87-22.83 23.59 14.87 20.91 22.44a103 103 0 0 0-4.35 16.99l-.02.09c-.8 4.51-8.21 13.18-16.63 13.33a72 72 0 0 0-22.35-18.47c-2.1-9.19 6.33-18.68 7.01-19.42l.04-.05a464 464 0 0 0 15.39-14.91"/><path class="cls-15" d="M350.25 324.28c1.95 5.44 3 11.22 3 17.22 0 10.01-3.14 19.76-8.31 27.98M320.09 291.44a72 72 0 0 1 22.36 18.47M232.4 306.82c5.83-7.01 11.87-11.6 20.67-15.78M228.28 370.82a52 52 0 0 1-9.19-29.32c0-6.15 1.11-12.08 3.16-17.65"/><path class="cls-15" d="M221.89 324.9c1.8-4.53-6.44-25.84-10.65-41.41s-6.66-49.78 24.48-27.8c19.5 13.77 11.76 27.8 50.46 27.8 28.89 0 27.67 2.2 56.36-26.43 22.87-22.83 23.59 14.87 20.91 22.45-7.73 21.89-3.82 36.24-12.98 45.39"/><path class="cls-15" d="M327.14 271.98s-9.24 9.9-7.05 19.47M248.97 269.15c5.51 9.5 5.62 16.59 4.1 21.88M214.98 296.05c2.97 3.49 8.19 11.31 17.42 10.76M359.09 296.5c-.72 4.48-8.16 13.27-16.64 13.42"/><path d="M287.9 365.58c16.06-9.44 12.1-24.05 1.05-17.06a1.9 1.9 0 0 1-2.11-.05c-10.71-7.56-16.11 6.81-.59 17.07.48.32 1.15.34 1.65.04" stroke-width="0" fill="#4c4345"/><path d="M270.84 325.25c-.19 7.43-6.88 13.29-14.93 13.08s-14.23-13.84-14.23-13.84 6.88-13.29 14.93-13.08 14.42 6.41 14.23 13.84" stroke-width="0" fill="url(#Dégradé_sans_nom_13)"/><path class="cls-9" d="M270.84 325.25c-.05 7.43-7.06 13.23-14.27 13.33-7.47.11-12.3-8.03-15.37-13.88l-.11-.23.12-.22c3.36-5.68 8.62-13.56 16.07-13.06 7.19.47 13.89 6.63 13.55 14.06Zm0 0c.27-7.37-6.48-13.39-13.58-13.56-6.94-.27-12.05 7.69-15.13 13.04l.01-.45c2.79 5.5 7.48 13.72 14.42 13.81 7.11.2 14.16-5.46 14.27-12.84Z"/><path class="cls-2" d="M260.74 324.95c0 5.1-3.92 9.24-3.92 9.24s-3.92-4.14-3.92-9.24 3.92-9.24 3.92-9.24 3.92 4.14 3.92 9.24"/><circle class="cls-11" cx="259.55" cy="320.39" r="1.31"/><path d="M302.44 325.25c.19 7.43 6.88 13.29 14.93 13.08s14.23-13.84 14.23-13.84-6.88-13.29-14.93-13.08-14.42 6.41-14.23 13.84" stroke-width="0" fill="url(#Dégradé_sans_nom_13-2)"/><path class="cls-9" d="M302.44 325.25c.12 7.37 7.17 13.03 14.27 12.84 6.95-.09 11.63-8.31 14.42-13.81l.01.45c-3.07-5.34-8.18-13.31-15.12-13.04-7.11.17-13.85 6.2-13.58 13.56m0 0c-.34-7.42 6.36-13.59 13.55-14.06 7.45-.5 12.71 7.37 16.07 13.06l.12.22-.11.23c-3.06 5.85-7.9 13.98-15.37 13.88-7.2-.09-14.22-5.89-14.27-13.33Z"/><path class="cls-2" d="M312.55 324.95c0 5.1 3.92 9.24 3.92 9.24s3.92-4.14 3.92-9.24-3.92-9.24-3.92-9.24-3.92 4.14-3.92 9.24"/><ellipse class="cls-11" cx="312.7" cy="320.39" rx="2.34" ry="1.31"/><path d="M262.99 350.89q-4.44.04-8.87.22-4.44.14-8.86.43c-5.9.38-11.79.86-17.63 1.71-5.85.77-11.66 1.86-17.31 3.53a49 49 0 0 0-8.24 3.13 24 24 0 0 0-7.17 5.08c1.85-2.33 4.34-4.08 6.93-5.53a49 49 0 0 1 8.23-3.44c5.66-1.85 11.53-2.93 17.4-3.79q8.84-1.15 17.73-1.47c5.92-.2 11.86-.21 17.77.14Z" stroke-width="0" fill="url(#Dégradé_sans_nom_25)"/><path d="M254.91 357.52c-2.37.87-4.76 1.68-7.12 2.58q-3.55 1.27-7.08 2.65c-4.7 1.81-9.39 3.66-13.99 5.71a168 168 0 0 0-13.6 6.52 75 75 0 0 0-6.47 3.85c-2.06 1.42-4.11 2.91-5.75 4.84 1.47-2.08 3.48-3.68 5.46-5.25a74 74 0 0 1 6.38-4.13c4.38-2.54 8.96-4.71 13.58-6.77a211 211 0 0 1 28.6-10Z" stroke-width="0" fill="url(#Dégradé_sans_nom_23)"/><path d="M264.31 360.8a167 167 0 0 0-13.42 5.54 97 97 0 0 0-12.65 7 56 56 0 0 0-11.04 9.22 32 32 0 0 0-7.21 12.38 26 26 0 0 1 2.48-6.85 35 35 0 0 1 4.13-6.05c3.16-3.75 7.04-6.82 11.07-9.55a89 89 0 0 1 12.89-6.86q3.36-1.43 6.79-2.66 3.44-1.2 6.96-2.16Z" stroke-width="0" fill="url(#Dégradé_sans_nom_25-2)"/><path d="M309.07 350.48c5.91-.35 11.85-.35 17.77-.14q8.89.32 17.73 1.47c5.87.86 11.74 1.94 17.4 3.79 2.82.93 5.61 2.01 8.23 3.44 2.59 1.45 5.08 3.2 6.93 5.53a24 24 0 0 0-7.17-5.08 49 49 0 0 0-8.24-3.13 114 114 0 0 0-17.31-3.53 231 231 0 0 0-17.63-1.71q-4.42-.29-8.86-.43-4.44-.18-8.87-.22Z" stroke-width="0" fill="url(#Dégradé_sans_nom_25-3)"/><path d="M317.15 357.11a212.83 212.83 0 0 1 28.6 10c4.62 2.06 9.2 4.23 13.58 6.77a74 74 0 0 1 6.38 4.13c1.98 1.57 3.99 3.17 5.46 5.25a29 29 0 0 0-5.75-4.84 72 72 0 0 0-6.47-3.85 171 171 0 0 0-13.6-6.52 279 279 0 0 0-13.99-5.71q-3.52-1.37-7.08-2.65c-2.36-.9-4.75-1.7-7.12-2.58Z" stroke-width="0" fill="url(#Dégradé_sans_nom_23-2)"/><path d="M307.75 360.39c2.34.63 4.66 1.38 6.96 2.16q3.43 1.23 6.79 2.66a88 88 0 0 1 12.89 6.86c4.04 2.73 7.91 5.8 11.07 9.55a36 36 0 0 1 4.13 6.05 26 26 0 0 1 2.48 6.85 32 32 0 0 0-7.21-12.38 56 56 0 0 0-11.04-9.22c-4-2.69-8.29-4.93-12.65-7a167 167 0 0 0-13.42-5.54Z" stroke-width="0" fill="url(#Dégradé_sans_nom_25-4)"/><ellipse class="cls-11" cx="275.25" cy="439.72" rx="23.38" ry="10.64" transform="rotate(-19.3 275.27 439.73)"/><path class="cls-16" d="M292.06 422.81c-6.9.34-18.4-.71-20.22-2.83-3.15-5.33-2.7-22.54.35-25.5 4.28-2.4 14.57-1.47 19.86 1.42-2.26 3.77-4.54 16.48 0 26.92Z"/><path class="cls-16" d="M324.81 441.97c-5.11 1.62-31.73-13.62-32.75-19.16-4.54-10.44-2.26-23.15 0-26.92 1.73-2.34 27.46-13.04 32.1-12.74 7.69.5 11.04 55.53.66 58.82ZM271.84 419.98c-7.14 2.82-26.61 22.11-33.03 13.93-8.79-11.19-5.21-52.53 2.63-52.42 3.74.06 22.98 12.51 30.75 12.99-3.06 2.97-3.5 20.18-.35 25.5Z"/><path class="cls-10" d="M242.6 395.18c3.3 2.08 7.06 3.18 10.73 4.39 3.22 1.02 7.89 2.38 11.18 3.35a70 70 0 0 1-11.42-2.59c-3.67-1.24-7.53-2.55-10.49-5.15M243.42 421.21c2.05-2.87 5.51-4.32 8.64-5.69a52 52 0 0 1 9.98-2.9l-4.87 1.79c-3.22 1.21-6.44 2.42-9.51 3.94a16 16 0 0 0-4.24 2.86M296.64 400.28c3.49-.47 8.27-2.31 11.66-3.37 3.4-1.13 8.18-2.78 11.58-3.81a103 103 0 0 1-11.32 4.57c-3.87 1.2-7.82 2.61-11.91 2.61ZM296.64 414.12c4.79.38 8.92 3.32 12.91 5.75a95 95 0 0 1 11.19 8.75c-3.44-2.4-8.18-5.82-11.64-8.08-3.93-2.49-7.85-5.41-12.46-6.42"/></svg>