<svg id="Calque_4_-_copie" xmlns="http://www.w3.org/2000/svg" viewBox="0 0 560 500.65"><defs><style>.cls-2{stroke-width:0;fill:#292425}</style></defs><path fill="#ebebeb" stroke-width="0" d="M0 1.99v497.3h560V1.36z"/><path class="cls-2" d="M3 496.29V108.87c88.8 98.68 181.05 169.98 274.29 211.98 76.04 34.25 131.88 38.98 152.9 40.76q4.05.33 6.5.6c42.87 4.95 82.26 7.49 120.31 7.77v126.31z"/><path class="cls-2" d="M6 116.66c87.47 96.01 178.27 165.58 270.06 206.94 76.51 34.46 132.72 39.22 153.88 41.01q4.02.33 6.41.59c41.85 4.83 80.41 7.38 117.65 7.77V493.3H6zm-6-15.64v398.27h560V367c-40.94-.17-81.89-3.03-122.96-7.77-29.02-3.35-211.36-4.29-437.04-258.21M557 152.28c-25.65-24.71-50.27-52.26-75.09-84.04A2396 2396 0 0 1 433.6 4.5l74.16-.08a724 724 0 0 0 36.65 81.82c3.71 7.06 6.55 14.85 9.29 22.38 1.06 2.92 2.16 5.94 3.3 8.9z"/><path class="cls-2" d="M505.68 7.42a725 725 0 0 0 36.07 80.21c3.62 6.88 6.29 14.23 9.12 22 1.01 2.76 2.04 5.61 3.12 8.43v27.11c-23.73-23.33-46.63-49.22-69.72-78.78a2475 2475 0 0 1-44.77-58.9zm4.16-6-82.12.09a2355 2355 0 0 0 51.83 68.58c24.79 31.74 51.35 61.73 80.45 89.2v-42.33c-4.19-10.78-7.59-21.95-12.93-32.11a716 716 0 0 1-37.23-83.42ZM534.16 39.44A758 758 0 0 1 521.41 4.4h9.76a348 348 0 0 0 2.99 35.04"/><path class="cls-2" d="M528.28 7.4q.2 4.54.51 9.13a617 617 0 0 1-3.19-9.13zm5.8-6.01-16.83.02a761 761 0 0 0 19.8 53.21q.9 2.2 1.92 4.32c.65 1.33 1.41 2.61 2.12 3.91-3.99-20.46-6.5-40.9-7-61.45ZM557 237.53a800 800 0 0 1-217.4-129.18l-.1-.08c-.49-.37-48.57-37.32-109.41-103.55l170.64-.19c36.62 47.65 79.48 94.83 127.41 140.26a739 739 0 0 0 28.86 26v66.73Z"/><path class="cls-2" d="M399.25 7.54c36.52 47.37 79.18 94.27 126.82 139.43A746 746 0 0 0 554 172.18v60.92a797 797 0 0 1-212.48-127.05l-.1-.08-.1-.08c-16.26-12.42-57.81-48.1-104.38-98.17zm2.95-6-178.91.2c63.94 70.41 114.39 108.92 114.39 108.92A803 803 0 0 0 560 241.94v-72.52a731 731 0 0 1-29.8-26.8c-45.45-43.08-89.34-90.64-128-141.08"/><path class="cls-2" d="M557 345.38c-74.41-2.79-149.09-14.87-210.62-34.09-1.88-.59-3.78-1.03-5.62-1.46q-1.1-.25-2.2-.53c-84.11-31.12-171.02-99.85-229.13-152.04C50.83 104.63 9 57.85 3 51.07V4.98l183.85-.21c52.1 56.89 106.43 105.23 149.2 132.74 26.97 17.65 60.89 38.03 106.74 64.13a789 789 0 0 0 114.2 53.56v90.16Z"/><path class="cls-2" d="M185.54 7.78C237.53 64.42 291.7 112.55 334.4 140.02c27.04 17.69 61.02 38.11 106.92 64.24a793 793 0 0 0 112.69 53.03v84.96c-73.12-3-146.3-14.96-206.72-33.83a81 81 0 0 0-5.83-1.52l-2-.48c-36.78-13.63-77.2-35.6-120.14-65.29-34.58-23.91-70.83-52.85-107.76-86C55.05 104.41 14.13 59.07 6 49.93V7.98zm2.64-6L0 1.99V52.2s173.91 199.45 337.68 259.97c2.61.65 5.25 1.18 7.81 1.98 67.26 21.01 144.04 31.93 214.51 34.33v-95.35a782 782 0 0 1-115.72-54.08c-34-19.36-73.8-42.59-106.6-64.05-42.61-27.41-96.53-75.25-149.5-133.22"/></svg>