<svg id="Calque_4" xmlns="http://www.w3.org/2000/svg" viewBox="0 0 560 500.65"><defs><style>.cls-2,.cls-3{stroke-width:0}.cls-2{fill:#292425}.cls-4{stroke-width:1.12px}.cls-4,.cls-5,.cls-6{fill:none;stroke:#191818;stroke-miterlimit:10}.cls-6{stroke-width:.93px}.cls-3{fill:#191818}</style></defs><path fill="#ebebeb" stroke-width="0" d="M0 1.9h560v497.88H0z"/><path class="cls-2" d="m416.59 496.78.9-1.19c42.57-58.31 76.48-114.14 103.67-170.68 14.33-29.79 26.13-58.09 35.84-85.98v257.85zm-275.3 0q2.89-1.29 5.93-2.86c83.09-43.1 152.52-86.18 212.26-131.71 58.68-44.73 101.8-86.19 135.69-130.5 6.3-8.24 13.26-16.26 20-24.01 4.87-5.6 9.9-11.4 14.67-17.26a306 306 0 0 0 27.17-39.36v45.2c-13.29 42.58-31.62 85.58-56.03 131.44-28.25 53.09-62.52 105.16-104.76 159.19a754 754 0 0 0-6.63 8.61q-.46.65-.63 1.27H141.3ZM3 496.78V370.5h.98c33.69 0 66.7-1.88 98.11-5.57 88.08-10.37 175.19-32.55 258.92-65.94A372 372 0 0 1 383.9 291c8.25-2.68 16.77-5.45 24.96-8.81 19.03-7.81 37.76-18.02 56.75-30.94-27.8 29.36-60.17 57.56-98.8 86.07-67.83 50.07-147.22 95.95-242.68 140.26l-5.73 2.65c-11.01 5.08-22.4 10.33-33.61 16.57H3Z"/><path class="cls-2" d="M554 161.85v33.97c-13.23 42.26-31.45 84.96-55.68 130.49-28.17 52.94-62.34 104.86-104.47 158.75a684 684 0 0 0-6.66 8.64l-.06.08H153.98c80.87-42.25 148.73-84.54 207.31-129.19 58.9-44.89 102.2-86.54 136.26-131.07 6.25-8.17 13.17-16.14 19.88-23.86 4.88-5.62 9.93-11.43 14.73-17.34A308 308 0 0 0 554 161.84m0 94.21v237.73H422.51c41.46-57.16 74.64-112.02 101.35-167.57A854 854 0 0 0 554 256.05m-108.77 11.54c-23.4 22.71-49.86 44.91-80.2 67.3-67.67 49.95-146.88 95.73-242.16 139.95l-5.7 2.64c-10.85 5-22.06 10.18-33.15 16.31H6V373.51c33.1-.07 65.54-1.95 96.44-5.59 88.34-10.4 175.71-32.65 259.68-66.13a374 374 0 0 1 22.71-7.93c8.3-2.7 16.88-5.49 25.17-8.89a294 294 0 0 0 35.23-17.36M560 139.49a300 300 0 0 1-32.49 49.05c-11.36 13.96-23.8 27.06-34.72 41.34-38.42 50.23-85.13 91.84-135.13 129.94-66.36 50.58-137.82 93.05-211.82 131.44-9.99 5.18-19.8 8.52-30.73 8.52q-2.28 0-4.64-.2c-3.06-.26-6.14-.34-9.23-.34-5.02 0-10.06.21-15.09.21 13.06-7.27 26.2-13.12 39.24-19.17 85.28-39.58 167.4-84.61 243.2-140.56 36.91-27.25 71.74-56.83 103-90.48 2.61-2.8 5.08-5.73 7.59-8.63q3.45-4.02 6.88-8.07c-24.31 19.04-50.02 35.24-78.34 46.87-15.61 6.41-32.14 10.54-47.82 16.8-83.2 33.18-169.19 55.28-258.16 65.75a835 835 0 0 1-97.75 5.55H0V499.8h560V220.46c-11.24 35.24-25.38 69.53-41.55 103.15-28.9 60.1-64.1 116.4-103.39 170.21-1.61 2.2-3.95 5.02-6.26 5.34-2.4.33-4.83.43-7.29.43-3.32 0-6.69-.17-10.1-.17.33-1.3.33-1.78.56-2.09a780 780 0 0 1 6.6-8.57c39.37-50.35 75-103.16 105.04-159.62 22.73-42.72 42.13-86.64 56.38-132.4zM39.23 190.06A630 630 0 0 1 3 158.47v-26.65c9.27 19.4 21.23 38.63 36.23 58.24"/><path class="cls-2" d="M6 144.41a322 322 0 0 0 16.87 28.01A644 644 0 0 1 6 157.18zm-6-26.97v42.33a619 619 0 0 0 51.69 43.82c1.75 1.32 3.61 2.51 5.42 3.76-21.6-25.27-40.24-52-53.81-82.01q-1.75-3.9-3.3-7.91ZM167.62 284.97A819 819 0 0 1 3 240.37v-64.03c23.1 19.22 45.68 35.24 68.84 48.85 6.19 3.64 11.68 8.33 17.48 13.29 3.7 3.17 7.53 6.44 11.53 9.39a303 303 0 0 0 66.77 37.1"/><path class="cls-2" d="M6 182.7c21.52 17.54 42.66 32.35 64.32 45.08 5.96 3.5 11.35 8.11 17.05 12.98 3.74 3.2 7.61 6.51 11.71 9.53a303 303 0 0 0 45.13 27.48 814 814 0 0 1-138.2-39.46zM0 169.9v72.52a822 822 0 0 0 192.85 49.27 11 11 0 0 0-3.85-2.18 301 301 0 0 1-86.37-44.06c-9.97-7.34-18.69-16.64-29.27-22.85C47.18 207.22 22.94 189.38 0 169.9"/><path class="cls-2" d="M30.99 346.51c-9.3 0-18.71-.15-27.99-.43v-88.16a747 747 0 0 0 190.83 42.14c10.02.87 20.21 2.05 30.07 3.2 19.61 2.28 39.89 4.65 60.08 4.65 5.73 0 11.32-.19 16.64-.57a687 687 0 0 1-12.64 3.61c-86.39 23.6-172.85 35.56-256.98 35.56Z"/><path class="cls-2" d="M6 262.18a750 750 0 0 0 187.57 40.86c9.97.86 20.15 2.05 29.98 3.19 17.4 2.03 35.33 4.12 53.31 4.57-82.7 21.7-165.35 32.69-245.87 32.69-8.3 0-16.69-.12-24.99-.35v-80.98m-6-8.54v95.35l2.44.09q14.3.45 28.55.45c87.38 0 173.24-12.58 257.78-35.67 11.89-3.25 23.65-6.95 35.46-10.45q-2.27-.1-4.52-.1c-6.24 0-12.34.52-18.44.99q-8.67.64-17.29.63c-30.14 0-59.96-5.25-89.89-7.84A741 741 0 0 1 0 253.62M418.9 138.43c23.7 27.08 9.82 47.39 6.43 51.95-3.38 4.57-24.71 21.16-62.46 21.66 7.42-10.47 14.47-22.52 19.67-35.42 5.74-2.14 7.61-4.31 7.07-24.27 2.03-11.57 2.08-23.44-.74-35.2.23-.2 6.78-5.29 30.03 21.28"/><path class="cls-2" d="M307.32 191.78c-.96-8.93-8.78-16.52-19.13-17.82-11.86-1.49-22.55 5.86-23.88 16.42s7.21 20.33 19.08 21.82 22.55-5.86 23.88-16.42q.25-2.03.05-4m55.55 20.26a205 205 0 0 1-19.21 23.3s-14.88 11.5-16.1 19.19c0-8.34-10.65-15.11-23.78-15.11-7.65 0-14.45 2.3-18.8 5.86-3.59-.28-8.49-1.93-20.06-5.66.83 16.33 1.86 30.79 2.19 35.42-1.22-7.62-11.35-13.56-23.66-13.56-8.09 0-15.23 2.56-19.53 6.49 6.32-9.43 8.83-19.28 8.75-32.09-.06-11.07-2.06-24.34-5.22-41.46-6.82-36.93-14.21-56.54-14.49-73.59-.29-17.04 3.69-40.06-7.67-59.24.18-6.12 1.22-32.55 1.91-60.05h156.61c3.73 16.15 7.01 39.92 7.87 76.86a16 16 0 0 0 3.15 9.22 80 80 0 0 1 14.04 29.53c2.82 11.76 2.77 23.63.74 35.2a121 121 0 0 1-7.07 24.27c-5.2 12.9-12.25 24.95-19.67 35.42"/><path class="cls-2" d="M303.78 239.42c13.13 0 23.78 6.77 23.78 15.11s-10.65 15.11-23.78 15.11S280 262.88 280 254.53c0-3.48 1.86-6.69 4.98-9.25 4.35-3.56 11.15-5.86 18.8-5.86M307.32 191.78a16 16 0 0 0-.05 4c-1.33 10.56-12.02 17.92-23.88 16.42-11.87-1.49-20.41-11.26-19.08-21.82s12.02-17.91 23.88-16.42c10.35 1.3 18.17 8.89 19.13 17.82M267.12 275.15l.11 1.44c0 8.34-10.65 15.11-23.78 15.11s-23.78-6.77-23.78-15.11c0-3.21 1.57-6.18 4.25-8.62 4.3-3.93 11.44-6.49 19.53-6.49 12.31 0 22.44 5.94 23.66 13.56zM227.45 194.42c3.16 17.12 5.16 30.39 5.22 41.46-10.4 8.74-27.64 8.57-33.14 8.27 8.4.27 15.67-5.22 16.63-12.88 1.03-8.19-5.53-15.76-14.65-16.9l-.68-.06c7.84-1.01 17.46-3.1 20.65-8.1-45.74-31.39-35.45-84.38-32.39-99.44 3.12-15.32 15.91-35.8 16.2-45.18 11.36 19.18 7.38 42.2 7.67 59.24.28 17.05 7.67 36.66 14.49 73.59"/><path class="cls-2" d="M201.51 214.37c9.12 1.14 15.68 8.71 14.65 16.9-.96 7.66-8.23 13.15-16.63 12.88a29 29 0 0 1-1.75-.13c-9.13-1.14-15.69-8.71-14.66-16.9.73-5.78 5.05-10.33 10.74-12.1 1.92-.17 4.34-.38 6.97-.71q.34.01.68.06"/><ellipse class="cls-4" cx="243.45" cy="276.59" rx="23.78" ry="15.11"/><ellipse class="cls-4" cx="303.78" cy="254.53" rx="23.78" ry="15.11"/><ellipse cx="285.79" cy="193.08" rx="19.27" ry="21.65" transform="rotate(-82.8 285.8 193.08)" fill="none" stroke="#191818" stroke-miterlimit="10" stroke-width="1.21"/><ellipse class="cls-6" cx="199.64" cy="229.19" rx="14.95" ry="16.65" transform="rotate(-82.8 199.65 229.2)"/><path class="cls-6" d="M197.78 244.02s22.4 2.37 34.9-8.14"/><path class="cls-5" d="M193.86 215.02c7.64-.66 23.36-2.13 27.62-8.81-45.74-31.39-35.45-84.38-32.39-99.44 3.11-15.32 15.91-35.8 16.2-45.18.19-6.19 1.22-32.2 1.91-60.06"/><path class="cls-3" d="M205.33 61.57c12.06 20.22 6.8 42.67 8.24 64.67 1.42 13.13 5.17 25.86 8.08 38.72a560 560 0 0 1 9.98 51.91c1.58 13.03 2.7 26.75-1.67 39.38a51 51 0 0 1-6.01 11.76l-.08-.06c10.11-15.01 9.31-33.8 6.77-50.95a631 631 0 0 0-9.77-51.86c-2.84-12.89-6.54-25.67-7.88-38.85-1.34-22.84 4.17-43.33-7.67-64.72Z"/><path class="cls-5" d="M264.92 239.61c1.01 19.87 2.31 36.97 2.31 36.97"/><path class="cls-3" d="M362.18 1.54c-.97 12.81-1.96 25.75-.59 38.55.67 4.22 1.83 8.46 1.45 12.8-.53 8.63-3.25 16.95-6.39 24.94-3.02 8.08-7.31 15.56-11.31 23.17l-12.21 22.69c-3.51 6.63-9.11 15.9-11.68 22.87a339 339 0 0 0-8.73 24.2c-2.41 8.13-5.4 16.65-5.51 25.03-.44-4.31.65-8.58 1.52-12.77.97-4.19 2.15-8.33 3.39-12.44q3.74-12.35 8.41-24.38c2.57-6.99 8.21-16.32 11.74-22.98l12.37-22.6c4.03-7.56 8.36-15.01 11.41-23.03 3.17-7.92 5.93-16.17 6.5-24.72.41-4.32-.71-8.47-1.35-12.72-1.18-12.77-.36-26.07.98-38.6Z"/><path class="cls-5" d="M264.31 239.42c12.01 3.87 17.01 5.58 20.67 5.86M327.56 254.53c1.22-7.69 16.1-19.2 16.1-19.2 28.02-29.13 71.21-94.02 31.17-147.72a16 16 0 0 1-3.15-9.23c-.85-36.76-4.1-60.47-7.81-76.62"/><path class="cls-5" d="M382.53 176.62c5.75-2.13 7.62-4.3 7.07-24.27"/><path class="cls-5" d="M362.86 212.04c37.76-.5 59.09-17.09 62.47-21.66s17.26-24.87-6.43-51.95-30.04-21.26-30.04-21.26"/><path class="cls-3" d="M324.23 224.98c-12.91 2.23-25.48 7.5-35.34 16.24a36 36 0 0 0-3.91 4.06c8.57-12.11 24.72-19.22 39.25-20.3M264.31 190.38a260 260 0 0 1 26.62-69.39c9.68-16.54 20.77-51.87 19.77-70.91.35 3.09.28 6.21.03 9.31-.78 9.3-2.82 18.44-5.26 27.44-3.35 11.96-7.51 23.82-13.66 34.65-12.28 21.57-21.15 44.92-27.49 68.9Z"/><path class="cls-3" d="M241.94 35.43c15.57 12.48 19.82 79.04 21.49 100.36 1.01 17.31 1.83 34.65 1.43 52-.57 8.65-.97 17.29-.69 25.96q.2 12.99.76 25.98c-.52-8.65-.97-17.31-1.25-25.97-.38-8.67-.06-17.34.41-25.99a757 757 0 0 0-6.73-103.61c-2-12.42-5.79-41.05-15.41-48.73Z"/></svg>