<svg id="Calque_3" xmlns="http://www.w3.org/2000/svg" viewBox="0 0 560 500.65"><defs><style>.cls-2{stroke-width:0;fill:#292425}</style></defs><path fill="#ebebeb" stroke-width="0" d="M0 0h560v497.88H0z"/><path class="cls-2" d="M3 138.33a319 319 0 0 0 13.95-30.26q-.68 4.94-1.48 9.66A570 570 0 0 1 3 173.91z"/><path class="cls-2" d="M9.95 131.26A573 573 0 0 1 6 149.79v-10.72a300 300 0 0 0 3.95-7.81m12.12-42.4c-1.87 1.75-2.52 3.64-3.18 5.52A317 317 0 0 1 .01 137.59v57.25a584 584 0 0 0 18.43-76.6q1.23-7.34 2.14-14.71c.6-4.88 1.01-9.77 1.5-14.66ZM397.99 497.43c-27.86-1.17-47.41-1.16-71.8-1.16-25.87 0-55.19 0-103.78-1.38H62.51c.55-.98.95-1.92 1.17-2.68 2.83-9.71 5.87-19.55 8.81-29.08 7.21-23.36 14.67-47.51 19.71-71.81 13.87-66.93 18.45-134.08 13.62-199.59C101.15 128.43 87.57 64.96 65.43 3h81.34a952 952 0 0 1 11.13 18.1c21.73 36.2 41.37 74.65 60.05 117.55.67 1.53 158.69 316.42 180.05 358.79ZM3 494.88V219.03a609 609 0 0 0 21.27-88.81 554 554 0 0 0 3.38-26.88l.6-5.44c.99-8.92 2.06-17.98 3.1-26.75C33.98 48.85 36.7 25.8 38.41 3h12.88C77.2 85.38 88.56 168.14 85.07 248.99c-3.55 81.99-22.49 164.71-56.3 245.9z"/><path class="cls-2" d="M145.11 6a1081 1081 0 0 1 10.22 16.64c21.66 36.09 41.25 74.42 59.87 117.2.64 1.48 149.23 297.57 177.83 354.39-25.27-.96-43.92-.96-66.84-.96-25.85 0-55.15 0-103.7-1.38H66.9c2.73-9.31 5.64-18.74 8.46-27.87 7.24-23.42 14.72-47.64 19.78-72.09 13.92-67.2 18.52-134.64 13.67-200.42C104.22 129.31 91.06 66.94 69.67 6zM49.09 6A753 753 0 0 1 76.1 125.56a683 683 0 0 1 5.97 123.29 684 684 0 0 1-16.76 123.12c-9.15 39.85-22.11 80.18-38.55 119.91H6V219.5a612 612 0 0 0 21.24-88.8c1.43-9.01 2.43-18.16 3.4-27.02l.6-5.45c.99-8.91 2.06-17.98 3.1-26.74C36.87 50.06 39.48 27.95 41.2 6zm99.32-6H61.16c45.71 125.71 56.04 255.91 28.11 390.71-7.06 34.06-18.71 67.17-28.47 100.66-.68 2.34-3.14 5.72-5 5.87-3.71.3-7.44.39-11.26.39-4.38 0-8.88-.11-13.61-.11C100.32 331.84 106.4 166.63 53.5 0H35.62l-.06.99c-2.34 32.27-6.7 64.39-10.28 96.57-1.2 10.74-2.27 21.52-3.96 32.19A603 603 0 0 1 .01 218.56v279.32h222.32c97.26 2.77 119.5 0 180.66 2.77-.55-.97-181.84-362.19-182.28-363.21-17.65-40.54-37.47-79.98-60.23-117.9q-5.93-9.86-12.05-19.55ZM557 193.65C519.74 133.91 465.19 69.85 394.65 3H557z"/><path class="cls-2" d="M554 6v177.34C517.83 127.45 466.87 67.92 402.15 6zm6-6H387.1C455.58 64.28 518.25 134.56 560 204.31zM448.13 494.88 224.93 72.6l-6.14-9.96q-7.38-11.99-14.8-23.95A1036 1036 0 0 0 180.8 3h172.63C419.21 69.18 507.49 166.38 557 255.79v239.1z"/><path class="cls-2" d="M352.18 6c41.25 41.55 78.13 81.87 109.62 119.86 39.4 47.53 70.41 91.49 92.2 130.7v235.32H449.94L227.62 71.29l-.09-.18-.1-.17-6.12-9.93c-4.83-7.84-9.82-15.94-14.77-23.9A1053 1053 0 0 0 186.45 6zm2.5-6H175.12q13.59 19.76 26.32 40.27c6.99 11.26 13.92 22.54 20.88 33.82l224 423.79H560V255.01C511.76 167.59 427.14 72.82 354.68 0"/></svg>