<svg id="Calque_4_-_copie_2" xmlns="http://www.w3.org/2000/svg" viewBox="0 0 560 500.65"><defs><style>.cls-2{stroke-width:0;fill:#292425}</style></defs><path fill="#ebebeb" stroke-width="0" d="M560 1.73H0v498.56l560-.63z"/><path class="cls-2" d="M429.25 496.81c-35.96-49.77-63.79-94.23-85.06-135.88a50 50 0 0 0-2.74-4.55l-1.12-1.73C279.04 217.32 244.68 109.21 229.15 4.73H491.5q-1.94 7.47-3.9 14.85c-3.57 13.54-6.95 26.33-9.98 39.52-25.04 108.99-25.93 220.19-2.65 330.5a784 784 0 0 0 30.56 107.12z"/><path class="cls-2" d="m487.63 7.73-2.92 11.09c-3.42 12.96-6.96 26.37-10 39.61a768 768 0 0 0-19.61 165.76 778 778 0 0 0 16.95 166.04 791 791 0 0 0 29.22 103.51l-70.48.08c-35.43-49.14-62.9-93.08-83.92-134.24-.9-1.76-1.92-3.32-2.9-4.82l-.98-1.51c-29.29-65.64-52.07-123.82-69.64-177.86-19.16-58.93-32.5-113.86-40.71-167.65zm7.75-6.01h-269.7c17.02 117.52 57.56 232.37 112 354.33 1.29 2.08 2.73 4.07 3.84 6.24 24.24 47.46 54.27 93.41 86.2 137.51l82.12-.09a777 777 0 0 1-31.92-110.73c-23.2-109.91-22.53-219.69 2.64-329.21 4.43-19.27 9.77-38.34 14.83-58.05Z"/><path class="cls-2" d="M519.43 496.71a764 764 0 0 1-34.24-165.52c-10.21-108.51 3.3-216.39 40.15-320.64 1.7-4.81 3.34-5.99 8.35-5.99h.17q11.47.07 22.95.1h.19v276.86a704 704 0 0 0-13.11 62.64c-2.55 15.81-4.04 32.01-5.49 47.67l-.76 8.22c-1.2 12.78-2.24 25.78-3.24 38.35-.74 9.26-1.5 18.83-2.32 28.23a296 296 0 0 0-1.06 30.05h-11.6Z"/><path class="cls-2" d="M533.68 7.56h.15l20.16.09v273.49a706 706 0 0 0-13.07 62.54c-2.57 15.91-4.07 32.17-5.51 47.89l-.76 8.21c-1.21 12.8-2.24 25.81-3.24 38.4-.74 9.25-1.5 18.81-2.32 28.2a298 298 0 0 0-1.1 27.32h-6.39a761 761 0 0 1-33.43-162.79 742 742 0 0 1 2.4-161.86c6.65-52.76 19.3-105.75 37.59-157.5 1.29-3.65 1.75-3.99 5.52-3.99m0-6c-6.33 0-9.05 1.98-11.18 7.99-36.9 104.4-50.69 211.63-40.31 321.92a763 763 0 0 0 35.05 168.24l16.83-.02c-.26-10.89.03-21.82.99-32.79 1.94-22.18 3.47-44.4 5.56-66.56 1.75-18.6 3.25-37.28 6.22-55.7a693 693 0 0 1 13.15-62.74V1.67q-13.07-.04-26.13-.11zM550.41 384.55a808 808 0 0 1 6.59-36.71v22.53a1354 1354 0 0 0-6.59 14.19Z"/><path class="cls-2" d="M560 321.84a689 689 0 0 0-5.18 21.88c-4.52 20.61-7.4 41.59-11.03 62.39.32 0 6.97-15.51 16.21-35.07zM224.62 497.04C152.27 417.18 55.48 287.92 3 123.83V4.7c18.64-.21 120.75-1.31 188.04-1.34 14.76 108.68 52.88 212.35 82.37 280.4 32.21 74.31 61.4 123.39 61.69 123.88l.07.11 6.07 9.22c4.45 6.75 9.05 13.73 13.49 20.64a932 932 0 0 0 41.42 59.23z"/><path class="cls-2" d="M188.42 6.36c6.55 47.07 17.92 96.97 33.81 148.42a1276 1276 0 0 0 48.42 130.17c32.29 74.49 61.58 123.74 61.87 124.23l.06.11.07.1 6.08 9.24c4.44 6.74 9.04 13.71 13.46 20.6a930 930 0 0 0 37.95 54.62l-164.2.18c-44.42-49.13-84.19-101.39-118.25-155.36C63.6 268.8 29.39 196.36 6 123.37V7.67c24.34-.27 118.18-1.25 182.42-1.3m5.24-6.01C119.04.36 0 1.73 0 1.73V124.3c52.03 163.01 147.21 291.96 223.29 375.74l178.91-.2a934 934 0 0 1-44.95-63.85c-6.43-10.02-13.04-19.93-19.57-29.89 0 0-116.04-194.18-144.02-405.74M3 228.69c33.19 82.12 97.32 178.72 178.4 268.4l-178.4.2z"/><path class="cls-2" d="M6 243.55c34 77.8 93.94 166.99 168.68 250.54L6 494.28zm-6-31.01v287.75l188.18-.21C110.61 415.19 35.06 308.58 0 212.54"/></svg>