<?xml version="1.0" encoding="UTF-8"?><svg xmlns="http://www.w3.org/2000/svg" xmlns:xlink="http://www.w3.org/1999/xlink" viewBox="0 0 84.187 99.741"><defs><style>.uuid-04b2edce-b993-4ebb-868e-a72dfaf265d5{fill:url(#uuid-31ef218b-a265-40d6-b5aa-792189cdf946);}.uuid-04b2edce-b993-4ebb-868e-a72dfaf265d5,.uuid-1340b752-4b0c-459f-87f6-0ad447af0389,.uuid-a63f0b11-b17d-4ca5-a963-b63303c8cf78,.uuid-7b527b37-cb33-4a38-af38-e74d156c8f55,.uuid-66b5d3d9-2b12-4e64-9980-f2e5d1d601a0,.uuid-ad8896db-92e1-49c2-b822-87541bb103b9,.uuid-132f0f1a-5a38-49fe-b8a9-8eb8848abcd9,.uuid-188b485f-bd9b-45c8-9fee-db57e360de34,.uuid-28c135f4-04fa-4222-9371-e26983979b0d,.uuid-8ca4d917-c580-4398-bb8c-d36941b24ec8,.uuid-3462ee1e-13a4-4588-9137-57b3eba039c6,.uuid-abe49e0a-1c61-4efc-b6fa-de5ac1e2844e{stroke-width:0px;}.uuid-1340b752-4b0c-459f-87f6-0ad447af0389{fill:#292425;}.uuid-a63f0b11-b17d-4ca5-a963-b63303c8cf78{fill:url(#uuid-1e094555-484a-4ad1-a577-9e20551e1e25);}.uuid-7b527b37-cb33-4a38-af38-e74d156c8f55{fill:url(#uuid-9885546e-6c29-4d04-a5d8-b831aa3d02ae);}.uuid-66b5d3d9-2b12-4e64-9980-f2e5d1d601a0{fill:#4c4345;}.uuid-ad8896db-92e1-49c2-b822-87541bb103b9{fill:url(#uuid-176a8a9c-7b6a-477e-91b7-1fad0d60703d);}.uuid-132f0f1a-5a38-49fe-b8a9-8eb8848abcd9{fill:url(#uuid-1e158b81-0e92-4427-94cc-4f837fe9fc1d);}.uuid-188b485f-bd9b-45c8-9fee-db57e360de34{fill:#191818;}.uuid-28c135f4-04fa-4222-9371-e26983979b0d{fill:url(#uuid-175e435b-0d5b-4ffa-aaa4-6f5a924376a5);}.uuid-8ca4d917-c580-4398-bb8c-d36941b24ec8{fill:url(#uuid-45de3728-ef0b-42a7-b9f7-2fd9da4a5a42);}.uuid-3462ee1e-13a4-4588-9137-57b3eba039c6{fill:#f6f2f0;}.uuid-abe49e0a-1c61-4efc-b6fa-de5ac1e2844e{fill:url(#uuid-da9a8979-9c76-4c78-8f9b-d104a528c231);}</style><radialGradient id="uuid-176a8a9c-7b6a-477e-91b7-1fad0d60703d" cx="43.086" cy="38.078" fx="43.086" fy="38.078" r="7.019" gradientTransform="translate(1.314 -1.105) rotate(1.5)" gradientUnits="userSpaceOnUse"><stop offset="0" stop-color="#fdec51"/><stop offset=".165" stop-color="#f8e54d"/><stop offset=".386" stop-color="#ebd545"/><stop offset=".639" stop-color="#d6b937"/><stop offset=".914" stop-color="#b89224"/><stop offset=".992" stop-color="#af861e"/></radialGradient><radialGradient id="uuid-9885546e-6c29-4d04-a5d8-b831aa3d02ae" cx="19.734" cy="39.105" fx="19.734" fy="39.105" r="5.615" gradientTransform="translate(87.003 1.139) rotate(-178.5) scale(1 -1)" xlink:href="#uuid-176a8a9c-7b6a-477e-91b7-1fad0d60703d"/><linearGradient id="uuid-45de3728-ef0b-42a7-b9f7-2fd9da4a5a42" x1="11.023" y1="54.159" x2="45.051" y2="55.05" gradientUnits="userSpaceOnUse"><stop offset="0" stop-color="#191818"/><stop offset=".268" stop-color="#5b5958"/><stop offset=".624" stop-color="#adaaa9"/><stop offset=".877" stop-color="#e1dedc"/><stop offset="1" stop-color="#f6f2f0"/></linearGradient><linearGradient id="uuid-31ef218b-a265-40d6-b5aa-792189cdf946" x1="14.079" y1="60.601" x2="41.018" y2="61.306" gradientUnits="userSpaceOnUse"><stop offset="0" stop-color="#191818"/><stop offset=".268" stop-color="#5b5958"/><stop offset=".624" stop-color="#adaaa9"/><stop offset=".877" stop-color="#e1dedc"/><stop offset="1" stop-color="#f6f2f0"/></linearGradient><linearGradient id="uuid-175e435b-0d5b-4ffa-aaa4-6f5a924376a5" x1="23.631" y1="64.302" x2="45.667" y2="64.879" gradientUnits="userSpaceOnUse"><stop offset="0" stop-color="#191818"/><stop offset=".268" stop-color="#5b5958"/><stop offset=".624" stop-color="#adaaa9"/><stop offset=".877" stop-color="#e1dedc"/><stop offset="1" stop-color="#f6f2f0"/></linearGradient><linearGradient id="uuid-1e158b81-0e92-4427-94cc-4f837fe9fc1d" x1="61.239" y1="60.116" x2="84.535" y2="60.726" gradientUnits="userSpaceOnUse"><stop offset="0" stop-color="#f6f2f0"/><stop offset=".123" stop-color="#e1dedc"/><stop offset=".376" stop-color="#adaaa9"/><stop offset=".732" stop-color="#5b5958"/><stop offset="1" stop-color="#191818"/></linearGradient><linearGradient id="uuid-1e094555-484a-4ad1-a577-9e20551e1e25" x1="63.872" y1="57.926" x2="83.99" y2="58.453" gradientUnits="userSpaceOnUse"><stop offset="0" stop-color="#f6f2f0"/><stop offset=".123" stop-color="#e1dedc"/><stop offset=".376" stop-color="#adaaa9"/><stop offset=".732" stop-color="#5b5958"/><stop offset="1" stop-color="#191818"/></linearGradient><linearGradient id="uuid-da9a8979-9c76-4c78-8f9b-d104a528c231" x1="62.608" y1="64.892" x2="76.808" y2="65.264" gradientUnits="userSpaceOnUse"><stop offset="0" stop-color="#f6f2f0"/><stop offset=".123" stop-color="#e1dedc"/><stop offset=".376" stop-color="#adaaa9"/><stop offset=".732" stop-color="#5b5958"/><stop offset=".999" stop-color="#191818"/></linearGradient></defs><g id="uuid-6ec27205-075e-481a-9382-440b42c1268a"><path class="uuid-188b485f-bd9b-45c8-9fee-db57e360de34" d="M82.478,8.798c2.915,1.993-6.264,16.909-8.489,20.807-2.246-4.335-5.603-7.967-9.699-10.506,2.179-1.746,4.568-3.693,6.901-5.435,4.729-3.544,9.221-6.27,11.286-4.867Z"/><path class="uuid-1340b752-4b0c-459f-87f6-0ad447af0389" d="M22.901,92.283c-.718.27-1.267.379-1.267.379.537-.851.84-1.791.866-2.78.109-4.16-4.776-7.667-10.923-7.828-.038-.125-.066-.249-.093-.373-3.444-13.67,4.845-13.876,8.224-20.927,3.401-7.113,4.05-18.904,4.05-18.904-.396,15.136,11.407,21.215,26.141,21.601,7.074.185,13.533-.975,18.381-3.898,3.029,4.335,8.709,10.542,6.412,32.542l-21.65.082h-.01c-1.674.574-2.53,1.386-2.958,1.983.253-.612.404-1.257.421-1.926.109-4.16-4.786-7.668-10.923-7.828-6.147-.161-11.209,3.086-11.318,7.246-.005.206,0,.412.025.619l-5.379.014Z"/><path class="uuid-1340b752-4b0c-459f-87f6-0ad447af0389" d="M44.655,15.803c2.094-.491,4.274-.712,6.508-.654.927.024,1.831.099,2.725.216,3.779.49,7.299,1.798,10.402,3.734,4.096,2.539,7.453,6.171,9.699,10.506,2.13,4.054,3.275,8.71,3.146,13.642-.206,7.877-3.579,13.136-8.855,16.305-4.847,2.923-11.307,4.083-18.381,3.898-14.734-.386-26.537-6.465-26.141-21.601.102-3.892.992-7.578,2.511-10.897.919-2.026,2.081-3.923,3.445-5.639,3.741-4.734,8.982-8.152,14.942-9.51Z"/><path class="uuid-1340b752-4b0c-459f-87f6-0ad447af0389" d="M71.192,13.665c-2.333,1.742-4.723,3.689-6.901,5.435-3.102-1.936-6.623-3.244-10.402-3.734l.025-.185c5.388.821,11.671.522,17.277-1.516Z"/><path class="uuid-1340b752-4b0c-459f-87f6-0ad447af0389" d="M53.914,15.18l-.025.185c-.893-.116-1.798-.191-2.725-.216-2.234-.059-4.414.163-6.508.654-.505-1.188-1.595-3.617-2.99-6.219,1.786,2.612,6.511,4.735,12.249,5.596Z"/><path class="uuid-1340b752-4b0c-459f-87f6-0ad447af0389" d="M28.28,92.27c-.025-.207-.03-.413-.025-.619.109-4.16,5.171-7.407,11.318-7.246,6.137.161,11.032,3.668,10.923,7.828-.018.669-.168,1.314-.421,1.926-.342.465-.423.803-.423.803-1.69,2.758-5.768,4.64-10.473,4.517-5.838-.153-10.546-3.326-10.898-7.209Z"/><path class="uuid-188b485f-bd9b-45c8-9fee-db57e360de34" d="M41.656,9.563q0,.01.01.021c1.395,2.602,2.485,5.031,2.99,6.219-5.96,1.359-11.201,4.776-14.942,9.51-1.294-2.527-2.112-5.928-2.36-9.428-.023-.681-.046-1.382-.089-2.094-.009-.041-.008-.083-.007-.124-.022-5.08,1.2-10.035,3.978-12.621,3.221-2.996,7.502,3.112,10.421,8.516Z"/><path class="uuid-1340b752-4b0c-459f-87f6-0ad447af0389" d="M26.269,30.952c.619-3.58,1.262-8.849,1.085-15.066.248,3.499,1.066,6.9,2.36,9.428-1.364,1.716-2.526,3.612-3.445,5.639Z"/><path class="uuid-1340b752-4b0c-459f-87f6-0ad447af0389" d="M22.5,89.882c-.026.988-.329,1.928-.866,2.78-1.71,2.727-5.766,4.589-10.451,4.466-6.137-.161-11.032-3.668-10.923-7.828.099-3.789,4.31-6.811,9.688-7.196,0,0,.011-.01.021,0,.527-.048,1.063-.065,1.609-.051,6.147.161,11.032,3.668,10.923,7.828Z"/><path class="uuid-1340b752-4b0c-459f-87f6-0ad447af0389" d="M11.484,81.681c.028.124.055.249.093.373-.546-.014-1.082.003-1.609.051.115-.049.666-.24,1.515-.424Z"/></g><g id="uuid-71c64a66-d105-45ff-b401-99cb90d2a3d1"><path class="uuid-188b485f-bd9b-45c8-9fee-db57e360de34" d="M23.759,41.854c-.254,5.47-.984,10.979-2.708,16.202-1,3.598-3.476,6.541-6.189,8.99-2.708,2.475-4.321,5.91-4.057,9.611.051,1.814.348,3.624.772,5.399-.502-1.755-.882-3.553-1.016-5.388-.392-3.738,1.224-7.443,3.97-9.948,2.687-2.5,5.007-5.245,6.071-8.819,1.733-5.179,2.611-10.621,3.156-16.047h0Z"/><path class="uuid-188b485f-bd9b-45c8-9fee-db57e360de34" d="M68.166,59.385c6.976,7.881,7.908,18.745,6.985,28.806,0,0-.5,4.314-.5,4.314.836-11.353.872-23.729-6.485-33.119h0Z"/><path class="uuid-188b485f-bd9b-45c8-9fee-db57e360de34" d="M50.495,92.232c-.906,7.85-12.897,8.924-18.491,5.508-5.4-3.043-5.245-9.22.313-11.977,5.76-3.122,17.686-1.416,18.177,6.469h0ZM50.495,92.232c-.593-7.89-12.31-9.265-17.971-6.079-5.165,2.624-5.32,8.319-.294,11.21,5.482,3.481,17.262,2.715,18.265-5.131h0Z"/><path class="uuid-188b485f-bd9b-45c8-9fee-db57e360de34" d="M28.278,90.706c2.334-10.403,14.198-12.647,22.884-8.773,2.857,1.247,5.45,3.094,7.499,5.413-2.169-2.183-4.816-3.885-7.653-5.049-8.617-3.576-19.878-1.578-22.729,8.408h0Z"/><path class="uuid-188b485f-bd9b-45c8-9fee-db57e360de34" d="M49.655,94.966c.926-3.133,4.993-3.718,7.809-3.496-2.725.529-6.29.829-7.809,3.496h0Z"/><path class="uuid-188b485f-bd9b-45c8-9fee-db57e360de34" d="M22.501,89.884c-.906,7.85-12.897,8.924-18.491,5.508-5.4-3.043-5.245-9.22.313-11.977,5.76-3.122,17.686-1.416,18.177,6.469h0ZM22.501,89.884c-.593-7.89-12.31-9.265-17.971-6.079-5.165,2.624-5.32,8.319-.294,11.21,5.482,3.481,17.262,2.715,18.265-5.131h0Z"/><path class="uuid-188b485f-bd9b-45c8-9fee-db57e360de34" d="M9.972,82.092c4.746-1.95,10.876-1.454,14.539,2.389-.76-.542-1.6-1.096-2.431-1.531-3.753-1.822-8.106-1.826-12.107-.859h0Z"/><path class="uuid-188b485f-bd9b-45c8-9fee-db57e360de34" d="M21.633,92.665c1.797-.847,4.072-1.608,4.399-3.817.47,2.383-2.404,3.747-4.399,3.817h0Z"/></g><g id="uuid-c57f7ec5-176e-43ef-b6d5-4a83beffc3c9"><path class="uuid-66b5d3d9-2b12-4e64-9980-f2e5d1d601a0" d="M55.134,56.228c5.078-2.983,3.824-7.603.331-5.393-.207.131-.468.124-.668-.017-3.386-2.391-5.093,2.152-.185,5.397.152.101.365.106.522.014Z"/><path class="uuid-1340b752-4b0c-459f-87f6-0ad447af0389" d="M50.473,15.145v.5c.226,0,.452.003.68.009,6.993.183,13.495,3.152,18.308,8.358,4.816,5.211,7.365,12.038,7.177,19.226-.45,17.167-16.043,19.73-25.299,19.73-.472,0-.946-.006-1.424-.019-7.718-.202-14.103-1.991-18.465-5.172-4.953-3.613-7.371-8.966-7.19-15.911.185-7.065,3.007-13.67,7.945-18.598,4.926-4.916,11.414-7.623,18.268-7.623v-.5M50.472,15.145c-14.429,0-26.322,11.815-26.712,26.708-.396,15.132,11.402,21.21,26.142,21.596.482.013.961.019,1.437.019,14.081,0,25.415-5.581,25.799-20.217.396-15.132-11.232-27.711-25.971-28.097-.232-.006-.463-.009-.694-.009h0Z"/><path class="uuid-188b485f-bd9b-45c8-9fee-db57e360de34" d="M30.035,25.914c-2.968-5.384-3.575-11.98-2.45-17.977.536-2.505,1.487-5.087,3.351-6.933,3.283-3.113,6.85,2.017,8.537,4.517,2.224,3.459,3.969,7.184,5.471,10.987-2.605-5.377-5.125-11.374-9.814-15.248-2.003-1.457-3.529-.632-4.801,1.242-4.134,6.301-3.534,16.807-.294,23.412h0Z"/><path class="uuid-188b485f-bd9b-45c8-9fee-db57e360de34" d="M25.719,33.805c1.072-6.709,1.572-13.432,1.525-20.226.746,6.748.228,13.666-1.525,20.226h0Z"/><path class="uuid-188b485f-bd9b-45c8-9fee-db57e360de34" d="M41.216,8.781c4.286,6.82,18.895,7.383,26.076,5.872,1.314-.25,2.616-.578,3.894-.992-7.52,2.929-16.227,2.92-23.772.059-2.428-1.026-5.074-2.423-6.198-4.939h0Z"/><path class="uuid-188b485f-bd9b-45c8-9fee-db57e360de34" d="M63.787,19.5c2.855-2.165,16.786-15.389,19.408-10.06.366,2.053-.576,3.884-1.252,5.724-2.253,5.345-5.408,10.22-8.353,15.19,2.701-5.095,5.697-10.045,7.92-15.369.616-1.674,1.522-3.629,1.192-5.398-2.268-4.297-16.104,8.076-18.914,9.913h0Z"/><path class="uuid-188b485f-bd9b-45c8-9fee-db57e360de34" d="M73.635,28.925c4.834,8.641,5.88,21.434-2.258,28.45-1.096.978-2.347,1.747-3.604,2.475,11.008-6.523,10.824-20.528,5.862-30.926h0Z"/><path class="uuid-188b485f-bd9b-45c8-9fee-db57e360de34" d="M26.176,31.141c-1.616,3.513-2.208,7.516-2.426,11.35-.121-3.832.5-7.989,2.426-11.35h0Z"/><path class="uuid-ad8896db-92e1-49c2-b822-87541bb103b9" d="M50.68,38.278c-.097,3.717-3.441,6.645-7.467,6.539s-7.115-6.921-7.115-6.921c0,0,3.441-6.645,7.467-6.539s7.212,3.204,7.115,6.921Z"/><path class="uuid-188b485f-bd9b-45c8-9fee-db57e360de34" d="M50.68,38.278c-.026,3.714-3.533,6.62-7.135,6.655-3.822.011-6.088-3.952-7.681-6.93-.048-.117-.084-.078.006-.225,1.744-2.892,4.219-6.732,8.034-6.52,3.595.224,6.946,3.31,6.777,7.021h0ZM50.68,38.278c.132-3.682-3.238-6.699-6.793-6.774-3.629-.049-5.907,3.735-7.56,6.51,0,0,.006-.224.006-.224,1.503,2.858,3.584,6.758,7.209,6.898,3.554.11,7.079-2.726,7.139-6.41h0Z"/><path class="uuid-1340b752-4b0c-459f-87f6-0ad447af0389" d="M46.936,38.18c-.067,2.55-2.079,4.567-2.079,4.567,0,0-1.904-2.119-1.838-4.669s2.079-4.567,2.079-4.567c0,0,1.904,2.119,1.838,4.669Z"/><circle class="uuid-3462ee1e-13a4-4588-9137-57b3eba039c6" cx="46.342" cy="35.85" r=".655"/><path class="uuid-7b527b37-cb33-4a38-af38-e74d156c8f55" d="M60.419,39.561c-.078,2.974,2.47,5.453,5.692,5.537,3.221.084,5.974-5.231,5.974-5.231,0,0-2.47-5.453-5.692-5.537s-5.896,2.258-5.974,5.231Z"/><path class="uuid-188b485f-bd9b-45c8-9fee-db57e360de34" d="M60.419,39.561c-.102,2.943,2.596,5.35,5.436,5.395,2.882.025,4.69-3,6.001-5.208,0,0-.006.224-.006.224-1.194-2.273-2.843-5.388-5.72-5.514-2.838-.103-5.66,2.158-5.711,5.103h0ZM60.419,39.561c.017-2.975,2.821-5.307,5.708-5.35,3.075-.025,4.911,3.153,6.192,5.549.054.121.079.086-.006.225-1.405,2.325-3.406,5.401-6.474,5.216-2.88-.194-5.559-2.668-5.42-5.64h0Z"/><path class="uuid-1340b752-4b0c-459f-87f6-0ad447af0389" d="M65.642,39.698c-.053,2.04,1.47,3.735,1.47,3.735,0,0,1.61-1.613,1.664-3.653s-1.47-3.735-1.47-3.735c0,0-1.61,1.613-1.664,3.653Z"/><ellipse class="uuid-3462ee1e-13a4-4588-9137-57b3eba039c6" cx="68.553" cy="38.383" rx=".998" ry=".524" transform="translate(-10.007 37.362) rotate(-28.5)"/><ellipse class="uuid-3462ee1e-13a4-4588-9137-57b3eba039c6" cx="33.925" cy="70.181" rx="6.088" ry="2.772" transform="translate(-21.251 15.119) rotate(-19.261)"/><path class="uuid-8ca4d917-c580-4398-bb8c-d36941b24ec8" d="M45.153,51.103c-2.96.024-5.916.146-8.865.323-2.948.191-5.894.432-8.814.853-2.923.387-5.83.929-8.653,1.763-1.41.415-2.804.907-4.118,1.567-1.317.643-2.582,1.444-3.583,2.542,1.919-2.307,4.789-3.566,7.583-4.487,2.832-.923,5.766-1.465,8.701-1.895,2.944-.381,5.902-.63,8.865-.737,2.962-.109,5.928-.094,8.885.071Z"/><path class="uuid-04b2edce-b993-4ebb-868e-a72dfaf265d5" d="M41.116,54.418c-2.38.841-4.746,1.715-7.1,2.613-2.352.904-4.695,1.828-6.993,2.856-2.314.99-4.588,2.07-6.802,3.26-1.114.583-2.189,1.234-3.237,1.926-1.03.709-2.065,1.446-2.876,2.42,1.549-2.022,3.756-3.408,5.919-4.692,2.191-1.272,4.482-2.355,6.79-3.386,2.326-.993,4.675-1.928,7.063-2.754,2.384-.836,4.799-1.582,7.236-2.243Z"/><path class="uuid-28c135f4-04fa-4222-9371-e26983979b0d" d="M45.813,56.056c-2.279.831-4.521,1.748-6.708,2.775-2.18,1.038-4.33,2.148-6.325,3.499-2.015,1.315-3.895,2.841-5.507,4.618-1.604,1.775-2.927,3.845-3.621,6.181.508-2.385,1.737-4.585,3.323-6.441,1.584-1.869,3.504-3.421,5.523-4.787,2.046-1.333,4.215-2.461,6.446-3.429,2.231-.972,4.533-1.765,6.87-2.416Z"/><path class="uuid-132f0f1a-5a38-49fe-b8a9-8eb8848abcd9" d="M61.432,54.95c2.086.459,4.15,1.018,6.19,1.66,2.04.639,4.046,1.386,6.034,2.18,1.97.836,3.911,1.76,5.753,2.863,1.824,1.1,3.622,2.416,4.779,4.236-.361-.396-.686-.819-1.068-1.184-.413-.337-.807-.691-1.229-1.008l-1.309-.9-1.374-.801c-1.859-1.018-3.778-1.936-5.75-2.73-1.958-.829-3.956-1.564-5.961-2.281-2.01-.704-4.028-1.392-6.065-2.034Z"/><path class="uuid-a63f0b11-b17d-4ca5-a963-b63303c8cf78" d="M63.988,53.483c1.863.04,3.716.359,5.526.819,1.814.456,3.574,1.117,5.273,1.899,1.687.809,3.32,1.747,4.808,2.882,1.521,1.092,2.856,2.419,4.09,3.806-1.389-1.239-2.771-2.473-4.32-3.484-.75-.539-1.551-.998-2.334-1.484-.816-.429-1.614-.892-2.463-1.255-1.656-.81-3.392-1.454-5.16-1.985-1.769-.534-3.578-.948-5.42-1.199Z"/><path class="uuid-abe49e0a-1c61-4efc-b6fa-de5ac1e2844e" d="M62.904,57.901c1.531.709,2.974,1.595,4.365,2.553,1.386.967,2.701,2.04,3.928,3.21,1.19,1.206,2.321,2.485,3.239,3.918.894,1.445,1.598,3.015,1.941,4.669-.55-1.597-1.328-3.077-2.27-4.449-.966-1.357-2.07-2.61-3.269-3.769-1.178-1.182-2.48-2.235-3.802-3.26-1.33-1.016-2.706-1.978-4.133-2.872Z"/></g></svg>