<svg xmlns="http://www.w3.org/2000/svg" xmlns:xlink="http://www.w3.org/1999/xlink" viewBox="0 0 1680.5 1000.5"><defs><linearGradient id="uuid-eb990477-eb2d-4115-bbaa-ad62deebbee6" x1=".25" y1="500.25" x2="1680.25" y2="500.25" gradientUnits="userSpaceOnUse"><stop offset="0" stop-color="#dacdc1"/><stop offset="1" stop-color="#e8e3e2"/></linearGradient><linearGradient id="uuid-b15c9fda-fa99-4877-98d5-d61103a6d04e" x1="1184.8" y1="637.53" x2="1358.34" y2="642.08" gradientUnits="userSpaceOnUse"><stop offset="0" stop-color="#191818"/><stop offset=".27" stop-color="#5b5958"/><stop offset=".62" stop-color="#adaaa9"/><stop offset=".88" stop-color="#e1dedc"/><stop offset="1" stop-color="#f6f2f0"/></linearGradient><linearGradient id="uuid-25e2ff72-a479-4b6c-b65b-31897abb9f37" x1="1200.38" y1="670.39" x2="1337.77" y2="673.99" gradientUnits="userSpaceOnUse"><stop offset="0" stop-color="#191818"/><stop offset=".27" stop-color="#5b5958"/><stop offset=".62" stop-color="#adaaa9"/><stop offset=".88" stop-color="#e1dedc"/><stop offset="1" stop-color="#f6f2f0"/></linearGradient><linearGradient id="uuid-81a97bb5-437a-406f-994d-79ae4dacc3ff" x1="1249.1" y1="689.27" x2="1361.48" y2="692.21" xlink:href="#uuid-b15c9fda-fa99-4877-98d5-d61103a6d04e"/><linearGradient id="uuid-be88fe55-9768-4ffb-a8ac-dfc86ae194b8" x1="1474.92" y1="684.74" x2="1593.73" y2="687.85" gradientUnits="userSpaceOnUse"><stop offset="0" stop-color="#f6f2f0"/><stop offset=".12" stop-color="#e1dedc"/><stop offset=".38" stop-color="#adaaa9"/><stop offset=".73" stop-color="#5b5958"/><stop offset="1" stop-color="#191818"/></linearGradient><linearGradient id="uuid-e7a91902-820f-4ff5-b3b4-256536728bbc" x1="1477.63" y1="669.87" x2="1580.23" y2="672.55" gradientUnits="userSpaceOnUse"><stop offset="0" stop-color="#f6f2f0"/><stop offset=".12" stop-color="#e1dedc"/><stop offset=".38" stop-color="#adaaa9"/><stop offset=".73" stop-color="#5b5958"/><stop offset="1" stop-color="#191818"/></linearGradient><linearGradient id="uuid-1c3c275d-f609-44bd-b208-1cf757ebd845" x1="1460.11" y1="702.55" x2="1532.54" y2="704.45" gradientUnits="userSpaceOnUse"><stop offset="0" stop-color="#f6f2f0"/><stop offset=".12" stop-color="#e1dedc"/><stop offset=".38" stop-color="#adaaa9"/><stop offset=".73" stop-color="#5b5958"/><stop offset="1" stop-color="#191818"/></linearGradient><radialGradient id="uuid-44496a64-ab81-4098-aa23-86cecfc1fed0" cx="1351.72" cy="526.8" fx="1351.72" fy="526.8" r="45.62" gradientTransform="rotate(10 1350.18 545.88)" gradientUnits="userSpaceOnUse"><stop offset="0" stop-color="#fdec51"/><stop offset=".17" stop-color="#f8e54d"/><stop offset=".39" stop-color="#ebd545"/><stop offset=".64" stop-color="#d6b937"/><stop offset=".91" stop-color="#b89224"/><stop offset=".99" stop-color="#af861e"/></radialGradient><radialGradient id="uuid-7c969ffb-caa3-480c-bbe5-e740964eaa40" cx="175.8" cy="533.5" fx="175.8" fy="533.5" r="44.16" gradientTransform="scale(-1 1) rotate(-10 -512 10046.41)" xlink:href="#uuid-44496a64-ab81-4098-aa23-86cecfc1fed0"/><style>.uuid-7f91ec15-8475-41d0-ac09-1c69422e4202{fill:#3c2517;stroke-width:0}.uuid-10b98f65-0651-4d8b-9a2b-84a30ae02967,.uuid-271f56dc-1655-40d0-b3fc-a21199748eed,.uuid-7a772dde-562b-446f-ac3c-7dbc379baf73{stroke-width:0}.uuid-10b98f65-0651-4d8b-9a2b-84a30ae02967{fill:#292425}.uuid-271f56dc-1655-40d0-b3fc-a21199748eed{fill:#191818}.uuid-7a772dde-562b-446f-ac3c-7dbc379baf73{fill:#f6f2f0}</style></defs><g id="uuid-56185eca-205c-49ac-adfe-7f8fa80cacc5"><path d="M1680.25.25v1000h-255.54a120.53 120.53 0 0 0 1.94-31.85 120.84 120.84 0 0 0-4.84-26.65c-1.36-49.84-41.59-140.9-55.67-196.82v-.01c3.1-39.92 6.29-61.04 6.29-61.04a172.95 172.95 0 0 0 47.67 6.65c97.16 0 175.93-80.1 175.93-178.91.47-8.89-.21-17.92-1.87-26.73-.49-35.31 75.09-116.16 44.85-143.71-10.97-10-44.88-1.28-74.12 14.95-33.59-29.22-131.76-111.34-185.56-128.33-53.81-16.99-47.2-71.74-127.44-105.72C1171.66 88.09 988.5 35.4 930 37.12c-50.87 1.5-109.98 10.15-245.53 62.78-135.54 52.63-353.99 109.59-388.59 118.24-34.61 8.65-165.82 99.49-204.04 224.94-29.78 97.79-62.9 141.6-41.7 213.2 0 17.41 1.22 54.04 2.63 90.7l-32.05 253.27H.25V.25h1680Z" fill="url(#uuid-eb990477-eb2d-4115-bbaa-ad62deebbee6)" stroke-width="0"/><path class="uuid-271f56dc-1655-40d0-b3fc-a21199748eed" d="M1535.66 376.73c8.15-7.53 18.37-14.58 29.23-20.6 29.24-16.23 63.15-24.95 74.12-14.95 30.24 27.55-45.34 108.4-44.85 143.71-8.48-45.13-42.4-84.5-76.04-70.8-3.34-12.06 4.45-25.3 17.54-37.36Z"/><path class="uuid-10b98f65-0651-4d8b-9a2b-84a30ae02967" d="M1594.16 484.89a112.74 112.74 0 0 1 1.87 26.73c0 98.81-78.77 178.91-175.93 178.91a172.95 172.95 0 0 1-87.45-23.63c-44.87-26.19-77.31-71.91-86.1-125.76a183.94 183.94 0 0 1-2.38-29.52c0-58.01 27.15-109.58 69.24-142.26-1.32 8.05-1.83 14.87-1.36 19.58 17.23-16.35 77.11-41.77 111 4.58 10.84-41.62-.4-81.86-18.11-105.85 22.37 24.2 29.05 45.04 44.6 47.54a174 174 0 0 1 86.12 41.52c-13.09 12.06-20.88 25.3-17.54 37.36 33.64-13.7 67.56 25.67 76.04 70.8Z"/><path class="uuid-10b98f65-0651-4d8b-9a2b-84a30ae02967" d="M167.18 795.55c-33.25-14.1-64.29-36.07-84.71-69.98-15.99-26.56-26.33-49.03-32.33-69.29-21.2-71.6 11.92-115.41 41.7-213.2 38.22-125.45 169.43-216.29 204.04-224.94 34.6-8.65 253.05-65.61 388.59-118.24C820.02 47.27 879.13 38.62 930 37.12c58.5-1.72 241.66 50.97 321.89 84.96 80.24 33.98 73.63 88.73 127.44 105.72 53.8 16.99 151.97 99.11 185.56 128.33-10.86 6.02-21.08 13.07-29.23 20.6a174 174 0 0 0-86.12-41.52c-15.55-2.5-22.23-23.34-44.6-47.54-10.34-14.01-22.89-22.48-34.54-22.46-26.17.04-50.74 65.96-56.99 104.15-42.09 32.68-69.24 84.25-69.24 142.26 0 10.06.82 19.92 2.38 29.52-30.32-3.25-115.05 11.62-133.99 30.11-18.94 18.49 73.63 265.08 91.37 288.01-23.77-23.72-54.24-32.68-76.46-19.85-16.13 9.31-24.49 28.13-24.55 50.16-20.99-122.62-221.13-307.6-247.11-323.18-25.98-15.59-162.12 9.35-187.06 35.7-24.94 26.36-251.48 112.9-293.05 111.86-41.57-1.04-77.91-5.01-107 11.62 0 0 26.46 10.94 72.6 41.22 46.14 30.28 2.88 48.31-13.7 51.31-11.23 2.03-90.66 7.06-160.42-22.55ZM1426.65 968.4c.77 11.14.05 21.89-1.94 31.85h-62.67a2649.94 2649.94 0 0 1-1.59-114.06c26.7-1.86 51.08 21.54 61.36 55.56a120.84 120.84 0 0 1 4.84 26.65Z"/><path class="uuid-271f56dc-1655-40d0-b3fc-a21199748eed" d="M1313.41 369.36c6.25-38.19 30.82-104.11 56.99-104.15 11.65-.02 24.2 8.45 34.54 22.46 17.71 23.99 28.95 64.23 18.11 105.85-33.89-46.35-93.77-20.93-111-4.58-.47-4.71.04-11.53 1.36-19.58Z"/><path class="uuid-10b98f65-0651-4d8b-9a2b-84a30ae02967" d="M1366.14 744.93c14.08 55.92 54.31 146.98 55.67 196.82-10.28-34.02-34.66-57.42-61.36-55.56.48-59.74 3.06-107.3 5.69-141.26Z"/><path class="uuid-7f91ec15-8475-41d0-ac09-1c69422e4202" d="M1372.43 683.88s-3.19 21.12-6.29 61.04v.01c-2.63 33.96-5.21 81.52-5.69 141.26-.28 34.14.13 72.24 1.59 114.06h-42.4l13.01-333.35a172.83 172.83 0 0 0 39.78 16.98Z"/><path d="m1332.65 666.9-13.01 333.35H33.67s17.25-90.45 21.74-188.88c.95 22 1.64 37.14 1.64 37.14a122.07 122.07 0 0 0-4.56 24.02c-4.25 47.65 19.21 88.67 52.4 91.63 33.18 2.95 63.52-33.28 67.76-80.93a117.1 117.1 0 0 0-3.43-41.18l-.04-.18c-4.84-20.03-2.24-35.93-2-46.32 69.76 29.61 149.19 24.58 160.42 22.55 16.58-3 59.84-21.03 13.7-51.31s-72.6-41.22-72.6-41.22c29.09-16.63 65.43-12.66 107-11.62 41.57 1.04 268.11-85.5 293.05-111.86 24.94-26.35 161.08-51.29 187.06-35.7 25.98 15.58 226.12 200.56 247.11 323.18-.05 17.38 5.07 36.74 15.62 55.01 23.92 41.43 66.7 61.51 95.55 44.85 28.85-16.65 32.85-63.74 8.93-105.17-5.5-9.52-12-17.92-19.09-25-17.74-22.93-110.31-269.52-91.37-288.01 18.94-18.49 103.67-33.36 133.99-30.11 8.79 53.85 41.23 99.57 86.1 125.76Z" fill="#5e4439" stroke-width="0"/><path class="uuid-10b98f65-0651-4d8b-9a2b-84a30ae02967" d="M1223.02 884.26c23.92 41.43 19.92 88.52-8.93 105.17-28.85 16.66-71.63-3.42-95.55-44.85-10.55-18.27-15.67-37.63-15.62-55.01.06-22.03 8.42-40.85 24.55-50.16 22.22-12.83 52.69-3.87 76.46 19.85a120.62 120.62 0 0 1 19.09 25ZM169.22 842.05a117.1 117.1 0 0 1 3.43 41.18c-4.24 47.65-34.58 83.88-67.76 80.93-33.19-2.96-56.65-43.98-52.4-91.63.75-8.42 2.31-16.47 4.56-24.02 10.49-35.2 35.88-59.34 63.2-56.91 22.93 2.05 41.22 22.26 48.93 50.27l.04.18Z"/><path class="uuid-10b98f65-0651-4d8b-9a2b-84a30ae02967" d="M55.41 811.37c-.79-18.3-1.75-41.35-2.64-64.39-1.41-36.66-2.63-73.29-2.63-90.7 6 20.26 16.34 42.73 32.33 69.29 20.42 33.91 51.46 55.88 84.71 69.98-.24 10.39-2.84 26.29 2 46.32-7.71-28.01-26-48.22-48.93-50.27-27.32-2.43-52.71 21.71-63.2 56.91 0 0-.69-15.14-1.64-37.14Z"/><path d="M52.77 746.98c.89 23.04 1.85 46.09 2.64 64.39-4.49 98.43-21.74 188.88-21.74 188.88H20.72l32.05-253.27Z" fill="#70564c" stroke-width="0"/></g><g id="uuid-52fa85aa-5a67-4862-9c02-6171eaef19ce"><path class="uuid-271f56dc-1655-40d0-b3fc-a21199748eed" d="M1596.03 511.62c1.83 94.91-72.48 176.55-167.77 181.06-32.37 1.6-65.12-6-93.47-21.7-1.77-1.02-5.7-3.35-7.4-4.35l-7.17-4.7c-1.54-1.1-5.46-3.96-6.94-5.04-1.44-1.12-5.2-4.2-6.7-5.36-1.38-1.24-5.07-4.47-6.42-5.68-1.36-1.27-4.76-4.66-6.15-5.97-1.23-1.35-4.65-4.95-5.85-6.26-1.27-1.4-4.28-5.08-5.56-6.53a181.71 181.71 0 0 1-40.25-116.27c.27-55.06 27.24-109.01 71.45-141.77l-4.3 3.64c-1.29 1.2-3.07 2.46-4.26 3.7a181.69 181.69 0 0 0-45.08 63.65c-29.56 70.54-11.85 153.09 45.4 204.06a172.54 172.54 0 0 0 122.49 43.86c94.27-4.15 166.53-82.87 167.98-176.34ZM1449.54 335.21c32.64 1.95 64.64 17.52 86.48 41.83-13.33-9.22-26.85-17.75-41.4-24.74-14.49-7.1-29.56-12.42-45.08-17.09Z"/><path class="uuid-271f56dc-1655-40d0-b3fc-a21199748eed" d="M1312.05 388.94c-1.28-12.41 1.27-24.89 3.76-37 5.7-24.26 13.8-48.43 27.55-69.42 6.39-9.13 15.06-19.5 27.15-19.8 15.05.34 27.33 11.58 35.88 22.97 14.87 20.42 21.93 45.93 22.1 70.98a127.95 127.95 0 0 1-5.44 36.85c8.77-40.12-.69-90.61-32.88-117.88-4.9-3.75-10.4-6.78-16.55-7.68-11.66-1.98-20.12 8.71-26.37 17.24-13.7 20.21-22.35 43.9-29.07 67.33-3.11 11.88-6.33 24.03-6.13 36.4Z"/><path class="uuid-271f56dc-1655-40d0-b3fc-a21199748eed" d="M1404.94 287.67c8.94 6.73 16.1 15.54 22.57 24.54 3.24 4.47 6.26 9.02 9.59 13.2 3.34 4.13 7.1 7.9 12.44 9.8-11.96-.06-19.66-11.59-26.08-20.09-6.4-9.1-12.5-18.04-18.53-27.45ZM1518.12 414.1c-8.12-29.18 40.81-58.92 63.41-68.57 14.58-6.3 45.54-17.67 59.22-6.14 16.05 15.29 3.85 41.47-4.05 58.04-8.77 17.76-19.48 34.4-28.96 51.74a194.32 194.32 0 0 0-8.73 17.6c-2.48 6.02-4.76 12.3-4.83 18.9-.24-3.29.12-6.62.8-9.86 2.1-9.72 6.31-18.84 10.58-27.76 5.82-11.86 12.24-23.38 18.37-34.98 8.3-16.9 30.53-54.33 13.44-70-14.45-11.57-56.98 6.68-71.74 14.87-18.2 9.91-52.5 32.1-47.51 56.15ZM1312.05 388.94c7.06-7.84 16.48-13.32 26.13-17.43 24.3-10.54 55.49-10.03 75.17 9.59a63.97 63.97 0 0 1 9.7 12.42c-5.48-5.97-11.46-11.3-18.43-15.35-19.74-11.53-43.96-10.17-65.07-3.03-9.71 3.35-19.17 7.63-27.5 13.8Z"/><path class="uuid-271f56dc-1655-40d0-b3fc-a21199748eed" d="M1518.12 414.1c17.7-9.17 37.48-.5 50.34 12.93 21.05 22.13 31.3 54.45 27.57 84.6-.91-23.86-7.71-47.28-20.35-67.39-12.09-19.43-33.27-37.94-57.56-30.15ZM1246.57 541.14c-18.49-.91-36.94 2.05-55.1 5.16-18.11 3.34-36.13 7.55-53.47 13.77-8.36 3.21-17.35 6.76-23.93 12.76a4.89 4.89 0 0 0-.96 1.78c-.94 3-.89 6.28-.76 9.5 1.84 22.85 8.6 45.14 14.79 67.16 18.54 62 40.14 123.18 64.68 183.07 3.73 8.44 7.07 17.16 12.11 24.93-2.84-3.67-4.99-7.83-7.19-11.9-6.42-12.35-12.06-25.08-17.6-37.83-21.75-51.22-40.92-103.5-56.8-156.87-6.18-22.45-13.04-44.98-14.53-68.37-.03-4.84-.32-10.66 3.18-14.57 3.82-3.53 8.2-5.98 12.61-8.08 21.35-9.59 44.5-14.12 67.47-17.76 18.34-2.47 37.01-4.73 55.5-2.75Z"/><path class="uuid-271f56dc-1655-40d0-b3fc-a21199748eed" d="M1118.54 944.58c14.38 24.53 38.3 46.65 67.57 49.63 32.83 2.92 51.07-24.32 50.37-54.62-.15-19-6.18-37.69-15.63-54.08-9.47-16.38-22.65-30.94-39.03-40.56-25.88-15.73-58.57-13.6-72.47 16.3-12.06 26.84-4.86 58.6 9.19 83.33Zm0 0c-14.23-24.9-21.8-56.48-10.63-83.97 13.5-31.75 48.48-35.26 76.05-19.41 17.37 9.69 31.26 24.74 41.22 41.81 9.8 17.17 15.89 36.72 15.59 56.61-.08 31.77-20.56 60.32-54.82 56.14-29.4-4.06-52.95-26.4-67.4-51.18ZM52.49 872.53c-2.33 28.33 4.52 60.19 26.76 79.45 25.18 21.26 55.76 9.46 72.6-15.74 10.8-15.62 16.62-34.39 18.32-53.23 1.66-18.85-.76-38.34-8.62-55.63-12.14-27.75-40.12-44.8-68.68-28.32-25.3 15.03-37.66 45.16-40.38 73.47Zm0 0c2.68-28.56 14.62-58.75 39.57-74.83 29.3-18.21 59.94-.98 73.38 27.84 8.65 17.92 11.36 38.22 9.7 57.91-1.85 19.67-8.1 39.17-19.79 55.28-18.32 25.96-51.5 37.54-77.13 14.43-21.72-20.23-28.14-52.05-25.73-80.63Z"/><path class="uuid-271f56dc-1655-40d0-b3fc-a21199748eed" d="M50.14 656.28C54.48 720 57.81 784.6 57.05 848.5c-3.44-31.43-5.2-64.35-6.57-96-1.06-32.07-2.06-64.16-.34-96.23ZM167.2 794.14c1.8 7.96 1.35 16.02 1.6 24.02.02 8.03.5 15.76.42 23.9-7.53-14.83-6.29-32.31-2.02-47.92ZM268.7 725.57c18.8-11 41.1-13.23 62.5-13.44 14.69-.12 29.69.52 44.38.77 6.64-.02 13.16-1.38 19.68-2.76a453.3 453.3 0 0 0 31.09-8.25c41.13-12.43 81.47-27.4 121.37-43.32 37.11-15.25 74.76-30.1 109.3-50.61 3.3-2.1 6.52-4.23 9.32-6.89.87-.84 2.1-2.1 3.03-2.87 6.42-5.39 14.04-9.02 21.6-12.3a266.6 266.6 0 0 1 30.79-10.58c30.66-8.88 103.93-23.28 132.8-12.25 3.87 1.71 7.23 4.54 10.53 7.05 21.05 16.93 40.49 35.72 59.66 54.65 45.6 45.75 88.46 94.57 124.8 148.06 17.88 26.88 34.27 55.07 45.2 85.54 3.61 10.15 6.4 20.6 8.17 31.2a183.34 183.34 0 0 0-8.87-30.95c-11.44-30.16-28.25-57.95-46.52-84.41-30.6-44.14-65.95-84.82-103.21-123.43-26.18-26.85-53-53.33-82.19-76.88-3.09-2.33-6-4.85-9.5-6.4-5.92-2.43-12.4-2.92-18.91-3.33-15.96-.66-31.95.86-47.8 2.96a474.34 474.34 0 0 0-62.81 12.95c-15.26 4.43-30.64 9.32-44.34 17.36a42.59 42.59 0 0 0-7.62 5.68 41.6 41.6 0 0 1-4.73 4.2c-8.77 6.56-18.51 11.54-28.2 16.5-67.94 32.79-138.9 59.06-211.09 80.77a433.71 433.71 0 0 1-31.37 7.94c-6.63 1.28-13.4 2.56-20.23 2.46-14.65-.51-29.69-1.4-44.33-1.54-21.34-.12-43.47 1.62-62.5 12.12Z"/><path class="uuid-271f56dc-1655-40d0-b3fc-a21199748eed" d="M1564.89 356.13c-48.42-40.86-97.93-81.36-153.14-112.75-11.01-6.1-22.63-11.54-34.65-15.36-12.23-4-23.28-11.35-32.11-20.67-13.16-13.86-23.01-30.41-36.06-44.34-15.94-17.54-36.16-30.7-57.98-39.77-66.15-26.77-134.9-46.9-204.03-64.41-36.88-8.64-74.05-17.9-111.98-19.57-5.94-.06-12.97.31-18.88.66C852.7 43.61 791.6 63.54 732.14 84.6c-29.45 10.65-59.76 22.86-89.3 33.25-59.67 21.19-120.93 39.97-181.73 57.72A5470.94 5470.94 0 0 1 314.05 216l-18.42 4.75c-17.7 5.76-33.76 16.59-49.12 27.12-46.19 32.98-87.09 74.13-117.81 121.95-17.19 26.6-29.88 55.66-38.63 86.1-36.65 113.38-76.01 153.96-5.99 269.32 44.3 72.3 137.07 93.28 216.57 93.67 12.54-.29 25.52.12 37.4-4.44 8.48-3.24 17.9-7.8 22.07-16.3 6.47-15.34-14.4-27.95-25.2-35.06-21.32-13.74-43.1-27.03-66.22-37.55 23.24 10.3 45.16 23.37 66.64 36.91 14.93 9.08 39.46 26.27 19.88 43.84-7.42 6.27-16.6 9.92-25.93 12.15-9.46 1.77-19.06 1.8-28.63 2.06-69.02.07-144.01-14.2-195.33-63.63-11.48-11.06-20.92-24.42-28.74-38.3-8-13.79-15.38-27.95-21.36-42.78-29.32-70.05-5.08-119.06 18.48-185.19 9-23.88 15.28-48.4 24.63-72.22a328.47 328.47 0 0 1 16.72-34.53c31.52-55.59 76.85-102.84 128.67-139.95 15.9-10.88 32.03-21.86 50.62-27.87l18.48-4.78A5646 5646 0 0 0 478 165.43c54.57-16.14 109.6-33.14 163.22-52.16 29.52-10.35 59.83-22.57 89.3-33.16 59.88-21.05 121.5-40.95 185.28-44.5 5.96-.34 13.21-.7 19.2-.63 38.3 1.72 75.75 11.29 112.84 20.13 69.23 17.88 138.01 38.35 204.23 65.49 22.11 9.31 42.63 22.8 58.74 40.7 12.98 13.95 22.8 30.74 35.73 44.56 8.6 9.18 19.22 16.38 31.17 20.38l4.5 1.58c10.5 3.67 20.6 8.77 30.31 14.16 55.08 31.83 104.32 72.73 152.37 114.15ZM1424.7 1000.25c3.3-30.17-2.04-61.99-19.43-87.15-6.92-9.77-15.93-18.34-27.03-23.1a48.17 48.17 0 0 0-17.8-3.81c6.21-.96 12.61-.33 18.64 1.5 42.13 14.58 57.22 73.22 45.63 112.56Z"/><path class="uuid-271f56dc-1655-40d0-b3fc-a21199748eed" d="M1372.43 683.88c-8.39 91.9-9.9 184.5-10.25 276.75-.04 13.2.06 26.4-.14 39.62-.91-13.18-1.67-26.37-2.31-39.57-2.1-49.5-2.1-99.12.09-148.62 2.18-42.86 5.28-85.86 12.61-128.18Z"/><path class="uuid-271f56dc-1655-40d0-b3fc-a21199748eed" d="M1366.14 744.92c13.24 40.66 29.38 80.24 41.72 121.18 7.13 24.58 14.3 49.85 13.95 75.65-2.75-25.48-10.75-49.92-18.46-74.23-12.8-40.39-28.77-81-37.2-122.6ZM55.4 811.27c.5 31.72-1.8 63.62-5.4 95.12-3.79 31.54-8.66 63-16.33 93.86 7.75-62.86 15.21-125.98 21.74-188.98ZM1332.65 666.9a5405.8 5405.8 0 0 1-13.01 333.35 5405.02 5405.02 0 0 1 13.01-333.35ZM20.72 1000.25c7.24-84.47 18-169.7 32.05-253.3a3166.08 3166.08 0 0 1-32.05 253.3Z"/><path class="uuid-7f91ec15-8475-41d0-ac09-1c69422e4202" d="M333.48 1000.25c4.15-64 10.42-128.65 18.67-192.26-4.14 64-10.44 128.65-18.67 192.26ZM365.44 713.64c-.26 11-1.56 22.35-2.94 33.27-1.54 10.9-3.27 22.19-5.92 32.87.26-11 1.55-22.35 2.94-33.27 1.54-10.9 3.28-22.18 5.92-32.87ZM407.3 708.58a7016.44 7016.44 0 0 1-31.1 291.67 7016.44 7016.44 0 0 1 31.1-291.68ZM936.07 639.26a10979.05 10979.05 0 0 1-49.03 361 10974.02 10974.02 0 0 1 49.03-361ZM967.41 672.42a8892.6 8892.6 0 0 1-39.43 327.83 8890.45 8890.45 0 0 1 39.43-327.83ZM356.58 1000.25l.48-5.98.08.01-.56 5.97zM358.03 982.32l.97-11.95.4.04-1.13 11.93-.24-.02zM359.99 958.43l1.02-11.95.57.05-1.07 11.94-.52-.04zM362.03 934.54l1.02-11.95.69.07-1.08 11.93-.63-.05zM364.07 910.65l1.02-11.94.8.07-1.08 11.94-.74-.07zM366.11 886.76l1.02-11.94.91.08-1.08 11.94-.85-.08zM368.15 862.88l1.04-11.95.97.09-1.05 11.94zM370.27 839l1.08-11.94.86.07-1.02 11.95-.92-.08zM372.42 815.12l1.08-11.94.75.06-1.02 11.95-.81-.07zM374.58 791.24l1.07-11.94.64.06-1.02 11.94-.69-.06zM376.73 767.36l1.07-11.94.53.05-1.02 11.94-.58-.05zM378.91 743.49l1.13-11.94.24.02-.96 11.95-.41-.03zM381.17 719.62l.56-5.98-.48 5.99-.08-.01zM951.05 654.81l-.73 5.96-.07-.01.8-5.95zM948.9 672.28l-1.41 11.51-.32-.05 1.54-11.49.19.03zM946.07 695.3l-1.44 11.5-.52-.07 1.51-11.49.45.06zM943.17 718.31l-1.45 11.5-.62-.08 1.5-11.5.57.08zM940.26 741.31l-1.46 11.51-.7-.09 1.5-11.5.66.08zM937.34 764.32l-1.45 11.51-.8-.11 1.51-11.49.74.09zM934.43 787.33l-1.46 11.5-.88-.11 1.5-11.5.84.11zM931.51 810.34l-1.46 11.5-.96-.12 1.5-11.5.92.12zM928.58 833.34l-1.51 11.5-.92-.12 1.46-11.5.97.12zM925.57 856.34l-1.5 11.5-.84-.11 1.46-11.5.88.11zM922.57 879.34l-1.5 11.5-.75-.1 1.46-11.5.79.1zM919.56 902.33l-1.5 11.5-.66-.08 1.46-11.51.7.09zM916.56 925.33l-1.5 11.5-.57-.07 1.46-11.51.61.08zM913.56 948.33l-1.52 11.5-.45-.06 1.44-11.51.53.07zM910.5 971.32l-1.55 11.49-.19-.02 1.41-11.51.33.04zM907.41 994.3l-.8 5.95.73-5.95h.07z"/></g><g id="uuid-3beaf187-7ac2-4e4b-a227-3c4faec5fa7b"><path class="uuid-271f56dc-1655-40d0-b3fc-a21199748eed" d="M1297.56 271.26c-19.5 20.7-27.62 53.77-33.59 80.98-7.58 37.5-11.2 75.57-14.02 113.72-1.24-25.6.07-51.29 2.97-76.74 4.7-36.95 14.9-93.14 44.64-117.96ZM233.16 328.75c-49.05 64.06-109.55 188.81-81.13 269.43a93.8 93.8 0 0 0 13.7 25.05 435.7 435.7 0 0 0 57.36 65.87 347.06 347.06 0 0 0 33.57 28.15c3.91 2.91 7.9 5.71 12.04 8.32-8.52-4.8-16.59-10.36-24.43-16.19-28.53-21.17-53.7-46.72-75.52-74.72-1.3-1.82-5.2-6.97-6.57-8.87a98.57 98.57 0 0 1-14.58-25.97c-29.9-82.68 31.83-208.1 85.57-271.07ZM855.8 566.39c-10.22-9.38-10.48-24.85-8.98-37.7 3.85-26.69 17.21-50.93 32.58-72.65 39.43-53.83 94.48-94.5 152.32-126.68-54.96 36.2-108.8 76.38-148.5 129.46-15.37 21.06-29.03 44.4-33.99 70.24-2.08 12.5-2.64 27.45 6.58 37.33Z"/></g><g id="uuid-08f6605b-70db-4c85-ab7b-7f2424172df5"><path d="M1407.59 672.2c35.53-14.25 31.95-45.16 7.35-34.34a3.89 3.89 0 0 1-4.27-.76c-19.45-18.65-34.83 8.89-6.43 34.5a3.3 3.3 0 0 0 3.35.6Z" fill="#4c4345" stroke-width="0"/><path d="M1401.71 535.66c-4.23 23.8-28.56 39.37-54.33 34.79-25.78-4.59-39.02-51.39-39.02-51.39s28.56-39.37 54.34-34.78c25.78 4.58 43.24 27.59 39.01 51.38Z" fill="url(#uuid-44496a64-ab81-4098-aa23-86cecfc1fed0)" stroke-width="0"/><path class="uuid-271f56dc-1655-40d0-b3fc-a21199748eed" d="M1401.71 535.66c-2.87 17.5-17.79 31.24-34.83 34.97a51.44 51.44 0 0 1-17.48.93c-2.93-.33-5.94-1-8.62-2.24-18.04-8.66-28.15-31.69-34.03-49.8l-.24-.78.5-.66c11.49-14.8 29.53-33.31 49.1-35.03 2.95-.24 6.02.16 8.88.87a51.47 51.47 0 0 1 16.09 6.9c14.7 9.38 23.97 27.42 20.63 44.84Zm0 0c4.38-23.89-14.08-45.89-37.07-50.17-5.55-1.33-11.26-.56-16.5 1.48-10.6 4.19-19.43 11.95-27.31 20.05-3.96 4.1-7.74 8.5-11.11 13.02l.25-1.44c4.9 15.55 12.41 33.18 24.65 44.3 4.24 3.72 9.33 6.42 15 7.08 23.05 3.9 47.98-10.38 52.1-34.32Z"/><path class="uuid-10b98f65-0651-4d8b-9a2b-84a30ae02967" d="M1367.9 531.4c-2.91 16.33-17.8 27.33-17.8 27.33s-10.19-15.46-7.28-31.79c2.9-16.33 17.8-27.33 17.8-27.33s10.18 15.46 7.27 31.79Z"/><circle class="uuid-7a772dde-562b-446f-ac3c-7dbc379baf73" cx="1367.81" cy="514.35" r="4.26"/><path d="M1455.28 552c-4.1 23.03 12.8 45.3 37.76 49.74 24.96 4.43 52.6-33.68 52.6-33.68s-12.81-45.3-37.76-49.74c-24.96-4.44-48.5 10.64-52.6 33.67Z" fill="url(#uuid-7c969ffb-caa3-480c-bbe5-e740964eaa40)" stroke-width="0"/><path class="uuid-271f56dc-1655-40d0-b3fc-a21199748eed" d="M1455.28 552c-4.23 23.11 13.68 44.34 35.92 48.38 5.35 1.26 10.8.48 15.86-1.5 10.17-4.08 18.66-11.6 26.24-19.43a130.7 130.7 0 0 0 10.7-12.57l-.3 1.73c-4.74-14.98-11.92-31.98-23.66-42.77-4.05-3.6-8.9-6.2-14.36-6.87-22.27-3.88-46.41 9.86-50.4 33.02Zm0 0c3.82-23.18 28.09-37.91 50.66-34.96 5.83.49 11.36 3.05 15.84 6.72 13.37 11.16 20.98 28.41 26.1 44.7-10.45 13.54-23.5 27.06-39.91 32.95a30.59 30.59 0 0 1-12.92 1.65 48.77 48.77 0 0 1-19.86-7.56c-14.2-9.15-23.16-26.67-19.91-43.5Z"/><path class="uuid-10b98f65-0651-4d8b-9a2b-84a30ae02967" d="M1483.1 557.66c-2.82 15.8 7.04 30.78 7.04 30.78s14.41-10.66 17.22-26.46c2.82-15.8-7.04-30.78-7.04-30.78s-14.42 10.66-17.23 26.46Z"/><ellipse class="uuid-7a772dde-562b-446f-ac3c-7dbc379baf73" cx="1507.87" cy="552.38" rx="7.85" ry="4.12" transform="rotate(-20 1507.88 552.38)"/><path d="M1358.86 621.95c-7.55.1-15.1.23-22.63.56-7.54.25-15.07.6-22.59 1.1a625.96 625.96 0 0 0-44.95 4.33c-7.46 1-14.89 2.21-22.25 3.69a249.62 249.62 0 0 0-21.9 5.29 128.69 128.69 0 0 0-20.99 8c-6.73 3.28-13.12 7.42-18.26 12.98a45.84 45.84 0 0 1 8.12-7.91c3-2.32 6.22-4.37 9.55-6.2 6.68-3.64 13.79-6.41 20.99-8.8 14.44-4.7 29.4-7.54 44.38-9.65 15-2.01 30.1-3.24 45.21-3.75 7.56-.25 15.12-.38 22.67-.36 7.55.1 15.11.22 22.65.72Z" fill="url(#uuid-b15c9fda-fa99-4877-98d5-d61103a6d04e)" stroke-width="0"/><path d="M1338.27 638.86c-6.06 2.2-12.13 4.3-18.15 6.56a762.96 762.96 0 0 0-18.07 6.75 889.57 889.57 0 0 0-35.66 14.57c-5.9 2.54-11.74 5.2-17.53 7.96a399.62 399.62 0 0 0-17.18 8.65 190.04 190.04 0 0 0-16.5 9.84 91.06 91.06 0 0 0-7.74 5.67 51.9 51.9 0 0 0-6.9 6.68 44.22 44.22 0 0 1 6.44-7.2 92.45 92.45 0 0 1 7.46-6.2 187.17 187.17 0 0 1 16.26-10.55c11.16-6.52 22.83-12.07 34.64-17.26a512.18 512.18 0 0 1 36.02-14.05c6.1-2.1 12.2-4.14 18.35-6.07 6.17-1.86 12.33-3.72 18.56-5.35Z" fill="url(#uuid-25e2ff72-a479-4b6c-b65b-31897abb9f37)" stroke-width="0"/><path d="M1362.23 647.22a433.44 433.44 0 0 0-34.22 14.15 297.62 297.62 0 0 0-16.47 8.36c-5.4 2.95-10.7 6.07-15.8 9.48a168.43 168.43 0 0 0-14.82 10.89c-1.17.99-2.38 1.94-3.51 2.97l-3.4 3.08-3.27 3.23c-1.08 1.08-2.1 2.23-3.15 3.34-8.19 9.07-14.85 19.67-18.4 31.57a66.31 66.31 0 0 1 6.33-17.48 86 86 0 0 1 10.53-15.44c8.06-9.57 17.9-17.45 28.24-24.35a215.62 215.62 0 0 1 32.88-17.51 261.72 261.72 0 0 1 35.06-12.3Z" fill="url(#uuid-81a97bb5-437a-406f-994d-79ae4dacc3ff)" stroke-width="0"/><path d="M1475.9 658.4a352.33 352.33 0 0 1 31.59 8.45 374.26 374.26 0 0 1 30.77 11.12c10.07 4.23 20 8.88 29.36 14.57 4.68 2.84 9.24 5.91 13.44 9.44 4.17 3.55 8.1 7.5 10.9 12.2-3.27-4.37-7.36-7.97-11.7-11.18a123.6 123.6 0 0 0-13.67-8.69c-4.74-2.6-9.54-5.1-14.46-7.36a315.1 315.1 0 0 0-14.88-6.55 606.1 606.1 0 0 0-30.41-11.62 1147.18 1147.18 0 0 0-30.93-10.38Z" fill="url(#uuid-be88fe55-9768-4ffb-a8ac-dfc86ae194b8)" stroke-width="0"/><path d="M1478.22 647.22c4.75.03 9.5.57 14.2 1.27a151.91 151.91 0 0 1 40.9 12.54c4.32 2.05 8.53 4.3 12.66 6.72a146.9 146.9 0 0 1 11.9 7.96 125.88 125.88 0 0 1 20.8 19.48 185.95 185.95 0 0 0-22-17.82 176.12 176.12 0 0 0-24.47-13.96c-8.5-4-17.32-7.36-26.35-10.07a193.91 193.91 0 0 0-13.68-3.6c-4.6-1.03-9.25-1.92-13.96-2.52Z" fill="url(#uuid-e7a91902-820f-4ff5-b3b4-256536728bbc)" stroke-width="0"/><path d="M1461.62 666.9c7.8 3.61 15.2 8.09 22.3 12.99a160.73 160.73 0 0 1 20.01 16.4 134.2 134.2 0 0 1 8.84 9.5c2.74 3.36 5.4 6.79 7.7 10.47a82.42 82.42 0 0 1 6.08 11.47c1.65 4 2.98 8.13 3.79 12.36a86.12 86.12 0 0 0-4.95-11.81 99.65 99.65 0 0 0-6.63-10.88 136.99 136.99 0 0 0-16.66-19.23c-3.01-3-6.2-5.82-9.44-8.6a236.3 236.3 0 0 0-9.95-8.03 286.27 286.27 0 0 0-21.09-14.64Z" fill="url(#uuid-1c3c275d-f609-44bd-b208-1cf757ebd845)" stroke-width="0"/></g></svg>