<svg xmlns="http://www.w3.org/2000/svg" xmlns:xlink="http://www.w3.org/1999/xlink" viewBox="0 0 1686.64 1258.91"><defs><linearGradient id="uuid-42a73e6e-e2f6-47ec-a5d7-33e16e0942cb" x1="1284.88" y1="422.76" x2="1680.29" y2="422.76" gradientUnits="userSpaceOnUse"><stop offset="0" stop-color="#2e2b2f"/><stop offset="0" stop-color="#2f2c30"/><stop offset=".05" stop-color="#434246"/><stop offset=".11" stop-color="#535456"/><stop offset=".18" stop-color="#5e6062"/><stop offset=".28" stop-color="#656769"/><stop offset=".52" stop-color="#67696b"/><stop offset=".72" stop-color="#646668"/><stop offset=".85" stop-color="#5c5e5f"/><stop offset=".96" stop-color="#4d5050"/><stop offset="1" stop-color="#474a49"/></linearGradient><linearGradient id="uuid-b928b9e3-803b-4af6-b11b-994e67fc4d06" x1="1287.26" y1="250.22" x2="1680.29" y2="250.22" gradientUnits="userSpaceOnUse"><stop offset="0" stop-color="#271f26"/><stop offset=".01" stop-color="#2e2129"/><stop offset=".06" stop-color="#442931"/><stop offset=".12" stop-color="#562f38"/><stop offset=".19" stop-color="#62333d"/><stop offset=".28" stop-color="#693640"/><stop offset=".52" stop-color="#6b3741"/><stop offset=".73" stop-color="#68353e"/><stop offset=".86" stop-color="#5f2e38"/><stop offset=".97" stop-color="#50242d"/><stop offset="1" stop-color="#4c212a"/></linearGradient><linearGradient id="uuid-308b0528-dbf6-40f8-ae17-8bf8b2cd9df3" x1="1319.96" y1="166.87" x2="1673.96" y2="-37.51" gradientUnits="userSpaceOnUse"><stop offset="0" stop-color="#847b81"/><stop offset="0" stop-color="#81787e"/><stop offset=".05" stop-color="#716268"/><stop offset=".11" stop-color="#645156"/><stop offset=".18" stop-color="#5b454a"/><stop offset=".28" stop-color="#563e43"/><stop offset=".52" stop-color="#553d42"/><stop offset=".71" stop-color="#523a40"/><stop offset=".84" stop-color="#49333b"/><stop offset=".9" stop-color="#422e38"/></linearGradient><linearGradient id="uuid-39082aee-a449-4104-b0cc-df261199f4f4" x1="501.7" y1="502.73" x2="1187.06" y2="107.03" gradientUnits="userSpaceOnUse"><stop offset="0" stop-color="#959188"/><stop offset=".24" stop-color="#a09d94"/><stop offset=".68" stop-color="#bfbdb5"/><stop offset="1" stop-color="#d9d8d2"/></linearGradient><linearGradient id="uuid-25926c15-aeb2-4d2b-8f3e-f9b3eae32ecd" x1="863.02" y1="741.39" x2="1035.43" y2="741.39" gradientUnits="userSpaceOnUse"><stop offset="0" stop-color="#7a7b7d"/><stop offset=".07" stop-color="#838587"/><stop offset=".26" stop-color="#989a9d"/><stop offset=".46" stop-color="#a6aaad"/><stop offset=".68" stop-color="#afb3b7"/><stop offset="1" stop-color="#b2b6ba"/></linearGradient><linearGradient id="uuid-8814edd9-ac7a-4ebc-8ab6-a37d3ccd6459" x1="360.73" y1="155.65" x2="463.23" y2="53.15" xlink:href="#uuid-39082aee-a449-4104-b0cc-df261199f4f4"/><linearGradient id="uuid-a6b2ec36-d40d-4ccc-9d77-f9853b45d9bc" x1="264.27" y1="156.98" x2="301.72" y2="92.11" gradientUnits="userSpaceOnUse"><stop offset="0" stop-color="#959188"/><stop offset=".27" stop-color="#98948b"/><stop offset=".51" stop-color="#a19e96"/><stop offset=".73" stop-color="#b1afa7"/><stop offset=".94" stop-color="#c8c7c0"/><stop offset="1" stop-color="#d0cfc9"/></linearGradient><linearGradient id="uuid-d0645d07-095d-41f0-90e0-b4792664a51e" x1="145" y1="396.7" x2="145" y2="107.27" gradientUnits="userSpaceOnUse"><stop offset="0" stop-color="#bcbeb9"/><stop offset=".34" stop-color="#aaa9a5"/><stop offset=".67" stop-color="#9f9d99"/><stop offset="1" stop-color="#9c9996"/></linearGradient><radialGradient id="uuid-f494245c-35d7-4d5f-a101-a61504746bf3" cx="1374.59" cy="552.64" fx="1374.59" fy="552.64" r="10.27" gradientTransform="matrix(-1 0 0 1 2850.09 0)" gradientUnits="userSpaceOnUse"><stop offset="0" stop-color="#4c4345"/><stop offset=".43" stop-color="#494042"/><stop offset=".69" stop-color="#41393b"/><stop offset=".9" stop-color="#332c2e"/><stop offset="1" stop-color="#292425"/></radialGradient><style>.uuid-04671e39-6dd5-4781-bce9-bdc0416656f4,.uuid-08684d80-4a03-405d-9bdb-5eff90bb9c10,.uuid-1e4ca021-bc0b-41d7-a0fe-1285cc00b2cc,.uuid-845d588d-0b09-4041-a0d2-906aeaed11b0,.uuid-88cbe670-e6df-46e9-a7af-0c0a21361017,.uuid-fac22da1-1d40-4dd8-a4bd-66ef06f15bcf{stroke-width:0}.uuid-845d588d-0b09-4041-a0d2-906aeaed11b0{fill:#292425}.uuid-04671e39-6dd5-4781-bce9-bdc0416656f4{fill:#ffc5de}.uuid-fac22da1-1d40-4dd8-a4bd-66ef06f15bcf{fill:#6b6a6f}.uuid-64ef0c13-311b-4c8c-816d-e4e4094ee7f1{stroke-width:1px}.uuid-64ef0c13-311b-4c8c-816d-e4e4094ee7f1,.uuid-8c8b54d7-8279-4786-b420-be568d4d3486{fill:none;stroke:#292425;stroke-miterlimit:10}.uuid-1e4ca021-bc0b-41d7-a0fe-1285cc00b2cc{fill:#1e242a}.uuid-08684d80-4a03-405d-9bdb-5eff90bb9c10{fill:#4c4345}.uuid-88cbe670-e6df-46e9-a7af-0c0a21361017{fill:#191818}</style></defs><g id="uuid-b7697162-388f-42b7-8b90-39cd22c48e69"><path d="m868.3 714.22 44.61.08c-7.36.96-13.55 1.92-18.87 2.92h-.02c-2.48-.11-25.72-3-25.72-3" stroke-width="0" fill="#5c514f"/><path d="M1680.29 873.65v126.85H795.72v-80.95c17.64-.57 32.89-.7 41.98 0 14.66 1.11 128.65 9.61 157.17 13.08l.66.08 2.38.32c28.27 4.06 85.18 20.27 148.06 16.39a426 426 0 0 0 31.91-3.12c54.79-7.55 103.79-27.3 70.76-72.57l-.05-.07a97 97 0 0 0-4.42-6.45c-31.37-42.24-66.97-91.74-83.75-112.37l352.82.28 165.99 118.54z" stroke-width="0" fill="#979391"/><path stroke-width="0" fill="#6c6867" d="M1680.29 755.24v118.41h-1.06l-165.99-118.54 165.99.13z"/><path stroke-width="0" fill="#584e4d" d="M1680.29 578.12v177.12h-1.06l-165.99-.13-250.48-178.88z"/><path stroke-width="0" fill="#513d3e" d="M1680.29 489.74v88.38l-417.53-1.89-106.05-75.73.98-10.76h522.6"/><path stroke-width="0" fill="url(#uuid-42a73e6e-e2f6-47ec-a5d7-33e16e0942cb)" d="M1680.29 447.6v42.14h-1.06l-207.12-58.44-187.23-52.83 1.89-22.69.49.11v.01z"/><path stroke-width="0" fill="url(#uuid-b928b9e3-803b-4af6-b11b-994e67fc4d06)" d="M1680.29 52.85V447.6l-393.03-91.7v-.01l6.69-87.15.01-.11 19.06-160.36 63.43 4.04 302.78-59.46z"/><path stroke-width="0" fill="#918180" d="M1680.29.5v52.35h-1.06l-175.7-8.76L1509.47.5z"/><path stroke-width="0" fill="url(#uuid-308b0528-dbf6-40f8-ae17-8bf8b2cd9df3)" d="m1679.23 52.85-302.78 59.46-63.43-4.04-48.03-3.06 95.63-24.5 142.91-36.62z"/><path stroke-width="0" fill="#4b4041" d="M1679.23 489.74h-521.54l5.03-55.64 309.39-2.8z"/><path d="m1513.24 755.11-352.82-.28a142 142 0 0 0-6.04-7.04c-11.97-12.71-66.67-30.34-99.89-34.26v-.02l85.14.88 1.21-22.67-1.21-2.46 10.28-113.54 112.85.51z" stroke-width="0" fill="#706868"/><path stroke-width="0" fill="#c6c4c1" d="m1509.47.5-5.94 43.59-142.91 36.62L1369.69.5z"/><path stroke-width="0" fill="#524c51" d="m1472.11 431.3-309.39 2.8 5.04-55.63h117.12z"/><path stroke-width="0" fill="#c2bfbc" d="m1369.69.5-9.07 80.21-95.63 24.5L1275.18.5z"/><path stroke-width="0" fill="#908b91" d="m1313.02 108.27-19.06 160.36-.01.11-8.25 69.42-113.98-3.49L1201.96.5h73.22l-10.19 104.71z"/><path stroke-width="0" fill="#2d222a" d="m1293.95 268.74-6.69 87.15-.49-.11h-116.96l1.91-21.11 113.98 3.49z"/><path stroke-width="0" fill="#313034" d="m1286.77 355.78-1.89 22.69h-117.12l2.05-22.69z"/><path stroke-width="0" fill="#6f6669" d="m1262.76 576.23-112.85-.51 6.8-75.22z"/><path class="uuid-1e4ca021-bc0b-41d7-a0fe-1285cc00b2cc" d="M1248.64 873.72c33.03 45.27-15.97 65.02-70.76 72.57l-.41-2.97q4.7-.63 8.68-1.52c44.8-10.04 89.59-24.8 62.49-68.08"/><path d="M506.76 714.22c27.27-3.27 53.4-3.7 64.1-4.18 9.38-.43 37.43 1.62 67.22 4.19 36.92 3.18 76.51 7.16 86.55 8.22 18.15 1.91 105.54 2.87 126.04 1.05-3.23 12.39-9.65 36.01-10.38 39.54-1.15 5.53.05 8.68 3.48 11.02a241 241 0 0 0-3.48 34.41c-.47 21.65 54.2 38.9 77.87 41.65s91.14 8.9 123.3-22.93c7.74-7.66 3.59-55.33-1.02-74.32q-.25-3.26-2.21-6.63l-.02-.05c-2.32-3.98-6.45-8.04-12.48-12.08l-.85-.56c.28-2.99 1.33-17.06-4.17-16.96-3.25.05-25.04 1.32-38.33 1.89h-.01a239 239 0 0 0-21.22-3.5c4.42-.88 56.94-4.79 89.63-1.84q1.8.16 3.71.39c33.22 3.92 87.92 21.55 99.89 34.26 1.57 1.67 3.6 4.05 6.04 7.04 16.78 20.63 52.38 70.13 83.75 112.37a97 97 0 0 1 4.42 6.45l.05.07c27.1 43.28-17.69 58.04-62.49 68.08q-3.98.89-8.68 1.52c-40.66 5.54-119.62-2.51-179.56-10.3l-2.38-.32-.66-.08c-36.66-4.82-65.66-9.44-73.48-10.62-29.17-4.4-78.04-5.6-125.67-5.08-54.88.6-108.11 3.5-127.58 6.46-36.38 5.52-141.82 22.1-194.31 26.7-45.86 4.03-94.18-3.55-122.54-17.19-7.92-4.97-14.08-9.77-19.17-13.33l-.02-.02c-15.27-16.81-8.09-38.8 10.5-64.31 2.37-3.25 30.79-38.7 43.92-55.41 9.69-12.34 15.61-30.01 30.82-47.44a113 113 0 0 1 20.28-18.23c15.58-11.01 42.89-16.79 69.14-19.93" stroke-width="0" fill="#494c50"/><path stroke-width="0" fill="url(#uuid-39082aee-a449-4104-b0cc-df261199f4f4)" d="m410.87 4.83-.3-4.33h791.39l-30.24 334.17-1.91 21.11-2.05 22.69-5.04 55.63-5.03 55.64-.98 10.76-6.8 75.22-10.28 113.54-681.22-2.69-8.24-118.21-5.93-85.02-1.33-19.11-2.47-35.36-2.9-41.55-5.22-74.93z"/><path class="uuid-1e4ca021-bc0b-41d7-a0fe-1285cc00b2cc" d="m1177.47 943.32.41 2.97a426 426 0 0 1-31.91 3.12c-62.88 3.88-119.79-12.33-148.06-16.39 59.94 7.79 138.9 15.84 179.56 10.3"/><path stroke-width="0" fill="#a7a390" d="m1139.63 689.26 1.21 2.46-684 .23v-4.31l1.57-1.07z"/><path d="m1140.84 691.72-1.21 22.67-85.14-.88v.02q-1.9-.22-3.71-.39c-32.69-2.95-85.21.96-89.63 1.84-3.44-.39-6.49-.65-8.99-.76 0 0-28.66-1.28-39.25.08l-44.61-.08c-1.94-.3-10.3-2.36-14.16.17l-216.06-.16c-29.79-2.57-57.84-4.62-67.22-4.19-10.7.48-36.83.91-64.1 4.18h-51.35l-.63-21.65 2.06-.62z" stroke-width="0" fill="#3a3736"/><path d="M1040.44 752.87c4.61 18.99 8.76 66.66 1.02 74.32-32.16 31.83-99.63 25.68-123.3 22.93s-78.34-20-77.87-41.65a241 241 0 0 1 3.48-34.41c2.24-12.97 5.54-25.76 9.81-35.75l.15.07c-4.02 8.84-2.77 21.33 24.59 31.85 34.08 13.12 73.62 16.62 98.63 13.82 41.82-4.69 64.61-16.94 63.49-31.18" stroke-width="0" fill="#a8afb5"/><path d="m1024.88 733.55.85.56c6.03 4.04 10.16 8.1 12.48 12.08l.02.05c.72 1.29 1.47 3.59 2.21 6.63 1.12 14.24-21.67 26.49-63.49 31.18-25.01 2.8-64.55-.7-98.63-13.82-27.36-10.52-28.61-23.01-24.59-31.85 3.07-6.73 9.21-11.34 9.21-11.34a100.2 100.2 0 0 1 20.06-7.4 168 168 0 0 1 11.02-2.42h.02c5.32-1 11.51-1.96 18.87-2.92 10.59-1.36 39.25-.08 39.25-.08 2.5.11 5.55.37 8.99.76a239 239 0 0 1 21.22 3.5h.01c3.78.8 7.63 1.7 11.45 2.72a155 155 0 0 1 18.79 6.17q3.53 1.44 6.7 3.04 2.99 1.5 5.56 3.14m-130.83 35.96c27.67 10.13 65.42 10.65 86.73 6.99 5.81-1 12.18-2.35 18.46-4.02a136 136 0 0 0 19.8-6.72c14.57-6.46 22.72-15.03 10.32-24.9-21.85-17.4-52.37-21.04-70.07-22.92-19.7-2.09-41.86 0-41.86 0-33.61 7-70.74 15.07-46.76 37.98a45 45 0 0 0 3.67 3.15c5.48 4.26 12.23 7.7 19.71 10.44" stroke-width="0" fill="#a8a9ad"/><path d="M1029.36 740.86c12.4 9.87 4.25 18.44-10.32 24.9-48.7-43.43-132.87-25.14-144.7-6.69q-1.95-1.5-3.67-3.15c-23.98-22.91 13.15-30.98 46.76-37.98 0 0 22.16-2.09 41.86 0 17.7 1.88 48.22 5.52 70.07 22.92" stroke-width="0" fill="url(#uuid-25926c15-aeb2-4d2b-8f3e-f9b3eae32ecd)"/><path d="M1020.71 716.59c5.5-.1 4.45 13.97 4.17 16.96a63 63 0 0 0-5.56-3.14c3.5-6.85 2.56-13.59 1.39-13.82" stroke-width="0" fill="#858589"/><path d="M1020.71 716.59c1.17.23 2.11 6.97-1.39 13.82a91 91 0 0 0-6.7-3.04l2.52-7.03-21.31.86a226 226 0 0 0-11.45-2.72c13.29-.57 35.08-1.84 38.33-1.89" stroke-width="0" fill="#afb0b3"/><path d="M1019.04 765.75a135 135 0 0 1-19.8 6.73c-48.08-24.6-92.33-6.88-105.19-2.97-7.48-2.74-14.23-6.18-19.71-10.44 11.83-18.45 96-36.74 144.7 6.68" stroke-width="0" fill="#808283"/><path class="uuid-fac22da1-1d40-4dd8-a4bd-66ef06f15bcf" d="m1015.14 720.34-2.52 7.03a155 155 0 0 0-18.79-6.17z"/><path d="M999.24 772.48a215 215 0 0 1-18.46 4.02c-21.31 3.66-59.06 3.14-86.73-6.99 12.86-3.91 57.11-21.63 105.19 2.97" stroke-width="0" fill="#969899"/><path class="uuid-1e4ca021-bc0b-41d7-a0fe-1285cc00b2cc" d="M921.39 922c7.82 1.18 36.82 5.8 73.48 10.62-28.52-3.47-142.51-11.97-157.17-13.08-9.09-.69-24.34-.56-41.98 0v-2.63c47.63-.52 96.5.68 125.67 5.08Z"/><path d="M894.02 717.22a168 168 0 0 0-11.02 2.42l-20.61-2.21 5.91 6.45.25.6c-1.92.81-3.76 1.66-5.61 2.56 0 0-7.56-5.65-9.56-11.98l-.02-.02q.35-.37.78-.65c3.86-2.53 12.22-.47 14.16-.17 0 0 23.24 2.89 25.72 3" stroke-width="0" fill="#a7a7a7"/><path class="uuid-fac22da1-1d40-4dd8-a4bd-66ef06f15bcf" d="m862.39 717.43 20.61 2.21a100 100 0 0 0-14.45 4.84l-.25-.6z"/><path d="M853.58 738.31c-4.27 9.99-7.57 22.78-9.81 35.75-3.43-2.34-4.63-5.49-3.48-11.02.73-3.53 7.15-27.15 10.38-39.54.76-2.93 1.34-5.23 1.63-6.49a4 4 0 0 1 1.06-1.97l.02.02c2 6.33 9.56 11.98 9.56 11.98s-6.14 4.61-9.21 11.34z" stroke-width="0" fill="#99999d"/><path d="m638.08 714.23 216.06.16q-.43.28-.78.65a4 4 0 0 0-1.06 1.97c-.29 1.26-.87 3.56-1.63 6.49-20.5 1.82-107.89.86-126.04-1.05a5530 5530 0 0 0-86.55-8.22" stroke-width="0" fill="#69625f"/><path d="M332.1 919.54s0 .02.02.02a47 47 0 0 0 8.18 7.04 82 82 0 0 0 10.99 6.29c21.59 13.55 56.23 28.35 117.85 22.51 84.25-7.99 193.27-27.55 206.44-28.75 9.58-.87 73.28-5.57 120.14-7.1v80.95H.29V772.48l28.86-20.1h388.19c-15.21 17.43-21.13 35.1-30.82 47.44-13.13 16.71-41.55 52.16-43.92 55.41-18.59 25.51-25.77 47.5-10.5 64.31" stroke-width="0" fill="#6d6964"/><path class="uuid-1e4ca021-bc0b-41d7-a0fe-1285cc00b2cc" d="M795.72 916.92v2.63c-46.86 1.53-110.56 6.23-120.14 7.1-13.17 1.2-122.19 20.76-206.44 28.75-61.62 5.84-96.26-8.96-117.85-22.51 28.36 13.64 76.68 21.22 122.54 17.19 52.49-4.6 157.93-21.18 194.31-26.7 19.47-2.96 72.7-5.86 127.58-6.46"/><path d="M455.41 714.22h51.35c-26.25 3.14-53.56 8.92-69.14 19.93a113 113 0 0 0-20.28 18.23H29.15L295.49 566.9l154.68 1.46 8.24 118.21-1.57 1.07v4.31l-2.06.62z" stroke-width="0" fill="#736f6a"/><path stroke-width="0" fill="#7b7771" d="m444.24 483.34 5.93 85.02-154.68-1.46 120.69-84.05 26.73.58z"/><path fill="#76716d" stroke-width="0" d="m442.91 464.23 1.33 19.11-1.33.09-26.73-.58z"/><path stroke-width="0" fill="#74736e" d="m440.44 428.87 2.47 35.36-26.73 18.62-364.35-7.96 153.9-52.51z"/><path stroke-width="0" fill="#64635f" d="m437.54 387.32 2.9 41.55-234.71-6.49 110.77-37.79z"/><path stroke-width="0" fill="#adaba7" d="m316.5 384.59-26.78-.61-4.75-71.58 17.87-2.79 11.53.25 117.95 2.53 5.22 74.93z"/><path stroke-width="0" fill="url(#uuid-8814edd9-ac7a-4ebc-8ab6-a37d3ccd6459)" d="m410.87 4.83 21.45 307.56-117.95-2.53.01-.25L287.36.7z"/><path stroke-width="0" fill="#7b7873" d="M416.18 482.85 295.49 566.9.29 564.1v-71.62l51.54-17.59z"/><path class="uuid-1e4ca021-bc0b-41d7-a0fe-1285cc00b2cc" d="m410.57.5.3 4.33L287.36.7l-.02-.2z"/><path stroke-width="0" fill="#6e6b67" d="m289.72 383.98 26.78.61-110.77 37.79-36.54-1.01z"/><path stroke-width="0" fill="#97958d" d="m287.36.7 27.02 308.91-.01.25-11.53-.25L275.34.5h6.13z"/><path stroke-width="0" fill="url(#uuid-a6b2ec36-d40d-4ccc-9d77-f9853b45d9bc)" d="M245.81 185.43 232.46 47.34 227.93.5h47.41l27.5 309.11-17.87 2.79-26.48 4.12z"/><path stroke-width="0" fill="#76756f" d="M295.49 566.9 29.15 752.38H.29V564.1z"/><path stroke-width="0" fill="url(#uuid-d0645d07-095d-41f0-90e0-b4792664a51e)" d="m138.36 335.24 120.13-18.72 26.48-4.12 4.75 71.58-120.53 37.39-168.9 52.4V356.76z"/><path d="m245.81 185.43 12.68 131.09-120.13 18.72-20.74-162.22zm-22.84 29.47c1.74-.92 5.68-5.58.71-7.63-7.49-3.1-17.18-3.88-17.18-3.88v2.16l-18.5-1.86c-8.62-1.75-15.97-2.76-15.97-2.76l1.69 14.58s5.07 0 10.14-.61l30.86.61s6.5.31 8.25-.61" stroke-width="0" fill="#9a9991"/><path d="m232.46 47.34 13.35 138.09-128.19-12.41L95.57.5h2.55v.34zm-25.32 19.3c4.7-2.77 5.26-6.46 1.21-8-7.52-2.85-32.61-10.32-34.56-10.89l-.08-.03-.04-.01a8 8 0 0 0-1.32-.37l-16.79-3.43 2.09 16.66s6.49-1.5 10.64-2.6q1.37-.36 2.53-.87s11.28 3.65 21.55 6.44l.39 6.53c6.47-.18 11.31-1.6 14.38-3.43" stroke-width="0" fill="#a19e96"/><path stroke-width="0" fill="#b2afa7" d="m227.93.5 4.53 46.84L98.12.84V.5z"/><path d="m206.5 205.55 17.18 1.72c4.97 2.05 1.03 6.71-.71 7.63-1.75.92-8.25.61-8.25.61l-30.86-.61c7.05-.86 13.2-9.37 4.14-11.21z" stroke-width="0" fill="#434343"/><path d="m223.68 207.27-17.18-1.72v-2.16s9.69.78 17.18 3.88" stroke-width="0" fill="#696969"/><path d="M192.37 63.54a551 551 0 0 1-21.55-6.44c5.98-2.56 7.66-7.52 2.97-9.35 1.95.57 27.04 8.04 34.56 10.89 4.05 1.54 3.49 5.23-1.21 8-2.78-.08-8.59-1.43-14.77-3.1" stroke-width="0" fill="#4e4e4e"/><path stroke-width="0" fill="#7b7e77" d="m205.73 422.38-153.9 52.51-51.54-1.12 168.9-52.4z"/><path d="M207.14 66.64c-3.07 1.83-7.91 3.25-14.38 3.43l-.39-6.53c6.18 1.67 11.99 3.02 14.77 3.1" stroke-width="0" fill="#474244"/><path d="M188 203.69c9.06 1.84 2.91 10.35-4.14 11.21-5.07.61-10.14.61-10.14.61l-1.69-14.58s7.35 1.01 15.97 2.76" stroke-width="0" fill="#5d5d5b"/><path d="M173.79 47.75c4.69 1.83 3.01 6.79-2.97 9.35q-1.16.51-2.53.87c-4.15 1.1-10.64 2.6-10.64 2.6l-2.09-16.66 16.79 3.43a8 8 0 0 1 1.36.38z" stroke-width="0" fill="#666763"/><path stroke-width="0" fill="#a5a49c" d="m117.62 173.02 20.74 162.22L.29 356.76V.5h95.28z"/><path stroke-width="0" fill="#7c7f78" d="M51.83 474.89.29 492.48v-18.71z"/><path stroke-width="0" fill="#69625c" d="M29.15 752.38.29 772.48v-20.1z"/></g><g id="uuid-54332289-6e0f-43b3-8870-92a062658e45"><path class="uuid-845d588d-0b09-4041-a0d2-906aeaed11b0" d="M1679.29 1.5v998H1.29V1.5zm1-1H.29v1000h1680z"/><path class="uuid-8c8b54d7-8279-4786-b420-be568d4d3486" d="m410.57.5 47.83 686.07 681.23 2.69L1201.96.5M458.4 686.57l-1.56 1.07v4.31l-2.06.62.63 21.65h59.03"/><path class="uuid-8c8b54d7-8279-4786-b420-be568d4d3486" d="m1139.63 689.26 1.21 2.46-1.21 22.67-85.15-.88M456.84 691.95l684-.23M630.2 714.22l223.93.17M868.3 714.22l44.61.08M.29 356.76l302.55-47.15 129.48 2.78M289.71 383.98l-4.74-71.58M.29 473.77l289.42-89.79 147.83 3.34M287.34.5l27.04 309.11M275.34.5l27.5 309.11M281.47.5l129.4 4.33M95.56.5l42.8 334.75M227.93.5l30.56 316.02M117.62 173.02l128.19 12.41M232.46 47.34 98.12.84M1275.18.5l-10.19 104.71 238.53-61.12L1509.46.5M1679.22 52.85l-175.7-8.76M1264.99 105.21l111.46 7.1 302.77-59.46M1369.69.5l-9.07 80.21M1171.71 334.67l113.98 3.49 27.33-229.89M1169.8 355.78h116.96l393.53 91.82M1167.75 378.47h117.13l394.34 111.27M1286.76 355.78l-1.88 22.69M1287.25 355.9l6.71-87.27M952.15 714.22c16.13.71 54.83 7.35 73.57 19.9 31.74 21.25 10.77 43.25-48.78 49.93-25.01 2.8-64.55-.7-98.63-13.81-48.2-18.55-15.38-43.2-15.38-43.2 11.18-5.43 22.21-9.14 49.97-12.73 10.58-1.37 39.24-.09 39.24-.09Z"/><path class="uuid-8c8b54d7-8279-4786-b420-be568d4d3486" d="M917.42 717.94c-33.61 7-70.74 15.06-46.76 37.98s81.68 25.46 110.11 20.58 70.44-18.25 48.58-35.64-52.37-21.03-70.07-22.91c-19.7-2.1-41.86 0-41.86 0Z"/><path class="uuid-8c8b54d7-8279-4786-b420-be568d4d3486" d="M853.92 737.51c-8.44 19.2-13.16 49.31-13.63 70.96s54.2 38.9 77.87 41.65 91.13 8.9 123.3-22.94c8.99-8.9 1.93-71.81-3.26-80.99"/><path class="uuid-8c8b54d7-8279-4786-b420-be568d4d3486" d="M843.76 774.06c-3.43-2.34-4.62-5.49-3.48-11.03.9-4.35 10.5-39.43 12.02-46.03 1.42-6.21 13.61-3.16 16-2.79 0 0 23.34 2.9 25.74 3"/><path class="uuid-8c8b54d7-8279-4786-b420-be568d4d3486" d="M862.94 727.04s-7.56-5.65-9.56-11.97M868.3 723.88l-5.92-6.45 20.62 2.21M874.34 759.08c11.79-18.45 95.98-36.76 144.69 6.68"/><path d="M894.04 769.51c12.85-3.9 57.1-21.64 105.2 2.97" fill="none" stroke="#292425" stroke-miterlimit="10" stroke-width=".25"/><path class="uuid-8c8b54d7-8279-4786-b420-be568d4d3486" d="M982.37 718.48c13.29-.57 35.09-1.83 38.34-1.89 6.17-.1 4.11 17.52 4.11 17.52"/><path class="uuid-8c8b54d7-8279-4786-b420-be568d4d3486" d="m993.83 721.2 21.3-.86-2.52 7.03M1020.7 716.59c1.17.23 2.11 6.97-1.39 13.82"/><path class="uuid-8c8b54d7-8279-4786-b420-be568d4d3486" d="M850.66 723.5c-20.49 1.82-107.89.86-126.03-1.05s-132.76-13.37-153.77-12.42-101.48 1.67-133.24 24.12-37.97 48.95-51.1 65.66-41.56 52.16-43.92 55.41c-21.32 29.25-27.63 53.87-2.3 71.37s81.04 28.09 133.53 23.48 157.94-21.18 194.31-26.71 190.47-10.84 253.25-1.38c21.64 3.26 205.81 33 264.76 19.8 46.98-10.52 93.93-26.25 58.02-74.59s-77.36-106.21-89.79-119.41-70.91-31.69-103.6-34.65-85.21.95-89.63 1.84"/><path class="uuid-8c8b54d7-8279-4786-b420-be568d4d3486" d="M332.09 919.54c18.98 13.25 52.79 43.85 137.05 35.86s193.27-27.55 206.44-28.75 128.89-9.64 162.12-7.11c14.77 1.12 130.45 9.74 157.82 13.17s85.76 20.7 150.44 16.7 142.16-21.67 102.62-75.76M795.72 916.92v83.58M.29 772.48 442.9 464.23M417.33 752.38H.29M450.16 568.36.29 564.1M442.9 483.43.29 473.77"/><path class="uuid-64ef0c13-311b-4c8c-816d-e4e4094ee7f1" d="m.29 492.48 316.22-107.9M1679.22 873.65 1156.71 500.5M1160.41 754.83l518.81.41M1149.9 575.72l530.39 2.4M1156.71 489.74h529.68M440.44 428.87l-271.27-7.5M1162.72 434.1l309.39-2.8M172.03 200.93l1.69 14.59s5.07 0 10.13-.61c7.05-.85 13.2-9.37 4.15-11.21-8.63-1.75-15.97-2.76-15.97-2.76ZM223.67 207.26 188 203.69"/><path class="uuid-64ef0c13-311b-4c8c-816d-e4e4094ee7f1" d="m183.85 214.9 30.86.61s6.51.3 8.25-.61 5.68-5.58.71-7.63c-7.49-3.1-17.18-3.87-17.18-3.87v2.19M155.56 43.91l2.08 16.66s6.49-1.51 10.64-2.6c8.61-2.27 11.23-9.17 4.07-10.64s-16.79-3.42-16.79-3.42Z"/><path class="uuid-64ef0c13-311b-4c8c-816d-e4e4094ee7f1" d="M173.67 47.71s26.85 7.97 34.67 10.93c6.7 2.54.81 10.97-15.59 11.43l-.39-6.54"/><path class="uuid-64ef0c13-311b-4c8c-816d-e4e4094ee7f1" d="M170.82 57.1s28.89 9.34 36.32 9.54"/></g><g id="uuid-2b0cd44d-ea58-4c5f-ae7e-18bfca117f0a"><path class="uuid-845d588d-0b09-4041-a0d2-906aeaed11b0" d="M1189.92 652.01c.53-4.08-4.87-14.5-11.68-12.85-14.44 9.35-21.47 18.27-26.45 35.42a54 54 0 0 0-1.26 24.7h11.58a43 43 0 0 1 1.37-21.03c4.8-14.07 13.9-18.64 26.44-26.24"/><path class="uuid-08684d80-4a03-405d-9bdb-5eff90bb9c10" d="M1178.24 639.16c6.81-1.65 12.21 8.77 11.68 12.85a47 47 0 0 1 6.11-2.37c-4.13-4.92-2.93-22.74-1.3-53.25-3.61 14.36-5.6 33.29-16.49 42.77M1275.55 661.14l.72-.06zM1275.55 661.14c-12.28.32-25.56.47-35.65.54.88.8 7.12 6.31 11.25 6.88 4.45.62 18.6 2.62 27.15 5.36a4 4 0 0 1-.88-2.4c0-4.51 9.02-8.16 20.16-8.16 2.89 0 5.64.25 8.13.69-2.91-1.02-17.52-4.04-29.44-2.97z"/><path class="uuid-04671e39-6dd5-4781-bce9-bdc0416656f4" d="M1278.3 673.92c2.53 3.34 10.2 5.76 19.28 5.76 11.13 0 20.15-3.65 20.15-8.16 0-3.34-4.94-6.21-12.02-7.47a47 47 0 0 0-8.13-.69c-11.14 0-20.16 3.65-20.16 8.16q.01 1.26.88 2.4"/><path class="uuid-08684d80-4a03-405d-9bdb-5eff90bb9c10" d="M1404.02 499.25q.7.24 1.39.53c8.87 3.66 16.5 14.16 19.06 24.24a111 111 0 0 1 22.04-1.01c-2.42-10.26-10.16-21.08-19.2-24.81-8.08-3.33-16.7-2.68-23.29 1.05"/><path class="uuid-04671e39-6dd5-4781-bce9-bdc0416656f4" d="M1420.08 668.14c-7.04 0-12.75 3.64-12.75 8.13s5.71 8.12 12.75 8.12 12.76-3.64 12.76-8.12c0-3.59-3.64-6.63-8.7-7.71h-.04a31 31 0 0 1-2.19-.34q-.9-.08-1.83-.08M1435.85 668.31c2.08 1.9 6.42 3.21 11.43 3.21 7.04 0 12.75-2.59 12.75-5.78 0-2.16-2.61-4.04-6.48-5.03a25 25 0 0 0-6.27-.75c-7.04 0-12.75 2.59-12.75 5.78 0 .92.47 1.79 1.32 2.57"/><path class="uuid-08684d80-4a03-405d-9bdb-5eff90bb9c10" d="M1420.49 652.34c2.11 4.8 12.37 14.54 15.36 15.97-.85-.78-1.32-1.65-1.32-2.57 0-3.19 5.71-5.78 12.75-5.78 2.28 0 4.42.27 6.27.75-7.33-2.39-18.61-3.45-20.89-16.74-2.95 2.92-7.58 5.85-12.17 8.37"/><path class="uuid-04671e39-6dd5-4781-bce9-bdc0416656f4" d="M1527.37 557.93c-3.25 3.24-3.4 14.42 5.05 12.81 1.45-4.38 0-7.92-5.04-12.82h-.01Z"/><path class="uuid-08684d80-4a03-405d-9bdb-5eff90bb9c10" d="M1446.51 523.01c-7.03-.38-14.4-.11-22.04 1.01-2.56-10.08-10.19-20.58-19.06-24.24q-.69-.29-1.39-.53c-12.81-4.54-26.61.69-31.32 12.11-2.08 5.04-1.38 11.66 1.13 18.02 0 0-42.89-24.44-70.64-23.39-62.48 2.39-106.43 52.39-108.46 90.4-1.63 30.51-2.83 48.33 1.3 53.25s20 11.91 27.47 12.06a1950.37 1950.37 0 0 0 52.05-.56l.72-.06c6.86-.89 20.83-11.44 23.24-11.44 10.09 0 28.65.14 38.83 0 13.51-.19 25.37 10.29 28.96 10.24 15.49 3.14 33.5 12.06 40.03 16.39 0-4.49 5.71-8.13 12.75-8.13q.93 0 1.83.08c-4.88-.93-13.06-3.57-16-8.9 0 0 7.23-2.95 14.58-6.98 4.59-2.52 9.22-5.45 12.17-8.37q1.47-1.42 2.3-2.82c20.07-33.99 20.96-35.65 38.56-41.41 4.65-1.52 9.71-1.43 14.38-1.99 19.93-2.35 37.26-14.46 42.3-22.53a21 21 0 0 0 2.22-4.48c-8.45 1.61-8.3-9.57-5.05-12.81h.01a84 84 0 0 0-4.56-4.03s-31.27-28.53-76.31-30.89"/><path d="M1178.24 639.16c-14.44 9.35-21.47 18.27-26.45 35.42a54 54 0 0 0-1.26 24.7h11.58a43 43 0 0 1 1.37-21.03c4.8-14.07 13.9-18.64 26.44-26.24" fill="none" stroke="#191818" stroke-linecap="round" stroke-linejoin="round" stroke-width="2"/><path class="uuid-88cbe670-e6df-46e9-a7af-0c0a21361017" d="M1405.91 659.33c8.81-4.05 17.79-8.24 25.23-14.53.77-.63 1.66-1.62 2.34-2.35 3.9-5.93 7.16-12.29 10.92-18.33 4.76-7.55 9.39-16.18 17.55-20.67 4.11-2.2 8.35-3.61 12.78-4.96 4.41-1.17 9.1-1.1 13.51-1.7a70 70 0 0 0 32.51-13.42c5.92-4.55 15.16-13.19 9.34-20.94-16.14-18.61-45.68-33.01-69.8-37.35a116 116 0 0 0-35.82-1.05c23.87-3.96 48.67.63 70.41 11a131 131 0 0 1 30.33 19.7c3.37 3.03 7.31 6.32 8.47 11.01 1.27 7.94-6.06 14.79-11.73 19.22a72 72 0 0 1-33.49 13.63c-4.51.59-8.95.47-13.3 1.59-6.97 2.11-14.31 4.49-19.3 10.07-8.36 9.52-14.08 21.24-21 31.83l-.7.94-.81.82c-1 1.04-2.3 2.13-3.47 2.97-7.34 5.3-15.64 9.09-23.97 12.51ZM1275.54 661.14c3.99-.58 7.47-2.89 10.9-4.88 3.45-2.06 6.74-4.33 10.31-6.36.97-.51 2.02-1.16 3.19-1.1l9.06-.11c6.02-.05 18.14-.05 24.16 0 3.01.08 6.15-.08 9.17.37 5.09.7 9.91 2.78 14.36 5.17 3.11 1.68 6 3.72 9.18 5.23l.7.27.74.14-.76-.07-.73-.21c-3.32-1.19-6.36-3.08-9.57-4.5-4.53-2.09-9.19-3.88-14.13-4.38-2.95-.35-5.94-.13-8.93-.14-6.02.05-18.15.05-24.17 0l-9.06-.11c-.86-.08-1.65.43-2.46.8-3.5 1.84-6.97 3.97-10.56 5.83-3.6 1.73-7.3 3.87-11.37 4.03ZM1196.03 649.64c2.93 2.56 6.5 4.17 9.99 5.79 5.24 2.26 10.68 4.42 16.33 5.24 5.81.35 11.63.33 17.44 1.01-5.86.56-11.75.99-17.63.88-8.28-.98-20.91-6.32-26.13-12.92M1373.83 529.38c-16.83-8.66-34.41-16.39-52.89-20.61-1.92-.51-4.96-.86-6.96-1.26l-3.5-.36c-1.96-.29-5.01-.24-7.01-.28-31.9 1.18-62.87 15.75-84.36 39.33-12.62 13.89-22.7 31.17-24.39 50.18.57-14.36 6.48-28.1 14.46-39.88 21.84-32.19 60.69-52.52 99.67-51.25 1.25.12 4.13.48 5.38.61l3.53.67c19.91 4.19 38.54 12.92 56.07 22.84Z"/><path class="uuid-88cbe670-e6df-46e9-a7af-0c0a21361017" d="M1532.42 570.74c-7.99 3.54-10.73-8.93-5.05-12.81a11 11 0 0 0-1.1 4.2c-.33 4.47.96 8.51 6.15 8.61M1391.46 549.22c-13.63-5.08-26.46-27.47-18.2-41.02 6.33-11.07 21.32-14.17 32.53-9.25 9.23 4.15 15.48 13.24 18.48 22.63 1.51 5.18 2.15 11.01-.1 16.06 1.8-5.14.94-10.74-.84-15.75-3.59-9.66-10.78-19.32-21.04-22.18-9.86-3-22.03.27-27.41 9.46-7.92 12.51 4.2 34.5 16.58 40.06Z"/><path class="uuid-88cbe670-e6df-46e9-a7af-0c0a21361017" d="M1404.02 499.25c8.03-5.47 19.37-5.12 27.54.09a34 34 0 0 1 9.94 10.46 35 35 0 0 1 5.03 13.32 48 48 0 0 0-6.33-12.46c-2.69-3.71-5.86-7.18-9.73-9.65a28.2 28.2 0 0 0-26.45-1.77ZM1196.03 649.64a6.4 6.4 0 0 1-6.11 2.37 5.3 5.3 0 0 1 6.11-2.37M1194.73 596.39c-2.25 14.27-4.11 33.48-16.49 42.77 10.54-11.85 11.24-28.44 16.49-42.77M1189.92 652.01c-1.2-5.01-5.85-12.87-11.68-12.85 6.6-3 13.36 6.94 11.68 12.85M1178.24 639.16c-4.83 3.31-9.48 6.93-13.38 11.27-5.9 6.51-9.59 14.61-11.99 22.99a54 54 0 0 0-1.47 25.71l-.88-.74q2.9-.12 5.79-.1 2.9 0 5.79.16l-.82.97c-1.69-9.93-.13-20.55 5.32-29.12 5.39-8.69 14.79-13.34 23.32-18.29-8.18 5.28-17.41 10.16-22.42 18.84-5.04 8.42-6.37 18.71-4.58 28.29.1.5-.31.98-.82.97q-5.79.3-11.58.06a.9.9 0 0 1-.88-.74 56 56 0 0 1-.19-17.77c2.09-11.56 6.71-23.11 14.91-31.68 4.09-4.25 8.87-7.73 13.87-10.82ZM1434.53 665.74c1.07 6.55 15.31 5.92 19.91 3.88 6.04-2.19 6.06-5.55 0-7.75a25 25 0 0 0-14.54-.69c-2.23.68-5.14 1.9-5.37 4.56m0 0c.19-2.67 3.09-3.97 5.28-4.83 4.83-1.7 10.16-2 15.16-.69 8 2.19 8.01 8.83 0 11.02a26 26 0 0 1-15.16-.68c-2.19-.85-5.1-2.16-5.28-4.83ZM1407.33 676.27c.94 8.6 14.51 9.1 20.38 5.55 5.44-2.92 5.45-8.18 0-11.1-5.86-3.54-19.44-3.05-20.38 5.55m0 0c.73-8.54 14.85-10.36 21.17-7.08 7.04 3.24 7.04 10.92 0 14.16-6.3 3.27-20.46 1.45-21.17-7.08"/><path class="uuid-88cbe670-e6df-46e9-a7af-0c0a21361017" d="M1453.55 660.71c-10.15-1.04-20.67-4.84-20.89-16.73 3.88 11.61 11.06 12.28 20.89 16.73M1435.88 668.33c-5.32-2-9.52-6.4-12.87-10.87a15 15 0 0 1-2.52-5.12c1.17 1.5 2.46 2.79 3.73 4.13 3.68 3.64 7.92 8.31 11.66 11.86M1424.13 668.56c-6.56.54-15.89-2.5-18.23-9.24 4.95 5.09 11.71 6.76 18.23 9.24M1407.33 676.27a317 317 0 0 0-40.04-16.39c7.27.69 14.31 2.95 21.05 5.67 6.68 2.86 13.29 6.14 18.98 10.71ZM1277.42 671.53c.34 3.91 5.46 5.68 8.7 6.57a45 45 0 0 0 22.72-.69c10.52-3.27 10.4-8.52 0-11.74a45 45 0 0 0-22.72-.7c-3.25.89-8.36 2.65-8.7 6.56m0 0c.26-3.87 5.45-5.81 8.62-6.83a46 46 0 0 1 23.26-.7c12.5 3.14 12.54 11.9 0 15.05a46 46 0 0 1-23.26-.69c-3.19-1.03-8.36-2.95-8.63-6.83Z"/><path class="uuid-88cbe670-e6df-46e9-a7af-0c0a21361017" d="M1278.31 673.93c-7.8-1.45-17.5-2.85-25.35-4.15l-1.9-.32c-4.6-1.08-8.21-4.58-11.28-7.87 3.69 2.41 7.23 5.26 11.52 6.1 9.17 1.1 18.46 2.58 27 6.24ZM1305.76 664.07a449 449 0 0 0-30.22-2.93c4.99-1.29 10.23-1.27 15.33-.78 5.08.61 10.22 1.49 14.89 3.71"/><ellipse cx="1475.5" cy="552.64" rx="10.58" ry="9.95" stroke-width="0" fill="url(#uuid-f494245c-35d7-4d5f-a101-a61504746bf3)"/><path class="uuid-88cbe670-e6df-46e9-a7af-0c0a21361017" d="M1464.98 552.64c.05 8.51 11.8 12.42 17.77 7.01 4.2-3.5 3.88-10.38-.23-13.77-5.85-5.49-17.49-1.76-17.54 6.76m-.11 0c-.05-9.5 11.61-13.92 18.35-7.52 7.07 6.54 1.38 17.76-7.71 17.93-5.7.3-10.79-4.78-10.64-10.41"/><circle class="uuid-88cbe670-e6df-46e9-a7af-0c0a21361017" cx="1478.1" cy="553.39" r="4.17"/><ellipse cx="1474.34" cy="551.22" rx="2.51" ry="1.15" stroke-width="0" fill="#ebebeb"/></g></svg>