<?xml version="1.0" encoding="UTF-8"?><svg id="uuid-03c81d58-45a0-4382-a246-45fa326741ac" xmlns="http://www.w3.org/2000/svg" viewBox="0 0 100.067 50.471"><defs><style>.uuid-274deaeb-09f9-47fb-b3b4-6ecdc3cb2ddc{fill:#292425;}.uuid-274deaeb-09f9-47fb-b3b4-6ecdc3cb2ddc,.uuid-7dc070bb-54a0-43a3-bdc5-9892be465190{stroke-width:0px;}.uuid-7f20852c-d217-45e5-8ed6-fe9fbbcd5824{fill:#ffc5de;stroke:#292425;stroke-miterlimit:10;stroke-width:.519px;}.uuid-7dc070bb-54a0-43a3-bdc5-9892be465190{fill:#4c4345;}</style></defs><path class="uuid-7dc070bb-54a0-43a3-bdc5-9892be465190" d="M43.96,47.923c-15.522,0-28.151-10.627-28.151-23.689S28.438.544,43.96.544c12.471,0,42.162,15.153,54.349,21.667.76.406,1.214,1.162,1.214,2.022s-.454,1.616-1.214,2.022c-12.186,6.515-41.875,21.667-54.349,21.667Z"/><path class="uuid-274deaeb-09f9-47fb-b3b4-6ecdc3cb2ddc" d="M43.961,1.088c12.696,0,44.613,16.535,54.092,21.603.58.31.926.886.926,1.542s-.346,1.232-.926,1.542c-9.48,5.068-41.396,21.603-54.092,21.603-15.223,0-27.607-10.383-27.607-23.145S28.738,1.088,43.961,1.088M43.961,0C28.113,0,15.265,10.85,15.265,24.233s12.847,24.233,28.695,24.233c12.691,0,43.024-15.54,54.605-21.731,2.001-1.07,2.001-3.934,0-5.004C86.985,15.54,56.652,0,43.961,0h0Z"/><path class="uuid-7dc070bb-54a0-43a3-bdc5-9892be465190" d="M85.453,18.442c4.129-3.532,4.614-9.742,1.082-13.871s-9.742-4.614-13.871-1.082-4.614,9.742-1.082,13.871"/><path class="uuid-274deaeb-09f9-47fb-b3b4-6ecdc3cb2ddc" d="M85.453,18.442c8.052-7.908-.878-20.755-10.964-15.624-5.129,2.747-6.588,9.9-2.907,14.542-6.246-6.643-.703-17.459,8.284-16.745,8.988.69,12.785,12.232,5.587,17.827h0Z"/><path class="uuid-7dc070bb-54a0-43a3-bdc5-9892be465190" d="M85.453,29.03c4.129,3.532,4.614,9.742,1.082,13.871s-9.742,4.614-13.871,1.082c-4.129-3.532-4.614-9.742-1.082-13.871"/><path class="uuid-274deaeb-09f9-47fb-b3b4-6ecdc3cb2ddc" d="M85.453,29.03c7.198,5.597,3.401,17.136-5.587,17.827-8.987.715-14.53-10.104-8.284-16.745-3.68,4.643-2.223,11.795,2.907,14.542,10.09,5.131,19.015-7.722,10.964-15.624h0Z"/><path class="uuid-274deaeb-09f9-47fb-b3b4-6ecdc3cb2ddc" d="M16.302,25.733c-3.872-.229-6.922-2.112-10.468-3.176-1.042-.334-2.16-.601-2.949-.527-.401.052-.531.13-.648.304-.142.178-.199.642-.175,1.117.373,3.206,1.928,6.545,3.587,9.305,6.425,10.813,19.112,3.72,18.63,17.715-.347-15.821-15.374-2.746-23.263-23.23C.006,24.931-1.187,20.41,2.544,19.806c3.922-.289,7.072,1.6,10.683,2.453,1.067.294,2.161.505,3.001.474l.073,2.999h0Z"/><ellipse class="uuid-7f20852c-d217-45e5-8ed6-fe9fbbcd5824" cx="97.196" cy="24.188" rx="2.433" ry="2.579"/></svg>