<svg xmlns="http://www.w3.org/2000/svg" xmlns:xlink="http://www.w3.org/1999/xlink" viewBox="0 0 1681.92 1000.75"><defs><radialGradient id="uuid-234687d2-0136-4ca2-a47f-b95a4eb34dac" cx="976.23" cy="458.08" fx="976.23" fy="458.08" r="32.71" gradientTransform="matrix(-1 0 0 1 1671.57 0)" gradientUnits="userSpaceOnUse"><stop offset="0" stop-color="#fdec51"/><stop offset=".17" stop-color="#f8e54d"/><stop offset=".39" stop-color="#ebd545"/><stop offset=".64" stop-color="#d6b937"/><stop offset=".91" stop-color="#b89224"/><stop offset=".99" stop-color="#af861e"/></radialGradient><radialGradient id="uuid-ddfa76b3-1da0-418d-a721-7c409f229502" cx="832.02" cy="550.16" fx="832.02" fy="550.16" r="27.8" xlink:href="#uuid-234687d2-0136-4ca2-a47f-b95a4eb34dac"/><linearGradient id="uuid-0952227c-adad-485b-ae61-a193db526585" x1="1345.34" y1="379.78" x2="1417.49" y2="460.01" gradientUnits="userSpaceOnUse"><stop offset="0" stop-color="#4c4345"/><stop offset=".14" stop-color="#504749"/><stop offset=".29" stop-color="#5d5557"/><stop offset=".46" stop-color="#736d6e"/><stop offset=".63" stop-color="#928d8e"/><stop offset=".81" stop-color="#bab7b8"/><stop offset="1" stop-color="#eaeaea"/><stop offset="1" stop-color="#ebebeb"/></linearGradient><style>.uuid-2d9d572a-ef9f-4eba-85c7-c4d4dc65ad97,.uuid-2e87ec73-d5ce-429d-a0a9-816f63f00f94,.uuid-2edf61fe-b1ca-4441-a764-ff338ee719c0,.uuid-37d96fc8-4dfc-4b8c-b4ef-38d9d695795a,.uuid-70e58689-16f3-43ed-924b-54cbd1295df5,.uuid-7c2431c0-3cad-441a-8d0a-d35a8676fb79,.uuid-8db00b93-467c-4052-a720-6df3e20bc98a,.uuid-a305aeed-47c4-4069-8f9e-565f494f7d48,.uuid-a9ab493f-d34d-468d-a580-8015dcc2cb4f,.uuid-ab6a5ad7-981b-4a75-85a9-cad1cb9004ff,.uuid-cdd9eb95-4594-4d57-a00f-240e5fb35cd9{stroke-width:0}.uuid-a305aeed-47c4-4069-8f9e-565f494f7d48{fill:none}.uuid-70e58689-16f3-43ed-924b-54cbd1295df5{fill:#77a43c}.uuid-cdd9eb95-4594-4d57-a00f-240e5fb35cd9{fill:#292425}.uuid-a9ab493f-d34d-468d-a580-8015dcc2cb4f{fill:#155b2c}.uuid-7c2431c0-3cad-441a-8d0a-d35a8676fb79{fill:#ffc5de}.uuid-ab6a5ad7-981b-4a75-85a9-cad1cb9004ff{fill:#4c4345}.uuid-2edf61fe-b1ca-4441-a764-ff338ee719c0{fill:#191818}.uuid-37d96fc8-4dfc-4b8c-b4ef-38d9d695795a{fill:#ff922b}.uuid-8db00b93-467c-4052-a720-6df3e20bc98a{fill:#ebebeb}.uuid-2d9d572a-ef9f-4eba-85c7-c4d4dc65ad97{fill:#006837}.uuid-2e87ec73-d5ce-429d-a0a9-816f63f00f94{fill:#f6f2f0}</style></defs><g id="uuid-d44bb21a-8bb4-40bf-94ce-9614df525617"><path d="M.92 479.64V.5h1680v595.31c-.23-15.71-18.53-45.22-41.43-49.15-22-3.78-16.62-30.32-33.47-33.61-21.44-4.19-28.99 19.36-45.23 19.36-13.02 0-8.58-34.57-27.15-35.44-26.15-1.23-23.67 39.77-37.92 39.77-24.17 0-30.05 21.5-40.28 21.5-23.55 0-10.53-45.19-25.4-45.19-21.69 0-15.5-37-44-37-44.63 0-10.77-36.12-41.27-36.12-25.04 0-20.45 21.39-45.03 17.31-30.97-5.13-2.15-38.37-36.23-43.27-43.18-6.21-19.93-31.63-37.55-35.13-17.97-3.56-15.6 24.64-30.89 22.47-13.15-1.86-9.79 27.17-24.32 26.27-14.52.9-11.16-26.4-24.3-24.54-15.3 2.16-12.94-26.03-30.9-22.47-17.63 3.5 5.63 28.92-37.55 35.13-34.08 4.9-5.27 38.14-36.23 43.27-24 3.98-20.2-16.34-43.35-17.28 0 0-7.54-38.53-20.66-37.71-14.52.9-16.06-55.98-29.2-54.12-15.3 2.17-19.6 23.56-37.57 27.13-17.62 3.5-12.56-29.16-55.73-22.95-34.09 4.9-17.52-56.46-48.49-51.33-24.58 4.07-19.99-17.32-45.03-17.32-30.5 0 3.36 36.13-41.27 36.13-28.5 0-22.3 37-43.99 37-14.88 0-1.86 45.19-25.4 45.19-10.24 0-16.1-21.5-40.29-21.5-14.25 0-7.6-40.82-33.74-39.59 0 0-12.47-34.16-43.68-32.35-14.53.84-17.29-18.36-35.58-15.91-25.78 3.45-23.38-16.5-41.34-12.94-17.63 3.5 8.56 22.47-34.62 28.68-34.08 4.9-8.76 25.84-39.73 30.97-24.58 4.08-19.99-17.31-45.03-17.31-30.5 0 3.36 36.12-41.27 36.12-28.5 0-22.3 37-43.99 37-14.88 0-1.86 45.19-25.4 45.19-10.24 0-16.12-21.5-40.29-21.5-14.25 0-11.77-41.01-37.92-39.78-18.57.88-14.13 35.45-27.15 35.45-16.24 0-23.79-23.55-45.23-19.36-16.85 3.29-11.46 29.83-33.47 33.61-22.9 3.93-41.2 33.44-41.43 49.15Z" fill="#f1f9e4" stroke-width="0"/><path class="uuid-70e58689-16f3-43ed-924b-54cbd1295df5" d="M1680.92 595.81v215.94s-7.38-38.1-20.5-37.29c-14.53.9-16.06-55.97-29.2-54.11-15.3 2.16-19.6 23.56-37.57 27.12-17.62 3.5-12.56-29.16-55.74-22.95-34.08 4.9-17.52-56.46-48.48-51.33-24.58 4.07-20-17.31-45.03-17.31-30.5 0 3.36 36.12-41.27 36.12-28.5 0-22.3 37-44 37-14.87 0-1.86 45.19-25.4 45.19-10.23 0-16.1-21.5-40.28-21.5-14.26 0-7.6-40.82-33.75-39.59 0 0-7.38-36.65-20.5-35.83-14.52.9-16.06-55.98-29.2-54.12-15.3 2.16-19.6 23.56-37.57 27.13-17.62 3.49-12.56-29.16-55.74-22.96-34.08 4.9-17.5-56.45-48.48-51.32-24.58 4.07-19.99-17.32-45.03-17.32-30.5 0 3.36 36.12-41.27 36.12-28.5 0-22.3 37-44 37-14.87 0-1.86 45.73-25.4 45.2-36.49-.83-26.66 29.15-50.83 29.15-38.3 0-48.03 26.43-74.17 27.67-3.34-7.23-6.3-14.2-14.4-15.78-21.45-4.19-29 19.36-45.24 19.36-13.02 0-8.58-34.57-27.15-35.44-26.15-1.23-23.67 39.78-37.92 39.78-24.18 0-30.05 21.49-40.28 21.49-23.55 0-10.53-45.19-25.4-45.19-21.7 0-15.5-37-44-37-44.63 0-10.77-36.12-41.27-36.12.05-3.93 7.62-29.36 23.67-38.84 13.46-7.95 27.32 7.61 45.91-1.16 25.88-12.19 35.8 15.27 53.63 7.33 11.9-5.28 8.96-25.37 25.47-28.16 20.58-3.48 18.52-30.1 41.5-35.7 21.68-5.3 16.61-30.32 33.45-33.61 21.44-4.19 29 19.35 45.24 19.35 13.01 0 8.58-34.57 27.15-35.44 26.14-1.23 23.66 39.78 37.92 39.78 24.17 0 30.05 21.5 40.27 21.5 23.55 0 10.54-45.19 25.41-45.19 21.7 0 15.5-37 44-37 44.63 0 10.76-36.12 41.27-36.12.58 0 1.14.01 1.68.03 23.15.94 19.34 21.26 43.35 17.28 30.96-5.13 2.15-38.37 36.23-43.27 43.18-6.21 19.92-31.63 37.55-35.13 17.96-3.56 15.6 24.63 30.9 22.47 13.14-1.86 9.78 25.44 24.3 24.54 14.53.9 11.17-28.13 24.32-26.27 15.3 2.17 12.92-26.03 30.9-22.47 17.61 3.5-5.64 28.92 37.54 35.13 34.08 4.9 5.26 38.14 36.23 43.27 24.58 4.08 20-17.31 45.03-17.31 30.5 0-3.36 36.12 41.27 36.12 28.5 0 22.31 37 44 37 14.87 0 1.85 45.19 25.4 45.19 10.23 0 16.11-21.5 40.28-21.5 14.25 0 11.77-41 37.92-39.77 18.57.87 14.13 35.44 27.15 35.44 16.24 0 23.8-23.55 45.23-19.36 16.85 3.29 11.46 29.83 33.47 33.61 22.9 3.93 41.2 33.44 41.43 49.15Z"/><path class="uuid-70e58689-16f3-43ed-924b-54cbd1295df5" d="M.92 479.64c.23-15.71 18.53-45.22 41.43-49.15 22.01-3.78 16.62-30.32 33.47-33.61 21.44-4.19 29 19.36 45.23 19.36 13.02 0 8.58-34.57 27.15-35.45 26.15-1.23 23.67 39.78 37.92 39.78 24.17 0 30.05 21.5 40.28 21.5 23.55 0 10.53-45.19 25.41-45.19 21.68 0 15.5-37 44-37 44.62 0 10.76-36.12 41.26-36.12 25.04 0 20.45 21.39 45.03 17.31 30.97-5.13 5.65-26.07 39.73-30.97 43.18-6.21 17-25.18 34.62-28.68 17.96-3.56 15.56 16.39 41.34 12.94 18.3-2.45 21.05 16.75 35.58 15.91 31.21-1.81 43.68 32.35 43.68 32.35 26.14-1.23 19.5 39.59 33.74 39.59 24.18 0 30.05 21.5 40.28 21.5 23.55 0 10.53-45.19 25.41-45.19 21.68 0 15.5-37 44-37 44.62 0 10.76-36.13 41.26-36.13 25.04 0 20.45 21.39 45.03 17.32 30.97-5.13 14.4 56.23 48.5 51.33 43.16-6.21 38.1 26.45 55.72 22.95 17.97-3.57 22.27-24.96 37.56-27.13 13.15-1.86 14.7 55.02 29.21 54.12 13.12-.82 20.66 37.71 20.66 37.71-.54-.02-1.1-.03-1.68-.03-30.5 0 3.36 36.12-41.27 36.12-28.5 0-22.3 37-44 37-14.87 0-1.86 45.19-25.4 45.19-10.23 0-16.1-21.5-40.28-21.5-14.26 0-11.78-41.01-37.92-39.78-18.57.87-14.14 35.44-27.15 35.44-16.25 0-23.8-23.54-45.24-19.35-16.84 3.29-11.77 28.31-33.46 33.61-22.97 5.6-20.9 32.22-41.49 35.7-16.5 2.79-13.58 22.88-25.47 28.16-17.83 7.94-27.75-19.52-53.63-7.33-18.59 8.77-32.45-6.79-45.9 1.16-16.06 9.48-23.63 34.91-23.68 38.84-25.04 0-20.45 21.39-45.03 17.32-30.97-5.14-14.4 56.22-48.49 51.32 0 0-3.58-36.38-16.69-35.57-14.53.91-16.07-55.97-29.22-54.11-15.29 2.16-19.59 23.56-37.55 27.12-17.63 3.5-12.57-29.16-55.74-22.95-34.08 4.9-17.52-56.46-48.48-51.33-24.58 4.08-20-17.31-45.03-17.31-30.5 0 3.35 36.12-41.27 36.12-28.5 0-22.3 37-44 37-14.87 0-1.86 45.19-25.4 45.19-10.24 0-16.1-21.5-40.29-21.5-14.25 0-7.59-40.82-33.74-39.59V479.64Z"/><path class="uuid-2d9d572a-ef9f-4eba-85c7-c4d4dc65ad97" d="M108.28 923.01c.57.9 26.73 42.32 2.66 42.81-15.43.33-54.87-82.13-55.48-83.41.3 1.28 13.11 57.79-13.07 59.83C4.24 945.21 25.84 900.97.92 814.85V616.63c26.15-1.23 19.5 39.59 33.74 39.59 24.18 0 30.05 21.5 40.28 21.5 23.55 0 10.54-45.19 25.41-45.19 21.7 0 15.5-37 44-37 44.62 0 10.76-36.12 41.27-36.12 25.03 0 20.45 21.39 45.03 17.31 30.96-5.13 14.4 56.23 48.48 51.33 43.17-6.21 38.11 26.45 55.74 22.95 17.96-3.56 22.26-24.96 37.55-27.12 13.15-1.86 14.7 55.02 29.22 54.11 13.11-.81 16.7 35.57 16.7 35.57-43.18-6.2-38.12 26.45-55.74 22.95-17.97-3.56-22.27-24.96-37.56-27.12-13.15-1.86-14.69 55.02-29.2 54.12-13.13-.82-20.52 37.29-20.52 37.29-12.14-15.11-20.8-26.56-20.8-26.56S320.2 936.3 314 945.3c-4.89 7.13-66.67-43.58-67.57-44.32.26.59 8.95 19.52 22.36 41.26a666.4 666.4 0 0 0 14.03 22.01c-31.07 1.37-62.35-92.5-62.35-92.5s6.25 102.41-16.29 102.41c-22.34 0-5.4-43.84-5.09-44.67-.58.91-21.44 33.11-34.5 33.11s-55.45-38.81-56.3-39.59ZM1113.92 898.28c.27.98 12.76 45.3 2.47 43.96-10.4-1.35-43.58-46.1-46.6-70.08 0 0-4 35.52-31.66 35.52-17.58 0-45.36-57.81-46.08-59.32v-.03.03c.27 1.4 9.9 51.25-14.84 47.88-25.1-3.42-9.65-81.39-9.65-81.39s-29.68 69.01-48.19 67.46c-18.58-1.55-59.7-115.09-59.7-115.09s1.24 12.65 1.98 29.21c-1.26-15.78-32.57-40.92-55.09-44.78-11.4-1.96-15.45-10.05-19.05-17.83 26.14-1.24 35.86-27.67 74.17-27.67 24.17 0 14.34-29.98 50.83-29.15 23.54.53 10.53-45.2 25.4-45.2 21.7 0 15.5-37 44-37 44.63 0 10.77-36.12 41.27-36.12 25.04 0 20.45 21.39 45.03 17.32 30.97-5.13 14.4 56.22 48.48 51.32 43.18-6.2 38.12 26.45 55.74 22.96 17.97-3.57 22.27-24.97 37.56-27.13 13.15-1.86 14.7 55.02 29.21 54.12 13.12-.82 20.5 35.83 20.5 35.83 26.15-1.23 19.5 39.59 33.75 39.59 24.17 0 30.05 21.5 40.27 21.5 23.55 0 10.54-45.19 25.41-45.19 21.7 0 15.5-37 44-37 44.63 0 10.76-36.12 41.27-36.12 25.03 0 20.45 21.38 45.03 17.31 30.96-5.13 14.4 56.23 48.48 51.33 43.18-6.21 38.12 26.45 55.74 22.95 17.96-3.56 22.27-24.96 37.56-27.12 13.15-1.86 14.68 55.01 29.21 54.11 13.12-.81 20.5 37.29 20.5 37.29v2.4c-30.03 86.11-4 130.36-49.97 127.39-31.54-2.04-16.1-58.56-15.75-59.84-.74 1.28-48.27 83.74-66.85 83.42-29-.5 2.52-41.91 3.2-42.81-.85.64-52 39.59-67.84 39.59s-40.95-32.32-41.57-33.12c.4.83 20.78 44.68-6.13 44.68-27.16 0-19.63-102.41-19.63-102.41s-31.78 93.92-55.53 94.03c-80.2.36-14.03-59.88-14.03-59.88l-78.8 32.02a147.27 147.27 0 0 1-8.32-48.84s-20.14 53.86-32.37 53.14c-19.68-1.18-.64-39.74-.25-40.54-.42.44-27.6 28.76-41.15 28.76-10.07 0-20.8-57.92-20.8-57.92s-2.93 54.29-14.1 54.29c-14.38 0-36.52-27.11-37.1-27.83Z"/><path class="uuid-2d9d572a-ef9f-4eba-85c7-c4d4dc65ad97" d="M525.7 923.01c.57.9 26.73 42.32 2.66 42.81-15.43.33-54.87-82.13-55.48-83.41.3 1.28 13.1 57.79-13.08 59.83-38.15 2.97-16.55-41.27-41.47-127.39 0 18.17-.84 41.97-3.05 66.5-19.7-11.08-56.65-114.13-56.65-114.13s10.01 101.16-10.05 105.89c-2.2.52-5.56-.92-9.68-3.78-16.15-11.24-44.27-44.51-63.58-68.53 0 0 7.4-38.11 20.51-37.29 14.52.9 16.06-55.98 29.21-54.12 15.3 2.16 19.6 23.56 37.56 27.12 17.62 3.5 12.56-29.15 55.73-22.95 34.1 4.9 17.52-56.46 48.5-51.32 24.57 4.07 19.98-17.32 45.02-17.32 30.5 0-3.36 36.12 41.27 36.12 28.5 0 22.3 37 44 37 14.87 0 1.85 45.19 25.4 45.19 10.23 0 16.1-21.49 40.28-21.49 14.25 0 11.77-41.01 37.92-39.78 18.57.87 14.13 35.44 27.15 35.44 16.24 0 23.8-23.55 45.23-19.36 8.1 1.58 11.07 8.55 14.4 15.78h.01c3.6 7.78 7.64 15.87 19.05 17.83 22.52 3.86 53.83 29 55.1 44.78l.02.79c1.3 30.24.8 72.86-12.06 75.89-2.22.52-5.56-.92-9.68-3.78-26.32-18.31-84.39-95.09-84.39-95.09s65.68 162.06 59.48 171.06c-4.9 7.13-66.68-43.58-67.58-44.32.26.59 8.95 19.52 22.37 41.26L695.6 905.9s54.92 60.25-11.64 59.89c-19.7-.11-46.08-94.04-46.08-94.04s6.25 102.41-16.3 102.41c-22.33 0-5.4-43.84-5.09-44.67-.58.91-21.44 33.11-34.49 33.11-13.12 0-55.45-38.81-56.3-39.59Z"/></g><g id="uuid-924a39d9-aa0b-40d7-9149-4ad89394c2a6"><path class="uuid-a9ab493f-d34d-468d-a580-8015dcc2cb4f" d="M511.85 644.92c1.97-14.25 14.81-40.59 31.15-41.91 6.22-.42 12.26 1.77 18.14 2.81 6.33 1.27 13.05 1.13 18.95-1.65 7.39-3.77 15.99-5.14 23.9-2.21 7.1 2.34 12.8 7.02 19.68 9.23 6.42 2.1 13.44-.44 16.59-6.49 3.49-6.01 5.45-14.48 11.6-19.21 2.61-2.12 5.94-3.22 9.2-3.81l.81-.18.78-.25a19.1 19.1 0 0 0 8.18-5.14c6.2-6.46 9.55-16.29 17.48-23.46 3.86-3.58 8.78-5.88 13.87-7.15a20.11 20.11 0 0 0 10.53-6.97c5.21-6.36 7.03-16.02 13.25-22.13 7.25-6.92 19.12-6.45 27.53-1.97 8.6 4.27 14.62 12.83 23.48 15.7 4.46 1.09 5.77.78 7.88-3.32 5.17-11.37 6.61-31.15 23.08-31.86 28.23-1.15 27.88 39.11 38.28 39.47 13.4-.13 23.3 6.62 32.07 15.82 2.52 2.28 4.6 5 7.67 5.43 2.1.05 4.19-.5 5.66-1.73 10.41-9 1.87-40.53 18.2-43.5.71-.13 1.56-.12 2.28-.18 6.93-.37 9.62-6.16 12.93-12.42 6.25-13.23 13.41-24.55 29.95-24.72 4.38-.1 8.87-.28 13.03-1.6l1.4-.49c1.17-.56 2.44-1.14 3.37-2 5-4.53 3.43-12.06 4.83-18.46 1.9-10.94 10.95-14.2 20.87-13.69 5.56.15 11.46 1.62 16.24 4.7 4.92 3.14 8.28 7.32 11.43 9.74 4.71 3.94 10.96 3.75 16.7 2.45 3.6-.87 6.83-2.24 8.6-5.42 2.97-6.03 1.81-13.44 3.73-20.18 3.55-13.82 15-16.46 26.6-18.15 6.27-1.39 12.45-3.07 16.63-7.63 2.68-3.04 3.26-6.6 3.87-10.85.76-6.8 2.83-13 10.21-15.33 6.97-2.2 14.13-.5 18.87 5.16 3.52 4.05 5.45 8.78 8.12 12.84 1.5 2.21 3.3 4.41 6.13 3.94 12.09-1.6 15.1 10.76 18.81 19.07 1.6 3.07 2.71 5.57 6.04 5.46h.61c2.56.04 3.38-1.24 4.83-3.5 4.68-8.62 6.5-24.68 20.43-22.64 2.9.26 4.52-2.07 6.18-4.56 5.48-9.4 10.24-20.07 23.56-18 8 1.16 11.85 6.51 12.75 14.21.58 4.13 1.03 7.37 2.38 9.95 4.1 7.55 13.6 9.47 21.56 10.95 2.96.5 6.66 1.12 9.49 2.26 21.83 8.38 10.37 30.15 19.87 38.23 2.3 1.88 5.76 2.8 8.75 3.3 3.3.51 6.64.67 9.73-.25 5.16-1.53 8.4-6 12.57-9.47 5.86-5.33 14.24-7.78 21.94-7.52 4.23.06 8.7.74 12.3 3.2 7.61 5.1 5.99 16.04 7.58 23.12 1.52 6.92 7.77 8.86 14.32 9.69 2.64.3 5.94.36 8.6.47 3.41.19 6.82.9 9.98 2.38 16.66 7.15 17.17 31.64 29.35 34.56l1.1.2c.38.06.78.05 1.16.08 2.95-.07 6.14 1.2 7.89 3.5 7.73 9.68 2.62 33.09 12.6 40.57a9.83 9.83 0 0 0 6.1 1.45c2.17-.42 3.89-1.93 5.76-3.62 4.37-4.12 8.5-8.6 13.84-11.89a36.57 36.57 0 0 1 19.84-5.57c2.6 0 4.08-1.9 5.57-4.22 5.98-10.21 8.26-23.4 18.35-30.98a20.68 20.68 0 0 1 10.85-4.05c2.82-.25 5.58-.1 8.4 1.02 13.7 5.18 12.5 30.64 20.59 34.53.33.05.6.23.97.22l.5.06c4.82.05 8.91-2.28 12.89-5.26 7.76-6 15.76-13.99 26.38-14.12 12.71-.35 17.07 6.43 22.06 18.4 3 7 7.42 13.75 15.14 15.76 1.85.55 3.87.8 5.73 1.39 9.64 2.83 17.69 9.57 23.96 17.23 7.25 9.17 13.45 20.17 14.02 32.05-1.26-17.55-17.1-38.45-33.05-45.6-3.56-1.73-7.36-2.36-11.19-3.2a21.3 21.3 0 0 1-10.45-6.32c-5.45-5.89-7.45-14.1-11.9-20.42-4.17-6.41-12.84-7.21-19.57-5.1-7.42 2.34-12.7 8.18-18.84 12.93-4.27 3.45-10.2 6.8-16.16 6.27-7.78-1.12-9.66-10.4-11.92-16.54-1.23-3.73-2.43-7.4-4.12-10.65-2.85-5.61-6.88-8.43-12.98-7.6-9.06.67-13.99 8.9-17.38 16.52-2.46 5.35-4.26 11.22-7.36 16.48-2.23 3.77-5.55 7.13-10.46 7.13a30.43 30.43 0 0 0-16.53 4.9 51.5 51.5 0 0 0-8.5 7.16c-3.85 3.72-7.6 8.55-13.4 9.65-6.12.96-12.87-2.25-15.93-7.63-5.32-9.05-5-19.99-6.97-29.74-.47-2.42-1.08-4.77-2.4-6.52-.53-.58-.79-.7-1.42-.8-1.02-.05-2-.05-2.98-.17l-1.8-.3c-15.54-3.64-16.33-23-26.95-32.02-3.09-2.68-7.12-3.99-11.2-4.13-2-.09-3.96-.07-5.93-.16-4.42-.26-8.71-.93-12.84-2.51l-1.62-.75-.8-.38c-4.63-2.36-8.27-7.3-9.4-12.3-1.6-6.08-.66-11.44-2.8-16.38-2.67-5.32-16.66-3.55-21.17-.7-2.84 1.53-5.28 3.93-8.21 6.77-3.14 3.06-7.07 6.15-11.54 7.42-5.6 1.7-11.38 1.2-16.92-.02-5.9-1.31-11.9-4.8-14.67-10.45-3.05-5.75-2.96-13.1-3.81-18.7-.76-6.12-3.32-10.03-8.77-11.87l-1.14-.4-1.23-.32c-.63-.18-1.84-.43-2.53-.53-3-.5-5.98-.97-8.97-1.65-8.55-1.95-18.27-6.18-22.45-14.68-2.31-4.45-2.8-9.2-3.35-12.82-.26-1.83-.63-3.36-1.09-4.17-.34-.8-1.06-1.26-1.83-1.54-2.14-.74-4.97-.97-6.93.4-3.45 2.27-6.1 8.7-8.8 12.83-3.35 5.62-8.91 9.97-15.97 8.96l-.26-.03h-.27c-1.34-.17-1.99.84-2.76 1.95-4.57 7.71-5.68 20.98-16.48 23.96-1.47.42-2.98.48-4.48.44h.61c-3.52.3-7.69-1.04-10.28-3.5-2.43-2.2-3.94-4.8-5.26-7.53-1.97-4.1-3.34-8.93-5.69-12.22-.88-1.1-1.36-1.4-2.6-1.3-10.63 1.5-15.6-6.84-19.88-14.78-2.83-4.85-5.39-9.31-11.54-7.5-1.06.31-1.9.67-2.4 1.77-.56 1.03-.92 3.16-1.26 5.56-.62 5.32-2.3 11.7-6.27 15.97-5.76 6.45-14.1 9.11-22.16 10.78-7.8 1.43-16.96 1.78-19.03 10.93-1.77 7.3-.76 15.34-4.71 22.46-2.94 5.57-9.16 8.95-14.94 10.16-5.62 1.21-11.24 1.64-16.95-.07-5.47-1.55-9.97-5.81-13.65-9.44-4.54-4.64-9.88-7.16-16.34-7.25-3.44-.04-6.77-.09-9.34 1.94-1.06 1.03-1.44 2.4-1.86 4.7-.7 4.83-.56 10.14-2.49 15.25-2.73 7.68-9.9 11.74-17.6 13.13a59.1 59.1 0 0 1-7.93.84c-2.62.05-7.15.04-9.68.92-11.04 3.36-13.83 16.44-19.9 25.44-3 4.88-8.45 9.52-14.5 10.24-.77.16-1.53.18-2.3.22l-1.05.05c-.24.01-.48.03-.64.12-.66.37-.86.94-1.37 1.93-3.52 10.2-2.2 21.74-6.91 32-3.2 7.66-11.3 12.56-19.7 10.48-4.41-1.25-7.65-4.75-10.52-7.52-7.02-7.46-14.82-13.55-25.36-13.69l-.82-.02-.45-.02c-2.95 0-6.17-1.56-8.03-3.58-2.93-2.9-4.81-7.08-6.36-10.62-3.7-8.2-6.3-17.83-13.39-23.13a15.45 15.45 0 0 0-9.68-2.77c-14.63.73-11.12 29.23-23.72 34.45-11.31 3.47-20.75-6.95-28.46-12.97-6.75-5.59-15.57-8.66-23.56-4.8-3.34 1.76-5.63 5.64-7.73 9.88-4.42 9.56-9.64 18.9-21.1 21.78-4.3 1-8.54 2.79-11.86 5.81-10.22 9.01-13.72 25.75-28.8 29.3l-.98.2-1.8.35c-16.19 3.42-10.91 26.72-29.65 28.96-5.3.65-10.41-1.56-14.84-4.03-12.06-7.16-20.6-11.57-34.65-4.94-6.35 2.82-13.65 2.86-20.32 1.35-8.66-1.74-17.86-6-25.84-.5-8.66 5.49-14.42 14.65-18.6 23.85-1.9 4.44-3.78 9-4.46 13.8Z"/><path class="uuid-a9ab493f-d34d-468d-a580-8015dcc2cb4f" d="M861.68 797.22c-1.63-14.91-23.79-30.37-36.36-36.7-5.87-2.93-12-5.32-18.43-6.41l-1.7-.28c-.6-.12-1.2-.24-1.8-.4-19.05-4.9-17.26-25.77-28.57-31.1-7.59-2.69-15.04.05-21.2 5.13-5.22 4.06-10.44 9.77-17.06 12.7-6.16 2.73-13.41 3.23-17.92-2.54-6.76-8.37-6.55-22.17-14.06-28.83-2.3-1.78-5.57-1.53-8.32-.94-10.99 2.95-13.89 19.03-18.87 28.6-2.35 5.2-7.36 11.52-14.18 11.51a28.5 28.5 0 0 0-11.59 2.37c-3.3 1.47-6.3 3.68-9.29 6.46-5.63 5.14-11.31 13.29-20.2 13.07-3.5-.02-7.18-.88-10.25-2.8-11.87-7.85-11.3-23.6-13.48-35.66-.45-2.54-.87-4.94-1.94-6.7-.17-.22-.06.01.27.14.14.1.3.1.35.13-15.43 0-20.97-13.1-26.75-24.42-3.6-6.7-7.22-11.57-14.73-12.39-10.34-.31-22.44-.69-29.79-9.36-4.05-4.69-5.23-11.01-5.64-16.49-.31-3.15-.29-5.57-1.13-8.02-.53-1.4-1.28-1.66-2.72-2.09-1.31-.33-3.07-.5-4.94-.47-13.4-.18-15.27 8.47-25.74 14.45-6.18 3.5-13.76 3.58-20.45 2.37-8.3-1.57-11.03 6.8-13.4 13.8-1.32 4.06-2.48 8.42-3.93 12.9-3.05 10.13-9 21.7-20.6 23.75-4.18.87-7.92.37-11.87-.23-8.9-1.25-18.75-.75-25.6 4.05-5.16 3.32-8.77 9.22-13.53 13.86-6.95 7-16.5 5.14-24.1.28-4.4-2.82-7.78-6.48-10.75-10-5.09-5.72-8.9-12.27-16.38-14l-.33-.06-.15-.04h-.05c-.34-.07-.48.02-.85.21-2.48 2.01-3.72 5.28-5.03 8.32-5.1 12.55-6.98 26.36-14.1 38.22-1.8 2.7-4.43 5.48-8 5.57l-.97-.03c-3.23-.15-5.69 2.43-7.65 4.93-3.92 5.32-6.47 11.58-8.7 17.83a154.5 154.5 0 0 0-3.87 12.89c1.77-10.15 7.37-39.23 20.73-38.96 5.45-.4 8.19-11.66 9.71-16.4 2.5-8.68 4.15-17.49 7.04-26.19 1.75-4.83 3.88-11.03 9.32-13.01a7.83 7.83 0 0 1 3.63-.29c9.37 1.08 16.07 9.45 21.71 15.67 4.3 4.67 8.47 8.53 14.33 10.1 3.71.9 5.18.74 7.87-1.9 4.57-4.97 8.12-11.04 14.3-15.31 10.2-7.44 23.39-8 35.32-6.45 10.83 1.68 14.28-7.42 17.02-16.42 4.66-16.24 8.17-38.54 30.57-35.93 11.7 1.97 13.57-1.69 21.48-9.02 8.3-7.62 20.27-10.1 31.28-7.75 7.34 1.6 12.37 7.52 13.47 14.81.86 4.58.66 8.87 1.68 12.78 1.63 6.6 9.37 7 15.17 7.46 16.15-.56 25.57 6.21 32.66 19.97 3.2 5.75 4.97 11.14 9.08 15.17 2.06 2 4.52 1.93 7.16 2.1 5.36.46 9.78 5.44 11.21 10.16 1.78 5.17 2.12 9.7 2.79 14.72.84 6.16 1.24 11.96 3.86 17.02 1.52 2.6 2.93 3.38 5.9 3.47.05 0 .15-.02.29-.07 3.83-1.93 7.08-6.3 10.67-9.32 3.63-3.29 7.97-6.47 12.94-8.58a40.17 40.17 0 0 1 16.53-3.16c.1-.02.38-.16.77-.55.8-.73 1.8-2.27 2.68-3.99 1.82-3.5 3.44-7.73 5.37-12 2.95-6.6 7.18-14.23 13.85-18.56 7.45-4.82 18.26-5.79 25.5-.01 8 6.6 9.46 17.78 12.66 26.5.69 1.87 1.5 3.63 2.3 4.65.76.86.98 1.14 1.95 1.15 14.27-.46 22.46-23.03 45.66-18.22 6.77 1.19 11.73 7.03 14.26 12.93 4.01 8.64 6.8 18.58 16.65 21.36 3.24.87 6.72 1.48 9.83 2.72 12.89 4.87 24.4 12.91 34.08 22.57a67.43 67.43 0 0 1 8.58 10.56c2.4 3.79 4.52 8.08 4.5 12.64Z"/><path class="uuid-a9ab493f-d34d-468d-a580-8015dcc2cb4f" d="M.92 616.63c6.98-.9 13.55 2.41 17.38 8.28 5.73 8.15 6.79 18.73 12.07 26.73 2.15 2.95 4.19 2.26 7.24 2.38a36.13 36.13 0 0 1 19.83 6.93c5.2 3.5 9.85 9.4 14.8 12.48 1.95 1.23 4.6.74 6.5 0 11.62-5.61 5.23-32.57 13.85-42.1a10.4 10.4 0 0 1 3.55-2.61c2.08-.99 4.01-.77 6.03-1.07 6.85-1.3 9.32-8.91 12.45-14.79 5.49-11.94 13.1-21.97 27.5-22.77 5.02-.18 10.95-.24 15.44-2.05 8.9-2.91 6.15-13.58 8.14-21.14 2.24-10.5 11.8-13.96 21.5-13.4 7.9.06 16.02 3.12 21.78 8.54 2.78 2.46 4.96 4.81 7 6.33 3.56 2.83 7.75 3.21 12.1 2.68 2.9-.4 5.72-.84 8.81-.42 19.21 2.72 20.08 26.12 25.67 40.42 3.12 8.23 7.17 12.98 16.3 11.47 14.62-2.12 30.73.12 41.01 12.1 2.45 2.7 4.47 5.55 6.37 7.85 1.61 1.84 3 3.52 5.14 4.01 16.84.48 22.7-23.5 39.41-26.05 11.91-2.56 15.05 17.16 17.45 25.18 2.22 7.78 5.11 26.14 11.6 30.17.69.37 1.43.43 2.25.42.77.02 1.56.16 2.3.4 9.08 3.31 11.54 18.76 12.94 27.08.48 3.29.83 6.58 1 9.88-1.52-8.47-5.78-30.88-14.88-33.67a5 5 0 0 0-1.37-.11c-3.37.52-6.6-1.9-8.34-4.32-5.93-8.51-8.06-18.75-11.26-28.24-1.06-3.16-6.14-21.5-10.26-19.55-2.9.68-5.37 2.25-7.77 4.54-4.27 4.06-7.98 9.68-13.2 14.7-6.8 6.75-19.17 12.8-28.03 6.03-4.32-3.22-7.35-8.02-10.74-11.42-8.21-9.11-20.41-9.85-32.1-8.06-1.96.28-3.89.47-5.88.42-16.26-.3-22.33-15.31-25.97-28.54-2.25-6.88-4.25-18.42-10.43-22.09-2.47-1.4-5.82-.74-8.6-.33-7.1 1-15.06-.38-20.75-4.98-5.49-4.22-8.37-8.86-14.2-11.12-4.18-1.66-11.14-2.03-14.91-.6-7.11 2.92 2.6 24.76-18.08 32.44-5.7 2.02-10.9 2.36-16.58 2.4-1.32.02-2.85.01-4.15.23-19.91 2.72-16.06 35.96-40.42 35.94-.38 0-.47.02-.59.05-.1.03-.22.07-.42.27-1.02 1.18-1.54 2.81-2.03 4.65-3.3 13.9-2.1 38.92-22.12 39.06-13.9-.41-17.01-22.33-41-22.84-5.1-.25-8.08-5.11-9.51-9.28-4.53-13.01-6-32.74-23.82-32.5Z"/><path class="uuid-2d9d572a-ef9f-4eba-85c7-c4d4dc65ad97" d="M814.52 1000.7c-15.75-12.77-27.33-29.77-38.37-46.56-11.04-16.9-21.31-34.3-29.98-52.59l-2.64-5.54a959.7 959.7 0 0 0 30.82 24.04c11.02 8.02 21.94 16.36 34.07 22.44 1.67.67 3.6 1.72 5.22 1.57a.6.6 0 0 0-.21.22c.04-.08.13-.7.1-1.25 0-.58-.07-1.22-.15-1.85-.53-3.97-1.6-7.89-2.67-11.78a542.85 542.85 0 0 0-10.13-31.24c-16.49-46.55-34.84-92.66-53.29-138.5l10.03 13.24c18.74 24.52 37.96 48.82 58.71 71.68 6.64 6.87 23.72 26.31 32.83 27.17 14.43-3.09 12.3-60.52 11.92-73.6a641.32 641.32 0 0 0-2.48-37.02c6.88 18.89 14.12 37.7 22.08 56.15 7.22 16.5 14.66 33.03 24.06 48.39 2.38 3.8 4.9 7.53 7.86 10.82 5.7 6.54 9.73 6.17 16.12.9 11.5-10.58 18.93-25.08 26.28-38.7 5.88-11.31 11.46-23.94 16.43-35.72l-2.18 12.16c-2.7 15.05-11.87 75.59 8.46 79.18 19.49 2.64 14.63-33.87 12.49-45.56l-2.98-15.72c9.24 18.93 18.98 38.71 31.51 55.65 4.68 6 9.6 12.5 16.4 15.83 2.23 1.05 4.38.82 6.7.57 4.9-.6 9.48-2.7 13.12-6.04 7.38-6.81 11.2-17.36 12.66-27.16l2.42-18.68 2.54 18.64c.7 5.1 2.52 10.23 4.65 15.18 7.84 17.25 18.67 33.54 31.96 47.04 2.34 2.17 4.62 4.32 7.36 5.42.14.05.53.14.62.12 1.1-2.16 1-5.82.82-8.58-1.17-14.64-5.8-29.95-9.7-44.14 7.76 9.6 16.56 20.24 26.15 28.01 5.05 3.92 10.47 8.19 16.86 8.6 5.08-1.56 8.04-20.63 8.9-25.84 2.39-13.88 2.98-31.54 4.03-45.69 2.6 14.82 6.05 32.6 9.8 47.03 1.88 6.57 6.6 25.39 12.1 28.5 2.37.07 4.7-.85 7.1-1.92 4.06-1.92 7.94-4.54 11.68-7.32 10.58-7.78 20.42-18 29.66-27.38-3.42 7.13-8.17 16.1-10.6 23.52-1.98 6.23-6.33 19.3-.4 24.05 1.25.88 3 1.32 4.56 1.32 1.1-.11 1.96-.65 3-1.4 4.29-3.46 7.21-8.3 10.14-13.09 8.1-13.87 14.3-28.95 20.1-43.92a154.56 154.56 0 0 0 27.87 95.1c5.98 8.57 12.62 16.78 20.32 23.86l-.33.38c-23.34-21.3-39.85-50.05-46.94-80.83a148.28 148.28 0 0 1-3.58-31.48l2.53.46c-5.65 14.44-16.51 42.5-28.03 52.26-4.31 3.9-11.8 2.14-14.55-2.86-5.28-10.17 2.5-28.39 6.95-38.16l3.24 2.27c-6.93 7.19-36 35.82-46.17 28.28-9.6-8.1-16.85-44.95-19.7-58.35l4.94-.32a302.1 302.1 0 0 1-2.69 26.46c-1.38 7.52-4.1 30.98-14.46 30.28-11.18-.84-21.98-11.35-29.61-18.79-3.15-3.2-6.12-6.46-9.01-9.96l4.65-2.42c1.5 5.44 2.82 10.84 3.97 16.35 1.2 6.91 5.67 25.22-.48 30.03-2.32 1.8-5.53.9-7.77-.46-15.27-10.01-32.66-37.59-39.96-54.42-2.2-5.23-4.15-10.64-4.94-16.56l4.96-.03c-2.15 13.8-8.32 28.75-21.7 35.03-5.4 2.28-12.1 3.78-17.63 1.39-11.3-5.48-20.7-20.66-27.31-31a326.76 326.76 0 0 1-15.56-28.6l4.1-1.36c1.11 6.14 1.77 12.2 1.99 18.4.23 11.42-.5 30.65-15.49 32.02-15.47 1.14-18.62-17.4-19.3-29.15-.92-18.35 1.47-36.6 4.8-54.6l2.7.84c-8 17.3-27.98 59.98-45.24 67.14-5.16 2.23-9.42-1.14-12.67-4.85-8.86-10.45-14.78-22.92-20.82-35.08-11.65-24.51-21.76-49.7-31.24-75.12l1.58-.36c1.92 20.6 3.04 41.26 2.64 61.96-.31 10.4-.85 20.82-3.33 31-1.64 5.66-3.87 13.52-10.74 14.54-5.03-.02-9.1-3.52-12.93-6.23-16.24-13.15-29.67-28.98-43.34-44.6a1170.79 1170.79 0 0 1-39-48.24l3.83-2.17c16.44 40.84 32.45 81.8 46.91 123.4 4.39 13.06 8.97 26.16 11.96 39.69 2.19 9.6.71 14.37-9.65 9.4-12.4-6.36-23.37-15.01-34.43-23.25a887.31 887.31 0 0 1-25.84-20.58l2.17-1.67a484.87 484.87 0 0 0 45.83 77.74c6.04 8 12.6 15.68 20.28 22.18l-.32.38Z"/><path class="uuid-a9ab493f-d34d-468d-a580-8015dcc2cb4f" d="M377.05 1000.5c36.3-20.38 40.44-145.32 40.41-185.65l-.02-6.15 1.74 5.9c7.6 25.55 11.92 51.97 14.32 78.48 1.6 11.94 1.44 35.41 9.97 43.71 4.2 4.1 10.5 4.5 16.09 4.08 9.79-.5 13.56-10.64 14.55-19.12 2.17-17.7-2.28-36.36-6.17-53.56 7.6 15.74 15.65 32.24 24.13 47.45 7.8 13.86 15.64 27.78 25.7 40.04 2.83 3.17 5.97 7.03 9.97 8.16 9.3.49 9.8-6.92 7.91-14.25-3.45-13.43-12.45-26.5-19.67-38.22 10.66 9.67 22.34 20.32 33.58 29.19 7.61 6 15.47 12.05 23.93 16.7 7.78 4.27 10.72 4.12 17.77-1.4 9.24-7.7 16.53-17.75 23.22-27.68l11.78-18.06c-4.1 11.16-10.84 27.45-12.78 39.05-.96 5.89-1.87 12.83.56 18.22 1.26 2.8 3.89 4.23 6.93 4.29 5.39.32 7.76-6.65 9.36-11.06 2.94-9.35 4-19.2 4.8-29 2.13-26.56.67-54.6-.85-81.23l5.97 20.7c6.89 23.42 14.55 46.88 25.04 68.95 3.52 7.02 7.31 14.44 12.72 20.03 1.95 1.83 3.82 3.43 6.37 3.38 8.51-.08 18.16-.56 25.15-5.64 6.34-4.69 5.97-13.18 3.54-20.1-4.94-14.38-15.32-26.65-25.27-37.92l8.64 4.41c16.72 8.5 47.91 24.47 64.27 33.17l9.11 4.88c-4.75-2.11-14.14-6.33-18.84-8.5-11.7-5.2-44.14-20.47-56.21-26.14l2.24-2.98c9.79 11.26 23.3 29.15 21.91 44.75-1.58 15.03-19.05 18.41-31.4 18.68-1.68 0-3.42.19-5.09-.08-7.3-1.7-11.77-9.13-15.5-14.81-14.43-25.19-23.02-53.12-31.42-80.75l4.83-.82c.73 13.44.97 26.82.72 40.26-.56 16.38-1.19 46.78-10.78 60.01-5.24 7.49-16.93 5.76-20.66-2.34-5.1-11.56.61-29.55 4.65-40.93l4.26 2.18a179.29 179.29 0 0 1-8.77 12.2c-6.28 7.67-16.33 20.37-26.66 21.83-4.17.37-8.28-1.8-11.74-3.6-8.83-4.91-16.68-11.02-24.52-17.25a487.87 487.87 0 0 1-22.58-19.4l3.21-2.7c3.44 5.6 6.44 11.32 8.96 17.38 2.75 7.22 7 18.1 1.26 25-2.58 2.77-6.24 3.54-9.8 3.5-2.3-.17-4.36-1.41-5.9-2.55a45.1 45.1 0 0 1-7.13-7.05c-17.95-22.87-30.66-49.13-43.58-75l3.3-1.15c.96 4.43 1.66 8.82 2.22 13.27 1.63 14.62 4 44.6-15.26 48.17a37.6 37.6 0 0 1-6.92.29c-14.42-.46-18.8-11.42-20.73-23.9-1.4-8.86-2-17.7-2.8-26.52-2.17-26.42-6.24-52.7-13.6-78.2l1.73-.24c-.25 32.54-2.36 65.08-7 97.3-3.89 24.44-12.16 75.8-35.17 88.34Z"/><path class="uuid-a305aeed-47c4-4069-8f9e-565f494f7d48" d="m.92 1000.5 1680-.71"/><path class="uuid-2d9d572a-ef9f-4eba-85c7-c4d4dc65ad97" d="M313.64 1000.5c-8.66-5.4-15.95-12.78-22.4-20.6-9.76-11.79-17.35-24.95-24.56-38.32a431.71 431.71 0 0 1-24.1-45.55 953.36 953.36 0 0 0 30.57 24.24c8.77 6.59 17.62 13.1 26.9 18.84 3.43 2.04 6.94 4.17 10.72 5.33.73.2 1.52.37 2.11.18.07-.04.04-.01.08-.1.5-2.3-.25-5.01-.65-7.37-3-13.35-7.55-26.3-11.93-39.28-14.45-41.49-30.44-82.47-46.71-123.29l-2.52-6.28a1319.34 1319.34 0 0 0 42.69 53.75c7.6 8.64 45.44 54.97 55.69 50.08 16.45-8.83 10.26-86.14 8.72-104.87l-.27-2.95 1 2.78c11.36 30.84 23.25 61.66 38.68 90.73 3.86 6.65 12.7 23.67 20.68 24.5-5.23-.62-9.19-6.52-12.2-10.41-9.4-13.54-16.32-28.6-23.17-43.54a972.73 972.73 0 0 1-24.7-61.02l.74-.17c2.1 24.83 6.25 78.46-3.62 100.13-5.37 10.82-12.46 5.92-19.76.4-16.07-13.14-29.46-29.04-42.99-44.65a1275.29 1275.29 0 0 1-38.85-48.27l1.57-.9c16.47 40.8 32.64 81.7 47.29 123.2 3.6 10.4 7.16 20.82 10.14 31.46a94.7 94.7 0 0 1 2.73 12.24c.15 1.65.4 2.97-.2 4.75-2.4 5.07-13.43-2.5-16.63-4.2-9.46-5.8-18.34-12.32-27.17-18.92a886.86 886.86 0 0 1-26-20.37l2.15-1.66a410.09 410.09 0 0 0 13.86 26.7c2.46 4.37 5 8.7 7.63 12.98 2.68 4.24 5.84 8.21 8.6 12.4 11.43 16.55 22.08 33.25 35.88 48.03Z"/><path class="uuid-a9ab493f-d34d-468d-a580-8015dcc2cb4f" d="M1680.92 999.8c-.42-3.26-.3-8.26-.45-11.6-.45-26.44-.38-54.86-.43-81.23-.01-30.94.04-61.88-.08-92.82l1.87.31a313.88 313.88 0 0 0-13.18 53.09c-2.22 13.54-3.36 27.22-4.97 40.86-2.53 20.84-6.4 35.98-31.1 34.73-30.09-.58-24.14-42.14-19.23-61.98l3.54 1.48c-13.93 23.58-28.29 46.85-45.94 67.92-5.47 6-14.91 17.44-23.84 16.63-22.71-1.49-10.63-26.22-3.26-37.7 1.85-2.94 3.75-5.78 5.88-8.6l3.24 3.25c-8.93 6.76-18 13.24-27.3 19.46-9.4 6.21-18.83 12.26-29.12 17.04-5.35 2.4-11.77 5-17.75 2.98-5.81-1.77-10.58-5.19-15.2-8.84-4.45-3.6-8.53-7.53-12.43-11.61-3.9-4.1-7.58-8.31-11.12-12.79l4.47-2.74c4.28 9.81 7.86 19.91 8.07 30.75.08 5.87-1.89 12.67-7.48 15.66-5.46 2.9-12.77 3.12-17.57-1.02-12.94-11.26-14.01-44.39-14.7-60.84-.35-13.8-.05-27.54.85-41.34l5.25 1.06a540.36 540.36 0 0 1-9.3 24.76c-6.67 16.37-13.8 32.55-23.02 47.73-3.54 5.71-7.41 11.38-12.24 16.2-3.54 3.4-7.6 6.63-12.9 7.02-6.84.06-13.48-.3-20.25-1.55-12.33-2.13-24.74-9.01-22.12-23.65 2.85-14.7 15.77-28.68 26.31-38.76l2.2 3.47-39.7 15.3c-10.94 4.1-28.93 10.85-39.9 14.79 4.86-2.24 14.55-6.53 19.43-8.67 17.86-8.02 51.16-22.07 69.26-29.84-11.9 11.15-24.9 23.35-31.27 38.65-8.64 21 13.72 24.52 29.41 25.08 1.95.08 4.4.1 6.33.06 5.77-.74 9.93-5.84 13.68-10.3 7.93-10.2 13.85-21.85 19.43-33.54 10.1-21.36 18.52-45.02 26.07-67.47-1.28 19.7-2.79 41.2-2.05 60.84.45 13.44 1.32 27.13 4.5 40.16 1.88 6.74 5.18 18.58 13.51 18.55 3.46.03 7.2-1.15 8.9-4 5.43-9.39-1.4-27.4-5.47-36.85l-8.76-19.56c6.65 8.2 16.7 21.85 23.97 29.25 7.34 7.47 15.25 15.73 25.24 19.25 4.94 1.63 9.72-.75 14.33-2.67 4.92-2.23 9.74-4.9 14.48-7.7 18.65-11.09 36.78-24.64 54.11-37.74-6.66 8.91-15.48 19.96-20.34 29.88-3.39 6.83-9.12 20.4 2.28 22.09 3 .6 5.6.35 8.32-1.45 5.47-3.42 10.12-8.51 14.43-13.4 20.43-24.23 36.94-52.07 52.91-79.42l-3.65 13.78c-4.27 16.6-11.22 55.84 13.96 57.82 7.83.51 17.23-.02 22.38-6.67 2.65-3.32 4.15-7.58 5.22-11.92 2.08-8.8 2.83-17.98 3.93-26.99 2.88-27.38 8.13-54.65 17.45-80.61l1.9-5.38-.02 5.7c-.23 56.7-1.3 117.24-1.28 174.05.01 3.28.03 8.33.31 11.6ZM.92 1000.5c.75-52.6-.79-132.35-.87-185.65L0 808.6l1.77 6c7.6 25.55 11.91 51.97 14.31 78.48.89 8.81 1.53 17.66 2.94 26.3 1.86 11.14 5.3 21.34 18.32 21.59 1.48.08 3.3.01 4.8-.1 9.79-.49 13.57-10.64 14.55-19.12 2.18-17.7-2.28-36.36-6.17-53.56 13.23 27.27 26.8 55.1 44.07 80 3.58 4.76 10.3 14.59 16.1 15.7 3.77.09 7.66-1.52 8.21-5.64 1.37-10.42-7.1-25.21-12.4-34.11l-7.94-12.78 11.15 10.09c10.92 9.82 22.21 19.4 34.14 28 3.97 2.82 8.03 5.55 12.22 7.82 2.59 1.34 5.1 2.62 7.81 3.02 1.48.18 2.8-.21 4.24-.81 4.1-1.86 7.75-5.2 11-8.43 11.09-11.04 21.08-27.86 29.73-40.93-5.06 14.79-18.22 42.24-12.23 57.27 1.27 2.8 3.89 4.22 6.93 4.28 11.03.57 13.42-31.73 14.17-40.05.52-6.6.8-13.23.95-19.87.53-18.73-.57-39.01-1.61-57.78 7.71 23.7 16.63 47.95 27.89 70.17 7 13.16 17.12 32 30.9 38.52 2.17.98 4.54 1.58 6.96 1.59a17.6 17.6 0 0 1-7.21-.94c-18.07-6.89-32.12-33.75-40.68-50.36-6.4-13.15-12-26.57-16.8-40.42l4.8-.93c1.03 20.15 1.26 40.28-.21 60.4a184.78 184.78 0 0 1-2.57 20.15c-1.46 6.91-2.92 13.74-7.28 19.72-1.74 2.35-4.78 4.6-8 4.74-3.1.12-6.09-.46-8.74-2.31-7.75-6.01-6.17-17.64-4.84-26a117.85 117.85 0 0 1 5.57-19.7l4.26 2.17c-7.05 10.45-14.6 20.63-24.4 28.69-8.36 6.56-13.54 6.96-22.76 1.75-17.33-10.05-32.22-23.42-47.1-36.65l3.2-2.7c5.09 8.44 9.63 17.18 12.1 26.78 1.13 4.89 1.95 11.3-1.87 15.59-2.59 2.78-6.24 3.55-9.81 3.51-2.3-.17-4.36-1.41-5.9-2.55-5.35-4.17-9.16-9.45-13.06-14.8-7.44-10.6-13.86-21.74-20.06-32.99a745.86 745.86 0 0 1-17.59-34.26l3.31-1.15c3.45 17.05 9.98 61.5-16.53 61.74-16.53.87-21.9-9.22-24.16-23.92-2.58-17.63-3.1-35.29-5.65-52.87A366.9 366.9 0 0 0 .08 815.1l1.72-.25c-.35 53.6.52 132.8-.88 185.65Z"/><path class="uuid-a9ab493f-d34d-468d-a580-8015dcc2cb4f" d="M787.5 733.82c14.6-.75 25.48-10.9 37.35-18.19a69.87 69.87 0 0 1 36.71-10.83c9.46-.02 13.64-5.26 18.3-12.73 7.1-11.74 16.05-16.76 29.7-17.2l2.73-.04c4.75.21 8.45-2.2 10.4-6.68 2.73-6.05 3.07-13.15 3.95-19.82.88-5.53.96-11.7 4.93-16.52a8.44 8.44 0 0 1 5.07-2.71c2.09-.19 3.97-.19 5.82-.95 13.93-6.26 11.38-35.97 39.08-36.74 4.83-.12 9.81-.38 14.35-2.1 5.05-1.75 7.47-5.6 8.1-11.12.45-3.17.41-6.7 1.17-10.7 1.25-7.45 6.84-11.79 14.3-12.44 5.95-.59 11.97-.07 17.5 2.33 3.8 1.61 7.08 4.2 9.74 6.7 2.68 2.52 4.96 4.82 7.37 6.2 3.83 2.35 8.75 2.34 13.2 1.59.26-.03 1.9-.23 2.25-.26 3.83-.42 7.94.17 11.39 2.17 13.83 8.33 12.99 30.17 20.65 42.54 4.95 7.9 10.57 7.08 18.72 5.97 14.1-1.5 27.9 1.36 37.53 12.48 2.56 2.8 4.72 5.8 6.77 7.97 1.93 2.04 3.63 3.34 6.32 2.9 13.62-2.34 18.3-17.11 29.6-24.03 4.16-2.54 10.36-4.89 14.93-2.02 11.1 6.68 13.43 38.26 20.92 50.08.86 1.33 1.67 2.44 2.53 2.64 3.51-.27 7.48 1.55 9.65 3.59 9.13 8.39 13.33 24.48 16.06 36.22l-5.11-3.99c3.93-.2 8.32.5 12.2 2.57 7.06 3.65 11.1 11.6 13.5 18.61 2.28 5.95 3.2 12.4 6.64 17.51.23.26.5.53.75.72.1.06.18.05.26.14.1.01.18.02.26.08 1.25.08 2.54.06 3.8.2 14.36 1.04 22.6 9.08 32.06 18.56 1.64 1.39 2.81 2.55 4.61 2.82 3.74.24 6.67-1.85 8.17-5.3 2.42-5.3 3.03-11.84 3.86-17.88.78-5.34 1.22-11.04 4.11-16.22 1.6-2.98 5.12-5.48 8.68-5.58 2.08-.04 4.41-.24 6.2-1.44 1.91-1.13 3.65-3.18 5.22-5.7 4.83-7.94 8.97-20.04 18.28-25.64a26.81 26.81 0 0 1 11.22-3.76c7.58-.58 13.73.2 20.03-3.26 9.3-5.45 2.46-20.3 10.76-28.21 6.75-6.42 20.42-5.25 28.32-1.7 6.29 2.56 11.03 9.02 16.07 12.63 3.46 2.43 7.65 2.94 11.82 2.56 3.7-.42 7.33-1.04 11.07-.09 16.3 4.18 16.62 27.46 22.33 40.24 3.38 8.35 8.49 12.74 17.76 11.53 11.23-1.46 23.56-1.12 33.16 5.67a39.96 39.96 0 0 1 7.75 7.24c4.72 5.51 8.12 11.91 14.13 10.8 13.09-1.78 19.07-15.13 28.82-22.57a20.4 20.4 0 0 1 10.05-4.1c4.26-.3 7.1 3.95 8.63 7.25a65.64 65.64 0 0 1 3.51 9.57c2.85 9.49 4.72 19.4 8.27 28.57 1.21 3 2.61 6.03 4.82 8.13a5.3 5.3 0 0 0 3.9 1.57 8.38 8.38 0 0 1 5.1 1.66c5.44 4.22 7.92 10.98 10.27 17.18 2.18 6.3 3.83 12.75 5.06 19.26-2.52-10.3-7.35-28.77-16.15-35.22a6.93 6.93 0 0 0-4.21-1.25 7.09 7.09 0 0 1-5.16-1.86c-2.62-2.37-4.17-5.52-5.56-8.66-3.91-9.3-6.05-19.01-9.2-28.48-1.33-3.58-4.5-14.6-9.2-14.18-9.85 1.83-14.26 11.07-21.17 17.96a37.6 37.6 0 0 1-8.17 6.65 24.65 24.65 0 0 1-10.44 3.39c-8 .7-12.82-7.25-17.25-12.25-6.1-7.38-14.76-11.12-24.25-11.15-3.16-.1-6.33.11-9.47.52-1.97.23-4.58.64-6.55.62-3.9.04-7.9-.91-11.16-3.11-12.6-8.78-12.66-27.46-19.03-40.12-3.01-6.06-6.9-8.9-13.67-7.79-6.7 1.2-14.24.87-20.04-3.14-5.76-3.83-9.21-9.23-15.13-11.8-4.7-2.1-11.8-2.54-16.58-1.14-9.51 2.75.4 22.12-14.72 31.2-5.02 3.05-10.82 3.88-16.32 4.32-2.43.13-4.88.06-7.2.33-20.2 2.23-17.07 32.82-37 36.64l-1.59.27c-.53.06-1.05.08-1.57.11l-1.15.07c-.63.07-.8.4-1.2 1.04-1.88 3.63-2.1 8.24-2.76 12.64-.92 7.03-1.48 14-4.64 20.84-1.8 3.87-5.01 7.64-9.17 9.35-4.46 1.87-9.64 2.12-13.8-.22-3.62-2-6-4.61-8.7-7.23-6.23-6.5-13.51-11.93-22.6-12.4-1.21-.1-2.58-.08-3.81-.2-5.8-.38-9.64-5.67-11.53-10.5-3.89-8.7-5.23-22.59-13.78-27.55-3.01-1.8-7.68-1.4-11.27-1.17-2.19-10.28-6.18-27.47-13.68-34.84-1.27-1.05-1.8-1.24-2.93-1.21-9.56-.05-13.34-10.91-15.88-17.98-2.35-6.96-4.02-13.82-5.95-20.45-.96-3.3-1.96-6.57-3.15-9.55-1-2.3-1.9-4.77-3.68-6.28-.12-.06.08.03.18.02-12.8 2.14-17.76 23-36.8 26.9-9.15 2.09-14.83-3.27-19.85-9.92-7.3-9.91-15.57-14.1-27.94-13.8-5.5-.1-10.9 1.52-16.45.7a21.32 21.32 0 0 1-7.9-2.76 24.8 24.8 0 0 1-7.76-8.15 52.53 52.53 0 0 1-4.6-10.55c-3.35-9.07-5.15-25.54-13.42-29.64-1.67-.7-3.76-.97-5.65-.74l-1.06.1-.27.03c-2.3.35-4.57.55-6.97.53-4.12-.08-8.55-1.13-12.1-3.36-3.66-2.22-6.26-5.09-8.68-7.37-4.62-4.68-9.84-7.1-16.24-7.35-5.62-.24-11.54.14-12.48 6.4-1.16 6.7-.67 16.04-6.11 21.69-5.57 6.1-14.27 7.24-22.04 7.47l-2.7.06c-.78.04-1.57.01-2.33.1a18.39 18.39 0 0 0-11.96 5.55c-4.58 4.76-7.26 11.2-10.55 17.16-3.68 7.11-9.7 13.69-18.38 13.55-.61.03-.72.02-1 .05-.72.1-1.2.35-1.76.91-2.67 3.55-3.1 8.8-3.83 13.44-.48 3.45-.9 6.98-1.57 10.54-1.67 9.83-6.22 20.32-18.02 19.64-4.92-.14-10.21.26-14.82 1.93-15.31 5-15.55 23.96-31.68 26.15-.92.1-1.85.23-2.77.22l-1.38.03-1.3.01c-35.35-.36-46.75 25.32-72.76 26.3ZM.92 479.64c.7-18.75 18-42.6 35.82-48.92 3.84-1.5 8.16-1.62 11.72-3.72 9.57-5.15 10.74-16.97 16.68-25.3 6.94-10.12 22.09-8.9 31.2-2.66 3.73 2.38 6.98 5.2 10.2 7.75 4.63 3.62 9.17 6.92 14.93 6.63 4.34-.75 6-9.11 7.37-12.95 3.34-11.52 8.03-24.5 22.77-22.97 17.9 1.36 22.54 20.95 29.18 34.03 1.55 2.63 3.08 5.38 6.02 5.07 9.22-.17 18.74 3.76 25.53 9.83 3.43 2.89 6.4 6.14 9.21 8.62 2.1 1.64 3.18 2.76 5.33 2.62 14.3-.36 8.86-30.8 15.73-40.38a11.73 11.73 0 0 1 3.75-3.75 10.84 10.84 0 0 1 5.45-1.48 9.72 9.72 0 0 0 5.95-1.9c2.29-1.68 4.27-4.77 6.09-8.27 7.32-15.22 13.87-27.55 33.31-27.24 6.68-.35 16.17-.73 18.35-8.35 1.85-6.3.33-12.91 3.7-19.4 4.14-8.15 14.27-9.23 22.23-8.44 7.36.48 14.78 4.15 19.94 9.28 3.3 3.1 5.8 5.66 8.41 6.83 4.5 2.11 9.84 1.27 14.63.17 4.53-1.13 8.47-2.73 9.85-7.48.54-1.57.99-3.61 1.75-5.98 2.4-8.35 9.5-13.4 17.6-15.44 7.59-2 16.44-2.28 23.38-5.66 4.71-2.2 6.2-4.46 6.25-9.82.02-5.07 1.9-10.53 6.82-12.93 4.1-2.06 8.13-2.5 12.55-2.24 5.32.28 10.67 3.87 14.2 7.1 5.96 5.47 10.76 7.11 18.55 6.33 11.87-1.9 19.3 2.37 27.06 9.95 3.27 2.97 6.26 6.03 10.65 5.74l1.8-.06c12.06-.38 24.04 4.92 32.48 13.34a67.5 67.5 0 0 1 14.84 22.08l.37.94-5.8-3.85c19.55-.79 25.12 15.88 29.7 31.4.88 2.5 1.8 5.48 3.2 7.39.42.48.57.77 1 .87 8.9-.12 18.07 3 24.98 8.55a79.6 79.6 0 0 1 7.9 7.2c2.27 2.13 4.45 4.88 7.12 5.84 7.11.72 9-7.09 10.15-12.97 1.25-6.63 1.53-13.12 3.26-20.04 1.23-5.53 5.2-11.73 11.8-11.84 4.91.23 8.04-2.4 10.73-6.88 7.24-12.68 12.03-27.81 30.13-29.66 5.91-.41 12.76.07 18.1-2.3 7.11-2.76 6.52-10.38 7.35-17.1 1.16-13.36 10.52-17.37 22.82-16.27a32 32 0 0 1 11.17 2.83 34.74 34.74 0 0 1 9.2 6.6c2.53 2.42 4.65 4.64 6.87 6.08a14.56 14.56 0 0 0 7.29 2.44c3.04.32 6.28-.43 9.38-.64 6.22-.56 12.96 2.57 16.42 7.8 5.13 7.36 6.68 16.26 9.12 24.52 1.75 5.74 3.48 12.05 7.51 16.33a12.17 12.17 0 0 0 6.7 3.7c2.84.6 6 .06 8.92-.25 6.85-.69 14.03-.62 21.01 1.47 6.91 1.96 13.15 6.65 17.54 12.16 3.25 3.64 5.33 7.78 9.36 9.93 2.34 1.2 5.3.58 7.76-.19 4.4-1.44 8.04-4.18 11.37-7.53 6.84-6.7 12.64-16.5 22.99-18.16a6.56 6.56 0 0 1 4.92.85c2.54 1.58 3.9 4.26 5.1 6.7 2.83 6.26 4.3 12.76 6.05 19.28 2.12 6.96 5.76 27.17 13.4 28.21 6.05-.41 9.98 5.45 12.4 10.1a69.9 69.9 0 0 1 3.9 9.23 138.5 138.5 0 0 1 5.04 19.28c-2.1-8.87-9.23-36.32-20.17-36.85-10.1 1.34-14.85-21.76-17.38-29.19-1.58-4.63-6.19-24.38-12.04-23.85-9.69 1.8-14.02 10.81-20.83 17.7-5.78 6.25-15.87 12.96-24.75 9.34-5.04-2.29-8.21-7.4-11.54-11.06-2.1-2.4-4.3-4.5-6.79-6.18-8.41-5.73-19.02-5.72-28.96-4.24-26.95 3.93-26.89-25.62-34.98-42.86-3.96-7.94-8.22-8.76-16.35-7.24-5.77.7-12.16-.18-17.12-3.5-5.84-3.82-9.28-9.18-15.13-11.81-4.52-2.1-11.62-2.53-16.23-1.22-2.15.76-3 1.52-3.76 3.68-1.23 3.64-.8 9.77-1.88 14.27-1.09 6.33-5.62 12.27-11.63 14.71-6.98 3.14-13.82 3-21.06 3.37-19.8 2.06-16.59 32.55-36.89 36.67-1.49.33-2.98.43-4.47.46-.07.02-.18 0-.22.04l-.05.04c-.82.88-1.15 2.16-1.62 3.78a78.28 78.28 0 0 0-1.48 9.13c-.96 7.11-1.45 14.09-4.64 21.08-1.83 4.03-5.16 7.97-9.49 9.8-4.66 1.99-10.13 2.3-14.54-.13-3.75-2.07-6.17-4.68-8.94-7.36-6.14-6.37-13.18-11.7-22.07-12.18-1.24-.1-2.53-.07-3.78-.15a12.27 12.27 0 0 1-6.47-2.58c-4.36-3.52-6.08-8.75-7.74-13.58-1.96-5.94-3.54-12.16-6.65-17.2-4.1-6.57-8.74-6.36-15.63-5.92-5.18-14.67-16.54-29.98-32.75-32.18-2.9-.48-5.86-.24-8.8-.25-4.21-.07-8.81-1.99-11.94-4.34-6.77-4.85-11.58-12.74-20.12-11.7-3.38.4-6.85.7-10.34.42a29.9 29.9 0 0 1-14.6-4.98c-3.55-2.31-6.5-5.56-9.63-7.5-2.44-1.5-5.14-1.4-7.81-.82-.82.13-1.46.49-1.75.65-.25.7-.36 1.83-.42 3.1 0 15.85-13.07 21.2-26.35 23.8-5.45 1.1-11.7 1.4-16.62 3.96-6.22 2.93-5.15 10.33-8.42 15.9-1.9 3.8-5.77 7.1-9.39 8.74-4.66 2.17-9.06 3.06-14.03 3.64-5.03.53-10.6.02-15.33-2.33-9.6-4.73-13-14.6-24.51-15.33l-1.32-.12-1.36-.04c-.91-.04-1.79 0-2.64.04-2.7.28-4.93.53-6.2 2.67-2.05 5.13-1.16 11.77-3.1 17.48-2.27 8.23-9.98 13.24-18.05 14.62-3.5.69-6.84.93-10.31.98-4.2-.13-8.83.52-12.1 2.9-5.97 4.25-8.91 11.87-12.61 18.63-2.28 4.22-4.97 8.43-9.12 11.46a19.5 19.5 0 0 1-11.72 3.64c-.37 0-.44.05-.55.08-.1.07-.34.23-.63.68-1.16 2.02-1.74 4.52-2.19 7.13-.68 3.87-1.11 8.06-1.79 12.34-1.27 9.13-4.7 21.57-15.42 23.97-11.47 3.17-17.24-7.01-24.38-13.09-5.72-5.13-12.49-8.11-20.17-8.24l-.8-.03c-.41-.02-.82-.04-1.23-.1-9.71-1.63-12.38-13.86-15.74-21.13-1.57-3.8-3.21-7.44-5.3-10.6-3.06-4.72-7.14-7.99-12.6-8.49-3.2-.39-6.6.13-8.95 2.6-5.33 5.73-6.58 14.28-9.58 21.58-3.14 8.43-8.16 12.9-17.77 9.47-8.59-3.13-13.84-10.18-20.95-14.88-6.27-4.35-14.53-6.15-21.48-2.66-6.66 4.17-8.68 13.42-12.99 20-3.35 5.74-9.17 10.2-15.81 11.27-20.62 2.66-41 28.41-42.56 48.04Z"/><path stroke="#155b2c" stroke-miterlimit="10" fill="none" d="M.92 576.76V.5h1680v813.65"/></g><g id="uuid-db346a2b-04b1-4658-9a3a-8dc320f7b13b"><path d="M1258.5 470.76c1.4-.75-9.69-12.44-15.45-19.68-1.55-4.68 8.36 8.44 14.2 14.29-1.9-4-10.82-15.8-9.75-15.88 1.77 1.97 2.53 2.6 4.53 5.24-7.38-10.52 2.37-2.84-7-15.98 1.01 1.01 1.93 2 2.74 2.9a631.08 631.08 0 0 1-14.52-16.63c.35-.66-5.62-8.57 1.42-.74-.53.04 2.2 3.29 4.18 5.91l-2.41-3.95c10.33 11.07 2.64 4.63 9.91 13.13-2.1-4.66-8.98-15.25-5.37-12.71 9.79 11.09 1.3 5.44 10.95 14.49l-4.96-3.2c16.15 16.9-1.84-.57 15.3 17.64 4.47 1.8-3.02-7.35 1.48-5.51-4.97-6.58-8.03-9.14-13-15.71-7.2-13.28 26.07 26.65 15.02 10.17-5.95-7.89-17.94-22.26-10.25-15.81l10.45 13.08c2.7-.15-14.7-19.08-5.67-12 3.97 5.26 2.32 5.32 3.86 6.62 9.7 9.09-5.38-7.88-4.53-8.61l9.8 11.1c.24-3.26-4.8-13.03-4.62-16.74 2.76 3.44 5.44 7.25 8.83 10.3-2.37-7.7 6.38-3.07 14.44 1.6l-7.41-10.48c.3-.08 4.14 4.05 5.52 6.13 4.07 2.9-5.23-6.2-8.05-10.4-.06-1.12 5.47 5 7.63 8.2-5.43-9.62-10.57-21.68.03-12.73l2.14 3.17c4.7 2.8-15.54-21.2-6.56-13.19l1.24 1.92c6.47 1.75 2.04-9.86 16.78 2.93-11.55-14.36 8.19 3.8-8.32-15.87 9.92 8.26 12.42 12.15 20.3 16.68 1.39.37-9.5-12.98-10.48-15.67l8.74 10.18-8.1-11.58 10.98 11.73-1.52-3.23c-.8-.36-4.53-4.06-7-7.04-2.83-5.58 8.81 4.78 13.31 9.98l-4.73-10.9c3.45 4.16 4.2 5.94 6.1 8.86-7.5-11.62 9.45 10.53 2.58-.12-2.16-2.17-5.1-6.16-6.84-8.24 5.92 5.61 7.44 4.41 6.3.88l5.8 7.2c3.5.12 1.26-6.9 3.58-8.66-3.6-2.6-13.84-14.95-14.2-16.67l9.48 10.55c-5.28-7.02-4.16-3.49-10.27-12.38 1.88.54 11.04 11.8 13.56 15.7l-2.2-4.6c2.82 3.18 4.04 5.08 7.49 9.23-5.32-7.05 10.98 9.35 1.63-2.79l2.8 3.16c2.28-1.8.1-6.36 1.44-8.44-7.93-9.34-5.46-7.87-11.36-15.85 3.86 1.84 11.58 7.9 12.5 5.76-2.85-5.59-6.42-8.16-10.65-14.13 7.33 8.4 8.24 6.26 12.62 13.05.74-3 1-3.77-2.48-12.72-3.24-3.25-4.82-4.5-7.14-7.53-.75-1.77 4.04 2.7 7.46 6.83l.63.97c-8.16-15.03 27.4 19.38 14.44-.14l.62.98-5.64-11.13c2.29.6 4.84 6.9 10.08 11.5-9.68-16.2 5.57-1.2-.5-12.33 22.93 23.7 3.95-6.43 19.68 7.76l-5.16-5.79c-4.4-6.23 3.53 2.82 5.08 3.83-3.97-4.53-5.1-4.8-7.51-8.28-1.53-11 16.74.58 25.95 1.92 3.05.12-25.1-31.3-10.93-19.08l8.75 11.45c-7.8-16.06 7.42-5.56 1.26-19.57 1.96 2.7 4.76 5.98 4.4 6.23 7.5 7.33 2.96-1.87-2.58-8.36 1.16.29 5.14 5.76 8.28 8.78 4.73 4.08-6.88-11.68.26-4.1 1.16 1.23 2 2.76 2.4 3.48-2.83-4.24 3-.87-5.29-9.66 5 3.3-1.07-6.15 4.58-1.58-8.1-10.8 6.38 3.08-5.8-11.59 12.72 15.06 12.54 10.18 7.32 2.46 3.6 4.76 4.7 4.1 9.75 10.63.73-.99-.8-4.48-7.55-12.04 17 16.48-8.96-17.3 11.63 4.85-4.18-10.37-6.33-17.96-6.9-23.55 12.7 15-1.41 3.8 12.1 19.38-2.95-8.13-12.58-22.09-7.2-20.44 2.33 1.53 5.2 6.76 7.18 9.49-2.95-8.13 5.62-2.47.72-12.35 1.19 1.4 2.27 3.1 3.03 4.42-.02-.84 2.8 1.38-3.04-5.36l1.19 2.18c-9.08-9.3-16-21.96-20.38-27.22 15.95 20.04 6.21 3.15 26.14 28.66-.82-1.5-3.24-5-7.19-9.5 1.54 1 3.93 3.54 7.94 9.04-1.7-4.93-8.4-11.7-6.95-12.68 2.81 3.3 3.63 4.79 6.8 8.77-4.82-6.98-9.63-13.96-6.14-12.13 1.62 2.04 3.96 4.5 3.58 4.74 1.06-2.62-11.34-19.84-3.96-15.45 11.6 14.81 4.74 4.1 15.42 16.36l-2.03-4.65-5.58-5.6c1.17-.64-5.66-10.39-1.35-7.06l3.62 5.71-.16-3.92-5.05-3.8c-4.46-7.21-13.49-15.54-9.23-13.22.8 1.48 1.12-.69 7.86 6.16l.02.03c-2.88-4.35-5.92-8.93-2.57-6.48 3.57 3.8 11.54 13.8 13.91 16.32-8.35-10.74-.14-4.84-8.94-16.36 2 2.76 7.54 9.25 8.74 10.51l-6.77-8.73c2.75 2.3 3.93 3.54 8.28 8.77 2.69.36-13.85-15.3-6.44-9.94.45.79 1.59 1.99 2.41 3.5 4.65 2.11-1.4-8.04 3.65-5.2 11.08 12.06 1.29 4.18 10.77 14.23.24-4.1-8.27-18.75-3.66-17.61l-1.56-1.04c-14.73-17.8 8.97 7.33 2.96-1.85.85 1.53 8 10.04 6.4 8.02 3.84 1.6-.76-6.83-3.31-14.22l3.6 4.75c4.28 3.3 4.2.42 6.88 1.69-3.58-4.74-2.44-4.46-8.36-10.74 24.79 23.27-6.4-18.37 14.4.88-.25.31 2.67 4.56 2.91 4.36l-1.41-5.96c-6.72-7.51-4.24-4.4-9.78-9.97-3.61-4.76-6.02-8.8-5.49-9.25 3.38 5.9 10.52 12.28 14.58 16.2-2.07-2.29-4.14-5-6.22-7.35 12.76 12.66-12.97-15.55-3.61-7.68l3.35 4.08c-1.18-2.54-5.2-8.3-3.6-7.67 7.82 8.63 2.92 4.64 9.11 11.96.43-1.25-12.64-18.22-4.32-10.07 1.75 2.78 1.26 3.27 2.98 6.04 9.74 9.65 7.58 6.93 9.62 8.04l-.26-.18 5.48 3.46-2.78-2.5c-18.65-24-1.4-6.1-12.88-22.45 10.82 15.51 6.84 8.48 15.3 18.59 2.76 2.47 6 5.1 8.25 8.07-6.24-8.68 6.59 5.38-2.55-7.27 2.8 3.18 1-.31 7.78 7.93-1.28-3.3-5.02-5.44-8.4-9.55-8.06-12.21 14.67 10.6 3.7-6.23-3.61-7.68-12.61-18.84-15.66-25.61 4.95 4.7 9.62 12.13 9.62 12.13 4.92 4.02 4.83 2.59 2.47-1.8 2.25 2.95 4.46 5.2 7.8 8.6-.06-1.4-9.61-12.12-4.68-8.1 2.93 3.72 7.67 9.65 10.44 13.52-1.77-3.62-6.17-10.3-7.86-13.89 5.02 5.44 6.82 8.95 9.67 12.85-1.27-3.3-2.04-7.08-9.37-16.21l-3.3-2.69c-.04-.71 6.71 7.5 7.86 9.34 5.2 7.63-3.75-2.15-6.56-5.35l-1.2-2.56c-16.78-18.43.32 5-1.76 4.87l-11.3-14.18 8.6 12.43c-3.32-3.38-10.06-10.92-11.26-13.46-6.64-6.1 3.46 5.51-3.73-1.47a15.56 15.56 0 0 1-2.02-2.42l2.72 4.79c-2.32-3.03-8.45-9.61-6.26-8.04-8.23-6.72 6.52 12.3-2.94 2.33l-.6-.95c1.98 6.36 8.45 10.28 17.1 23.42l-22.33-24.08 8.45 10.27c-.52-.18-1.57-.6-4.96-4.7 5.16 7.57 3.9 4.28 9.04 11.2-8.86-8.37.96 6.63-13.04-9.29 6.22 8 6.02 5.13 9.53 11.37-15.11-17.06 1.32 4.01-6.38-3.16-7.37-9.18-2.46-5.17-10.2-12.38 12.39 15.58-4.58-1.8-2.87 1.74 10.26 12.06 2.64 6.43 4.78 11.53-3.37-4.11-8.05-4.55-12.95-7.88l-1.7-2.05c10.17 12.35 6.98 11.1 8.24 14.38-6.2-7.31-8.48-10.3-10.78-13.98l-.8.77c3.14 4.07 4.63 6.35 5.28 8.2l-7.56-9.26c-.69 1.45 6.9 12.62.28 7.78 7.17 8.55 21.32 22.62 24.65 29.59-3.98-4.54-10.74-12.33-11.95-14.54.38.7 2.8 4.2.86 2.47l-5.99-8.23c-3.55-2.83 5.17 6.73 4.03 6.46-5.58-6.54-4.37-4.33-8.74-9.58-.4-.75 2.77 2.3.78-.43-1.6-.66-5.63-3.93-10.1-8.68 3.24 3.68 7.54 8.8 7.83 10.02-.7 1.43-7.1-7.53-10.64-10.34 3.62 4.77-1.12.68 7.22 10.47-.37.23-4.33-4.28-6.72-6.82 3.11 4.8-1.64 3.54 7.9 13.38l.73.56c.15.23.13.26.28.5 6.41 11.34-8.67-2.16-6.98 3.63l-2.79-3.27c2.07 4.7-.6 4.34 4.6 12.06-.34.27-5.89-5.3-9.07-9.31 1.24 3.19 4.28 6.94-1.57 2.6-4.01-6.43-4.61-4.79-2.69-4.93-3.52-1.86-8.25-6.88-1.81 3.07-6.76-8.72-9.86-9.82-8.25-6.87l5.91 5.33c.45 1.73-.7 1.43-1.85 1.17l-9.13-11.26c-13.74-11.45 15.39 26.32-5.53 5.38 5.98 8.22 5.87 4.36 13.04 13.83-2.32-.59-16.93-15.46-17.29-15.21-6.66-4.87 12.42 17.24 7.35 14.35 3.55 3.76 12.7 14.1 14.74 18.75-2.29-.55-15.38-15.37-17.42-19.09-.03-.54 1.16.6 2.29 1.94-.89-1.72-1.88-3.78-5.94-7.69l3.23 4.05c-3.95-3.56-5.04-1.9-10.22-8.65a22 22 0 0 0 7.51 8.27c-6.21-4.53-2.25 1.64-6.9-1 2.07 1.97 6.22 6.41 5.97 6.56-6.2-3.12 5.47 8.22 5.57 11.12-5.9-5.32-11.95-14.54-9.04-8.33-4.32-3.33-9.1-10.27-11.5-13.76 5.21 8.65-6.62-2.96-8.53-3.74l-2.05-3.73c1.22 2.22.84 2.44.5 2.7l7.1 7.54c-1.57-1.04-1.93-.79-4.71-4.06 4 5.5 11.48 12.8 16.7 20.53-3.93-3.55 2.08 5.64-7.01-4.63 4.66 2.13-9.14-10.32-9.2-13.19.8 1.47.43 1.7-1.14.66a16.53 16.53 0 0 1-2.2-2.9c-9.53-7.98 9.37 12.41 7.54 13.56-4.82-6.05-9.91-10.83-9.1-9.34.75-.44 8.7 9.53 11.94 14.55-4.95-3.69 1.78 4.37.78 4.3l2.46 1.62c4.81 6.05 3.64 5.73 4.5 8.2-3.98-4.52-2.04-3.71-4.02-5.5 8.02 11.01-10.97-9.14-6.14-1.22-3.93-3.54-9.5-11-12.26-13.3 5.26 8.7-8.25-6.88-4.2.55 7.14 7.56 5.56 5.58 11.21 14.07l-2.58-7.42 8.43 12.68c.75-.45-2.87-6.15-1.32-5.14 4.85 7.01 3.24 4.99 9.16 11.27-11.04-11.07 4.12 8.43-3.77 1.32l-16.7-19.59c-9-7.37 5.82 12.42-.42 9.23l3.56 2.84c6.37 8-.33 2.16 1.71 5.87-5.53-6.59-7.97-8.61-11.73-12.44 4.18 4.82-1.87.83 9.11 14.04l-8.26-7.83c-4.66-2.13 14.05 20.22 10.58 19.34-5.6-7.51-10.28-11.53-13.57-17.51-.59.38-2.08-.41 1.78 4.12-3.8-3.82 6.08 10.06.28 4.26 2.24 3.06 8.02 9.97 6.97 9.93a63.6 63.6 0 0 1-2.77-3.23c2.77 3.23 2.84 5.19 9.54 11.98-19.06-19-3.26 5.35-19.65-10.95.73 3.17 1.15 6.46.51 7.83-1.6-2.02-2.78-3.26-2-2.75-6.64-4.85 15.16 19.5 7.72 14.13-9.87-9.85-4.02-6.46-7.96-10.01-18.62-21.31.54 4.62-11.3-7l-.82-1.49c-7.09-6.58 4.92 9.9 2.23 9.54 0 0-1.56-1.95-2.77-3.25 8.44 11.77 9.76 16.92 11.05 21.1-6.79-8.77-3.21-4.97-10.78-13.3.45 1.71 11.92 13.58 12.79 16.98-4.33-4.28-8.63-7.57-16.54-16.6l.7-1.45c-10.68-11.32-1.1 1.64-3.45.1l-4.34-5.23c-.28 3.14 10.82 16.16 8.19 16.8l3.53 3.74c10.01 13.75-7.04-6.51.15 3.92l-11.48-12.81c2.03 3.72 8.48 14.62 9.4 18.09-7.62-10.27-10.47-16.41-14.53-22.9-.74.47-1.4 2.87 3.77 9.61-.82-1.48-3.22-4.97-1.24-3.18 7.98 10.96 11.24 16.92 9.74 17.81-21.44-25.53-8.87-3.46-26.66-22.33 5.7 11.36-8-.06-9.42 3.75 17.81 18.88-.3 1.23 17.17 21.33.47 1.82-.05 1.7-1.23.44l-12.24-10.46c-5.5-5.5-3.22-4.98-7.16-9.47-2.7-.37-7.92-8.09-13.43-12.68 6.38 7.08 8.4 10.78 5.24 8.68l9.1 8.4c7.28 12.4-16.2-15.57-9.01-3.25l-4.84-6.89c2.22 4.6-3.78 3 9.15 20.1-2.17-2.18-7.14-7.52-7.95-9.36-4.46-.4 9.5 21.83-.9 13.4l-4.05-5.1c.78 1.8 7.17 9.96 2.36 5.45-1.72-2.07-4.05-5.09-4.5-5.2 1.22 1.9 6.24 9.68 3.18 7.3l-4.26-6c-7.86-4.5 8.05 16.6 9 21.66-12.45-14.58-18.33-17.75-21.26-19.33l-1.73-2.1c-4.24.52 5.74 16 8.14 23.86-15.09-14.48-10.93-2.13-21-8.86 2.63 2.32 9.64 11.41 10.45 13.25-3.12-2.46 7.03 11.5-4.31-1.95l.43.08c-11.65-12.73-9.88-8.22-11.12-7.77l14.8 17.61c-24.2-23.32 1.55 14.85-19.27-6.78 3.15 4.88 2.37 5.45 5.52 10.33l-7.99-9.4c-3.69-.99-5.52-1.47-5.63 2.5l-5.32-7.05c-1.67.37 21.67 28.26 21.08 29.72l-12.28-13.72c-1.81 1.93-14.34-8.63-5.46 5.75-1.73-2.08-5.13-6.17-5.29-7.01-1.25.44-11.73-6.36 5.03 12.55-10.72-12.49-3.1.54.53 6.97l-7.72-9.36c9.17 12.56 11.9 15.81 13.42 20.16-1.33-.94-6.58-7.16-4.16-5.14-5.14-3.97 6.69 9.4 1.27 5.54l-4.59-6.28c-1.64.17 1.14 3.26 6.45 10.62 2.52 4.25-3.95-.65-11.24-8.87 4.21 5.2 9.46 12.5 6.8 10.6a52.6 52.6 0 0 1-4.94-6.27c-7.1-4.8 6.6 12.93-2.33 4.88a80.7 80.7 0 0 0-4.9-5.33c1.55-.96 3.1-1.4 3.56-.63-7.27-8.5-9.66-9.05-18.82-21.55 4.59 7.17 14.99 22.4 10.48 19.33-.75-.78-1.5-1.54-2.66-2.82l-.7-1.05c-.97-.63-.52.35.5 1.96-1.55-1.1-2.65-1.95-3.1-1.8-6.14-6.92-4.5-2.7-5.35-2.57 8 9.27 6 8.39 13.24 15.49a2.2 2.2 0 0 1-.8-1.9c-.15-.35-.18-.57-.59-1.16l.66.85c.14-.58.43-1.2.84-1.8 3.61 5.1 6.55 9.46 1.53 4.82 4.83 6.23 9.77 12.64 12.07 15.68-11.86-12.33-19.32-18.1-26.37-25.93 2.78 6.67-1.03 6.85 12.86 25.24 1.44 2.65-4.84-4.54-7.37-7.14-1.22-1.99-.66-2-2.66-4.64 2.88 5.3-1.35 4.17 8.86 16.58-5.92-4.48-8.93-11.82-8.89-8.4l-2.97-3.93c-19.96-16.72 21.35 35.72-3.7 13.76 1.56 1.33 2.3 1.93 4.1 3.93-13.59-7.51.35 17.65-18.72 3.62-4.18-2.54 2.37 5.37 6.73 11.9l-8.8-9.78 8.65 12.57c5.51 9.91-23.95-21.99-12.46-4.16l6.04 6.5c-1.87-.62.92 6.07-5.57-1.78.97 1.3 5.73 7.22 2.43 3.97l-4.5-5.2 5.75 10.6c-4.72-2.52-17.52-20.97-20.56-20.13.91 2.7 10.73 17.19 14.02 20.43.55-.02 3.62 2.55 8.13 7.77l1.6 3.35c13.04 15.53 25.98 31.8 37 41.02l-6.8-10.5 6.8 7.12-.67 1.38c6.62 6.51 1.68-.04-1.55-4.67 3.5 3.89 6.06 6.52 7.58 7.78l-11.36-15.78c5.31 5.9 9.68 12.44 13.36 15.06-5.27-7.33-12.12-13.04-15-18.36 6.6 6.5 11.3 12.35 6.89 5.77 3.5 3.88 5.5 6.54 6.72 8.52-3.44-5.3-.06-3.44-6.74-11.9 8.02 8.1.2-4.07 12.62 10.57-2.79-3.66-8.69-12.4-8.63-13.5 13.88 18.36 3.05-.83 18.78 18.13-12.65-16.37-3.14-9.39-9.2-19.29.99 1.31 3 3.97 2.19 3.28 1.9.63 6.17 5.17 9.2 7.71-10.98-13.05-12.3-17.06-18.5-25.62 11.66 11.7 12.45 15.72 23.03 27.49-9.04-10.47-7.31-11.92-15.13-20.4 7.36 7.13 3.85 3.23 13.42 13.65-13.75-16.33-1.67-3.33-9.58-13.8 7.9 7.09 13.27 14.96 10.2 9.03 4.81 4.5 8.7 11.13 8.7 11.13Zm3.65-51.69.16.18c-.06.42-.1.78-.12 1.02 0-.23.02-.56-.04-1.2Zm2.2-2.13c-.6-.12-1 .11-1.32.5-2.83-3.15-5.57-6.53-5.2-6.56 1.71 2.25 3.85 3.64 6.52 6.06Zm-60.07-60.28c-.76-1.64.93.09 2.6 1.95-.03.31.04.8.32 1.67l.93 1.17c-1.49-1.8-2.87-3.5-3.85-4.8Z" fill="#363535" stroke-width="0"/><path class="uuid-cdd9eb95-4594-4d57-a00f-240e5fb35cd9" d="M877.59 485.13c70.2-88.97 334.71-253.68 354.94 42.99 6.95 101.86 0 333.36 0 377.35s-87.97 64.82-92.6 0c-4.63-64.82-146.49-548.4-262.34-20.84-13.78 62.74-105.75 74.08-105.75 0 0-97.23 16.02-266.74 40.42-300.05"/><path d="M877.59 485.13c49.23-61.5 148.72-128.18 229.28-128.96 63.7-.49 100.45 41.65 117.28 99.41 6.03 21.06 9.67 42.96 11.52 64.76 3.26 40.65 3.8 81.68 4.17 122.4.75 86.2-1.45 176.39-2.46 262.7-.4 31-35.66 49.58-63.64 45.55-19.27-2.57-33.36-16.35-37.31-35.19-1.32-5.47-1.38-11-2.22-16.53-6.62-52.53-83-314.16-163.3-240.63-44.05 41.51-70.3 146.89-84.98 206.17-1.95 7.93-3.61 15.97-5.6 23.91a69.37 69.37 0 0 1-22.9 35.5c-27.88 23.19-73.45 21.03-85.36-17.82-2.53-8.05-3.15-16.69-2.93-25.02.12-13.61.54-27.22 1.16-40.8 3.3-65.13 9.1-130.32 21.62-194.38 3.01-14.63 6.47-29.24 11.42-43.35a99.76 99.76 0 0 1 6.67-14.87l2.25-3.4-2.17 3.45-1.83 3.63a116.34 116.34 0 0 0-5.7 15.22c-9.88 33.87-14.15 69.1-18.3 104.05-6.1 56.62-9.62 113.53-9.69 170.46-.11 7.94.54 15.74 2.97 23.28 10.84 34.24 51.1 34.9 75.48 14.2 12.35-10.18 19.33-24.25 22.04-39.83 8.13-37.27 17.35-74.27 29.02-110.65 10.25-31.15 21.94-62.33 39.47-90.36 32.3-51.26 71.88-56.72 110.65-8.13 33.6 43.78 52.95 96.34 69.98 148.21 8.41 27.55 16.59 55.3 20.43 83.96.56 8.62 2.12 17.68 6.98 24.87 18.03 27.62 71.09 13.58 75.87-18.03.1-.9.21-2.58.21-3.46 0-5 .14-13.39.21-18.4 1.56-91.3 4.15-185.7 3.22-276.81-.28-29.64-.78-59.71-2.96-89.27a365.43 365.43 0 0 0-5.22-39.97c-11.81-63.7-44.37-119.57-116.06-119.82-78.97-.55-179.6 64.72-229.28 123.95Z" stroke-width="0" fill="#191818"/><circle class="uuid-cdd9eb95-4594-4d57-a00f-240e5fb35cd9" cx="755.99" cy="460.4" r="145.87"/><path class="uuid-ab6a5ad7-981b-4a75-85a9-cad1cb9004ff" d="M852.19 350.75c98.08 87.04 44.5 248.55-86.42 259.49-82.02 6.92-155.85-57.83-159.65-140.06-6.2-131.24 147.03-205.36 246.07-119.43Zm0 0c-42.92-38.42-109.1-46.69-160.03-19.85-89.73 46.07-104.94 169.07-29.08 235.39 75.3 66.63 195.9 35.42 229.62-59.45 19.98-53.98 3.17-118.53-40.51-156.09Z"/><path class="uuid-cdd9eb95-4594-4d57-a00f-240e5fb35cd9" d="M729.33 386.9c32.41-25.46 64.82-90.28 71.77-125 6.94-34.73 98.02 77.9 96.47 163.96"/><path class="uuid-ab6a5ad7-981b-4a75-85a9-cad1cb9004ff" d="M729.33 386.9c1.57-1.51 4.6-4.31 6.04-5.78 1.07-1.2 4.45-4.9 5.6-6.16l5.24-6.46a272.96 272.96 0 0 0 22.47-34.88 353.23 353.23 0 0 0 18.8-39.97 222.71 222.71 0 0 0 8.6-26.01l1.2-5.27c.6-2.96 1.5-6.16 3.87-8.22 15.97-13.07 48.42 33.18 56.07 45.08 16.21 25.24 29.07 52.88 36.1 82.1 3.4 14.57 5.27 29.58 4.25 44.53-.6-14.8-3.49-29.43-7.81-43.57-10.9-35.08-28.81-68-51.44-96.88-5.3-6.62-23.49-27.93-31.93-26.09-1.43.83-1.62 3.07-2.04 4.54-2 9.14-5.2 18.37-8.66 27.05a266.25 266.25 0 0 1-11.75 25.58c-9.9 19.1-21.64 37.4-35.97 53.48l-5.83 6.08-4.12 3.81c-2.4 2.33-6.07 4.97-8.69 7.04Z"/><path d="M661.36 458.08c0 17.33 15.21 31.37 33.98 31.37 18.78 0 34-31.37 34-31.37s-15.22-31.38-34-31.38c-18.77 0-33.98 14.05-33.98 31.38Z" fill="url(#uuid-234687d2-0136-4ca2-a47f-b95a4eb34dac)" stroke-width="0"/><path class="uuid-ab6a5ad7-981b-4a75-85a9-cad1cb9004ff" d="M661.36 458.08c-.13 17.36 15.77 30.6 32.47 30.62 12.48.4 21.53-11.39 27.98-20.72a96.8 96.8 0 0 0 6.18-10.56v1.31a97.63 97.63 0 0 0-6.18-10.56c-6.46-9.32-15.5-21.1-27.98-20.71-16.7.03-32.6 13.26-32.47 30.62Zm0 0c-.35-19.42 20.07-35.09 38.83-31.59 14.09 3.94 23.91 18.68 30.5 30.93l.33.66-.34.65c-6.58 12.25-16.4 26.98-30.5 30.92-18.75 3.5-39.17-12.16-38.83-31.57Z"/><path class="uuid-cdd9eb95-4594-4d57-a00f-240e5fb35cd9" d="M671.79 458.08c0 11.89 9.13 21.52 9.13 21.52s9.13-9.63 9.13-21.52-9.13-21.53-9.13-21.53-9.13 9.64-9.13 21.53Z"/><ellipse class="uuid-2e87ec73-d5ce-429d-a0a9-816f63f00f94" cx="688.54" cy="449.98" rx="5.81" ry="3.05" transform="rotate(-30 688.54 449.98)"/><path class="uuid-ab6a5ad7-981b-4a75-85a9-cad1cb9004ff" d="M615.23 498.7c-6.57-19.25-4.53-24.9-5.04-34.18 9.05-14.1 42.83-8.35 5.04 34.18Z"/><path class="uuid-8db00b93-467c-4052-a720-6df3e20bc98a" d="M661.54 510.9c26.74 20.95 62.57 15.98 94.41 17.55-14.6 5.74-33.55 5.37-49.55 2.54-15.59-2.88-35.04-8.07-44.86-20.09ZM667.86 527.87c27.52 18.23 60.39 23.33 91.2 33.55-30.04 1.1-68.24-14.96-91.2-33.55ZM669.53 500.68c31.2 16.88 67.23-.74 99.59-5.43-21.36 13.05-50.29 16.88-75.68 14.67-7.9-1.35-19.29-3.18-23.9-9.24Z"/><path d="M1318.23 560.94c1.2-.64-8.23-10.58-13.13-16.73-1.32-3.98 7.1 7.17 12.06 12.14-1.6-3.39-9.19-13.42-8.28-13.5 1.5 1.68 2.15 2.21 3.85 4.47-6.27-8.95 2.01-2.42-5.94-13.6.85.87 1.63 1.71 2.32 2.48a534.07 534.07 0 0 1-12.34-14.14c.3-.56-4.78-7.28 1.2-.63-.44.03 1.88 2.8 3.56 5.03l-2.05-3.36c8.78 9.4 2.24 3.93 8.42 11.16-1.79-3.97-7.63-12.97-4.56-10.81 8.32 9.43 1.1 4.63 9.3 12.32l-4.21-2.72c13.73 14.36-1.57-.49 13 14.99 3.8 1.54-2.56-6.25 1.26-4.69-4.22-5.58-6.82-7.76-11.05-13.35-6.12-11.28 22.16 22.66 12.77 8.65-5.06-6.7-15.25-18.92-8.7-13.44l8.87 11.12c2.3-.13-12.5-16.22-4.82-10.2 3.38 4.47 1.97 4.52 3.28 5.63 8.24 7.72-4.57-6.7-3.85-7.33l8.34 9.45c.2-2.78-4.08-11.08-3.93-14.23 2.34 2.92 4.62 6.15 7.5 8.75-2.01-6.55 5.42-2.61 12.27 1.36l-6.3-8.91c.26-.07 3.52 3.44 4.7 5.21 3.46 2.47-4.44-5.27-6.84-8.84-.05-.95 4.64 4.25 6.48 6.97-4.61-8.18-8.99-18.43.03-10.82l1.81 2.7c4 2.38-13.2-18.02-5.57-11.22l1.05 1.64c5.5 1.49 1.74-8.39 14.27 2.48-9.82-12.2 6.96 3.24-7.08-13.49 8.43 7.03 10.56 10.33 17.26 14.18 1.18.31-8.08-11.03-8.9-13.32l7.42 8.66-6.9-9.85 9.35 9.97-1.3-2.74c-.68-.31-3.85-3.46-5.95-6-2.4-4.73 7.5 4.07 11.32 8.5l-4.03-9.27c2.94 3.54 3.58 5.05 5.19 7.54-6.37-9.88 8.03 8.95 2.2-.1-1.84-1.85-4.34-5.24-5.82-7.02 5.03 4.78 6.32 3.75 5.36.75l4.93 6.13c2.97.1 1.07-5.87 3.04-7.37-3.06-2.21-11.77-12.7-12.07-14.17l8.05 8.97c-4.48-5.96-3.53-2.97-8.73-10.52 1.6.46 9.39 10.02 11.53 13.34l-1.86-3.9c2.39 2.7 3.42 4.3 6.36 7.84-4.52-6 9.33 7.94 1.38-2.37l2.38 2.68c1.94-1.52.1-5.4 1.23-7.17-6.74-7.94-4.64-6.7-9.66-13.48 3.28 1.57 9.84 6.72 10.62 4.9-2.42-4.75-5.45-6.94-9.05-12 6.23 7.14 7.01 5.31 10.73 11.08.63-2.55.85-3.2-2.1-10.81-2.76-2.76-4.1-3.83-6.08-6.4-.64-1.5 3.44 2.3 6.35 5.8l.53.83c-6.94-12.77 23.29 16.47 12.27-.12l.53.83-4.8-9.45c1.95.5 4.12 5.86 8.58 9.77-8.24-13.78 4.73-1.03-.43-10.48 19.49 20.14 3.35-5.47 16.73 6.6l-4.39-4.92c-3.74-5.3 3 2.4 4.32 3.25-3.37-3.85-4.34-4.07-6.38-7.04-1.3-9.34 14.23.5 22.05 1.63 2.6.1-21.33-26.6-9.28-16.21l7.43 9.73c-6.62-13.65 6.3-4.72 1.07-16.63 1.67 2.29 4.05 5.08 3.74 5.29 6.38 6.23 2.51-1.58-2.2-7.1 1 .24 4.38 4.89 7.05 7.46 4.01 3.46-5.86-9.93.21-3.48 1 1.04 1.71 2.34 2.04 2.95-2.4-3.6 2.56-.74-4.49-8.2 4.26 2.79-.9-5.23 3.9-1.35-6.9-9.19 5.42 2.62-4.94-9.85 10.81 12.8 10.66 8.65 6.22 2.09 3.07 4.04 4 3.48 8.3 9.03.62-.84-.7-3.8-6.42-10.23 14.45 14-7.62-14.71 9.88 4.12-3.55-8.81-5.38-15.26-5.86-20.02 10.78 12.76-1.2 3.23 10.28 16.48-2.5-6.91-10.7-18.78-6.12-17.38 1.98 1.3 4.41 5.75 6.1 8.07-2.5-6.91 4.78-2.1.62-10.5 1 1.19 1.92 2.64 2.57 3.76-.01-.72 2.39 1.17-2.58-4.56l1 1.85c-7.7-7.9-13.59-18.66-17.31-23.13 13.56 17.03 5.28 2.68 22.22 24.36-.7-1.28-2.76-4.25-6.11-8.07 1.3.84 3.33 3 6.74 7.68-1.45-4.2-7.13-9.95-5.9-10.78 2.38 2.8 3.08 4.07 5.77 7.45-4.1-5.93-8.18-11.86-5.22-10.3 1.38 1.73 3.37 3.82 3.05 4.02.9-2.23-9.64-16.86-3.37-13.13 9.86 12.59 4.03 3.48 13.1 13.9l-1.72-3.94-4.74-4.77c1-.54-4.82-8.83-1.15-6l3.08 4.86-.14-3.34-4.3-3.22c-3.78-6.14-11.45-13.21-7.83-11.24.68 1.26.94-.59 6.68 5.23l.02.03c-2.45-3.7-5.04-7.6-2.19-5.51 3.04 3.22 9.81 11.73 11.82 13.87-7.1-9.13-.11-4.1-7.6-13.9 1.7 2.34 6.41 7.86 7.43 8.93l-5.75-7.42c2.34 1.95 3.34 3 7.03 7.45 2.29.31-11.76-13-5.47-8.45.39.67 1.35 1.7 2.05 2.97 3.95 1.8-1.18-6.82 3.1-4.4 9.42 10.24 1.1 3.54 9.15 12.09.2-3.5-7.02-15.94-3.1-14.97l-1.33-.89c-12.52-15.13 7.63 6.24 2.51-1.57a94 94 0 0 0 5.44 6.82c3.27 1.35-.64-5.8-2.8-12.09l3.05 4.04c3.64 2.8 3.58.35 5.85 1.43-3.04-4.02-2.07-3.79-7.1-9.13 21.07 19.78-5.44-15.61 12.24.76-.22.26 2.26 3.87 2.47 3.7l-1.2-5.07c-5.7-6.39-3.6-3.74-8.31-8.47-3.07-4.05-5.12-7.48-4.67-7.86 2.87 5 8.94 10.43 12.4 13.76-1.77-1.94-3.53-4.24-5.29-6.24 10.84 10.75-11.03-13.22-3.07-6.54l2.85 3.48c-1.01-2.16-4.43-7.06-3.07-6.53 6.65 7.34 2.49 3.95 7.75 10.17.36-1.06-10.74-15.48-3.67-8.55 1.48 2.36 1.06 2.78 2.53 5.12 8.28 8.21 6.44 5.9 8.18 6.84l-.22-.15 4.66 2.94-2.37-2.13c-15.85-20.4-1.2-5.18-10.95-19.08 9.2 13.19 5.82 7.2 13.02 15.8 2.34 2.1 5.09 4.34 7 6.86-5.3-7.38 5.6 4.58-2.17-6.18 2.38 2.7.86-.26 6.62 6.74-1.09-2.8-4.27-4.62-7.15-8.12-6.85-10.38 12.48 9.02 3.15-5.29-3.07-6.52-10.72-16.01-13.31-21.77 4.2 4 8.18 10.31 8.18 10.31 4.18 3.42 4.1 2.2 2.1-1.53 1.91 2.51 3.79 4.42 6.63 7.31-.06-1.18-8.17-10.3-3.98-6.88 2.49 3.16 6.52 8.2 8.87 11.5-1.5-3.09-5.24-8.76-6.68-11.82 4.27 4.63 5.8 7.6 8.23 10.93-1.08-2.8-1.74-6.02-7.97-13.78l-2.8-2.29c-.04-.6 5.7 6.38 6.68 7.94 4.42 6.49-3.19-1.83-5.58-4.55l-1.02-2.17c-14.27-15.67.27 4.24-1.5 4.13l-9.6-12.05 7.3 10.57c-2.81-2.87-8.55-9.28-9.57-11.44-5.64-5.2 2.95 4.69-3.16-1.25a13.04 13.04 0 0 1-1.72-2.06l2.3 4.07c-1.96-2.57-7.18-8.17-5.31-6.83-7-5.71 5.54 10.46-2.5 1.98l-.52-.8c1.7 5.4 7.19 8.73 14.55 19.9l-18.99-20.47 7.18 8.73c-.44-.16-1.33-.5-4.2-4 4.37 6.44 3.3 3.65 7.67 9.52-7.53-7.1.82 5.64-11.08-7.89 5.28 6.8 5.11 4.36 8.1 9.67-12.85-14.5 1.12 3.4-5.42-2.7-6.26-7.8-2.1-4.4-8.67-10.52 10.53 13.24-3.9-1.53-2.44 1.48 8.71 10.25 2.24 5.47 4.06 9.8-2.86-3.5-6.84-3.86-11.01-6.7l-1.44-1.74c8.64 10.5 5.93 9.44 7 12.23-5.26-6.22-7.2-8.77-9.16-11.89l-.68.66c2.67 3.46 3.94 5.4 4.49 6.97l-6.43-7.88c-.59 1.24 5.87 10.73.23 6.62 6.1 7.27 18.13 19.23 20.96 25.15-3.38-3.85-9.13-10.48-10.15-12.36.32.6 2.37 3.57.72 2.1l-5.08-7c-3.02-2.4 4.39 5.73 3.42 5.5-4.74-5.57-3.72-3.68-7.43-8.15-.34-.63 2.35 1.96.66-.36-1.35-.57-4.78-3.35-8.58-7.38 2.75 3.12 6.4 7.48 6.65 8.52-.6 1.21-6.04-6.4-9.04-8.8 3.07 4.06-.95.58 6.14 8.9-.32.2-3.68-3.63-5.72-5.8 2.65 4.1-1.4 3.02 6.72 11.38l.62.48c.13.19.1.22.23.43 5.46 9.64-7.37-1.84-5.93 3.08l-2.37-2.78c1.76 3.99-.51 3.7 3.92 10.25-.3.23-5.01-4.5-7.72-7.92 1.06 2.72 3.65 5.9-1.33 2.22-3.41-5.47-3.92-4.07-2.28-4.2-3-1.58-7.02-5.85-1.55 2.62-5.74-7.42-8.37-8.35-7.01-5.85l5.02 4.54c.39 1.47-.6 1.21-1.57 1l-7.76-9.58c-11.68-9.73 13.08 22.37-4.7 4.57 5.09 6.99 5 3.7 11.09 11.76-1.98-.5-14.4-13.14-14.7-12.93-5.66-4.14 10.56 14.65 6.25 12.2 3.01 3.2 10.8 11.98 12.53 15.94-1.95-.47-13.08-13.07-14.8-16.23-.04-.46.98.51 1.93 1.65-.75-1.47-1.6-3.22-5.04-6.54l2.74 3.44c-3.36-3.03-4.28-1.62-8.68-7.35a18.68 18.68 0 0 0 6.38 7.04c-5.28-3.86-1.91 1.38-5.87-.86 1.76 1.68 5.29 5.45 5.07 5.58-5.26-2.66 4.66 6.98 4.74 9.45-5.02-4.52-10.16-12.36-7.69-7.08-3.66-2.84-7.73-8.73-9.77-11.7 4.44 7.36-5.62-2.52-7.25-3.17l-1.74-3.18c1.04 1.89.72 2.08.42 2.3l6.04 6.4c-1.33-.88-1.64-.66-4-3.44 3.4 4.66 9.76 10.88 14.2 17.44-3.35-3.01 1.76 4.8-5.97-3.93 3.97 1.82-7.77-8.77-7.81-11.21.67 1.25.36 1.45-.98.56-.9-.95-1.52-1.88-1.86-2.46-8.11-6.78 7.96 10.54 6.4 11.52-4.1-5.15-8.42-9.2-7.74-7.94.65-.38 7.4 8.1 10.16 12.36-4.21-3.13 1.5 3.72.66 3.66l2.09 1.38c4.1 5.14 3.09 4.87 3.82 6.97-3.38-3.84-1.73-3.16-3.42-4.68 6.83 9.37-9.32-7.76-5.22-1.03-3.34-3.01-8.06-9.35-10.42-11.31 4.47 7.4-7-5.85-3.56.46 6.07 6.44 4.72 4.75 9.53 11.97l-2.2-6.3 7.17 10.77c.64-.38-2.44-5.23-1.12-4.37 4.12 5.96 2.75 4.24 7.78 9.58-9.38-9.41 3.5 7.17-3.2 1.12l-14.2-16.65c-7.65-6.27 4.95 10.55-.36 7.85l3.03 2.41c5.42 6.8-.28 1.83 1.46 4.99-4.7-5.6-6.78-7.32-9.98-10.57 3.56 4.1-1.58.7 7.75 11.93l-7.03-6.66c-3.95-1.8 11.95 17.19 9 16.44-4.77-6.38-8.74-9.8-11.54-14.88-.5.32-1.76-.35 1.52 3.5-3.23-3.25 5.16 8.55.24 3.63 1.9 2.6 6.81 8.47 5.92 8.44-1.02-1.08-2.35-2.76-2.35-2.76 2.35 2.76 2.41 4.42 8.1 10.19-16.2-16.16-2.77 4.55-16.7-9.3.62 2.69.98 5.48.44 6.64-1.37-1.7-2.37-2.77-1.7-2.33-5.65-4.13 12.88 16.58 6.56 12-8.39-8.36-3.42-5.48-6.77-8.5-15.83-18.12.46 3.93-9.6-5.94l-.7-1.27c-6.02-5.6 4.18 8.41 1.9 8.1 0 0-1.33-1.66-2.36-2.76 7.17 10 8.3 14.38 9.4 17.93-5.77-7.44-2.73-4.22-9.16-11.3.37 1.46 10.13 11.54 10.86 14.44-3.68-3.64-7.33-6.44-14.06-14.11l.6-1.23c-9.08-9.62-.94 1.39-2.93.07l-3.69-4.44c-.24 2.67 9.2 13.74 6.96 14.29l3 3.18c8.51 11.68-5.98-5.54.13 3.32l-9.76-10.88c1.73 3.16 7.21 12.42 7.99 15.37-6.47-8.72-8.9-13.95-12.35-19.46-.62.4-1.2 2.44 3.2 8.17-.69-1.27-2.73-4.23-1.05-2.7 6.79 9.3 9.56 14.37 8.28 15.13-18.22-21.7-7.54-2.94-22.66-18.98 4.85 9.65-6.8-.05-8 3.19 15.13 16.05-.27 1.04 14.58 18.12.4 1.56-.04 1.45-1.03.38l-10.41-8.89c-4.67-4.68-2.74-4.23-6.09-8.05-2.3-.31-6.73-6.87-11.41-10.78 5.42 6.02 7.13 9.16 4.46 7.38l7.72 7.14c6.2 10.55-13.76-13.24-7.65-2.76l-4.11-5.86c1.88 3.92-3.22 2.56 7.78 17.1-1.85-1.87-6.07-6.4-6.76-7.96-3.8-.35 8.08 18.55-.77 11.38l-3.44-4.33c.66 1.53 6.1 8.46 2 4.63-1.46-1.76-3.43-4.33-3.82-4.43 1.04 1.62 5.3 8.23 2.7 6.2l-3.61-5.1c-6.69-3.82 6.83 14.12 7.65 18.42-10.6-12.39-15.59-15.09-18.08-16.43l-1.47-1.78c-3.6.44 4.88 13.6 6.92 20.28-12.82-12.31-9.3-1.8-17.86-7.53 2.25 1.97 8.2 9.7 8.9 11.26-2.66-2.09 5.97 9.77-3.67-1.66l.36.07c-9.9-10.82-8.4-6.99-9.45-6.6l12.58 14.97c-20.57-19.83 1.32 12.62-16.38-5.77 2.68 4.15 2.01 4.64 4.7 8.78l-6.8-7.99c-3.13-.84-4.69-1.24-4.79 2.13l-4.52-6c-1.42.32 18.42 24.03 17.93 25.27l-10.45-11.66c-1.54 1.63-12.19-7.34-4.64 4.88-1.46-1.76-4.35-5.24-4.49-5.96-1.06.37-9.98-5.4 4.28 10.67-9.11-10.61-2.64.46.44 5.93l-6.56-7.96c7.8 10.68 10.12 13.44 11.4 17.14-1.12-.8-5.59-6.09-3.53-4.37-4.37-3.38 5.69 8 1.08 4.7l-3.9-5.34c-1.4.15.97 2.78 5.48 9.03 2.14 3.62-3.35-.55-9.55-7.53 3.58 4.42 8.04 10.62 5.78 9.01a44.67 44.67 0 0 1-4.2-5.33c-6.03-4.08 5.62 10.98-1.98 4.14a68.06 68.06 0 0 0-4.17-4.53c1.32-.81 2.63-1.18 3.03-.53-6.18-7.23-8.2-7.7-16-18.32 3.9 6.1 12.74 19.04 8.92 16.43a87.78 87.78 0 0 1-2.26-2.4l-.6-.89c-.83-.54-.45.3.42 1.66-1.31-.93-2.25-1.65-2.63-1.52-5.22-5.89-3.84-2.3-4.55-2.19 6.8 7.88 5.1 7.13 11.26 13.17a1.87 1.87 0 0 1-.69-1.62c-.13-.3-.14-.48-.5-.99l.56.73c.12-.5.37-1.02.72-1.53 3.07 4.33 5.57 8.04 1.3 4.1 4.1 5.29 8.3 10.74 10.26 13.32-10.08-10.48-16.42-15.38-22.41-22.03 2.36 5.66-.88 5.81 10.93 21.44 1.22 2.26-4.12-3.85-6.27-6.06-1.04-1.7-.56-1.7-2.26-3.95 2.44 4.51-1.15 3.55 7.53 14.1-5.03-3.8-7.6-10.05-7.55-7.15l-2.53-3.33c-16.97-14.22 18.15 30.36-3.15 11.7 1.33 1.12 1.95 1.63 3.49 3.34-11.55-6.4.3 15-15.91 3.07-3.55-2.16 2 4.56 5.72 10.12l-7.48-8.31 7.36 10.68c4.68 8.42-20.36-18.7-10.6-3.54l5.13 5.52c-1.59-.52.79 5.17-4.73-1.5.83 1.1 4.87 6.13 2.06 3.37l-3.82-4.43 4.89 9.01c-4.01-2.13-14.9-17.81-17.48-17.1.78 2.3 9.12 14.6 11.92 17.36.46-.02 3.07 2.17 6.9 6.6l1.36 2.86c11.1 13.2 22.09 27.02 31.45 34.86l-5.78-8.93 5.78 6.06-.56 1.17c5.62 5.54 1.42-.03-1.32-3.97a78.06 78.06 0 0 0 6.44 6.62l-9.65-13.42c4.51 5.03 8.23 10.58 11.35 12.8-4.47-6.22-10.3-11.08-12.75-15.6 5.6 5.52 9.6 10.5 5.86 4.9 2.97 3.3 4.68 5.56 5.71 7.25-2.92-4.5-.05-2.93-5.73-10.13 6.82 6.9.18-3.45 10.73 9-2.37-3.12-7.38-10.55-7.33-11.49 11.8 15.62 2.59-.7 15.96 15.42-10.75-13.92-2.67-7.98-7.82-16.4.84 1.12 2.55 3.38 1.86 2.79 1.61.54 5.25 4.4 7.83 6.55-9.35-11.1-10.47-14.5-15.73-21.77 9.9 9.93 10.57 13.36 19.57 23.36-7.68-8.9-6.22-10.13-12.86-17.33 6.25 6.05 3.27 2.74 11.4 11.6-11.68-13.88-1.41-2.83-8.14-11.74 6.71 6.03 11.28 12.72 8.68 7.68 4.08 3.82 7.38 9.46 7.38 9.46Zm3.1-43.94.14.16c-.05.35-.09.66-.1.86 0-.2.01-.47-.03-1.02Zm1.87-1.81c-.5-.1-.85.1-1.12.42-2.4-2.67-4.73-5.55-4.41-5.57 1.45 1.91 3.27 3.1 5.53 5.15Zm-51.06-51.24c-.64-1.39.8.08 2.22 1.66-.03.26.03.68.27 1.42l.79 1a152.5 152.5 0 0 1-3.28-4.08Z" fill="url(#uuid-0952227c-adad-485b-ae61-a193db526585)" stroke-width="0"/><path class="uuid-8db00b93-467c-4052-a720-6df3e20bc98a" d="M1008.82 853.83c-4.9 17.7-9.7 37.3-14.4 58.9-11.7 53.3-89.8 63-89.8 0 0-82.6 13.2-227 34.3-255 15.6 28.6 13.1 103.4 12.4 126.5-.7 23-13.6 85.8 57.5 69.6Z"/><path class="uuid-cdd9eb95-4594-4d57-a00f-240e5fb35cd9" d="M1066.72 722.13c-19.2 20.4-38.8 61.6-57.9 131.7-71.1 16.2-58.2-46.6-57.5-69.6.7-23.1 3.2-97.9-12.4-126.5 12.4-16.4 49.4-77.3 55.5-84.6 6.5-7.7 14.7-16.2 24.2-24.8 16.7 5.7 41.7 5 43.3 39.9 1.7 36.4-22.4 83.7 4.8 133.9Z"/><path class="uuid-37d96fc8-4dfc-4b8c-b4ef-38d9d695795a" d="M1298.52 686.03c-51.9-26.3-150 40.2-135.2 80.9-26.8-50.1-61-82.7-96.6-44.8-27.2-50.2-3.1-97.5-4.8-133.9-1.6-34.9-26.6-34.2-43.3-39.9 16.9-15.4 38-31.4 60.9-45.2 4.6 49.3 76.7 231 216.7 107.9 1.3 20.2 2 46.3 2.3 75Z"/><path class="uuid-cdd9eb95-4594-4d57-a00f-240e5fb35cd9" d="M1296.22 611.03c-140 123.1-212.1-58.6-216.7-107.9 88.3-52.9 204.4-72.7 216.6 106.6 0 .4.1.9.1 1.3Z"/><path class="uuid-8db00b93-467c-4052-a720-6df3e20bc98a" d="M1296.12 930.43c0 37.4-74.7 55.1-78.7 0-1.6-22.6-22.8-104.8-54-163.3q0-.1-.1-.2c-14.8-40.7 83.3-107.2 135.2-80.9 1 94.3-2.4 215.8-2.4 244.4Z"/><path class="uuid-ab6a5ad7-981b-4a75-85a9-cad1cb9004ff" d="M938.93 657.68c17.05 29.95 15.88 93.17 14.79 128.11-2.12 29.04-6.86 67.18 32.45 69.68.57.03 4.17.11 4.7.13.76 0 2.1-.1 2.84-.1 5.04-.15 10.07-.9 15.1-1.67-7.4 2.01-14.98 3.5-22.7 3.58-21.88.11-34.25-12.15-37.44-33.38-2.43-15.35.15-30.68.33-46.04.74-25.31.97-50.67-.98-75.92-1.37-15.03-2.92-30.46-9.1-44.39Z"/><path class="uuid-37d96fc8-4dfc-4b8c-b4ef-38d9d695795a" d="M1023.37 543.28c8.38 2.12 16.81 3.42 24.44 7.97 23.83 14.6 19.54 49.9 15.64 73.4-4.16 24.75-8.3 48.89-3.63 73.53a139.63 139.63 0 0 0 6.92 23.99c-1.19-1.75-2.42-3.5-3.5-5.31-20.35-33.76-13.67-69.56-7.72-106.12 2.57-17.93 5.1-42.79-10.5-55.48-6.24-5.18-14.52-8.05-21.65-11.98ZM1079.2 502.1c.52 6.65 2.13 13.1 3.92 19.5 5.49 19 13.32 37.4 22.7 54.73 24.91 45.98 65.21 86.92 121.66 71.2 11.79-3.1 23.03-8.22 33.68-14.13 12.22-6.91 23.73-15.03 35-23.7a205.59 205.59 0 0 1-30.22 26.59 140.9 140.9 0 0 1-31.34 17.08c-62.12 23.82-110.63-19.71-135.77-73.49-10.28-21.97-20.93-53.53-19.63-77.78Z"/><path class="uuid-8db00b93-467c-4052-a720-6df3e20bc98a" d="M1163.44 767.14c-7.08-15.08 2.09-31.96 11.58-43.73 24.07-28.55 66.83-50.52 104.7-44.74 7.77 1.4 15.37 4.2 21.58 8.87-14-6.43-29.57-6.38-44.3-3.35-29.13 6.39-56.72 21.8-77.56 43.1-9.87 10.58-19.73 24.64-16 39.85Z"/><path class="uuid-ab6a5ad7-981b-4a75-85a9-cad1cb9004ff" d="M938.93 657.68c-3.96 5.64-6.27 12.42-8.41 18.9-3.49 11-5.92 22.3-8.1 33.63-6.77 36.3-10.55 73.1-13.4 109.88-2.27 31.05-3.82 62.19-3.75 93.32l.14 3.43c.03.57.03 1.14.09 1.71l.21 1.7.44 3.4c6.02 35.52 43.75 40.37 68.78 19.8a55.9 55.9 0 0 0 15.87-21.83c3.23-8.54 4.5-17.82 6.75-26.7 12.48-51.77 34.24-141.34 72.9-177.98 73.2-65.1 135.51 144.93 145.1 193.76a201.95 201.95 0 0 1 3.64 24c1.45 9.9 6.36 19.65 15.24 24.74 21.6 12.98 60.09-2 60.55-29.05 1.06-82.87 3.57-168.18 2.47-250.95-.3-25.2-.82-50.87-2.75-76.03-6.53-84.56-42.67-155.18-139.53-133.05-58.14 13.93-122.64 56.89-160.72 102.8 5.74-7.24 12-14.05 18.6-20.51 46.6-45.3 129.77-98.09 197.05-85.68 65.34 12.45 83.32 85.97 87.03 143.2 5.22 96.21 1.87 194.42.59 290.82-.26 10.4-.2 20.82-.49 31.2l-.11 1.8-.33 1.78-.34 1.77c-5.76 20.47-29.84 31.34-49.82 28.64-15.18-2.03-26.14-12.76-29.2-27.62-.8-3.25-1.12-7.11-1.45-10.42a192.56 192.56 0 0 0-2.88-16.94c-8.85-46.36-70.77-255.8-141.17-192.62-38 35.9-60.11 125.67-72.6 176.76-2.3 9-3.57 18.18-6.91 26.93a57.6 57.6 0 0 1-16.44 22.46c-25.87 21.15-65.03 15.97-71.2-20.85-.2-1.25-.46-4.02-.64-5.21-.06-.58-.05-1.17-.08-1.75l-.14-3.5c0-31.17 1.75-62.33 4.2-93.4 3.04-36.8 7.03-73.59 14-109.87 2.24-11.31 4.74-22.61 8.29-33.6 2.2-6.47 4.53-13.25 8.52-18.87Z"/><path class="uuid-cdd9eb95-4594-4d57-a00f-240e5fb35cd9" d="M994.72 620.23c7.9-41.3-11.5-68.6-34.4-84.1 17.6-15.8 33-3 44.9-32.3 1.1-2.8 2.2-5.9 3.2-9.4 2.1 9.5 3.1 19 3 28.1v.2c8.1 32.7 2.6 68.1-16.7 97.5Z"/><path class="uuid-37d96fc8-4dfc-4b8c-b4ef-38d9d695795a" d="M1008.42 494.43c-1 3.5-2.1 6.6-3.2 9.4-11.9 29.3-27.3 16.5-44.9 32.3-22.9-15.4-38.3 59.8-69.2 58.9-30.9-.8-26.4-44.9-56.1-42.9-29.3 2-50-24.8-61.8-38.5 5-15.5 13.3-30.2 24.7-43.3 17.8-20.3 40.8-33.3 65.2-38.9-5.2 23.9 1.1 40.6 13.6 50.7 24.6 20.2 73.7 14.5 107-12.5 4.6-3.7 8.9-7.7 12.7-12.2 5.2 12 9.4 24.6 12 37Z"/><path class="uuid-8db00b93-467c-4052-a720-6df3e20bc98a" d="M994.72 620.23v.1c-3.1 4.7-6.6 9.3-10.4 13.6-45.2 51.4-123.5 56.6-175 11.4a123.8 123.8 0 0 1-36.1-131.7c11.8 13.7 32.5 40.5 61.8 38.5 29.7-2 25.2 42.1 56.1 42.9 30.9.9 46.3-74.3 69.2-58.9 22.9 15.5 42.3 42.8 34.4 84.1Z"/><path class="uuid-cdd9eb95-4594-4d57-a00f-240e5fb35cd9" d="M912.02 429.93c-9.6 19.4-22.2 38.9-35.3 52.2-12.5-10.1-18.8-26.8-13.6-50.7 16-3.8 32.7-4.3 48.9-1.5Z"/><path class="uuid-7c2431c0-3cad-441a-8d0a-d35a8676fb79" d="M996.42 457.43a91.6 91.6 0 0 1-12.7 12.2c-33.3 27-82.4 32.7-107 12.5 13.1-13.3 25.7-32.8 35.3-52.2 8.6-17.1 15-34.1 17.4-46.5 4.2-21 44.6 21.4 67 74Z"/><path class="uuid-8db00b93-467c-4052-a720-6df3e20bc98a" d="M772.8 513.17c16.72 17.23 36.6 38.09 62.65 35.3 1.55-.1 3.08-.13 4.63 0 6.32.39 12.5 3.82 16.67 8.26 11.5 11.64 15.69 33.19 34.49 33.4 27.99.12 43.58-79.45 73.26-56.06 14.36 10.48 25.8 25.5 30.5 42.74 4.03 14.24 3.43 29.35-.32 43.47.26-3.18.71-7.63.66-10.77.06-.94.04-3.11.08-4.02-.04-.61-.32-5.86-.38-6.66A76.51 76.51 0 0 0 966 545.38a97.1 97.1 0 0 0-6.27-4.57c-.59-.35-1.52-1.09-2.06-1.35-5.17-3.12-9.25 1.47-12.86 5.5-13.28 16.2-22.02 40.95-41 51.85-7.5 4.28-17.32 4.06-25.22.26-10.96-5.03-16.91-17.29-22.26-26.47-3.3-5.48-6.95-11.03-12.8-13.49a20.85 20.85 0 0 0-8.34-1.35c-27.85 1.14-47.72-21.87-62.39-42.59Z"/><path class="uuid-37d96fc8-4dfc-4b8c-b4ef-38d9d695795a" d="M1008.81 493.25c-2.32 11.17-6.4 23.65-16.66 30-4.48 2.8-11.55 4.18-16.58 5.53a43.84 43.84 0 0 0-15.25 7.38c3.93-4.3 9.15-7.4 14.66-9.24 5.5-1.94 11.2-2.94 15.88-5.81 9.72-5.96 13.8-17.66 17.95-27.86ZM863.15 431.34c-7.94 49.29 29.5 66.77 72.64 58.4a117.87 117.87 0 0 0 60.7-32.43c-19.48 25.38-51.76 40.08-83.74 39.36-38.27-1.34-60.62-27.5-49.6-65.33Z"/><circle class="uuid-a305aeed-47c4-4069-8f9e-565f494f7d48" cx="891.09" cy="552.13" r="123.99"/><path class="uuid-ab6a5ad7-981b-4a75-85a9-cad1cb9004ff" d="M868.44 489.66c18.34-17.4 30.77-39.7 41.58-62.24a312.4 312.4 0 0 0 7.39-17.2c2.8-7.02 5.34-14.76 7.23-22.07.15-.6 1.12-5.03 1.27-5.61.8-4.47 4.01-8.34 8.86-8.32 4.4.1 7.47 2 10.8 4.1a66.25 66.25 0 0 1 7.8 6.36c18.55 18.24 31.8 40.48 42.43 63.92 10.13 23.2 17.48 48.69 15.64 74.17-1.35-25.24-9.93-49.22-20.94-71.69-8.35-16.7-18.2-32.75-29.88-47.32-5.76-7.07-11.88-14.03-19.23-19.26-2.03-1.33-4.73-3.03-6.95-2.85-.31.08-.37.13-.66.45-.57.83-.78 2.12-1.03 3.09l-1.14 4.77a203.8 203.8 0 0 1-12.07 31.48c-8.29 17.22-18.2 33.82-30.43 48.53-.8.9-3.8 4.48-4.7 5.41l-5 5.14-3.52 3.21-1.78 1.6c-1.66 1.36-4.06 3.07-5.67 4.33Z"/><path class="uuid-2edf61fe-b1ca-4441-a764-ff338ee719c0" d="M810.82 595.06c22.73 17.8 53.18 13.58 80.25 14.92-24.04 8.1-62.06 3.5-80.26-14.92ZM816.18 609.48c23.47 15.48 51.3 19.84 77.53 28.52-26.46.66-57.16-12.37-77.53-28.52ZM817.6 586.37c26.53 14.35 57.16-.63 84.66-4.61-18.16 11.08-42.75 14.34-64.33 12.46-6.7-1.14-16.4-2.7-20.32-7.85Z"/><path class="uuid-7c2431c0-3cad-441a-8d0a-d35a8676fb79" d="M771.45 584.68c-5.58-16.35-3.85-21.16-4.28-29.05 7.7-11.99 36.4-7.1 4.28 29.05Z"/><path d="M810.66 550.16c0 14.73 12.93 26.67 28.89 26.67s28.9-26.67 28.9-26.67-12.94-26.67-28.9-26.67c-15.96 0-28.9 11.94-28.9 26.67Z" fill="url(#uuid-ddfa76b3-1da0-418d-a721-7c409f229502)" stroke-width="0"/><path class="uuid-ab6a5ad7-981b-4a75-85a9-cad1cb9004ff" d="M810.66 550.16c-.14 14.7 13.45 26.04 27.6 26.03 10.71.28 18.22-9.63 23.78-17.61a82.35 82.35 0 0 0 5.25-8.98v1.11a82.97 82.97 0 0 0-5.25-8.97c-5.56-7.98-13.07-17.88-23.78-17.6-14.14-.02-27.74 11.31-27.6 26.02Zm0 0c-.3-16.5 17.07-29.82 33-26.85 12.05 3.4 20.3 15.83 25.93 26.3l.28.55-.28.55c-5.64 10.47-13.89 22.88-25.92 26.29-15.94 2.97-33.3-10.34-33.01-26.84Z"/><path class="uuid-cdd9eb95-4594-4d57-a00f-240e5fb35cd9" d="M819.53 550.16c0 10.1 7.76 18.3 7.76 18.3s7.76-8.2 7.76-18.3c0-10.1-7.76-18.3-7.76-18.3s-7.76 8.2-7.76 18.3Z"/><ellipse class="uuid-2e87ec73-d5ce-429d-a0a9-816f63f00f94" cx="833.77" cy="543.27" rx="4.94" ry="2.59" transform="rotate(-30 833.77 543.27)"/></g><g id="uuid-a428802f-8d34-4dce-91b6-c59af12c505c"><path class="uuid-70e58689-16f3-43ed-924b-54cbd1295df5" d="M415.28 881.35c-4.7 51.93-15.62 107.12-37.94 118.99l-63.86.03c-11.2-9.14-21.56-22.59-30.67-36.12a666.4 666.4 0 0 1-14.03-22.01 416.91 416.91 0 0 1-22.36-41.26c.9.74 62.68 51.45 67.57 44.32 6.21-9-59.47-171.06-59.47-171.06s58.07 76.78 84.38 95.09c4.12 2.86 7.47 4.3 9.68 3.78 20.06-4.73 10.05-105.89 10.05-105.89s36.94 103.05 56.65 114.13ZM1308.46 999.95l-494.2.21c-17.36-14.27-32.68-38.86-44.44-57.92a415.83 415.83 0 0 1-22.37-41.26c.9.74 62.68 51.45 67.58 44.32 6.2-9-59.48-171.06-59.48-171.06s58.07 76.78 84.4 95.09c4.11 2.86 7.45 4.3 9.67 3.78 20.05-4.73 10.04-105.89 10.04-105.89s41.13 113.54 59.71 115.09c18.51 1.55 48.2-67.46 48.2-67.46s-15.46 77.97 9.64 81.39c24.74 3.37 15.11-46.48 14.84-47.88.72 1.51 28.5 59.32 46.08 59.32 27.65 0 31.66-35.52 31.66-35.52 3.02 23.98 36.2 68.73 46.6 70.08 10.3 1.34-2.2-42.98-2.47-43.96.6.72 22.73 27.83 37.11 27.83 11.17 0 14.1-54.29 14.1-54.29s10.73 57.92 20.8 57.92c13.55 0 40.73-28.32 41.15-28.76-.39.8-19.43 39.36.25 40.54 12.23.72 32.37-53.14 32.37-53.14 0 18.27 3.35 34.64 8.32 48.84 12.81 36.71 36.34 59.04 40.44 62.73Z"/><path class="uuid-70e58689-16f3-43ed-924b-54cbd1295df5" d="M769.82 942.24c11.76 19.06 27.08 43.65 44.44 57.92l-436.92.18c22.32-11.87 33.23-67.06 37.94-118.99a767.14 767.14 0 0 0 3.05-66.5c24.92 86.12 3.32 130.36 41.47 127.39 26.18-2.04 13.37-58.55 13.08-59.83.61 1.28 40.05 83.74 55.48 83.41 24.07-.49-2.09-41.91-2.66-42.81.85.78 43.18 39.59 56.3 39.59 13.05 0 33.91-32.2 34.5-33.11-.33.83-17.25 44.67 5.08 44.67 22.55 0 16.3-102.41 16.3-102.41s26.37 93.93 46.08 94.04c66.56.36 11.64-59.89 11.64-59.89l74.22 36.34ZM1680.92 999.79l-372.46.16c-4.1-3.69-27.63-26.02-40.44-62.73l78.8-32.02s-66.17 60.24 14.03 59.88c23.75-.11 55.53-94.03 55.53-94.03s-7.53 102.41 19.63 102.41c26.91 0 6.52-43.85 6.13-44.68.62.8 25.81 33.12 41.57 33.12s67-38.95 67.84-39.59c-.68.9-32.2 42.31-3.2 42.81 18.58.32 66.11-82.14 66.85-83.42-.35 1.28-15.79 57.8 15.75 59.84 45.97 2.97 19.94-41.28 49.97-127.39 0 56.77-1.13 179 0 185.64ZM313.48 1000.37l-312.56.13c.94-6.65 0-128.88 0-185.65 24.92 86.12 3.32 130.36 41.47 127.39 26.18-2.04 13.36-58.55 13.07-59.83.61 1.28 40.05 83.74 55.48 83.41 24.07-.49-2.09-41.91-2.66-42.81.85.78 43.2 39.59 56.3 39.59s33.92-32.2 34.5-33.11c-.32.83-17.25 44.67 5.1 44.67 22.53 0 16.28-102.41 16.28-102.41s31.28 93.87 62.35 92.5c9.11 13.53 19.47 26.98 30.67 36.12Z"/></g><g id="uuid-777df50e-1621-4e4d-b4ec-0636e33b7a14"><path class="uuid-2d9d572a-ef9f-4eba-85c7-c4d4dc65ad97" d="M814.52 1000.7c-15.75-12.77-27.33-29.77-38.37-46.56-11.04-16.9-21.31-34.3-29.98-52.59l-2.64-5.54a959.7 959.7 0 0 0 30.82 24.04c11.02 8.02 21.94 16.36 34.07 22.44 1.67.67 3.6 1.72 5.22 1.57a.6.6 0 0 0-.21.22c.04-.08.13-.7.1-1.25 0-.58-.07-1.22-.15-1.85-.53-3.97-1.6-7.89-2.67-11.78a542.85 542.85 0 0 0-10.13-31.24c-16.49-46.55-34.84-92.66-53.29-138.5l10.03 13.24c18.74 24.52 37.96 48.82 58.71 71.68 6.64 6.87 23.72 26.31 32.83 27.17 14.43-3.09 12.3-60.52 11.92-73.6a641.32 641.32 0 0 0-2.48-37.02c6.88 18.89 14.12 37.7 22.08 56.15 7.22 16.5 14.66 33.03 24.06 48.39 2.38 3.8 4.9 7.53 7.86 10.82 5.7 6.54 9.73 6.17 16.12.9 11.5-10.58 18.93-25.08 26.28-38.7 5.88-11.31 11.46-23.94 16.43-35.72l-2.18 12.16c-2.7 15.05-11.87 75.59 8.46 79.18 19.49 2.64 14.63-33.87 12.49-45.56l-2.98-15.72c9.24 18.93 18.98 38.71 31.51 55.65 4.68 6 9.6 12.5 16.4 15.83 2.23 1.05 4.38.82 6.7.57 4.9-.6 9.48-2.7 13.12-6.04 7.38-6.81 11.2-17.36 12.66-27.16l2.42-18.68 2.54 18.64c.7 5.1 2.52 10.23 4.65 15.18 7.84 17.25 18.67 33.54 31.96 47.04 2.34 2.17 4.62 4.32 7.36 5.42.14.05.53.14.62.12 1.1-2.16 1-5.82.82-8.58-1.17-14.64-5.8-29.95-9.7-44.14 7.76 9.6 16.56 20.24 26.15 28.01 5.05 3.92 10.47 8.19 16.86 8.6 5.08-1.56 8.04-20.63 8.9-25.84 2.39-13.88 2.98-31.54 4.03-45.69 2.6 14.82 6.05 32.6 9.8 47.03 1.88 6.57 6.6 25.39 12.1 28.5 2.37.07 4.7-.85 7.1-1.92 4.06-1.92 7.94-4.54 11.68-7.32 10.58-7.78 20.42-18 29.66-27.38-3.42 7.13-8.17 16.1-10.6 23.52-1.98 6.23-6.33 19.3-.4 24.05 1.25.88 3 1.32 4.56 1.32 1.1-.11 1.96-.65 3-1.4 4.29-3.46 7.21-8.3 10.14-13.09 8.1-13.87 14.3-28.95 20.1-43.92a154.56 154.56 0 0 0 27.87 95.1c5.98 8.57 12.62 16.78 20.32 23.86l-.33.38c-23.34-21.3-39.85-50.05-46.94-80.83a148.28 148.28 0 0 1-3.58-31.48l2.53.46c-5.65 14.44-16.51 42.5-28.03 52.26-4.31 3.9-11.8 2.14-14.55-2.86-5.28-10.17 2.5-28.39 6.95-38.16l3.24 2.27c-6.93 7.19-36 35.82-46.17 28.28-9.6-8.1-16.85-44.95-19.7-58.35l4.94-.32a302.1 302.1 0 0 1-2.69 26.46c-1.38 7.52-4.1 30.98-14.46 30.28-11.18-.84-21.98-11.35-29.61-18.79-3.15-3.2-6.12-6.46-9.01-9.96l4.65-2.42c1.5 5.44 2.82 10.84 3.97 16.35 1.2 6.91 5.67 25.22-.48 30.03-2.32 1.8-5.53.9-7.77-.46-15.27-10.01-32.66-37.59-39.96-54.42-2.2-5.23-4.15-10.64-4.94-16.56l4.96-.03c-2.15 13.8-8.32 28.75-21.7 35.03-5.4 2.28-12.1 3.78-17.63 1.39-11.3-5.48-20.7-20.66-27.31-31a326.76 326.76 0 0 1-15.56-28.6l4.1-1.36c1.11 6.14 1.77 12.2 1.99 18.4.23 11.42-.5 30.65-15.49 32.02-15.47 1.14-18.62-17.4-19.3-29.15-.92-18.35 1.47-36.6 4.8-54.6l2.7.84c-8 17.3-27.98 59.98-45.24 67.14-5.16 2.23-9.42-1.14-12.67-4.85-8.86-10.45-14.78-22.92-20.82-35.08-11.65-24.51-21.76-49.7-31.24-75.12l1.58-.36c1.92 20.6 3.04 41.26 2.64 61.96-.31 10.4-.85 20.82-3.33 31-1.64 5.66-3.87 13.52-10.74 14.54-5.03-.02-9.1-3.52-12.93-6.23-16.24-13.15-29.67-28.98-43.34-44.6a1170.79 1170.79 0 0 1-39-48.24l3.83-2.17c16.44 40.84 32.45 81.8 46.91 123.4 4.39 13.06 8.97 26.16 11.96 39.69 2.19 9.6.71 14.37-9.65 9.4-12.4-6.36-23.37-15.01-34.43-23.25a887.31 887.31 0 0 1-25.84-20.58l2.17-1.67a484.87 484.87 0 0 0 45.83 77.74c6.04 8 12.6 15.68 20.28 22.18l-.32.38Z"/><path class="uuid-a9ab493f-d34d-468d-a580-8015dcc2cb4f" d="M377.05 1000.5c36.3-20.38 40.44-145.32 40.41-185.65l-.02-6.15 1.74 5.9c7.6 25.55 11.92 51.97 14.32 78.48 1.6 11.94 1.44 35.41 9.97 43.71 4.2 4.1 10.5 4.5 16.09 4.08 9.79-.5 13.56-10.64 14.55-19.12 2.17-17.7-2.28-36.36-6.17-53.56 7.6 15.74 15.65 32.24 24.13 47.45 7.8 13.86 15.64 27.78 25.7 40.04 2.83 3.17 5.97 7.03 9.97 8.16 9.3.49 9.8-6.92 7.91-14.25-3.45-13.43-12.45-26.5-19.67-38.22 10.66 9.67 22.34 20.32 33.58 29.19 7.61 6 15.47 12.05 23.93 16.7 7.78 4.27 10.72 4.12 17.77-1.4 9.24-7.7 16.53-17.75 23.22-27.68l11.78-18.06c-4.1 11.16-10.84 27.45-12.78 39.05-.96 5.89-1.87 12.83.56 18.22 1.26 2.8 3.89 4.23 6.93 4.29 5.39.32 7.76-6.65 9.36-11.06 2.94-9.35 4-19.2 4.8-29 2.13-26.56.67-54.6-.85-81.23l5.97 20.7c6.89 23.42 14.55 46.88 25.04 68.95 3.52 7.02 7.31 14.44 12.72 20.03 1.95 1.83 3.82 3.43 6.37 3.38 8.51-.08 18.16-.56 25.15-5.64 6.34-4.69 5.97-13.18 3.54-20.1-4.94-14.38-15.32-26.65-25.27-37.92l8.64 4.41c16.72 8.5 47.91 24.47 64.27 33.17l9.11 4.88c-4.75-2.11-14.14-6.33-18.84-8.5-11.7-5.2-44.14-20.47-56.21-26.14l2.24-2.98c9.79 11.26 23.3 29.15 21.91 44.75-1.58 15.03-19.05 18.41-31.4 18.68-1.68 0-3.42.19-5.09-.08-7.3-1.7-11.77-9.13-15.5-14.81-14.43-25.19-23.02-53.12-31.42-80.75l4.83-.82c.73 13.44.97 26.82.72 40.26-.56 16.38-1.19 46.78-10.78 60.01-5.24 7.49-16.93 5.76-20.66-2.34-5.1-11.56.61-29.55 4.65-40.93l4.26 2.18a179.29 179.29 0 0 1-8.77 12.2c-6.28 7.67-16.33 20.37-26.66 21.83-4.17.37-8.28-1.8-11.74-3.6-8.83-4.91-16.68-11.02-24.52-17.25a487.87 487.87 0 0 1-22.58-19.4l3.21-2.7c3.44 5.6 6.44 11.32 8.96 17.38 2.75 7.22 7 18.1 1.26 25-2.58 2.77-6.24 3.54-9.8 3.5-2.3-.17-4.36-1.41-5.9-2.55a45.1 45.1 0 0 1-7.13-7.05c-17.95-22.87-30.66-49.13-43.58-75l3.3-1.15c.96 4.43 1.66 8.82 2.22 13.27 1.63 14.62 4 44.6-15.26 48.17a37.6 37.6 0 0 1-6.92.29c-14.42-.46-18.8-11.42-20.73-23.9-1.4-8.86-2-17.7-2.8-26.52-2.17-26.42-6.24-52.7-13.6-78.2l1.73-.24c-.25 32.54-2.36 65.08-7 97.3-3.89 24.44-12.16 75.8-35.17 88.34Z"/><path class="uuid-a305aeed-47c4-4069-8f9e-565f494f7d48" d="m.92 1000.5 1680-.71"/><path class="uuid-2d9d572a-ef9f-4eba-85c7-c4d4dc65ad97" d="M313.64 1000.5c-8.66-5.4-15.95-12.78-22.4-20.6-9.76-11.79-17.35-24.95-24.56-38.32a431.71 431.71 0 0 1-24.1-45.55 953.36 953.36 0 0 0 30.57 24.24c8.77 6.59 17.62 13.1 26.9 18.84 3.43 2.04 6.94 4.17 10.72 5.33.73.2 1.52.37 2.11.18.07-.04.04-.01.08-.1.5-2.3-.25-5.01-.65-7.37-3-13.35-7.55-26.3-11.93-39.28-14.45-41.49-30.44-82.47-46.71-123.29l-2.52-6.28a1319.34 1319.34 0 0 0 42.69 53.75c7.6 8.64 45.44 54.97 55.69 50.08 16.45-8.83 10.26-86.14 8.72-104.87l-.27-2.95 1 2.78c11.36 30.84 23.25 61.66 38.68 90.73 3.86 6.65 12.7 23.67 20.68 24.5-5.23-.62-9.19-6.52-12.2-10.41-9.4-13.54-16.32-28.6-23.17-43.54a972.73 972.73 0 0 1-24.7-61.02l.74-.17c2.1 24.83 6.25 78.46-3.62 100.13-5.37 10.82-12.46 5.92-19.76.4-16.07-13.14-29.46-29.04-42.99-44.65a1275.29 1275.29 0 0 1-38.85-48.27l1.57-.9c16.47 40.8 32.64 81.7 47.29 123.2 3.6 10.4 7.16 20.82 10.14 31.46a94.7 94.7 0 0 1 2.73 12.24c.15 1.65.4 2.97-.2 4.75-2.4 5.07-13.43-2.5-16.63-4.2-9.46-5.8-18.34-12.32-27.17-18.92a886.86 886.86 0 0 1-26-20.37l2.15-1.66a410.09 410.09 0 0 0 13.86 26.7c2.46 4.37 5 8.7 7.63 12.98 2.68 4.24 5.84 8.21 8.6 12.4 11.43 16.55 22.08 33.25 35.88 48.03Z"/><path class="uuid-a9ab493f-d34d-468d-a580-8015dcc2cb4f" d="M1680.92 999.8c-.42-3.26-.3-8.26-.45-11.6-.45-26.44-.38-54.86-.43-81.23-.01-30.94.04-61.88-.08-92.82l1.87.31a313.88 313.88 0 0 0-13.18 53.09c-2.22 13.54-3.36 27.22-4.97 40.86-2.53 20.84-6.4 35.98-31.1 34.73-30.09-.58-24.14-42.14-19.23-61.98l3.54 1.48c-13.93 23.58-28.29 46.85-45.94 67.92-5.47 6-14.91 17.44-23.84 16.63-22.71-1.49-10.63-26.22-3.26-37.7 1.85-2.94 3.75-5.78 5.88-8.6l3.24 3.25c-8.93 6.76-18 13.24-27.3 19.46-9.4 6.21-18.83 12.26-29.12 17.04-5.35 2.4-11.77 5-17.75 2.98-5.81-1.77-10.58-5.19-15.2-8.84-4.45-3.6-8.53-7.53-12.43-11.61-3.9-4.1-7.58-8.31-11.12-12.79l4.47-2.74c4.28 9.81 7.86 19.91 8.07 30.75.08 5.87-1.89 12.67-7.48 15.66-5.46 2.9-12.77 3.12-17.57-1.02-12.94-11.26-14.01-44.39-14.7-60.84-.35-13.8-.05-27.54.85-41.34l5.25 1.06a540.36 540.36 0 0 1-9.3 24.76c-6.67 16.37-13.8 32.55-23.02 47.73-3.54 5.71-7.41 11.38-12.24 16.2-3.54 3.4-7.6 6.63-12.9 7.02-6.84.06-13.48-.3-20.25-1.55-12.33-2.13-24.74-9.01-22.12-23.65 2.85-14.7 15.77-28.68 26.31-38.76l2.2 3.47-39.7 15.3c-10.94 4.1-28.93 10.85-39.9 14.79 4.86-2.24 14.55-6.53 19.43-8.67 17.86-8.02 51.16-22.07 69.26-29.84-11.9 11.15-24.9 23.35-31.27 38.65-8.64 21 13.72 24.52 29.41 25.08 1.95.08 4.4.1 6.33.06 5.77-.74 9.93-5.84 13.68-10.3 7.93-10.2 13.85-21.85 19.43-33.54 10.1-21.36 18.52-45.02 26.07-67.47-1.28 19.7-2.79 41.2-2.05 60.84.45 13.44 1.32 27.13 4.5 40.16 1.88 6.74 5.18 18.58 13.51 18.55 3.46.03 7.2-1.15 8.9-4 5.43-9.39-1.4-27.4-5.47-36.85l-8.76-19.56c6.65 8.2 16.7 21.85 23.97 29.25 7.34 7.47 15.25 15.73 25.24 19.25 4.94 1.63 9.72-.75 14.33-2.67 4.92-2.23 9.74-4.9 14.48-7.7 18.65-11.09 36.78-24.64 54.11-37.74-6.66 8.91-15.48 19.96-20.34 29.88-3.39 6.83-9.12 20.4 2.28 22.09 3 .6 5.6.35 8.32-1.45 5.47-3.42 10.12-8.51 14.43-13.4 20.43-24.23 36.94-52.07 52.91-79.42l-3.65 13.78c-4.27 16.6-11.22 55.84 13.96 57.82 7.83.51 17.23-.02 22.38-6.67 2.65-3.32 4.15-7.58 5.22-11.92 2.08-8.8 2.83-17.98 3.93-26.99 2.88-27.38 8.13-54.65 17.45-80.61l1.9-5.38-.02 5.7c-.23 56.7-1.3 117.24-1.28 174.05.01 3.28.03 8.33.31 11.6ZM.92 1000.5c.75-52.6-.79-132.35-.87-185.65L0 808.6l1.77 6c7.6 25.55 11.91 51.97 14.31 78.48.89 8.81 1.53 17.66 2.94 26.3 1.86 11.14 5.3 21.34 18.32 21.59 1.48.08 3.3.01 4.8-.1 9.79-.49 13.57-10.64 14.55-19.12 2.18-17.7-2.28-36.36-6.17-53.56 13.23 27.27 26.8 55.1 44.07 80 3.58 4.76 10.3 14.59 16.1 15.7 3.77.09 7.66-1.52 8.21-5.64 1.37-10.42-7.1-25.21-12.4-34.11l-7.94-12.78 11.15 10.09c10.92 9.82 22.21 19.4 34.14 28 3.97 2.82 8.03 5.55 12.22 7.82 2.59 1.34 5.1 2.62 7.81 3.02 1.48.18 2.8-.21 4.24-.81 4.1-1.86 7.75-5.2 11-8.43 11.09-11.04 21.08-27.86 29.73-40.93-5.06 14.79-18.22 42.24-12.23 57.27 1.27 2.8 3.89 4.22 6.93 4.28 11.03.57 13.42-31.73 14.17-40.05.52-6.6.8-13.23.95-19.87.53-18.73-.57-39.01-1.61-57.78 7.71 23.7 16.63 47.95 27.89 70.17 7 13.16 17.12 32 30.9 38.52 2.17.98 4.54 1.58 6.96 1.59a17.6 17.6 0 0 1-7.21-.94c-18.07-6.89-32.12-33.75-40.68-50.36-6.4-13.15-12-26.57-16.8-40.42l4.8-.93c1.03 20.15 1.26 40.28-.21 60.4a184.78 184.78 0 0 1-2.57 20.15c-1.46 6.91-2.92 13.74-7.28 19.72-1.74 2.35-4.78 4.6-8 4.74-3.1.12-6.09-.46-8.74-2.31-7.75-6.01-6.17-17.64-4.84-26a117.85 117.85 0 0 1 5.57-19.7l4.26 2.17c-7.05 10.45-14.6 20.63-24.4 28.69-8.36 6.56-13.54 6.96-22.76 1.75-17.33-10.05-32.22-23.42-47.1-36.65l3.2-2.7c5.09 8.44 9.63 17.18 12.1 26.78 1.13 4.89 1.95 11.3-1.87 15.59-2.59 2.78-6.24 3.55-9.81 3.51-2.3-.17-4.36-1.41-5.9-2.55-5.35-4.17-9.16-9.45-13.06-14.8-7.44-10.6-13.86-21.74-20.06-32.99a745.86 745.86 0 0 1-17.59-34.26l3.31-1.15c3.45 17.05 9.98 61.5-16.53 61.74-16.53.87-21.9-9.22-24.16-23.92-2.58-17.63-3.1-35.29-5.65-52.87A366.9 366.9 0 0 0 .08 815.1l1.72-.25c-.35 53.6.52 132.8-.88 185.65Z"/></g><g id="uuid-287aa7f1-764a-41ee-89fb-8560d1726355"><path class="uuid-2d9d572a-ef9f-4eba-85c7-c4d4dc65ad97" d="M39.56 543.5c7.04-.8 8.12-9.5 9.62-15.11 1.14-4.88 2.11-10.04 4.64-14.6 2.94-6 11.55-8.71 16.52-3.39 3.62 3.9 4.28 9.18 7.18 13.11 1.5 2.07 3.56 1.78 5.72 1.71 1.77 0 3.57.05 5.4.25 3.63.4 7.5 1.4 10.95 3.34 3.48 1.88 6.2 4.55 8.06 5.47 8.61 3.78 11.01-7.3 14.97-13.15 1.62-2.89 5.47-6.85 9.7-6.87 3.1 0 5.65-.8 8.21-2.94 3.4-2.8 6.52-7.03 11.37-8.4 5.96-1.82 13.46.97 16.35 6.44 1.95 3.3 2.57 6.65 3.88 9.7 1 2.1 1.62 3.04 3.72 3.7 1.77.45 3.73.63 5.15-.46 2.87-2.52 3.8-6.39 5.37-10.52 1.76-4.75 3.67-10.56 9.1-12.93 2.36-1.04 5.05-.7 7.43-1.64 5.96-2.04 9.6-7.3 15.9-10.42 6.56-3.3 17.34-2.15 22.86 2.85 8.89 8.13-.07 22.36 8.15 28.15 2.49 1.68 5.8 2.4 9.06 2.82-3.38.42-6.85.5-10.1-.88-3.52-1.31-5.84-5.07-6.6-8.58-2.24-8.95.24-18.35-12.17-18.3-6.22-.6-9.58 2.75-14.28 7.03-3.83 3.58-9.71 7.02-15.4 7.62-.65.13-1.07-.02-1.57.54-1.47 1.55-2.38 4.64-3.26 6.97-2.36 7.32-6.13 17.01-15.56 17.84-7.34.75-14.17-2.93-16.87-9.8-1.33-2.96-1.99-6.2-3.36-8.61-.98-1.7-2.3-2-4.04-2.07-.69-.01-1.12.12-1.94.6-2.23 1.48-4.44 4.17-6.9 6.1a21.9 21.9 0 0 1-13.82 5.1h-.08l-.13.07c-2.73 2.53-4.15 6.86-6.71 10.7-3.32 5.68-9.31 10.33-16.33 9.46a16.1 16.1 0 0 1-6.55-2.03c-3.31-1.9-5.16-4.18-8.02-5.91-3.4-2.16-7.91-2.98-12.09-3.19-2.09-.06-4.15-.1-6.16-.96-4.12-1.53-6.64-6.01-7.86-9.76-1.05-2.75-1.64-6-3.22-8.14-1.2-1.76-3.72-1.74-5.45-.82-8.86 5.1-8.29 30.45-20.84 29.9ZM1401.35 656.65c-7.36-4.46 6.33-26.62 3.37-33.88-1.25-2.72-4.66 1.58-6 2.9-1.79 1.94-3.56 4.05-6.12 6.01-2.5 2.05-6.53 3-9.45 1.06-.39-.2-.78-.43-1.16-.6-3.23-1.55-5.96-1.7-9.16-.56-1.9.62-4.3 1.75-6.68 1.9-6.08.48-10.12-4.68-9.97-10.24-.25-5.65 2.21-11.38 2.06-16.58 0 .1.37.57.57.66a12.1 12.1 0 0 1-4.4-4.9c-1.52-3.1-1.66-6.35-1.85-9.43-.1-1.5-.16-2.75-.55-3.58l.1.09c-.45-.2-.65-.28-1.17-.1-2.9 1.38-5.19 4.76-7.76 7.03-3.18 3.27-8.57 5.84-13.29 3.59-11.4-5.53-2.03-20.07-.79-28.54.07-.5.1-.96.08-1.25-.01-.3-.09-.37.02-.18.05.1.15.2.23.26-3.65-2.9-5.27-8-5.63-12.43-.53-3.71-.1-6.82-2.14-9.2-5.34-4.3-9.24-.62-12.83 4.13-4 4.88-8.82 13.68-16.46 11.35a11.9 11.9 0 0 1-3.6-2.03c2.3 1.06 5.1 1.7 7.41.56 2.25-1.1 3.74-3.22 5.1-5.3 3.04-4.8 4.86-9.98 9.54-13.97 5.55-4.87 15.74-1.9 18.24 4.83 1.1 2.68 1.41 5.94 1.86 8.67.6 3.56 1.21 5.85 3.68 7.73 4.48 4.6 1.29 11.3-.1 16.35-1.08 3.53-2.41 6.97-2.33 10.35.04.53.1.9.34 1.18.95.59 1.65.61 2.84-.02 4.7-2.98 7.19-8.45 12.88-10.61 3.37-1.3 7.79-.34 10.05 2.56 1.9 2.36 2.11 5.63 2.26 8.04.28 2.92-.04 6.16 2.33 7.96 6.36 4.17 1.9 13.59 1.3 19.24-.23 1.96-.72 4.56.33 5.98.68.57 1.5.5 2.47.25 6.96-2.4 12.57-3.3 19.52 1.44.87.63 1.44.21 2.76-.51 2.97-1.94 5.94-5.45 9.21-7.7 1.52-1.01 3.19-1.9 5.26-1.75 16 3.48-10.14 33.63-2.37 39.24ZM1569.94 692.64c1.85-2.2-4.29-9.56-5.67-11.73-2.68-3.68-5.42-7.31-7.92-11.25-1.4-2.48-4.94-7.41-1.4-9.85 4.42-2.3 12.37 8.3 16.73 9.63.3.1.36-.02.01.07-.09.05-.2.08-.24.13l.1-.09c3.99-3.88 9.4-2.1 13.26-.28.66.3 1.65.67 2.17.68.07 0-.26-.03-.48.22-.15.14-.25.33-.28.4-.03.09-.02.08-.02 0-.2-1.7-1.13-3.43-1.91-5.07-1.5-3-3.38-5.99-4.85-9.15-1.07-2.16-2.04-5.54.06-7.33.28-1.7-.74-4.02-1.3-5.9-.63-2.23-1.66-4.06-.89-6.93.41-1.44 2.03-2.73 3.58-2.96 5.96-.94 11.5 7.44 15.93 10.22.76.54 1.56.93 1.89.97.17.03.1 0 .03.04.02-.01-.15.06-.32.25-.17.18-.27.4-.3.5-.04.23.02 0-.06-.3-1.83-5.63-5.88-10.28-8.7-15.57-1.23-2.37-3.33-5.74-1.35-8.6.74-1.22.12-3.54-.22-5.14-.66-2.98-1.93-6.17-1.45-9.39.27-2.73 3.45-4.87 6.2-4.72 3.13.14 5.29 1.9 7.3 3.79 3.45 3.44 6.02 7.2 8.84 10.71 2.58 2.89 6.15 8.3 10.5 5.52-7.5 7.86-21.52-18.89-27.73-15.02-.06.07-.21.17-.26.23.08-.02.06-.05.04.22-.02.24.01.63.08 1.05.78 4.92 4.74 11.15 1.36 16.24.2-.25.3-.56.34-.84-.01-.27.01.13.16.48 2.17 4.97 5.81 9.4 8.43 14.31 1.33 2.72 2.97 5.22 2.26 8.6-.55 2.63-3.84 4.08-6.16 3.53-4.32-.99-6.9-4.09-9.82-6.59-2-1.77-3.68-3.56-5.75-4.49-.23-.08-.3-.04-.09-.06.1-.03.2-.06.3-.13.35-.2.64-.65.7-.87.1-.43 0-.13.09.2.98 4.6 4.79 10.89.44 15.08.34-.25.67-.95.68-1.25.02-.24 0-.19.02-.1.01.11.06.29.13.47 1.63 5.53 12.97 19.1 4.31 22.74-3.97 1.35-8.16-2.96-11.47-2.97-1.04-.07-2 .37-2.8 1.05-5.68 3.93-13.14-8.17-17.73-10.46a2.8 2.8 0 0 0-.36-.15c-.07-.02.02-.01.14-.1.23-.16.1-.27.1.04 0 6 16.9 26.12 13.35 29.92Z"/></g></svg>