<svg xmlns="http://www.w3.org/2000/svg" viewBox="0 0 1681.92 1000.75"><defs><style>.uuid-78311933-e716-4cd2-9d7d-a87399685864,.uuid-78702923-5772-4af5-8346-98586b4e035b,.uuid-d222dc6d-65fe-4b24-951d-64d5301096cd{stroke-width:0}.uuid-78702923-5772-4af5-8346-98586b4e035b{fill:#77a43c}.uuid-d222dc6d-65fe-4b24-951d-64d5301096cd{fill:#155b2c}.uuid-78311933-e716-4cd2-9d7d-a87399685864{fill:#006837}</style></defs><path stroke-width=".05" stroke="#ebebeb" stroke-miterlimit="10" fill="none" d="M.92.5h1680v999.29H.92z" id="uuid-985c7571-2881-4d1f-bb8a-f7d855e9e4df"/><g id="uuid-dda5f728-4d95-4ea0-90da-1c5b001a596c"><path class="uuid-78311933-e716-4cd2-9d7d-a87399685864" d="M1442.14 928.78c.4.83 20.78 44.68-6.13 44.68-27.16 0-19.63-102.41-19.63-102.41s-31.78 93.92-55.53 94.03c-80.2.36-14.03-59.88-14.03-59.88l-78.8 32.02a147.27 147.27 0 0 1-8.32-48.84s-20.14 53.86-32.37 53.14c-19.68-1.18-.64-39.74-.25-40.54-.42.44-27.6 28.76-41.15 28.76-10.07 0-20.8-57.92-20.8-57.92s-2.93 54.29-14.1 54.29c-14.38 0-36.52-27.11-37.1-27.83.26.98 12.75 45.3 2.46 43.96-10.4-1.35-43.58-46.1-46.6-70.08 0 0-4 35.52-31.66 35.52-17.58 0-45.36-57.81-46.08-59.32v-.03.03c.27 1.4 9.9 51.25-14.84 47.88-25.1-3.42-9.65-81.39-9.65-81.39s-29.68 69.01-48.19 67.46c-18.58-1.55-59.7-115.09-59.7-115.09s1.24 12.65 1.98 29.21c-1.26-15.78-32.57-40.92-55.09-44.78-11.4-1.96-15.45-10.05-19.05-17.83 26.14-1.24 35.86-27.67 74.17-27.67 24.17 0 14.34-29.98 50.83-29.15 23.54.53 10.53-45.2 25.4-45.2 21.7 0 15.5-37 44-37 44.63 0 10.77-36.12 41.27-36.12 25.04 0 20.45 21.39 45.03 17.32 30.97-5.13 14.4 56.22 48.48 51.32 43.18-6.2 38.12 26.45 55.74 22.96 17.97-3.57 22.27-24.97 37.56-27.13 13.15-1.86 14.7 55.02 29.21 54.12 13.12-.82 20.5 35.83 20.5 35.83 26.15-1.23 19.5 39.59 33.75 39.59 24.17 0 30.05 21.5 40.27 21.5 23.55 0 10.54-45.19 25.41-45.19 21.7 0 15.5-37 44-37 44.63 0 10.76-36.12 41.27-36.12 25.03 0 20.45 21.38 45.03 17.31 30.96-5.13 14.4 56.23 48.48 51.33 43.18-6.21 38.12 26.45 55.74 22.95 17.96-3.56 22.27-24.96 37.56-27.12 13.15-1.86 14.68 55.01 29.21 54.11 13.12-.81 20.5 37.29 20.5 37.29v2.4c-30.03 86.11-4 130.36-49.97 127.39-31.54-2.04-16.1-58.56-15.75-59.84-.74 1.28-48.27 83.74-66.85 83.42-29-.5 2.52-41.91 3.2-42.81-.85.64-52 39.59-67.84 39.59s-40.95-32.32-41.57-33.12Z"/><path class="uuid-78702923-5772-4af5-8346-98586b4e035b" d="M1680.92 595.81v215.94s-7.38-38.1-20.5-37.29c-14.53.9-16.06-55.97-29.2-54.11-15.3 2.16-19.6 23.56-37.57 27.12-17.62 3.5-12.56-29.16-55.74-22.95-34.08 4.9-17.52-56.46-48.48-51.33-24.58 4.07-20-17.31-45.03-17.31-30.5 0 3.36 36.12-41.27 36.12-28.5 0-22.3 37-44 37-14.87 0-1.86 45.19-25.4 45.19-10.23 0-16.1-21.5-40.28-21.5-14.26 0-7.6-40.82-33.75-39.59 0 0-7.38-36.65-20.5-35.83-14.52.9-16.06-55.98-29.2-54.12-15.3 2.16-19.6 23.56-37.57 27.13-17.62 3.49-12.56-29.16-55.74-22.96-34.08 4.9-17.5-56.45-48.48-51.32-24.58 4.07-19.99-17.32-45.03-17.32-30.5 0 3.36 36.12-41.27 36.12-28.5 0-22.3 37-44 37-14.87 0-1.86 45.73-25.4 45.2-36.49-.83-26.66 29.15-50.83 29.15-38.3 0-48.03 26.43-74.17 27.67-3.34-7.23-6.3-14.2-14.4-15.78-21.45-4.19-29 19.36-45.24 19.36-13.02 0-8.58-34.57-27.15-35.44-26.15-1.23-23.67 39.78-37.92 39.78-24.18 0-30.05 21.49-40.28 21.49-23.55 0-10.53-45.19-25.4-45.19-21.7 0-15.5-37-44-37-44.63 0-10.77-36.12-41.27-36.12.05-3.93 7.62-29.36 23.67-38.84 13.46-7.95 27.32 7.61 45.91-1.16 25.88-12.19 35.8 15.27 53.63 7.33 11.9-5.28 8.96-25.37 25.47-28.16 20.58-3.48 18.52-30.1 41.5-35.7 21.68-5.3 16.61-30.32 33.45-33.61 21.44-4.19 29 19.35 45.24 19.35 13.01 0 8.58-34.57 27.15-35.44 26.14-1.23 23.66 39.78 37.92 39.78 24.17 0 30.05 21.5 40.27 21.5 23.55 0 10.54-45.19 25.41-45.19 21.7 0 15.5-37 44-37 44.63 0 10.76-36.12 41.27-36.12.58 0 1.14.01 1.68.03 23.15.94 19.34 21.26 43.35 17.28 30.96-5.13 2.15-38.37 36.23-43.27 43.18-6.21 19.92-31.63 37.55-35.13 17.96-3.56 15.6 24.63 30.9 22.47 13.14-1.86 9.78 25.44 24.3 24.54 14.53.9 11.17-28.13 24.32-26.27 15.3 2.17 12.92-26.03 30.9-22.47 17.61 3.5-5.64 28.92 37.54 35.13 34.08 4.9 5.26 38.14 36.23 43.27 24.58 4.08 20-17.31 45.03-17.31 30.5 0-3.36 36.12 41.27 36.12 28.5 0 22.31 37 44 37 14.87 0 1.85 45.19 25.4 45.19 10.23 0 16.11-21.5 40.28-21.5 14.25 0 11.77-41 37.92-39.77 18.57.87 14.13 35.44 27.15 35.44 16.24 0 23.8-23.55 45.23-19.36 16.85 3.29 11.46 29.83 33.47 33.61 22.9 3.93 41.2 33.44 41.43 49.15Z"/><path d="M1680.92.5v595.31c-.23-15.71-18.53-45.22-41.43-49.15-22-3.78-16.62-30.32-33.47-33.61-21.44-4.19-28.99 19.36-45.23 19.36-13.02 0-8.58-34.57-27.15-35.44-26.15-1.23-23.67 39.77-37.92 39.77-24.17 0-30.05 21.5-40.28 21.5-23.55 0-10.53-45.19-25.4-45.19-21.69 0-15.5-37-44-37-44.63 0-10.77-36.12-41.27-36.12-25.04 0-20.45 21.39-45.03 17.31-30.97-5.13-2.15-38.37-36.23-43.27-43.18-6.21-19.93-31.63-37.55-35.13-17.97-3.56-15.6 24.64-30.89 22.47-13.15-1.86-9.79 27.17-24.32 26.27-14.52.9-11.16-26.4-24.3-24.54-15.3 2.16-12.94-26.03-30.9-22.47-17.63 3.5 5.63 28.92-37.55 35.13-34.08 4.9-5.27 38.14-36.23 43.27-24 3.98-20.2-16.34-43.35-17.28 0 0-7.54-38.53-20.66-37.71-14.52.9-16.06-55.98-29.2-54.12-15.3 2.17-19.6 23.56-37.57 27.13-17.62 3.5-12.56-29.16-55.73-22.95-34.09 4.9-17.52-56.46-48.49-51.33-24.58 4.07-19.99-17.32-45.03-17.32-30.5 0 3.36 36.13-41.27 36.13-28.5 0-22.3 37-43.99 37-14.88 0-1.86 45.19-25.4 45.19-10.24 0-16.1-21.5-40.29-21.5-14.25 0-7.6-40.82-33.74-39.59 0 0-12.47-34.16-43.68-32.35-14.53.84-17.29-18.36-35.58-15.91-25.78 3.45-23.38-16.5-41.34-12.94-17.63 3.5 8.56 22.47-34.62 28.68-34.08 4.9-8.76 25.84-39.73 30.97-24.58 4.08-19.99-17.31-45.03-17.31-30.5 0 3.36 36.12-41.27 36.12-28.5 0-22.3 37-43.99 37-14.88 0-1.86 45.19-25.4 45.19-10.24 0-16.12-21.5-40.29-21.5-14.25 0-11.77-41.01-37.92-39.78-18.57.88-14.13 35.45-27.15 35.45-16.24 0-23.79-23.55-45.23-19.36-16.85 3.29-11.46 29.83-33.47 33.61-22.9 3.93-41.2 33.44-41.43 49.15V.5h1680Z" fill="#f1f9e4" stroke-width="0"/><path class="uuid-78702923-5772-4af5-8346-98586b4e035b" d="M998.42 441.69c-.54-.02-1.1-.03-1.68-.03-30.5 0 3.36 36.12-41.27 36.12-28.5 0-22.3 37-44 37-14.87 0-1.86 45.19-25.4 45.19-10.23 0-16.1-21.5-40.28-21.5-14.26 0-11.78-41.01-37.92-39.78-18.57.87-14.14 35.44-27.15 35.44-16.25 0-23.8-23.54-45.24-19.35-16.84 3.29-11.77 28.31-33.46 33.61-22.97 5.6-20.9 32.22-41.49 35.7-16.5 2.79-13.58 22.88-25.47 28.16-17.83 7.94-27.75-19.52-53.63-7.33-18.59 8.77-32.45-6.79-45.9 1.16-16.06 9.48-23.63 34.91-23.68 38.84-25.04 0-20.45 21.39-45.03 17.32-30.97-5.14-14.4 56.22-48.49 51.32 0 0-3.58-36.38-16.69-35.57-14.53.91-16.07-55.97-29.22-54.11-15.29 2.16-19.59 23.56-37.55 27.12-17.63 3.5-12.57-29.16-55.74-22.95-34.08 4.9-17.52-56.46-48.48-51.33-24.58 4.08-20-17.31-45.03-17.31-30.5 0 3.35 36.12-41.27 36.12-28.5 0-22.3 37-44 37-14.87 0-1.86 45.19-25.4 45.19-10.24 0-16.1-21.5-40.29-21.5-14.25 0-7.59-40.82-33.74-39.59V479.64c.23-15.71 18.53-45.22 41.43-49.15 22.01-3.78 16.62-30.32 33.47-33.61 21.44-4.19 29 19.36 45.23 19.36 13.02 0 8.58-34.57 27.15-35.45 26.15-1.23 23.67 39.78 37.92 39.78 24.17 0 30.05 21.5 40.28 21.5 23.55 0 10.53-45.19 25.41-45.19 21.68 0 15.5-37 44-37 44.62 0 10.76-36.12 41.26-36.12 25.04 0 20.45 21.39 45.03 17.31 30.97-5.13 5.65-26.07 39.73-30.97 43.18-6.21 17-25.18 34.62-28.68 17.96-3.56 15.56 16.39 41.34 12.94 18.3-2.45 21.05 16.75 35.58 15.91 31.21-1.81 43.68 32.35 43.68 32.35 26.14-1.23 19.5 39.59 33.74 39.59 24.18 0 30.05 21.5 40.28 21.5 23.55 0 10.53-45.19 25.41-45.19 21.68 0 15.5-37 44-37 44.62 0 10.76-36.13 41.26-36.13 25.04 0 20.45 21.39 45.03 17.32 30.97-5.13 14.4 56.23 48.5 51.33 43.16-6.21 38.1 26.45 55.72 22.95 17.97-3.57 22.27-24.96 37.56-27.13 13.15-1.86 14.7 55.02 29.21 54.12 13.12-.82 20.66 37.71 20.66 37.71Z"/><path class="uuid-78311933-e716-4cd2-9d7d-a87399685864" d="M616.5 929.49c-.59.91-21.45 33.11-34.5 33.11-13.12 0-55.45-38.81-56.3-39.59.57.9 26.73 42.32 2.66 42.81-15.43.33-54.87-82.13-55.48-83.41.3 1.28 13.1 57.79-13.08 59.83-38.15 2.97-16.55-41.27-41.47-127.39 0 18.17-.84 41.97-3.05 66.5-19.7-11.08-56.65-114.13-56.65-114.13s10.01 101.16-10.05 105.89c-2.2.52-5.56-.92-9.68-3.78-16.15-11.24-44.27-44.51-63.58-68.53 0 0 7.4-38.11 20.51-37.29 14.52.9 16.06-55.98 29.21-54.12 15.3 2.16 19.6 23.56 37.56 27.12 17.62 3.5 12.56-29.15 55.73-22.95 34.1 4.9 17.52-56.46 48.5-51.32 24.57 4.07 19.98-17.32 45.02-17.32 30.5 0-3.36 36.12 41.27 36.12 28.5 0 22.3 37 44 37 14.87 0 1.85 45.19 25.4 45.19 10.23 0 16.1-21.49 40.28-21.49 14.25 0 11.77-41.01 37.92-39.78 18.57.87 14.13 35.44 27.15 35.44 16.24 0 23.8-23.55 45.23-19.36 8.1 1.58 11.07 8.55 14.4 15.78h.01c3.6 7.78 7.64 15.87 19.05 17.83 22.52 3.86 53.83 29 55.1 44.78l.02.79c1.3 30.24.8 72.86-12.06 75.89-2.22.52-5.56-.92-9.68-3.78-26.32-18.31-84.39-95.09-84.39-95.09s65.68 162.06 59.48 171.06c-4.9 7.13-66.68-43.58-67.58-44.32.26.59 8.95 19.52 22.37 41.26L695.6 905.9s54.92 60.25-11.64 59.89c-19.7-.11-46.08-94.04-46.08-94.04s6.25 102.41-16.3 102.41c-22.33 0-5.4-43.84-5.09-44.67Z"/><path class="uuid-78311933-e716-4cd2-9d7d-a87399685864" d="M199.08 929.49c-.58.91-21.44 33.11-34.5 33.11s-55.45-38.81-56.3-39.59c.57.9 26.73 42.32 2.66 42.81-15.43.33-54.87-82.13-55.48-83.41.3 1.28 13.11 57.79-13.07 59.83C4.24 945.21 25.84 900.97.92 814.85V616.63c26.15-1.23 19.5 39.59 33.74 39.59 24.18 0 30.05 21.5 40.28 21.5 23.55 0 10.54-45.19 25.41-45.19 21.7 0 15.5-37 44-37 44.62 0 10.76-36.12 41.27-36.12 25.03 0 20.45 21.39 45.03 17.31 30.96-5.13 14.4 56.23 48.48 51.33 43.17-6.21 38.11 26.45 55.74 22.95 17.96-3.56 22.26-24.96 37.55-27.12 13.15-1.86 14.7 55.02 29.22 54.11 13.11-.81 16.7 35.57 16.7 35.57-43.18-6.2-38.12 26.45-55.74 22.95-17.97-3.56-22.27-24.96-37.56-27.12-13.15-1.86-14.69 55.02-29.2 54.12-13.13-.82-20.52 37.29-20.52 37.29-12.14-15.11-20.8-26.56-20.8-26.56S320.2 936.3 314 945.3c-4.89 7.13-66.67-43.58-67.57-44.32.26.59 8.95 19.52 22.36 41.26a666.4 666.4 0 0 0 14.03 22.01c-31.07 1.37-62.35-92.5-62.35-92.5s6.25 102.41-16.29 102.41c-22.34 0-5.4-43.84-5.09-44.67Z"/></g><g id="uuid-aa011b31-4b4e-4c46-9485-33956afa3e6e"><path class="uuid-d222dc6d-65fe-4b24-951d-64d5301096cd" d="M511.85 644.92c1.97-14.25 14.81-40.59 31.15-41.91 6.22-.42 12.26 1.77 18.14 2.81 6.33 1.27 13.05 1.13 18.95-1.65 7.39-3.77 15.99-5.14 23.9-2.21 7.1 2.34 12.8 7.02 19.68 9.23 6.42 2.1 13.44-.44 16.59-6.49 3.49-6.01 5.45-14.48 11.6-19.21 2.61-2.12 5.94-3.22 9.2-3.81l.81-.18.78-.25a19.1 19.1 0 0 0 8.18-5.14c6.2-6.46 9.55-16.29 17.48-23.46 3.86-3.58 8.78-5.88 13.87-7.15a20.11 20.11 0 0 0 10.53-6.97c5.21-6.36 7.03-16.02 13.25-22.13 7.25-6.92 19.12-6.45 27.53-1.97 8.6 4.27 14.62 12.83 23.48 15.7 4.46 1.09 5.77.78 7.88-3.32 5.17-11.37 6.61-31.15 23.08-31.86 28.23-1.15 27.88 39.11 38.28 39.47 13.4-.13 23.3 6.62 32.07 15.82 2.52 2.28 4.6 5 7.67 5.43 2.1.05 4.19-.5 5.66-1.73 10.41-9 1.87-40.53 18.2-43.5.71-.13 1.56-.12 2.28-.18 6.93-.37 9.62-6.16 12.93-12.42 6.25-13.23 13.41-24.55 29.95-24.72 4.38-.1 8.87-.28 13.03-1.6l1.4-.49c1.17-.56 2.44-1.14 3.37-2 5-4.53 3.43-12.06 4.83-18.46 1.9-10.94 10.95-14.2 20.87-13.69 5.56.15 11.46 1.62 16.24 4.7 4.92 3.14 8.28 7.32 11.43 9.74 4.71 3.94 10.96 3.75 16.7 2.45 3.6-.87 6.83-2.24 8.6-5.42 2.97-6.03 1.81-13.44 3.73-20.18 3.55-13.82 15-16.46 26.6-18.15 6.27-1.39 12.45-3.07 16.63-7.63 2.68-3.04 3.26-6.6 3.87-10.85.76-6.8 2.83-13 10.21-15.33 6.97-2.2 14.13-.5 18.87 5.16 3.52 4.05 5.45 8.78 8.12 12.84 1.5 2.21 3.3 4.41 6.13 3.94 12.09-1.6 15.1 10.76 18.81 19.07 1.6 3.07 2.71 5.57 6.04 5.46h.61c2.56.04 3.38-1.24 4.83-3.5 4.68-8.62 6.5-24.68 20.43-22.64 2.9.26 4.52-2.07 6.18-4.56 5.48-9.4 10.24-20.07 23.56-18 8 1.16 11.85 6.51 12.75 14.21.58 4.13 1.03 7.37 2.38 9.95 4.1 7.55 13.6 9.47 21.56 10.95 2.96.5 6.66 1.12 9.49 2.26 21.83 8.38 10.37 30.15 19.87 38.23 2.3 1.88 5.76 2.8 8.75 3.3 3.3.51 6.64.67 9.73-.25 5.16-1.53 8.4-6 12.57-9.47 5.86-5.33 14.24-7.78 21.94-7.52 4.23.06 8.7.74 12.3 3.2 7.61 5.1 5.99 16.04 7.58 23.12 1.52 6.92 7.77 8.86 14.32 9.69 2.64.3 5.94.36 8.6.47 3.41.19 6.82.9 9.98 2.38 16.66 7.15 17.17 31.64 29.35 34.56l1.1.2c.38.06.78.05 1.16.08 2.95-.07 6.14 1.2 7.89 3.5 7.73 9.68 2.62 33.09 12.6 40.57a9.83 9.83 0 0 0 6.1 1.45c2.17-.42 3.89-1.93 5.76-3.62 4.37-4.12 8.5-8.6 13.84-11.89a36.57 36.57 0 0 1 19.84-5.57c2.6 0 4.08-1.9 5.57-4.22 5.98-10.21 8.26-23.4 18.35-30.98a20.68 20.68 0 0 1 10.85-4.05c2.82-.25 5.58-.1 8.4 1.02 13.7 5.18 12.5 30.64 20.59 34.53.33.05.6.23.97.22l.5.06c4.82.05 8.91-2.28 12.89-5.26 7.76-6 15.76-13.99 26.38-14.12 12.71-.35 17.07 6.43 22.06 18.4 3 7 7.42 13.75 15.14 15.76 1.85.55 3.87.8 5.73 1.39 9.64 2.83 17.69 9.57 23.96 17.23 7.25 9.17 13.45 20.17 14.02 32.05-1.26-17.55-17.1-38.45-33.05-45.6-3.56-1.73-7.36-2.36-11.19-3.2a21.3 21.3 0 0 1-10.45-6.32c-5.45-5.89-7.45-14.1-11.9-20.42-4.17-6.41-12.84-7.21-19.57-5.1-7.42 2.34-12.7 8.18-18.84 12.93-4.27 3.45-10.2 6.8-16.16 6.27-7.78-1.12-9.66-10.4-11.92-16.54-1.23-3.73-2.43-7.4-4.12-10.65-2.85-5.61-6.88-8.43-12.98-7.6-9.06.67-13.99 8.9-17.38 16.52-2.46 5.35-4.26 11.22-7.36 16.48-2.23 3.77-5.55 7.13-10.46 7.13a30.43 30.43 0 0 0-16.53 4.9 51.5 51.5 0 0 0-8.5 7.16c-3.85 3.72-7.6 8.55-13.4 9.65-6.12.96-12.87-2.25-15.93-7.63-5.32-9.05-5-19.99-6.97-29.74-.47-2.42-1.08-4.77-2.4-6.52-.53-.58-.79-.7-1.42-.8-1.02-.05-2-.05-2.98-.17l-1.8-.3c-15.54-3.64-16.33-23-26.95-32.02-3.09-2.68-7.12-3.99-11.2-4.13-2-.09-3.96-.07-5.93-.16-4.42-.26-8.71-.93-12.84-2.51l-1.62-.75-.8-.38c-4.63-2.36-8.27-7.3-9.4-12.3-1.6-6.08-.66-11.44-2.8-16.38-2.67-5.32-16.66-3.55-21.17-.7-2.84 1.53-5.28 3.93-8.21 6.77-3.14 3.06-7.07 6.15-11.54 7.42-5.6 1.7-11.38 1.2-16.92-.02-5.9-1.31-11.9-4.8-14.67-10.45-3.05-5.75-2.96-13.1-3.81-18.7-.76-6.12-3.32-10.03-8.77-11.87l-1.14-.4-1.23-.32c-.63-.18-1.84-.43-2.53-.53-3-.5-5.98-.97-8.97-1.65-8.55-1.95-18.27-6.18-22.45-14.68-2.31-4.45-2.8-9.2-3.35-12.82-.26-1.83-.63-3.36-1.09-4.17-.34-.8-1.06-1.26-1.83-1.54-2.14-.74-4.97-.97-6.93.4-3.45 2.27-6.1 8.7-8.8 12.83-3.35 5.62-8.91 9.97-15.97 8.96l-.26-.03h-.27c-1.34-.17-1.99.84-2.76 1.95-4.57 7.71-5.68 20.98-16.48 23.96-1.47.42-2.98.48-4.48.44h.61c-3.52.3-7.69-1.04-10.28-3.5-2.43-2.2-3.94-4.8-5.26-7.53-1.97-4.1-3.34-8.93-5.69-12.22-.88-1.1-1.36-1.4-2.6-1.3-10.63 1.5-15.6-6.84-19.88-14.78-2.83-4.85-5.39-9.31-11.54-7.5-1.06.31-1.9.67-2.4 1.77-.56 1.03-.92 3.16-1.26 5.56-.62 5.32-2.3 11.7-6.27 15.97-5.76 6.45-14.1 9.11-22.16 10.78-7.8 1.43-16.96 1.78-19.03 10.93-1.77 7.3-.76 15.34-4.71 22.46-2.94 5.57-9.16 8.95-14.94 10.16-5.62 1.21-11.24 1.64-16.95-.07-5.47-1.55-9.97-5.81-13.65-9.44-4.54-4.64-9.88-7.16-16.34-7.25-3.44-.04-6.77-.09-9.34 1.94-1.06 1.03-1.44 2.4-1.86 4.7-.7 4.83-.56 10.14-2.49 15.25-2.73 7.68-9.9 11.74-17.6 13.13a59.1 59.1 0 0 1-7.93.84c-2.62.05-7.15.04-9.68.92-11.04 3.36-13.83 16.44-19.9 25.44-3 4.88-8.45 9.52-14.5 10.24-.77.16-1.53.18-2.3.22l-1.05.05c-.24.01-.48.03-.64.12-.66.37-.86.94-1.37 1.93-3.52 10.2-2.2 21.74-6.91 32-3.2 7.66-11.3 12.56-19.7 10.48-4.41-1.25-7.65-4.75-10.52-7.52-7.02-7.46-14.82-13.55-25.36-13.69l-.82-.02-.45-.02c-2.95 0-6.17-1.56-8.03-3.58-2.93-2.9-4.81-7.08-6.36-10.62-3.7-8.2-6.3-17.83-13.39-23.13a15.45 15.45 0 0 0-9.68-2.77c-14.63.73-11.12 29.23-23.72 34.45-11.31 3.47-20.75-6.95-28.46-12.97-6.75-5.59-15.57-8.66-23.56-4.8-3.34 1.76-5.63 5.64-7.73 9.88-4.42 9.56-9.64 18.9-21.1 21.78-4.3 1-8.54 2.79-11.86 5.81-10.22 9.01-13.72 25.75-28.8 29.3l-.98.2-1.8.35c-16.19 3.42-10.91 26.72-29.65 28.96-5.3.65-10.41-1.56-14.84-4.03-12.06-7.16-20.6-11.57-34.65-4.94-6.35 2.82-13.65 2.86-20.32 1.35-8.66-1.74-17.86-6-25.84-.5-8.66 5.49-14.42 14.65-18.6 23.85-1.9 4.44-3.78 9-4.46 13.8Z"/><path class="uuid-d222dc6d-65fe-4b24-951d-64d5301096cd" d="M861.68 797.22c-1.63-14.91-23.79-30.37-36.36-36.7-5.87-2.93-12-5.32-18.43-6.41l-1.7-.28c-.6-.12-1.2-.24-1.8-.4-19.05-4.9-17.26-25.77-28.57-31.1-7.59-2.69-15.04.05-21.2 5.13-5.22 4.06-10.44 9.77-17.06 12.7-6.16 2.73-13.41 3.23-17.92-2.54-6.76-8.37-6.55-22.17-14.06-28.83-2.3-1.78-5.57-1.53-8.32-.94-10.99 2.95-13.89 19.03-18.87 28.6-2.35 5.2-7.36 11.52-14.18 11.51a28.5 28.5 0 0 0-11.59 2.37c-3.3 1.47-6.3 3.68-9.29 6.46-5.63 5.14-11.31 13.29-20.2 13.07-3.5-.02-7.18-.88-10.25-2.8-11.87-7.85-11.3-23.6-13.48-35.66-.45-2.54-.87-4.94-1.94-6.7-.17-.22-.06.01.27.14.14.1.3.1.35.13-15.43 0-20.97-13.1-26.75-24.42-3.6-6.7-7.22-11.57-14.73-12.39-10.34-.31-22.44-.69-29.79-9.36-4.05-4.69-5.23-11.01-5.64-16.49-.31-3.15-.29-5.57-1.13-8.02-.53-1.4-1.28-1.66-2.72-2.09-1.31-.33-3.07-.5-4.94-.47-13.4-.18-15.27 8.47-25.74 14.45-6.18 3.5-13.76 3.58-20.45 2.37-8.3-1.57-11.03 6.8-13.4 13.8-1.32 4.06-2.48 8.42-3.93 12.9-3.05 10.13-9 21.7-20.6 23.75-4.18.87-7.92.37-11.87-.23-8.9-1.25-18.75-.75-25.6 4.05-5.16 3.32-8.77 9.22-13.53 13.86-6.95 7-16.5 5.14-24.1.28-4.4-2.82-7.78-6.48-10.75-10-5.09-5.72-8.9-12.27-16.38-14l-.33-.06-.15-.04h-.05c-.34-.07-.48.02-.85.21-2.48 2.01-3.72 5.28-5.03 8.32-5.1 12.55-6.98 26.36-14.1 38.22-1.8 2.7-4.43 5.48-8 5.57l-.97-.03c-3.23-.15-5.69 2.43-7.65 4.93-3.92 5.32-6.47 11.58-8.7 17.83a154.5 154.5 0 0 0-3.87 12.89c1.77-10.15 7.37-39.23 20.73-38.96 5.45-.4 8.19-11.66 9.71-16.4 2.5-8.68 4.15-17.49 7.04-26.19 1.75-4.83 3.88-11.03 9.32-13.01a7.83 7.83 0 0 1 3.63-.29c9.37 1.08 16.07 9.45 21.71 15.67 4.3 4.67 8.47 8.53 14.33 10.1 3.71.9 5.18.74 7.87-1.9 4.57-4.97 8.12-11.04 14.3-15.31 10.2-7.44 23.39-8 35.32-6.45 10.83 1.68 14.28-7.42 17.02-16.42 4.66-16.24 8.17-38.54 30.57-35.93 11.7 1.97 13.57-1.69 21.48-9.02 8.3-7.62 20.27-10.1 31.28-7.75 7.34 1.6 12.37 7.52 13.47 14.81.86 4.58.66 8.87 1.68 12.78 1.63 6.6 9.37 7 15.17 7.46 16.15-.56 25.57 6.21 32.66 19.97 3.2 5.75 4.97 11.14 9.08 15.17 2.06 2 4.52 1.93 7.16 2.1 5.36.46 9.78 5.44 11.21 10.16 1.78 5.17 2.12 9.7 2.79 14.72.84 6.16 1.24 11.96 3.86 17.02 1.52 2.6 2.93 3.38 5.9 3.47.05 0 .15-.02.29-.07 3.83-1.93 7.08-6.3 10.67-9.32 3.63-3.29 7.97-6.47 12.94-8.58a40.17 40.17 0 0 1 16.53-3.16c.1-.02.38-.16.77-.55.8-.73 1.8-2.27 2.68-3.99 1.82-3.5 3.44-7.73 5.37-12 2.95-6.6 7.18-14.23 13.85-18.56 7.45-4.82 18.26-5.79 25.5-.01 8 6.6 9.46 17.78 12.66 26.5.69 1.87 1.5 3.63 2.3 4.65.76.86.98 1.14 1.95 1.15 14.27-.46 22.46-23.03 45.66-18.22 6.77 1.19 11.73 7.03 14.26 12.93 4.01 8.64 6.8 18.58 16.65 21.36 3.24.87 6.72 1.48 9.83 2.72 12.89 4.87 24.4 12.91 34.08 22.57a67.43 67.43 0 0 1 8.58 10.56c2.4 3.79 4.52 8.08 4.5 12.64Z"/><path class="uuid-d222dc6d-65fe-4b24-951d-64d5301096cd" d="M.92 616.63c6.98-.9 13.55 2.41 17.38 8.28 5.73 8.15 6.79 18.73 12.07 26.73 2.15 2.95 4.19 2.26 7.24 2.38a36.13 36.13 0 0 1 19.83 6.93c5.2 3.5 9.85 9.4 14.8 12.48 1.95 1.23 4.6.74 6.5 0 11.62-5.61 5.23-32.57 13.85-42.1a10.4 10.4 0 0 1 3.55-2.61c2.08-.99 4.01-.77 6.03-1.07 6.85-1.3 9.32-8.91 12.45-14.79 5.49-11.94 13.1-21.97 27.5-22.77 5.02-.18 10.95-.24 15.44-2.05 8.9-2.91 6.15-13.58 8.14-21.14 2.24-10.5 11.8-13.96 21.5-13.4 7.9.06 16.02 3.12 21.78 8.54 2.78 2.46 4.96 4.81 7 6.33 3.56 2.83 7.75 3.21 12.1 2.68 2.9-.4 5.72-.84 8.81-.42 19.21 2.72 20.08 26.12 25.67 40.42 3.12 8.23 7.17 12.98 16.3 11.47 14.62-2.12 30.73.12 41.01 12.1 2.45 2.7 4.47 5.55 6.37 7.85 1.61 1.84 3 3.52 5.14 4.01 16.84.48 22.7-23.5 39.41-26.05 11.91-2.56 15.05 17.16 17.45 25.18 2.22 7.78 5.11 26.14 11.6 30.17.69.37 1.43.43 2.25.42.77.02 1.56.16 2.3.4 9.08 3.31 11.54 18.76 12.94 27.08.48 3.29.83 6.58 1 9.88-1.52-8.47-5.78-30.88-14.88-33.67a5 5 0 0 0-1.37-.11c-3.37.52-6.6-1.9-8.34-4.32-5.93-8.51-8.06-18.75-11.26-28.24-1.06-3.16-6.14-21.5-10.26-19.55-2.9.68-5.37 2.25-7.77 4.54-4.27 4.06-7.98 9.68-13.2 14.7-6.8 6.75-19.17 12.8-28.03 6.03-4.32-3.22-7.35-8.02-10.74-11.42-8.21-9.11-20.41-9.85-32.1-8.06-1.96.28-3.89.47-5.88.42-16.26-.3-22.33-15.31-25.97-28.54-2.25-6.88-4.25-18.42-10.43-22.09-2.47-1.4-5.82-.74-8.6-.33-7.1 1-15.06-.38-20.75-4.98-5.49-4.22-8.37-8.86-14.2-11.12-4.18-1.66-11.14-2.03-14.91-.6-7.11 2.92 2.6 24.76-18.08 32.44-5.7 2.02-10.9 2.36-16.58 2.4-1.32.02-2.85.01-4.15.23-19.91 2.72-16.06 35.96-40.42 35.94-.38 0-.47.02-.59.05-.1.03-.22.07-.42.27-1.02 1.18-1.54 2.81-2.03 4.65-3.3 13.9-2.1 38.92-22.12 39.06-13.9-.41-17.01-22.33-41-22.84-5.1-.25-8.08-5.11-9.51-9.28-4.53-13.01-6-32.74-23.82-32.5Z"/><path class="uuid-78311933-e716-4cd2-9d7d-a87399685864" d="M814.52 1000.7c-15.75-12.77-27.33-29.77-38.37-46.56-11.04-16.9-21.31-34.3-29.98-52.59l-2.64-5.54a959.7 959.7 0 0 0 30.82 24.04c11.02 8.02 21.94 16.36 34.07 22.44 1.67.67 3.6 1.72 5.22 1.57a.6.6 0 0 0-.21.22c.04-.08.13-.7.1-1.25 0-.58-.07-1.22-.15-1.85-.53-3.97-1.6-7.89-2.67-11.78a542.85 542.85 0 0 0-10.13-31.24c-16.49-46.55-34.84-92.66-53.29-138.5l10.03 13.24c18.74 24.52 37.96 48.82 58.71 71.68 6.64 6.87 23.72 26.31 32.83 27.17 14.43-3.09 12.3-60.52 11.92-73.6a641.32 641.32 0 0 0-2.48-37.02c6.88 18.89 14.12 37.7 22.08 56.15 7.22 16.5 14.66 33.03 24.06 48.39 2.38 3.8 4.9 7.53 7.86 10.82 5.7 6.54 9.73 6.17 16.12.9 11.5-10.58 18.93-25.08 26.28-38.7 5.88-11.31 11.46-23.94 16.43-35.72l-2.18 12.16c-2.7 15.05-11.87 75.59 8.46 79.18 19.49 2.64 14.63-33.87 12.49-45.56l-2.98-15.72c9.24 18.93 18.98 38.71 31.51 55.65 4.68 6 9.6 12.5 16.4 15.83 2.23 1.05 4.38.82 6.7.57 4.9-.6 9.48-2.7 13.12-6.04 7.38-6.81 11.2-17.36 12.66-27.16l2.42-18.68 2.54 18.64c.7 5.1 2.52 10.23 4.65 15.18 7.84 17.25 18.67 33.54 31.96 47.04 2.34 2.17 4.62 4.32 7.36 5.42.14.05.53.14.62.12 1.1-2.16 1-5.82.82-8.58-1.17-14.64-5.8-29.95-9.7-44.14 7.76 9.6 16.56 20.24 26.15 28.01 5.05 3.92 10.47 8.19 16.86 8.6 5.08-1.56 8.04-20.63 8.9-25.84 2.39-13.88 2.98-31.54 4.03-45.69 2.6 14.82 6.05 32.6 9.8 47.03 1.88 6.57 6.6 25.39 12.1 28.5 2.37.07 4.7-.85 7.1-1.92 4.06-1.92 7.94-4.54 11.68-7.32 10.58-7.78 20.42-18 29.66-27.38-3.42 7.13-8.17 16.1-10.6 23.52-1.98 6.23-6.33 19.3-.4 24.05 1.25.88 3 1.32 4.56 1.32 1.1-.11 1.96-.65 3-1.4 4.29-3.46 7.21-8.3 10.14-13.09 8.1-13.87 14.3-28.95 20.1-43.92a154.56 154.56 0 0 0 27.87 95.1c5.98 8.57 12.62 16.78 20.32 23.86l-.33.38c-23.34-21.3-39.85-50.05-46.94-80.83a148.28 148.28 0 0 1-3.58-31.48l2.53.46c-5.65 14.44-16.51 42.5-28.03 52.26-4.31 3.9-11.8 2.14-14.55-2.86-5.28-10.17 2.5-28.39 6.95-38.16l3.24 2.27c-6.93 7.19-36 35.82-46.17 28.28-9.6-8.1-16.85-44.95-19.7-58.35l4.94-.32a302.1 302.1 0 0 1-2.69 26.46c-1.38 7.52-4.1 30.98-14.46 30.28-11.18-.84-21.98-11.35-29.61-18.79-3.15-3.2-6.12-6.46-9.01-9.96l4.65-2.42c1.5 5.44 2.82 10.84 3.97 16.35 1.2 6.91 5.67 25.22-.48 30.03-2.32 1.8-5.53.9-7.77-.46-15.27-10.01-32.66-37.59-39.96-54.42-2.2-5.23-4.15-10.64-4.94-16.56l4.96-.03c-2.15 13.8-8.32 28.75-21.7 35.03-5.4 2.28-12.1 3.78-17.63 1.39-11.3-5.48-20.7-20.66-27.31-31a326.76 326.76 0 0 1-15.56-28.6l4.1-1.36c1.11 6.14 1.77 12.2 1.99 18.4.23 11.42-.5 30.65-15.49 32.02-15.47 1.14-18.62-17.4-19.3-29.15-.92-18.35 1.47-36.6 4.8-54.6l2.7.84c-8 17.3-27.98 59.98-45.24 67.14-5.16 2.23-9.42-1.14-12.67-4.85-8.86-10.45-14.78-22.92-20.82-35.08-11.65-24.51-21.76-49.7-31.24-75.12l1.58-.36c1.92 20.6 3.04 41.26 2.64 61.96-.31 10.4-.85 20.82-3.33 31-1.64 5.66-3.87 13.52-10.74 14.54-5.03-.02-9.1-3.52-12.93-6.23-16.24-13.15-29.67-28.98-43.34-44.6a1170.79 1170.79 0 0 1-39-48.24l3.83-2.17c16.44 40.84 32.45 81.8 46.91 123.4 4.39 13.06 8.97 26.16 11.96 39.69 2.19 9.6.71 14.37-9.65 9.4-12.4-6.36-23.37-15.01-34.43-23.25a887.31 887.31 0 0 1-25.84-20.58l2.17-1.67a484.87 484.87 0 0 0 45.83 77.74c6.04 8 12.6 15.68 20.28 22.18l-.32.38Z"/><path class="uuid-d222dc6d-65fe-4b24-951d-64d5301096cd" d="M377.05 1000.5c36.3-20.38 40.44-145.32 40.41-185.65l-.02-6.15 1.74 5.9c7.6 25.55 11.92 51.97 14.32 78.48 1.6 11.94 1.44 35.41 9.97 43.71 4.2 4.1 10.5 4.5 16.09 4.08 9.79-.5 13.56-10.64 14.55-19.12 2.17-17.7-2.28-36.36-6.17-53.56 7.6 15.74 15.65 32.24 24.13 47.45 7.8 13.86 15.64 27.78 25.7 40.04 2.83 3.17 5.97 7.03 9.97 8.16 9.3.49 9.8-6.92 7.91-14.25-3.45-13.43-12.45-26.5-19.67-38.22 10.66 9.67 22.34 20.32 33.58 29.19 7.61 6 15.47 12.05 23.93 16.7 7.78 4.27 10.72 4.12 17.77-1.4 9.24-7.7 16.53-17.75 23.22-27.68l11.78-18.06c-4.1 11.16-10.84 27.45-12.78 39.05-.96 5.89-1.87 12.83.56 18.22 1.26 2.8 3.89 4.23 6.93 4.29 5.39.32 7.76-6.65 9.36-11.06 2.94-9.35 4-19.2 4.8-29 2.13-26.56.67-54.6-.85-81.23l5.97 20.7c6.89 23.42 14.55 46.88 25.04 68.95 3.52 7.02 7.31 14.44 12.72 20.03 1.95 1.83 3.82 3.43 6.37 3.38 8.51-.08 18.16-.56 25.15-5.64 6.34-4.69 5.97-13.18 3.54-20.1-4.94-14.38-15.32-26.65-25.27-37.92l8.64 4.41c16.72 8.5 47.91 24.47 64.27 33.17l9.11 4.88c-4.75-2.11-14.14-6.33-18.84-8.5-11.7-5.2-44.14-20.47-56.21-26.14l2.24-2.98c9.79 11.26 23.3 29.15 21.91 44.75-1.58 15.03-19.05 18.41-31.4 18.68-1.68 0-3.42.19-5.09-.08-7.3-1.7-11.77-9.13-15.5-14.81-14.43-25.19-23.02-53.12-31.42-80.75l4.83-.82c.73 13.44.97 26.82.72 40.26-.56 16.38-1.19 46.78-10.78 60.01-5.24 7.49-16.93 5.76-20.66-2.34-5.1-11.56.61-29.55 4.65-40.93l4.26 2.18a179.29 179.29 0 0 1-8.77 12.2c-6.28 7.67-16.33 20.37-26.66 21.83-4.17.37-8.28-1.8-11.74-3.6-8.83-4.91-16.68-11.02-24.52-17.25a487.87 487.87 0 0 1-22.58-19.4l3.21-2.7c3.44 5.6 6.44 11.32 8.96 17.38 2.75 7.22 7 18.1 1.26 25-2.58 2.77-6.24 3.54-9.8 3.5-2.3-.17-4.36-1.41-5.9-2.55a45.1 45.1 0 0 1-7.13-7.05c-17.95-22.87-30.66-49.13-43.58-75l3.3-1.15c.96 4.43 1.66 8.82 2.22 13.27 1.63 14.62 4 44.6-15.26 48.17a37.6 37.6 0 0 1-6.92.29c-14.42-.46-18.8-11.42-20.73-23.9-1.4-8.86-2-17.7-2.8-26.52-2.17-26.42-6.24-52.7-13.6-78.2l1.73-.24c-.25 32.54-2.36 65.08-7 97.3-3.89 24.44-12.16 75.8-35.17 88.34Z"/><path fill="none" stroke-width="0" d="m.92 1000.5 1680-.71"/><path class="uuid-78311933-e716-4cd2-9d7d-a87399685864" d="M313.64 1000.5c-8.66-5.4-15.95-12.78-22.4-20.6-9.76-11.79-17.35-24.95-24.56-38.32a431.71 431.71 0 0 1-24.1-45.55 953.36 953.36 0 0 0 30.57 24.24c8.77 6.59 17.62 13.1 26.9 18.84 3.43 2.04 6.94 4.17 10.72 5.33.73.2 1.52.37 2.11.18.07-.04.04-.01.08-.1.5-2.3-.25-5.01-.65-7.37-3-13.35-7.55-26.3-11.93-39.28-14.45-41.49-30.44-82.47-46.71-123.29l-2.52-6.28a1319.34 1319.34 0 0 0 42.69 53.75c7.6 8.64 45.44 54.97 55.69 50.08 16.45-8.83 10.26-86.14 8.72-104.87l-.27-2.95 1 2.78c11.36 30.84 23.25 61.66 38.68 90.73 3.86 6.65 12.7 23.67 20.68 24.5-5.23-.62-9.19-6.52-12.2-10.41-9.4-13.54-16.32-28.6-23.17-43.54a972.73 972.73 0 0 1-24.7-61.02l.74-.17c2.1 24.83 6.25 78.46-3.62 100.13-5.37 10.82-12.46 5.92-19.76.4-16.07-13.14-29.46-29.04-42.99-44.65a1275.29 1275.29 0 0 1-38.85-48.27l1.57-.9c16.47 40.8 32.64 81.7 47.29 123.2 3.6 10.4 7.16 20.82 10.14 31.46a94.7 94.7 0 0 1 2.73 12.24c.15 1.65.4 2.97-.2 4.75-2.4 5.07-13.43-2.5-16.63-4.2-9.46-5.8-18.34-12.32-27.17-18.92a886.86 886.86 0 0 1-26-20.37l2.15-1.66a410.09 410.09 0 0 0 13.86 26.7c2.46 4.37 5 8.7 7.63 12.98 2.68 4.24 5.84 8.21 8.6 12.4 11.43 16.55 22.08 33.25 35.88 48.03Z"/><path class="uuid-d222dc6d-65fe-4b24-951d-64d5301096cd" d="M1680.92 999.8c-.42-3.26-.3-8.26-.45-11.6-.45-26.44-.38-54.86-.43-81.23-.01-30.94.04-61.88-.08-92.82l1.87.31a313.88 313.88 0 0 0-13.18 53.09c-2.22 13.54-3.36 27.22-4.97 40.86-2.53 20.84-6.4 35.98-31.1 34.73-30.09-.58-24.14-42.14-19.23-61.98l3.54 1.48c-13.93 23.58-28.29 46.85-45.94 67.92-5.47 6-14.91 17.44-23.84 16.63-22.71-1.49-10.63-26.22-3.26-37.7 1.85-2.94 3.75-5.78 5.88-8.6l3.24 3.25c-8.93 6.76-18 13.24-27.3 19.46-9.4 6.21-18.83 12.26-29.12 17.04-5.35 2.4-11.77 5-17.75 2.98-5.81-1.77-10.58-5.19-15.2-8.84-4.45-3.6-8.53-7.53-12.43-11.61-3.9-4.1-7.58-8.31-11.12-12.79l4.47-2.74c4.28 9.81 7.86 19.91 8.07 30.75.08 5.87-1.89 12.67-7.48 15.66-5.46 2.9-12.77 3.12-17.57-1.02-12.94-11.26-14.01-44.39-14.7-60.84-.35-13.8-.05-27.54.85-41.34l5.25 1.06a540.36 540.36 0 0 1-9.3 24.76c-6.67 16.37-13.8 32.55-23.02 47.73-3.54 5.71-7.41 11.38-12.24 16.2-3.54 3.4-7.6 6.63-12.9 7.02-6.84.06-13.48-.3-20.25-1.55-12.33-2.13-24.74-9.01-22.12-23.65 2.85-14.7 15.77-28.68 26.31-38.76l2.2 3.47-39.7 15.3c-10.94 4.1-28.93 10.85-39.9 14.79 4.86-2.24 14.55-6.53 19.43-8.67 17.86-8.02 51.16-22.07 69.26-29.84-11.9 11.15-24.9 23.35-31.27 38.65-8.64 21 13.72 24.52 29.41 25.08 1.95.08 4.4.1 6.33.06 5.77-.74 9.93-5.84 13.68-10.3 7.93-10.2 13.85-21.85 19.43-33.54 10.1-21.36 18.52-45.02 26.07-67.47-1.28 19.7-2.79 41.2-2.05 60.84.45 13.44 1.32 27.13 4.5 40.16 1.88 6.74 5.18 18.58 13.51 18.55 3.46.03 7.2-1.15 8.9-4 5.43-9.39-1.4-27.4-5.47-36.85l-8.76-19.56c6.65 8.2 16.7 21.85 23.97 29.25 7.34 7.47 15.25 15.73 25.24 19.25 4.94 1.63 9.72-.75 14.33-2.67 4.92-2.23 9.74-4.9 14.48-7.7 18.65-11.09 36.78-24.64 54.11-37.74-6.66 8.91-15.48 19.96-20.34 29.88-3.39 6.83-9.12 20.4 2.28 22.09 3 .6 5.6.35 8.32-1.45 5.47-3.42 10.12-8.51 14.43-13.4 20.43-24.23 36.94-52.07 52.91-79.42l-3.65 13.78c-4.27 16.6-11.22 55.84 13.96 57.82 7.83.51 17.23-.02 22.38-6.67 2.65-3.32 4.15-7.58 5.22-11.92 2.08-8.8 2.83-17.98 3.93-26.99 2.88-27.38 8.13-54.65 17.45-80.61l1.9-5.38-.02 5.7c-.23 56.7-1.3 117.24-1.28 174.05.01 3.28.03 8.33.31 11.6ZM.92 1000.5c.75-52.6-.79-132.35-.87-185.65L0 808.6l1.77 6c7.6 25.55 11.91 51.97 14.31 78.48.89 8.81 1.53 17.66 2.94 26.3 1.86 11.14 5.3 21.34 18.32 21.59 1.48.08 3.3.01 4.8-.1 9.79-.49 13.57-10.64 14.55-19.12 2.18-17.7-2.28-36.36-6.17-53.56 13.23 27.27 26.8 55.1 44.07 80 3.58 4.76 10.3 14.59 16.1 15.7 3.77.09 7.66-1.52 8.21-5.64 1.37-10.42-7.1-25.21-12.4-34.11l-7.94-12.78 11.15 10.09c10.92 9.82 22.21 19.4 34.14 28 3.97 2.82 8.03 5.55 12.22 7.82 2.59 1.34 5.1 2.62 7.81 3.02 1.48.18 2.8-.21 4.24-.81 4.1-1.86 7.75-5.2 11-8.43 11.09-11.04 21.08-27.86 29.73-40.93-5.06 14.79-18.22 42.24-12.23 57.27 1.27 2.8 3.89 4.22 6.93 4.28 11.03.57 13.42-31.73 14.17-40.05.52-6.6.8-13.23.95-19.87.53-18.73-.57-39.01-1.61-57.78 7.71 23.7 16.63 47.95 27.89 70.17 7 13.16 17.12 32 30.9 38.52 2.17.98 4.54 1.58 6.96 1.59a17.6 17.6 0 0 1-7.21-.94c-18.07-6.89-32.12-33.75-40.68-50.36-6.4-13.15-12-26.57-16.8-40.42l4.8-.93c1.03 20.15 1.26 40.28-.21 60.4a184.78 184.78 0 0 1-2.57 20.15c-1.46 6.91-2.92 13.74-7.28 19.72-1.74 2.35-4.78 4.6-8 4.74-3.1.12-6.09-.46-8.74-2.31-7.75-6.01-6.17-17.64-4.84-26a117.85 117.85 0 0 1 5.57-19.7l4.26 2.17c-7.05 10.45-14.6 20.63-24.4 28.69-8.36 6.56-13.54 6.96-22.76 1.75-17.33-10.05-32.22-23.42-47.1-36.65l3.2-2.7c5.09 8.44 9.63 17.18 12.1 26.78 1.13 4.89 1.95 11.3-1.87 15.59-2.59 2.78-6.24 3.55-9.81 3.51-2.3-.17-4.36-1.41-5.9-2.55-5.35-4.17-9.16-9.45-13.06-14.8-7.44-10.6-13.86-21.74-20.06-32.99a745.86 745.86 0 0 1-17.59-34.26l3.31-1.15c3.45 17.05 9.98 61.5-16.53 61.74-16.53.87-21.9-9.22-24.16-23.92-2.58-17.63-3.1-35.29-5.65-52.87A366.9 366.9 0 0 0 .08 815.1l1.72-.25c-.35 53.6.52 132.8-.88 185.65Z"/><path class="uuid-d222dc6d-65fe-4b24-951d-64d5301096cd" d="M787.5 733.82c14.6-.75 25.48-10.9 37.35-18.19a69.87 69.87 0 0 1 36.71-10.83c9.46-.02 13.64-5.26 18.3-12.73 7.1-11.74 16.05-16.76 29.7-17.2l2.73-.04c4.75.21 8.45-2.2 10.4-6.68 2.73-6.05 3.07-13.15 3.95-19.82.88-5.53.96-11.7 4.93-16.52a8.44 8.44 0 0 1 5.07-2.71c2.09-.19 3.97-.19 5.82-.95 13.93-6.26 11.38-35.97 39.08-36.74 4.83-.12 9.81-.38 14.35-2.1 5.05-1.75 7.47-5.6 8.1-11.12.45-3.17.41-6.7 1.17-10.7 1.25-7.45 6.84-11.79 14.3-12.44 5.95-.59 11.97-.07 17.5 2.33 3.8 1.61 7.08 4.2 9.74 6.7 2.68 2.52 4.96 4.82 7.37 6.2 3.83 2.35 8.75 2.34 13.2 1.59.26-.03 1.9-.23 2.25-.26 3.83-.42 7.94.17 11.39 2.17 13.83 8.33 12.99 30.17 20.65 42.54 4.95 7.9 10.57 7.08 18.72 5.97 14.1-1.5 27.9 1.36 37.53 12.48 2.56 2.8 4.72 5.8 6.77 7.97 1.93 2.04 3.63 3.34 6.32 2.9 13.62-2.34 18.3-17.11 29.6-24.03 4.16-2.54 10.36-4.89 14.93-2.02 11.1 6.68 13.43 38.26 20.92 50.08.86 1.33 1.67 2.44 2.53 2.64 3.51-.27 7.48 1.55 9.65 3.59 9.13 8.39 13.33 24.48 16.06 36.22l-5.11-3.99c3.93-.2 8.32.5 12.2 2.57 7.06 3.65 11.1 11.6 13.5 18.61 2.28 5.95 3.2 12.4 6.64 17.51.23.26.5.53.75.72.1.06.18.05.26.14.1.01.18.02.26.08 1.25.08 2.54.06 3.8.2 14.36 1.04 22.6 9.08 32.06 18.56 1.64 1.39 2.81 2.55 4.61 2.82 3.74.24 6.67-1.85 8.17-5.3 2.42-5.3 3.03-11.84 3.86-17.88.78-5.34 1.22-11.04 4.11-16.22 1.6-2.98 5.12-5.48 8.68-5.58 2.08-.04 4.41-.24 6.2-1.44 1.91-1.13 3.65-3.18 5.22-5.7 4.83-7.94 8.97-20.04 18.28-25.64a26.81 26.81 0 0 1 11.22-3.76c7.58-.58 13.73.2 20.03-3.26 9.3-5.45 2.46-20.3 10.76-28.21 6.75-6.42 20.42-5.25 28.32-1.7 6.29 2.56 11.03 9.02 16.07 12.63 3.46 2.43 7.65 2.94 11.82 2.56 3.7-.42 7.33-1.04 11.07-.09 16.3 4.18 16.62 27.46 22.33 40.24 3.38 8.35 8.49 12.74 17.76 11.53 11.23-1.46 23.56-1.12 33.16 5.67a39.96 39.96 0 0 1 7.75 7.24c4.72 5.51 8.12 11.91 14.13 10.8 13.09-1.78 19.07-15.13 28.82-22.57a20.4 20.4 0 0 1 10.05-4.1c4.26-.3 7.1 3.95 8.63 7.25a65.64 65.64 0 0 1 3.51 9.57c2.85 9.49 4.72 19.4 8.27 28.57 1.21 3 2.61 6.03 4.82 8.13a5.3 5.3 0 0 0 3.9 1.57 8.38 8.38 0 0 1 5.1 1.66c5.44 4.22 7.92 10.98 10.27 17.18 2.18 6.3 3.83 12.75 5.06 19.26-2.52-10.3-7.35-28.77-16.15-35.22a6.93 6.93 0 0 0-4.21-1.25 7.09 7.09 0 0 1-5.16-1.86c-2.62-2.37-4.17-5.52-5.56-8.66-3.91-9.3-6.05-19.01-9.2-28.48-1.33-3.58-4.5-14.6-9.2-14.18-9.85 1.83-14.26 11.07-21.17 17.96a37.6 37.6 0 0 1-8.17 6.65 24.65 24.65 0 0 1-10.44 3.39c-8 .7-12.82-7.25-17.25-12.25-6.1-7.38-14.76-11.12-24.25-11.15-3.16-.1-6.33.11-9.47.52-1.97.23-4.58.64-6.55.62-3.9.04-7.9-.91-11.16-3.11-12.6-8.78-12.66-27.46-19.03-40.12-3.01-6.06-6.9-8.9-13.67-7.79-6.7 1.2-14.24.87-20.04-3.14-5.76-3.83-9.21-9.23-15.13-11.8-4.7-2.1-11.8-2.54-16.58-1.14-9.51 2.75.4 22.12-14.72 31.2-5.02 3.05-10.82 3.88-16.32 4.32-2.43.13-4.88.06-7.2.33-20.2 2.23-17.07 32.82-37 36.64l-1.59.27c-.53.06-1.05.08-1.57.11l-1.15.07c-.63.07-.8.4-1.2 1.04-1.88 3.63-2.1 8.24-2.76 12.64-.92 7.03-1.48 14-4.64 20.84-1.8 3.87-5.01 7.64-9.17 9.35-4.46 1.87-9.64 2.12-13.8-.22-3.62-2-6-4.61-8.7-7.23-6.23-6.5-13.51-11.93-22.6-12.4-1.21-.1-2.58-.08-3.81-.2-5.8-.38-9.64-5.67-11.53-10.5-3.89-8.7-5.23-22.59-13.78-27.55-3.01-1.8-7.68-1.4-11.27-1.17-2.19-10.28-6.18-27.47-13.68-34.84-1.27-1.05-1.8-1.24-2.93-1.21-9.56-.05-13.34-10.91-15.88-17.98-2.35-6.96-4.02-13.82-5.95-20.45-.96-3.3-1.96-6.57-3.15-9.55-1-2.3-1.9-4.77-3.68-6.28-.12-.06.08.03.18.02-12.8 2.14-17.76 23-36.8 26.9-9.15 2.09-14.83-3.27-19.85-9.92-7.3-9.91-15.57-14.1-27.94-13.8-5.5-.1-10.9 1.52-16.45.7a21.32 21.32 0 0 1-7.9-2.76 24.8 24.8 0 0 1-7.76-8.15 52.53 52.53 0 0 1-4.6-10.55c-3.35-9.07-5.15-25.54-13.42-29.64-1.67-.7-3.76-.97-5.65-.74l-1.06.1-.27.03c-2.3.35-4.57.55-6.97.53-4.12-.08-8.55-1.13-12.1-3.36-3.66-2.22-6.26-5.09-8.68-7.37-4.62-4.68-9.84-7.1-16.24-7.35-5.62-.24-11.54.14-12.48 6.4-1.16 6.7-.67 16.04-6.11 21.69-5.57 6.1-14.27 7.24-22.04 7.47l-2.7.06c-.78.04-1.57.01-2.33.1a18.39 18.39 0 0 0-11.96 5.55c-4.58 4.76-7.26 11.2-10.55 17.16-3.68 7.11-9.7 13.69-18.38 13.55-.61.03-.72.02-1 .05-.72.1-1.2.35-1.76.91-2.67 3.55-3.1 8.8-3.83 13.44-.48 3.45-.9 6.98-1.57 10.54-1.67 9.83-6.22 20.32-18.02 19.64-4.92-.14-10.21.26-14.82 1.93-15.31 5-15.55 23.96-31.68 26.15-.92.1-1.85.23-2.77.22l-1.38.03-1.3.01c-35.35-.36-46.75 25.32-72.76 26.3ZM.92 479.64c.7-18.75 18-42.6 35.82-48.92 3.84-1.5 8.16-1.62 11.72-3.72 9.57-5.15 10.74-16.97 16.68-25.3 6.94-10.12 22.09-8.9 31.2-2.66 3.73 2.38 6.98 5.2 10.2 7.75 4.63 3.62 9.17 6.92 14.93 6.63 4.34-.75 6-9.11 7.37-12.95 3.34-11.52 8.03-24.5 22.77-22.97 17.9 1.36 22.54 20.95 29.18 34.03 1.55 2.63 3.08 5.38 6.02 5.07 9.22-.17 18.74 3.76 25.53 9.83 3.43 2.89 6.4 6.14 9.21 8.62 2.1 1.64 3.18 2.76 5.33 2.62 14.3-.36 8.86-30.8 15.73-40.38a11.73 11.73 0 0 1 3.75-3.75 10.84 10.84 0 0 1 5.45-1.48 9.72 9.72 0 0 0 5.95-1.9c2.29-1.68 4.27-4.77 6.09-8.27 7.32-15.22 13.87-27.55 33.31-27.24 6.68-.35 16.17-.73 18.35-8.35 1.85-6.3.33-12.91 3.7-19.4 4.14-8.15 14.27-9.23 22.23-8.44 7.36.48 14.78 4.15 19.94 9.28 3.3 3.1 5.8 5.66 8.41 6.83 4.5 2.11 9.84 1.27 14.63.17 4.53-1.13 8.47-2.73 9.85-7.48.54-1.57.99-3.61 1.75-5.98 2.4-8.35 9.5-13.4 17.6-15.44 7.59-2 16.44-2.28 23.38-5.66 4.71-2.2 6.2-4.46 6.25-9.82.02-5.07 1.9-10.53 6.82-12.93 4.1-2.06 8.13-2.5 12.55-2.24 5.32.28 10.67 3.87 14.2 7.1 5.96 5.47 10.76 7.11 18.55 6.33 11.87-1.9 19.3 2.37 27.06 9.95 3.27 2.97 6.26 6.03 10.65 5.74l1.8-.06c12.06-.38 24.04 4.92 32.48 13.34a67.5 67.5 0 0 1 14.84 22.08l.37.94-5.8-3.85c19.55-.79 25.12 15.88 29.7 31.4.88 2.5 1.8 5.48 3.2 7.39.42.48.57.77 1 .87 8.9-.12 18.07 3 24.98 8.55a79.6 79.6 0 0 1 7.9 7.2c2.27 2.13 4.45 4.88 7.12 5.84 7.11.72 9-7.09 10.15-12.97 1.25-6.63 1.53-13.12 3.26-20.04 1.23-5.53 5.2-11.73 11.8-11.84 4.91.23 8.04-2.4 10.73-6.88 7.24-12.68 12.03-27.81 30.13-29.66 5.91-.41 12.76.07 18.1-2.3 7.11-2.76 6.52-10.38 7.35-17.1 1.16-13.36 10.52-17.37 22.82-16.27a32 32 0 0 1 11.17 2.83 34.74 34.74 0 0 1 9.2 6.6c2.53 2.42 4.65 4.64 6.87 6.08a14.56 14.56 0 0 0 7.29 2.44c3.04.32 6.28-.43 9.38-.64 6.22-.56 12.96 2.57 16.42 7.8 5.13 7.36 6.68 16.26 9.12 24.52 1.75 5.74 3.48 12.05 7.51 16.33a12.17 12.17 0 0 0 6.7 3.7c2.84.6 6 .06 8.92-.25 6.85-.69 14.03-.62 21.01 1.47 6.91 1.96 13.15 6.65 17.54 12.16 3.25 3.64 5.33 7.78 9.36 9.93 2.34 1.2 5.3.58 7.76-.19 4.4-1.44 8.04-4.18 11.37-7.53 6.84-6.7 12.64-16.5 22.99-18.16a6.56 6.56 0 0 1 4.92.85c2.54 1.58 3.9 4.26 5.1 6.7 2.83 6.26 4.3 12.76 6.05 19.28 2.12 6.96 5.76 27.17 13.4 28.21 6.05-.41 9.98 5.45 12.4 10.1a69.9 69.9 0 0 1 3.9 9.23 138.5 138.5 0 0 1 5.04 19.28c-2.1-8.87-9.23-36.32-20.17-36.85-10.1 1.34-14.85-21.76-17.38-29.19-1.58-4.63-6.19-24.38-12.04-23.85-9.69 1.8-14.02 10.81-20.83 17.7-5.78 6.25-15.87 12.96-24.75 9.34-5.04-2.29-8.21-7.4-11.54-11.06-2.1-2.4-4.3-4.5-6.79-6.18-8.41-5.73-19.02-5.72-28.96-4.24-26.95 3.93-26.89-25.62-34.98-42.86-3.96-7.94-8.22-8.76-16.35-7.24-5.77.7-12.16-.18-17.12-3.5-5.84-3.82-9.28-9.18-15.13-11.81-4.52-2.1-11.62-2.53-16.23-1.22-2.15.76-3 1.52-3.76 3.68-1.23 3.64-.8 9.77-1.88 14.27-1.09 6.33-5.62 12.27-11.63 14.71-6.98 3.14-13.82 3-21.06 3.37-19.8 2.06-16.59 32.55-36.89 36.67-1.49.33-2.98.43-4.47.46-.07.02-.18 0-.22.04l-.05.04c-.82.88-1.15 2.16-1.62 3.78a78.28 78.28 0 0 0-1.48 9.13c-.96 7.11-1.45 14.09-4.64 21.08-1.83 4.03-5.16 7.97-9.49 9.8-4.66 1.99-10.13 2.3-14.54-.13-3.75-2.07-6.17-4.68-8.94-7.36-6.14-6.37-13.18-11.7-22.07-12.18-1.24-.1-2.53-.07-3.78-.15a12.27 12.27 0 0 1-6.47-2.58c-4.36-3.52-6.08-8.75-7.74-13.58-1.96-5.94-3.54-12.16-6.65-17.2-4.1-6.57-8.74-6.36-15.63-5.92-5.18-14.67-16.54-29.98-32.75-32.18-2.9-.48-5.86-.24-8.8-.25-4.21-.07-8.81-1.99-11.94-4.34-6.77-4.85-11.58-12.74-20.12-11.7-3.38.4-6.85.7-10.34.42a29.9 29.9 0 0 1-14.6-4.98c-3.55-2.31-6.5-5.56-9.63-7.5-2.44-1.5-5.14-1.4-7.81-.82-.82.13-1.46.49-1.75.65-.25.7-.36 1.83-.42 3.1 0 15.85-13.07 21.2-26.35 23.8-5.45 1.1-11.7 1.4-16.62 3.96-6.22 2.93-5.15 10.33-8.42 15.9-1.9 3.8-5.77 7.1-9.39 8.74-4.66 2.17-9.06 3.06-14.03 3.64-5.03.53-10.6.02-15.33-2.33-9.6-4.73-13-14.6-24.51-15.33l-1.32-.12-1.36-.04c-.91-.04-1.79 0-2.64.04-2.7.28-4.93.53-6.2 2.67-2.05 5.13-1.16 11.77-3.1 17.48-2.27 8.23-9.98 13.24-18.05 14.62-3.5.69-6.84.93-10.31.98-4.2-.13-8.83.52-12.1 2.9-5.97 4.25-8.91 11.87-12.61 18.63-2.28 4.22-4.97 8.43-9.12 11.46a19.5 19.5 0 0 1-11.72 3.64c-.37 0-.44.05-.55.08-.1.07-.34.23-.63.68-1.16 2.02-1.74 4.52-2.19 7.13-.68 3.87-1.11 8.06-1.79 12.34-1.27 9.13-4.7 21.57-15.42 23.97-11.47 3.17-17.24-7.01-24.38-13.09-5.72-5.13-12.49-8.11-20.17-8.24l-.8-.03c-.41-.02-.82-.04-1.23-.1-9.71-1.63-12.38-13.86-15.74-21.13-1.57-3.8-3.21-7.44-5.3-10.6-3.06-4.72-7.14-7.99-12.6-8.49-3.2-.39-6.6.13-8.95 2.6-5.33 5.73-6.58 14.28-9.58 21.58-3.14 8.43-8.16 12.9-17.77 9.47-8.59-3.13-13.84-10.18-20.95-14.88-6.27-4.35-14.53-6.15-21.48-2.66-6.66 4.17-8.68 13.42-12.99 20-3.35 5.74-9.17 10.2-15.81 11.27-20.62 2.66-41 28.41-42.56 48.04Z"/><path stroke-miterlimit="10" stroke="#155b2c" fill="none" d="M.92 576.76V.5h1680v813.65"/></g><g id="uuid-a02a2382-9091-4049-991f-cb0e0106d330"><path class="uuid-78311933-e716-4cd2-9d7d-a87399685864" d="M39.56 543.5c7.04-.8 8.12-9.5 9.62-15.11 1.14-4.88 2.11-10.04 4.64-14.6 2.94-6 11.55-8.71 16.52-3.39 3.62 3.9 4.28 9.18 7.18 13.11 1.5 2.07 3.56 1.78 5.72 1.71 1.77 0 3.57.05 5.4.25 3.63.4 7.5 1.4 10.95 3.34 3.48 1.88 6.2 4.55 8.06 5.47 8.61 3.78 11.01-7.3 14.97-13.15 1.62-2.89 5.47-6.85 9.7-6.87 3.1 0 5.65-.8 8.21-2.94 3.4-2.8 6.52-7.03 11.37-8.4 5.96-1.82 13.46.97 16.35 6.44 1.95 3.3 2.57 6.65 3.88 9.7 1 2.1 1.62 3.04 3.72 3.7 1.77.45 3.73.63 5.15-.46 2.87-2.52 3.8-6.39 5.37-10.52 1.76-4.75 3.67-10.56 9.1-12.93 2.36-1.04 5.05-.7 7.43-1.64 5.96-2.04 9.6-7.3 15.9-10.42 6.56-3.3 17.34-2.15 22.86 2.85 8.89 8.13-.07 22.36 8.15 28.15 2.49 1.68 5.8 2.4 9.06 2.82-3.38.42-6.85.5-10.1-.88-3.52-1.31-5.84-5.07-6.6-8.58-2.24-8.95.24-18.35-12.17-18.3-6.22-.6-9.58 2.75-14.28 7.03-3.83 3.58-9.71 7.02-15.4 7.62-.65.13-1.07-.02-1.57.54-1.47 1.55-2.38 4.64-3.26 6.97-2.36 7.32-6.13 17.01-15.56 17.84-7.34.75-14.17-2.93-16.87-9.8-1.33-2.96-1.99-6.2-3.36-8.61-.98-1.7-2.3-2-4.04-2.07-.69-.01-1.12.12-1.94.6-2.23 1.48-4.44 4.17-6.9 6.1a21.9 21.9 0 0 1-13.82 5.1h-.08l-.13.07c-2.73 2.53-4.15 6.86-6.71 10.7-3.32 5.68-9.31 10.33-16.33 9.46a16.1 16.1 0 0 1-6.55-2.03c-3.31-1.9-5.16-4.18-8.02-5.91-3.4-2.16-7.91-2.98-12.09-3.19-2.09-.06-4.15-.1-6.16-.96-4.12-1.53-6.64-6.01-7.86-9.76-1.05-2.75-1.64-6-3.22-8.14-1.2-1.76-3.72-1.74-5.45-.82-8.86 5.1-8.29 30.45-20.84 29.9ZM1401.35 656.65c-7.36-4.46 6.33-26.62 3.37-33.88-1.25-2.72-4.66 1.58-6 2.9-1.79 1.94-3.56 4.05-6.12 6.01-2.5 2.05-6.53 3-9.45 1.06-.39-.2-.78-.43-1.16-.6-3.23-1.55-5.96-1.7-9.16-.56-1.9.62-4.3 1.75-6.68 1.9-6.08.48-10.12-4.68-9.97-10.24-.25-5.65 2.21-11.38 2.06-16.58 0 .1.37.57.57.66a12.1 12.1 0 0 1-4.4-4.9c-1.52-3.1-1.66-6.35-1.85-9.43-.1-1.5-.16-2.75-.55-3.58l.1.09c-.45-.2-.65-.28-1.17-.1-2.9 1.38-5.19 4.76-7.76 7.03-3.18 3.27-8.57 5.84-13.29 3.59-11.4-5.53-2.03-20.07-.79-28.54.07-.5.1-.96.08-1.25-.01-.3-.09-.37.02-.18.05.1.15.2.23.26-3.65-2.9-5.27-8-5.63-12.43-.53-3.71-.1-6.82-2.14-9.2-5.34-4.3-9.24-.62-12.83 4.13-4 4.88-8.82 13.68-16.46 11.35a11.9 11.9 0 0 1-3.6-2.03c2.3 1.06 5.1 1.7 7.41.56 2.25-1.1 3.74-3.22 5.1-5.3 3.04-4.8 4.86-9.98 9.54-13.97 5.55-4.87 15.74-1.9 18.24 4.83 1.1 2.68 1.41 5.94 1.86 8.67.6 3.56 1.21 5.85 3.68 7.73 4.48 4.6 1.29 11.3-.1 16.35-1.08 3.53-2.41 6.97-2.33 10.35.04.53.1.9.34 1.18.95.59 1.65.61 2.84-.02 4.7-2.98 7.19-8.45 12.88-10.61 3.37-1.3 7.79-.34 10.05 2.56 1.9 2.36 2.11 5.63 2.26 8.04.28 2.92-.04 6.16 2.33 7.96 6.36 4.17 1.9 13.59 1.3 19.24-.23 1.96-.72 4.56.33 5.98.68.57 1.5.5 2.47.25 6.96-2.4 12.57-3.3 19.52 1.44.87.63 1.44.21 2.76-.51 2.97-1.94 5.94-5.45 9.21-7.7 1.52-1.01 3.19-1.9 5.26-1.75 16 3.48-10.14 33.63-2.37 39.24ZM1569.94 692.64c1.85-2.2-4.29-9.56-5.67-11.73-2.68-3.68-5.42-7.31-7.92-11.25-1.4-2.48-4.94-7.41-1.4-9.85 4.42-2.3 12.37 8.3 16.73 9.63.3.1.36-.02.01.07-.09.05-.2.08-.24.13l.1-.09c3.99-3.88 9.4-2.1 13.26-.28.66.3 1.65.67 2.17.68.07 0-.26-.03-.48.22-.15.14-.25.33-.28.4-.03.09-.02.08-.02 0-.2-1.7-1.13-3.43-1.91-5.07-1.5-3-3.38-5.99-4.85-9.15-1.07-2.16-2.04-5.54.06-7.33.28-1.7-.74-4.02-1.3-5.9-.63-2.23-1.66-4.06-.89-6.93.41-1.44 2.03-2.73 3.58-2.96 5.96-.94 11.5 7.44 15.93 10.22.76.54 1.56.93 1.89.97.17.03.1 0 .03.04.02-.01-.15.06-.32.25-.17.18-.27.4-.3.5-.04.23.02 0-.06-.3-1.83-5.63-5.88-10.28-8.7-15.57-1.23-2.37-3.33-5.74-1.35-8.6.74-1.22.12-3.54-.22-5.14-.66-2.98-1.93-6.17-1.45-9.39.27-2.73 3.45-4.87 6.2-4.72 3.13.14 5.29 1.9 7.3 3.79 3.45 3.44 6.02 7.2 8.84 10.71 2.58 2.89 6.15 8.3 10.5 5.52-7.5 7.86-21.52-18.89-27.73-15.02-.06.07-.21.17-.26.23.08-.02.06-.05.04.22-.02.24.01.63.08 1.05.78 4.92 4.74 11.15 1.36 16.24.2-.25.3-.56.34-.84-.01-.27.01.13.16.48 2.17 4.97 5.81 9.4 8.43 14.31 1.33 2.72 2.97 5.22 2.26 8.6-.55 2.63-3.84 4.08-6.16 3.53-4.32-.99-6.9-4.09-9.82-6.59-2-1.77-3.68-3.56-5.75-4.49-.23-.08-.3-.04-.09-.06.1-.03.2-.06.3-.13.35-.2.64-.65.7-.87.1-.43 0-.13.09.2.98 4.6 4.79 10.89.44 15.08.34-.25.67-.95.68-1.25.02-.24 0-.19.02-.1.01.11.06.29.13.47 1.63 5.53 12.97 19.1 4.31 22.74-3.97 1.35-8.16-2.96-11.47-2.97-1.04-.07-2 .37-2.8 1.05-5.68 3.93-13.14-8.17-17.73-10.46a2.8 2.8 0 0 0-.36-.15c-.07-.02.02-.01.14-.1.23-.16.1-.27.1.04 0 6 16.9 26.12 13.35 29.92Z"/><path stroke="#ebebeb" stroke-width=".25" stroke-miterlimit="10" fill="none" d="M.92.5h1680v999.29H.92z"/></g></svg>