<?xml version="1.0" encoding="UTF-8"?><svg id="uuid-67d7cbd4-8307-4942-884f-cf464afdc579" xmlns="http://www.w3.org/2000/svg" xmlns:xlink="http://www.w3.org/1999/xlink" viewBox="0 0 99.104 78.327"><defs><style>.uuid-3fb75870-731f-4345-a748-e368e234d439{fill:url(#uuid-cb881e17-ea42-42e9-9ac8-a359e3045004);}.uuid-3fb75870-731f-4345-a748-e368e234d439,.uuid-e86dbdd7-9595-4753-8968-dbd3c4d9c755,.uuid-ff9e2736-15bb-4c52-a17d-450859e8de3c,.uuid-2642ecbd-ee04-405c-8368-80b62b7936f2,.uuid-896bef16-2795-45d4-9bb6-6daa0bc256f1,.uuid-6ca0b929-d59b-411e-a012-21737a329dfb,.uuid-a25610d7-9f56-40c9-b71b-cb0bb961f503,.uuid-5d5cf7ad-d3df-4576-aeea-1b179dddbac1,.uuid-8a084bbc-41e5-43d7-9aa2-3fa7d7e5ce5d,.uuid-d0185ad7-be68-4992-8e5d-91d4b538bc1a,.uuid-7e966640-547d-4192-97fd-6497471963d4,.uuid-3b6d67f3-9060-4931-bd97-272793d63246,.uuid-1bb2945f-f972-4e42-a1a1-26c967434d26{stroke-width:0px;}.uuid-e86dbdd7-9595-4753-8968-dbd3c4d9c755{fill:#191818;}.uuid-ff9e2736-15bb-4c52-a17d-450859e8de3c{fill:none;}.uuid-2642ecbd-ee04-405c-8368-80b62b7936f2{fill:#292425;}.uuid-896bef16-2795-45d4-9bb6-6daa0bc256f1{fill:#ffc5de;}.uuid-6ca0b929-d59b-411e-a012-21737a329dfb{fill:url(#uuid-a29c77e1-2df7-4f93-a640-1f0dd5fc8c7c);}.uuid-a25610d7-9f56-40c9-b71b-cb0bb961f503{fill:#4c4345;}.uuid-5d5cf7ad-d3df-4576-aeea-1b179dddbac1{fill:#191818;}.uuid-8a084bbc-41e5-43d7-9aa2-3fa7d7e5ce5d{fill:#363535;}.uuid-d0185ad7-be68-4992-8e5d-91d4b538bc1a{fill:#ff922b;}.uuid-7e966640-547d-4192-97fd-6497471963d4{fill:#ebebeb;}.uuid-3b6d67f3-9060-4931-bd97-272793d63246{fill:#f6f2f0;}.uuid-1bb2945f-f972-4e42-a1a1-26c967434d26{fill:url(#uuid-6c126549-c975-4a73-821f-b94b007f287b);}</style><radialGradient id="uuid-cb881e17-ea42-42e9-9ac8-a359e3045004" cx="72.332" cy="28.55" fx="72.332" fy="28.55" r="3.271" gradientTransform="translate(89.791) rotate(-180) scale(1 -1)" gradientUnits="userSpaceOnUse"><stop offset="0" stop-color="#fdec51"/><stop offset=".165" stop-color="#f8e54d"/><stop offset=".386" stop-color="#ebd545"/><stop offset=".639" stop-color="#d6b937"/><stop offset=".914" stop-color="#b89224"/><stop offset=".992" stop-color="#af861e"/></radialGradient><linearGradient id="uuid-6c126549-c975-4a73-821f-b94b007f287b" x1="80.496" y1="19.691" x2="87.711" y2="27.714" gradientUnits="userSpaceOnUse"><stop offset="0" stop-color="#4c4345"/><stop offset=".135" stop-color="#504749"/><stop offset=".291" stop-color="#5d5557"/><stop offset=".459" stop-color="#736d6e"/><stop offset=".633" stop-color="#928d8e"/><stop offset=".814" stop-color="#bab7b8"/><stop offset=".997" stop-color="#eaeaea"/><stop offset="1" stop-color="#ebebeb"/></linearGradient><radialGradient id="uuid-a29c77e1-2df7-4f93-a640-1f0dd5fc8c7c" cx="59.875" cy="36.729" fx="59.875" fy="36.729" r="2.78" xlink:href="#uuid-cb881e17-ea42-42e9-9ac8-a359e3045004"/></defs><path class="uuid-8a084bbc-41e5-43d7-9aa2-3fa7d7e5ce5d" d="M73.774,29.818c.141-.075-.968-1.245-1.544-1.968-.155-.467.836.844,1.419,1.429-.188-.399-1.081-1.579-.974-1.588.177.197.253.26.453.525-.738-1.052.236-.284-.7-1.599.101.101.193.2.273.291-.541-.597-1.076-1.217-1.452-1.663.035-.066-.562-.857.141-.074-.053.004.22.329.419.592l-.242-.395c1.033,1.107.264.463.992,1.313-.211-.466-.898-1.525-.537-1.272.979,1.109.129.545,1.095,1.449l-.496-.32c1.616,1.69-.184-.057,1.53,1.764.448.181-.301-.735.148-.551-.496-.657-.803-.913-1.3-1.571-.72-1.328,2.607,2.666,1.502,1.017-.595-.788-1.794-2.226-1.025-1.581l1.044,1.308c.271-.015-1.469-1.907-.567-1.199.397.526.231.531.386.661.97.909-.538-.788-.453-.861l.981,1.111c.023-.326-.48-1.304-.463-1.674.276.344.544.724.883,1.03-.238-.771.637-.307,1.443.159l-.741-1.048c.03-.007.414.406.553.614.407.29-.523-.621-.805-1.04-.006-.112.546.5.763.819-.543-.962-1.058-2.168.003-1.273l.214.317c.47.281-1.554-2.119-.656-1.319l.124.192c.648.175.205-.987,1.679.292-1.155-1.435.818.38-.832-1.587.992.827,1.242,1.215,2.03,1.668.139.037-.95-1.298-1.048-1.567l.874,1.018-.811-1.159,1.099,1.173-.152-.323c-.08-.036-.453-.406-.7-.704-.283-.557.881.478,1.331.998l-.473-1.089c.345.416.421.594.61.886-.749-1.162.945,1.053.258-.012-.216-.217-.51-.616-.684-.825.592.561.744.441.63.088l.581.721c.35.011.126-.691.357-.867-.36-.26-1.384-1.495-1.42-1.667l.947,1.055c-.528-.701-.415-.349-1.027-1.237.189.054,1.104,1.179,1.357,1.57l-.22-.46c.282.317.403.507.748.923-.532-.705,1.098.934.163-.279l.28.316c.228-.18.011-.636.144-.844-.793-.934-.546-.787-1.136-1.586.386.184,1.158.79,1.25.576-.284-.559-.642-.816-1.065-1.413.733.841.824.626,1.262,1.305.073-.301.099-.377-.248-1.272-.323-.325-.481-.45-.714-.753-.076-.177.404.27.746.683l.063.097c-.816-1.503,2.74,1.938,1.443-.014l.063.098-.564-1.113c.229.059.484.69,1.008,1.15-.968-1.62.557-.12-.051-1.233,2.293,2.37.395-.643,1.968.777l-.516-.579c-.441-.624.353.281.508.383-.397-.453-.511-.48-.751-.828-.153-1.099,1.674.058,2.595.192.305.012-2.51-3.13-1.092-1.908l.874,1.146c-.779-1.607.742-.556.127-1.957.196.269.476.598.439.622.751.734.296-.186-.258-.836.116.029.514.576.828.878.472.408-.689-1.167.026-.409.116.123.201.275.24.347-.283-.424.3-.087-.528-.966.5.329-.107-.615.458-.158-.811-1.081.638.308-.581-1.159,1.272,1.505,1.254,1.018.732.246.36.475.47.409.975,1.063.073-.099-.081-.448-.755-1.204,1.7,1.648-.896-1.731,1.163.484-.418-1.036-.633-1.796-.69-2.355,1.269,1.501-.142.379,1.21,1.938-.295-.813-1.258-2.208-.721-2.044.233.153.52.676.718.949-.295-.813.562-.246.073-1.235.118.14.226.31.303.442-.002-.084.281.138-.304-.536l.118.218c-.907-.93-1.599-2.195-2.037-2.722,1.595,2.004.621.315,2.614,2.866-.083-.151-.324-.501-.719-.95.153.099.392.353.794.904-.171-.493-.84-1.171-.695-1.268.281.329.363.479.68.877-.482-.698-.963-1.396-.614-1.213.163.204.396.451.359.474.106-.262-1.134-1.984-.396-1.545,1.16,1.481.473.41,1.542,1.636l-.203-.465-.558-.561c.117-.063-.566-1.038-.135-.706l.362.572-.016-.392-.505-.379c-.445-.722-1.348-1.555-.923-1.323.08.148.112-.069.786.615,0,0,0,0,.002.004-.288-.435-.593-.893-.257-.648.357.379,1.154,1.38,1.391,1.632-.835-1.074-.014-.483-.894-1.636.201.276.754.925.874,1.052l-.677-.873c.275.229.393.354.828.877.269.036-1.385-1.53-.644-.994.045.079.158.199.241.349.465.212-.139-.803.364-.519,1.108,1.206.129.417,1.077,1.423.024-.411-.826-1.875-.366-1.761l-.157-.104c-1.472-1.78.898.733.296-.185.086.153.8,1.004.639.802.385.159-.075-.683-.331-1.422l.36.475c.429.33.422.041.689.168-.358-.473-.243-.445-.836-1.074,2.479,2.327-.64-1.837,1.441.088-.026.031.266.456.291.436l-.141-.597c-.671-.751-.424-.439-.978-.996-.361-.477-.601-.88-.549-.925.338.589,1.052,1.228,1.458,1.619-.207-.228-.414-.499-.622-.734,1.275,1.266-1.298-1.555-.362-.768l.335.408c-.119-.254-.52-.83-.361-.767.782.863.293.465.912,1.196.043-.125-1.264-1.822-.431-1.007.174.278.125.327.298.603.973.966.758.694.962.805l-.026-.018.548.346-.278-.25c-1.865-2.399-.141-.609-1.288-2.244,1.082,1.551.685.848,1.531,1.859.276.247.599.511.824.807-.623-.868.659.539-.255-.726.279.318.1-.031.778.793-.128-.33-.502-.544-.84-.955-.806-1.221,1.467,1.061.37-.622-.361-.768-1.262-1.884-1.566-2.561.495.471.962,1.213.962,1.213.493.402.483.259.248-.181.225.296.446.52.78.861-.007-.14-.962-1.212-.468-.81.293.372.767.965,1.044,1.352-.177-.362-.617-1.03-.786-1.389.502.544.682.894.968,1.285-.127-.329-.204-.708-.938-1.621l-.329-.269c-.005-.072.671.75.786.933.521.764-.375-.214-.656-.535l-.12-.255c-1.678-1.844.032.499-.176.486l-1.13-1.418.86,1.243c-.332-.338-1.006-1.092-1.126-1.346-.664-.611.346.552-.373-.147-.109-.112-.162-.181-.202-.242l.271.479c-.232-.303-.845-.961-.626-.804-.823-.672.652,1.231-.294.233l-.06-.095c.199.636.845,1.027,1.711,2.341l-2.234-2.408.845,1.028c-.052-.019-.157-.06-.495-.471.515.757.389.428.903,1.12-.886-.836.096.664-1.304-.928.622.799.602.512.953,1.137-1.511-1.706.132.401-.638-.316-.737-.917-.246-.517-1.02-1.238,1.238,1.558-.458-.18-.287.174,1.025,1.206.263.643.478,1.153-.337-.411-.805-.454-1.296-.788l-.169-.205c1.017,1.235.698,1.111.824,1.438-.619-.731-.848-1.031-1.078-1.398l-.079.077c.313.407.463.634.527.82l-.756-.926c-.069.146.69,1.262.027.778.717.855,2.133,2.262,2.465,2.959-.398-.453-1.074-1.232-1.194-1.454.037.07.279.42.086.247l-.599-.823c-.355-.283.517.673.403.646-.558-.655-.438-.433-.874-.958-.041-.075.276.231.077-.043-.159-.067-.562-.394-1.009-.868.323.367.753.88.782,1.002-.071.143-.711-.753-1.064-1.034.361.477-.112.068.722,1.047-.037.023-.433-.428-.672-.682.311.481-.164.355.79,1.338l.073.056c.015.023.012.026.027.051h0s0,0,0,0c.642,1.134-.867-.217-.698.362l-.279-.327c.207.469-.061.434.46,1.206-.034.027-.589-.531-.908-.931.124.319.429.694-.156.261-.402-.644-.462-.48-.269-.493-.353-.187-.826-.689-.182.307-.676-.872-.985-.982-.825-.687l.591.533c.045.173-.071.143-.185.117l-.913-1.126c-1.374-1.145,1.539,2.632-.553.537.599.822.588.436,1.304,1.383-.232-.059-1.693-1.546-1.729-1.521-.666-.487,1.242,1.724.735,1.435.354.375,1.27,1.409,1.474,1.875-.229-.055-1.539-1.537-1.742-1.909-.003-.055.116.06.229.194-.089-.172-.188-.378-.594-.769l.322.405c-.395-.356-.503-.191-1.021-.865.241.443.518.674.751.828-.621-.454-.225.163-.69-.101.207.198.622.642.597.657-.62-.313.548.822.557,1.112-.59-.532-1.195-1.454-.904-.833-.432-.333-.91-1.027-1.15-1.376.521.865-.662-.296-.853-.373l-.204-.374c.121.222.084.245.049.271l.71.754c-.157-.104-.192-.079-.471-.406.4.549,1.149,1.281,1.671,2.053-.394-.355.208.564-.702-.463.467.214-.914-1.032-.919-1.319.08.147.043.17-.114.066-.106-.111-.179-.221-.22-.29-.954-.798.936,1.241.753,1.356-.482-.605-.991-1.082-.91-.934.076-.044.87.953,1.195,1.455-.495-.368.178.437.078.431l.246.162c.481.606.364.573.449.821-.398-.452-.204-.372-.402-.551.803,1.102-1.097-.913-.614-.121-.393-.354-.949-1.1-1.226-1.33.526.87-.825-.688-.419.055.713.757.555.558,1.12,1.408l-.258-.742.842,1.268c.075-.045-.287-.616-.132-.514.484.701.323.499.915,1.128-1.103-1.108.412.843-.376.131l-1.67-1.959c-.901-.737.581,1.241-.043.923l.356.285c.637.8-.033.215.171.587-.553-.659-.797-.862-1.173-1.244.418.482-.186.083.912,1.404l-.827-.783c-.465-.212,1.406,2.022,1.058,1.934-.56-.751-1.028-1.153-1.357-1.751-.058.038-.208-.041.178.413-.38-.383.608,1.006.028.426.223.306.802.997.696.993-.12-.127-.276-.324-.276-.324.276.324.284.519.954,1.198-1.906-1.901-.326.535-1.965-1.095.073.317.114.646.051.783-.161-.201-.278-.326-.201-.275-.664-.485,1.516,1.951.773,1.413-.987-.985-.402-.646-.796-1.001-1.862-2.131.053.462-1.13-.699l-.082-.15c-.709-.659.492.99.223.954,0,0-.156-.196-.277-.325.844,1.177.976,1.692,1.105,2.11-.678-.876-.321-.497-1.077-1.33.044.172,1.192,1.358,1.278,1.699-.433-.428-.862-.757-1.654-1.66l.069-.145c-1.067-1.132-.11.164-.344.009l-.434-.522c-.028.314,1.082,1.616.819,1.68l.353.374c1.002,1.374-.703-.652.015.391l-1.148-1.281c.203.372.848,1.462.94,1.809-.761-1.027-1.046-1.641-1.452-2.29-.074.047-.141.287.376.961-.081-.149-.322-.497-.124-.319.798,1.096,1.124,1.692.974,1.781-2.144-2.554-.887-.347-2.666-2.233.57,1.136-.801-.006-.942.375,1.781,1.888-.031.123,1.716,2.133.048.183-.005.17-.122.044l-1.225-1.046c-.549-.551-.322-.497-.716-.947-.27-.038-.792-.809-1.343-1.268.638.708.839,1.078.524.868l.909.839c.729,1.242-1.619-1.557-.901-.324l-.483-.689c.222.461-.378.301.915,2.01-.217-.219-.714-.752-.796-.936-.446-.041.951,2.183-.09,1.34l-.405-.51c.078.181.718.996.236.545-.172-.207-.405-.509-.45-.521.122.191.624.968.318.73l-.426-.6c-.786-.45.804,1.661.9,2.166-1.246-1.458-1.833-1.775-2.126-1.933l-.173-.209c-.424.051.574,1.6.814,2.386-1.508-1.449-1.093-.213-2.1-.886.264.232.965,1.141,1.046,1.325-.312-.246.703,1.149-.431-.195l.043.008c-1.165-1.273-.988-.822-1.112-.777l1.48,1.761c-2.421-2.332.155,1.485-1.927-.678.315.488.236.545.552,1.033l-.799-.94c-.369-.099-.552-.147-.563.251l-.532-.705c-.167.036,2.167,2.826,2.108,2.972l-1.228-1.372c-.181.193-1.434-.863-.546.575-.172-.208-.512-.617-.528-.702-.125.044-1.174-.636.503,1.255-1.072-1.248-.311.054.053.698l-.772-.937c.917,1.256,1.19,1.581,1.342,2.016-.133-.094-.658-.716-.416-.514-.514-.397.669.941.127.553l-.459-.628c-.164.017.114.326.645,1.062.252.426-.395-.065-1.124-.886.421.52.946,1.249.679,1.06-.278-.308-.423-.523-.493-.628-.71-.48.66,1.292-.233.488-.264-.303-.402-.45-.491-.533.156-.096.31-.139.357-.063-.727-.85-.966-.905-1.882-2.155.459.717,1.499,2.24,1.049,1.933-.076-.078-.15-.154-.266-.282l-.07-.105c-.097-.063-.052.035.049.196-.154-.11-.265-.195-.309-.18-.614-.692-.451-.27-.536-.257.8.927.6.839,1.325,1.549-.065-.059-.084-.12-.08-.19-.015-.035-.017-.057-.059-.116.021.027.045.057.066.085.013-.058.043-.119.084-.18.361.51.655.947.152.483.483.622.978,1.264,1.207,1.568-1.186-1.233-1.932-1.81-2.636-2.593.278.666-.103.684,1.286,2.523.144.266-.484-.454-.737-.713-.122-.199-.066-.201-.266-.465.288.531-.135.418.886,1.658-.592-.448-.894-1.182-.889-.841l-.297-.393c-1.996-1.672,2.135,3.572-.371,1.377.156.132.23.193.41.393-1.358-.751.035,1.765-1.871.362-.418-.254.236.537.673,1.19l-.88-.978.865,1.257c.551.991-2.395-2.199-1.246-.416l.604.649c-.187-.061.092.608-.557-.177.097.13.573.722.243.397l-.45-.521.575,1.06c-.472-.251-1.753-2.096-2.057-2.013.092.27,1.073,1.719,1.403,2.043.055-.002.362.255.813.777l.159.335c1.305,1.553,2.598,3.18,3.7,4.101l-.68-1.05.68.713-.066.138c.662.652.167-.003-.155-.467.35.389.606.652.757.778l-1.136-1.579c.531.591.968,1.244,1.336,1.506-.527-.733-1.212-1.304-1.5-1.836.66.649,1.13,1.235.689.576.349.388.551.654.672.853-.344-.53-.005-.344-.674-1.191.802.811.02-.407,1.262,1.057-.279-.366-.869-1.24-.863-1.35,1.388,1.837.304-.083,1.878,1.814-1.265-1.637-.314-.939-.921-1.929.099.131.3.397.219.327.19.064.617.518.921.771-1.099-1.306-1.232-1.706-1.85-2.562,1.166,1.169,1.244,1.572,2.303,2.749-.904-1.047-.732-1.192-1.513-2.039.735.712.384.322,1.341,1.364-1.375-1.633-.167-.333-.958-1.381.79.709,1.327,1.496,1.021.903.481.45.869,1.113.869,1.113ZM74.14,24.649c.008.009.013.015.016.019-.006.042-.01.077-.012.101,0-.023.001-.056-.004-.12ZM74.36,24.436c-.059-.012-.1.012-.132.05-.283-.315-.557-.653-.519-.656.171.225.384.364.651.606ZM68.353,18.408c-.076-.163.093.009.261.195-.003.031.003.08.031.167.029.036.06.077.093.118-.149-.181-.287-.351-.385-.48Z"/><path class="uuid-2642ecbd-ee04-405c-8368-80b62b7936f2" d="M35.684,31.256c7.02-8.897,33.472-25.368,35.494,4.299.695,10.186,0,33.336,0,37.735s-8.797,6.482-9.26,0c-.463-6.482-14.649-54.84-26.234-2.084-1.378,6.274-10.575,7.408-10.575,0,0-9.723,1.602-26.674,4.042-30.005"/><path class="uuid-e86dbdd7-9595-4753-8968-dbd3c4d9c755" d="M35.684,31.256c6.94-8.48,25.519-20.25,33.083-6.782,2.069,3.909,2.645,8.397,2.888,12.75.499,10.796.176,21.795.035,32.597,0,0-.039,3.25-.039,3.25.093,2.5-2.259,4.39-4.576,4.723-2.381.529-5.068-.995-5.49-3.473-.187-1.054-.281-2.182-.525-3.223-1.092-5.326-7.948-29.446-16.047-22.499-1.514,1.408-2.598,3.308-3.521,5.229-2.26,4.873-3.704,10.151-4.979,15.385-.423,2.125-1.017,4.51-2.849,5.937-2.698,2.29-7.428,2.064-8.507-1.778-.339-1.039-.326-2.25-.301-3.314.291-8.669.907-17.431,3.038-25.862.328-1.032.642-2.091,1.257-2.995-2.006,3.852-2.192,8.394-2.816,12.631-.585,6.176-1.158,12.424-.849,18.621.71,3.984,4.949,4.499,7.754,2.183,2.534-2.152,2.37-5.794,3.318-8.766,1.528-5.42,4.517-18.44,10.988-19.455,8.01-.473,14.035,20.457,14.884,26.946.108,1.181.633,2.444,1.674,3.03,2.385,1.416,6.667-.225,6.604-3.323,0,0,.05-3.264.05-3.264.195-10.78.492-21.796.131-32.543-.19-4.241-.708-8.678-2.677-12.489-7.135-13.079-25.716-1.573-32.529,6.483h0Z"/><circle class="uuid-2642ecbd-ee04-405c-8368-80b62b7936f2" cx="23.524" cy="28.782" r="14.587"/><path class="uuid-a25610d7-9f56-40c9-b71b-cb0bb961f503" d="M33.144,17.817c9.834,8.549,4.387,24.949-8.642,25.946-8.085.742-15.648-5.888-15.961-14.003-.711-13.049,14.851-20.583,24.603-11.943h0ZM33.144,17.817c-9.677-8.411-24.73-.858-23.749,11.887.413,7.557,7.503,13.784,15.051,13.207,12.767-.68,18.296-16.596,8.697-25.095h0Z"/><path class="uuid-2642ecbd-ee04-405c-8368-80b62b7936f2" d="M20.858,21.433c3.241-2.547,6.482-9.029,7.177-12.501s9.802,7.791,9.647,16.397"/><path class="uuid-a25610d7-9f56-40c9-b71b-cb0bb961f503" d="M20.858,21.433c3.39-3.35,5.588-7.888,6.806-12.449.186-1.331,1.413-1.211,2.225-.585,4.578,3.817,7.982,10.957,7.792,16.929-.141-2.968-1.115-5.813-2.415-8.456-1.496-2.903-3.225-5.847-5.785-7.865-.272-.196-.596-.359-.81-.361-.408.05-.415,1.209-.62,1.587-1.436,4.206-3.677,8.401-7.194,11.201h0Z"/><path class="uuid-3fb75870-731f-4345-a748-e368e234d439" d="M14.061,28.55c0,1.733,1.522,3.137,3.399,3.137s3.399-3.137,3.399-3.137c0,0-1.522-3.137-3.399-3.137s-3.399,1.405-3.399,3.137Z"/><path class="uuid-a25610d7-9f56-40c9-b71b-cb0bb961f503" d="M14.061,28.55c-.014,1.715,1.593,3.076,3.248,3.059,1.678-.029,2.685-1.818,3.415-3.124,0,0,0,.13,0,.13-.73-1.306-1.738-3.094-3.415-3.124-1.654-.017-3.263,1.343-3.248,3.058h0ZM14.061,28.55c-.035-1.732,1.562-3.133,3.242-3.202,1.831-.049,2.932,1.8,3.725,3.202-.793,1.401-1.895,3.25-3.725,3.202-1.68-.069-3.278-1.469-3.242-3.202h0Z"/><path class="uuid-2642ecbd-ee04-405c-8368-80b62b7936f2" d="M15.104,28.55c0,1.189.913,2.153.913,2.153,0,0,.913-.964.913-2.153,0-1.189-.913-2.153-.913-2.153,0,0-.913.964-.913,2.153Z"/><ellipse class="uuid-3b6d67f3-9060-4931-bd97-272793d63246" cx="16.779" cy="27.74" rx=".581" ry=".305" transform="translate(-11.622 12.106) rotate(-30)"/><path class="uuid-a25610d7-9f56-40c9-b71b-cb0bb961f503" d="M9.448,32.612c-.657-1.924-.453-2.489-.504-3.418.905-1.411,4.283-.835.504,3.418Z"/><path class="uuid-7e966640-547d-4192-97fd-6497471963d4" d="M14.079,33.833c2.674,2.095,6.257,1.597,9.441,1.755-1.461.574-3.355.537-4.956.254-1.558-.288-3.503-.807-4.486-2.009h0Z"/><path class="uuid-7e966640-547d-4192-97fd-6497471963d4" d="M14.711,35.529c2.752,1.823,6.039,2.333,9.12,3.355-3.004.11-6.823-1.496-9.12-3.355h0Z"/><path class="uuid-7e966640-547d-4192-97fd-6497471963d4" d="M14.878,32.81c3.12,1.688,6.723-.074,9.959-.543-2.135,1.305-5.029,1.688-7.568,1.467-.789-.135-1.929-.318-2.391-.924h0Z"/><path class="uuid-a25610d7-9f56-40c9-b71b-cb0bb961f503" d="M8.973,36.537c-1.4,1.197-2.817,2.371-4.25,3.523-1.402,1.228-2.869,2.325-4.661,2.957,0,0-.059-.081-.059-.081,1.153-1.51,2.649-2.568,4.25-3.523,1.537-1.008,3.091-1.994,4.661-2.957l.059.081h0Z"/><path class="uuid-a25610d7-9f56-40c9-b71b-cb0bb961f503" d="M7.049,31.736c-1.71.587-3.401,1.285-5.148,1.704-.599.075-1.208.111-1.856-.015l-.023-.097c1.02-.799,2.183-1.063,3.42-1.184,1.188-.195,2.383-.363,3.584-.504l.023.097h0Z"/><path class="uuid-a25610d7-9f56-40c9-b71b-cb0bb961f503" d="M10.117,39.757c-.469,1.394-.964,2.777-1.485,4.149-.456,1.427-1.036,2.766-2.123,3.862,0,0-.091-.041-.091-.041.1-1.54.718-2.861,1.485-4.149.682-1.299,1.39-2.586,2.123-3.862l.091.041h0Z"/><path class="uuid-a25610d7-9f56-40c9-b71b-cb0bb961f503" d="M7.004,27.778c-1.264-.934-2.509-1.889-3.735-2.865C1.971,23.981.793,22.959,0,21.525c0,0,.067-.075.067-.075,1.515.626,2.664,1.681,3.735,2.865,1.108,1.108,2.198,2.238,3.269,3.388l-.067.075h0Z"/><path class="uuid-1bb2945f-f972-4e42-a1a1-26c967434d26" d="M77.784,37.807c.12-.064-.823-1.058-1.312-1.673-.132-.397.71.718,1.206,1.215-.16-.339-.919-1.342-.828-1.35.15.168.215.221.385.446-.628-.894.201-.242-.595-1.359.086.086.164.17.232.247-.46-.507-.915-1.035-1.234-1.414.03-.056-.478-.728.12-.063-.045.004.187.28.356.503l-.205-.336c.878.941.225.393.843,1.116-.179-.396-.763-1.296-.457-1.081.832.943.11.463.931,1.232l-.422-.272c1.373,1.436-.156-.048,1.3,1.499.381.154-.256-.625.126-.468-.422-.559-.682-.776-1.105-1.335-.612-1.129,2.216,2.266,1.277.865-.506-.67-1.525-1.892-.871-1.344l.888,1.112c.23-.013-1.249-1.621-.482-1.019.337.447.197.451.328.562.824.772-.457-.67-.385-.732l.834.944c.019-.277-.408-1.108-.393-1.423.234.292.462.616.751.875-.202-.655.542-.261,1.227.135l-.63-.891c.025-.006.352.345.47.521.346.247-.444-.528-.684-.884-.005-.096.465.425.648.697-.461-.818-.899-1.843.002-1.082l.182.269c.399.239-1.321-1.802-.558-1.121l.105.163c.551.149.174-.839,1.427.248-.982-1.22.696.323-.708-1.349.843.703,1.056,1.033,1.726,1.418.118.031-.808-1.103-.891-1.332l.743.866-.69-.985.934.997-.129-.275c-.068-.031-.385-.345-.595-.599-.24-.474.749.406,1.131.849l-.402-.926c.293.353.358.505.519.753-.637-.988.803.895.22-.01-.183-.185-.434-.523-.581-.701.503.477.632.375.536.075l.493.613c.297.01.107-.587.304-.737-.306-.221-1.176-1.271-1.207-1.417l.805.897c-.449-.596-.353-.296-.873-1.052.16.046.939,1.002,1.153,1.334l-.187-.391c.239.27.343.431.636.785-.452-.599.934.794.139-.237l.238.269c.194-.153.009-.541.122-.717-.674-.794-.464-.669-.966-1.348.328.156.984.672,1.062.489-.242-.475-.545-.694-.905-1.201.623.715.701.532,1.073,1.109.062-.255.084-.321-.211-1.081-.275-.276-.409-.383-.607-.64-.064-.151.343.23.634.581l.053.082c-.694-1.277,2.329,1.647,1.227-.012l.053.083-.48-.946c.194.05.411.587.857.977-.823-1.377.473-.102-.043-1.048,1.949,2.014.336-.546,1.673.66l-.439-.492c-.375-.53.3.239.432.325-.337-.385-.434-.408-.639-.704-.13-.934,1.423.05,2.205.163.26.01-2.133-2.661-.928-1.622l.743.974c-.662-1.366.631-.473.108-1.663.166.229.404.508.374.529.638.624.252-.158-.219-.711.098.025.437.49.704.747.401.347-.585-.992.022-.348.099.104.17.234.204.295-.24-.361.255-.074-.449-.821.425.28-.091-.523.389-.134-.689-.919.542.262-.493-.985,1.081,1.28,1.066.865.622.209.306.404.4.348.829.904.062-.084-.069-.381-.642-1.023,1.445,1.401-.761-1.471.988.412-.355-.881-.538-1.526-.586-2.002,1.078,1.276-.121.322,1.028,1.647-.251-.691-1.069-1.877-.612-1.737.198.13.442.575.611.806-.251-.691.478-.209.062-1.05.101.119.192.264.257.376-.001-.071.239.117-.258-.456l.101.185c-.771-.79-1.359-1.866-1.732-2.314,1.356,1.703.528.268,2.222,2.436-.07-.128-.276-.425-.611-.807.13.084.334.3.675.768-.145-.419-.714-.995-.591-1.078.239.28.308.407.578.745-.409-.593-.819-1.186-.522-1.031.138.173.337.383.305.403.09-.223-.964-1.687-.337-1.313.986,1.259.402.348,1.31,1.39l-.172-.395-.474-.477c.099-.054-.481-.882-.115-.6l.308.486-.013-.333-.43-.322c-.378-.614-1.146-1.321-.784-1.124.068.126.095-.059.668.523,0,0,0,0,.002.003-.245-.37-.504-.759-.218-.551.303.322.981,1.173,1.182,1.387-.71-.913-.012-.411-.76-1.391.171.235.641.786.743.894l-.576-.742c.234.195.334.301.704.746.228.031-1.177-1.301-.547-.845.038.067.135.169.205.297.395.18-.118-.683.31-.441.942,1.025.11.354.916,1.209.02-.349-.702-1.594-.311-1.497l-.133-.088c-1.252-1.513.763.623.252-.157.073.13.68.853.544.682.327.135-.064-.581-.281-1.209l.306.404c.365.281.358.035.585.143-.304-.402-.207-.379-.71-.913,2.107,1.978-.544-1.562,1.225.075-.022.026.226.387.247.371l-.12-.507c-.571-.638-.36-.373-.831-.847-.307-.405-.511-.748-.466-.786.287.5.894,1.044,1.239,1.376-.176-.194-.352-.424-.528-.624,1.084,1.076-1.103-1.322-.307-.653l.285.347c-.101-.216-.442-.705-.307-.652.665.734.249.395.775,1.017.036-.106-1.074-1.549-.367-.856.148.236.106.278.253.513.827.821.644.59.817.684l-.022-.015.466.294-.237-.213c-1.585-2.039-.119-.518-1.095-1.908.92,1.318.582.72,1.301,1.58.234.21.509.434.7.686-.53-.738.56.458-.217-.617.237.27.085-.027.662.674-.109-.281-.426-.462-.714-.812-.685-1.038,1.247.902.315-.529-.307-.653-1.072-1.602-1.331-2.177.421.4.818,1.031.818,1.031.419.341.411.22.211-.154.191.252.379.442.663.732-.006-.119-.817-1.031-.398-.689.249.316.652.82.887,1.149-.15-.308-.524-.876-.668-1.181.427.463.58.76.822,1.092-.108-.28-.174-.602-.797-1.378l-.28-.228c-.004-.061.57.638.668.793.442.649-.318-.182-.558-.454l-.102-.217c-1.426-1.567.027.424-.149.413l-.961-1.205.731,1.056c-.282-.287-.855-.928-.957-1.144-.564-.519.294.469-.317-.125-.093-.095-.138-.154-.172-.206l.231.407c-.197-.257-.718-.817-.532-.683-.7-.571.554,1.046-.25.198l-.051-.081c.169.54.719.873,1.454,1.99l-1.899-2.047.718.874c-.044-.016-.134-.051-.421-.4.438.644.331.364.768.952-.753-.711.082.564-1.108-.789.529.679.512.436.81.966-1.285-1.45.112.341-.542-.269-.626-.78-.209-.44-.867-1.053,1.053,1.324-.39-.153-.244.148.871,1.025.224.546.406.98-.287-.349-.684-.386-1.102-.67l-.144-.174c.864,1.05.593.944.7,1.223-.526-.622-.721-.876-.917-1.188l-.067.066c.266.346.393.539.448.697l-.642-.787c-.059.124.587,1.073.023.662.609.726,1.813,1.923,2.096,2.515-.338-.385-.913-1.048-1.015-1.236.032.06.237.357.073.21l-.509-.699c-.302-.24.439.572.343.549-.474-.556-.372-.368-.743-.815-.035-.063.235.196.066-.036-.135-.057-.478-.335-.858-.738.275.312.64.748.665.852-.06.122-.604-.64-.904-.879.307.406-.095.058.614.89-.031.02-.368-.364-.571-.58.265.409-.139.302.672,1.138l.062.047c.012.019.01.022.023.043h0s0,0,0,0c.545.964-.737-.184-.593.307l-.237-.278c.176.399-.052.369.391,1.025-.029.023-.501-.451-.771-.792.106.271.364.59-.133.222-.341-.548-.393-.408-.229-.419-.3-.159-.702-.585-.154.261-.574-.741-.838-.835-.701-.584l.502.453c.038.147-.06.122-.157.1l-.776-.957c-1.168-.973,1.308,2.237-.47.457.509.699.5.371,1.109,1.176-.197-.05-1.439-1.314-1.47-1.293-.566-.414,1.056,1.465.625,1.22.301.319,1.079,1.198,1.253,1.594-.195-.047-1.308-1.307-1.481-1.623-.003-.046.099.051.194.165-.075-.147-.16-.322-.505-.653l.274.344c-.336-.303-.428-.162-.868-.735.205.376.44.573.638.703-.528-.386-.191.139-.587-.086.176.168.529.545.507.558-.527-.266.466.698.474.945-.502-.452-1.016-1.236-.769-.708-.367-.283-.773-.873-.977-1.17.443.736-.563-.252-.725-.317l-.174-.318c.103.189.071.208.041.23l.604.641c-.133-.088-.164-.067-.4-.345.34.467.976,1.088,1.42,1.745-.335-.301.177.479-.597-.394.397.182-.777-.877-.781-1.121.068.125.036.145-.097.056-.09-.095-.152-.187-.187-.246-.811-.678.796,1.055.64,1.152-.41-.514-.842-.92-.774-.794.064-.037.739.81,1.016,1.237-.421-.313.151.372.066.366l.209.137c.409.515.309.487.382.697-.338-.384-.173-.316-.341-.468.682.937-.932-.776-.522-.103-.334-.301-.807-.935-1.042-1.131.447.739-.701-.585-.356.046.606.643.472.474.952,1.197l-.219-.631.716,1.078c.064-.038-.244-.523-.112-.437.412.596.275.424.778.958-.938-.942.35.716-.32.112l-1.419-1.665c-.766-.627.494,1.055-.036.784l.303.242c.541.68-.028.183.145.499-.47-.56-.678-.732-.997-1.057.355.41-.158.07.775,1.193l-.703-.666c-.396-.181,1.195,1.719.899,1.644-.476-.638-.874-.98-1.153-1.489-.05.033-.177-.035.152.351-.323-.325.516.855.024.362.19.26.681.847.592.844-.102-.108-.235-.275-.235-.275.235.275.241.441.811,1.018-1.62-1.616-.277.455-1.67-.931.062.27.097.549.043.665-.137-.171-.237-.277-.17-.234-.564-.412,1.289,1.659.657,1.201-.839-.837-.342-.549-.677-.851-1.583-1.812.045.393-.961-.594l-.07-.127c-.603-.56.418.842.189.811,0,0-.132-.166-.235-.277.717,1.001.83,1.438.939,1.793-.577-.745-.273-.422-.916-1.131.038.146,1.013,1.155,1.087,1.444-.368-.364-.733-.644-1.406-1.411l.059-.123c-.907-.962-.093.139-.293.008l-.369-.444c-.024.267.92,1.374.696,1.428l.3.318c.851,1.168-.598-.554.013.333l-.976-1.089c.173.316.721,1.243.799,1.538-.647-.873-.889-1.395-1.234-1.946-.063.04-.12.244.32.817-.069-.126-.274-.423-.105-.271.678.932.955,1.438.828,1.514-1.822-2.171-.754-.295-2.266-1.898.485.965-.681-.005-.801.319,1.514,1.605-.026.105,1.459,1.813.04.155-.004.145-.104.038l-1.041-.889c-.467-.468-.274-.423-.609-.805-.23-.032-.673-.688-1.141-1.078.542.602.713.916.445.738l.773.713c.62,1.055-1.376-1.323-.765-.275l-.411-.586c.189.392-.321.256.778,1.709-.185-.186-.607-.639-.676-.796-.379-.035.808,1.855-.077,1.139l-.344-.433c.066.154.61.846.201.463-.146-.176-.344-.433-.383-.443.104.162.53.823.271.62l-.362-.51c-.668-.382.684,1.412.765,1.841-1.059-1.239-1.558-1.509-1.807-1.643l-.147-.178c-.36.043.488,1.36.691,2.028-1.282-1.232-.929-.181-1.785-.753.224.197.82.97.889,1.126-.265-.209.597.977-.366-.166l.037.007c-.991-1.082-.84-.699-.945-.661l1.258,1.497c-2.057-1.983.132,1.262-1.638-.576.268.415.201.463.469.878l-.679-.799c-.314-.084-.469-.125-.479.213l-.452-.6c-.142.031,1.842,2.402,1.792,2.526l-1.044-1.166c-.154.164-1.219-.733-.464.489-.146-.177-.435-.525-.449-.596-.106.037-.998-.54.427,1.067-.911-1.061-.264.046.045.593l-.656-.796c.779,1.068,1.011,1.344,1.141,1.714-.113-.08-.559-.609-.354-.437-.437-.338.569.799.108.47l-.39-.534c-.14.015.097.277.548.903.214.362-.336-.055-.955-.753.358.442.804,1.062.578.901-.236-.262-.359-.444-.419-.533-.603-.408.561,1.098-.198.415-.224-.258-.342-.382-.417-.453.133-.081.264-.118.304-.054-.618-.723-.821-.769-1.6-1.832.39.609,1.274,1.904.891,1.643-.064-.066-.127-.131-.226-.24l-.06-.089c-.083-.054-.044.03.042.166-.131-.094-.225-.166-.262-.153-.522-.588-.384-.23-.455-.219.68.788.51.713,1.126,1.316-.056-.05-.072-.102-.068-.161-.013-.029-.015-.048-.05-.099.018.023.038.048.056.072.011-.049.036-.101.072-.153.307.434.557.805.129.41.411.529.831,1.074,1.026,1.332-1.008-1.048-1.642-1.538-2.241-2.204.236.566-.088.582,1.093,2.145.123.226-.411-.386-.626-.606-.104-.169-.056-.17-.226-.395.245.451-.115.355.754,1.41-.504-.381-.76-1.005-.756-.714l-.252-.334c-1.697-1.421,1.815,3.036-.315,1.17.133.112.195.164.349.334-1.155-.639.03,1.501-1.591.308-.355-.216.201.456.572,1.012l-.748-.831.736,1.068c.468.842-2.036-1.869-1.059-.354l.513.552c-.159-.052.079.517-.473-.151.083.11.487.613.206.338l-.382-.443.489.901c-.401-.214-1.49-1.782-1.748-1.711.078.23.912,1.461,1.192,1.737.046-.002.307.216.691.66l.135.285c1.109,1.32,2.209,2.703,3.145,3.486l-.578-.893.578.606-.056.117c.562.554.142-.003-.132-.397.298.331.515.554.644.662l-.966-1.342c.452.502.823,1.058,1.136,1.28-.448-.623-1.03-1.109-1.275-1.561.561.552.96,1.049.586.49.297.33.468.556.571.725-.293-.45-.005-.292-.573-1.012.682.689.017-.346,1.073.899-.237-.311-.738-1.054-.733-1.148,1.18,1.561.259-.07,1.596,1.542-1.075-1.392-.267-.798-.783-1.64.084.111.255.337.186.278.161.054.525.44.783.656-.934-1.11-1.047-1.45-1.573-2.178.991.994,1.057,1.336,1.957,2.337-.768-.89-.622-1.013-1.286-1.733.625.605.327.274,1.14,1.16-1.168-1.388-.142-.283-.814-1.174.671.603,1.128,1.272.868.767.408.382.738.946.738.946ZM78.095,33.413c.006.008.011.013.013.016-.005.035-.009.066-.01.086,0-.02.001-.047-.003-.102ZM78.282,33.232c-.051-.01-.085.01-.112.042-.241-.268-.474-.555-.441-.557.145.191.327.31.554.515ZM73.176,28.108c-.065-.139.079.008.222.166-.003.026.003.068.026.142.024.03.051.066.079.1-.126-.154-.244-.298-.327-.408Z"/><path class="uuid-7e966640-547d-4192-97fd-6497471963d4" d="M46.843,67.096c-.49,1.77-.97,3.73-1.44,5.89-1.17,5.33-8.98,6.3-8.98,0,0-8.26,1.32-22.7,3.43-25.5,1.56,2.86,1.31,10.34,1.24,12.65-.07,2.3-1.36,8.58,5.75,6.96Z"/><path class="uuid-2642ecbd-ee04-405c-8368-80b62b7936f2" d="M52.633,53.926c-1.92,2.04-3.88,6.16-5.79,13.17-7.11,1.62-5.82-4.66-5.75-6.96.07-2.31.32-9.79-1.24-12.65,1.24-1.64,4.94-7.73,5.55-8.46.65-.77,1.47-1.62,2.42-2.48,1.67.57,4.17.5,4.33,3.99.17,3.64-2.24,8.37.48,13.39Z"/><path class="uuid-d0185ad7-be68-4992-8e5d-91d4b538bc1a" d="M75.813,50.316c-5.19-2.63-15,4.02-13.52,8.09-2.68-5.01-6.1-8.27-9.66-4.48-2.72-5.02-.31-9.75-.48-13.39-.16-3.49-2.66-3.42-4.33-3.99,1.69-1.54,3.8-3.14,6.09-4.52.46,4.93,7.67,23.1,21.67,10.79.13,2.02.2,4.63.23,7.5Z"/><path class="uuid-2642ecbd-ee04-405c-8368-80b62b7936f2" d="M75.583,42.816c-14,12.31-21.21-5.86-21.67-10.79,8.83-5.29,20.44-7.27,21.66,10.66,0,.04.01.09.01.13Z"/><path class="uuid-7e966640-547d-4192-97fd-6497471963d4" d="M75.573,74.756c0,3.74-7.47,5.51-7.87,0-.16-2.26-2.28-10.48-5.4-16.33q0-.01-.01-.02c-1.48-4.07,8.33-10.72,13.52-8.09.1,9.43-.24,21.58-.24,24.44Z"/><path class="uuid-a25610d7-9f56-40c9-b71b-cb0bb961f503" d="M39.854,47.482c1.785,3.706,1.476,8.033,1.506,12.041-.393,4.635-.595,8.682,5.482,7.573-.984.226-2.005.464-3.046.296-3.742-.528-3.041-5.22-2.935-7.883.016-4.001.393-8.211-1.007-12.027h0Z"/><path class="uuid-d0185ad7-be68-4992-8e5d-91d4b538bc1a" d="M48.298,36.041c6.884.807,3.385,8.626,3.439,13.049-.012,1.629.282,3.261.898,4.839-.961-1.387-1.56-3.08-1.678-4.808-.376-3.339,1.151-6.681.611-9.923-.235-1.759-1.808-2.484-3.271-3.157h0Z"/><path class="uuid-d0185ad7-be68-4992-8e5d-91d4b538bc1a" d="M53.882,31.923c.896,5.022,3.49,10.248,7.598,13.325,3.215,2.411,7.572,1.72,10.805-.329,1.035-.529,2.34-1.549,3.292-2.237-3.507,3.963-9.838,7.003-14.663,3.388-4.354-3.284-6.835-8.808-7.032-14.148h0Z"/><path class="uuid-7e966640-547d-4192-97fd-6497471963d4" d="M62.305,58.427c-.697-1.498.218-3.192,1.165-4.367,2.893-3.331,8.465-6.15,12.621-3.593-4.04-2.236-14.592,3.053-13.786,7.96h0Z"/><path class="uuid-a25610d7-9f56-40c9-b71b-cb0bb961f503" d="M39.854,47.482c-1.726,3.275-1.927,7.122-2.481,10.726-.424,3.667-.707,7.35-.844,11.038.036,2.556-.778,6.036,1.832,7.6,1.639.914,3.719.354,5.117-.765,2.221-1.856,2.108-4.998,2.928-7.565.923-3.573,1.976-7.133,3.536-10.493,8.366-17.594,17.147,9.643,18.009,17.489.729,4.105,7.568,2.983,7.522-.942.018-1.735.114-6.505.149-8.307.118-7.38.264-14.768-.027-22.143-.294-5.267-1.086-11.737-6.072-14.659-7.779-4.034-19.127,3.691-24.116,9.567,4.754-5.439,11.461-10.028,18.791-10.755,8.83-.695,11.382,8.731,11.522,15.841.313,7.382.187,14.77.09,22.152-.035,1.808-.107,6.549-.125,8.304.055,4.185-7.174,5.365-7.97.996-.858-7.619-9.375-34.833-17.632-17.477-1.561,3.339-2.624,6.892-3.556,10.457-.83,2.583-.733,5.747-2.984,7.612-1.432,1.139-3.55,1.7-5.223.762-2.645-1.587-1.826-5.091-1.853-7.677.148-3.69.441-7.373.876-11.04.563-3.603.777-7.451,2.512-10.722h0Z"/><path class="uuid-2642ecbd-ee04-405c-8368-80b62b7936f2" d="M45.433,43.736c.79-4.13-1.15-6.86-3.44-8.41,1.76-1.58,3.3-.3,4.49-3.23.11-.28.22-.59.32-.94.21.95.31,1.9.3,2.81v.02c.81,3.27.26,6.81-1.67,9.75Z"/><path class="uuid-d0185ad7-be68-4992-8e5d-91d4b538bc1a" d="M46.803,31.156c-.1.35-.21.66-.32.94-1.19,2.93-2.73,1.65-4.49,3.23-2.29-1.54-3.83,5.98-6.92,5.89-3.09-.08-2.64-4.49-5.61-4.29-2.93.2-5-2.48-6.18-3.85.5-1.55,1.33-3.02,2.47-4.33,1.78-2.03,4.08-3.33,6.52-3.89-.52,2.39.11,4.06,1.36,5.07,2.46,2.02,7.37,1.45,10.7-1.25.46-.37.89-.77,1.27-1.22.52,1.2.94,2.46,1.2,3.7Z"/><path class="uuid-7e966640-547d-4192-97fd-6497471963d4" d="M45.433,43.736v.01c-.31.47-.66.93-1.04,1.36-4.52,5.14-12.35,5.66-17.5,1.14-3.85-3.38-5.11-8.6-3.61-13.17,1.18,1.37,3.25,4.05,6.18,3.85,2.97-.2,2.52,4.21,5.61,4.29,3.09.09,4.63-7.43,6.92-5.89,2.29,1.55,4.23,4.28,3.44,8.41Z"/><path class="uuid-ff9e2736-15bb-4c52-a17d-450859e8de3c" d="M37.163,24.706c-.96,1.94-2.22,3.89-3.53,5.22-1.25-1.01-1.88-2.68-1.36-5.07,1.6-.38,3.27-.43,4.89-.15Z"/><path class="uuid-896bef16-2795-45d4-9bb6-6daa0bc256f1" d="M45.603,27.456c-.38.45-.81.85-1.27,1.22-3.33,2.7-8.24,3.27-10.7,1.25,1.31-1.33,2.57-3.28,3.53-5.22.86-1.71,1.5-3.41,1.74-4.65.42-2.1,4.46,2.14,6.7,7.4Z"/><path class="uuid-7e966640-547d-4192-97fd-6497471963d4" d="M23.241,33.03c1.789,1.923,3.922,3.924,6.727,3.545,1.068.051,1.912.963,2.372,1.738.888,1.705,2.521,3.504,4.267,1.629,1.558-1.468,2.138-3.887,4.136-5.114.428-.226,1.065-.146,1.431.123,1.542,1.077,2.774,2.634,3.287,4.444.393,1.442.344,2.954-.033,4.346.493-3.243-.95-6.485-3.699-8.08-.233-.125-.402-.146-.624-.036-1.621,1.224-2.226,3.512-3.793,5.024-2.279,2.289-4.608.556-5.716-1.876-.449-.738-.907-1.354-1.71-1.471-2.94.215-5.136-2.056-6.647-4.272h0Z"/><path class="uuid-d0185ad7-be68-4992-8e5d-91d4b538bc1a" d="M46.843,31.038c-.249,1.119-.634,2.344-1.669,2.995-1.048.565-2.248.504-3.18,1.296.396-.421.91-.741,1.466-.922.548-.196,1.124-.287,1.585-.588.977-.588,1.377-1.765,1.798-2.782h0Z"/><path class="uuid-d0185ad7-be68-4992-8e5d-91d4b538bc1a" d="M32.276,24.847c-1.078,6.007,5.098,7.107,9.476,5.173,1.428-.59,2.749-1.46,3.859-2.577-.956,1.258-2.261,2.246-3.704,2.929-4.474,2.29-11.413.713-9.631-5.525h0Z"/><circle class="uuid-ff9e2736-15bb-4c52-a17d-450859e8de3c" cx="35.071" cy="36.926" r="12.399"/><path class="uuid-a25610d7-9f56-40c9-b71b-cb0bb961f503" d="M32.805,30.679c2.852-2.868,4.703-6.721,5.734-10.592.163-1.171,1.26-1.085,1.973-.532,2.319,1.785,3.803,4.424,5.023,7.021,1.016,2.329,1.742,4.869,1.569,7.414-.143-2.521-.978-4.928-2.092-7.17-1.276-2.459-2.744-4.949-4.909-6.658-.485-.301-.779-.518-.882.069-1.088,3.95-3.184,7.873-6.417,10.448h0Z"/><path class="uuid-5d5cf7ad-d3df-4576-aeea-1b179dddbac1" d="M27.043,41.219c2.273,1.78,5.319,1.358,8.025,1.492-2.403.811-6.206.351-8.025-1.492h0Z"/><path class="uuid-5d5cf7ad-d3df-4576-aeea-1b179dddbac1" d="M27.58,42.661c2.346,1.548,5.13,1.984,7.752,2.852-2.646.066-5.715-1.237-7.752-2.852h0Z"/><path class="uuid-5d5cf7ad-d3df-4576-aeea-1b179dddbac1" d="M27.722,40.35c2.652,1.435,5.715-.063,8.465-.462-1.815,1.109-4.274,1.435-6.433,1.247-.671-.115-1.639-.271-2.032-.785h0Z"/><path class="uuid-896bef16-2795-45d4-9bb6-6daa0bc256f1" d="M23.107,40.182c-.558-1.636-.385-2.116-.429-2.905.769-1.199,3.641-.71.429,2.905Z"/><path class="uuid-6ca0b929-d59b-411e-a012-21737a329dfb" d="M27.027,36.729c0,1.473,1.293,2.667,2.889,2.667s2.889-2.667,2.889-2.667c0,0-1.293-2.667-2.889-2.667s-2.889,1.194-2.889,2.667Z"/><path class="uuid-a25610d7-9f56-40c9-b71b-cb0bb961f503" d="M27.027,36.729c-.012,1.458,1.354,2.614,2.76,2.6,1.427-.032,2.282-1.543,2.904-2.656,0,0,0,.111,0,.111-.621-1.113-1.477-2.623-2.903-2.655-1.406-.014-2.773,1.142-2.76,2.6h0ZM27.027,36.729c-.03-1.472,1.327-2.663,2.755-2.722,1.557-.035,2.492,1.528,3.167,2.722-.675,1.193-1.611,2.756-3.167,2.721-1.428-.059-2.786-1.249-2.755-2.721h0Z"/><path class="uuid-2642ecbd-ee04-405c-8368-80b62b7936f2" d="M27.914,36.729c0,1.011.776,1.83.776,1.83,0,0,.776-.819.776-1.83,0-1.011-.776-1.83-.776-1.83,0,0-.776.819-.776,1.83Z"/><ellipse class="uuid-3b6d67f3-9060-4931-bd97-272793d63246" cx="29.338" cy="36.041" rx=".494" ry=".259" transform="translate(-14.09 19.497) rotate(-30)"/><path class="uuid-a25610d7-9f56-40c9-b71b-cb0bb961f503" d="M22.703,43.518c-1.19,1.017-2.394,2.015-3.612,2.994-1.011.845-2.756,2.32-4.012,2.445.98-1.284,2.252-2.183,3.612-2.995.983-.558,3.256-2.273,4.012-2.444h0Z"/><path class="uuid-a25610d7-9f56-40c9-b71b-cb0bb961f503" d="M23.675,46.255c-.634,1.761-1.184,3.566-1.951,5.264-.308.544-.647,1.074-1.115,1.545l-.078-.035c.085-1.309.61-2.432,1.262-3.527.58-1.104,1.181-2.198,1.804-3.282l.078.035h0Z"/></svg>